<svg id="Layer_1" data-name="Layer 1" xmlns="http://www.w3.org/2000/svg" viewBox="0 0 396 405.8"><title>4-10ft-practice_42x42</title><path d="M-133.4-198.9a60.7,60.7,0,0,1,60.6,60.6,60.7,60.7,0,0,1-60.6,60.6A60.7,60.7,0,0,1-194-138.3a60.7,60.7,0,0,1,60.6-60.6m0-4A64.6,64.6,0,0,0-198-138.3a64.6,64.6,0,0,0,64.6,64.6,64.6,64.6,0,0,0,64.6-64.6,64.6,64.6,0,0,0-64.6-64.6Z" transform="translate(198 202.9)" style="fill:#231f20"/><polygon points="83.6 62.2 45.8 62.2 45.8 60.9 83.6 60.9 83.6 62.2 83.6 62.2" style="fill:#231f20"/><polygon points="44.9 74.6 43.5 74.6 43.5 60.9 44.9 60.9 44.9 74.6 44.9 74.6" style="fill:#231f20"/><polygon points="83.6 74.6 45.8 74.6 45.8 73.2 83.6 73.2 83.6 74.6 83.6 74.6" style="fill:#231f20"/><polygon points="85.7 74.6 84.4 74.6 84.4 60.9 85.7 60.9 85.7 74.6 85.7 74.6" style="fill:#231f20"/><path d="M133.4-198A60.7,60.7,0,0,1,194-137.4a60.7,60.7,0,0,1-60.6,60.6,60.7,60.7,0,0,1-60.6-60.6A60.7,60.7,0,0,1,133.4-198m0-4a64.6,64.6,0,0,0-64.6,64.6,64.6,64.6,0,0,0,64.6,64.6A64.6,64.6,0,0,0,198-137.4,64.6,64.6,0,0,0,133.4-202Z" transform="translate(198 202.9)" style="fill:#231f20"/><polygon points="350.4 63.1 312.6 63.1 312.6 61.7 350.4 61.7 350.4 63.1 350.4 63.1" style="fill:#231f20"/><polygon points="311.7 75.4 310.3 75.4 310.3 61.7 311.7 61.7 311.7 75.4 311.7 75.4" style="fill:#231f20"/><polygon points="350.4 75.4 312.6 75.4 312.6 74 350.4 74 350.4 75.4 350.4 75.4" style="fill:#231f20"/><polygon points="352.5 75.4 351.2 75.4 351.2 61.7 352.5 61.7 352.5 75.4 352.5 75.4" style="fill:#231f20"/><path d="M-133.4,77.7a60.7,60.7,0,0,1,60.6,60.6,60.7,60.7,0,0,1-60.6,60.6A60.7,60.7,0,0,1-194,138.3a60.7,60.7,0,0,1,60.6-60.6m0-4A64.6,64.6,0,0,0-198,138.3a64.6,64.6,0,0,0,64.6,64.6,64.6,64.6,0,0,0,64.6-64.6,64.6,64.6,0,0,0-64.6-64.6Z" transform="translate(198 202.9)" style="fill:#231f20"/><polygon points="83.6 345.7 45.8 345.7 45.8 344.4 83.6 344.4 83.6 345.7 83.6 345.7" style="fill:#231f20"/><polygon points="44.9 358.1 43.5 358.1 43.5 344.4 44.9 344.4 44.9 358.1 44.9 358.1" style="fill:#231f20"/><polygon points="83.6 358.1 45.8 358.1 45.8 356.7 83.6 356.7 83.6 358.1 83.6 358.1" style="fill:#231f20"/><polygon points="85.7 358.1 84.4 358.1 84.4 344.4 85.7 344.4 85.7 358.1 85.7 358.1" style="fill:#231f20"/><path d="M133.4,77.7a60.6,60.6,0,1,1-60.6,60.6,60.7,60.7,0,0,1,60.6-60.6m0-4A64.6,64.6,0,1,0,198,138.3a64.6,64.6,0,0,0-64.6-64.6Z" transform="translate(198 202.9)" style="fill:#231f20"/><polygon points="350.4 345.7 312.6 345.7 312.6 344.4 350.4 344.4 350.4 345.7 350.4 345.7" style="fill:#231f20"/><polygon points="311.7 358.1 310.3 358.1 310.3 344.4 311.7 344.4 311.7 358.1 311.7 358.1" style="fill:#231f20"/><polygon points="350.4 358.1 312.6 358.1 312.6 356.7 350.4 356.7 350.4 358.1 350.4 358.1" style="fill:#231f20"/><polygon points="352.5 358.1 351.2 358.1 351.2 344.4 352.5 344.4 352.5 358.1 352.5 358.1" style="fill:#231f20"/></svg>