<svg id="Layer_1" data-name="Layer 1" xmlns="http://www.w3.org/2000/svg" viewBox="0 0 458.7 435.9"><title>8-10ft-practice_42x42</title><path d="M-164.1-213.9a60.7,60.7,0,0,1,60.6,60.6,60.7,60.7,0,0,1-60.6,60.6,60.7,60.7,0,0,1-60.6-60.6,60.7,60.7,0,0,1,60.6-60.6m0-4a64.6,64.6,0,0,0-64.6,64.6,64.6,64.6,0,0,0,64.6,64.6,64.6,64.6,0,0,0,64.6-64.6,64.6,64.6,0,0,0-64.6-64.6Z" transform="translate(229.4 217.9)" style="fill:#231f20"/><polygon points="84.3 62.2 46.5 62.2 46.5 60.9 84.3 60.9 84.3 62.2 84.3 62.2" style="fill:#231f20"/><polygon points="45.5 74.6 44.1 74.6 44.1 60.9 45.5 60.9 45.5 74.6 45.5 74.6" style="fill:#231f20"/><polygon points="84.3 74.6 46.5 74.6 46.5 73.2 84.3 73.2 84.3 74.6 84.3 74.6" style="fill:#231f20"/><polygon points="86.4 74.6 85.1 74.6 85.1 60.9 86.4 60.9 86.4 74.6 86.4 74.6" style="fill:#231f20"/><path d="M164.8-213.9a60.7,60.7,0,0,1,60.6,60.6,60.7,60.7,0,0,1-60.6,60.6,60.7,60.7,0,0,1-60.6-60.6,60.7,60.7,0,0,1,60.6-60.6m0-4a64.6,64.6,0,0,0-64.6,64.6,64.6,64.6,0,0,0,64.6,64.6,64.6,64.6,0,0,0,64.6-64.6,64.6,64.6,0,0,0-64.6-64.6Z" transform="translate(229.4 217.9)" style="fill:#231f20"/><polygon points="413.1 62.2 375.3 62.2 375.3 60.9 413.1 60.9 413.1 62.2 413.1 62.2" style="fill:#231f20"/><polygon points="374.4 74.6 373 74.6 373 60.9 374.4 60.9 374.4 74.6 374.4 74.6" style="fill:#231f20"/><polygon points="413.1 74.6 375.3 74.6 375.3 73.2 413.1 73.2 413.1 74.6 413.1 74.6" style="fill:#231f20"/><polygon points="415.2 74.6 413.9 74.6 413.9 60.9 415.2 60.9 415.2 74.6 415.2 74.6" style="fill:#231f20"/><path d="M-164.1,92.7a60.7,60.7,0,0,1,60.6,60.6,60.7,60.7,0,0,1-60.6,60.6,60.7,60.7,0,0,1-60.6-60.6,60.7,60.7,0,0,1,60.6-60.6m0-4a64.6,64.6,0,0,0-64.6,64.6,64.6,64.6,0,0,0,64.6,64.6,64.6,64.6,0,0,0,64.6-64.6,64.6,64.6,0,0,0-64.6-64.6Z" transform="translate(229.4 217.9)" style="fill:#231f20"/><polygon points="84.3 375.7 46.5 375.7 46.5 374.4 84.3 374.4 84.3 375.7 84.3 375.7" style="fill:#231f20"/><polygon points="45.5 388.1 44.1 388.1 44.1 374.4 45.5 374.4 45.5 388.1 45.5 388.1" style="fill:#231f20"/><polygon points="84.3 388.1 46.5 388.1 46.5 386.7 84.3 386.7 84.3 388.1 84.3 388.1" style="fill:#231f20"/><polygon points="86.4 388.1 85.1 388.1 85.1 374.4 86.4 374.4 86.4 388.1 86.4 388.1" style="fill:#231f20"/><path d="M164.8,92.7a60.6,60.6,0,1,1-60.6,60.6,60.7,60.7,0,0,1,60.6-60.6m0-4a64.6,64.6,0,1,0,64.6,64.6,64.6,64.6,0,0,0-64.6-64.6Z" transform="translate(229.4 217.9)" style="fill:#231f20"/><polygon points="413.1 375.7 375.3 375.7 375.3 374.4 413.1 374.4 413.1 375.7 413.1 375.7" style="fill:#231f20"/><polygon points="374.4 388.1 373 388.1 373 374.4 374.4 374.4 374.4 388.1 374.4 388.1" style="fill:#231f20"/><polygon points="413.1 388.1 375.3 388.1 375.3 386.7 413.1 386.7 413.1 388.1 413.1 388.1" style="fill:#231f20"/><polygon points="415.2 388.1 413.9 388.1 413.9 374.4 415.2 374.4 415.2 388.1 415.2 388.1" style="fill:#231f20"/><path d="M-164.8-61.2A60.7,60.7,0,0,1-104.2-.6,60.7,60.7,0,0,1-164.8,60,60.7,60.7,0,0,1-225.4-.6a60.7,60.7,0,0,1,60.6-60.6m0-4A64.6,64.6,0,0,0-229.4-.6,64.6,64.6,0,0,0-164.8,64,64.6,64.6,0,0,0-100.2-.6a64.6,64.6,0,0,0-64.6-64.6Z" transform="translate(229.4 217.9)" style="fill:#231f20"/><polygon points="83.6 217.8 45.8 217.8 45.8 216.5 83.6 216.5 83.6 217.8 83.6 217.8" style="fill:#231f20"/><polygon points="44.9 230.2 43.5 230.2 43.5 216.5 44.9 216.5 44.9 230.2 44.9 230.2" style="fill:#231f20"/><polygon points="83.6 230.2 45.8 230.2 45.8 228.8 83.6 228.8 83.6 230.2 83.6 230.2" style="fill:#231f20"/><polygon points="85.7 230.2 84.4 230.2 84.4 216.5 85.7 216.5 85.7 230.2 85.7 230.2" style="fill:#231f20"/><path d="M164.1-61.2A60.7,60.7,0,0,1,224.7-.6,60.7,60.7,0,0,1,164.1,60,60.7,60.7,0,0,1,103.5-.6a60.7,60.7,0,0,1,60.6-60.6m0-4A64.6,64.6,0,0,0,99.5-.6,64.6,64.6,0,0,0,164.1,64,64.6,64.6,0,0,0,228.7-.6a64.6,64.6,0,0,0-64.6-64.6Z" transform="translate(229.4 217.9)" style="fill:#231f20"/><polygon points="412.5 217.8 374.6 217.8 374.6 216.5 412.5 216.5 412.5 217.8 412.5 217.8" style="fill:#231f20"/><polygon points="373.7 230.2 372.3 230.2 372.3 216.5 373.7 216.5 373.7 230.2 373.7 230.2" style="fill:#231f20"/><polygon points="412.5 230.2 374.6 230.2 374.6 228.8 412.5 228.8 412.5 230.2 412.5 230.2" style="fill:#231f20"/><polygon points="414.6 230.2 413.2 230.2 413.2 216.5 414.6 216.5 414.6 230.2 414.6 230.2" style="fill:#231f20"/><path d="M3.6-213.9a60.7,60.7,0,0,1,60.6,60.6A60.7,60.7,0,0,1,3.6-92.7,60.7,60.7,0,0,1-57-153.3,60.7,60.7,0,0,1,3.6-213.9m0-4A64.6,64.6,0,0,0-61-153.3,64.6,64.6,0,0,0,3.6-88.7a64.6,64.6,0,0,0,64.6-64.6A64.6,64.6,0,0,0,3.6-217.9Z" transform="translate(229.4 217.9)" style="fill:#231f20"/><polygon points="252 62.2 214.1 62.2 214.1 60.9 252 60.9 252 62.2 252 62.2" style="fill:#231f20"/><polygon points="213.2 74.6 211.8 74.6 211.8 60.9 213.2 60.9 213.2 74.6 213.2 74.6" style="fill:#231f20"/><polygon points="252 74.6 214.1 74.6 214.1 73.2 252 73.2 252 74.6 252 74.6" style="fill:#231f20"/><polygon points="254.1 74.6 252.7 74.6 252.7 60.9 254.1 60.9 254.1 74.6 254.1 74.6" style="fill:#231f20"/><path d="M2.3,92.7a60.6,60.6,0,0,1,0,121.2,60.6,60.6,0,0,1,0-121.2m0-4a64.6,64.6,0,1,0,64.6,64.6A64.6,64.6,0,0,0,2.3,88.7Z" transform="translate(229.4 217.9)" style="fill:#231f20"/><polygon points="250.7 375.7 212.9 375.7 212.9 374.4 250.7 374.4 250.7 375.7 250.7 375.7" style="fill:#231f20"/><polygon points="212 388.1 210.6 388.1 210.6 374.4 212 374.4 212 388.1 212 388.1" style="fill:#231f20"/><polygon points="250.7 388.1 212.9 388.1 212.9 386.7 250.7 386.7 250.7 388.1 250.7 388.1" style="fill:#231f20"/><polygon points="252.8 388.1 251.5 388.1 251.5 374.4 252.8 374.4 252.8 388.1 252.8 388.1" style="fill:#231f20"/></svg>