<svg id="Layer_1" data-name="Layer 1" xmlns="http://www.w3.org/2000/svg" viewBox="0 0 216 118.5"><title>American_Flag_1c</title><polygon points="216 27.8 216 18.1 103.7 18.1 103.7 27.8 216 27.8 216 27.8" style="fill:#050000;fill-rule:evenodd"/><polygon points="216 45.9 216 36.1 103.7 36.1 103.7 45.9 216 45.9 216 45.9" style="fill:#050000;fill-rule:evenodd"/><polygon points="216 63.9 216 54.2 103.7 54.2 103.7 63.9 216 63.9 216 63.9" style="fill:#050000;fill-rule:evenodd"/><polygon points="216 9.7 216 0 103.7 0 103.7 9.7 216 9.7 216 9.7" style="fill:#050000;fill-rule:evenodd"/><polygon points="216 82.4 216 72.6 0 72.6 0 82.4 216 82.4 216 82.4" style="fill:#050000;fill-rule:evenodd"/><polygon points="216 100.4 216 90.7 0 90.7 0 100.4 216 100.4 216 100.4" style="fill:#050000;fill-rule:evenodd"/><polygon points="216 118.5 216 108.8 0 108.8 0 118.5 216 118.5 216 118.5" style="fill:#050000;fill-rule:evenodd"/><path d="M-107.8-59.3V4.6H-4.5V-59.3ZM-8.2-10.8l-2.5-1.9-2.7,1.9,1-3L-15-15.7h3.2l1-3,.9,3h3.2l-2.7,1.9Zm-8.1-6.5-2.6-1.9-2.6,1.9,1-3L-23-22.2h3.2l1-3,.9,3h3.2l-2.6,1.9Zm0-13.4-2.6-1.9-2.6,1.9,1-3L-23-35.6h3.2l1-3,.9,3h3.2l-2.6,1.9Zm8.1,6.9-2.5-1.9-2.7,1.9,1-3L-15-28.7h3.2l1-3,.9,3h3.2l-2.7,1.9Zm-.2-13L-11-38.6l-2.6,1.9,1-3-2.6-1.9H-12l1-3,1,3h3.2l-2.6,1.9Zm-3.8-17.9,1-3.1,1,3.1h3.2l-2.6,1.9,1,3-2.6-1.9-2.6,1.9,1-3-2.6-1.9Zm-7.8,6.2,1-3,.9,3h3.2l-2.6,1.9.9,3-2.5-1.9-2.6,1.9,1-3-2.7-1.9Zm-5,24.2-2.5-1.9-2.6,1.9.9-3-2.6-1.9h3.2l1-3.1.9,3.1h3.2l-2.7,1.9Zm-13-24,1-3,.9,3H-33l-2.6,1.9.9,3-2.5-1.9-2.6,1.9.9-3-2.5-1.9Zm-5,24.2-2.5-1.9L-48.4-24l1-3-2.5-1.9h3.2l1-3,.9,3h3.2L-44.1-27Zm-13-23.9,1-3,.9,3h3.2L-53.6-46l1,3-2.6-1.9L-57.8-43l.9-3-2.5-1.9Zm-5,24.1-2.7-1.9-2.5,1.9.9-3L-68-28.7h3.2l.9-3,1,3h3.2l-2.6,1.9ZM-74.3-47.7l1-3,.9,3h3.2l-2.6,1.9,1,3.1-2.6-1.9-2.6,1.9,1-3-2.6-1.9Zm-5,24.1-2.5-1.9-2.6,1.9,1-3-2.7-1.9h3.2l1-3,.9,3h3.2l-2.6,1.9Zm-13-23.9,1-3,.9,3h3.2l-2.6,1.9.9,3-2.5-1.9L-94-42.6l1-3-2.6-1.9Zm-5,24.2-2.5-1.9-2.6,1.9.9-3.1-2.5-1.8h3.2l1-3.1.9,3.1h3.2l-2.6,1.8Zm-4-30.9,1-3,1,3h3.2l-2.6,1.9,1,3-2.6-1.9-2.5,1.9.9-3-2.6-1.9Zm.3,13,.9-3,1,3H-96l-2.5,1.9.9,3-2.6-1.9-2.5,1.9.9-3-2.5-1.9Zm.2,25.9,1-3,.9,3h3.2l-2.6,1.9.9,3-2.5-1.9-2.6,1.9.9-3-2.5-1.9Zm3.8,17.9L-99.7.7l-2.6,1.9,1-3-2.6-1.9h3.2l1-3.1.9,3.1h3.2L-98.1-.4Zm8.3-5.5-2.5-1.9L-94-2.9l1-3-2.6-1.9h3.2l1-3.1.9,3.1h3.2l-2.6,1.9Zm-.7-16.5,1,3-2.6-1.9-2.6,1.9,1-3-2.6-1.9h3.2l1-3,.9,3H-87Zm0-13.5,1,3-2.6-1.9-2.6,1.9,1-3-2.6-1.9h3.2l1-3,.9,3H-87Zm6.2-21.5,1-3,1,3h3.2l-2.5,1.9.9,3-2.6-1.9L-85-49.5l1-3-2.6-1.9Zm.3,13,1-3,.9,3H-78l-2.6,1.9,1,3-2.5-1.9-2.7,1.9,1-3-2.6-1.9Zm.2,25.9,1-3,.9,3h3.2l-2.6,1.9.9,3.1-2.5-1.9-2.6,1.9,1-3.1-2.7-1.9Zm3.8,17.9L-81.6.4l-2.6,1.9,1-3-2.6-1.9h3.2l1-3,.9,3h3.2L-80.1-.6Zm8.4-5.5L-73.3-5l-2.6,1.8,1-3-2.6-1.9h3.2l1-3,.9,3h3.2l-2.6,1.9Zm-.8-16.4,1,3-2.6-1.9-2.6,1.9,1-3-2.6-1.9h3.2l1-3.1,1,3.1h3.2Zm0-13.5,1,3-2.6-1.9L-75.7-30l1-3-2.6-1.9h3.2l1-3,1,3h3.2Zm6.3-21.5.9-3.1,1,3.1h3.2l-2.6,1.9,1,3-2.6-1.9-2.6,1.9,1-3-2.6-1.9Zm.2,13,.9-3,1,3h3.2l-2.7,1.9,1,3-2.6-1.9-2.5,1.9.9-3-2.6-1.9Zm.2,25.9.9-3,1,3h3.2l-2.6,1.9,1,3-2.7-1.9-2.5,1.9.9-3L-68-15.7ZM-61,2.2-63.6.2l-2.6,1.9.9-3-2.5-1.9h3.2l1-3,1,3h3.2L-62-.9Zm8.4-5.5-2.6-1.9-2.6,1.9.9-3-2.5-1.9h3.2l1-3,.9,3h3.2l-2.5,1.9Zm-.8-16.5,1,3.1L-55-18.6l-2.6,1.9,1-3.1-2.6-1.9H-56l1-3,1,3h3.2Zm0-13.4,1,3L-55-32.1l-2.6,1.9,1-3-2.6-1.9H-56l1-3,1,3h3.2Zm6.2-21.6,1-3,1,3H-42L-44.6-53l1,3-2.6-1.9L-48.8-50l1-3-2.6-1.9Zm.2,13,1-3.1,1,3.1h3.2L-44.4-40l.9,3L-46-38.8l-2.5,1.9.9-3-2.6-1.9Zm.3,25.9,1-3,.9,3h3.2L-44.1-14l.9,3-2.5-1.9L-48.4-11l1-3-2.5-1.9Zm3.8,17.8L-45.5,0l-2.6,1.9,1-3L-49.7-3h3.2l1-3,.9,3h3.2l-2.6,1.9Zm8.3-5.5-2.5-1.9-2.6,1.9.9-3-2.5-1.9h3.2l1-3,.9,3H-33l-2.6,1.9Zm-.7-16.5,1,3-2.6-1.9-2.6,1.9,1-3L-41.1-22h3.2l1-3,.9,3h3.2Zm0-13.4,1,3-2.6-1.9-2.6,1.9,1-3-2.6-1.9h3.2l1-3,.9,3h3.2Zm6.2-21.6,1-3,1,3H-24l-2.6,1.9,1,3-2.6-1.9-2.6,1.9,1-3-2.6-1.9Zm.3,13,.9-3,1,3h3.2l-2.6,1.9,1,3-2.6-1.9-2.6,1.9,1-3-2.6-1.9Zm.2,26,1-3,.9,3h3.2l-2.7,1.9,1,3-2.5-1.9-2.6,1.9.9-3-2.6-1.9Zm3.8,17.8L-27.4-.1-30,1.7l1-3-2.6-1.9h3.2l1-3.1.9,3.1h3.2l-2.6,1.9Zm8.3-5.5-2.5-1.9-2.6,1.9,1-3-2.7-1.9h3.2l1-3.1.9,3.1h3.2l-2.6,1.9Zm8.6,6L-10.6.2l-2.5,1.9,1-3-2.7-1.9h3.2l.9-3,1,3h3.2L-8.9-.9Z" transform="translate(108 59.3)" style="fill:#050000;fill-rule:evenodd"/></svg>