<svg id="Layer_1" data-name="Layer 1" xmlns="http://www.w3.org/2000/svg" viewBox="0 0 500.5 488.4"><title>Bear978_1c</title><path d="M-128-107.4c35.4-19.2,13.3-28.8,12.4-45.6C-119.3-131.2-116.5-128-128-107.4Z" transform="translate(253.3 244.2)" style="fill:#522d24;fill-rule:evenodd"/><path d="M122-107.4c-11.5-20.6-8.7-23.8-12.4-45.6C108.7-136.2,86.6-126.6,122-107.4Z" transform="translate(253.3 244.2)" style="fill:#522d24;fill-rule:evenodd"/><path d="M-189.2-102c17.5-19,26.7-23.3,44.3-31.3C-169.9-137.3-182.3-124.2-189.2-102Z" transform="translate(253.3 244.2)" style="fill:#522d24;fill-rule:evenodd"/><path d="M138.9-133.2c17.6,8,26.7,12.3,44.3,31.3C176.3-124.2,163.9-137.3,138.9-133.2Z" transform="translate(253.3 244.2)" style="fill:#522d24;fill-rule:evenodd"/><path d="M51.7-28.8C47.9-68.2,8-50-3-49.9S-53.9-68.2-57.7-28.8C-45.9-7.2-14.7,7.9-3,10,8.7,7.9,39.9-7.2,51.7-28.8Z" transform="translate(253.3 244.2)" style="fill:#522d24;fill-rule:evenodd"/><path d="M240.5-33.7c7.1-32.2.1-65.5-30.1-100.7,39.9-40.2,24.8-90,.3-100.6-54.5-23.5-46.1,4.6-102.7,14.5C74.4-239.7,41-248.8-3-230.3c-43.3-17.2-77.4-9.4-111.1,9.7-56.6-9.9-48.2-38.1-102.7-14.5-24.5,10.6-39.6,60.4.3,100.6-30.2,35.3-37.2,68.6-30.1,100.7C-254-6.8-260,33.9-237.2,52.5l6.2-16.7c-2.2,27.8,3.7,81.3,44.7,87.6a54.3,54.3,0,0,1-5-24.1c27.5,62.6,57.7,58.4,82.5,87.5a114.4,114.4,0,0,0-3.5-28.3c16.2,27.4,23.9,23.2,44.5,42.2,16,14.8,7.6,40.2,64.8,43.4,57.2-3.2,48.8-28.6,64.8-43.4,20.6-19.1,28.4-14.8,44.5-42.2a114.4,114.4,0,0,0-3.5,28.3c24.8-29.2,55-25,82.5-87.5a54.3,54.3,0,0,1-5,24.1c41-6.3,47-59.9,44.7-87.6l6.2,16.7C254,33.9,248-6.8,240.5-33.7ZM181.3-231.6c19.1.5,48,15.7,47.5,47.7-3.2-6.9-7.2-12.1-13.6-12.2,11.2,18.6,4.9,34.4-5.7,49.4-3.1-15.2-12.1-27.4-31.8-34.4,8.3-2.8,16.8-3.9,27.2,3.7A34.4,34.4,0,0,0,185-192.1c7.5-2.2,14.9-3.3,21.4,1-2-5-6.4-8.8-14.6-10.7,8.8-5.5,14.6-2.3,19.2,3.1-2.9-9.6-13.1-12.6-18.9-13.1-14.2-1.2-19,9.6-44.7,18.1-5-4.9-11.8-9.6-18.3-14.1C162.9-218.2,163-232.1,181.3-231.6Zm-402.5,35.5c-6.4.1-10.3,5.4-13.6,12.2-.5-32,28.3-47.2,47.5-47.7s18.4,13.4,52.3,23.8c-6.6,4.5-13.3,9.2-18.3,14.1-25.7-8.5-30.6-19.4-44.7-18.1-5.8.5-16,3.5-18.9,13.1,4.6-5.4,10.5-8.6,19.2-3.1-8.2,1.9-12.6,5.7-14.6,10.7,6.5-4.3,13.8-3.2,21.4-1a34.4,34.4,0,0,0-19.8,14.8c10.3-7.6,18.9-6.4,27.2-3.7-19.7,6.9-28.7,19.2-31.8,34.4C-226-161.7-232.3-177.5-221.2-196.1Zm67,293.2c-5.8-25.7-7.6-51.5,12.4-69.3C-145.3,37.2-154.3,59.4-154.1,97.1Zm-10.8-18.3c-10.3-41.4,3.8-69.9,11-76.4s13.3-.9,25.8-17.3C-136.1,17.5-166.6,1.7-164.9,78.7ZM-68,38c-1.8-8.8,26.1-7.5,24.3,16.1-.1,10.1-4.8,26.6-6.8,39.8C-59.9,78-66.9,60.6-68,38Zm26.9,149.8c-2.9-.2-5.9-.4-9.3-2.7-1.8-21.5-4.4-43.4-8.3-66C-49.8,134.7-45.6,166.6-41.1,187.7Zm4.2,25.8c-8.5-2.7-14.5-11.7-17.7-28,9.4,10,20.3,4,23.3,10.9S-28.5,216.3-36.9,213.6ZM33.8,41.1A41.8,41.8,0,0,1,23.2,61.8a61.9,61.9,0,0,0-7.5-12.1,56.7,56.7,0,0,1-9,12.9A128.2,128.2,0,0,1-3,52.9a128.2,128.2,0,0,1-9.6,9.7,56.7,56.7,0,0,1-9-12.9,61.9,61.9,0,0,0-7.5,12.1A41.8,41.8,0,0,1-39.8,41.1C-18.1,54.2,12.1,54.2,33.8,41.1ZM-36,38.6c13.1-1,52.8-1,66,0C12.6,49.3-18.6,49.3-36,38.6Zm10.8,159.2a23.9,23.9,0,0,0,9.2,6.4c-.7,2.2-.5,8.6.6,10.1C-23.1,217.4-27.7,209-25.2,197.9Zm20.4,20.6c-6.2,2.6-10.5-6.6-7.5-16.7,3.4,8.6,6.9,6.9,7.6,10.6Zm3.6,0v-6.1c.7-3.7,4.2-2,7.6-10.6C9.3,211.9,5,221-1.2,218.4Zm10.6-4.1c1.1-1.5,1.2-7.9.6-10.1a23.9,23.9,0,0,0,9.2-6.4C21.7,209,17.1,217.4,9.4,214.4ZM-3,198.8c-10.1.7-18.6-7.1-25.5-16.2s-2.4-17.2-5.6-30.8a89.3,89.3,0,0,1,8.7,16.6c-3.3-27.9-10.3-22.4-12.8-35.3s16.1-24.1,32.6-5.3c.9,5.7,1.7,10.5,2.6,13.1.9-2.6,1.7-7.4,2.6-13.1,16.5-18.9,35-6.4,32.6,5.3s-9.5,7.4-12.8,35.3a89.3,89.3,0,0,1,8.7-16.6c-3.2,13.6,2,20.7-5.7,30.8S7.1,199.5-3,198.8Zm33.9,14.8c-8.4,2.7-8.1-11.3-5.6-17.1s13.8-.8,23.3-10.9C45.5,201.9,39.4,210.9,30.9,213.6ZM44.4,185c-3.5,2.3-6.4,2.5-9.3,2.7,4.5-21.2,8.7-53,17.7-68.7C48.8,141.6,46.2,163.5,44.4,185ZM62,38c-1.1,22.6-8.1,40-17.5,55.9-2-13.2-6.7-29.7-6.8-39.8C35.9,30.5,63.8,29.2,62,38Zm5.2-10.2c-16-6.7-22.2,2.9-33.3,4.4-15.4,1.4-58.5,1.4-73.9,0C-51,30.7-57.2,21.1-73.2,27.8c3.1-8.1,16.4-11.2,31.3-2.7-8-9.5-21.9-14.1-32.4-6.4,12-33.1-6.8-36,9.8-60.9l4,20.3c-3.4-51,16.9-54.8,42.9-47-4.8-4.7-9.3-8.5-19.6-9.1,6.6-9.6,28.6-.7,34.3-.6s27.8-9,34.3.6c-10.3.7-14.8,4.4-19.6,9.1,26-7.9,46.2-4,42.9,47l4-20.3c16.6,24.8-2.2,27.8,9.8,60.9C57.9,11,44,15.6,36,25.1,50.8,16.6,64.1,19.7,67.2,27.8Zm80.9,69.3c.2-37.7-8.8-59.9-12.4-69.3C155.7,45.5,153.9,71.4,148.1,97.1Zm10.8-18.3c1.7-77-28.8-61.3-36.8-93.7C134.6,1.5,141-3.8,147.9,2.4S169.1,37.4,158.9,78.7ZM205.2-2.1c8.3,26.5,9.6,66.9-1.9,95.7-.4-18.7-5.9-31.3-13.6-41.1-4.3,24-10.8,45.1-24.5,56.7C182.3,80.7,183.1,40.5,179.5-3c5.5,8.5,10.8,18.5,12.6,29.3,3.2-20.3,1.3-49.9-8.1-76L200.8-25c1.9-21.4-11.7-73.2-48.1-85C161.5-102,169-92.7,173.2-80c-6.1-5.6-13-9.5-21.2-10.5,13.5,17,19.1,36.6,23.3,56.7-5.8-8.1-11.5-12.6-17.3-15.5,7.8,15.5,12.6,31.5,12.6,48.5a49.4,49.4,0,0,0-15.3-18.1c7.2,12.4,12,29.2,13,53C156.5-17,142.8-2.6,121.9-53.1a128.1,128.1,0,0,1,24.7,16.5c-4.8-11.1-13-21.1-23.4-30.4A30.8,30.8,0,0,1,140-62.9a61.6,61.6,0,0,0-20.5-19.4,22.7,22.7,0,0,0-1.6-7c-2.4,13.6-5.3,28.1-19.5,37.5a18.4,18.4,0,0,0,2.1-12.6c-4.8,18.5-25.2,17.8-35.7,6.9,8.3,4.1,15.2,3.1,20.4-3.6-10.1,5.5-23.7-.2-25.7-13.7,16.9,19.1,44.3,5.5,32.4-23.2,6.3-.2,8.9,4.4,9.5,11.6,6-16.6-11.8-22.8-19.5-18.2s-12.6,9.3-23,19.2c-9.7,6.6-16.7-3.7-12.8-10.1,13.5-17.5,26.7-27.4,39.7-27.3-19.1-9.1-37-12.5-50.9,2.2,4-12.7,12-20.1,24.3-21.4-5.9-3.7-16.6-7.5-31.5,1.2,1.6-4.2,5.1-7.3,9.3-9.9-8.4-3.7-16.8-.8-25.1,7.4,1-5.6,2.6-9.5,4.9-11.9-5.2-.6-9.4,1.8-13.1,5.9-2.1-8.1,1.6-23,6.3-30.6,0,6.5.8,11.2,2.3,14.6,6.9-8.2,14.8-15.6,25-21.2-3.7,6.8-7.3,13.7-5,21.5,7.7-6.2,15.9-10.9,24.7-13.2-4.6,6.7-5.6,13.9-4.5,21.4,15.5-6.4,23.9-13.4,53.2-7.2-8.8-11.9-21.6-14-36.1-11.6,3.6-5.4,9-8.4,16.3-8.9-12.7-10.1-25.9-9-39.4-1,1.1-3.6,4-7.2,11.1-10.9-14-3.4-25.8-.3-35.9,7.4A37,37,0,0,1,24-202.7C7.5-198.5-1.5-188-3-171.4c-1.5-16.6-10.5-27.1-27-31.2a37,37,0,0,1,2.5,13.4c-10.1-7.7-21.9-10.8-35.9-7.4,7.1,3.6,10,7.2,11.1,10.9-13.5-8.1-26.7-9.1-39.4,1,7.3.5,12.7,3.5,16.3,8.9-14.5-2.3-27.3-.3-36.1,11.6,29.3-6.2,37.7.8,53.2,7.2,1.1-7.5.1-14.7-4.5-21.4,8.7,2.3,17,7,24.7,13.2,2.3-7.9-1.3-14.7-5-21.5,10.3,5.6,18.1,13,25,21.2,1.5-3.4,2.4-8.1,2.3-14.6,4.7,7.6,8.4,22.4,6.3,30.6-3.7-4.1-7.9-6.5-13.1-5.9,2.3,2.4,3.9,6.4,4.9,11.9-8.4-8.2-16.8-11.1-25.1-7.4,4.2,2.7,7.7,5.7,9.3,9.9-14.9-8.7-25.7-4.8-31.5-1.2,12.3,1.3,20.2,8.7,24.3,21.4-13.9-14.7-31.8-11.3-50.9-2.2,13-.1,26.2,9.8,39.7,27.3,3.9,6.4-3.1,16.7-12.8,10.1-10.5-9.9-16.6-15.3-23-19.2s-25.5,1.6-19.5,18.2c.6-7.3,3.2-11.9,9.5-11.6-11.9,28.7,15.5,42.3,32.4,23.2-2,13.5-15.5,19.2-25.7,13.7,5.2,6.7,12.1,7.7,20.4,3.6-10.5,10.9-31,11.7-35.7-6.9a18.4,18.4,0,0,0,2.1,12.6c-14.2-9.4-17.2-23.8-19.5-37.5a22.7,22.7,0,0,0-1.6,7A61.6,61.6,0,0,0-146-62.9,30.8,30.8,0,0,1-129.1-67c-10.5,9.3-18.7,19.3-23.4,30.4a128.1,128.1,0,0,1,24.7-16.5c-21,50.5-34.7,36-46.5,87.2,1-23.8,5.8-40.6,13-53A49.4,49.4,0,0,0-176.7-.8c0-17,4.8-33.1,12.6-48.5-5.8,2.9-11.5,7.4-17.3,15.5,4.1-20.1,9.8-39.7,23.3-56.7-8.2,1-15,4.9-21.2,10.5,4.2-12.7,11.7-22,20.6-30.1-36.4,11.8-50.1,63.6-48.1,85l16.7-24.7c-9.4,26.1-11.2,55.7-8.1,76C-196.3,15.5-191,5.5-185.5-3c-3.6,43.4-2.8,83.7,14.3,112.1-13.6-11.6-20.1-32.7-24.5-56.7-7.7,9.9-13.1,22.5-13.6,41.1-11.5-28.8-10.2-69.2-1.9-95.7-14.2-2.6-23.9,5.2-31.8,17.1-.6-46.5,23.1-67.3,28-97.4a304.7,304.7,0,0,1-18.1,27C-256.2-98-98-273.2-3-216.6,92-273.2,250.2-98,227.2-55.5a304.7,304.7,0,0,1-18.1-27c4.9,30.2,28.5,51,28,97.4C229.1,3.1,219.4-4.8,205.2-2.1Z" transform="translate(253.3 244.2)" style="fill:#522d24;fill-rule:evenodd"/><path d="M-49.1-54.4c2.7-18,23.8-14.1,32.4.6-12.2-6.7-24-7.6-32.4-.6" transform="translate(253.3 244.2)" style="fill:#522d24;fill-rule:evenodd"/><path d="M-94.4-96.9c1.7-.3,5.9,2.9,9.2,5.8,1.9,6.7-9,9.3-7.8-2.2-2,6.2-.9,12.3,1.3,18.2-4.9-5.9-6.1-13.1-2.7-21.8m182.6,0c-1.7-.3-5.9,2.9-9.2,5.8-1.9,6.7,9,9.3,7.8-2.2,2,6.2.9,12.3-1.3,18.2C90.4-81,91.6-88.2,88.2-96.9Z" transform="translate(253.3 244.2)" style="fill:#fff;fill-rule:evenodd"/><path d="M43.1-54.4c-2.7-18-23.8-14.1-32.4.6,12.2-6.7,24-7.6,32.4-.6" transform="translate(253.3 244.2)" style="fill:#522d24;fill-rule:evenodd"/></svg>