<svg id="Layer_1" data-name="Layer 1" xmlns="http://www.w3.org/2000/svg" viewBox="0 0 436.9 490"><title>bear300_1c</title><path d="M208.4-90.2c-28.2-27.3-71.2-50.3-111.7-56.7,3.7-6.5,5.4-14.6,2.8-25.8a24,24,0,0,1,2.6,3.7c3.8-35.7-39.8-49-54.4-12.9C25.8-192.2-.9-188.2-21-180.2c-20.4-4.4-47.2-3.2-57.8,1.2-14.9-19.3-68.4-7-58.1,33.5,1.4-2.9,2.6-6.4,5.3-8.5a54.2,54.2,0,0,0-2.4,10.9c-44,35.3-78.8,100.8-71.1,163.4a89,89,0,0,1,7.1-14.4C-200,63-184.6,121-153.4,151.5c-4.4-13.8-7.3-27.2-7.7-39.6,31.9,73,97.4,130.8,193.9,174.8,50.6-17.3,127.9-72.7,157.2-173l8.2,36.7C241.2,86.2,238.7-16.3,208.4-90.2ZM98.7-177.9a24.4,24.4,0,0,0-5.5-2.4c3.9,12,2.6,21.2-1.4,29.1a98.5,98.5,0,0,0-17.9-16.6c2.1-13.6,8.7-19.8,17.3-1.9-1.5-22.9-21.6-21.1-25.7-3.3a39.4,39.4,0,0,0-8.7-4.9C63-199.9,88.1-200.8,98.7-177.9Zm-231.4,19.4c8.4-21.1,44.4-30.6,54.8-2.6-8.2,2.9-11.8,5.6-14.8,8.2-2.7-16.7-31-16.1-24.6,9.5,1.2-16.3,15.6-16.3,20-5.7-5.4,6.7-10.8,13.2-14.2,26.1a46,46,0,0,1,7.7-2.5,79.5,79.5,0,0,0-6.8,7.1c-15.5.3-21-27.2-13.2-43.5A22.2,22.2,0,0,0-132.8-158.5ZM148.5,16.8C146,90.2,119.4,116,89.7,136a64.1,64.1,0,0,1-2.4-13.6A71.8,71.8,0,0,0,96.9,111a7.2,7.2,0,0,1-.1,5.6c44-24.5-44.4-37.8-84.2,5a79,79,0,0,1,29.6-8.2C22.4,129,2.3,142.2-19.2,143.1c-35.4-12.9-66.5-31.2-80.8-71-3.1,12.8-1.2,27.1.7,41.5C-117.6,85.6-127.5,51.9-126,10.4a204,204,0,0,0-12.2,29c-5.5-24.3-2.9-61.5,9.2-91.4-29.6,30.9-36.7,126.2,4.8,182.4a83.3,83.3,0,0,1-1.5-29.3c12.6,39.1,30.6,73.1,51.2,104.7-46.9-38.3-76.3-84.2-92.1-136.1-3.6,9.4-4.7,19.5-5.3,29.7-24.4-70.2-17.5-109.8-2.2-141.2-9.1,6-15.9,13.7-21.6,22.1,10.5-38.9,26.2-76.6,62.9-108.9,2.7,10.9,8.3,17,17.2,16.8-5,8.8-7.9,18.6-6.7,26.4,9.4-17.4,18.8-33.7,28.5-44.3a36.4,36.4,0,0,0-10.4,1c6.7-9,13.4-17.7,37.3-34a18.9,18.9,0,0,0-8.6.7,20.2,20.2,0,0,0-.3-9.4C-15.4-179.6-.5-157.8,29.4-130,24.3-146.9,9.9-161.8-10-175.5,49.9-186.7,91.2-146.7,110-103.8c20.8,47.4,26.1,27.3,55.3,72.7-6.9-3.4-14.2-5.5-22.7-3.9,12.7,19.2,16.9,40.7,17,63.4A61.8,61.8,0,0,0,148.5,16.8Zm15.1-38.6A21.9,21.9,0,0,1,175-13.8c3.8-34.7-33.4-58-41.4-67.7C120.2-97.9,116-122,102.7-137.7c17.4.5,85.6,41.2,95.1,54.4C209.5-67,228.2,24.5,206.4,100,198.5,54.1,183.8,14,163.6-21.8Z" transform="translate(206.1 203.3)" style="fill:#050000;fill-rule:evenodd"/><path d="M5.3-93.2c5.5,5.6,11.4,10.9,13.8,18.1a26.6,26.6,0,0,1-9.8,3.4c-15.5-8.2-31.5-14.6-47-16.8-7.7,4.5-11.7,11.9-13.5,19,5.9-7.9,10.3-12.1,15.5-11.8-1.5,10.7,3.6,18,10,24.5A21,21,0,0,1-36.5-60c6.9,15.5,43.8,9.6,48.3-4.1,4.8-1.1,10.6-1.3,16-10.4C25.4-80.4,18.2-86.6,5.3-93.2Zm-30,15.7A130.1,130.1,0,0,1-9.5-71c1,4.2-3.8,4.3-4.5,1.6-2.3,5.6,7.7,9.2,10.2.8a26.2,26.2,0,0,1,5.6,2.9C-14.6-52.9-25.9-67.6-24.7-77.5Z" transform="translate(206.1 203.3)" style="fill:#050000;fill-rule:evenodd"/><path d="M28.4-103.5C39.8-97,44-86,40.1-84.9s-2.5-8.3-11.7-18.6" transform="translate(206.1 203.3)" style="fill:#050000;fill-rule:evenodd"/><path d="M-3.5-36.8C-22.2-20.1-32.7,1.5-40.2,24.9l13-12.8C-36.4,34-35.9,60-35.5,85.9c-7.9-18.5-7.7-37.8-2-57.6A113.2,113.2,0,0,0-48.1,44.9C-48.6,12.5-27.3-29-3.5-36.8" transform="translate(206.1 203.3)" style="fill:#050000;fill-rule:evenodd"/><path d="M-82.7-39.3C-87.9-29.1-93.1-18.8-93.9-6.1c3.1-3.4,7.8-5.4,13.8-6.4-3.6,13.8-3.9,26.8-4.3,39.8A32.8,32.8,0,0,1-73.7,15.3c-.2,30,5.6,51.6,13.6,70-8.2-9.9-16.8-18.1-20.9-43.5l-4.6,20.5c-7.9-13.6-10.8-32.1-6.8-57.5-6.3,5.3-9.4,11.6-13.1,17.7-5.2-35,6.5-51,22.7-61.8" transform="translate(206.1 203.3)" style="fill:#050000;fill-rule:evenodd"/><path d="M29.8-69.7c-7.6,16.6-1,33.3,7.4,39a198.9,198.9,0,0,1-7.4-39" transform="translate(206.1 203.3)" style="fill:#050000;fill-rule:evenodd"/><path d="M86.5-67.1c8.7-3,7.4-15.3,8-25.9,3.1,1.8,5.6,6.3,7.8,11.6,1-5.1-1.9-19.1-10.4-21.9-7.5,4-15.3,12.4-22.8,21.1,1-9.6,1.4-19.2-1.7-29.2-.7,12.9-2.8,21.7-5.6,28.7,18.6,17,34.7,34.6,46,53.4a43.8,43.8,0,0,0-16.6,9.9C77-27.6,48.7-28,44.6-21,42.1-16.7,49.9-3.8,65.8,1.8,48.9-20.6,101.7,4.2,70.1,4,69.7,9.7,84.8,17.6,97.6,20c6.2-4.2,11.3-9.7,13.6-19.2-13,11.4.2-29.1,1.6-6.6a11.1,11.1,0,0,1,2.9-4.2c1.7,5.5-.9,26.1-3.2,38.2C38.5,45.3,22.9-8.8,6-17.8,16.8-16.7,24.4-9.7,33.6-5.6,29.6-13.8,10-28.7,2.8-25.3-22.3-1-21.7,43.8-11.7,65.2c-4.9-29-1-55.9,9-73.4-10,61.8,1.3,83.3,12.8,104.3L-.2,109.4C25.4,87.3,115.8,70,117.6,89.9c0-3.7,2.7-9-2.8-12.3-.3-8.7-.2-17.4-3.9-26.7a100.1,100.1,0,0,0,3.3-14.8c3.2,2.1,5.3-4.8,6-20.5a144.4,144.4,0,0,1,4.1,44.5C135,10.2,122.7-32.4,86.5-67.1Zm-4.8-4.6-6.9-5.8a29.9,29.9,0,0,1,5.3-6.2,2.9,2.9,0,0,1-1,5.3c3.9,2.9,7.8-4.3,4.5-9.8A12.5,12.5,0,0,1,88.1-92C89.6-82.1,87.3-74.5,81.7-71.8ZM93.4-5.5C80.7-14.9,67.2-18.4,50.2-20c2.1-4.3,30.8-1.4,41.2,6.4,6.8-6.5,13.2-10.4,19.2-11.2l1.1,2.3C101.7-19.5,98-12.2,93.4-5.5Zm15.4,81.9Q66.5,69,16.7,91.9C11,78.2,13.6,47.9,20,37.6c.7,13.6,5.3,22,12.1,27.4,1.2-6.1,2.6-12.1,5.3-17.3A32.7,32.7,0,0,0,51.7,62L53,42a17.2,17.2,0,0,0-5.1,10.7c-3.9-3.8-7.2-8.9-10.4-14.5-3.5,3.9-5.9,9-7.7,13.6a125.7,125.7,0,0,1-6.3-27.5C15,31.5,10.8,41.5,10.3,54.1,2.6,37.9,1.6,18.2,9.2-6.4,32.3,30.2,65.3,44.4,108,37c.1,4.4-.9,10.6-4.1,20.4a14.8,14.8,0,0,0-7.1-6.3,71.8,71.8,0,0,1,6.4,12.6q2.9-1.6,5.2-6.3A61.3,61.3,0,0,1,108.9,76.4Z" transform="translate(206.1 203.3)" style="fill:#050000;fill-rule:evenodd"/></svg>