<svg id="Layer_1" data-name="Layer 1" xmlns="http://www.w3.org/2000/svg" viewBox="0 0 299.3 268.9"><title>Bear612b_1c</title><path d="M106.8-81.9l-1.7-2.8a32.9,32.9,0,0,0,3.5-5.8,35.1,35.1,0,0,0,3.4-16.8c-.5-8.2-4.5-19.6-20.6-27.3l-.4-.2h-.4a69.7,69.7,0,0,0-33.7,11.7,117.6,117.6,0,0,0-11.9-3.4l8.4-1.1S25.2-141,0-126.4c-25.2-14.6-53.3-1.2-53.3-1.2l8.4,1.1a117.5,117.5,0,0,0-11.9,3.4,69.7,69.7,0,0,0-33.7-11.7h-.4l-.4.2c-16.2,7.7-20.2,19.1-20.6,27.3a35.1,35.1,0,0,0,3.4,16.8,32.9,32.9,0,0,0,3.5,5.8l-1.7,2.8c-39.5,14.4-46.1,56.7-41.7,81.4l3.4-9.3a79.4,79.4,0,0,0,.4,8.4c1.3,13.4,6.6,25.9,13.5,36.4s27.5,30,27.5,30-1.7-4.4-3.4-9.2c7.8,11.7,19,22.4,33.5,32.5C-57.2,99.6-44,101.2-44,101.2s-7.2-6.6-15.5-15.6c42.6,20.5,28.4,39.7,28.4,39.7a25.9,25.9,0,0,0,13.4-14.6C-9.2,127.1-.1,134-.1,134s9.2-6.9,17.7-23.4a25.9,25.9,0,0,0,13.4,14.8S16.8,106.1,59.5,85.6c-8.3,9-15.5,15.6-15.5,15.6s13.2-1.6,29.5-12.9C88.1,78.2,99.2,67.5,107,55.8c-1.7,4.8-3.4,9.2-3.4,9.2s21.2-20.5,27.5-30,12.2-23,13.5-36.4a79.3,79.3,0,0,0,.4-8.4l3.4,9.3C152.8-25.2,146.3-67.6,106.8-81.9ZM90.3-131.8a100.5,100.5,0,0,0-26.5,11.4l-3.5-1.4A68.1,68.1,0,0,1,90.3-131.8ZM58.1-7.2C60.8-34.1,50.2-54,50.2-54a44.8,44.8,0,0,1,6.7,4.8c-4-11.7-19.3-23.9-19.3-23.9,20,8.9,26.9,33.9,26.9,33.9s-4.7-5.4-8.6-7.6C59.6-39.5,62.5-23,58.1-7.2ZM33.3,40.5s-6,11.8-25,17.6c0,0,18.4-9.1,21.9-18.1-7.7-28.5-.2-44.6-.2-44.6s3,13.2,3.7,15.2c.6-8.2.9-14.1,0-19.6,5.9,11.4.2,32.8.2,32.8s-1.2-9.8-3.7-14.5C27.9,20.7,33.3,40.5,33.3,40.5ZM-18.1,12.2c-.4-6.5-2.9-16.8-4.9-24.3a61.7,61.7,0,0,1,8.5,22,86.1,86.1,0,0,1,1.2,14.5,15.3,15.3,0,0,0,4.7,3.9,6.9,6.9,0,0,1,0,5.5,3.8,3.8,0,0,1-4.3,1.9l-1-1.1v.9s3,6.5,14,6.1,14-6.1,14-6.1v-.7l-.9,1a3.8,3.8,0,0,1-4.3-1.9,6.9,6.9,0,0,1,0-5.5,15.3,15.3,0,0,0,4.6-3.8A86.2,86.2,0,0,1,14.5,9.9a61.8,61.8,0,0,1,8.6-22.2c-2,7.5-4.6,17.9-5,24.5a79.1,79.1,0,0,0,2.4,23c-.5,2-5.4,13-20.6,13s-20.1-11-20.6-13A79.1,79.1,0,0,0-18.1,12.2Zm7.6-85.6C-4.3-76-4.8-84.2-4.8-84.2s3.3,9.8-5.1,13a13.6,13.6,0,0,1-12.4-1.1s4.3,9.2,8.8,11.6C-3.4-60.8-.5-57,.1-56.2v.2H.2v-.2c.5-.9,3.4-4.6,13.5-4.5,4.5-2.4,8.8-11.6,8.8-11.6a13.6,13.6,0,0,1-12.4,1.1C1.7-74.4,5-84.2,5-84.2S4.6-76,10.8-73.4c4.2,1.8,10.9-.8,12.7-2.1-.1-1.2-.2-2.3-.4-3.4,8.8,4.2,12.1,15.4,12.1,15.4-1,12.4-6,19.9-7.8,22.2C20.6-51.8,5.4-51,0-51s-20.6-.8-27.4,9.6c-1.8-2.4-6.8-9.9-7.8-22.2,0,0,3.4-11.4,12.4-15.5a35,35,0,0,0-.5,3.5C-21.5-74.2-14.8-71.6-10.6-73.4ZM18.5-21.5s-1.2-10.8-3.7-16.8c-1.2-2.9,7.9-6.9,8.8-.9A23.3,23.3,0,0,1,18.5-21.5ZM10,20.5S8.7,29.7,0,29.7s-9.9-9.2-9.9-9.2c2.7-9-1.2-18.8-3.3-24C-8-10-.8-4.9-.8-4.9L0,25.9.8-4.9S8-10,13.3-3.6C11.2,1.7,7.2,11.5,10,20.5ZM4,35.5c-.9,0-1.1-1.2-1.1-2s-.7,1.9-1.6,1.9S.2,34.4.1,33.7s-.3,1.7-1.2,1.7-1.4-1.2-1.6-1.9-.3,2-1.1,2-1.2-1-1.3-1.8a5.9,5.9,0,0,1,0,1.1c-.2,1.5-2.6,1.7-2.7-.6A7.4,7.4,0,0,1-7.5,32a35.2,35.2,0,0,0,7.6.9A35.2,35.2,0,0,0,7.7,32a7.4,7.4,0,0,1,.4,2.3c-.1,2.2-2.5,2.1-2.7.6a5.9,5.9,0,0,1,0-1.1C5.2,34.5,4.8,35.5,4,35.5ZM.1-37.7A69.9,69.9,0,0,0-13-36.3a9.8,9.8,0,0,1-.7-3.5c.2-3.4,4.4-3.1,4.8-.8A7.7,7.7,0,0,1-8.9-39c.2-1.2.8-2.7,2.3-2.7s1.9,1.9,2,3c.4-1.1,1.2-2.8,2.7-2.8S0-40,.1-39c.1-1,.5-2.6,2-2.6s2.4,1.8,2.7,2.8c.1-1.1.5-3,2-3S8.9-40.2,9.2-39a7.8,7.8,0,0,1,.1-1.6c.4-2.3,4.6-2.5,4.8.8a9.8,9.8,0,0,1-.7,3.5A69.9,69.9,0,0,0,.1-37.7Zm-23.4-1.6c.9-5.9,10-1.9,8.8.9-2.5,6-3.7,16.8-3.7,16.8A23.3,23.3,0,0,1-23.2-39.3ZM30.6-79.9l14.6-7.3s2.3,4.9.2,8.5A48.6,48.6,0,0,0,30.6-79.9ZM44.7-90.3c-5.2,1.5-17.2,7.4-17.2,7.4S39.9-91,44.9-92.2A29.1,29.1,0,0,1,54.3-87,36.3,36.3,0,0,0,44.7-90.3Zm-.1-17.1C32.1-104.3,14-96.7,14-96.7s11.7-8.5,30.9-13.7c14,4.7,17,8.1,17,8.1S53.6-106.7,44.7-107.4Zm-4-13.7-8.8,2.2c3.6,0,19.6,1,29.7,8.5,0,0-22.4-10.4-45.4-3.4,4.1-3.3,11.5-6.1,11.5-6.1-9.1.9-23.2,8.1-23.2,8.1C20.4-125.8,40.7-121.1,40.7-121.1Zm-60.3-5.6-16.3-1.9c20.9-3.6,35.9,5.3,35.9,5.3s16.2-8.6,31.2-6.4C14.7-129.5,0-119.4,0-119.4v20.7s-10.5-5.9-17.5-7.4a76.2,76.2,0,0,1,10.1,8c-18-9.3-29.9-10.8-29.9-10.8s-15.1,2.8-21.9,10.8c0,0,10.5-6.6,21.6-7.8,16.6,4.4,22.3,9.9,24,12.4-2.6,1.3-6.3,4.4-8.4,10.6l-3.2,1.3c-3.7,1.6-19.7-7.9-19.7-7.9a19.7,19.7,0,0,0-10,8.4,54.9,54.9,0,0,1,9.2-5c-.5,1.6-1.2,4.7.1,7.2a31.8,31.8,0,0,0-6.1,2s14.5-2,22.5-.6A30.4,30.4,0,0,0-39.3-62.9s6.4,21.5,6,37c-6.8,22.5-.5,49.6-.5,49.6s1.2-9.8,3.7-14.5c2.2,11.5-3.2,31.3-3.2,31.3s6,11.8,25,17.6c0,0-18.4-9.1-21.9-18.1,8-28.5.2-44.6.2-44.6s-3,13.2-3.7,15.2c-.9-12.3-1-19.5,2.3-27.9,2.9,5.9,9.7,20.9,10.2,29.8.7,11.2-3.4,24.5-3.4,24.5A47.2,47.2,0,0,0,0,54.2v24c-6.8-17-34.3-27-34.3-27a67.3,67.3,0,0,0,2.5,11.8C-47.7,48.2-45.6,14.8-45.6,14.8s-5,13.5-5.4,15c-1.9-15.1,8.6-32.3,6.6-44.1C-45.3-2.9-57.2,21.6-56,37.6c-26.5-12.7-33-56.4-33-56.4s1,26.8,8.2,44.2c-18.8-15.7-28.4-39.1-28.4-39.1l1.8,17.9a60.6,60.6,0,0,1-4.9-29.6c1.4-18.9,10.1-37.6,10.1-37.6l-10.8,17.2-.4.6C-107.7-69.4-85.6-97-85.6-97a82.7,82.7,0,0,0-11.5,8.2C-72.4-123.6-19.6-126.7-19.6-126.7ZM-72.1,40.3S-98.2,27.2-103.9,6A57.6,57.6,0,0,0-76.2,33.7l-2.8-11.3S-68.5,37.3-57,43c-7.7-2.7-17.6-10.9-17.6-10.9Zm-36.9-147.5c.4-7.3,4-17.5,18.6-24.6a68.6,68.6,0,0,1,30,9.9,89.8,89.8,0,0,0-43,34.4A32.3,32.3,0,0,1-108.9-107.2ZM-119.4,24.8c1.1,6.4,6.7,25,6.9,26.4-5.9-5.4-11.2-12.6-15.9-19.3-23.5-33.5-7.1-80.3-7.1-80.3-4.4,8.9-9.8,29.9-10.6,31.9,1.1-11.5.3-48.7,41.8-60.8-18.1,27.9-16,52.1-16,52.1l4.3-8.8c-.1,1.8-.2,4-.2,6.4-.2,21.2,5.8,42.6,9.9,54.7-17.6-27.9-18.2-53.8-18.2-53.8s-5,14.3-6.1,18.7c-.5-3.9-9.2-37.8,21.6-64.3C-158.6-41.3-127,26.6-127,26.6s-3.1-23,1.5-38c1.8,25.8,23.7,62.3,35.5,80.2C-111.1,47.4-119.4,24.8-119.4,24.8ZM-70.9,69s2.5,11.9,7.8,20.4c-21-13.2-32.7-49.3-32.7-49.3S-84.4,65.6-72,76.3a70.5,70.5,0,0,1-3-13.2s36,14.2,48.4,39.2C-40.6,80.7-70.9,69-70.9,69Zm22.7-27.6a18.6,18.6,0,0,0-1.4,5.5c-.8-9,1.5-12.2,1.7-15,0,0-.7,27.9,20.7,37.4a63,63,0,0,1-3.1-12.5C-27,58.3-13.6,63.6-6,73.5A58.9,58.9,0,0,0-27.9,60.1c1.4,8.4,4.9,12.8,4.9,12.8S-44,67.4-48.2,41.4ZM.1,124.8S-13.6,114.5-21,88.5c9,16.5,19.2,29,21.1,30.6C2,117.6,12.2,105,21.2,88.5,13.8,114.5.1,124.8.1,124.8ZM22.3,73s3.5-4.4,4.9-12.8A58.9,58.9,0,0,0,5.4,73.5c7.6-9.9,21-15.2,24.3-16.7a63,63,0,0,1-3.1,12.5C48.1,59.9,47.3,32,47.3,32c.1,2.8,2.4,6,1.7,15a18.6,18.6,0,0,0-1.4-5.5C43.4,67.4,22.3,73,22.3,73Zm41,16.4C68.6,80.9,71.1,69,71.1,69S40.8,80.7,26.8,102.3c12.4-25,48.4-39.2,48.4-39.2a70.5,70.5,0,0,1-3,13.2C84.6,65.6,96,40.1,96,40.1S84.3,76.2,63.3,89.4Zm7.5-49.1,2.5-8.1S63.5,40.3,55.8,43c11.5-5.7,22.1-20.6,22.1-20.6L75,33.7A57.6,57.6,0,0,0,102.6,6C97,27.2,70.9,40.3,70.9,40.3ZM91.6,7.2s11.1-52.1-18.8-67.7c4.6,1.1,12.4,3.4,13.3,3.7-6-10-24.6-19.1-24.6-19.1,25.8,8.2,34.3,27.4,34.3,27.4s-5.1-3.9-9-4.6c6,6.8,9.5,16.5,10.2,28.5a87.5,87.5,0,0,1-.3,14.1c7.2-10.8,8.5-33,8.5-33C109.3-12.5,91.6,7.2,91.6,7.2ZM127,26.6s3.1-23-1.5-38c-1,14.2-8.1,31.8-16.3,47.6a238.6,238.6,0,0,0,15.4-62.9s5,14.3,6.1,18.7c.5-3.7,8.3-34.3-17-60.1,7.3,18.1,7.3,33.2,7.3,33.2s-3.4-23.6-11.8-37.5C158.6-41.3,127,26.6,127,26.6Z" transform="translate(149.6 134.9)" style="fill:#050000"/><path d="M26.6-78.4c6.3,0,15.9-6,18.7-7.9a53.8,53.8,0,0,1,9.5,5.1,19.7,19.7,0,0,0-10-8.4s-16,9.5-19.7,7.9a85,85,0,0,0-9.9-3.6l-.8,2.9S25.6-78.4,26.6-78.4Z" transform="translate(149.6 134.9)" style="fill:#050000"/><path d="M-12,36.7h-1.5c-.1-.1-7.2-6.6-3.9-17.4l.6-1.9.8,1.8c3,6.6,7.6,8.8,7.6,8.8h.2v.2a7.6,7.6,0,0,1,0,6.2A4.3,4.3,0,0,1-12,36.7Zm-.6-1.5h.6a2.8,2.8,0,0,0,2.7-1.6,6,6,0,0,0,.1-4.7,18.9,18.9,0,0,1-7.2-7.6A15.4,15.4,0,0,0-12.6,35.1Z" transform="translate(149.6 134.9)" style="fill:#050000"/><path d="M12,36.7a4.3,4.3,0,0,1-4-2.4,7.6,7.6,0,0,1,0-6.2v-.2h.2S13,25.5,16,18.9l.8-1.8.6,1.9c3.3,10.8-3.8,17.4-3.9,17.4H12ZM9.3,28.9a6.1,6.1,0,0,0,.1,4.7A2.8,2.8,0,0,0,12,35.2h.6a15.1,15.1,0,0,0,3.8-13.8A18.9,18.9,0,0,1,9.3,28.9Z" transform="translate(149.6 134.9)" style="fill:#050000"/><path d="M-61.5-110.4c10.1-7.5,26-8.5,29.7-8.5l-8.8-2.2s20.3-4.7,36.2,9.4c0,0-14.1-7.2-23.2-8.1,0,0,7.4,2.8,11.5,6.1C-39.1-120.7-61.5-110.4-61.5-110.4Z" transform="translate(149.6 134.9)" style="fill:#050000"/><path d="M-91.6,7.2s-17.6-19.7-13.6-50.9c0,0,1.3,22.2,8.5,33A87.5,87.5,0,0,1-97-24.7c.8-12,4.3-21.7,10.2-28.5-3.9.7-9,4.6-9,4.6s8.4-19.2,34.3-27.4c0,0-18.6,9.1-24.6,19.1.9-.3,8.7-2.5,13.3-3.7C-102.8-44.9-91.6,7.2-91.6,7.2Z" transform="translate(149.6 134.9)" style="fill:#050000"/><path d="M-58.1-7.2c-4.4-15.7-1.4-32.3,2.3-39.6-4,2.2-8.6,7.6-8.6,7.6s6.9-25,26.9-33.9c0,0-15.3,12.3-19.3,23.9A44.8,44.8,0,0,1-50.2-54S-60.8-34.1-58.1-7.2Z" transform="translate(149.6 134.9)" style="fill:#050000"/><path d="M-70.1-115.2s-9.6-5.7-18.8-5.7C-104-110.4-95.1-94-95.1-94S-80.8-110.9-70.1-115.2Z" transform="translate(149.6 134.9)" style="fill:#050000"/></svg>