<svg id="Layer_1" data-name="Layer 1" xmlns="http://www.w3.org/2000/svg" viewBox="0 0 281.3 252.7"><title>Bear612a_1c</title><path d="M42.1-84.1S27-75.2,23.6-76.7l-2.8-1.1c-2-6-5.5-8.9-8-10.1,1.7-2.3,7-7.5,22.5-11.6,10.4,1.1,20.3,7.3,20.3,7.3-6.4-7.6-20.6-10.2-20.6-10.2S16.4-97.5.9-89.5H-.9c-15.5-8-34.2-12.8-34.2-12.8s-14.2,2.6-20.6,10.2c0,0,9.9-6.2,20.3-7.3,15.6,4.1,20.9,9.3,22.6,11.6-2.5,1.2-5.9,4.1-7.9,9.9l-3,1.2c-3.4,1.5-18.5-7.4-18.5-7.4a18.5,18.5,0,0,0-9.4,7.9,51.7,51.7,0,0,1,8.7-4.7c-.5,1.5-1.2,4.4.1,6.8a29.9,29.9,0,0,0-5.7,1.9s13.6-1.9,21.2-.5A28.6,28.6,0,0,0-37-59.1s6,20.3,5.6,34.8c-6.4,21.1-.5,46.6-.5,46.6s1.1-9.2,3.5-13.6c2.1,10.8-3,29.4-3,29.4s5.6,11.1,23.5,16.5c0,0-17.3-8.6-20.6-17.1,7.5-26.8.2-41.9.2-41.9S-31,8.1-31.6,9.9c-.8-11.5-1-18.4,2.2-26.2,2.7,5.6,9.1,19.7,9.6,28,.6,10.5-3.2,23.1-3.2,23.1A44.4,44.4,0,0,0,0,51c17.6-5.5,23.1-16.2,23.1-16.2s-3.9-12.5-3.2-23.1c.5-8.3,6.9-22.4,9.6-28,3.2,7.9,3,14.7,2.2,26.2C31,8.1,28.1-4.3,28.1-4.3s-7,15.1.2,41.9C25.1,46.1,7.7,54.6,7.7,54.6c17.9-5.4,23.5-16.5,23.5-16.5s-5.1-18.6-3-29.4c2.4,4.4,3.5,13.6,3.5,13.6s5.9-25.5-.5-46.6C31-38.8,37-59.1,37-59.1a28.6,28.6,0,0,0-9.7-13.7c7.6-1.3,21.2.5,21.2.5a29.9,29.9,0,0,0-5.7-1.9c1.3-2.4.6-5.3.1-6.8a51.6,51.6,0,0,1,8.7,4.7A18.5,18.5,0,0,0,42.1-84.1Zm-25,95.6a74.3,74.3,0,0,0,2.3,21.6C18.8,35,14.2,45.3,0,45.3S-18.8,35-19.4,33.2a74.3,74.3,0,0,0,2.3-21.6c-.4-6.1-2.7-15.8-4.6-22.9a58,58,0,0,1,8,20.7A80.9,80.9,0,0,1-12.6,23a14.4,14.4,0,0,0,4.4,3.7,6.5,6.5,0,0,1,0,5.2,3.6,3.6,0,0,1-4.1,1.8l-.9-1v.8s2.8,6.1,13.2,5.7,13.2-5.7,13.2-5.7v-.7l-.8.9a3.6,3.6,0,0,1-4.1-1.8,6.5,6.5,0,0,1,0-5.2,14.4,14.4,0,0,0,4.3-3.6A81,81,0,0,1,13.6,9.4a58,58,0,0,1,8.1-20.9C19.8-4.4,17.4,5.3,17.1,11.5ZM-21.8-36.9c.8-5.6,9.4-1.8,8.3.9-2.4,5.6-3.5,15.8-3.5,15.8A21.9,21.9,0,0,1-21.8-36.9Zm15.7-2.3c1.4,0,1.8,1.8,1.9,2.8.3-1,1.1-2.7,2.6-2.7S0-37.6.1-36.6C.2-37.6.6-39,2-39s2.2,1.7,2.6,2.7c.1-1.1.5-2.8,1.9-2.8s1.9,1.4,2.2,2.6a7.3,7.3,0,0,1,0-1.5c.4-2.1,4.3-2.4,4.5.8a9.3,9.3,0,0,1-.6,3.2A65.7,65.7,0,0,0,.1-35.4a65.7,65.7,0,0,0-12.4,1.3,9.2,9.2,0,0,1-.6-3.2c.2-3.2,4.1-2.9,4.5-.8a7.3,7.3,0,0,1,0,1.5C-8.1-37.8-7.6-39.2-6.2-39.2ZM9.4,19.3S8.2,28,0,28s-9.4-8.7-9.4-8.7c2.6-8.5-1.2-17.6-3.1-22.6C-7.5-9.3-.7-4.6-.7-4.6L0,24.4.8-4.6S7.6-9.3,12.5-3.3C10.5,1.6,6.8,10.8,9.4,19.3ZM3.7,33.4c-.8,0-1-1.2-1.1-1.9S2,33.3,1.2,33.3s-1-1-1.1-1.6S-.2,33.3-1,33.3s-1.3-1.1-1.5-1.8-.3,1.9-1.1,1.9-1.1-.9-1.2-1.7a5.5,5.5,0,0,1,0,1c-.2,1.4-2.5,1.6-2.6-.5A6.9,6.9,0,0,1-7,30.1a33.1,33.1,0,0,0,7.1.9,33.1,33.1,0,0,0,7.1-.9,6.9,6.9,0,0,1,.4,2.2c-.1,2.1-2.4,1.9-2.6.5a5.5,5.5,0,0,1,0-1C4.9,32.5,4.5,33.4,3.7,33.4ZM17.4-20.2S16.2-30.4,13.8-36c-1.1-2.7,7.4-6.5,8.3-.9A21.9,21.9,0,0,1,17.4-20.2ZM33.1-59.7C32.2-48,27.4-41,25.8-38.8,19.4-48.6,5-47.9,0-47.9s-19.4-.8-25.8,9c-1.7-2.2-6.4-9.3-7.3-20.9,0,0,3.2-10.7,11.6-14.5a33,33,0,0,0-.4,3.3c1.7,1.2,8,3.6,12,2,5.9-2.4,5.5-10.1,5.5-10.1s3.1,9.2-4.8,12.3A12.8,12.8,0,0,1-21-67.9s4,8.7,8.3,10.9C-3.2-57.1-.4-53.6.1-52.8v.2H.1v-.2c.5-.8,3.2-4.3,12.7-4.2,4.3-2.3,8.3-10.9,8.3-10.9A12.8,12.8,0,0,1,9.5-66.9c-7.9-3-4.8-12.3-4.8-12.3S4.3-71.4,10.2-69c4,1.7,10.2-.8,12-2-.1-1.1-.2-2.2-.4-3.2C30-70.2,33.1-59.7,33.1-59.7Z" transform="translate(140.6 126.7)" style="fill:#522d24"/><path d="M57.8-103.7c-9.4-7.1-24.5-8-27.9-8l8.3-2.1S19.2-118.2,4.2-105c0,0,13.2-6.7,21.8-7.6,0,0-7,2.6-10.8,5.7C36.8-113.4,57.8-103.7,57.8-103.7Z" transform="translate(140.6 126.7)" style="fill:#522d24"/><path d="M86.1,6.8S102.7-11.7,98.9-41c0,0-1.2,20.9-8,31a82.3,82.3,0,0,0,.3-13.2c-.7-11.3-4-20.4-9.6-26.8,3.7.7,8.4,4.4,8.4,4.4s-7.9-18-32.2-25.7c0,0,17.4,8.6,23.1,18-.8-.3-8.2-2.4-12.5-3.5C96.6-42.2,86.1,6.8,86.1,6.8Z" transform="translate(140.6 126.7)" style="fill:#522d24"/><path d="M54.6-6.8C58.8-21.6,56-37.1,52.5-44c3.7,2,8.1,7.1,8.1,7.1S54.1-60.3,35.3-68.7c0,0,14.4,11.5,18.2,22.5a42.1,42.1,0,0,0-6.3-4.5A83.8,83.8,0,0,1,54.6-6.8Z" transform="translate(140.6 126.7)" style="fill:#522d24"/><path d="M65.9-108.2s9-5.3,17.7-5.3c14.1,9.9,5.7,25.3,5.7,25.3S76-104.2,65.9-108.2Z" transform="translate(140.6 126.7)" style="fill:#522d24"/><path d="M-11.2,34.5h-1.4a16,16,0,0,1-3.7-16.4l.5-1.8.8,1.7c2.8,6.2,7.1,8.3,7.2,8.3h.2v.2a7.2,7.2,0,0,1,0,5.8A4,4,0,0,1-11.2,34.5Zm-.6-1.5h.6a2.6,2.6,0,0,0,2.5-1.5,5.7,5.7,0,0,0,.1-4.4,17.8,17.8,0,0,1-6.7-7.1A14.5,14.5,0,0,0-11.8,33.1Z" transform="translate(140.6 126.7)" style="fill:#522d24"/><path d="M11.3,34.5a4,4,0,0,1-3.8-2.3,7.2,7.2,0,0,1,0-5.8v-.2h.2S12.2,24,15,17.8l.8-1.7.5,1.8a16,16,0,0,1-3.7,16.4H11.3ZM8.7,27.2a5.7,5.7,0,0,0,.1,4.4,2.6,2.6,0,0,0,2.5,1.5h.6a14.2,14.2,0,0,0,3.6-13A17.8,17.8,0,0,1,8.7,27.2Z" transform="translate(140.6 126.7)" style="fill:#522d24"/><path d="M-57.8-103.7c9.4-7.1,24.5-8,27.9-8l-8.3-2.1s19.1-4.4,34.1,8.8c0,0-13.2-6.7-21.8-7.6,0,0,7,2.6,10.8,5.7C-36.8-113.4-57.8-103.7-57.8-103.7Z" transform="translate(140.6 126.7)" style="fill:#522d24"/><path d="M-86.1,6.8S-102.7-11.7-98.9-41c0,0,1.2,20.9,8,31a82.3,82.3,0,0,1-.3-13.2c.7-11.3,4-20.4,9.6-26.8-3.7.7-8.4,4.4-8.4,4.4s7.9-18,32.2-25.7c0,0-17.4,8.6-23.1,18,.8-.3,8.2-2.4,12.5-3.5C-96.6-42.2-86.1,6.8-86.1,6.8Z" transform="translate(140.6 126.7)" style="fill:#522d24"/><path d="M-54.6-6.8C-58.8-21.6-56-37.1-52.5-44c-3.7,2-8.1,7.1-8.1,7.1s6.5-23.5,25.3-31.9c0,0-14.4,11.5-18.2,22.5a42.1,42.1,0,0,1,6.3-4.5A83.8,83.8,0,0,0-54.6-6.8Z" transform="translate(140.6 126.7)" style="fill:#522d24"/><path d="M-65.9-108.2s-9-5.3-17.7-5.3c-14.1,9.9-5.7,25.3-5.7,25.3S-76-104.2-65.9-108.2Z" transform="translate(140.6 126.7)" style="fill:#522d24"/><path d="M100.3-77l-1.6-2.7a30.9,30.9,0,0,0,3.3-5.5,33,33,0,0,0,3.2-15.8c-.5-7.7-4.2-18.4-19.4-25.7l-.3-.2h-.4a65.5,65.5,0,0,0-31.7,11A110.5,110.5,0,0,0,42.2-119l7.9-1S23.6-132.5,0-118.8c-23.6-13.7-50.1-1.2-50.1-1.2l7.9,1a110.5,110.5,0,0,0-11.2,3.2,65.5,65.5,0,0,0-31.7-11h-.4l-.3.2c-15.2,7.2-19,17.9-19.4,25.7A33,33,0,0,0-102-85.1a30.9,30.9,0,0,0,3.3,5.5l-1.6,2.7c-37.2,13.5-43.3,53.3-39.2,76.5l3.2-8.7a74.6,74.6,0,0,0,.4,7.9c1.3,12.5,6.2,24.4,12.7,34.2s25.9,28.2,25.9,28.2-1.6-4.2-3.2-8.7c7.3,11,17.8,21.1,31.5,30.5,15.3,10.6,27.7,12.1,27.7,12.1s-6.7-6.2-14.5-14.7c40.1,19.3,26.7,37.3,26.7,37.3a24.3,24.3,0,0,0,12.6-13.7c8,15.4,16.6,21.9,16.6,21.9s8.7-6.5,16.7-22a24.3,24.3,0,0,0,12.6,13.9s-13.4-18,26.7-37.3c-7.8,8.4-14.5,14.7-14.5,14.7S53.7,93.6,69.1,83c13.7-9.5,24.2-19.5,31.5-30.5-1.6,4.5-3.2,8.7-3.2,8.7s19.9-19.3,25.9-28.2,11.4-21.6,12.7-34.2a74.6,74.6,0,0,0,.4-7.9l3.2,8.7C143.6-23.7,137.5-63.5,100.3-77ZM84.9-123.9c13.7,6.6,17.1,16.2,17.5,23.1a30.4,30.4,0,0,1-5.3,18.6,84.4,84.4,0,0,0-40.4-32.3A64.5,64.5,0,0,1,84.9-123.9ZM-18.5-119l-15.3-1.8a53.1,53.1,0,0,1,33.8,5s12.2-8,33.8-5L18.5-119S68-116.1,91.3-83.5a77.7,77.7,0,0,0-10.8-7.7s20.7,25.9,26.2,48.8l-.4-.5L96.1-59.1s8.2,17.6,9.5,35.4A57,57,0,0,1,101,4l1.7-16.8S93.7,9.2,76,24c7.7-17.7,7.7-41.6,7.7-41.6s-6.2,43-31,53c1.1-15.1-10.1-38.1-11-48.7-1.9,11.1,8,27.2,6.2,41.4-.4-1.4-5.1-14.1-5.1-14.1s2,31.4-12.9,45.4a63.2,63.2,0,0,0,2.3-11.1S5.7,57.1,0,73.6C-6.4,57.6-32.3,48.2-32.3,48.2a63.2,63.2,0,0,0,2.3,11.1c-14.9-14-12.9-45.4-12.9-45.4s-4.7,12.7-5.1,14.1c-1.8-14.2,8.1-30.3,6.2-41.4-.9,10.6-12,33.7-11,48.7-24.9-12-31-53-31-53S-82.8,7.6-76,24c-17.7-14.7-26.7-36.8-26.7-36.8L-101,4a57,57,0,0,1-4.6-27.8c1.3-17.7,9.5-35.4,9.5-35.4l-10.2,16.2-.4.5c5.5-22.8,26.2-48.8,26.2-48.8a77.7,77.7,0,0,0-10.8,7.7C-68-116.1-18.5-119-18.5-119Zm-83.9,18.2c.4-6.9,3.8-16.5,17.5-23.1a64.5,64.5,0,0,1,28.2,9.4A84.4,84.4,0,0,0-97.1-82.2,30.4,30.4,0,0,1-102.4-100.8Zm-9.9,124.1c1,6,6.3,23.5,6.5,24.9-5.6-5.1-10.5-11.9-14.9-18.2-22.1-31.5-6.7-75.4-6.7-75.4-4.2,8.4-9.2,28.1-10,30,1-10.8.2-45.8,39.3-57.2-17,26.2-15,48.9-15,48.9l4-8.2c-.1,1.7-.2,3.7-.2,6-.2,19.9,5.5,40.1,9.3,51.4C-116.5-.7-117.1-25-117.1-25s-4.7,13.4-5.7,17.6c-.5-3.7-8.7-35.5,20.3-60.4C-149.1-38.8-119.4,25-119.4,25s-2.9-21.6,1.4-35.7c1.7,24.2,22.3,58.5,33.4,75.4C-104.5,44.6-112.2,23.4-112.2,23.4Zm45.6,41.5s2.3,11.2,7.3,19.2C-79.1,71.7-90.1,37.7-90.1,37.7s10.7,24,22.4,34a66.2,66.2,0,0,1-2.8-12.4S-36.7,72.7-25,96.2C-38.2,75.9-66.7,64.9-66.7,64.9Zm21.4-26a17.5,17.5,0,0,0-1.3,5.2c-.7-8.5,1.4-11.5,1.6-14.1,0,0-.7,26.3,19.5,35.1a59.2,59.2,0,0,1-2.9-11.8c3.1,1.4,15.7,6.4,22.8,15.7A55.3,55.3,0,0,0-26.2,56.6c1.3,7.9,4.6,12.1,4.6,12.1S-41.4,63.4-45.3,38.9ZM.1,117.3s-12.9-9.7-19.8-34.1C-11.2,98.7-1.7,110.5.1,112c1.8-1.5,11.3-13.3,19.8-28.8C13,107.6.1,117.3.1,117.3ZM21,68.6s3.3-4.2,4.6-12.1A55.3,55.3,0,0,0,5.1,69.1c7.1-9.3,19.7-14.3,22.8-15.7A59.2,59.2,0,0,1,25,65.2c20.1-8.9,19.5-35.1,19.5-35.1.1,2.6,2.3,5.6,1.6,14.1a17.5,17.5,0,0,0-1.3-5.2C40.8,63.4,21,68.6,21,68.6ZM59.5,84.1c5-8,7.3-19.2,7.3-19.2s-28.5,11-41.6,31.3C36.9,72.7,70.7,59.3,70.7,59.3a66.2,66.2,0,0,1-2.8,12.4c11.7-10.1,22.4-34,22.4-34S79.3,71.7,59.5,84.1ZM127.4-45.4S142.8-1.4,120.7,30c-4.4,6.3-9.4,13.1-14.9,18.2.2-1.3,5.5-18.8,6.5-24.9,0,0-7.8,21.3-27.6,41.4C95.7,47.9,116.3,13.5,118-10.7c4.3,14.1,1.4,35.7,1.4,35.7s29.7-63.8-16.8-92.9c29,24.9,20.8,56.8,20.3,60.4-1-4.1-5.7-17.6-5.7-17.6S116.5-.7,99.9,25.5c3.9-11.3,9.6-31.5,9.3-51.4,0-2.3-.1-4.3-.2-6l4,8.2s2-22.8-15-48.9c39.1,11.4,38.3,46.3,39.3,57.2C136.6-17.3,131.6-37,127.4-45.4Z" transform="translate(140.6 126.7)" style="fill:#522d24"/><path d="M.2-93.3c-1.4-1.1-10.2-7.6-21.5-8.7C-7-96.6-.6-87.1-.6-87.1H.9S7.3-96.6,21.6-102C10.4-100.9,1.6-94.4.2-93.3Z" transform="translate(140.6 126.7)" style="fill:#522d24"/><path d="M.1-107.5a31.7,31.7,0,0,0-14.9-6C-4.8-109.8.1-95.4.1-95.4S5-109.8,15-113.6A31.7,31.7,0,0,0,.1-107.5Z" transform="translate(140.6 126.7)" style="fill:#522d24"/></svg>