<svg id="Layer_1" data-name="Layer 1" xmlns="http://www.w3.org/2000/svg" viewBox="0 0 80.9 80.9"><title>Bear Territory_2c</title><path d="M0-40.5A40.5,40.5,0,0,0-40.5,0,40.5,40.5,0,0,0,0,40.5,40.5,40.5,0,0,0,40.5,0,40.5,40.5,0,0,0,0-40.5ZM0,38.7A38.7,38.7,0,0,1-38.7,0,38.7,38.7,0,0,1,0-38.7,38.7,38.7,0,0,1,38.7,0,38.7,38.7,0,0,1,0,38.7Z" transform="translate(40.5 40.5)" style="fill-rule:evenodd"/><path d="M27.9,0A27.9,27.9,0,1,0,0,28,27.9,27.9,0,0,0,27.9,0Z" transform="translate(40.5 40.5)" style="fill:#050000;fill-rule:evenodd"/><path d="M-19.2-28.9l.4-.3a1.7,1.7,0,0,0,.7-.7.6.6,0,0,0-.1-.6.7.7,0,0,0-.5-.3l-.7.3-.6.4.2.2.2.3.4.7Zm1.7,2.5.7-.5a1.4,1.4,0,0,0,.6-.7.7.7,0,0,0-.2-.7.8.8,0,0,0-.6-.4l-.8.2-.9.6.3.5.2.2.3.4.2.3Zm-2.1-5.7a3.5,3.5,0,0,1,1.8-.7,1.5,1.5,0,0,1,1.2.7,1.6,1.6,0,0,1,.3,1.2,2.1,2.1,0,0,1-.7,1.2,2.5,2.5,0,0,1,1.5-.4,1.7,1.7,0,0,1,1.1.7,1.7,1.7,0,0,1,.3,1.6A3.2,3.2,0,0,1-15.4-26l-3.3,2.2-1.7-2.8L-22.8-30l3.2-2.1Z" transform="translate(40.5 40.5)" style="fill:#050000;fill-rule:evenodd"/><path d="M-8.6-29.3q-.1-1.3-.4-3.1t-.7-4l6.1-1.2.3,1.6H-4.7l-2.4.5v1h0l2-.4h1.2l.3,1.7H-5.1l-1.6.3v1h.8l.9-.2,1.1-.2,1-.3.3,1.7-6.1,1.2Z" transform="translate(40.5 40.5)" style="fill:#050000;fill-rule:evenodd"/><path d="M6.3-36.2l.2-.3.4-.5,3,.6q0,.2,0,.4a3.3,3.3,0,0,0,0,.4l.7,6.7-2.5-.5v-.3q0-.2,0-.4v-1.7l-2.7-.6L4.4-31l-.3.4-.2.4-2.5-.5,4.8-5.5Zm1.7.5-1.6,2,1.6.3v-2.4Z" transform="translate(40.5 40.5)" style="fill:#050000;fill-rule:evenodd"/><path d="M22.3-30.4l.9.7.4.5a1.3,1.3,0,0,1,.2.9,1.8,1.8,0,0,1-.4.9,2.7,2.7,0,0,1-1.1.9,2.1,2.1,0,0,1-1.3,0l-1.1,3.4-2-1.4,1.6-4.1h0a2.6,2.6,0,0,0,1.1.5.8.8,0,0,0,.8-.3.6.6,0,0,0,.1-.6,1.5,1.5,0,0,0-.6-.7l-.3-.2-.3-.2-2.4,2.6-.7.8-.9,1-2-1.4,2.3-2.4,2.7-3.1,3,2.1Z" transform="translate(40.5 40.5)" style="fill:#050000;fill-rule:evenodd"/><path d="M-24.9,19.7l-1.1.4-.2-.5-.3-.5h-.1l-2.2.8-.4.2-.4.2-.4.2h-.2l-.7-1.3,1.5-.5,2.2-.8-.4-.7-.3-.5,1.1-.4,2,3.6Z" transform="translate(40.5 40.5)" style="fill:#050000;fill-rule:evenodd"/><path d="M-26.9,25.1l1.8-1.2,2.2-1.6,2.7,2.7-.9.7-.3-.4-.2-.2L-22.7,24l-.4.2h-.3l.9.9.3.3.3.2-.9.7-.2-.2-.3-.3-.2-.2-.7-.7-.3.2-.2.2h-.2l.3.3.4.4.5.5.5.4-.9.7-2.8-2.7Z" transform="translate(40.5 40.5)" style="fill:#050000;fill-rule:evenodd"/><path d="M-15.1,28.3l.6.4.3.3a.8.8,0,0,1,.2.5,1.1,1.1,0,0,1-.2.6,1.7,1.7,0,0,1-.7.6h-.9l-.5,2.2-1.4-.8.8-2.6h0l.8.3a.5.5,0,0,0,.5-.2.4.4,0,0,0,.1-.4l-.4-.4h-.4l-1.4,1.7-.4.5-.5.7-1.4-.8,1.4-1.6,1.6-2.1,2.1,1.2Z" transform="translate(40.5 40.5)" style="fill:#050000;fill-rule:evenodd"/><path d="M-7.6,31.1l.7.2.4.2a.9.9,0,0,1,.3.5,1,1,0,0,1,0,.6,1.5,1.5,0,0,1-.5.7l-.8.3.2,2.2-1.6-.4V32.7h.9a.5.5,0,0,0,.4-.3.4.4,0,0,0-.1-.4l-.5-.3h-.4l-.8,2-.2.6-.3.8-1.6-.4.8-1.9.9-2.4,2.4.6Z" transform="translate(40.5 40.5)" style="fill:#050000;fill-rule:evenodd"/><path d="M-.7,36.5H-2.4q.1-.8.3-2t.2-2.5H-.3v.9L-.6,35v1.5Z" transform="translate(40.5 40.5)" style="fill:#050000;fill-rule:evenodd"/><path d="M7.7,31.1l.2,1H6.5l.3,2v1.4l-1.6.3q0-.6-.2-1.4l-.3-2-.8.2H3.5l-.2-1,4.4-.8Z" transform="translate(40.5 40.5)" style="fill:#050000;fill-rule:evenodd"/><path d="M13.6,31.5a1.3,1.3,0,0,0,1.9.6,1.2,1.2,0,0,0,.7-.7,1.3,1.3,0,0,0-.2-1,1.4,1.4,0,0,0-.8-.7,1.5,1.5,0,0,0-1.1.1,1.1,1.1,0,0,0-.5,1.7ZM16,33a3.6,3.6,0,0,1-2.2.4,2.3,2.3,0,0,1-1.6-1.1,2,2,0,0,1-.2-1.9,3,3,0,0,1,1.6-1.5,3.8,3.8,0,0,1,2.3-.4,2.3,2.3,0,0,1,1.6,1.1,2,2,0,0,1,.2,1.9A3.1,3.1,0,0,1,16,33Z" transform="translate(40.5 40.5)" style="fill:#050000;fill-rule:evenodd"/><path d="M21,24l.5-.4.4-.2h.6l.6.3a1.5,1.5,0,0,1,.5.7,1,1,0,0,1-.1.8L26,26,24.8,27,22,25.8h0a1.5,1.5,0,0,0,.5-.6.4.4,0,0,0-.1-.5h-.4l-.5.3h-.3l1.6,1.6.5.5.6.6-1.1,1-1.5-1.5-2-1.8L21,24Z" transform="translate(40.5 40.5)" style="fill:#050000;fill-rule:evenodd"/><path d="M29.6,20.1h.6l-.8,1.2-.5-.3h-.3l-.9-.5H24.3l.9-1.4h.5l1.4.2-.8-.9v-.2l-.3-.3.8-1.3,1.9,2.7,1.1.6Z" transform="translate(40.5 40.5)" style="fill:#050000;fill-rule:evenodd"/><polygon points="75.1 51.5 75.2 54 72.9 53.1 70.5 54 70.6 51.5 69.1 49.5 71.5 48.9 72.9 46.8 74.2 48.9 76.6 49.5 75.1 51.5 75.1 51.5" style="fill:#b71f36;fill-rule:evenodd"/><polygon points="76.3 36.8 76.4 39.3 74 38.4 71.7 39.3 71.8 36.8 70.2 34.8 72.6 34.1 74 32.1 75.4 34.1 77.8 34.8 76.3 36.8 76.3 36.8" style="fill:#b71f36;fill-rule:evenodd"/><polygon points="71.3 21.6 72.3 23.9 69.8 24 68 25.7 67.1 23.3 65 22.1 66.9 20.5 67.4 18.1 69.5 19.5 72 19.2 71.3 21.6 71.3 21.6" style="fill:#b71f36;fill-rule:evenodd"/><polygon points="5.9 51.5 5.8 54 8.1 53.1 10.4 54 10.3 51.5 11.9 49.5 9.5 48.9 8.1 46.8 6.7 48.9 4.3 49.5 5.9 51.5 5.9 51.5" style="fill:#b71f36;fill-rule:evenodd"/><polygon points="4.7 36.8 4.6 39.3 6.9 38.4 9.3 39.3 9.2 36.8 10.7 34.8 8.3 34.1 6.9 32.1 5.6 34.1 3.2 34.8 4.7 36.8 4.7 36.8" style="fill:#b71f36;fill-rule:evenodd"/><polygon points="9.7 21.6 8.6 23.9 11.1 24 13 25.7 13.8 23.3 16 22.1 14 20.5 13.5 18.1 11.4 19.5 9 19.2 9.7 21.6 9.7 21.6" style="fill:#b71f36;fill-rule:evenodd"/><path d="M0-29.2A29.2,29.2,0,1,0,29.2,0,29.2,29.2,0,0,0,0-29.2ZM11.3-17.8a5.5,5.5,0,0,1,2.1,4.5,2.3,2.3,0,0,1-1,2.4,2.8,2.8,0,0,1-4-.6,6.7,6.7,0,0,1-.8-6.5l.3-.5a1.9,1.9,0,0,1,2.7-.1ZM9.7-19.8a3.1,3.1,0,0,0-2.3-.1,3,3,0,0,0-.5-1.3c-.8-1.2-1.7-2.4-2.5-3.5A7.9,7.9,0,0,1,9.7-19.8ZM2.6-17c1.1,1.1,2.5,2.6,2.7,4.1a4.9,4.9,0,0,1-.2,2.3c-.5,1.4-2,1.9-3.6,1.1a6.6,6.6,0,0,1-3.2-4A9.3,9.3,0,0,1-2-16.7h0A2,2,0,0,1-.2-18.5a2.4,2.4,0,0,1,2,.7ZM.1-19.5l.3.4a4.6,4.6,0,0,0-2.7.4,3.7,3.7,0,0,0-.4-1.6c-.8-1.4-1.8-2.7-2.7-4C-2.7-23.8-1.1-21.9.1-19.5Zm-6.3,4.6A7.7,7.7,0,0,1-2.1-9.8a6,6,0,0,1-.4,2.3v.4A2.6,2.6,0,0,1-3.8-5.8a4,4,0,0,1-5-2.1,7,7,0,0,1-1.3-4.5v-.4a2.5,2.5,0,0,1,.3-1.1A2.7,2.7,0,0,1-6.2-14.9Zm-1.7-2a4.6,4.6,0,0,0-2.6,1.7,12.1,12.1,0,0,0-.6-1.8c-.7-1.9-1.3-3.8-2-5.7A22,22,0,0,1-7.9-16.9Zm-11.4,1.7v-1c.1,2.3,1.6,3.9,2.9,5.6a4.8,4.8,0,0,0-1.7,2A7.7,7.7,0,0,1-19.3-15.2ZM-21.7,1.6A8,8,0,0,1-23.7-5c.1-.6.2-1.1.3-1.7a13.4,13.4,0,0,0,3,5.8A3.1,3.1,0,0,0-21.7,1.6ZM-13.4,7A2.6,2.6,0,0,1-17.3,9c-1.6-.8-2.5-2.1-3.5-5.5a2.1,2.1,0,0,1-.1-.6A2.2,2.2,0,0,1-18.6.6c1.9,0,3.2,1.2,4.3,2.6A4.6,4.6,0,0,1-13.4,7Zm-.4-7.3-.8-.6a7.1,7.1,0,0,1-2.5-5.1v-.5a5.6,5.6,0,0,1,.4-2.4,2,2,0,0,1,2.1-.5,2.9,2.9,0,0,1,1.9.9A9.1,9.1,0,0,1-9.7-3.7a4.6,4.6,0,0,1-.1,2.3C-10.3.4-12.2.9-13.8-.2ZM20.9,10.1a23.3,23.3,0,0,1-10.9,5,7,7,0,0,0-4.7,3.3A15.9,15.9,0,0,1-.3,23.7a6.9,6.9,0,0,1-6,.7A6.4,6.4,0,0,1-9,21.9l-.6-1a11.9,11.9,0,0,1-2-7,10.7,10.7,0,0,1,.2-1.5c.5-2.3.9-4.7,1.5-7A8.4,8.4,0,0,1-4.9-.7L-2-1.9A11.2,11.2,0,0,0,1.8-4.6,12,12,0,0,1,10.2-8,13.9,13.9,0,0,1,21-4.1c2.4,2.3,3.7,5.1,3.3,8.5A8.9,8.9,0,0,1,20.9,10.1Z" transform="translate(40.5 40.5)" style="fill:#b71f36;fill-rule:evenodd"/></svg>