<svg id="Layer_1" data-name="Layer 1" xmlns="http://www.w3.org/2000/svg" viewBox="0 0 455.7 509.5"><title>bear300_2c_2</title><path d="M239.5,5.4c-2.2-33.6-9.7-68-22.5-99.2l-.7-1.8L214.9-97c-27.4-26.5-66.8-48.2-104.9-57l1.5-14.1c2.1-19.8-8.2-39.1-28.4-43.8-16.8-3.9-31.2,4.6-39.8,18-21-6.7-44.8-3.7-65.1,3.8-15.1-2.8-38.7-3.7-54.3.2-11.8-9.4-30.1-9.3-43.6-4.1a46.8,46.8,0,0,0-16.1,10.2c-10.7,10.5-13.6,24.5-10.5,38.8C-173-121.4-193.8-89.2-205.3-56A181.5,181.5,0,0,0-215.4-.8a155.4,155.4,0,0,0,1.1,22.2l4.4,35.7,4.1-10c4.5,41,18.1,84.1,45.8,111.2l27,26.4-4.3-13.7c41.8,55.7,102.7,95.4,166.3,124.3l3.4,1.6,3.5-1.2C69,284.3,101.1,262.3,126,238a277.2,277.2,0,0,0,61.9-90.4l1.1,4.9,4.8,21.5L206,155.7C234.8,112.7,242.9,56.1,239.5,5.4Zm-41.4,145L190,113.7C160.7,213.9,83.4,269.4,32.8,286.7c-96.5-44-162.1-101.8-193.9-174.8.4,12.4,3.3,25.8,7.7,39.6C-184.6,121-200,63-197.9,5.8A89,89,0,0,0-205,20.2c-7.7-62.6,27.1-128.1,71.1-163.4a54.2,54.2,0,0,1,2.4-10.9c-2.8,2.1-3.9,5.6-5.3,8.5-10.3-40.5,43.2-52.9,58.1-33.5,10.5-4.3,37.4-5.6,57.8-1.2,20.1-8,46.8-12,68.7-1.8,14.6-36,58.2-22.8,54.4,12.9a24,24,0,0,0-2.6-3.7c2.6,11.2.9,19.3-2.8,25.8,40.5,6.4,83.5,29.4,111.7,56.7C238.7-16.3,241.2,86.2,198.1,150.4Z" transform="translate(215.5 212.8)" style="fill:#fff;fill-rule:evenodd"/><path d="M56.8-177.9c6.1-22.1,31.3-22.9,41.8,0a24.4,24.4,0,0,0-5.5-2.4c3.9,12,2.6,21.2-1.4,29.1a98.5,98.5,0,0,0-17.9-16.6c2.1-13.6,8.7-19.8,17.3-1.9-1.5-22.9-21.6-21.1-25.7-3.3a39.4,39.4,0,0,0-8.7-4.9" transform="translate(215.5 212.8)" style="fill:#522d24;fill-rule:evenodd"/><path d="M-78-161.1c-10.4-28-46.4-18.5-54.8,2.6a22.2,22.2,0,0,1,8.9-3.3c-7.8,16.3-2.3,43.8,13.2,43.5a79.5,79.5,0,0,1,6.8-7.1,46,46,0,0,0-7.7,2.5c3.3-12.9,8.8-19.4,14.2-26.1-4.4-10.6-18.8-10.6-20,5.7-6.4-25.6,21.9-26.2,24.6-9.5,3-2.6,6.6-5.3,14.8-8.2" transform="translate(215.5 212.8)" style="fill:#522d24;fill-rule:evenodd"/><path d="M102.7-137.7c17.4.5,85.6,41.2,95.1,54.4C209.5-67,228.2,24.5,206.4,100,198.5,54.1,183.8,14,163.6-21.8A21.9,21.9,0,0,1,175-13.8c3.8-34.7-33.4-58-41.4-67.7C120.2-97.9,116-122,102.7-137.7" transform="translate(215.5 212.8)" style="fill:#522d24;fill-rule:evenodd"/><path d="M208.9-50.8c8.2,37.2,12.7,98-2.6,150.9C198.5,54.1,183.8,14,163.6-21.8A21.9,21.9,0,0,1,175-13.8c3.8-34.7-33.4-58-41.4-67.7a84.2,84.2,0,0,1-10.5-17.2c5.8,5,17.4,14.2,28.7,19.7,13.9,6.7,37.7,14.8,57.1,28.3" transform="translate(215.5 212.8)" style="fill:#522d24;fill-rule:evenodd"/><path d="M29-131.3c-5.4-16.4-19.7-30.9-39-44.2a111.7,111.7,0,0,1,13.9-1.7,43.3,43.3,0,0,1,13.8,11C28.2-154.1,32.4-126,32.4-126a59,59,0,0,0-3.4-5.3" transform="translate(215.5 212.8)" style="fill:#522d24;fill-rule:evenodd"/><path d="M1.8-65.7a26.2,26.2,0,0,0-5.6-2.9c-2.5,8.4-12.5,4.8-10.2-.8.7,2.7,5.5,2.6,4.5-1.6a130.1,130.1,0,0,0-15.1-6.5c-1.3,9.9,10.1,24.6,26.4,11.9" transform="translate(215.5 212.8)" style="fill:#fff;fill-rule:evenodd"/><path d="M91.4-13.6C81-21.4,52.4-24.3,50.2-20c17,1.6,30.4,5.1,43.2,14.5,4.5-6.7,8.3-14,18.3-17l-1.1-2.3c-6,.9-12.4,4.8-19.2,11.2" transform="translate(215.5 212.8)" style="fill:#fff;fill-rule:evenodd"/><path d="M108,37C65.3,44.4,32.3,30.2,9.2-6.4,1.6,18.2,2.6,37.9,10.3,54.1c.5-12.6,4.8-22.5,13.2-29.7a125.7,125.7,0,0,0,6.3,27.5c1.8-4.6,4.1-9.6,7.7-13.6,3.2,5.6,6.6,10.7,10.4,14.5A17.2,17.2,0,0,1,53,42L51.7,62A32.7,32.7,0,0,1,37.4,47.7c-2.7,5.2-4.1,11.2-5.3,17.3C25.2,59.6,20.6,51.2,20,37.6,13.6,47.9,11,78.2,16.7,91.9q49.8-22.8,92.2-15.5a61.3,61.3,0,0,0-.5-19q-2.4,4.7-5.2,6.3a71.8,71.8,0,0,0-6.4-12.6,14.8,14.8,0,0,1,7.1,6.3c3.2-9.8,4.2-16,4.1-20.4" transform="translate(215.5 212.8)" style="fill:#fff;fill-rule:evenodd"/><path d="M74.8-77.5a29.9,29.9,0,0,1,5.3-6.2,2.9,2.9,0,0,1-1,5.3c3.9,2.9,7.8-4.3,4.5-9.8A12.5,12.5,0,0,1,88.1-92c1.5,9.9-.8,17.6-6.4,20.3l-6.9-5.8" transform="translate(215.5 212.8)" style="fill:#fff;fill-rule:evenodd"/><path d="M165.3-31.1c-29.2-45.4-34.4-25.3-55.3-72.7C91.2-146.7,49.9-186.7-10-175.5,9.9-161.8,24.3-146.9,29.4-130-.5-157.8-15.4-179.6-75.8-171.4a20.2,20.2,0,0,1,.3,9.4,18.9,18.9,0,0,1,8.6-.7c-23.9,16.3-30.6,25-37.3,34a36.4,36.4,0,0,1,10.4-1c-9.8,10.6-19.2,26.9-28.5,44.3-1.2-7.8,1.7-17.6,6.7-26.4-8.9.2-14.5-5.9-17.2-16.8-36.7,32.3-52.4,70-62.9,108.9,5.7-8.4,12.5-16.1,21.6-22.1-15.3,31.4-22.2,71,2.2,141.2.6-10.2,1.7-20.3,5.3-29.7,15.8,51.9,45.1,97.8,92.1,136.1-20.6-31.6-38.5-65.6-51.2-104.7a83.3,83.3,0,0,0,1.5,29.3C-165.7,74.2-158.7-21.1-129.1-52c-12,29.9-14.6,67.1-9.2,91.4a204,204,0,0,1,12.2-29c-1.5,41.5,8.5,75.2,26.9,103.1-2-14.3-3.9-28.7-.7-41.5,14.3,39.8,45.4,58.1,80.8,71,21.5-.9,41.5-14.1,61.3-29.7a79,79,0,0,0-29.6,8.2c39.8-42.9,128.2-29.5,84.2-5a7.2,7.2,0,0,0,.1-5.6,71.8,71.8,0,0,1-9.6,11.5A64.1,64.1,0,0,0,89.7,136c29.6-20,56.3-45.9,58.8-119.2a61.8,61.8,0,0,1,11.1,11.7c0-22.7-4.2-44.2-17-63.4C151.1-36.6,158.4-34.5,165.3-31.1ZM-80.3,42.8l-4.6,20.5c-7.9-13.6-10.8-32.1-6.8-57.5-6.3,5.3-9.4,11.6-13.1,17.7-5.2-35,6.5-51,22.7-61.8C-87.3-28.1-92.5-17.8-93.3-5.1c3.1-3.4,7.8-5.4,13.8-6.4-3.6,13.8-3.9,26.8-4.3,39.8A32.8,32.8,0,0,1-73,16.3c-.2,30,5.6,51.6,13.6,70C-67.6,76.5-76.2,68.2-80.3,42.8ZM40.7-83.9c-5.2,1.4-2.5-8.3-11.7-18.6C40.5-96,44.7-85,40.7-83.9ZM37.9-29.7c-8.4-5.7-15-22.4-7.4-39A198.9,198.9,0,0,0,37.9-29.7ZM-37-87.6c15.5,2.3,31.6,8.6,47,16.8a26.6,26.6,0,0,0,9.8-3.4C17.4-81.3,11.5-86.7,6-92.2,18.8-85.6,26-79.4,28.4-73.5c-5.4,9.1-11.2,9.3-16,10.4C8-49.4-29-43.5-35.8-59A21,21,0,0,0-25-55.8c-6.4-6.6-11.5-13.8-10-24.5-5.2-.3-9.6,3.9-15.5,11.8C-48.7-75.7-44.8-83.1-37-87.6ZM-26.6,13.1C-35.7,35-35.2,61-34.8,86.9c-7.9-18.5-7.7-37.8-2-57.6A113.2,113.2,0,0,0-47.4,45.9C-48,13.5-26.6-28-2.8-35.8-21.6-19.1-32,2.5-39.6,25.9ZM125,61.1a144.4,144.4,0,0,0-4.1-44.5c-.7,15.7-2.8,22.6-6,20.5a100.1,100.1,0,0,1-3.3,14.8c3.7,9.3,3.6,18,3.9,26.7,5.5,3.3,2.9,8.5,2.8,12.3C116.5,71,26.1,88.3.5,110.4L10.8,97.1C-.7,76.1-12,54.6-2-7.2c-10,17.6-13.9,44.5-9,73.4C-21,44.8-21.6,0,3.5-24.3c7.2-3.4,26.8,11.5,30.8,19.7C25.1-8.7,17.5-15.7,6.6-16.8c16.9,9,32.5,63.1,106.5,46,2.3-12.1,4.9-32.7,3.2-38.2a11.1,11.1,0,0,0-2.9,4.2c-1.3-22.5-14.6,18-1.6,6.6-2.3,9.5-7.4,15-13.6,19.2C85.5,18.6,70.3,10.7,70.7,5c31.6.2-21.2-24.6-4.2-2.2C50.5-2.8,42.7-15.7,45.3-20c4.1-6.9,32.4-6.6,46.6,1.5a43.8,43.8,0,0,1,16.6-9.9c-11.2-18.9-27.3-36.5-46-53.4,2.8-7,4.9-15.8,5.6-28.7,3.1,10,2.7,19.6,1.7,29.2,7.5-8.7,15.2-17.1,22.8-21.1,8.6,2.8,11.4,16.7,10.4,21.9-2.3-5.3-4.7-9.8-7.8-11.6-.6,10.6.6,22.9-8,25.9C123.4-31.4,135.7,11.2,125,61.1Z" transform="translate(215.5 212.8)" style="fill:#522d24;fill-rule:evenodd"/></svg>