<svg id="Layer_1" data-name="Layer 1" xmlns="http://www.w3.org/2000/svg" viewBox="0 0 307.2 277.9"><title>Bear612b_4c</title><path d="M-.1,139l-2.4-1.8c-.3-.3-7.5-5.7-15.1-18.1a30,30,0,0,1-12,9.9l-13.3,5.4,8.6-11.5a11.5,11.5,0,0,0,1-9.1,20.9,20.9,0,0,0-4.1-7.7l-7.1-.9c-.6-.1-14.4-1.9-31.3-13.6A156.9,156.9,0,0,1-95.1,76l1.7,4.5-13-12.6c-.9-.8-21.6-20.9-28.1-30.7A88.1,88.1,0,0,1-147.2,7.7l-2.6,7-1.4-7.9-1.7,4.1.8-8.7-.4-2a90.5,90.5,0,0,1,4.6-46.7C-140.7-64.7-127.7-78-110-85a38,38,0,0,1-2.1-3.9,39.2,39.2,0,0,1-3.7-18.8c.5-9.3,5-22.2,22.9-30.7l1.3-.6h1.5a75.5,75.5,0,0,1,31.1,9.5l4.1-1.9c1.2-.6,28.9-13.4,55,.3,26.1-13.7,53.8-.8,55-.3l4.1,1.9a75.5,75.5,0,0,1,31.1-9.5h1.5l1.3.6c18,8.5,22.4,21.4,22.9,30.7a39.1,39.1,0,0,1-3.7,18.8A37.9,37.9,0,0,1,110-85c17.6,7,30.7,20.2,37.8,38.4A90.5,90.5,0,0,1,152.4.2l-2.6,14.6-2.6-7a88.1,88.1,0,0,1-12.7,29.5C128,47,107.3,67,106.4,67.9l-13,12.6L95.1,76A157,157,0,0,1,75.8,91.6c-16.9,11.7-30.7,13.5-31.3,13.6l-7.1.9a20.9,20.9,0,0,0-4.1,7.7,11.5,11.5,0,0,0,1.1,9.2l8.6,11.5L29.6,129A30,30,0,0,1,17.5,119C9.9,131.4,2.7,136.9,2.3,137.2Zm-18.4-38.3,4.3,8.2A77.9,77.9,0,0,0-.1,128.6a78.1,78.1,0,0,0,14.2-19.9l4.3-8.3,3,8.9a20.8,20.8,0,0,0,3.4,6.2,21.6,21.6,0,0,1,.6-3.4C28.1,101.2,39,91,57.7,82l19-9.2L62.4,88.3l-3.6,3.8A85.5,85.5,0,0,0,71.2,85c14.4-10,25-20.2,32.5-31.4L121.4,27l-7.8,22.4c5.6-5.9,11.5-12.4,14.3-16.6,5-7.6,11.4-19.8,12.8-34.6a75.7,75.7,0,0,0,.4-8l-.2-22.9,4.5,12.3c-1.4-21.1-10.9-47.2-40-57.8l-1.4-.5-.7-1.3-1.6-2.7L100.2-85l1.6-2.2a29,29,0,0,0,3.1-5.1,31.1,31.1,0,0,0,3-14.9c-.4-7-3.9-16.8-17.8-23.6a65.3,65.3,0,0,0-31,10.9l-1.7,1.2-2-.7A113.3,113.3,0,0,0,44-122.7l-12.8-3h0c-11.9.1-23,5.9-27.2,8.4V-94l6.5-19.1L9.2-87.8l6,5.8L9.1-85.2V-84s-.2,5.4,3.3,6.9c1.7.7,4.8,0,6.9-.7v-.4l-1.4-7.7,7,3.3L27.6-81l5.2-3.8L30.1-79a34.6,34.6,0,0,1,9,14.3l.2.7v.8C38.2-50,32.8-41.8,30.6-38.9l-3.4,4.5-3.1-4.7C19.7-45.9,10.5-46.9,4.2-47v10.7L0-46.3-4.3-37l.2-10c-6.2.1-15.6,1-20,7.8l-3.1,4.7-2.8-3.7c.4,2.8.6,5.7.7,8.4l9.7,15.6A65.2,65.2,0,0,1-10.6,9.2a94.4,94.4,0,0,1,.7,25.4c1.1,1.2,3.8,3.3,9.7,3.1H.1c5.9.2,8.6-1.9,9.7-3.1a94.5,94.5,0,0,1,.7-25.4,65.2,65.2,0,0,1,9.2-23.6L33.9-37,27-11.2C24.1-.6,22.4,7.6,22.1,12.5a75.2,75.2,0,0,0,2.3,21.7l.3,1-.3,1C23.4,40.3,17.6,50.3,4,52V99L-3.7,79.7C-7.6,70-20.3,62.1-29.1,57.8c.3,1.3.7,2.7,1.1,4l4.9,14.8L-34.6,66c-8.4-7.9-12.2-20.1-13.8-30.7l-4.1,14.5-.8-6.5-4.4-2.1c-8.4-4-14.9-10.8-19.8-18.3l.4,1.1L-71,39-83.4,28.6A103.8,103.8,0,0,1-103.3,5.7l2.5,24.7-1-2.3,10.2,30-8.9-14.1c5.2,9.3,10.3,17.3,13.7,22.6l-3.6,2.9A147.5,147.5,0,0,0-71.2,85a85.5,85.5,0,0,0,12.4,7.2l-3.6-3.8L-76.8,72.9l19,9.2c18.7,9,29.6,19.1,32.3,30.1a21.6,21.6,0,0,1,.6,3.3,20.6,20.6,0,0,0,3.4-6ZM-9,60.9a56.3,56.3,0,0,1,5,4.5V57.1l-3-1.2ZM-37.7,45.7l4.5,1.6a26.6,26.6,0,0,1-3.6-5l-.7-1.4.4-1.5c0-.1.7-2.5,1.4-6.1l-2-8.7A127.6,127.6,0,0,1-40.5-1.7l-1,16.7C-41.6,15.2-42.5,31.6-37.7,45.7ZM-122,34.1l1,1.3c-.6-2.4-1.2-4.8-1.7-6.7Zm36.9-53.4c.1.4,5.6,35.3,25.3,50,.9-8.9,4.1-18.8,6.9-27.8,2.2-6.9,4.3-13.4,4.6-17.4l2.6-32.2,5.3,31.9a23.1,23.1,0,0,1,.3,3.6h0a79.1,79.1,0,0,1,2.8-15.1c.2-14.7-5.8-35.1-5.8-35.3l-.4-1.2.4-1.2A37,37,0,0,1-38-74c-6.4.1-12.9,1-13,1l-9.7,1.3-8.4,6.3,3.4-5.6L-77-69.4l14.6-6.8,4.2-6.9A23.8,23.8,0,0,1-45.9-93.4l1.7-.5,1.5.9,1.5.9,2.2-.9-.6,1.7c5.8,3.2,11.5,5.7,13.4,5.8L-25-86a22.9,22.9,0,0,1,5.3-8c-2.9-2.2-8.3-5.2-18.2-7.8-9.8,1.2-19.1,7-19.2,7.1L-78.7-81.2l16.5-19.5c7.6-9,23.5-12.1,24.2-12.2h1.2l1.8.3-2.9-1.9,21.3,4.5a43,43,0,0,1,6.5,2l-.3-5.1,2,5.8,4.5,2v-15.4A53.1,53.1,0,0,0-19.3-125v2.3c-.4,0-30.4,2-54.8,17.8l-8.3,10.4a200.2,200.2,0,0,0-19.8,31.3l3.7,2c-.1.2-8.4,18.3-9.7,36.2-.1.8-.1,1.6-.1,2.5l3,7.4A117,117,0,0,0-89.3,11.3a191.4,191.4,0,0,1-3.8-29.9Zm-38.9,32c.1,6.1.7,11.1.9,12.8l3.8-1C-121,20.5-122.6,16.5-124,12.6Zm3.7-65.3a57.4,57.4,0,0,0-7.5,23.4l5.4-15.2C-122-47-121.3-49.8-120.4-52.7ZM4.7-55c6.2.1,15.5,1.1,22.2,7a41.9,41.9,0,0,0,4.3-15.1,28.2,28.2,0,0,0-4.7-8.2l-.3.6C25.4-68.9,21-60,15.6-57.1l-.9.5h-1C8.7-56.7,6-55.7,4.7-55Zm-35.9-8.1a42,42,0,0,0,4.3,15c6.8-5.9,16.2-6.8,22.4-6.9-1.3-.8-4-1.7-9-1.7h-1l-.9-.5C-20.8-60-25.2-68.9-26-70.6l-.4-.8A28.4,28.4,0,0,0-31.2-63.1ZM-135.3-48.5h.1l.8-1.7ZM.1-64.2l1.1,2c2.4-1.3,6-2.3,11.3-2.4a11.4,11.4,0,0,0,1.6-1.6,18.4,18.4,0,0,1-5.4-1.2c-9.5-3.7-9-13.4-7.5-18.1l1.1-3.2L-3-91.4l2,5.9C.6-80.8,1.1-71.1-8.5-67.4a18.4,18.4,0,0,1-5.4,1.2,11.4,11.4,0,0,0,1.6,1.6c5.2.1,8.8,1.2,11.3,2.4ZM-19-77.8c2.1.8,5.2,1.5,6.9.7,3.5-1.5,3.3-6.8,3.3-6.9l-.4-7.1-2.6,1.3c-1.3.6-4.5,2.7-6.3,8.2l-.5,1.6-.3,1.8Zm-23.1-5.6a6.2,6.2,0,0,0-.1,1.6h3ZM-9.5-94.7v.2h-.1ZM-104.9-107a28.1,28.1,0,0,0,2.1,12,92.6,92.6,0,0,1,33.4-27.2,65.3,65.3,0,0,0-20.1-5.5c-12,6.2-15,14.7-15.4,20.7ZM31.4-129h0Z" transform="translate(153.6 139)" style="fill:#fff"/><path d="M146.6-33.3c-3.8-20.2-16.4-31.6-22-36.3s-18.4-10.2-18.4-10.2l-3.7-3.8c8.2-7.3,9.4-27.1,5.2-34.6s-13.1-15.2-17.6-14.9c-23.4,1.8-33,12.1-33,12.1l-22-5,8.3-2.4s-12.7-3.3-22.6-2.4S.4-125,.4-125H0s-10.6-5-20.5-5.8-22.6,2.4-22.6,2.4l8.3,2.4-22,5s-9.6-10.2-33-12.1c-4.5-.4-13.5,7.3-17.6,14.9s-2.9,27.4,5.2,34.6l-3.7,3.8s-12.8,5.5-18.4,10.2-18.2,16.1-22,36.3a84.7,84.7,0,0,0-1.1,23.8l4.2-8.3s-.4,13.8,2.5,25.9,10,27.5,19.9,38.2A80.5,80.5,0,0,0-108.4,57l-2.8-11.8s14.5,20.7,25.8,29.9S-56,93.4-56,93.4L-67.2,76.2S-13,101.2.2,101,67.6,76.2,67.6,76.2L56.4,93.4s18.2-9.1,29.5-18.3,25.8-29.9,25.8-29.9L108.8,57a80.5,80.5,0,0,0,12.3-10.7c9.9-10.7,17-26,19.9-38.2s2.5-25.9,2.5-25.9l4.2,8.3A84.7,84.7,0,0,0,146.6-33.3Z" transform="translate(153.6 139)" style="fill:#d6aa29"/><path d="M106.8-81.9l-1.7-2.8a32.9,32.9,0,0,0,3.5-5.8,35.1,35.1,0,0,0,3.4-16.8c-.5-8.2-4.5-19.6-20.6-27.3l-.4-.2h-.4a69.7,69.7,0,0,0-33.7,11.7,117.6,117.6,0,0,0-11.9-3.4l8.4-1.1S25.2-141,0-126.4c-25.2-14.6-53.3-1.2-53.3-1.2l8.4,1.1a117.5,117.5,0,0,0-11.9,3.4,69.7,69.7,0,0,0-33.7-11.7h-.4l-.4.2c-16.2,7.7-20.2,19.1-20.6,27.3a35.1,35.1,0,0,0,3.4,16.8,32.9,32.9,0,0,0,3.5,5.8l-1.7,2.8c-39.5,14.4-46.1,56.7-41.7,81.4l3.4-9.3a79.4,79.4,0,0,0,.4,8.4c1.3,13.4,6.6,25.9,13.5,36.4s27.5,30,27.5,30-1.7-4.4-3.4-9.2c7.8,11.7,19,22.4,33.5,32.5C-57.2,99.6-44,101.2-44,101.2s-7.2-6.6-15.5-15.6c42.6,20.5,28.4,39.7,28.4,39.7a25.9,25.9,0,0,0,13.4-14.6C-9.2,127.1-.1,134-.1,134s9.2-6.9,17.7-23.4a25.9,25.9,0,0,0,13.4,14.8S16.8,106.1,59.5,85.6c-8.3,9-15.5,15.6-15.5,15.6s13.2-1.6,29.5-12.9C88.1,78.2,99.2,67.5,107,55.8c-1.7,4.8-3.4,9.2-3.4,9.2s21.2-20.5,27.5-30,12.2-23,13.5-36.4a79.3,79.3,0,0,0,.4-8.4l3.4,9.3C152.8-25.2,146.3-67.6,106.8-81.9Zm-215.7-25.3c.4-7.3,4-17.5,18.6-24.6a68.6,68.6,0,0,1,30,9.9,89.8,89.8,0,0,0-43,34.4A32.3,32.3,0,0,1-108.9-107.2ZM-119.4,24.8c1.1,6.4,6.7,25,6.9,26.4-5.9-5.4-11.2-12.6-15.9-19.3-23.5-33.5-7.1-80.3-7.1-80.3-4.4,8.9-9.8,29.9-10.6,31.9,1.1-11.5.3-48.7,41.8-60.8-18.1,27.9-16,52.1-16,52.1l4.3-8.8c-.1,1.8-.2,4-.2,6.4-.2,21.2,5.8,42.6,9.9,54.7-17.6-27.9-18.2-53.8-18.2-53.8s-5,14.3-6.1,18.7c-.5-3.9-9.2-37.8,21.6-64.3C-158.6-41.3-127,26.6-127,26.6s-3.1-23,1.5-38c1.8,25.8,23.7,62.3,35.5,80.2C-111.1,47.4-119.4,24.8-119.4,24.8ZM0,78.2c-6.8-17-34.3-27-34.3-27a67.3,67.3,0,0,0,2.5,11.8C-47.7,48.2-45.6,14.8-45.6,14.8s-5,13.5-5.4,15c-1.9-15.1,8.6-32.3,6.6-44.1C-45.3-2.9-57.2,21.6-56,37.6c-26.5-12.7-33-56.4-33-56.4s1,26.8,8.2,44.2c-18.8-15.7-28.4-39.1-28.4-39.1l1.8,17.9a60.6,60.6,0,0,1-4.9-29.6c1.4-18.9,10.1-37.6,10.1-37.6l-10.8,17.2-.4.6C-107.7-69.4-85.6-97-85.6-97a82.7,82.7,0,0,0-11.5,8.2c24.8-34.7,77.5-37.8,77.5-37.8l-16.3-1.9c20.9-3.6,35.9,5.3,35.9,5.3s16.2-8.6,31.2-6.4C14.7-129.5,0-119.4,0-119.4v20.7s-10.5-5.9-17.5-7.4a76.2,76.2,0,0,1,10.1,8c-18-9.3-29.9-10.8-29.9-10.8s-15.1,2.8-21.9,10.8c0,0,10.5-6.6,21.6-7.8,16.6,4.4,22.3,9.9,24,12.4-2.6,1.3-6.3,4.4-8.4,10.6l-3.2,1.3c-3.7,1.6-19.7-7.9-19.7-7.9a19.7,19.7,0,0,0-10,8.4,54.9,54.9,0,0,1,9.2-5c-.5,1.6-1.2,4.7.1,7.2a31.8,31.8,0,0,0-6.1,2s14.5-2,22.5-.6A30.4,30.4,0,0,0-39.3-62.9s6.4,21.5,6,37c-6.8,22.5-.5,49.6-.5,49.6s1.2-9.8,3.7-14.5c2.2,11.5-3.2,31.3-3.2,31.3s6,11.8,25,17.6c0,0-18.4-9.1-21.9-18.1,8-28.5.2-44.6.2-44.6s-3,13.2-3.7,15.2c-.9-12.3-1-19.5,2.3-27.9,2.9,5.9,9.7,20.9,10.2,29.8.7,11.2-3.4,24.5-3.4,24.5A47.2,47.2,0,0,0,0,54.2Zm20.6-43c-.5,2-5.4,13-20.6,13s-20.1-11-20.6-13a79.1,79.1,0,0,0,2.4-23c-.4-6.5-2.9-16.8-4.9-24.3a61.7,61.7,0,0,1,8.5,22A89.6,89.6,0,0,1-14,35.6s3,6.5,14,6.1,14-6.1,14-6.1a89.6,89.6,0,0,1,.5-25.7,61.8,61.8,0,0,1,8.6-22.2c-2,7.5-4.6,17.9-5,24.5A79.1,79.1,0,0,0,20.6,35.2Zm6.8-76.6C20.6-51.8,5.4-51,0-51s-20.6-.8-27.4,9.6c-1.8-2.4-6.8-9.9-7.8-22.2,0,0,3.4-11.4,12.4-15.5a35,35,0,0,0-.5,3.5c1.8,1.3,8.5,3.9,12.7,2.1C-4.3-76-4.8-84.2-4.8-84.2s3.3,9.8-5.1,13a13.6,13.6,0,0,1-12.4-1.1s4.3,9.2,8.8,11.6C-3.4-60.8-.5-57,.1-56.2v.2H.2v-.2c.5-.9,3.4-4.6,13.5-4.5,4.5-2.4,8.8-11.6,8.8-11.6a13.6,13.6,0,0,1-12.4,1.1C1.7-74.4,5-84.2,5-84.2S4.6-76,10.8-73.4c4.2,1.8,10.9-.8,12.7-2.1-.1-1.2-.2-2.3-.4-3.4,8.8,4.2,12.1,15.4,12.1,15.4C34.2-51.1,29.2-43.6,27.4-41.3Z" transform="translate(153.6 139)" style="fill:#050000"/><path d="M109.1-72.2c8.4,13.8,11.8,37.5,11.8,37.5s.1-15.1-7.3-33.2c25.4,25.7,17.5,56.4,17,60.1-1.1-4.4-6.1-18.7-6.1-18.7a238.6,238.6,0,0,1-15.4,62.9c8.2-15.9,15.3-33.4,16.3-47.6,4.6,15,1.5,38,1.5,38S158.6-41.3,109.1-72.2Z" transform="translate(153.6 139)" style="fill:#d6aa29"/><path d="M26.6-78.4c6.3,0,15.9-6,18.7-7.9a53.8,53.8,0,0,1,9.5,5.1,19.7,19.7,0,0,0-10-8.4s-16,9.5-19.7,7.9a85,85,0,0,0-9.9-3.6l-.8,2.9S25.6-78.4,26.6-78.4Z" transform="translate(153.6 139)" style="fill:#050000"/><path d="M33.6-9.1c.9,5.5.6,11.5,0,19.6-.7-2-3.7-15.2-3.7-15.2s-7.5,16.1.2,44.6C26.7,49,8.2,58.1,8.2,58.1c19.1-5.7,25-17.6,25-17.6S27.9,20.7,30.1,9.2c2.5,4.7,3.7,14.5,3.7,14.5S39.6,2.3,33.6-9.1Z" transform="translate(153.6 139)" style="fill:#d6aa29"/><path d="M61.5-110.4c-10.1-7.5-26-8.5-29.7-8.5l8.8-2.2s-20.3-4.7-36.2,9.4c0,0,14.1-7.2,23.2-8.1,0,0-7.4,2.8-11.5,6.1C39.1-120.7,61.5-110.4,61.5-110.4Z" transform="translate(153.6 139)" style="fill:#d6aa29"/><path d="M45.2-87.2s2.3,4.9.2,8.5a48.6,48.6,0,0,0-14.8-1.2Z" transform="translate(153.6 139)" style="fill:#d6aa29"/><path d="M91.6,7.2s17.6-19.7,13.6-50.9c0,0-1.3,22.2-8.5,33A87.5,87.5,0,0,0,97-24.7c-.8-12-4.3-21.7-10.2-28.5,3.9.7,9,4.6,9,4.6S87.3-67.7,61.5-75.9c0,0,18.6,9.1,24.6,19.1-.9-.3-8.7-2.5-13.3-3.7C102.8-44.9,91.6,7.2,91.6,7.2Z" transform="translate(153.6 139)" style="fill:#d6aa29"/><path d="M58.1-7.2c4.4-15.7,1.4-32.3-2.3-39.6,4,2.2,8.6,7.6,8.6,7.6s-6.9-25-26.9-33.9c0,0,15.3,12.3,19.3,23.9A44.8,44.8,0,0,0,50.2-54S60.8-34.1,58.1-7.2Z" transform="translate(153.6 139)" style="fill:#d6aa29"/><path d="M-23.2-39.3a23.3,23.3,0,0,0,5,17.8s1.2-10.8,3.7-16.8C-13.2-41.2-22.4-45.2-23.2-39.3Z" transform="translate(153.6 139)" style="fill:#fff"/><path d="M23.5-39.3a23.3,23.3,0,0,1-5,17.8s-1.2-10.8-3.7-16.8C13.5-41.2,22.7-45.2,23.5-39.3Z" transform="translate(153.6 139)" style="fill:#fff"/><path d="M14-39.8c-.2-3.4-4.4-3.1-4.8-.8A7.8,7.8,0,0,0,9.2-39c-.2-1.2-.8-2.7-2.3-2.7s-1.9,1.9-2,3c-.4-1.1-1.2-2.8-2.7-2.8S.2-40,.1-39c-.1-1-.5-2.6-2-2.6s-2.4,1.8-2.7,2.8c-.1-1.1-.5-3-2-3S-8.7-40.2-8.9-39a7.7,7.7,0,0,0-.1-1.6c-.4-2.3-4.6-2.5-4.8.8a9.8,9.8,0,0,0,.7,3.5A69.9,69.9,0,0,1,.1-37.7a69.9,69.9,0,0,1,13.2,1.4A9.8,9.8,0,0,0,14-39.8Z" transform="translate(153.6 139)" style="fill:#fff"/><path d="M-8.6,28.4s-4.8-2.2-8-9.2c-3.2,10.5,3.7,16.6,3.7,16.6a3.8,3.8,0,0,0,4.3-1.9A6.9,6.9,0,0,0-8.6,28.4Z" transform="translate(153.6 139)" style="fill:#fff"/><path d="M-12,36.7h-1.5c-.1-.1-7.2-6.6-3.9-17.4l.6-1.9.8,1.8c3,6.6,7.6,8.8,7.6,8.8h.2v.2a7.6,7.6,0,0,1,0,6.2A4.3,4.3,0,0,1-12,36.7Zm-.6-1.5h.6a2.8,2.8,0,0,0,2.7-1.6,6,6,0,0,0,.1-4.7,18.9,18.9,0,0,1-7.2-7.6A15.4,15.4,0,0,0-12.6,35.1Z" transform="translate(153.6 139)" style="fill:#050000"/><path d="M8.7,28.4s4.8-2.2,8-9.2C19.9,29.7,13,35.8,13,35.8a3.8,3.8,0,0,1-4.3-1.9A6.9,6.9,0,0,1,8.7,28.4Z" transform="translate(153.6 139)" style="fill:#fff"/><path d="M12,36.7a4.3,4.3,0,0,1-4-2.4,7.6,7.6,0,0,1,0-6.2v-.2h.2S13,25.5,16,18.9l.8-1.8.6,1.9c3.3,10.8-3.8,17.4-3.9,17.4H12ZM9.3,28.9a6.1,6.1,0,0,0,.1,4.7A2.8,2.8,0,0,0,12,35.2h.6a15.1,15.1,0,0,0,3.8-13.8A18.9,18.9,0,0,1,9.3,28.9Z" transform="translate(153.6 139)" style="fill:#050000"/><path d="M13.3-3.6C8-10,.8-4.9.8-4.9L0,25.9-.8-4.9S-8-10-13.3-3.6c2.1,5.3,6.1,15,3.3,24,0,0,1.3,9.2,9.9,9.2S10,20.5,10,20.5C7.2,11.5,11.2,1.7,13.3-3.6Z" transform="translate(153.6 139)" style="fill:#b71f36"/><path d="M-61.5-110.4c10.1-7.5,26-8.5,29.7-8.5l-8.8-2.2s20.3-4.7,36.2,9.4c0,0-14.1-7.2-23.2-8.1,0,0,7.4,2.8,11.5,6.1C-39.1-120.7-61.5-110.4-61.5-110.4Z" transform="translate(153.6 139)" style="fill:#050000"/><path d="M-91.6,7.2s-17.6-19.7-13.6-50.9c0,0,1.3,22.2,8.5,33A87.5,87.5,0,0,1-97-24.7c.8-12,4.3-21.7,10.2-28.5-3.9.7-9,4.6-9,4.6s8.4-19.2,34.3-27.4c0,0-18.6,9.1-24.6,19.1.9-.3,8.7-2.5,13.3-3.7C-102.8-44.9-91.6,7.2-91.6,7.2Z" transform="translate(153.6 139)" style="fill:#050000"/><path d="M-58.1-7.2c-4.4-15.7-1.4-32.3,2.3-39.6-4,2.2-8.6,7.6-8.6,7.6s6.9-25,26.9-33.9c0,0-15.3,12.3-19.3,23.9A44.8,44.8,0,0,1-50.2-54S-60.8-34.1-58.1-7.2Z" transform="translate(153.6 139)" style="fill:#050000"/><path d="M8.1,34.3c-.1,2.2-2.5,2.1-2.7.6a5.9,5.9,0,0,1,0-1.1c-.1.8-.5,1.8-1.3,1.8s-1.1-1.2-1.1-2-.7,1.9-1.6,1.9S.2,34.4.1,33.7s-.3,1.7-1.2,1.7-1.4-1.2-1.6-1.9-.3,2-1.1,2-1.2-1-1.3-1.8a5.9,5.9,0,0,1,0,1.1c-.2,1.5-2.6,1.7-2.7-.6A7.4,7.4,0,0,1-7.5,32a35.2,35.2,0,0,0,7.6.9A35.2,35.2,0,0,0,7.7,32,7.4,7.4,0,0,1,8.1,34.3Z" transform="translate(153.6 139)" style="fill:#fff"/><path d="M-70.1-115.2s-9.6-5.7-18.8-5.7C-104-110.4-95.1-94-95.1-94S-80.8-110.9-70.1-115.2Z" transform="translate(153.6 139)" style="fill:#050000"/><path d="M21.2,88.5C12.2,105,2,117.6.1,119.1-1.8,117.6-12,105-21,88.5c7.4,26,21.1,36.3,21.1,36.3S13.8,114.5,21.2,88.5Z" transform="translate(153.6 139)" style="fill:#d6aa29"/><path d="M-26.6,102.3C-40.6,80.7-70.9,69-70.9,69s2.5,11.9,7.8,20.4c-21-13.2-32.7-49.3-32.7-49.3S-84.4,65.6-72,76.3a70.5,70.5,0,0,1-3-13.2S-39,77.3-26.6,102.3Z" transform="translate(153.6 139)" style="fill:#d6aa29"/><path d="M26.8,102.3C40.8,80.7,71.1,69,71.1,69s-2.5,11.9-7.8,20.4C84.3,76.2,96,40.1,96,40.1S84.6,65.6,72.2,76.3a70.5,70.5,0,0,0,3-13.2S39.2,77.3,26.8,102.3Z" transform="translate(153.6 139)" style="fill:#d6aa29"/><path d="M-48,32s-.7,27.9,20.7,37.4a63,63,0,0,1-3.1-12.5C-27,58.3-13.6,63.6-6,73.5A58.9,58.9,0,0,0-27.9,60.1c1.4,8.4,4.9,12.8,4.9,12.8S-44,67.4-48.2,41.4a18.6,18.6,0,0,0-1.4,5.5C-50.4,37.9-48.1,34.7-48,32Z" transform="translate(153.6 139)" style="fill:#d6aa29"/><path d="M47.3,32s.7,27.9-20.7,37.4a63,63,0,0,0,3.1-12.5C26.4,58.3,13,63.6,5.4,73.5A58.9,58.9,0,0,1,27.2,60.1C25.8,68.5,22.3,73,22.3,73s21.1-5.5,25.3-31.6A18.6,18.6,0,0,1,49,46.9C49.8,37.9,47.4,34.7,47.3,32Z" transform="translate(153.6 139)" style="fill:#d6aa29"/><path d="M27.5-82.9s12-5.8,17.2-7.4A36.3,36.3,0,0,1,54.3-87a29.1,29.1,0,0,0-9.5-5.2C39.9-91,27.5-82.9,27.5-82.9Z" transform="translate(153.6 139)" style="fill:#d6aa29"/><path d="M14-96.7s11.7-8.5,30.9-13.7c14,4.7,17,8.1,17,8.1s-8.4-4.4-17.3-5.1C32.1-104.3,14-96.7,14-96.7Z" transform="translate(153.6 139)" style="fill:#d6aa29"/><path d="M-103.9,6A57.6,57.6,0,0,0-76.2,33.7l-2.8-11.3S-68.5,37.3-57,43c-7.7-2.7-17.6-10.9-17.6-10.9l2.5,8.1S-98.2,27.2-103.9,6Z" transform="translate(153.6 139)" style="fill:#d6aa29"/><path d="M102.6,6A57.6,57.6,0,0,1,75,33.7l2.8-11.3S67.2,37.3,55.8,43c7.7-2.7,17.6-10.9,17.6-10.9l-2.5,8.1S97,27.2,102.6,6Z" transform="translate(153.6 139)" style="fill:#d6aa29"/><path d="M60.3-121.9a68.1,68.1,0,0,1,30-9.9,100.5,100.5,0,0,0-26.5,11.4Z" transform="translate(153.6 139)" style="fill:#d6aa29"/></svg>