<svg id="Layer_1" data-name="Layer 1" xmlns="http://www.w3.org/2000/svg" viewBox="0 0 518.4 506.2"><title>Bear978_3c</title><path d="M225.3-134.1c23.1,29.3,35,62.5,27.4,100.1,7.8,29.3,13.3,72.1-12.9,93.4l-3.3,2.7c-3.3,31.9-17.7,64.9-52,70.2l-4.5.7a123.9,123.9,0,0,1-15.7,18.8C154.2,161.8,112.1,193,98,200.6l-1.1-12.8-3.5,2.6c-3.4,2.4-7,4.7-10.4,7.1a115.5,115.5,0,0,0-12.1,9.8,28.5,28.5,0,0,0-5.2,6.9c-5.3,9.3-7.9,16.6-16.5,24-13,11.1-32.2,14-48.7,14.9h-1c-16.5-.9-35.7-3.8-48.7-14.9-8.6-7.3-11.2-14.7-16.5-24a28.4,28.4,0,0,0-5.2-6.9A115.4,115.4,0,0,0-83,197.5c-3.4-2.4-7-4.6-10.4-7.1l-3.5-2.6.7,12.8c-13.6-6.5-57.2-37.9-68.3-48.8a123.9,123.9,0,0,1-15.7-18.8l-4.5-.7c-34.3-5.3-48.6-38.2-52-70.2l-3.3-2.7C-266,38.2-260.6-4.7-252.7-34c-7.6-37.6,4.3-70.8,27.4-100.1-14.9-17.4-23.6-39.3-21.3-62.6,1.8-18.4,11.5-38.8,29.4-46.5s34.5-13.5,52.4-7.4c7.8,2.7,15.1,7.3,22.5,10.9a119.5,119.5,0,0,0,29.8,9.9c37.1-20.4,72.1-25,112.5-10,40.8-16.2,75-10.9,112.7,10a119.5,119.5,0,0,0,29.8-9.9c7.4-3.6,14.7-8.2,22.5-10.9,17.8-6.1,35.9.3,52.4,7.4s27.6,28.1,29.4,46.5c2.3,23.3-6.5,45.2-21.3,62.6" transform="translate(259.2 253.1)" style="fill:#fff;fill-rule:evenodd"/><path d="M-3-230.3c44-18.5,77.4-9.4,111.1,9.7,56.6-9.9,48.2-38.1,102.7-14.5,24.5,10.6,39.6,60.4-.3,100.6,30.2,35.3,37.2,68.6,30.1,100.7C248-6.8,254,33.9,231.2,52.5L225,35.8c2.2,27.8-3.7,81.3-44.7,87.6a54.3,54.3,0,0,0,5-24.1c-27.5,62.6-57.7,58.4-82.5,87.5a114.4,114.4,0,0,1,3.5-28.3c-16.2,27.4-23.9,23.2-44.5,42.2C45.8,215.6,54.2,241-3,244.2c-57.2-3.2-48.8-28.6-64.8-43.4-20.6-19.1-28.4-14.8-44.5-42.2a114.4,114.4,0,0,1,3.5,28.3c-24.8-29.2-55-25-82.5-87.5a54.3,54.3,0,0,0,5,24.1c-41-6.3-47-59.9-44.7-87.6l-6.2,16.7C-260,33.9-254-6.8-246.5-33.7c-7.1-32.2-.1-65.5,30.1-100.7-39.9-40.2-24.8-90-.3-100.6,54.5-23.5,46.1,4.6,102.7,14.5,33.6-19.2,67.8-26.9,111.1-9.7" transform="translate(259.2 253.1)" style="fill:#050000;fill-rule:evenodd"/><path d="M-3-49.9C8-50,47.9-68.2,51.7-28.8,39.9-7.2,8.7,7.9-3,10-14.7,7.9-45.9-7.2-57.7-28.8-53.9-68.2-14-50-3-49.9m0-28.6c5.8-.1,27.8-9,34.3.6-10.3.7-14.8,4.4-19.6,9.1,26-7.9,46.2-4,42.9,47l4-20.3c16.6,24.8-2.2,27.8,9.8,60.9C57.9,11,44,15.6,36,25.1c14.8-8.4,28.1-5.3,31.2,2.7-16-6.7-22.2,2.9-33.3,4.4-15.4,1.4-58.5,1.4-73.9,0C-51,30.7-57.2,21.1-73.2,27.8c3.1-8.1,16.4-11.2,31.3-2.7-8-9.5-21.9-14.1-32.4-6.4,12-33.1-6.8-36,9.8-60.9l4,20.3c-3.4-51,16.9-54.8,42.9-47-4.8-4.7-9.3-8.5-19.6-9.1C-30.8-87.6-8.8-78.7-3-78.6Z" transform="translate(259.2 253.1)" style="fill:#522d24;fill-rule:evenodd"/><path d="M-49.1-54.4c2.7-18,23.8-14.1,32.4.6-12.2-6.7-24-7.6-32.4-.6" transform="translate(259.2 253.1)" style="fill:#050000;fill-rule:evenodd"/><path d="M-41.1,187.7c-4.5-21.2-8.7-53-17.7-68.7,3.9,22.6,6.5,44.5,8.3,66,3.5,2.3,6.4,2.5,9.3,2.7" transform="translate(259.2 253.1)" style="fill:#522d24;fill-rule:evenodd"/><path d="M-128.1-14.9C-140.6,1.5-147-3.8-153.9,2.4s-21.2,35-11,76.4c-1.7-77,28.8-61.3,36.8-93.7m-13.6,42.7c-20,17.7-18.2,43.6-12.4,69.3C-154.3,59.4-145.3,37.2-141.7,27.8Zm277.4,0c20,17.7,18.2,43.6,12.4,69.3C148.3,59.4,139.3,37.2,135.7,27.8ZM122.1-14.9C134.6,1.5,141-3.8,147.9,2.4s21.2,35,11,76.4C160.6,1.7,130.1,17.5,122.1-14.9Zm-267-118.3c-25-4.1-37.4,9-44.3,31.3C-171.6-121-162.5-125.2-144.9-133.2Zm29.3-19.8c.9,16.8,23,26.4-12.4,45.6C-116.5-128-119.3-131.2-115.6-153Zm225.2,0c-.9,16.8-23,26.4,12.4,45.6C110.5-128,113.3-131.2,109.6-153Zm29.3,19.8c25-4.1,37.4,9,44.3,31.3C165.6-121,156.5-125.2,138.9-133.2ZM-3-171.4c1.5-16.6,10.5-27.1,27-31.2a37,37,0,0,0-2.5,13.4c10.1-7.7,21.9-10.8,35.9-7.4-7.1,3.6-10,7.2-11.1,10.9,13.5-8.1,26.7-9.1,39.4,1-7.3.5-12.7,3.5-16.3,8.9,14.5-2.3,27.3-.3,36.1,11.6-29.3-6.2-37.7.8-53.2,7.2-1.1-7.5-.1-14.7,4.5-21.4-8.7,2.3-17,7-24.7,13.2-2.3-7.9,1.3-14.7,5-21.5-10.3,5.6-18.1,13-25,21.2-1.5-3.4-2.4-8.1-2.3-14.6-4.7,7.6-8.4,22.4-6.3,30.6,3.7-4.1,7.9-6.5,13.1-5.9-2.3,2.4-3.9,6.4-4.9,11.9,8.4-8.2,16.8-11.1,25.1-7.4-4.2,2.7-7.7,5.7-9.3,9.9,14.9-8.7,25.7-4.8,31.5-1.2-12.3,1.3-20.2,8.7-24.3,21.4,13.9-14.7,31.8-11.3,50.9-2.2-13-.1-26.2,9.8-39.7,27.3-3.9,6.4,3.1,16.7,12.8,10.1,10.5-9.9,16.6-15.3,23-19.2s25.5,1.6,19.5,18.2c-.6-7.3-3.2-11.9-9.5-11.6,11.9,28.7-15.5,42.3-32.4,23.2,2,13.5,15.5,19.2,25.7,13.7-5.2,6.7-12.1,7.7-20.4,3.6,10.5,10.9,31,11.7,35.7-6.9a18.4,18.4,0,0,1-2.1,12.6c14.2-9.4,17.2-23.8,19.5-37.5a22.7,22.7,0,0,1,1.6,7A61.6,61.6,0,0,1,140-62.9,30.8,30.8,0,0,0,123.1-67c10.5,9.3,18.7,19.3,23.4,30.4a128.1,128.1,0,0,0-24.7-16.5c21,50.5,34.7,36,46.5,87.2-1-23.8-5.8-40.6-13-53A49.4,49.4,0,0,1,170.7-.8c0-17-4.8-33.1-12.6-48.5,5.8,2.9,11.5,7.4,17.3,15.5-4.1-20.1-9.8-39.7-23.3-56.7,8.2,1,15,4.9,21.2,10.5-4.2-12.7-11.7-22-20.6-30.1,36.4,11.8,50.1,63.6,48.1,85L184.1-49.7c9.4,26.1,11.2,55.7,8.1,76C190.3,15.5,185,5.5,179.5-3c3.6,43.4,2.8,83.7-14.3,112.1,13.6-11.6,20.1-32.7,24.5-56.7,7.7,9.9,13.1,22.5,13.6,41.1,11.5-28.8,10.2-69.2,1.9-95.7,14.2-2.6,23.9,5.2,31.8,17.1.6-46.5-23.1-67.3-28-97.4a304.7,304.7,0,0,0,18.1,27C250.2-98,92-273.2-3-216.6-98-273.2-256.2-98-233.2-55.5a304.7,304.7,0,0,0,18.1-27c-4.9,30.2-28.5,51-28,97.4,8-11.9,17.7-19.7,31.8-17.1-8.3,26.5-9.6,66.9,1.9,95.7.4-18.7,5.9-31.3,13.6-41.1,4.3,24,10.8,45.1,24.5,56.7C-188.3,80.7-189.1,40.5-185.5-3c-5.5,8.5-10.8,18.5-12.6,29.3-3.2-20.3-1.3-49.9,8.1-76L-206.8-25c-1.9-21.4,11.7-73.2,48.1-85C-167.5-102-175-92.7-179.2-80c6.1-5.6,13-9.5,21.2-10.5-13.5,17-19.1,36.6-23.3,56.7,5.8-8.1,11.5-12.6,17.3-15.5-7.8,15.5-12.6,31.5-12.6,48.5a49.4,49.4,0,0,1,15.3-18.1c-7.2,12.4-12,29.2-13,53,11.8-51.2,25.5-36.8,46.5-87.2a128.1,128.1,0,0,0-24.7,16.5c4.8-11.1,13-21.1,23.4-30.4A30.8,30.8,0,0,0-146-62.9a61.6,61.6,0,0,1,20.5-19.4,22.7,22.7,0,0,1,1.6-7c2.4,13.6,5.3,28.1,19.5,37.5a18.4,18.4,0,0,1-2.1-12.6c4.8,18.5,25.2,17.8,35.7,6.9-8.3,4.1-15.2,3.1-20.4-3.6,10.1,5.5,23.7-.2,25.7-13.7-16.9,19.1-44.3,5.5-32.4-23.2-6.3-.2-8.9,4.4-9.5,11.6-6-16.6,11.8-22.8,19.5-18.2s12.6,9.3,23,19.2c9.7,6.6,16.7-3.7,12.8-10.1-13.5-17.5-26.7-27.4-39.7-27.3,19.1-9.1,37-12.5,50.9,2.2-4-12.7-12-20.1-24.3-21.4,5.9-3.7,16.6-7.5,31.5,1.2-1.6-4.2-5.1-7.3-9.3-9.9,8.4-3.7,16.8-.8,25.1,7.4-1-5.6-2.6-9.5-4.9-11.9,5.2-.6,9.4,1.8,13.1,5.9,2.1-8.1-1.6-23-6.3-30.6,0,6.5-.8,11.2-2.3,14.6-6.9-8.2-14.8-15.6-25-21.2,3.7,6.8,7.3,13.7,5,21.5-7.7-6.2-15.9-10.9-24.7-13.2,4.6,6.7,5.6,13.9,4.5,21.4-15.5-6.4-23.9-13.4-53.2-7.2,8.8-11.9,21.6-14,36.1-11.6-3.6-5.4-9.1-8.4-16.3-8.9,12.7-10.1,25.9-9,39.4-1-1.1-3.6-4-7.2-11.1-10.9,14-3.4,25.8-.3,35.9,7.4A37,37,0,0,0-30-202.7C-13.5-198.5-4.5-188-3-171.4Z" transform="translate(259.2 253.1)" style="fill:#522d24;fill-rule:evenodd"/><path d="M-94.4-96.9c1.7-.3,5.9,2.9,9.2,5.8,1.9,6.7-9,9.3-7.8-2.2-2,6.2-.9,12.3,1.3,18.2-4.9-5.9-6.1-13.1-2.7-21.8m182.6,0c-1.7-.3-5.9,2.9-9.2,5.8-1.9,6.7,9,9.3,7.8-2.2,2,6.2.9,12.3-1.3,18.2C90.4-81,91.6-88.2,88.2-96.9Z" transform="translate(259.2 253.1)" style="fill:#fff;fill-rule:evenodd"/><path d="M43.1-54.4c-2.7-18-23.8-14.1-32.4.6,12.2-6.7,24-7.6,32.4-.6" transform="translate(259.2 253.1)" style="fill:#050000;fill-rule:evenodd"/><path d="M30,38.6c-17.3,10.7-48.6,10.7-66,0,13.1-1,52.8-1,66,0" transform="translate(259.2 253.1)" style="fill:#522d24;fill-rule:evenodd"/><path d="M129-207.8c33.9-10.4,34-24.3,52.3-23.8s48,15.7,47.5,47.7c-3.2-6.9-7.2-12.1-13.6-12.2,11.2,18.6,4.9,34.4-5.7,49.4-3.1-15.2-12.1-27.4-31.8-34.4,8.3-2.8,16.8-3.9,27.2,3.7A34.4,34.4,0,0,0,185-192.1c7.5-2.2,14.9-3.3,21.4,1-2-5-6.4-8.8-14.6-10.7,8.8-5.5,14.6-2.3,19.2,3.1-2.9-9.6-13.1-12.6-18.9-13.1-14.2-1.2-19,9.6-44.7,18.1-5-4.9-11.8-9.6-18.3-14.1" transform="translate(259.2 253.1)" style="fill:#522d24;fill-rule:evenodd"/><path d="M-3,140.9c.9-2.6,1.7-7.4,2.6-13.1,16.5-18.9,35-6.4,32.6,5.3s-9.5,7.4-12.8,35.3a89.3,89.3,0,0,1,8.7-16.6c-3.2,13.6,2,20.7-5.7,30.8S7.1,199.5-3,198.8s-18.6-7.1-25.5-16.2-2.4-17.2-5.6-30.8a89.3,89.3,0,0,1,8.7,16.6c-3.3-27.9-10.3-22.4-12.8-35.3s16.1-24.1,32.6-5.3c.9,5.7,1.7,10.5,2.6,13.1" transform="translate(259.2 253.1)" style="fill:#fff;fill-rule:evenodd"/><path d="M35.1,187.7c4.5-21.2,8.7-53,17.7-68.7-3.9,22.6-6.5,44.5-8.3,66-3.5,2.3-6.4,2.5-9.3,2.7" transform="translate(259.2 253.1)" style="fill:#522d24;fill-rule:evenodd"/><path d="M-16,204.3a23.9,23.9,0,0,1-9.2-6.4c-2.5,11.2,2,19.6,9.8,16.5-1.1-1.5-1.2-7.9-.6-10.1m25.9,0a23.9,23.9,0,0,0,9.2-6.4c2.5,11.2-2,19.6-9.8,16.5C10.4,212.8,10.6,206.5,10,204.3Zm-11.3,8.1c.7-3.7,4.2-2,7.6-10.6,3,10.1-1.3,19.3-7.5,16.7Zm-3.4,0c-.7-3.7-4.2-2-7.6-10.6-3,10.1,1.3,19.3,7.5,16.7Zm-26.6-15.8c-3-6.9-13.8-.8-23.3-10.9,3.1,16.3,9.2,25.2,17.7,28S-28.8,202.3-31.3,196.5ZM-68,38c-1.8-8.8,26.1-7.5,24.3,16.1-.1,10.1-4.8,26.6-6.8,39.8C-59.9,78-66.9,60.6-68,38Zm28.3,3.1A41.8,41.8,0,0,0-29.2,61.8a61.9,61.9,0,0,1,7.5-12.1,56.7,56.7,0,0,0,9,12.9A128.2,128.2,0,0,0-3,52.9a128.3,128.3,0,0,0,9.6,9.7,56.7,56.7,0,0,0,9-12.9,61.9,61.9,0,0,1,7.5,12.1A41.8,41.8,0,0,0,33.8,41.1C12.1,54.2-18.1,54.2-39.8,41.1ZM62,38c1.8-8.8-26.1-7.5-24.3,16.1.1,10.1,4.8,26.6,6.8,39.8C53.9,78,60.9,60.6,62,38ZM25.3,196.5c3-6.9,13.8-.8,23.3-10.9-3.1,16.3-9.2,25.2-17.7,28S22.8,202.3,25.3,196.5Z" transform="translate(259.2 253.1)" style="fill:#fff;fill-rule:evenodd"/><path d="M-135-207.8c-33.9-10.4-34-24.3-52.3-23.8s-48,15.7-47.5,47.7c3.2-6.9,7.2-12.1,13.6-12.2-11.2,18.6-4.9,34.4,5.7,49.4,3.1-15.2,12.1-27.4,31.8-34.4-8.3-2.8-16.8-3.9-27.2,3.7A34.4,34.4,0,0,1-191-192.1c-7.5-2.2-14.9-3.3-21.4,1,2-5,6.4-8.8,14.6-10.7-8.8-5.5-14.6-2.3-19.2,3.1,2.9-9.6,13.1-12.6,18.9-13.1,14.2-1.2,19,9.6,44.7,18.1,5-4.9,11.8-9.6,18.3-14.1" transform="translate(259.2 253.1)" style="fill:#522d24;fill-rule:evenodd"/></svg>