<svg id="Layer_1" data-name="Layer 1" xmlns="http://www.w3.org/2000/svg" viewBox="0 0 288.2 260.6"><title>Bear612a_2c</title><path d="M-.1,130.3l-2.1-1.6c-.3-.2-7.2-5.4-14.4-17.3A27.9,27.9,0,0,1-27.9,121l-11.6,4.7,7.5-10a11.1,11.1,0,0,0,1-8.8,20,20,0,0,0-4-7.5l-6.8-.8c-.5-.1-13.4-1.8-29.3-12.7A145.6,145.6,0,0,1-90,70.5l1.6,4.2-11.4-11c-.8-.8-20.3-19.6-26.3-28.8A82.2,82.2,0,0,1-138.3,6.4l-2.4,6.5L-142,5.5l-1.2,3,.6-6.4-.3-2c-3.7-21-.1-64.3,39.9-79.8a35.3,35.3,0,0,1-2.2-3.9,36.5,36.5,0,0,1-3.5-17.5c.5-8.7,4.6-20.7,21.4-28.6l1.2-.6h1.3a70.6,70.6,0,0,1,29.2,9l3.9-1.9c1.1-.5,27.2-12.6,51.6.3,24.5-12.9,50.5-.8,51.6-.3l3.8,1.8h.2a70.7,70.7,0,0,1,29.2-8.9h1.3l1.2.6c16.8,8,20.9,20,21.4,28.6a36.5,36.5,0,0,1-3.5,17.5,35.5,35.5,0,0,1-2.2,3.9C143-64.1,146.7-20.8,143,.1l-.3,2,.6,6.4L142,5.5l-1.3,7.4-2.4-6.5a82.3,82.3,0,0,1-12.1,28.5c-6.1,9.2-25.5,28-26.3,28.8l-11.4,11L90,70.5a145.5,145.5,0,0,1-19,15.4c-15.8,11-28.7,12.7-29.3,12.7l-6.8.8a20,20,0,0,0-4,7.5,11,11,0,0,0,1.1,8.8l6.8,9.7-11-4.4a27.9,27.9,0,0,1-11.4-9.7C9.2,123.3,2.4,128.5,2,128.7Zm-17.2-35,3.7,7.2A73.1,73.1,0,0,0-.1,121.3a73.3,73.3,0,0,0,13.6-19L17.3,95l2.7,7.7a19.7,19.7,0,0,0,3.7,6.4,20,20,0,0,1,.6-3.7c2.5-10.2,12.7-19.7,30.2-28.1l16.7-8L58.4,82.9l-4.3,4.6a80,80,0,0,0,13-7.3,138.8,138.8,0,0,0,18-14.6l-3.4-2.7c4.1-6.2,10.6-16.6,16.8-28.3L87,52.7l9.6-28.3L98,20.1l-2.9,6.8L97.4,4.4A98.1,98.1,0,0,1,78.3,26.7L66.9,36.1l5.9-13.5.5-1.2C68.5,28.8,62.2,35.3,54,38.6l-4,1.6-.7,5.8-3.8-14c-1.5,10.1-5,22.2-13.1,29.8l-10,9.4,4.2-13a46,46,0,0,0,1.2-4.5C20.1,57.2,6.8,64.4,3.3,74.7L.2,83.6l-3.5-8.7c-4-10-16.9-17.3-24.5-20.9.3,1.4.7,2.9,1.2,4.3l4.2,13-10-9.4C-40.4,54.2-43.9,42.2-45.4,32l-3.8,13.7-.6-5.1-4.3-2.1c-8.5-4.1-15-11.3-19.8-19.1l1.2,3.2,5.4,13.1-10.9-9.1A98.1,98.1,0,0,1-97.4,4.4l2.3,22.6L-98,20.1l1.4,4.3L-87,52.7-98.5,34.5c6.2,11.7,12.7,22.1,16.8,28.3l-3.4,2.7a138.7,138.7,0,0,0,18,14.6,80.1,80.1,0,0,0,13,7.3l-4.3-4.6L-71,69.3l16.7,8c17.5,8.4,27.7,17.9,30.2,28.1a20,20,0,0,1,.6,3.7,19.7,19.7,0,0,0,3.6-6.3ZM-35.6,43.2l4.6,1.7c1,.4,21.3,7.9,30.9,21.3,9.3-13.8,30.3-21,31.3-21.3l4.4-1.5c4.6-13.4,3.8-29,3.7-29.2L37.9-9.4v.3a22.9,22.9,0,0,1,.3-4.8l4.7-27.9,2.3,28.2c.3,3.8,2.3,9.9,4.3,16.4,2.8,8.7,5.8,18.3,6.6,26.9C74.9,17.3,80.2-17.7,80.2-18.1l7,.5a141.8,141.8,0,0,1-3.4,28.8A110.1,110.1,0,0,0,99.4-14.1l2.8-6.9c0-.8-.1-1.6-.1-2.4-1.2-16.9-9.1-34-9.2-34.1l3.5-1.9A187.9,187.9,0,0,0,77.7-89l-7.8-9.8c-23.1-14.9-51.3-16.7-51.7-16.8v-2.1C7.8-116.5,2-112.8,1.9-112.8L.1-111.6l-1.9-1.1a46.9,46.9,0,0,0-16.4-5v2.1h0c-.5,0-28.7,1.9-51.7,16.8L-77.7-89A188.5,188.5,0,0,0-96.4-59.5l3.5,1.9c-.1.2-8,17.3-9.2,34.1-.1.8-.1,1.6-.1,2.4l2.8,7a110.1,110.1,0,0,0,16,25.7,178.3,178.3,0,0,1-3.8-29.1l7-.7c.1.4,5.3,33.7,24.2,47.4.8-8.4,3.8-17.9,6.5-26.5,2.1-6.5,4-12.6,4.3-16.4l2.3-28.2,4.7,27.9A22.8,22.8,0,0,1-38-9.1v-.4l-1.5,23.6C-39.3,14.3-40.2,29.8-35.6,43.2ZM111.9,22.9l3.8,1c-.4,2.4-1.4,6.4-2.6,10.6l1.8-2.4,1-7.6a131.2,131.2,0,0,0,.9-14.3C115.4,14.5,113.7,18.7,111.9,22.9Zm-226.8,9.2,1.8,2.4c-1.1-4.2-2.1-8.2-2.6-10.6l3.8-1c-1.9-4.2-3.5-8.5-5-12.6a130.4,130.4,0,0,0,.9,14.3Zm2.3-48.9v-.1Zm225.1-.1v.1Zm2.4-24.8,5.5,15.5.2.7a54.3,54.3,0,0,0-8.4-26A91.3,91.3,0,0,1,114.9-41.6Zm-227.1-9.9a54.4,54.4,0,0,0-8.4,26l.2-.7,5.5-15.5A91.4,91.4,0,0,1-112.2-51.5Zm-15.2,5.9.6.2a55.8,55.8,0,0,1,4-7.5A43.7,43.7,0,0,0-127.4-45.6Zm250.2-7.2a55.7,55.7,0,0,1,4,7.5l.6-.2A43.7,43.7,0,0,0,122.8-52.9Zm-58.1-62A86.8,86.8,0,0,1,96.8-88.8a26.7,26.7,0,0,0,2.1-11.8c-.3-5.8-3.2-13.9-14.6-19.7A61.7,61.7,0,0,0,64.7-114.9Zm-148.9-5.4c-11.5,5.9-14.3,13.9-14.6,19.7h0a26.7,26.7,0,0,0,2.1,11.8,86.8,86.8,0,0,1,32.1-26.1A61.7,61.7,0,0,0-84.2-120.3Z" transform="translate(144.1 130.3)" style="fill:#fff"/><path d="M137.8-31.3c-3.6-18.9-15.4-29.7-20.6-34.1S99.8-75,99.8-75l-3.4-3.6c7.7-6.8,8.8-25.4,4.9-32.6s-12.4-14.3-16.6-14c-22,1.7-31,11.3-31,11.3L33-118.5l7.8-2.3s-12-3.1-21.2-2.3S.4-117.5.4-117.5H0s-10-4.7-19.2-5.5-21.2,2.3-21.2,2.3l7.8,2.3-20.7,4.7s-9-9.6-31-11.3c-4.2-.3-12.7,6.9-16.6,14s-2.7,25.7,4.9,32.6L-99.5-75s-12.1,5.1-17.3,9.6-17.1,15.2-20.6,34.1a79.6,79.6,0,0,0-1.1,22.3l3.9-7.8s-.4,13,2.3,24.4,9.4,25.8,18.7,35.9a75.7,75.7,0,0,0,11.6,10.1l-2.7-11.1S-90.9,62-80.3,70.6s27.7,17.2,27.7,17.2L-63.2,71.6S-12.2,95.1.2,94.9,63.5,71.6,63.5,71.6L53,87.8s17.1-8.5,27.7-17.2,24.2-28.1,24.2-28.1l-2.7,11.1a75.7,75.7,0,0,0,11.6-10.1c9.3-10.1,16-24.5,18.7-35.9s2.3-24.4,2.3-24.4l3.9,7.8A79.6,79.6,0,0,0,137.8-31.3Z" transform="translate(144.1 130.3)" style="fill:#fff"/><path d="M42.1-84.1S27-75.2,23.6-76.7l-2.8-1.1c-2-6-5.5-8.9-8-10.1,1.7-2.3,7-7.5,22.5-11.6,10.4,1.1,20.3,7.3,20.3,7.3-6.4-7.6-20.6-10.2-20.6-10.2S16.4-97.5.9-89.5H-.9c-15.5-8-34.2-12.8-34.2-12.8s-14.2,2.6-20.6,10.2c0,0,9.9-6.2,20.3-7.3,15.6,4.1,20.9,9.3,22.6,11.6-2.5,1.2-5.9,4.1-7.9,9.9l-3,1.2c-3.4,1.5-18.5-7.4-18.5-7.4a18.5,18.5,0,0,0-9.4,7.9,51.7,51.7,0,0,1,8.7-4.7c-.5,1.5-1.2,4.4.1,6.8a29.9,29.9,0,0,0-5.7,1.9s13.6-1.9,21.2-.5A28.6,28.6,0,0,0-37-59.1s6,20.3,5.6,34.8c-6.4,21.1-.5,46.6-.5,46.6s1.1-9.2,3.5-13.6c2.1,10.8-3,29.4-3,29.4s5.6,11.1,23.5,16.5c0,0-17.3-8.6-20.6-17.1,7.5-26.8.2-41.9.2-41.9S-31,8.1-31.6,9.9c-.8-11.5-1-18.4,2.2-26.2,2.7,5.6,9.1,19.7,9.6,28,.6,10.5-3.2,23.1-3.2,23.1A44.4,44.4,0,0,0,0,51c17.6-5.5,23.1-16.2,23.1-16.2s-3.9-12.5-3.2-23.1c.5-8.3,6.9-22.4,9.6-28,3.2,7.9,3,14.7,2.2,26.2C31,8.1,28.1-4.3,28.1-4.3s-7,15.1.2,41.9C25.1,46.1,7.7,54.6,7.7,54.6c17.9-5.4,23.5-16.5,23.5-16.5s-5.1-18.6-3-29.4c2.4,4.4,3.5,13.6,3.5,13.6s5.9-25.5-.5-46.6C31-38.8,37-59.1,37-59.1a28.6,28.6,0,0,0-9.7-13.7c7.6-1.3,21.2.5,21.2.5a29.9,29.9,0,0,0-5.7-1.9c1.3-2.4.6-5.3.1-6.8a51.6,51.6,0,0,1,8.7,4.7A18.5,18.5,0,0,0,42.1-84.1Zm-25,95.6a74.3,74.3,0,0,0,2.3,21.6C18.8,35,14.2,45.3,0,45.3S-18.8,35-19.4,33.2a74.3,74.3,0,0,0,2.3-21.6c-.4-6.1-2.7-15.8-4.6-22.9a58,58,0,0,1,8,20.7,84.2,84.2,0,0,1,.5,24.2s2.8,6.1,13.2,5.7,13.2-5.7,13.2-5.7a84.2,84.2,0,0,1,.5-24.2,58,58,0,0,1,8.1-20.9C19.8-4.4,17.4,5.3,17.1,11.5ZM33.1-59.7C32.2-48,27.4-41,25.8-38.8,19.4-48.6,5-47.9,0-47.9s-19.4-.8-25.8,9c-1.7-2.2-6.4-9.3-7.3-20.9,0,0,3.2-10.7,11.6-14.5a33,33,0,0,0-.4,3.3c1.7,1.2,8,3.6,12,2,5.9-2.4,5.5-10.1,5.5-10.1s3.1,9.2-4.8,12.3A12.8,12.8,0,0,1-21-67.9s4,8.7,8.3,10.9C-3.2-57.1-.4-53.6.1-52.8v.2H.1v-.2c.5-.8,3.2-4.3,12.7-4.2,4.3-2.3,8.3-10.9,8.3-10.9A12.8,12.8,0,0,1,9.5-66.9c-7.9-3-4.8-12.3-4.8-12.3S4.3-71.4,10.2-69c4,1.7,10.2-.8,12-2-.1-1.1-.2-2.2-.4-3.2C30-70.2,33.1-59.7,33.1-59.7Z" transform="translate(144.1 130.3)" style="fill:#522d24"/><path d="M57.8-103.7c-9.4-7.1-24.5-8-27.9-8l8.3-2.1S19.2-118.2,4.2-105c0,0,13.2-6.7,21.8-7.6,0,0-7,2.6-10.8,5.7C36.8-113.4,57.8-103.7,57.8-103.7Z" transform="translate(144.1 130.3)" style="fill:#522d24"/><path d="M86.1,6.8S102.7-11.7,98.9-41c0,0-1.2,20.9-8,31a82.3,82.3,0,0,0,.3-13.2c-.7-11.3-4-20.4-9.6-26.8,3.7.7,8.4,4.4,8.4,4.4s-7.9-18-32.2-25.7c0,0,17.4,8.6,23.1,18-.8-.3-8.2-2.4-12.5-3.5C96.6-42.2,86.1,6.8,86.1,6.8Z" transform="translate(144.1 130.3)" style="fill:#522d24"/><path d="M54.6-6.8C58.8-21.6,56-37.1,52.5-44c3.7,2,8.1,7.1,8.1,7.1S54.1-60.3,35.3-68.7c0,0,14.4,11.5,18.2,22.5a42.1,42.1,0,0,0-6.3-4.5A83.8,83.8,0,0,1,54.6-6.8Z" transform="translate(144.1 130.3)" style="fill:#522d24"/><path d="M65.9-108.2s9-5.3,17.7-5.3c14.1,9.9,5.7,25.3,5.7,25.3S76-104.2,65.9-108.2Z" transform="translate(144.1 130.3)" style="fill:#522d24"/><path d="M-21.8-36.9a21.9,21.9,0,0,0,4.7,16.7S-16-30.4-13.6-36C-12.4-38.7-21-42.5-21.8-36.9Z" transform="translate(144.1 130.3)" style="fill:#fff"/><path d="M22.1-36.9a21.9,21.9,0,0,1-4.7,16.7S16.2-30.4,13.8-36C12.7-38.7,21.3-42.5,22.1-36.9Z" transform="translate(144.1 130.3)" style="fill:#fff"/><path d="M13.2-37.4c-.2-3.2-4.1-2.9-4.5-.8a7.3,7.3,0,0,0,0,1.5c-.2-1.2-.8-2.6-2.2-2.6s-1.8,1.8-1.9,2.8C4.3-37.4,3.5-39,2-39S.2-37.6.1-36.6C0-37.6-.3-39-1.8-39S-4-37.4-4.3-36.3c-.1-1.1-.5-2.8-1.9-2.8s-1.9,1.4-2.2,2.6a7.3,7.3,0,0,0,0-1.5c-.4-2.1-4.3-2.4-4.5.8a9.2,9.2,0,0,0,.6,3.2A65.7,65.7,0,0,1,.1-35.4a65.7,65.7,0,0,1,12.4,1.3A9.2,9.2,0,0,0,13.2-37.4Z" transform="translate(144.1 130.3)" style="fill:#fff"/><path d="M-8.1,26.7s-4.5-2.1-7.5-8.6c-3,9.9,3.5,15.6,3.5,15.6a3.6,3.6,0,0,0,4.1-1.8A6.5,6.5,0,0,0-8.1,26.7Z" transform="translate(144.1 130.3)" style="fill:#fff"/><path d="M-11.2,34.5h-1.4a16,16,0,0,1-3.7-16.4l.5-1.8.8,1.7c2.8,6.2,7.1,8.3,7.2,8.3h.2v.2a7.2,7.2,0,0,1,0,5.8A4,4,0,0,1-11.2,34.5Zm-.6-1.5h.6a2.6,2.6,0,0,0,2.5-1.5,5.7,5.7,0,0,0,.1-4.4,17.8,17.8,0,0,1-6.7-7.1A14.5,14.5,0,0,0-11.8,33.1Z" transform="translate(144.1 130.3)" style="fill:#522d24"/><path d="M8.2,26.7s4.5-2.1,7.5-8.6c3,9.9-3.5,15.6-3.5,15.6a3.6,3.6,0,0,1-4.1-1.8A6.5,6.5,0,0,1,8.2,26.7Z" transform="translate(144.1 130.3)" style="fill:#fff"/><path d="M11.3,34.5a4,4,0,0,1-3.8-2.3,7.2,7.2,0,0,1,0-5.8v-.2h.2S12.2,24,15,17.8l.8-1.7.5,1.8a16,16,0,0,1-3.7,16.4H11.3ZM8.7,27.2a5.7,5.7,0,0,0,.1,4.4,2.6,2.6,0,0,0,2.5,1.5h.6a14.2,14.2,0,0,0,3.6-13A17.8,17.8,0,0,1,8.7,27.2Z" transform="translate(144.1 130.3)" style="fill:#522d24"/><path d="M12.5-3.3C7.6-9.3.8-4.6.8-4.6L0,24.4-.7-4.6S-7.5-9.3-12.5-3.3c2,5,5.7,14.1,3.1,22.6,0,0,1.2,8.7,9.4,8.7s9.3-8.7,9.3-8.7C6.8,10.8,10.5,1.6,12.5-3.3Z" transform="translate(144.1 130.3)" style="fill:#fff"/><path d="M-57.8-103.7c9.4-7.1,24.5-8,27.9-8l-8.3-2.1s19.1-4.4,34.1,8.8c0,0-13.2-6.7-21.8-7.6,0,0,7,2.6,10.8,5.7C-36.8-113.4-57.8-103.7-57.8-103.7Z" transform="translate(144.1 130.3)" style="fill:#522d24"/><path d="M-86.1,6.8S-102.7-11.7-98.9-41c0,0,1.2,20.9,8,31a82.3,82.3,0,0,1-.3-13.2c.7-11.3,4-20.4,9.6-26.8-3.7.7-8.4,4.4-8.4,4.4s7.9-18,32.2-25.7c0,0-17.4,8.6-23.1,18,.8-.3,8.2-2.4,12.5-3.5C-96.6-42.2-86.1,6.8-86.1,6.8Z" transform="translate(144.1 130.3)" style="fill:#522d24"/><path d="M-54.6-6.8C-58.8-21.6-56-37.1-52.5-44c-3.7,2-8.1,7.1-8.1,7.1s6.5-23.5,25.3-31.9c0,0-14.4,11.5-18.2,22.5a42.1,42.1,0,0,1,6.3-4.5A83.8,83.8,0,0,0-54.6-6.8Z" transform="translate(144.1 130.3)" style="fill:#522d24"/><path d="M7.6,32.2c-.1,2.1-2.4,1.9-2.6.5a5.5,5.5,0,0,1,0-1c-.1.8-.4,1.7-1.2,1.7s-1-1.2-1.1-1.9S2,33.3,1.2,33.3s-1-1-1.1-1.6S-.2,33.3-1,33.3s-1.3-1.1-1.5-1.8-.3,1.9-1.1,1.9-1.1-.9-1.2-1.7a5.5,5.5,0,0,1,0,1c-.2,1.4-2.5,1.6-2.6-.5A6.9,6.9,0,0,1-7,30.1a33.1,33.1,0,0,0,7.1.9,33.1,33.1,0,0,0,7.1-.9A6.9,6.9,0,0,1,7.6,32.2Z" transform="translate(144.1 130.3)" style="fill:#fff"/><path d="M-65.9-108.2s-9-5.3-17.7-5.3c-14.1,9.9-5.7,25.3-5.7,25.3S-76-104.2-65.9-108.2Z" transform="translate(144.1 130.3)" style="fill:#522d24"/><path d="M100.3-77l-1.6-2.7a30.9,30.9,0,0,0,3.3-5.5,33,33,0,0,0,3.2-15.8c-.5-7.7-4.2-18.4-19.4-25.7l-.3-.2h-.4a65.5,65.5,0,0,0-31.7,11A110.5,110.5,0,0,0,42.2-119l7.9-1S23.6-132.5,0-118.8c-23.6-13.7-50.1-1.2-50.1-1.2l7.9,1a110.5,110.5,0,0,0-11.2,3.2,65.5,65.5,0,0,0-31.7-11h-.4l-.3.2c-15.2,7.2-19,17.9-19.4,25.7A33,33,0,0,0-102-85.1a30.9,30.9,0,0,0,3.3,5.5l-1.6,2.7c-37.2,13.5-43.3,53.3-39.2,76.5l3.2-8.7a74.6,74.6,0,0,0,.4,7.9c1.3,12.5,6.2,24.4,12.7,34.2s25.9,28.2,25.9,28.2-1.6-4.2-3.2-8.7c7.3,11,17.8,21.1,31.5,30.5,15.3,10.6,27.7,12.1,27.7,12.1s-6.7-6.2-14.5-14.7c40.1,19.3,26.7,37.3,26.7,37.3a24.3,24.3,0,0,0,12.6-13.7c8,15.4,16.6,21.9,16.6,21.9s8.7-6.5,16.7-22a24.3,24.3,0,0,0,12.6,13.9s-13.4-18,26.7-37.3c-7.8,8.4-14.5,14.7-14.5,14.7S53.7,93.6,69.1,83c13.7-9.5,24.2-19.5,31.5-30.5-1.6,4.5-3.2,8.7-3.2,8.7s19.9-19.3,25.9-28.2,11.4-21.6,12.7-34.2a74.6,74.6,0,0,0,.4-7.9l3.2,8.7C143.6-23.7,137.5-63.5,100.3-77ZM84.9-123.9c13.7,6.6,17.1,16.2,17.5,23.1a30.4,30.4,0,0,1-5.3,18.6,84.4,84.4,0,0,0-40.4-32.3A64.5,64.5,0,0,1,84.9-123.9ZM-18.5-119l-15.3-1.8a53.1,53.1,0,0,1,33.8,5s12.2-8,33.8-5L18.5-119S68-116.1,91.3-83.5a77.7,77.7,0,0,0-10.8-7.7s20.7,25.9,26.2,48.8l-.4-.5L96.1-59.1s8.2,17.6,9.5,35.4A57,57,0,0,1,101,4l1.7-16.8S93.7,9.2,76,24c7.7-17.7,7.7-41.6,7.7-41.6s-6.2,43-31,53c1.1-15.1-10.1-38.1-11-48.7-1.9,11.1,8,27.2,6.2,41.4-.4-1.4-5.1-14.1-5.1-14.1s2,31.4-12.9,45.4a63.2,63.2,0,0,0,2.3-11.1S5.7,57.1,0,73.6C-6.4,57.6-32.3,48.2-32.3,48.2a63.2,63.2,0,0,0,2.3,11.1c-14.9-14-12.9-45.4-12.9-45.4s-4.7,12.7-5.1,14.1c-1.8-14.2,8.1-30.3,6.2-41.4-.9,10.6-12,33.7-11,48.7-24.9-12-31-53-31-53S-82.8,7.6-76,24c-17.7-14.7-26.7-36.8-26.7-36.8L-101,4a57,57,0,0,1-4.6-27.8c1.3-17.7,9.5-35.4,9.5-35.4l-10.2,16.2-.4.5c5.5-22.8,26.2-48.8,26.2-48.8a77.7,77.7,0,0,0-10.8,7.7C-68-116.1-18.5-119-18.5-119Zm-83.9,18.2c.4-6.9,3.8-16.5,17.5-23.1a64.5,64.5,0,0,1,28.2,9.4A84.4,84.4,0,0,0-97.1-82.2,30.4,30.4,0,0,1-102.4-100.8Zm-9.9,124.1c1,6,6.3,23.5,6.5,24.9-5.6-5.1-10.5-11.9-14.9-18.2-22.1-31.5-6.7-75.4-6.7-75.4-4.2,8.4-9.2,28.1-10,30,1-10.8.2-45.8,39.3-57.2-17,26.2-15,48.9-15,48.9l4-8.2c-.1,1.7-.2,3.7-.2,6-.2,19.9,5.5,40.1,9.3,51.4C-116.5-.7-117.1-25-117.1-25s-4.7,13.4-5.7,17.6c-.5-3.7-8.7-35.5,20.3-60.4C-149.1-38.8-119.4,25-119.4,25s-2.9-21.6,1.4-35.7c1.7,24.2,22.3,58.5,33.4,75.4C-104.5,44.6-112.2,23.4-112.2,23.4ZM127.4-45.4S142.8-1.4,120.7,30c-4.4,6.3-9.4,13.1-14.9,18.2.2-1.3,5.5-18.8,6.5-24.9,0,0-7.8,21.3-27.6,41.4C95.7,47.9,116.3,13.5,118-10.7c4.3,14.1,1.4,35.7,1.4,35.7s29.7-63.8-16.8-92.9c29,24.9,20.8,56.8,20.3,60.4-1-4.1-5.7-17.6-5.7-17.6S116.5-.7,99.9,25.5c3.9-11.3,9.6-31.5,9.3-51.4,0-2.3-.1-4.3-.2-6l4,8.2s2-22.8-15-48.9c39.1,11.4,38.3,46.3,39.3,57.2C136.6-17.3,131.6-37,127.4-45.4Z" transform="translate(144.1 130.3)" style="fill:#522d24"/><path d="M19.9,83.2C11.4,98.7,1.8,110.5.1,112c-1.8-1.5-11.3-13.3-19.8-28.8C-12.8,107.6.1,117.3.1,117.3S13,107.6,19.9,83.2Z" transform="translate(144.1 130.3)" style="fill:#fff"/><path d="M-25,96.2C-38.2,75.9-66.7,64.9-66.7,64.9s2.3,11.2,7.3,19.2C-79.1,71.7-90.1,37.7-90.1,37.7s10.7,24,22.4,34a66.2,66.2,0,0,1-2.8-12.4S-36.7,72.7-25,96.2Z" transform="translate(144.1 130.3)" style="fill:#fff"/><path d="M25.2,96.2C38.4,75.9,66.9,64.9,66.9,64.9s-2.3,11.2-7.3,19.2C79.3,71.7,90.3,37.7,90.3,37.7s-10.7,24-22.4,34a66.2,66.2,0,0,0,2.8-12.4S36.9,72.7,25.2,96.2Z" transform="translate(144.1 130.3)" style="fill:#fff"/><path d="M-45.1,30.1s-.7,26.3,19.5,35.1a59.2,59.2,0,0,1-2.9-11.8c3.1,1.4,15.7,6.4,22.8,15.7A55.3,55.3,0,0,0-26.2,56.6c1.3,7.9,4.6,12.1,4.6,12.1s-19.8-5.2-23.7-29.7a17.5,17.5,0,0,0-1.3,5.2C-47.4,35.7-45.2,32.7-45.1,30.1Z" transform="translate(144.1 130.3)" style="fill:#fff"/><path d="M44.5,30.1S45.2,56.3,25,65.2a59.2,59.2,0,0,0,2.9-11.8c-3.1,1.4-15.7,6.4-22.8,15.7A55.3,55.3,0,0,1,25.6,56.6C24.3,64.4,21,68.6,21,68.6s19.8-5.2,23.7-29.7A17.5,17.5,0,0,1,46,44.1C46.8,35.7,44.6,32.7,44.5,30.1Z" transform="translate(144.1 130.3)" style="fill:#fff"/><path d="M.2-93.3c-1.4-1.1-10.2-7.6-21.5-8.7C-7-96.6-.6-87.1-.6-87.1H.9S7.3-96.6,21.6-102C10.4-100.9,1.6-94.4.2-93.3Z" transform="translate(144.1 130.3)" style="fill:#522d24"/><path d="M.1-107.5a31.7,31.7,0,0,0-14.9-6C-4.8-109.8.1-95.4.1-95.4S5-109.8,15-113.6A31.7,31.7,0,0,0,.1-107.5Z" transform="translate(144.1 130.3)" style="fill:#522d24"/></svg>