<svg xmlns="http://www.w3.org/2000/svg" viewBox="0 0 389.95 301.56"><defs><style>.a{fill:#231f20;}</style></defs><title>Bulldog Face 1-color</title><path class="a" d="M290,206.44c1.28-.15,1.21-.1,1.52-1.14.19-.65-.41-3.82-1.07-4.13-1.8-.85-6.25,3.3-6.6,4.8a45.51,45.51,0,0,1,6.16.47c.47-.06-1-.15,0,0Zm-64.85-63.3c2.79-.19,8,.44,9.92-1.91a16,16,0,0,0-7.4-.86c-2.13.19-5.73.32-7.47,1.48,1.06,1.3,3.47,1.14,5,1.29,2.7-.19-.76-.08,0,0Zm55.56,56.8a20.11,20.11,0,0,0-4.74.9c-.81.78-1.5,4.33-.45,4.94,2.71,1.55,9.88-5.56,5.19-5.84,0,0,.34,0,0,0Zm35.82,11.37c2.77,0,2.77-2.69,2.4-5.13-.15-1-.52-3.05-1.5-3.67-1.2-.76-1.43.32-2.48,1.32s-6.07,3.89-6.1,5.48c0,1.76,6.4,1.91,7.68,2ZM183,186.39c-.08-2.94-1.79-8.73-5.93-8.28-2.91.32-2.5,9.47-2.45,11.76a41.35,41.35,0,0,0,.67,7c.42,2.15,1.21,1.84,2.88.52,3.22-2.54,4.64-7.06,4.84-11,0-1.71-.19,3.65,0,0Zm142.59,11.48c-1.49,0-4.35,0-4.71,1.47-.17.66.76,3.28.89,4,.24,1.33.43,2.68.58,4,.39,3.62-.15,7.83,5,6,3.66-1.3,6.69-6.11,7-9.89.32-4.46-5.15-5.61-8.74-5.58-1.36,0,2.13,0,0,0ZM235.8,211.37c.21,4.46,4.48,4.79,7.64,2.53,4-2.86,5-8.84,6.05-13.3.63-2.66.75-2.82-1.9-3.77s-3.46.41-5.28,2.35c-2.91,3.11-6.49,7.72-6.51,12.19,0,.13,0-1.37,0,0Zm64.37-2.91c4.35,0,9.11-1.62,11.54-5.47.91-1.44,1.93-4.27,1.13-6s-3.93-1.88-5.72-1.88c-4.14,0-8.67,1.6-11.11,5.12a8.4,8.4,0,0,0-1.5,5.64c.32,2.71,3.29,2.72,5.66,2.6.44,0-1.58.08,0,0ZM48.25,108c-3.14,0-4.16-.69-2.95,2.62A90,90,0,0,0,49,119.54c.86,1.75,2.08,5,3.91,5.86,2,.94,4.75-.58,6.42-1.67,3.59-2.35,5.83-7.19,4.65-11.47C62.73,107.63,52.08,108,48.25,108ZM77.13,228c.77-.23-2.28-19-2.61-21-.53-3.1-3.89-4.19-6.5-5.65-1.73-1-3.49-1.87-5.27-2.74-1.38-.67-1.64-1.24-2.32-.15-1.23,2,.21,7.45.65,9.48a40.89,40.89,0,0,0,3.45,9.82,32.14,32.14,0,0,0,5.55,7.88c.82.84,5.81,5.71,6.94,4.91.34-.24.12-2.38.12-2.6,0,0,0,.75,0,0Zm193.74-28.4a25.23,25.23,0,0,0-3.52-11.18,23.22,23.22,0,0,0-4.13-5c-2.16-2-2.53-2.11-3,.87a61.66,61.66,0,0,1-4,13.56c-.54,1.31-5.65,11.69-4.94,12.26s4.68-.77,5.63-.94a45.91,45.91,0,0,1,7.77-.91c2.69,0,3.56.78,4.84-1.8a15.77,15.77,0,0,0,1.4-6.82c0-.49,0,3.18,0,0Zm-54-8.88c-.45,1.63,4.16,5.06,5.26,6a45.69,45.69,0,0,0,8.09,5.15c.92.47,2.2,1.44,3.2,1.17s2.32-2.32,3-3a26.19,26.19,0,0,0,3-3.57c1.23-1.84,1.26-2.25-.13-3.95-4.11-5-8.8-9.9-14.31-13.37-5.3-3.34-7.72,8.12-8.1,11.63-.14.5.28-2.61,0,0ZM207,138.15c.67-1.25-4.15-3.12-2.43-5.91.64-1,2.41-1.44,2-2.66-.26-.8-3.92-1.8-4.82-2.21-7.29-3.33-15.75-8.59-24.19-7.06-3.73.67-3,6.16-2.2,9,.34,1.18.85,3.43,2,4s4.13,0,5.54,0c8.33.06,16.14,2.62,24.1,4.73,0-.07-.39-.1,0,0ZM343.12,210c0,.53,8.39-1.31,9.23-1.72a10.52,10.52,0,0,0,5.52-6.06c2.58-7.27-.71-15.9-4.42-22.16-.44-.75-1.77-3.75-2.71-3.66-.79.07-1,4.25-1.12,5a56.4,56.4,0,0,1-3.31,11.69,109.09,109.09,0,0,1-5.51,11.3c-.46.86-2.76,3.88-2.5,4.65.4,1.19,3.39.82,4.82.91,0,0-1.38-.09,0,0ZM102.53,323.13c.75,0-1,8.93-.16,9.49s7.08-2.85,8.2-3.29a63.33,63.33,0,0,0,7.26-3.13c4.54-2.5,9-7,4.69-12-3.37-3.92-9.76-6.21-14.87-5.72-3.39.32-4.29,1.08-4.58,4.23-.32,3.47-.39,7-.52,10.44,0,0,.11-2.76,0,0Zm105.28.15c-.75-15.19-26.58-6.87-23.66,2.23.89,2.78,4.71,4.84,6.92,6.39,3,2.11,6.06,4.14,9.24,6,.79.46,2.47,1.87,3.25,1.49s1.39-4.06,1.67-4.9c1.17-3.63,2.56-7.33,2.59-11.19,0-.53,0,2.22,0,0Zm-9.58-106.09c-.21-3.77-3.41-6.76-5.71-9.61-1.17-1.45-2.4-2.87-3.7-4.21-1-1-2.76-3.4-4.13-3.79s-1.29-.14-2.62,1.17a33.89,33.89,0,0,0-3.32,3.83c-2.48,3.31-2.08,5.33-1.4,9.33,1,6.06,3.06,13.31,10.11,14.35,6.83,1,10.64-4.88,10.77-11.07,0-.44,0,2.06,0,0Zm-137.7,49.3c-.85-6.9-4.18-15.35-12.79-14.09-4,.59-7.39,3.43-10.2,6.19-1,.94-9,7.79-8.51,9.1.42,1.08,8,2.14,9.27,2.46A69.24,69.24,0,0,0,47.18,272a27.76,27.76,0,0,0,8.83-.22c1.11-.23,3.3-.52,4.08-1.45.6-.72.37-2.94.44-3.81-.13-1.1-.1,1.29,0,0ZM40.42,180.06c0-3.28-.82-7-3.42-9.29-2.78-2.4-7-1.61-10.22-.86a112.61,112.61,0,0,0-11.11,3.47c-.71.24-5.25,1.2-5.61,1.91s1.09,1.88,1.68,2.43c2.65,2.48,5.59,4.62,8.23,7.12s5.18,5,8.62,6.11c7.35,2.29,12-4.08,11.85-10.89,0-.41,0,2.07,0,0ZM222.19,147.2c-.36,1.44,17.21,5.2,19,5.45,7.62,1.08,14-.16,21.08-2.91,6.8-2.64,13.21-3.88,20.5-2.66a91.65,91.65,0,0,1,10.34,2.66c2.86.83,7,2.91,10,2.58-1.65-6.64-9.32-6.46-14.25-8.46-3.47-1.41-6.54-3.56-10.22-4.44a39.14,39.14,0,0,0-12.51-.82c-7.45.7-12,7.26-19.2,8.82-8,1.75-16.57-.52-24.72-.23,0,0,.8,0,0,0Zm-9.47,39.23c-.6-8.14-8.48-11.11-15.88-10.53-8.51.66-11.36,7.45-9.4,15.27a25.42,25.42,0,0,0,4.72,9.35,26.2,26.2,0,0,0,4,4.2c1.89,1.54,1.9,1.9,3.35.31,4.7-5.17,13.28-10.81,13.17-18.61,0-.28,0,2.16,0,0Zm-9.53,29.41c0,6.81,9.88,11.72,15.91,11.64,7.9-.1,12.28-7.08,12.61-14.4.19-4.27-3.88-7.73-6.94-10.28a60,60,0,0,0-5-3.68c-1.52-1-2.58-2.37-4.19-1.6-3,1.42-6.69,5.44-8.77,8a15.78,15.78,0,0,0-3.64,10.32c0,.47-.09-4.71,0,0Zm7-163.31c-7,.13-19.26,1.45-21.76,9.56-.53,1.71-.66,2.46.71,3.16,1.82.92,5.14.76,7.17,1.1,4.55.78,9.07,1.74,13.52,2.92q3.18.84,6.32,1.84c.74.24,5.09,2.22,5.63,1.85,1.45-1-2.86-7.66,1.68-6.37,3.23.91,3.6,6.08,6.18,7.91,1.21.85,2.9.73,4.24,1.44,1.53.82,3.25,3.06,5.18,2.39-2.3-2.74-4.09-4.49-5.41-8s-2.38-7.34-4.53-10.45c-4.2-6.07-12.07-7.23-18.94-7.38-3.79.07,3.71.08,0,0ZM298.67,299c19-2.53,47.1-2.91,57.74-22a32.32,32.32,0,0,0,3.7-11.84c.35-2.88-.26-2.3-2.91-2.37a56.56,56.56,0,0,1-8.27-1c-2-.36-4.68-1.63-6.13-.21-1.69,1.67-2.75,5.09-4.12,7.13a66.12,66.12,0,0,1-10.09,11.73,81.75,81.75,0,0,1-13.81,10.2c-2.47,1.47-5,2.82-7.59,4.06s-6.4,2.19-8.53,4.35c.43-.06.87-.88,0,0Zm56.92-63.07c-8.85-6.66-17.61-12.42-28.16-16.12-11.22-3.93-22.86-5.35-34.66-6.12-13-.85-26.56-1.42-39.29,2s-22.21,11.6-32.47,19.17c-5.36,4-11.18,7.59-17.73,9.12a19.37,19.37,0,0,1-10.18,0c-3.62-1.13-6.57-3.7-10.06-5.07,3.86,11.83,6.51,23.5,7,36a85.73,85.73,0,0,1-1.14,17.95,55.8,55.8,0,0,1-2.17,8.56c-.46,1.32-1.3,2.7-1.63,4-.43,1.72-.67,1.05.91,1.46,2.66.69,6.17.28,8.89.32,3.3,0,6.6.09,9.9.07,6.5,0,13-.37,19.46-1a163.7,163.7,0,0,0,37.11-7.41,97.89,97.89,0,0,0,19.09-8.65,57,57,0,0,0,7.84-5.56c2.35-2,4.35-4.61,7-6.19-.45,8-7.21,14.7-12.46,20.06a75.46,75.46,0,0,0,33.58-16,47.21,47.21,0,0,0,10.48-12.71,45.9,45.9,0,0,0,3.4-7.71c.25-.73,1.51-3.43,1.16-4.13s-2.07-.43-2.74-.53c-5.88-.88-10.9-4.28-16.14-6.85-5.64-2.77-11.38-3.29-17.58-2.8-13.64,1.09-24.84,7.42-37.47,11.85.87-4.1,21.78-13,20.84-15.21-.42-1-6.35-.9-7.5-.94-2.78-.1-5.57,0-8.36.14-5.53.27-11.22.93-16.73.22.68-1,3.47-1.48,4.62-1.87,2-.7,4.12-1.35,6.2-1.95a109.45,109.45,0,0,1,13-2.87,105.84,105.84,0,0,1,26.23-.74c17.79,1.66,33.81,9.68,51.11,13.43,8.06,1.75,17.33,2.87,25.43.7s10.48-8.21,8.88-16-7.21-14.13-13.12-19.29c-1.81-1.59-6.06-5.47-8.69-5.33-1.3.07-3.41,1.55-4.71,1.93a37.44,37.44,0,0,1-7,1.25,68.75,68.75,0,0,1-7,.25c-2,0-5-.62-6.89.35s-2,1.83-.35,2.82a61.82,61.82,0,0,0,6.28,2.82c7.54,3.43,14.27,7.77,15.82,16.47-.43-.32-.11-.59,0,0ZM125.43,196.2c-.14-1.44,1.44-3.38,2.14-4.61q1.75-3.07,3.76-6a83.84,83.84,0,0,1,8.52-10.43,93.83,93.83,0,0,1,10.49-9.36c1.66-1.28,4.44-2.53,5.7-4.16.5-.65,2.18-5.51,1.78-6.06-.83-1.15-14.23,6.67-15.65,7.51a125.57,125.57,0,0,0-15.59,11,172.88,172.88,0,0,0-25.73,26.5c-15,19-25,47.27-13.15,70.41,5.69,11.1,15.77,20.31,25.3,28.12s20.78,13.77,33.33,14.79c11.13.91,24-.68,31.55-9.87s7.26-22.63,6.22-33.95c-2.47-27-13.19-52.52-14-79.74a101.81,101.81,0,0,1,1.21-20.13c.25-1.47.54-2.93.89-4.38s1.54-3.62,1.42-4.92c-.19-1.92-2.35-1.93.3-3.28,10.95-5.55,26-.81,36.15,4.4,11.4,5.86,20.64,14.55,29.66,23.49,2.79,2.77,9,9.1,13.09,5.19s2.17-10.76,4.9-15.21c.72-1.18.84-1.51,1.89-1.23s3.15,2.93,4,3.71a40.67,40.67,0,0,1,6,6.91c1.52,2.28,2.66,4.76,4,7.15,1.74,3.18,2.13,4.62,5.86,5.09a35.86,35.86,0,0,0,18.4-2.5,30.83,30.83,0,0,0,6.38-3.59,28,28,0,0,0,3.18-2.74c.77-.77,1.92-2.94,2.81-3.29,1.87-.73,2.22,2.57,3.23,3.92,1.71,2.29,4.82,3.45,7.47,4.2a47.57,47.57,0,0,0,10,1.42c3,.19,5.54,1.1,7-2.06,4.88-10.75-9.33-22.93-17.09-27.9a56,56,0,0,0-7.66-4.13c-1.11-.49-6.51-3.19-7.49-2.37s.94,5.38,1.19,6.36c.58,2.22,2.31,7.37.42,9.41s-10.05-4.63-12-5.88c-5.25-3.32-10.45-4.58-16.39-6.06a16.11,16.11,0,0,1-6.87-3,7.24,7.24,0,0,1-2.37-3.2c-.18-.6.22-3.28.11-3.39-.42-.43-5.3,1.36-6,1.52-2.36.57-4.74,1-7.13,1.46-4.69.8-9.55.88-14.19,1.82,2,3,7.31,3.29,8.79,6.28-2.12.71-6.31-1.09-8.4-1.73a77,77,0,0,1-8.83-3.35c-5.49-2.45-10.74-5.42-16-8.27-10.53-5.67-21.68-11.13-33.95-10.6-12.69.55-19,11.7-22.95,22.44a135.37,135.37,0,0,0-4.89,17.53c-.72,3.18-1.4,6.37-2.1,9.56-.41,1.85-.9,6.21-2.77,7.26-.6-1.49,0-3.82.14-5.43.16-2.5.31-5,.5-7.5a120.8,120.8,0,0,1,1.93-14c-5.9,2.34-11.35,7.08-15.75,11.54-4.69,4.75-8,10.64-12.67,15.32,0-.34.75-.75,0,0Zm127-83.14c.34-5.46-4-8.1-5.3-12.89,4.87,2.28,8.79,8,11.2,12.6a44.5,44.5,0,0,1,3.36,8.58c.45,1.61.82,3.23,1.12,4.87.22,1.2.05,3.47.82,4.47,1.48,1.94,6.75,2.59,8.95,3.07a59.61,59.61,0,0,0,10.36,1.36c5,.21,13.64.53,16.86-4.36s-3.1-10.92-6.68-13.57A66.5,66.5,0,0,0,276,107.93c-3.1-1.09-5.76-.4-8.85-.92-4.5-.76.35-1.72,1.38-2.53,1.27-1,.56-1.19-.7-2.31s-2.28-1.93-3.44-2.85q-4-3.16-8.3-5.92C233,78.55,205.21,71.57,178,69.81a204.25,204.25,0,0,0-20.55-.28q-5.08.18-10.14.6c-1.39.12-9.56.07-10.18,1.16-.71,1.24,3.4,4.27,4.2,5a31,31,0,0,1,3.08,2.85c1.22,1.38,1.89,1.7.45,2.46-2,1.09-5.62-.58-7.21-1.79-2.28-1.75-4-4.37-5.78-6.58-4.09-5.07-8.39-10.07-12.8-14.88s-9.44-7.93-16.06-8.53c-6-.54-12.9.28-17.59,4.37-4.39,3.82-6,9.89-8.87,14.77a17.15,17.15,0,0,1-5.29,6c-1.13.72-5.2,2.91-5.21,1s3.26-3.37-.11-3.25S59.08,74,55.72,74.29a90.07,90.07,0,0,0-9,1.07c-3.34.66-4.87.56-3.35,4.16,2.35,5.57,7.86,8.75,13.37,10.52,12.14,3.9,26.73,3,37.66-3.88,4.41-2.77,8.55-6.57,10.49-11.51.56-1.43,4.83-13,7.51-9.09,1.12,1.64-.53,5.1-1.16,6.62-.53,1.3-1,1.87-.48,2.95.68,1.37,2.41,2,3.06,3.72.35.91.87,7.26-1.71,6.4-.49-.16-.64-2.19-.86-2.71-.54-1.27-1.38-2.74-3-2.64-2.41.16-4.89,4.42-6.32,6-1.93,2.12-4.24,3.8-6.27,5.8-2.47,2.44-.93,4.51-.38,7.67a26.9,26.9,0,0,1,.25,10.13c-.31,1.43-2.14,6.56-4.47,5.93-.57-.15-.73-1.44-1.18-2-.63-.85-2.57-1.43-2.79-2.49-.35-1.64,2.37-4.28,2.76-6.07.9-4.11-2.31-1.79-4.27-.43C80.26,108.13,76,113.91,72,119a128,128,0,0,0-10.62,16.33c-6.26,11.37-15.11,24.08-10.14,37.49,2.13,5.74,5.87,10.92,9.93,15.45,1.72,1.91,9.8,11.86,12.78,9.79,1.3-.9,1.26-7.06,1.49-8.56.31-2,.39-6.23,2.21-7.59,1.18,2.11.51,6.57.63,9,.17,3.45.31,6.9.53,10.35.21,3.29.53,6.58,1,9.84.19,1.26.9,9.15,2.07,9.55,1.39.47,7.46-11.73,8.24-13a170.41,170.41,0,0,1,10.14-14.39,137.11,137.11,0,0,1,23.35-23.67c9-7,18.5-12.82,26.06-21.62a85.41,85.41,0,0,0,9.65-13.83c1.06-1.88,2.7-4.39,1.77-6.56s-3.69-2.56-4.18-5.08c1.89,0,7.58,3.83,5.21,0-1.56-2.54-3.6-5.22-.54-7.66,5-4,15.06-1.41,20.54.15,7.29,2.08,14.12,5.43,21,8.65,6.48,3.05,13.44,7.09,20.66,8-.81-1.46-3.82-2.67-5.23-3.53q-3.39-2.08-6.9-3.95c-4.64-2.49-9.42-4.72-14.27-6.77a197.31,197.31,0,0,0-28.48-9.47c-4.58-1.15-9.72-2.66-14.46-1.54-1.81.43-2.83.78-3.19,2.57-.43,2.16.37,2.88-2.55,1.35s-6.25-4.62-6-8.1c.3-4.43,6.63-5.86,10.12-6.32,21.44-2.8,39.12,11.12,56.78,20.93,9.08,5,17.74,10.87,26.84,15.82a36.59,36.59,0,0,0,12.93,4.47,19,19,0,0,0,6.06,0c3.11-.65,3.82-1.65,3.1-4.64-2.37-9.89-10.86-17.62-18.67-23.52a87.07,87.07,0,0,0-13.07-8.17q-3.72-1.89-7.62-3.41c-2.39-.93-5.28-1.39-6.83-3.6,7.21.32,15.18,3.86,21.54,7a110.06,110.06,0,0,1,18.55,12.27c0-.62-.52-.41,0,0ZM101.83,43.95A29.41,29.41,0,0,1,120.36,51,140.58,140.58,0,0,1,130.7,61.14a38.37,38.37,0,0,0,4.11,4.4c2,1.57,4.2.16,6.68-.36,10.43-2.21,21.59-1.25,32.16-.78,1.7.08,5.17.88,6.7-.07,1.33-.83,1.51-2.68,1.74-4.1a12.83,12.83,0,0,1,7.61-9.93,31.67,31.67,0,0,1,12.52-2.82c5-.19,10.38-.53,15.23.71a53.28,53.28,0,0,1,12.18,4.64c4.38,2.35,7,8.13,9.14,12.47,4,8.17,6.29,16.43,14.47,21.51,4.12,2.56,8.56,4.58,12.26,7.76s7.06,6.14,11.61,8.1c3.56,1.53,6.81,3.25,10.49,4.77,5,2.07,10,4.17,14.15,7.74s7.21,8.16,5.8,13.88c-1.3,5.25-5.27,8.86-8.47,13a25,25,0,0,1,8.61,8.18c.76,1.12,1.78,3,3,3.74.54.34,1.63.14,2.09.53.27.23.53,1,.59,1.05,1,.62,0,.33,1.77.63.73.12,1.52-.08,2.26,0a18,18,0,0,1,5.73,2.27,47.81,47.81,0,0,1,10.45,7.46c3.36,3.15,4.76,6.72,6.66,10.88,1,2.1,1.73,3.65,1.8,5.93.05,1.6.31,3.28,2.36,1.9,1.34-.9,1.24-3.37,1.61-4.72a31.89,31.89,0,0,0,1.08-4.69c.13-1,.45-5.42,1.33-5.93,1.31-.75,3.76,2.05,4.6,2.93,5,5.22,9.17,13.92,9.42,21.2.07,2.08-.33,4.16-.06,6.23.14,1.11.07,2.13.23,3.26.58,4,6,6.81,8.84,9.09,11.54,9.34,28.21,26.14,13.05,40.16a29.26,29.26,0,0,1-9.34,5.78c-1.72.67-3.63,1.11-5.07,2.31-1.92,1.59-1.68,3.06-2.31,5.16-2.28,7.61-4.25,15.24-10.11,21.2-11.31,11.49-30.24,13.55-45.38,16.07a145.37,145.37,0,0,1-28.93,2.24,32.19,32.19,0,0,0-5-.21c-1.85.24-3.46,1.52-5.16,2.23-4.11,1.69-8.61,2.92-12.81,4.4-7,2.46-14.06,5.1-21.06,7.22-4.24,1.28-8.55,2.53-12.82,3.82s-9.45,2-13.26,4.12c-3.27,1.8-3.2,7.11-3.89,10.34-.44,2-.91,4.08-1.38,6.12s-.06,1.94-1.7,2.45a3.86,3.86,0,0,1-2.81-.5c-3.8-1.95-7.35-5.23-11-7.48-2-1.19-4.05-2.88-6.32-3.4s-4.66.36-7,.8c-17.84,3.39-34.52,2.33-53.85-2.41-2.08-.51-4.08-1.38-6.27-1.18-1.89.17-3.48,1.15-5.18,1.93-3.5,1.6-7,3.25-10.54,4.73-3.24,1.35-7.9,4.3-7.62-1.37.23-4.73,2-9.14,1.8-14-.18-3.95-2.21-5.92-5.64-7.62-4.41-2.17-8.72-4.49-13-6.84-7.75-4.23-15.52-8.07-22.15-14-6.25-5.58-12.48-11-17.89-17.39-2.77-3.27-6.14-3-10-3.76-1.92-.38-3.82-.54-5.73-.82-1-.15-5-.43-5.68-1.4-1.67-2.28,6.07-6.95,7.41-8.06,3.48-2.9,7.08-5.49,5.11-10.36-1.37-3.38-3.4-6.28-4.85-9.66a90.52,90.52,0,0,1-4.59-13c-2.28-8.78-2.52-17.77-2.09-26.75.09-2,0-3.89-.08-5.86,0-1.59.53-3.26.35-4.81-.47-4.12-6-7.31-8.85-9.64a56.1,56.1,0,0,1-4.87-4.11,35.85,35.85,0,0,1-3.29-3.27c-.28-.41-1.42-1.07-.72-2a13,13,0,0,1,2.34-.4,73.83,73.83,0,0,0,7.28-2.21c4.21-1.32,8.46-1.22,10.1-5.94.58-1.66.68-3.41,1.19-5.08.74-2.41,1.41-4.83,2.3-7.19a107.92,107.92,0,0,1,11-20.67c2.15-3.31,4.61-6.38,6.88-9.58,1.75-2.47,1.34-3.22.15-5.86a59.6,59.6,0,0,1-2.79-7.33c-.23-.77-1.54-4-.94-4.53s4.79.14,5.83.18c4.1.16,9,.95,13.06.19,2.11-.4,6.08-5.48,5.69-7.84-.52-3.14-7.24-2.8-9.49-3.63-6.84-2.49-14.51-6.36-17.25-13.67-1.16-3.08-2-8.37,2-9.29,4.32-1,8.76,1.22,13.14.81A33.63,33.63,0,0,0,60,68.67c4.07-1.57,8.74-3.36,12-6.36,2.7-2.47,4.42-5.18,6.58-8.05a22.19,22.19,0,0,1,10-7.1,51.45,51.45,0,0,1,13.25-3.21Z" transform="translate(-0.59 -43.95)"/><path class="a" d="M283,174.49c1.37-.18,2.27,1.13,3,2.46a2.93,2.93,0,0,1-1.08,3.59,5.09,5.09,0,0,1-3.84.92,6,6,0,0,1-1.87-.58,3,3,0,0,1-1.76-3,3,3,0,0,1,1.91-2.79,9.35,9.35,0,0,1,3.63-.63Z" transform="translate(-0.59 -43.95)"/><path class="a" d="M245.72,177.14a2.1,2.1,0,0,1-.28,0c-.48-.07-1,.2-1.42-.26-.54-.63-1.21-1.15-1.23-2.13a2.53,2.53,0,0,1,2.35-2.86,2.8,2.8,0,0,1,.75,0,2.7,2.7,0,0,1,1.77,4.89,1.47,1.47,0,0,1-.81.36,7.07,7.07,0,0,1-1.13,0Z" transform="translate(-0.59 -43.95)"/><path class="a" d="M268.82,165.76a4.38,4.38,0,0,1,3.29,1.11,1.45,1.45,0,0,1,.25,2.1,3,3,0,0,1-1.58,1.27,4.19,4.19,0,0,1-3.71-.22,2.1,2.1,0,0,1-.1-3.65,3.45,3.45,0,0,1,1.85-.6Z" transform="translate(-0.59 -43.95)"/><path class="a" d="M323.1,172.68a4.23,4.23,0,0,1,2.74,1.15,1.17,1.17,0,0,1,.34,1.28,2.68,2.68,0,0,1-2.16,2,2.88,2.88,0,0,1-2.91-.86,2.06,2.06,0,0,1,.66-3.19,7.85,7.85,0,0,1,1.34-.37Z" transform="translate(-0.59 -43.95)"/><path class="a" d="M235.54,170.19a3.08,3.08,0,0,1-1.77-.62,1.29,1.29,0,0,1-.29-1.91,2.94,2.94,0,0,1,4.45,0,1.39,1.39,0,0,1-.37,1.92,3.15,3.15,0,0,1-2,.58Z" transform="translate(-0.59 -43.95)"/><path class="a" d="M325.44,182c.5.09.87.13,1.23.23a1.42,1.42,0,0,1,.7,2.45,2.37,2.37,0,0,1-1.95.74,4.6,4.6,0,0,1-1.36-.31,1.3,1.3,0,0,1-.93-1.36,1.42,1.42,0,0,1,1-1.45,10.08,10.08,0,0,1,1.34-.31Z" transform="translate(-0.59 -43.95)"/></svg>