<svg xmlns="http://www.w3.org/2000/svg" viewBox="0 0 389.95 301.56"><defs><style>.a{fill:#231f20;}.b{fill:#c3c7c7;stroke:#c3c7c7;stroke-miterlimit:10;}.c{fill:#fff;}.d{fill:#b71f36;}</style></defs><title>Bulldog Face 3-color</title><path class="a" d="M290,206.44c1.28-.15,1.21-.1,1.52-1.14.19-.65-.41-3.82-1.07-4.13-1.8-.85-6.25,3.3-6.6,4.8a45.51,45.51,0,0,1,6.16.47c.47-.06-1-.15,0,0Zm-64.85-63.3c2.79-.19,8,.44,9.92-1.91a16,16,0,0,0-7.4-.86c-2.13.19-5.73.32-7.47,1.48,1.06,1.3,3.47,1.14,5,1.29,2.7-.19-.76-.08,0,0Zm55.56,56.8a20.11,20.11,0,0,0-4.74.9c-.81.78-1.5,4.33-.45,4.94,2.71,1.55,9.88-5.56,5.19-5.84,0,0,.34,0,0,0Zm35.82,11.37c2.77,0,2.77-2.69,2.4-5.13-.15-1-.52-3.05-1.5-3.67-1.2-.76-1.43.32-2.48,1.32s-6.07,3.89-6.1,5.48c0,1.76,6.4,1.91,7.68,2ZM183,186.39c-.08-2.94-1.79-8.73-5.93-8.28-2.91.32-2.5,9.47-2.45,11.76a41.35,41.35,0,0,0,.67,7c.42,2.15,1.21,1.84,2.88.52,3.22-2.54,4.64-7.06,4.84-11,0-1.71-.19,3.65,0,0Zm142.59,11.48c-1.49,0-4.35,0-4.71,1.47-.17.66.76,3.28.89,4,.24,1.33.43,2.68.58,4,.39,3.62-.15,7.83,5,6,3.66-1.3,6.69-6.11,7-9.89.32-4.46-5.15-5.61-8.74-5.58-1.36,0,2.13,0,0,0ZM235.8,211.37c.21,4.46,4.48,4.79,7.64,2.53,4-2.86,5-8.84,6.05-13.3.63-2.66.75-2.82-1.9-3.77s-3.46.41-5.28,2.35c-2.91,3.11-6.49,7.72-6.51,12.19,0,.13,0-1.37,0,0Zm64.37-2.91c4.35,0,9.11-1.62,11.54-5.47.91-1.44,1.93-4.27,1.13-6s-3.93-1.88-5.72-1.88c-4.14,0-8.67,1.6-11.11,5.12a8.4,8.4,0,0,0-1.5,5.64c.32,2.71,3.29,2.72,5.66,2.6.44,0-1.58.08,0,0ZM48.25,108c-3.14,0-4.16-.69-2.95,2.62A90,90,0,0,0,49,119.54c.86,1.75,2.08,5,3.91,5.86,2,.94,4.75-.58,6.42-1.67,3.59-2.35,5.83-7.19,4.65-11.47C62.73,107.63,52.08,108,48.25,108ZM77.13,228c.77-.23-2.28-19-2.61-21-.53-3.1-3.89-4.19-6.5-5.65-1.73-1-3.49-1.87-5.27-2.74-1.38-.67-1.64-1.24-2.32-.15-1.23,2,.21,7.45.65,9.48a40.89,40.89,0,0,0,3.45,9.82,32.14,32.14,0,0,0,5.55,7.88c.82.84,5.81,5.71,6.94,4.91.34-.24.12-2.38.12-2.6,0,0,0,.75,0,0Zm193.74-28.4a25.23,25.23,0,0,0-3.52-11.18,23.22,23.22,0,0,0-4.13-5c-2.16-2-2.53-2.11-3,.87a61.66,61.66,0,0,1-4,13.56c-.54,1.31-5.65,11.69-4.94,12.26s4.68-.77,5.63-.94a45.91,45.91,0,0,1,7.77-.91c2.69,0,3.56.78,4.84-1.8a15.77,15.77,0,0,0,1.4-6.82c0-.49,0,3.18,0,0Zm-54-8.88c-.45,1.63,4.16,5.06,5.26,6a45.69,45.69,0,0,0,8.09,5.15c.92.47,2.2,1.44,3.2,1.17s2.32-2.32,3-3a26.19,26.19,0,0,0,3-3.57c1.23-1.84,1.26-2.25-.13-3.95-4.11-5-8.8-9.9-14.31-13.37-5.3-3.34-7.72,8.12-8.1,11.63-.14.5.28-2.61,0,0ZM207,138.15c.67-1.25-4.15-3.12-2.43-5.91.64-1,2.41-1.44,2-2.66-.26-.8-3.92-1.8-4.82-2.21-7.29-3.33-15.75-8.59-24.19-7.06-3.73.67-3,6.16-2.2,9,.34,1.18.85,3.43,2,4s4.13,0,5.54,0c8.33.06,16.14,2.62,24.1,4.73,0-.07-.39-.1,0,0ZM343.12,210c0,.53,8.39-1.31,9.23-1.72a10.52,10.52,0,0,0,5.52-6.06c2.58-7.27-.71-15.9-4.42-22.16-.44-.75-1.77-3.75-2.71-3.66-.79.07-1,4.25-1.12,5a56.4,56.4,0,0,1-3.31,11.69,109.09,109.09,0,0,1-5.51,11.3c-.46.86-2.76,3.88-2.5,4.65.4,1.19,3.39.82,4.82.91,0,0-1.38-.09,0,0ZM102.53,323.13c.75,0-1,8.93-.16,9.49s7.08-2.85,8.2-3.29a63.33,63.33,0,0,0,7.26-3.13c4.54-2.5,9-7,4.69-12-3.37-3.92-9.76-6.21-14.87-5.72-3.39.32-4.29,1.08-4.58,4.23-.32,3.47-.39,7-.52,10.44,0,0,.11-2.76,0,0Zm105.28.15c-.75-15.19-26.58-6.87-23.66,2.23.89,2.78,4.71,4.84,6.92,6.39,3,2.11,6.06,4.14,9.24,6,.79.46,2.47,1.87,3.25,1.49s1.39-4.06,1.67-4.9c1.17-3.63,2.56-7.33,2.59-11.19,0-.53,0,2.22,0,0Zm-9.58-106.09c-.21-3.77-3.41-6.76-5.71-9.61-1.17-1.45-2.4-2.87-3.7-4.21-1-1-2.76-3.4-4.13-3.79s-1.29-.14-2.62,1.17a33.89,33.89,0,0,0-3.32,3.83c-2.48,3.31-2.08,5.33-1.4,9.33,1,6.06,3.06,13.31,10.11,14.35,6.83,1,10.64-4.88,10.77-11.07,0-.44,0,2.06,0,0Zm-137.7,49.3c-.85-6.9-4.18-15.35-12.79-14.09-4,.59-7.39,3.43-10.2,6.19-1,.94-9,7.79-8.51,9.1.42,1.08,8,2.14,9.27,2.46A69.24,69.24,0,0,0,47.18,272a27.76,27.76,0,0,0,8.83-.22c1.11-.23,3.3-.52,4.08-1.45.6-.72.37-2.94.44-3.81-.13-1.1-.1,1.29,0,0ZM40.42,180.06c0-3.28-.82-7-3.42-9.29-2.78-2.4-7-1.61-10.22-.86a112.61,112.61,0,0,0-11.11,3.47c-.71.24-5.25,1.2-5.61,1.91s1.09,1.88,1.68,2.43c2.65,2.48,5.59,4.62,8.23,7.12s5.18,5,8.62,6.11c7.35,2.29,12-4.08,11.85-10.89,0-.41,0,2.07,0,0ZM222.19,147.2c-.36,1.44,17.21,5.2,19,5.45,7.62,1.08,14-.16,21.08-2.91,6.8-2.64,13.21-3.88,20.5-2.66a91.65,91.65,0,0,1,10.34,2.66c2.86.83,7,2.91,10,2.58-1.65-6.64-9.32-6.46-14.25-8.46-3.47-1.41-6.54-3.56-10.22-4.44a39.14,39.14,0,0,0-12.51-.82c-7.45.7-12,7.26-19.2,8.82-8,1.75-16.57-.52-24.72-.23,0,0,.8,0,0,0Zm-9.47,39.23c-.6-8.14-8.48-11.11-15.88-10.53-8.51.66-11.36,7.45-9.4,15.27a25.42,25.42,0,0,0,4.72,9.35,26.2,26.2,0,0,0,4,4.2c1.89,1.54,1.9,1.9,3.35.31,4.7-5.17,13.28-10.81,13.17-18.61,0-.28,0,2.16,0,0Zm-9.53,29.41c0,6.81,9.88,11.72,15.91,11.64,7.9-.1,12.28-7.08,12.61-14.4.19-4.27-3.88-7.73-6.94-10.28a60,60,0,0,0-5-3.68c-1.52-1-2.58-2.37-4.19-1.6-3,1.42-6.69,5.44-8.77,8a15.78,15.78,0,0,0-3.64,10.32c0,.47-.09-4.71,0,0Zm7-163.31c-7,.13-19.26,1.45-21.76,9.56-.53,1.71-.66,2.46.71,3.16,1.82.92,5.14.76,7.17,1.1,4.55.78,9.07,1.74,13.52,2.92q3.18.84,6.32,1.84c.74.24,5.09,2.22,5.63,1.85,1.45-1-2.86-7.66,1.68-6.37,3.23.91,3.6,6.08,6.18,7.91,1.21.85,2.9.73,4.24,1.44,1.53.82,3.25,3.06,5.18,2.39-2.3-2.74-4.09-4.49-5.41-8s-2.38-7.34-4.53-10.45c-4.2-6.07-12.07-7.23-18.94-7.38-3.79.07,3.71.08,0,0ZM298.67,299c19-2.53,47.1-2.91,57.74-22a32.32,32.32,0,0,0,3.7-11.84c.35-2.88-.26-2.3-2.91-2.37a56.56,56.56,0,0,1-8.27-1c-2-.36-4.68-1.63-6.13-.21-1.69,1.67-2.75,5.09-4.12,7.13a66.12,66.12,0,0,1-10.09,11.73,81.75,81.75,0,0,1-13.81,10.2c-2.47,1.47-5,2.82-7.59,4.06s-6.4,2.19-8.53,4.35c.43-.06.87-.88,0,0Zm56.92-63.07c-8.85-6.66-17.61-12.42-28.16-16.12-11.22-3.93-22.86-5.35-34.66-6.12-13-.85-26.56-1.42-39.29,2s-22.21,11.6-32.47,19.17c-5.36,4-11.18,7.59-17.73,9.12a19.37,19.37,0,0,1-10.18,0c-3.62-1.13-6.57-3.7-10.06-5.07,3.86,11.83,6.51,23.5,7,36a85.73,85.73,0,0,1-1.14,17.95,55.8,55.8,0,0,1-2.17,8.56c-.46,1.32-1.3,2.7-1.63,4-.43,1.72-.67,1.05.91,1.46,2.66.69,6.17.28,8.89.32,3.3,0,6.6.09,9.9.07,6.5,0,13-.37,19.46-1a163.7,163.7,0,0,0,37.11-7.41,97.89,97.89,0,0,0,19.09-8.65,57,57,0,0,0,7.84-5.56c2.35-2,4.35-4.61,7-6.19-.45,8-7.21,14.7-12.46,20.06a75.46,75.46,0,0,0,33.58-16,47.21,47.21,0,0,0,10.48-12.71,45.9,45.9,0,0,0,3.4-7.71c.25-.73,1.51-3.43,1.16-4.13s-2.07-.43-2.74-.53c-5.88-.88-10.9-4.28-16.14-6.85-5.64-2.77-11.38-3.29-17.58-2.8-13.64,1.09-24.84,7.42-37.47,11.85.87-4.1,21.78-13,20.84-15.21-.42-1-6.35-.9-7.5-.94-2.78-.1-5.57,0-8.36.14-5.53.27-11.22.93-16.73.22.68-1,3.47-1.48,4.62-1.87,2-.7,4.12-1.35,6.2-1.95a109.45,109.45,0,0,1,13-2.87,105.84,105.84,0,0,1,26.23-.74c17.79,1.66,33.81,9.68,51.11,13.43,8.06,1.75,17.33,2.87,25.43.7s10.48-8.21,8.88-16-7.21-14.13-13.12-19.29c-1.81-1.59-6.06-5.47-8.69-5.33-1.3.07-3.41,1.55-4.71,1.93a37.44,37.44,0,0,1-7,1.25,68.75,68.75,0,0,1-7,.25c-2,0-5-.62-6.89.35s-2,1.83-.35,2.82a61.82,61.82,0,0,0,6.28,2.82c7.54,3.43,14.27,7.77,15.82,16.47-.43-.32-.11-.59,0,0ZM125.43,196.2c-.14-1.44,1.44-3.38,2.14-4.61q1.75-3.07,3.76-6a83.84,83.84,0,0,1,8.52-10.43,93.83,93.83,0,0,1,10.49-9.36c1.66-1.28,4.44-2.53,5.7-4.16.5-.65,2.18-5.51,1.78-6.06-.83-1.15-14.23,6.67-15.65,7.51a125.57,125.57,0,0,0-15.59,11,172.88,172.88,0,0,0-25.73,26.5c-15,19-25,47.27-13.15,70.41,5.69,11.1,15.77,20.31,25.3,28.12s20.78,13.77,33.33,14.79c11.13.91,24-.68,31.55-9.87s7.26-22.63,6.22-33.95c-2.47-27-13.19-52.52-14-79.74a101.81,101.81,0,0,1,1.21-20.13c.25-1.47.54-2.93.89-4.38s1.54-3.62,1.42-4.92c-.19-1.92-2.35-1.93.3-3.28,10.95-5.55,26-.81,36.15,4.4,11.4,5.86,20.64,14.55,29.66,23.49,2.79,2.77,9,9.1,13.09,5.19s2.17-10.76,4.9-15.21c.72-1.18.84-1.51,1.89-1.23s3.15,2.93,4,3.71a40.67,40.67,0,0,1,6,6.91c1.52,2.28,2.66,4.76,4,7.15,1.74,3.18,2.13,4.62,5.86,5.09a35.86,35.86,0,0,0,18.4-2.5,30.83,30.83,0,0,0,6.38-3.59,28,28,0,0,0,3.18-2.74c.77-.77,1.92-2.94,2.81-3.29,1.87-.73,2.22,2.57,3.23,3.92,1.71,2.29,4.82,3.45,7.47,4.2a47.57,47.57,0,0,0,10,1.42c3,.19,5.54,1.1,7-2.06,4.88-10.75-9.33-22.93-17.09-27.9a56,56,0,0,0-7.66-4.13c-1.11-.49-6.51-3.19-7.49-2.37s.94,5.38,1.19,6.36c.58,2.22,2.31,7.37.42,9.41s-10.05-4.63-12-5.88c-5.25-3.32-10.45-4.58-16.39-6.06a16.11,16.11,0,0,1-6.87-3,7.24,7.24,0,0,1-2.37-3.2c-.18-.6.22-3.28.11-3.39-.42-.43-5.3,1.36-6,1.52-2.36.57-4.74,1-7.13,1.46-4.69.8-9.55.88-14.19,1.82,2,3,7.31,3.29,8.79,6.28-2.12.71-6.31-1.09-8.4-1.73a77,77,0,0,1-8.83-3.35c-5.49-2.45-10.74-5.42-16-8.27-10.53-5.67-21.68-11.13-33.95-10.6-12.69.55-19,11.7-22.95,22.44a135.37,135.37,0,0,0-4.89,17.53c-.72,3.18-1.4,6.37-2.1,9.56-.41,1.85-.9,6.21-2.77,7.26-.6-1.49,0-3.82.14-5.43.16-2.5.31-5,.5-7.5a120.8,120.8,0,0,1,1.93-14c-5.9,2.34-11.35,7.08-15.75,11.54-4.69,4.75-8,10.64-12.67,15.32,0-.34.75-.75,0,0Zm127-83.14c.34-5.46-4-8.1-5.3-12.89,4.87,2.28,8.79,8,11.2,12.6a44.5,44.5,0,0,1,3.36,8.58c.45,1.61.82,3.23,1.12,4.87.22,1.2.05,3.47.82,4.47,1.48,1.94,6.75,2.59,8.95,3.07a59.61,59.61,0,0,0,10.36,1.36c5,.21,13.64.53,16.86-4.36s-3.1-10.92-6.68-13.57A66.5,66.5,0,0,0,276,107.93c-3.1-1.09-5.76-.4-8.85-.92-4.5-.76.35-1.72,1.38-2.53,1.27-1,.56-1.19-.7-2.31s-2.28-1.93-3.44-2.85q-4-3.16-8.3-5.92C233,78.55,205.21,71.57,178,69.81a204.25,204.25,0,0,0-20.55-.28q-5.08.18-10.14.6c-1.39.12-9.56.07-10.18,1.16-.71,1.24,3.4,4.27,4.2,5a31,31,0,0,1,3.08,2.85c1.22,1.38,1.89,1.7.45,2.46-2,1.09-5.62-.58-7.21-1.79-2.28-1.75-4-4.37-5.78-6.58-4.09-5.07-8.39-10.07-12.8-14.88s-9.44-7.93-16.06-8.53c-6-.54-12.9.28-17.59,4.37-4.39,3.82-6,9.89-8.87,14.77a17.15,17.15,0,0,1-5.29,6c-1.13.72-5.2,2.91-5.21,1s3.26-3.37-.11-3.25S59.08,74,55.72,74.29a90.07,90.07,0,0,0-9,1.07c-3.34.66-4.87.56-3.35,4.16,2.35,5.57,7.86,8.75,13.37,10.52,12.14,3.9,26.73,3,37.66-3.88,4.41-2.77,8.55-6.57,10.49-11.51.56-1.43,4.83-13,7.51-9.09,1.12,1.64-.53,5.1-1.16,6.62-.53,1.3-1,1.87-.48,2.95.68,1.37,2.41,2,3.06,3.72.35.91.87,7.26-1.71,6.4-.49-.16-.64-2.19-.86-2.71-.54-1.27-1.38-2.74-3-2.64-2.41.16-4.89,4.42-6.32,6-1.93,2.12-4.24,3.8-6.27,5.8-2.47,2.44-.93,4.51-.38,7.67a26.9,26.9,0,0,1,.25,10.13c-.31,1.43-2.14,6.56-4.47,5.93-.57-.15-.73-1.44-1.18-2-.63-.85-2.57-1.43-2.79-2.49-.35-1.64,2.37-4.28,2.76-6.07.9-4.11-2.31-1.79-4.27-.43C80.26,108.13,76,113.91,72,119a128,128,0,0,0-10.62,16.33c-6.26,11.37-15.11,24.08-10.14,37.49,2.13,5.74,5.87,10.92,9.93,15.45,1.72,1.91,9.8,11.86,12.78,9.79,1.3-.9,1.26-7.06,1.49-8.56.31-2,.39-6.23,2.21-7.59,1.18,2.11.51,6.57.63,9,.17,3.45.31,6.9.53,10.35.21,3.29.53,6.58,1,9.84.19,1.26.9,9.15,2.07,9.55,1.39.47,7.46-11.73,8.24-13a170.41,170.41,0,0,1,10.14-14.39,137.11,137.11,0,0,1,23.35-23.67c9-7,18.5-12.82,26.06-21.62a85.41,85.41,0,0,0,9.65-13.83c1.06-1.88,2.7-4.39,1.77-6.56s-3.69-2.56-4.18-5.08c1.89,0,7.58,3.83,5.21,0-1.56-2.54-3.6-5.22-.54-7.66,5-4,15.06-1.41,20.54.15,7.29,2.08,14.12,5.43,21,8.65,6.48,3.05,13.44,7.09,20.66,8-.81-1.46-3.82-2.67-5.23-3.53q-3.39-2.08-6.9-3.95c-4.64-2.49-9.42-4.72-14.27-6.77a197.31,197.31,0,0,0-28.48-9.47c-4.58-1.15-9.72-2.66-14.46-1.54-1.81.43-2.83.78-3.19,2.57-.43,2.16.37,2.88-2.55,1.35s-6.25-4.62-6-8.1c.3-4.43,6.63-5.86,10.12-6.32,21.44-2.8,39.12,11.12,56.78,20.93,9.08,5,17.74,10.87,26.84,15.82a36.59,36.59,0,0,0,12.93,4.47,19,19,0,0,0,6.06,0c3.11-.65,3.82-1.65,3.1-4.64-2.37-9.89-10.86-17.62-18.67-23.52a87.07,87.07,0,0,0-13.07-8.17q-3.72-1.89-7.62-3.41c-2.39-.93-5.28-1.39-6.83-3.6,7.21.32,15.18,3.86,21.54,7a110.06,110.06,0,0,1,18.55,12.27c0-.62-.52-.41,0,0ZM101.83,43.95A29.41,29.41,0,0,1,120.36,51,140.58,140.58,0,0,1,130.7,61.14a38.37,38.37,0,0,0,4.11,4.4c2,1.57,4.2.16,6.68-.36,10.43-2.21,21.59-1.25,32.16-.78,1.7.08,5.17.88,6.7-.07,1.33-.83,1.51-2.68,1.74-4.1a12.83,12.83,0,0,1,7.61-9.93,31.67,31.67,0,0,1,12.52-2.82c5-.19,10.38-.53,15.23.71a53.28,53.28,0,0,1,12.18,4.64c4.38,2.35,7,8.13,9.14,12.47,4,8.17,6.29,16.43,14.47,21.51,4.12,2.56,8.56,4.58,12.26,7.76s7.06,6.14,11.61,8.1c3.56,1.53,6.81,3.25,10.49,4.77,5,2.07,10,4.17,14.15,7.74s7.21,8.16,5.8,13.88c-1.3,5.25-5.27,8.86-8.47,13a25,25,0,0,1,8.61,8.18c.76,1.12,1.78,3,3,3.74.54.34,1.63.14,2.09.53.27.23.53,1,.59,1.05,1,.62,0,.33,1.77.63.73.12,1.52-.08,2.26,0a18,18,0,0,1,5.73,2.27,47.81,47.81,0,0,1,10.45,7.46c3.36,3.15,4.76,6.72,6.66,10.88,1,2.1,1.73,3.65,1.8,5.93.05,1.6.31,3.28,2.36,1.9,1.34-.9,1.24-3.37,1.61-4.72a31.89,31.89,0,0,0,1.08-4.69c.13-1,.45-5.42,1.33-5.93,1.31-.75,3.76,2.05,4.6,2.93,5,5.22,9.17,13.92,9.42,21.2.07,2.08-.33,4.16-.06,6.23.14,1.11.07,2.13.23,3.26.58,4,6,6.81,8.84,9.09,11.54,9.34,28.21,26.14,13.05,40.16a29.26,29.26,0,0,1-9.34,5.78c-1.72.67-3.63,1.11-5.07,2.31-1.92,1.59-1.68,3.06-2.31,5.16-2.28,7.61-4.25,15.24-10.11,21.2-11.31,11.49-30.24,13.55-45.38,16.07a145.37,145.37,0,0,1-28.93,2.24,32.19,32.19,0,0,0-5-.21c-1.85.24-3.46,1.52-5.16,2.23-4.11,1.69-8.61,2.92-12.81,4.4-7,2.46-14.06,5.1-21.06,7.22-4.24,1.28-8.55,2.53-12.82,3.82s-9.45,2-13.26,4.12c-3.27,1.8-3.2,7.11-3.89,10.34-.44,2-.91,4.08-1.38,6.12s-.06,1.94-1.7,2.45a3.86,3.86,0,0,1-2.81-.5c-3.8-1.95-7.35-5.23-11-7.48-2-1.19-4.05-2.88-6.32-3.4s-4.66.36-7,.8c-17.84,3.39-34.52,2.33-53.85-2.41-2.08-.51-4.08-1.38-6.27-1.18-1.89.17-3.48,1.15-5.18,1.93-3.5,1.6-7,3.25-10.54,4.73-3.24,1.35-7.9,4.3-7.62-1.37.23-4.73,2-9.14,1.8-14-.18-3.95-2.21-5.92-5.64-7.62-4.41-2.17-8.72-4.49-13-6.84-7.75-4.23-15.52-8.07-22.15-14-6.25-5.58-12.48-11-17.89-17.39-2.77-3.27-6.14-3-10-3.76-1.92-.38-3.82-.54-5.73-.82-1-.15-5-.43-5.68-1.4-1.67-2.28,6.07-6.95,7.41-8.06,3.48-2.9,7.08-5.49,5.11-10.36-1.37-3.38-3.4-6.28-4.85-9.66a90.52,90.52,0,0,1-4.59-13c-2.28-8.78-2.52-17.77-2.09-26.75.09-2,0-3.89-.08-5.86,0-1.59.53-3.26.35-4.81-.47-4.12-6-7.31-8.85-9.64a56.1,56.1,0,0,1-4.87-4.11,35.85,35.85,0,0,1-3.29-3.27c-.28-.41-1.42-1.07-.72-2a13,13,0,0,1,2.34-.4,73.83,73.83,0,0,0,7.28-2.21c4.21-1.32,8.46-1.22,10.1-5.94.58-1.66.68-3.41,1.19-5.08.74-2.41,1.41-4.83,2.3-7.19a107.92,107.92,0,0,1,11-20.67c2.15-3.31,4.61-6.38,6.88-9.58,1.75-2.47,1.34-3.22.15-5.86a59.6,59.6,0,0,1-2.79-7.33c-.23-.77-1.54-4-.94-4.53s4.79.14,5.83.18c4.1.16,9,.95,13.06.19,2.11-.4,6.08-5.48,5.69-7.84-.52-3.14-7.24-2.8-9.49-3.63-6.84-2.49-14.51-6.36-17.25-13.67-1.16-3.08-2-8.37,2-9.29,4.32-1,8.76,1.22,13.14.81A33.63,33.63,0,0,0,60,68.67c4.07-1.57,8.74-3.36,12-6.36,2.7-2.47,4.42-5.18,6.58-8.05a22.19,22.19,0,0,1,10-7.1,51.45,51.45,0,0,1,13.25-3.21Z" transform="translate(-0.59 -43.95)"/><path class="b" d="M252.89,113.26l-1.29-1A100.42,100.42,0,0,0,236,101.85,80,80,0,0,0,213.79,94a6.78,6.78,0,0,0-1-.05,5.12,5.12,0,0,0,.63.87,7.74,7.74,0,0,0,2.81,1.48,86.78,86.78,0,0,1,29.64,17.38,57.49,57.49,0,0,1,9.58,10.87,25,25,0,0,1,4,10.29,1.13,1.13,0,0,1-.55,1.26,9.41,9.41,0,0,1-5.11,1.4,29.25,29.25,0,0,1-11.5-2.15,53.26,53.26,0,0,1-9.42-4.93c-7-4.5-14.25-8.73-21.59-12.74-5.15-2.82-10.2-5.83-15.29-8.76-2.94-1.69-5.85-3.43-8.83-5.07A75,75,0,0,0,174,98a50,50,0,0,0-18.34-2.13,23.65,23.65,0,0,0-6.93,1.28,15.47,15.47,0,0,0-3.21,1.56,4.65,4.65,0,0,0-1.71,6.42,12.58,12.58,0,0,0,7.19,6.17c.72.27.93.1.92-.66a15,15,0,0,0-.18-1.5,1.44,1.44,0,0,1,1-1.8,11.58,11.58,0,0,1,4.55-1.08,29.8,29.8,0,0,1,8.31.92,195.17,195.17,0,0,1,40.67,14.16,139.48,139.48,0,0,1,17.28,9.81l.62.43s.06.1.14.24c-.28,0-.5,0-.72-.1a58.55,58.55,0,0,1-11.46-4c-4.86-2.21-9.67-4.53-14.51-6.78a101.72,101.72,0,0,0-14.91-5.81,45.77,45.77,0,0,0-13.47-1.94,16.11,16.11,0,0,0-4.83.69,9.61,9.61,0,0,0-1.81.78,3.88,3.88,0,0,0-1.68,5.19,19.13,19.13,0,0,0,1.52,2.37c.36.55.76,1.08,1.06,1.66s.13.61-.4.59a5.72,5.72,0,0,1-2.3-.79,21.16,21.16,0,0,0-2.23-1,3.38,3.38,0,0,0-1.08,0,3.14,3.14,0,0,0,.25,1.14,8.58,8.58,0,0,0,1.34,1.43c.54.48,1.15.88,1.69,1.35a3,3,0,0,1,1,3.46,20,20,0,0,1-1.33,3.21c-1.17,2.08-2.42,4.11-3.71,6.12a82.1,82.1,0,0,1-16.92,18.89,103.93,103.93,0,0,1-8.86,6.57c-12.41,8.23-22.64,18.71-31.63,30.47a177,177,0,0,0-12.6,19c-.49.84-.87,1.74-1.32,2.61A18.58,18.58,0,0,1,84.26,219a8.92,8.92,0,0,1-1.39,1.52c-.46.41-.59.36-.72-.24-.49-2.14-1-4.28-1.4-6.44a116.68,116.68,0,0,1-1.57-14.42c-.27-5.12-.5-10.23-.76-15.35,0-.56-.08-1.13-.13-1.69,0-.1-.1-.2-.16-.29-.09.07-.24.12-.28.21a15.82,15.82,0,0,0-1.14,2.77c-.42,1.9-.67,3.83-1,5.75-.34,2.17-.6,4.35-1,6.52-.21,1.21-.47,1.31-1.69,1a8.36,8.36,0,0,1-3.31-1.93c-1.63-1.48-3.26-3-4.82-4.51A64.09,64.09,0,0,1,54.62,179a32,32,0,0,1-4.05-10,23.66,23.66,0,0,1,1-12.81,39.29,39.29,0,0,1,2-4.86c3-5.86,6-11.75,9.23-17.5a128.63,128.63,0,0,1,18.6-25.09,28,28,0,0,1,5.66-4.81,28.41,28.41,0,0,1,2.58-1.37c.53-.26.64-.18.73.42a5.47,5.47,0,0,1-.41,3c-.36.83-.82,1.62-1.26,2.42s-.76,1.31-1.15,1.95a.7.7,0,0,0,.1.94,10.4,10.4,0,0,0,.89.84c.37.3.77.55,1.14.83a3.18,3.18,0,0,1,1.36,2.17c.08.6.19.64.74.43a5.92,5.92,0,0,0,3-2.53,11.28,11.28,0,0,0,1.44-4.55,32.12,32.12,0,0,0-.67-10.21c-.25-1.26-.55-2.52-.91-3.75a1.27,1.27,0,0,1,.3-1.37c.54-.57,1.06-1.16,1.63-1.7.74-.68,1.51-1.32,2.29-2a33.27,33.27,0,0,0,4.65-4.67c.79-1,1.62-1.92,2.49-2.83a11,11,0,0,1,1.79-1.52,2,2,0,0,1,2.74.28,4.88,4.88,0,0,1,1.06,1.54,19.65,19.65,0,0,1,.76,2.61c.15.61.25.68.8.33a3.52,3.52,0,0,0,1.54-2.18,5.71,5.71,0,0,0,0-2.52A7.72,7.72,0,0,0,113,76.83a9.31,9.31,0,0,0-1.79-1.49c-.57-.39-.6-.33-.33-1,.54-1.31,1.1-2.6,1.6-3.92a8.33,8.33,0,0,0,.49-3.89c-.17-1.53-.43-1.68-1.83-1.08a6.67,6.67,0,0,0-3.29,3c-.51.93-.91,1.93-1.33,2.91a10.93,10.93,0,0,0-.52,1.51c-1.19,4.51-4,7.94-7.46,10.85a37.56,37.56,0,0,1-15.1,7.42,46.81,46.81,0,0,1-15.34,1.17A46.33,46.33,0,0,1,55.35,89.6a22.52,22.52,0,0,1-8.47-5.32,14.68,14.68,0,0,1-3.74-6.67c-.25-1-.27-1.05.75-1.29a53.27,53.27,0,0,1,5.53-1.14c3.27-.42,6.56-.65,9.84-1a36.53,36.53,0,0,0,7.84-1.54c.76-.26,1.06,0,.87.8a5.54,5.54,0,0,1-.59,1.27c-.25.47-.59.9-.81,1.38-.32.7-.2.87.54.75a14.37,14.37,0,0,0,2-.49,12.28,12.28,0,0,0,5.59-3.85,28.35,28.35,0,0,0,3.75-6c1-1.94,1.89-3.9,2.87-5.83.42-.84.92-1.65,1.4-2.46A15.77,15.77,0,0,1,92.06,51,30.1,30.1,0,0,1,103.53,50,22.24,22.24,0,0,1,112,52.31a25,25,0,0,1,6.45,5c.76.79,1.5,1.61,2.22,2.44,3.12,3.58,6.24,7.15,9.33,10.76,1.35,1.57,2.62,3.22,3.93,4.82.92,1.12,1.8,2.27,2.78,3.32a9.59,9.59,0,0,0,5.83,3.21,10.11,10.11,0,0,0,3.37-.18c.53-.11.62-.27.31-.69a22.46,22.46,0,0,0-2-2.46c-.89-.89-1.9-1.65-2.84-2.48s-1.61-1.41-2.36-2.16a9.26,9.26,0,0,1-1.16-1.48c-.55-.85-.5-.92.49-1.05,5.86-.77,11.74-1.27,17.65-1.54,5.72-.26,11.44-.28,17.16-.07,6.28.22,12.54.77,18.77,1.59a183.26,183.26,0,0,1,29.26,6.26,143.25,143.25,0,0,1,32.72,14.31,103.3,103.3,0,0,1,15.41,11.3c.91.81.89,1-.26,1.46-.58.24-1.2.37-1.79.58a7,7,0,0,0-1.28.58c-.47.29-.48.58,0,.84a4.37,4.37,0,0,0,1.67.53,18.8,18.8,0,0,0,3.11-.06,10.29,10.29,0,0,1,3.91.39,45.59,45.59,0,0,1,8.25,3.44,82.38,82.38,0,0,1,10.64,6.42,22.49,22.49,0,0,1,5.82,6,10.45,10.45,0,0,1,1.61,3.79,5,5,0,0,1-1.64,4.85,9.73,9.73,0,0,1-3.32,1.94,21.79,21.79,0,0,1-6.07,1.27,59.47,59.47,0,0,1-22-2.59c-1.11-.34-2.16-.86-3.24-1.28a1.28,1.28,0,0,1-.85-1.2,52,52,0,0,0-4.3-15.65,34.94,34.94,0,0,0-11.17-13.75,4.66,4.66,0,0,0-.79-.38,3.77,3.77,0,0,0,.26.87c.56,1,1.16,1.94,1.76,2.9s1.36,2,2,3.09a9.63,9.63,0,0,1,1.38,4.55c0,.43,0,.87-.09,1.48Z" transform="translate(-0.59 -43.95)"/><path class="b" d="M325.87,182.58a10.08,10.08,0,0,0-1.34.31,1.42,1.42,0,0,0-1,1.45,1.3,1.3,0,0,0,.93,1.36,4.6,4.6,0,0,0,1.36.31,2.37,2.37,0,0,0,1.95-.74,1.42,1.42,0,0,0-.7-2.45c-.36-.1-.74-.14-1.23-.23ZM236,170.77a3.15,3.15,0,0,0,2-.58,1.39,1.39,0,0,0,.37-1.92,2.94,2.94,0,0,0-4.45,0,1.29,1.29,0,0,0,.29,1.91,3.08,3.08,0,0,0,1.77.62Zm87.57,2.49a7.85,7.85,0,0,0-1.34.37,2.06,2.06,0,0,0-.66,3.19,2.88,2.88,0,0,0,2.91.86,2.68,2.68,0,0,0,2.16-2,1.17,1.17,0,0,0-.34-1.28,4.23,4.23,0,0,0-2.74-1.15Zm-54.28-6.92a3.45,3.45,0,0,0-1.85.6,2.1,2.1,0,0,0,.1,3.65,4.19,4.19,0,0,0,3.71.22,3,3,0,0,0,1.58-1.27,1.45,1.45,0,0,0-.25-2.1,4.38,4.38,0,0,0-3.29-1.11Zm-23.1,11.38h0a7.07,7.07,0,0,0,1.13,0,1.47,1.47,0,0,0,.81-.36,2.7,2.7,0,0,0-1.77-4.89,2.8,2.8,0,0,0-.75,0,2.53,2.53,0,0,0-2.35,2.86c0,1,.69,1.5,1.23,2.13.39.46.94.19,1.42.26a2.1,2.1,0,0,0,.28,0Zm37.31-2.66a9.35,9.35,0,0,0-3.63.63,3,3,0,0,0-1.91,2.79,3,3,0,0,0,1.76,3,6,6,0,0,0,1.87.58,5.09,5.09,0,0,0,3.84-.92,2.93,2.93,0,0,0,1.08-3.59c-.75-1.33-1.65-2.64-3-2.46ZM125.89,196.4a25.3,25.3,0,0,0,2-2c1-1.21,1.82-2.48,2.71-3.74A67.73,67.73,0,0,1,151,171.25c.86-.52,1.76-1,2.64-1.45a7,7,0,0,1,.68-.27c-.26,1.33-.55,2.55-.73,3.78-.39,2.74-.81,5.47-1,8.22-.38,4.54-.62,9.09-.92,13.64a9,9,0,0,0,0,.94,1.33,1.33,0,0,0,.15.39c.13-.07.32-.11.38-.22.23-.41.43-.83.62-1.26.31-.68.61-1.36.89-2.06a6.28,6.28,0,0,0,.28-1c1.32-5.91,2.56-11.85,4-17.74a94.78,94.78,0,0,1,6.05-17.91,40.74,40.74,0,0,1,6-9.57,22.59,22.59,0,0,1,5.33-4.6,16.66,16.66,0,0,1,7.3-2.3,44.86,44.86,0,0,1,20,3,127.13,127.13,0,0,1,15.92,7.52c4.92,2.66,9.8,5.39,14.88,7.74a70.52,70.52,0,0,0,15.48,5.29c.83.17,1.67.31,2.5.44.12,0,.26-.08.39-.12-.05-.11-.08-.25-.16-.32a21.11,21.11,0,0,0-1.92-1.34c-.93-.53-1.91-1-2.86-1.45a16,16,0,0,1-1.72-1,11.67,11.67,0,0,1-1.52-1.26,5.09,5.09,0,0,1-.61-.93,9.5,9.5,0,0,1,1.05-.21,130.1,130.1,0,0,0,22.2-3.55c1.21-.32,2.42-.68,3.63-1,.45-.12.51-.07.36.38a5.08,5.08,0,0,0,1.55,5.48,11.85,11.85,0,0,0,5.23,3.07c2,.56,4,1.07,6,1.44a33.46,33.46,0,0,1,11.76,4.64c2,1.23,3.9,2.54,5.89,3.74,1.58,1,3.22,1.82,4.85,2.71a8.6,8.6,0,0,0,1.22.49c.74.26.77.26,1.05-.44a9.55,9.55,0,0,0,.59-4.63,39.18,39.18,0,0,0-1.33-6c-.36-1.36-.62-2.75-.93-4.13a2.44,2.44,0,0,1,0-.28c-.1-.92,0-1,.87-.77a47.25,47.25,0,0,1,8.88,3.37,52.37,52.37,0,0,1,17.82,14.11,38.47,38.47,0,0,1,3,4.33,16.47,16.47,0,0,1,2.48,9.52,7.92,7.92,0,0,1-1.85,4.84,1.19,1.19,0,0,1-1,.52c-4.58-.24-9.18-.36-13.67-1.38a28.37,28.37,0,0,1-4.46-1.47,14.22,14.22,0,0,1-2.66-1.59,6.32,6.32,0,0,1-2.44-3.27,5,5,0,0,0-1.26-2.18c-.51-.47-.6-.46-1,.1a29.92,29.92,0,0,1-16.43,11,35.5,35.5,0,0,1-17,.65,1.35,1.35,0,0,1-1-.71c-.91-1.65-1.83-3.29-2.74-4.95-.45-.83-.88-1.67-1.3-2.51a34.7,34.7,0,0,0-7.17-9.63c-1.64-1.56-3.3-3.1-5-4.64-.53-.49-.55-.48-1,0a7,7,0,0,0-1.45,2.51,38.67,38.67,0,0,0-1.33,6c-.27,1.39-.56,2.77-.93,4.13a10.76,10.76,0,0,1-1.72,3.44,3.69,3.69,0,0,1-3.89,1.5,9.91,9.91,0,0,1-3.65-1.47,32.12,32.12,0,0,1-5.86-4.87c-3.6-3.64-7.24-7.25-11.11-10.61a94.57,94.57,0,0,0-18.54-12.87,59.4,59.4,0,0,0-17.87-6,35.52,35.52,0,0,0-15.23.51c-1.38.38-2.7,1-4.05,1.52a.74.74,0,0,0-.57.77c0,.42.31.58.64.72.92.39,1,.45.63,1.39a67.54,67.54,0,0,0-3.07,15,114.32,114.32,0,0,0-.37,16.48,141.05,141.05,0,0,0,1.77,16.86c1.36,8.22,3.34,16.3,5.28,24.39,1.79,7.45,3.56,14.9,4.93,22.45q1.14,6.31,1.82,12.68a108.74,108.74,0,0,1,.5,15.53,39.48,39.48,0,0,1-1.94,11.1c-2.9,8.62-8.76,14.19-17.41,16.87a42.8,42.8,0,0,1-10.29,1.73,63.84,63.84,0,0,1-11.76-.47,48.12,48.12,0,0,1-14.46-4.39A75.85,75.85,0,0,1,113,299a158.17,158.17,0,0,1-16.74-16.16A52.73,52.73,0,0,1,86.65,268a43.47,43.47,0,0,1-3.29-13.2,70.38,70.38,0,0,1,6.69-36.08,86.17,86.17,0,0,1,10.11-16.43,171.73,171.73,0,0,1,29.28-29.91A112.38,112.38,0,0,1,157,156.16l1-.38c.39-.14.43,0,.34.36-.49,1.75-.94,3.52-1.47,5.26a1.8,1.8,0,0,1-.74.79,107.4,107.4,0,0,0-9.3,7.08,84,84,0,0,0-20.42,25.65c-.17.33-.33.68-.48,1,0,0,0,.11,0,.45Z" transform="translate(-0.59 -43.95)"/><path class="b" d="M355.63,236.53c-.11-.59-.15-1-.24-1.32a17.43,17.43,0,0,0-6.55-10.06,39.06,39.06,0,0,0-7.89-4.57c-2.65-1.22-5.33-2.39-8-3.59-1-.45-1-.61-.39-1.49a3.75,3.75,0,0,1,2.94-1.45,22.94,22.94,0,0,1,2.45,0,78.59,78.59,0,0,0,9.8-.19,33.7,33.7,0,0,0,9.27-2,12.28,12.28,0,0,0,1.9-1,1,1,0,0,1,1.07,0c1.35.67,2.74,1.27,4,2.06a38.82,38.82,0,0,1,6.29,5.1,46.68,46.68,0,0,1,7.21,8.32A25.66,25.66,0,0,1,381.58,237a21,21,0,0,1,0,5.64,9,9,0,0,1-3.83,6.24,17.45,17.45,0,0,1-7,2.75,50.58,50.58,0,0,1-12.87.51c-8.77-.54-17.12-2.94-25.4-5.65-5.85-1.91-11.7-3.82-17.58-5.63a91.56,91.56,0,0,0-15-3.27c-2.74-.36-5.5-.61-8.25-.77q-5-.3-10.08-.11a104.76,104.76,0,0,0-22.51,3.36c-4.2,1.09-8.32,2.44-12.38,3.94-.26.1-.52.21-.78.33,0,0-.07.09-.17.23.5.06,1,.16,1.41.18a124.68,124.68,0,0,0,12.53-.25,111.9,111.9,0,0,1,12.53-.23c1.84.1,3.68.43,5.51.7.84.13.94.38.32,1a8.52,8.52,0,0,1-2.11,1.54,89.9,89.9,0,0,0-9.34,5.49,57.57,57.57,0,0,0-8.44,6.47q-.31.29-.6.6s0,.12-.07.3c.43-.15.81-.26,1.16-.41l12.06-5.1a83.82,83.82,0,0,1,13.72-4.68,68.11,68.11,0,0,1,15.87-1.86,26.67,26.67,0,0,1,12.24,3c2.26,1.17,4.51,2.36,6.77,3.53a31.51,31.51,0,0,0,8.71,3.23c.86.16,1.74.23,2.62.31s.87.08.67.89A46.29,46.29,0,0,1,312.93,286a74.25,74.25,0,0,1-18.85,9.76c-3.42,1.23-6.93,2.22-10.41,3.32-.19.06-.4.08-.81.16l2.31-2.36a49.57,49.57,0,0,0,6.07-7.32,28.85,28.85,0,0,0,4-9.39,6,6,0,0,0,.06-1,5.62,5.62,0,0,0-.86.52c-1,.91-2.13,1.77-3.09,2.77a55.47,55.47,0,0,1-13.54,10,106.54,106.54,0,0,1-22.61,9,158.16,158.16,0,0,1-19.9,4.19c-5.19.77-10.41,1.32-15.64,1.7-5,.36-9.91.59-14.88.59-4.4,0-8.8,0-13.2-.13-2.07,0-4.14-.2-6.21-.3-.93,0-.94,0-.55-.86a46.16,46.16,0,0,0,3.29-9.41,71.22,71.22,0,0,0,1.61-10.13,88.75,88.75,0,0,0,.3-11.58,112.72,112.72,0,0,0-6.74-35.29c-.06-.17-.12-.35-.23-.7a9.14,9.14,0,0,1,1,.41c1.21.67,2.39,1.39,3.6,2.05,1.38.75,2.74,1.55,4.18,2.15a17.38,17.38,0,0,0,10.28.72,38.13,38.13,0,0,0,11.95-4.72A102,102,0,0,0,225.64,232a118.21,118.21,0,0,1,12.92-9.14,58,58,0,0,1,18.66-7.36c3-.57,6-.95,9-1.27a109.17,109.17,0,0,1,15.73-.48c5,.18,9.92.49,14.87.84,3.32.24,6.64.54,9.94,1,17.83,2.38,34,8.67,47.93,20.3.23.19.48.36.9.68Z" transform="translate(-0.59 -43.95)"/><path class="b" d="M298.71,299.6a8.51,8.51,0,0,1,2.91-1.82A102.72,102.72,0,0,0,318,289.24a72.56,72.56,0,0,0,18.92-17.39,61.9,61.9,0,0,0,5.94-9.72c.42-.85.42-.83,1.36-.66,3.18.56,6.36,1.2,9.56,1.64a54.33,54.33,0,0,0,5.83.27c.77,0,.8,0,.74.75-.85,9.93-5,18-13.47,23.57a51,51,0,0,1-13.65,6,105.9,105.9,0,0,1-14.72,3.18c-6.15.9-12.32,1.68-18.48,2.51l-1.28.17Z" transform="translate(-0.59 -43.95)"/><path class="b" d="M210.64,52.73a38.35,38.35,0,0,1,11.06,1.66,14.78,14.78,0,0,1,9.1,7.82c1,2,1.66,4.06,2.46,6.11.58,1.49,1.08,3,1.72,4.48a12.27,12.27,0,0,0,4.25,5.42,1.74,1.74,0,0,1,.29.33,1.76,1.76,0,0,1-.41.13,3.06,3.06,0,0,1-1.87-.55c-.72-.45-1.42-.92-2.1-1.43a6.62,6.62,0,0,0-3.53-1.43,2.93,2.93,0,0,1-2.11-1.13,25.75,25.75,0,0,1-1.66-2.39c-.61-1-1.13-2-1.76-3a4.9,4.9,0,0,0-2.57-2.12,1.09,1.09,0,0,0-1.59.68,3.68,3.68,0,0,0-.11,2.31c.15.77.35,1.53.53,2.29a4,4,0,0,1,.1.46c.08.71,0,1-.85.67a139.68,139.68,0,0,0-24.19-6.37c-2.6-.46-5.21-.81-7.82-1.22l-.47-.07c-.42,0-.59-.26-.59-.68a7.72,7.72,0,0,1,.8-3.55,9.93,9.93,0,0,1,2.75-3.31,21.11,21.11,0,0,1,7.5-3.62,42.45,42.45,0,0,1,11.06-1.48Z" transform="translate(-0.59 -43.95)"/><path class="c" d="M203.23,215.47a15.79,15.79,0,0,1,5-11.86c1.36-1.35,2.84-2.57,4.28-3.83,1.16-1,2.35-2,3.51-3a.43.43,0,0,1,.63-.06A60.87,60.87,0,0,1,227.57,205a26.46,26.46,0,0,1,3.84,4.87,2.29,2.29,0,0,1,.36,1,19.25,19.25,0,0,1-1.93,9.49c-2.47,4.9-6.9,7.31-12.68,6.65a18.17,18.17,0,0,1-10.44-5.18c-1-1-1.9-2.09-2.84-3.13a2.41,2.41,0,0,1-.64-1.81c0-.47,0-.94,0-1.41Z" transform="translate(-0.59 -43.95)"/><path class="c" d="M212.76,186.06a11.42,11.42,0,0,1-1.51,5.66A21.15,21.15,0,0,1,207,197c-1.29,1.24-2.62,2.44-3.92,3.67a23.22,23.22,0,0,0-4.12,4.88c-.26.44-.48.45-.88.19a26.68,26.68,0,0,1-11-16.6,16.17,16.17,0,0,1,.74-8.44,6.48,6.48,0,0,1,2.75-3.36,12.43,12.43,0,0,1,5-1.68,20.89,20.89,0,0,1,10.28,1.12,17.62,17.62,0,0,1,2.38,1.12,8.5,8.5,0,0,1,4.44,6.92c.05.47.07.94.09,1.22Z" transform="translate(-0.59 -43.95)"/><path class="b" d="M222.23,147.83c.8,0,1.61-.07,2.41-.08a93.6,93.6,0,0,1,9.69.55,50.93,50.93,0,0,0,10.44.12,19,19,0,0,0,8.22-2.8c1.59-1,3.13-2.11,4.68-3.17a16.88,16.88,0,0,1,6.65-3,27.8,27.8,0,0,1,3.65-.34,44.29,44.29,0,0,1,10.67.93,24.6,24.6,0,0,1,6,2.39c1.2.61,2.41,1.21,3.62,1.81a15.49,15.49,0,0,0,4.79,1.32,12.58,12.58,0,0,1,9.76,6.6,2.23,2.23,0,0,1,.17.33c.05.14.08.3.11.44a1.6,1.6,0,0,1-.53.05c-1.52-.38-3-.76-4.55-1.19-3.71-1.05-7.41-2.18-11.13-3.19a40.57,40.57,0,0,0-10.8-1.46A29.14,29.14,0,0,0,265.88,149c-2.82,1.06-5.61,2.21-8.45,3.22a30,30,0,0,1-12.35,1.5A76.08,76.08,0,0,1,224.87,149c-.77-.27-1.53-.56-2.3-.85a3.52,3.52,0,0,1-.38-.19l0-.14Z" transform="translate(-0.59 -43.95)"/><path class="c" d="M40.45,179.69a14.5,14.5,0,0,1-1.1,6,12.18,12.18,0,0,1-.76,1.51c-1.75,2.95-4.43,4-7.73,3.83a11.41,11.41,0,0,1-5.36-1.92,27.39,27.39,0,0,1-4.67-3.8,85,85,0,0,0-7.09-6.21c-1-.82-2-1.74-2.95-2.64a11.09,11.09,0,0,1-.92-1.07c-.15-.19-.13-.34.11-.43l.09,0c3.33-1.13,6.65-2.29,10-3.38a58.3,58.3,0,0,1,8.62-2.38,26.15,26.15,0,0,1,4.12-.32,6.44,6.44,0,0,1,5.48,3,13,13,0,0,1,2.16,6.64c0,.41,0,.82,0,1.22Z" transform="translate(-0.59 -43.95)"/><path class="c" d="M60.56,266.12c-.1,1.29-.21,2.22-.24,3.16a1,1,0,0,1-.77,1,20.81,20.81,0,0,1-7.15,1.51,41.82,41.82,0,0,1-11.56-1.41c-3.78-.92-7.54-1.92-11.32-2.88-.58-.15-.6-.18-.24-.63.61-.76,1.22-1.52,1.9-2.22,2.41-2.47,4.84-4.94,7.3-7.36a23.06,23.06,0,0,1,4.88-3.68,12.81,12.81,0,0,1,4.4-1.6,9.77,9.77,0,0,1,8.31,2.7,13.1,13.1,0,0,1,4,7.43c.28,1.41.37,2.86.5,4Z" transform="translate(-0.59 -43.95)"/><path class="c" d="M198.26,216.82a14.46,14.46,0,0,1-1.25,5.95,8.46,8.46,0,0,1-6,5,9.91,9.91,0,0,1-10-3.71,20,20,0,0,1-2.83-6.63,75.44,75.44,0,0,1-1.55-9.18,1.79,1.79,0,0,1,.23-1.26,34.92,34.92,0,0,1,6.48-7.79c.77-.68.64-.61,1.38,0a51.49,51.49,0,0,1,7.83,8c1.71,2.13,3.32,4.34,5,6.49a2.71,2.71,0,0,1,.64,1.81c0,.44,0,.88.07,1.32Z" transform="translate(-0.59 -43.95)"/><path class="c" d="M207.84,322.91a23,23,0,0,1-1.1,6.48c-1,3.15-2,6.27-3,9.42-.16.52-.4.44-.75.24-2.11-1.24-4.27-2.41-6.32-3.74-2.64-1.71-5.21-3.51-7.77-5.33a28.28,28.28,0,0,1-3.4-2.82,4.21,4.21,0,0,1-.59-5.94,10.44,10.44,0,0,1,2.05-2.31,18.79,18.79,0,0,1,13-4.39,10.58,10.58,0,0,1,3.2.7,6.88,6.88,0,0,1,4.61,6.11c.06.53.06,1.07.08,1.6Z" transform="translate(-0.59 -43.95)"/><path class="c" d="M102.56,322.76c.11-2.76.19-5.52.34-8.28.08-1.44.28-2.87.4-4.31a1.29,1.29,0,0,1,.83-1.14,11.25,11.25,0,0,1,6-.92,20.47,20.47,0,0,1,9.37,3.15,18,18,0,0,1,2.77,2.24,8.38,8.38,0,0,1,1.49,2,5.15,5.15,0,0,1-.16,5.38,11.22,11.22,0,0,1-2.89,3.07,26.29,26.29,0,0,1-5.91,3.29c-1.73.73-3.5,1.38-5.25,2.09-2.21.9-4.41,1.81-6.61,2.73-.61.25-.62.26-.6-.39q.14-4.47.3-8.94Z" transform="translate(-0.59 -43.95)"/><path class="c" d="M343.16,209.65c-1.38-.09-2.76-.16-4.14-.27-1-.07-1-.1-.54-.95,1.56-2.9,3.17-5.79,4.68-8.72a64.59,64.59,0,0,0,6.15-16.65c.45-2.18.7-4.4,1-6.6.09-.58.19-.65.69-.32a1.7,1.7,0,0,1,.47.45,42.21,42.21,0,0,1,6.34,13.28,24.12,24.12,0,0,1,.64,9.71,10.5,10.5,0,0,1-7,8.73,21.3,21.3,0,0,1-6.54,1.26c-.59,0-1.19,0-1.79,0v.07Z" transform="translate(-0.59 -43.95)"/><path class="c" d="M207.06,137.78l-1.16-.31c-3.6-1-7.19-2.06-10.82-2.91a52.27,52.27,0,0,0-16.65-1.34,1.47,1.47,0,0,1-1.67-1,15.35,15.35,0,0,1-1.81-9.09,11.1,11.1,0,0,1,.8-2.39A1.28,1.28,0,0,1,177,120a31.39,31.39,0,0,1,15,2.43c2.94,1.25,5.79,2.73,8.7,4.07,1.88.87,3.78,1.71,5.67,2.55.66.29.72.36.29.91a4.18,4.18,0,0,1-1.15,1.1,2.69,2.69,0,0,0-.23,4.58,10.64,10.64,0,0,1,1,.95c.3.31.56.66.83,1l-.12.21Z" transform="translate(-0.59 -43.95)"/><path class="c" d="M216.89,190.37a24.33,24.33,0,0,1,1.86-7.63,11.43,11.43,0,0,1,3.56-4.55c.8-.59.8-.6,1.64-.09a48.62,48.62,0,0,1,10.21,8.3c2.06,2.16,4,4.45,6,6.65a1.12,1.12,0,0,1,.18,1.49,20.63,20.63,0,0,1-3.49,4.66c-1.07,1.11-2.16,2.2-3.23,3.3-.24.25-.45.39-.81.22-5.89-2.75-11.37-6.06-15.47-11.26-.25-.31-.58-.6-.44-1.1Z" transform="translate(-0.59 -43.95)"/><path class="c" d="M270.91,199.25a15.39,15.39,0,0,1-2.13,8.2,1,1,0,0,1-1.12.59,28.54,28.54,0,0,0-8.35.33c-2.42.39-4.82.86-7.23,1.3-.19,0-.37.08-.56.09s-.38,0-.28-.31.16-.48.26-.71q2.23-5.35,4.46-10.69a62.51,62.51,0,0,0,4-12.25c.25-1.26.41-2.54.62-3.81.12-.72.32-.85.91-.41a21.88,21.88,0,0,1,2.65,2.25A24.34,24.34,0,0,1,270.69,197c.14.87.17,1.75.21,2.24Z" transform="translate(-0.59 -43.95)"/><path class="b" d="M77.6,228.22c0,.75,0,1.51,0,2.26,0,.33-.15.47-.48.31l-.67-.35a26.87,26.87,0,0,1-9.27-8.68A39.3,39.3,0,0,1,61.29,207a29.36,29.36,0,0,1-.53-6.93c0-.59.11-1.19.19-1.78,0-.28.19-.38.46-.26s.41.15.61.25c2,1,4,2,5.95,3s4.11,2.43,6.17,3.63a1.26,1.26,0,0,1,.68,1c.52,3.86,1.12,7.7,1.61,11.56.46,3.55.82,7.11,1.22,10.66Z" transform="translate(-0.59 -43.95)"/><path class="c" d="M48.29,107.63a46.12,46.12,0,0,1,14.12,2A1.94,1.94,0,0,1,63.83,111c1.28,4.13-.13,9.72-4.43,12.31a14.64,14.64,0,0,1-4,1.81,3,3,0,0,1-3.6-1.3c-.73-1.17-1.5-2.33-2.13-3.55a95.6,95.6,0,0,1-5-11.9c-.25-.7-.24-.75.49-.78,1,0,2.07,0,3.11,0Z" transform="translate(-0.59 -43.95)"/><path class="c" d="M300.21,208.09a14.88,14.88,0,0,1-4.65-.6,1,1,0,0,1-.88-.93,8.67,8.67,0,0,1,2.75-8.29,13.44,13.44,0,0,1,7.34-3.36,15.8,15.8,0,0,1,7.08.54,1.29,1.29,0,0,1,1,1.15,8.24,8.24,0,0,1-2.73,7.91,14,14,0,0,1-8.63,3.57c-.44,0-.88,0-1.32,0Z" transform="translate(-0.59 -43.95)"/><path class="c" d="M235.84,211a9.48,9.48,0,0,1,.88-3.73,28.82,28.82,0,0,1,4.84-7.6c1-1.18,2.2-2.23,3.29-3.36a1.38,1.38,0,0,1,1.71-.3c1.07.46,2.15.89,3.22,1.32.28.11.39.24.31.56-.89,3.49-1.5,7.07-2.91,10.41a18.06,18.06,0,0,1-1.85,3.37,7.68,7.68,0,0,1-5.23,3.23c-2.45.39-4-.86-4.23-3.34,0-.22,0-.44,0-.57Z" transform="translate(-0.59 -43.95)"/><path class="c" d="M325.65,197.49a13.25,13.25,0,0,1,5.89,1.17,5.66,5.66,0,0,1,2.63,2.2,2.19,2.19,0,0,1,.34,1.22A15.28,15.28,0,0,1,334,205a13.6,13.6,0,0,1-4.56,6.77,6.43,6.43,0,0,1-3.12,1.46,5.23,5.23,0,0,1-1.67,0c-1.68-.32-1.85-.52-1.92-2.19A55.82,55.82,0,0,0,320.94,199c-.17-.63-.16-.65.48-.84a13.45,13.45,0,0,1,4.23-.62Z" transform="translate(-0.59 -43.95)"/><path class="c" d="M183.06,186a16,16,0,0,1-3.87,10.08,7,7,0,0,1-2.9,2c-.57.2-.65.18-.75-.42-.26-1.61-.57-3.22-.7-4.84a44.62,44.62,0,0,1,.49-12.1,22,22,0,0,1,.59-2.27c.27-.88.32-.91,1.19-.76a6.44,6.44,0,0,1,5,3.7,11.05,11.05,0,0,1,.92,4.58Z" transform="translate(-0.59 -43.95)"/><path class="c" d="M316.55,210.94a24.37,24.37,0,0,1-6.3-1c-2-.69-1.73-.67-.55-1.94a27.53,27.53,0,0,1,2.8-2.5,23.76,23.76,0,0,0,3.93-3.63c.27-.34.52-.32.77,0a5.7,5.7,0,0,1,.9,1.19,9.23,9.23,0,0,1,.58,6.77c-.34,1.17-.37,1.16-1.56,1.13Z" transform="translate(-0.59 -43.95)"/><path class="c" d="M280.73,199.57c.34,0,.69,0,1,.07.65.09.75.23.64.86a4.73,4.73,0,0,1-1.36,2.63,8.75,8.75,0,0,1-5.23,2.33c-.49.06-.73-.14-.75-.59a7.24,7.24,0,0,1,0-1.67,20,20,0,0,1,.69-2.44.79.79,0,0,1,.48-.46c1.47-.3,3-.56,4.43-.83l0,.1Z" transform="translate(-0.59 -43.95)"/><path class="c" d="M225.17,142.77c-.76-.08-2-.15-3.18-.35a6.13,6.13,0,0,1-1.54-.67c-.1,0-.16-.18-.23-.28.11-.08.22-.2.34-.22,2-.38,3.94-.81,5.92-1.11a19.73,19.73,0,0,1,7.21.24,5.48,5.48,0,0,1,.64.16c.26.09.51.21.76.31-.21.26-.37.63-.64.75a7.6,7.6,0,0,1-2.14.65c-2.22.22-4.45.33-7.14.52Z" transform="translate(-0.59 -43.95)"/><path class="c" d="M290,206.07c-1-.15-2-.36-3.08-.45-.87-.08-1.74,0-2.62,0h-.46a2,2,0,0,1,.12-.5,7,7,0,0,1,2.08-2.28,17.25,17.25,0,0,1,3.95-2c.39-.15.58-.05.72.31a15.55,15.55,0,0,1,.86,4.33c0,.14-.21.38-.36.43a8.4,8.4,0,0,1-1.21.17Z" transform="translate(-0.59 -43.95)"/><path class="a" d="M283,174.49c1.37-.18,2.27,1.13,3,2.46a2.93,2.93,0,0,1-1.08,3.59,5.09,5.09,0,0,1-3.84.92,6,6,0,0,1-1.87-.58,3,3,0,0,1-1.76-3,3,3,0,0,1,1.91-2.79,9.35,9.35,0,0,1,3.63-.63Z" transform="translate(-0.59 -43.95)"/><path class="a" d="M245.72,177.14a2.1,2.1,0,0,1-.28,0c-.48-.07-1,.2-1.42-.26-.54-.63-1.21-1.15-1.23-2.13a2.53,2.53,0,0,1,2.35-2.86,2.8,2.8,0,0,1,.75,0,2.7,2.7,0,0,1,1.77,4.89,1.47,1.47,0,0,1-.81.36,7.07,7.07,0,0,1-1.13,0Z" transform="translate(-0.59 -43.95)"/><path class="a" d="M268.82,165.76a4.38,4.38,0,0,1,3.29,1.11,1.45,1.45,0,0,1,.25,2.1,3,3,0,0,1-1.58,1.27,4.19,4.19,0,0,1-3.71-.22,2.1,2.1,0,0,1-.1-3.65,3.45,3.45,0,0,1,1.85-.6Z" transform="translate(-0.59 -43.95)"/><path class="a" d="M323.1,172.68a4.23,4.23,0,0,1,2.74,1.15,1.17,1.17,0,0,1,.34,1.28,2.68,2.68,0,0,1-2.16,2,2.88,2.88,0,0,1-2.91-.86,2.06,2.06,0,0,1,.66-3.19,7.85,7.85,0,0,1,1.34-.37Z" transform="translate(-0.59 -43.95)"/><path class="a" d="M235.54,170.19a3.08,3.08,0,0,1-1.77-.62,1.29,1.29,0,0,1-.29-1.91,2.94,2.94,0,0,1,4.45,0,1.39,1.39,0,0,1-.37,1.92,3.15,3.15,0,0,1-2,.58Z" transform="translate(-0.59 -43.95)"/><path class="a" d="M325.44,182c.5.09.87.13,1.23.23a1.42,1.42,0,0,1,.7,2.45,2.37,2.37,0,0,1-1.95.74,4.6,4.6,0,0,1-1.36-.31,1.3,1.3,0,0,1-.93-1.36,1.42,1.42,0,0,1,1-1.45,10.08,10.08,0,0,1,1.34-.31Z" transform="translate(-0.59 -43.95)"/><path class="d" d="M64.39,104.47c.08-.87,1-2.14,2.74-4.63a16.18,16.18,0,0,1,2.32-2.95c1.66-1.21,2.9-.58,7-.84,4.93-.32,6.52-1.48,8.22-.21a3.45,3.45,0,0,1,1.47,2.74c-.1,1.49-1.65,2-4.63,4.42-2.6,2.14-2,2.23-4.85,4.63a20.67,20.67,0,0,0-4.21,4.63c-1.14,1.49-1.92,3.38-2.61,3.4S70.09,112,68,109c-.75-1.09-3.88-2.16-3.66-4.56Z" transform="translate(-0.59 -43.95)"/><path class="d" d="M45.84,123.24a18.91,18.91,0,0,0,1.66,2.62,10.07,10.07,0,0,0,2.13,1.66,11.09,11.09,0,0,0,2.61.79c.53.08,2.22.24,2.76.24.9,0,2.1-.18,3-.24a18.34,18.34,0,0,1,2.84-.4,4.42,4.42,0,0,1,.87.4s-2.51,4.28-3.34,5.66c-1,1.6-2.92,4.62-3.82,6.27-.71,1.31-2.4,3.78-3,5.13a69.36,69.36,0,0,0-3.05,6.29c-.42,1.31-1.22,4.65-1.47,6a47.68,47.68,0,0,0-.74,7.27,39.86,39.86,0,0,0,1.05,6.53c.33,1.3,1.19,4,1.69,5.27.61,1.52,2,4.65,2.74,6.11,1.19,2.34,5.14,5.75,5.9,8.27.26.88-.65,2.7-.74,3.62-.14,1.53-1.19,4.8-1.26,6.33a39.84,39.84,0,0,0,1.16,8.64A69.31,69.31,0,0,0,61,221.49a47,47,0,0,0,6.53,8.79c1.2,1.16,4.36,2.51,5.69,3.53,1.09.84,3.47,2.52,4,3.79.94,2.18,0,7.11,0,9.48a80.24,80.24,0,0,0,0,8.22A67.94,67.94,0,0,0,80,265a72.27,72.27,0,0,0,3.79,9.06,85.25,85.25,0,0,0,8.43,11.38c1.81,2,6.05,5.32,8,7.16,2.33,2.2,7.2,6.63,9.69,8.64,1.22,1,5.43,3.2,4.63,3.79-1.14.84-3.79-.53-5.48-.53a36.89,36.89,0,0,0-5.48.53A7.75,7.75,0,0,0,100.2,307,13,13,0,0,0,99,310.5c-.18.85-.32,3.36-.32,3.36s-7.3-3.74-9.8-4.94a127.23,127.23,0,0,1-11.48-6.21c-2.26-1.5-7.29-4.61-9.48-6.21-2-1.45-6-4.22-7.91-5.8-2.65-2.22-7.9-7-10.31-9.48-1.35-1.39-5.51-4.23-4.29-5.48.46-.48,8.5,1.46,12.05.38,1.76-.53,4.88-1.12,7.51-4.28,1.11-1.33,1.92-5.69,1.85-7.42-.1-2.41-1.49-5.92-2.59-8.06a21.59,21.59,0,0,0-5.16-5.58,31.22,31.22,0,0,0-6.7-2.47,21.54,21.54,0,0,0-7-.38,30.81,30.81,0,0,0-5.29,1.9c-1.28.5-3.1,1.66-4.11.74-4.63-4.24-8.81-15.63-10.43-21.28-1.35-4.7-1.82-13.88-2.21-18.75-.29-3.59-.53-10.33-.53-13.93,0-.86.17-3.4.9-2.93a13,13,0,0,0,6.26,1.8,24.74,24.74,0,0,0,7-.69c1.49-.42,4.55-1.52,5.57-2.68,1.16-1.32,2-4.93,2.23-6.67a36,36,0,0,0,0-10,21.89,21.89,0,0,0-3.17-7,14.26,14.26,0,0,0-3.79-2.67,19.87,19.87,0,0,0-6.11-1.67,14.38,14.38,0,0,0-4.23.93c-.58.16-2.38.44-2.38.12C25.07,161.39,27,156.23,28,153a87.93,87.93,0,0,1,4-9.59c1.22-2.38,3.9-7,5.37-9.27s4.62-6.5,6.21-8.48c.61-.76,1.29-2.45,2.21-2.46Z" transform="translate(-0.59 -43.95)"/><path class="d" d="M126.9,312.55c.93-.38,4.57,1.44,6.11,1.88s6.11,1.6,6.43,1.7,9,1.21,12,1.37a76.12,76.12,0,0,0,11.64-1c1.33-.19,4.92-1.66,6.21-2,1.74-.49,4.58-1.83,6.32-2.3,1.5-.4,5-.92,6.53-1.26,1.93-.43,5.19-.34,7.16-.53,2.49-.23,8,.68,10.48.68,3.48,0,10.43.12,13.9,0,4.46-.16,11.84-1.34,16.27-1.84,4-.46,13-1.77,17-2.74,2.24-.55,7.12-1.48,9.32-2.16,2.8-.86,8.37-2.76,11.27-3.16.52-.07,3.65-1.3,4.16-1.42,6.16-1.53,1.26,2.42-.79,3.74-.86.55-2.46,1.85-3.37,2.32a92.24,92.24,0,0,1-10,3.58c-1.93.64-5.83,1.83-7.79,2.37s-5.87,2.2-7.9,2.72c-2.5.64-7.52,1.92-10,2.64-2.15.62-6.56,1.53-8.74,2-2,.44-5.8,1.65-7.79,2.11a8.72,8.72,0,0,1-3.58,0c-1.26-.48-1.65-3.72-2.53-4.74a13.48,13.48,0,0,0-2.53-2.7,26.57,26.57,0,0,0-3.9-1.61,29.26,29.26,0,0,0-3.82-.63,37.13,37.13,0,0,0-6.61.63,19.93,19.93,0,0,0-4.63,2,17.33,17.33,0,0,0-3.82,3,13.69,13.69,0,0,0-2.19,3,13.23,13.23,0,0,0-.95,4,12.65,12.65,0,0,0,.95,3.48c.39.87,1.32,2.3.63,2.95s-3.48.36-6.53,1.05a37.32,37.32,0,0,1-8.11,1c-2.58,0-7.22.47-9.8.47-1.91,0-7.07-.54-10.22-.89-2.16-.24-8.49-.71-10.64-1a76.75,76.75,0,0,1-8.53-1.9c-1.1-.33-5.16-1.16-5.16-1.69a31.74,31.74,0,0,1,2.42-4.2,13,13,0,0,0,2.32-5.59c.31-3.39-2.11-5-1.21-5.32Z" transform="translate(-0.59 -43.95)"/></svg>