<svg id="Layer_1" data-name="Layer 1" xmlns="http://www.w3.org/2000/svg" viewBox="0 0 734.6 517.6"><title>Bulldog448_2c</title><path d="M120.9-135.8c32.4,21.8,59.8,15.9,89.8,23.8,23.3-9.7.7-29.5,4.3-50s20.9-31.1,41.1-28.7c11.6,1.4,29.3,16,21.1,25.4-9.4-18-49.7-16.6-43.3,16.2,1.6,8.1,7.2,13.3,9.5,22.2s1.6,22.2-8,28.1C281.8-74.5,287-3,324.9,6.7c41.3,10.5,2.3,58.7,35.2,110.2,21.2,33.1-10.8,30.1-16.8,58.6-1.9,25.5-26.5,34.1-40.8,21.1-3.8,9.4-19,12.5-27.8.9-3.1,4.9-12.9,6.1-19.3,0-27.8,5.8-25.4-63.4,15.3-55.7,2.9-7.1,7.5-13.2,17.5-16.2-2.9-16.5-11.9-32-25.6-34.6-28.3,10-55.8,15.8-78.1-10.3l-2.7.9c16.9,25.2-3.3,46.9-16.3,66.8-38.3,58.7-96.9,46.5-115.8,80.3C37.7,250.2,19,251,4.5,247.9c-16.2-3.4-23.9,14.4-48.5,10.3-8.8-1.5-13-3.4-17.1-13.5-12.9,1.2-21.9-3.9-24.7-18.9-20.9-5.9-7.5-37.2,4-50.7C-73.7,153.5-58.3,153-39,163a49,49,0,0,1,20.6-3.1c30.6-34.6,25.3-39.6,38.6-58.8a29.4,29.4,0,0,1-7.4-8.3c-19.9,14.9-66.2,17.7-103-3.4-42.7,12.5-77.4,3.6-105.7-22.2a149.1,149.1,0,0,1-56.1,35c11.6,17,18.1,32.8,15.3,46.2,17.5-3.2,29.7,3.1,39.9,13,36.9-20.2,65.6,50.4,22,51.2,1.3,9.1-16.5,18-29.2,14.8,0,9.3-12.7,14.3-26,11.4-5.7,17.5-35.4,27-56.1-6.7-13.8-14.5-38.4-8.2-41.4-43.7-23-84.5-50.7-80-35.5-113.3,23.4-51.3-1.5-79.1,95.4-165.8,9-16.1,23.3-28.7,39.5-39.9,6.4-29.9,33.4-63.8,63.3-80.3,45.9-25.5,115.8-76.6,197.9-26.9,41.3,25,58.2,68.4,87.8,102.1" transform="translate(367.3 258.8)" style="fill:#050000;fill-rule:evenodd"/><path d="M-264.3,221.1c-10.8-16.4,4.3-28,13.9-25.1,5.7-11.9,15-17,29.1-14.5,4.4-4.9,9.2-9.7,18.4-13.5-15-21.6-66.6-14.4-88.6,20.2,8-20.3,23.3-33.9,48-38.6,3.3-19.4-8.7-36.8-19.6-44.8h-17.1c-15.5,6.3-33.7.9-52.7-9a80.6,80.6,0,0,0,26.5,3.4c-13.4-5-19.5-10-23.3-15,44.3,24.1,90,14.3,128.8-23.1-37.4-41-47.2-122.9-29.4-178-25.5,17.8-43.8,44.1-52,82.3-1.8-12.6.9-25.1,4.5-37.7-32.4,34.4-61.2,69.9-66,112.7l20.2-24c-11.1,22.6-26.2,43.4-33.2,67.8-8.5,22.3,28.9,40,38.6,105,4.9,32.6,21.8,14.2,46,46.2,14.8,19.6,43.4,9.6,33.7-14.4S-266.1,200.5-264.3,221.1Z" transform="translate(367.3 258.8)" style="fill:#fff;fill-rule:evenodd"/><path d="M-244.5,198c6.9,4.7,16.1,19.4,16.2,32.9,23.4,3.6,18.9-18.2,15-28.2C-219.7,186.2-238.5,184.4-244.5,198Z" transform="translate(367.3 258.8)" style="fill:#fff;fill-rule:evenodd"/><path d="M-214.9,185c6.9,4.7,14.3,20.7,13,34.2,23.4,3.6,20.5-17.1,16.6-27C-191.7,175.6-205.7,173.6-214.9,185Z" transform="translate(367.3 258.8)" style="fill:#fff;fill-rule:evenodd"/><path d="M-165.7,176.9c-5.5-7.1-17.3-13.1-29.6-7.9,12.3,6.8,21.9,22.1,20.6,35.6C-157.1,207.1-159.2,185.3-165.7,176.9Z" transform="translate(367.3 258.8)" style="fill:#fff;fill-rule:evenodd"/><path d="M337.6,61.8c-.1-15.8,8.5-39.3-15.6-47-39.2-13.4-42.1-64.4-74.8-93.7-49.5-44.3-90.5-20.8-115.1-43.1,7.5,13.8,19.8,27.6,35.7,41.4-37.3-9.9-72.9-82.8-112-126.6-54.4-60.9-119-53.2-189.9-13.5-67.7,38-78,59.1-88,103.2C-244.8-16.7-211.5,103.9-100.3,81.8c-17.3-11.7-25.1-23.3-29.2-35C-87.1,93.1-40.9,108.2,9.8,85-.3,58.5,6.7,42.4,17,28.5c-8.2,20.3-5,57,10.5,65.3,22-18,45.2-21,69.6-7.9-22.6-6.6-47.1-2.3-63.1,11.9-12.8,11.3-8,24.5-44,65.3,20.5,10.6,24.1,25.2,24.2,40.6-6.6-19.9-25.3-39.3-48.5-37l3.4,5.2c-14.3-3.7-30.7-11.6-39-2.7,10.5-2,19.1,3.1,27.2,10.1-44.2-21.7-51.9,37-42,39.1-.1-19.7,22.4-53.2,50.5-28.3-25.6-12.8-45,11.8-42.6,33.7,1,9.9,5.8,14.1,13.9,13.2.2-31.8,19.5-47,39.5-37.3,4,1.6,11.7-3.9,14.8.2-4.4.5-6.1,3.3-9.2,4.9,2.1,3,3.5,5.9,3.1,8.3-36.3-29.7-47.9,26-34.8,34.8,24.1,7.6,30.2-7.8,49.4-8.3,15.3,1,29.4,6.7,41.7-15.7,10.9-19.7,48.4-31.2,73.9-44.5,33.3-17.4,75.3-67.1,59.7-89.8-10.5-15.2,5.6-51-26.5-78.1-5.5,2.8-11.1,6.1-16.6,5.8,23.6-15.2,10.9-58.8-9.9-78.1C147-45.3,157.5-24,153.3,3.5c19.6,16,26.5,41.5,26.9,71.8,18-15.4,27-42.6,26.5-82.6,8.5,32,4.5,60.2-15.7,83.3,38,46.8,109-30.9,125.5-9.6-9.1-3.3-28.1,13.6-42.2,20.4,15.9,10.8,19.4,23.5,22.7,36.1,15.9,1.5,23,7.7,28.7,14.6-15.4-8.6-37.7-11.6-49.4,6.5a18.9,18.9,0,0,1,6.1,5.8c7.7-2.9,11,.1,12.1,5.6-15.5-7.9-24.6,28.9-10.5,41.3,5.1,2.2,11.9.8,14.4-6.7-4.4-6.9-4.9-19.1-1.1-27.4,11.1-24.4,34.6-13.4,31-2.9-7.8-13.4-25.3-7.2-26.5,10.5-2.2,33.7,30.1,27.9,31.2,11.9,5.4-24.6,14.3-28.8,24.1-41.4C365.6,129.7,337.8,116.2,337.6,61.8Z" transform="translate(367.3 258.8)" style="fill:#fff;fill-rule:evenodd"/><path d="M272.6,191.2c-3.9-13-3.3-25.8,3.6-38.2C252.1,149.6,248.5,205.2,272.6,191.2Z" transform="translate(367.3 258.8)" style="fill:#fff;fill-rule:evenodd"/><path d="M266.1,148.8c-23.9-2.9-29.1,38.3-13.9,43.5C246,175.1,251.5,152,266.1,148.8Z" transform="translate(367.3 258.8)" style="fill:#fff;fill-rule:evenodd"/><path d="M218.4-108.1c25.7-19.2-4.4-29.9,5.6-60.1,9-27.1,53.2-16.2,53.2-2-7.9-15-39.3-15.3-46-1.3s-3.2,26.3,3.7,40.5c4.9,10.2,4,24.3-5.9,28.2a34.7,34.7,0,0,0-10.5-5.2" transform="translate(367.3 258.8)" style="fill:#fff;fill-rule:evenodd"/><path d="M322,14.8c-39.2-13.4-42.1-64.4-74.8-93.7-49.5-44.3-90.5-20.8-115.1-43.1,7.5,13.8,19.8,27.6,35.7,41.4C137.8-88.6,109-137,78.6-178.5c.4,8.8-.8,17.3-4.4,25-18.9,40.5-26.7,93.8-6,119.7S96.6-3.7,97.5,17.8s20.7,52.5,42.2,62c16.4,7.2,31.8,22,38.2,28.5,1.5-7.1,1-13.6-2.5-18.7-10.5-15.2,5.6-51-26.5-78.1-5.5,2.8-11.1,6.1-16.6,5.8,23.6-15.2,10.9-58.8-9.9-78.1C147-45.3,157.5-24,153.3,3.5c19.6,16,26.5,41.5,26.9,71.8,18-15.4,27-42.6,26.5-82.6,8.5,32,4.5,60.2-15.7,83.3,38,46.8,109-30.9,125.5-9.6-9.1-3.3-28.1,13.6-42.2,20.4,15.9,10.8,19.4,23.5,22.7,36.1,15.9,1.5,23,7.7,28.7,14.6h-.2a35.4,35.4,0,0,1,5.8,5.8c3.3,4.2,7.9,9.6,13.5,11.8,3.7-4.7,7.9-8.7,12.2-14.2,8.6-11-19.2-24.5-19.4-78.9C337.5,46,346,22.5,322,14.8Z" transform="translate(367.3 258.8)" style="fill:#fff;fill-rule:evenodd"/><path d="M-246.7-103.2c-9.1,31-16.9,77-3.6,122.7,8,27.5,18.5,45.9,28.9,58.3A155.2,155.2,0,0,0-201,61.1c-37.4-41-47.2-122.9-29.4-178A124.4,124.4,0,0,0-246.7-103.2Z" transform="translate(367.3 258.8)" style="fill:#aa9f88;fill-rule:evenodd"/><path d="M99.3,22.7c-36.9,4-64.2-3.9-78.8-27.4,3.3,30,55.5,46.6,78.8,27.4" transform="translate(367.3 258.8)" style="fill:#231f20;fill-rule:evenodd"/><path d="M-201.3-197.9c16.1-1.5,23.3.2,28.1,2.9,18.6-9.7,49.1-12.1,69.1-3.8,33.5-39.9,74.6-36.7,96.5-1.8,6.5,10.4,11.4,30.4-2.5,36.6a56,56,0,0,0-8.5-24.2c-10.6,2.8-18,31.5-9.1,49.9C-23-130-8.9-122.1-12.8-91.9-14.7-77.3-6.1-62.7,2.6-50.5,25.5-6.3,13.4,58.6-27.7,79.9c-17.4,23.9-67.7,29.3-80.5,10.7-3-4.4-.8-9.6-.9-14.4-7.1,13.7-32.4,22.8-58.3,13.7-20.9,12.8-43.7,19.6-70.6,14.5-44.1,13.7-73.9-16.5-82.9-56.3s-.7-85,20.4-103.4c-12.8-12.5-8.6-31,8.3-35-19.2-12.8-12.1-46.3,7.9-50.3,2.7-4.8,7.5-8,14.4-9.2,5.7-6.8,13.9-14.2,22-21.5,2.5-11.4,4-22-7.4-23.1-6.6,8.7-15,6.1-8.3-7.9,15.6-32.2,57.8-30.4,62.4,4.5" transform="translate(367.3 258.8)" style="fill:#050000;fill-rule:evenodd"/><path d="M-213.4-195.3c-3.5-22.9-33.1-19.4-47.2-.6,7.6-23.8,48.3-34.2,52.1-.9a15.3,15.3,0,0,0-4.8,1.5" transform="translate(367.3 258.8)" style="fill:#fff;fill-rule:evenodd"/><path d="M-219-192.5c0-14.2-15.2-17.6-28.4-8.9,7.6,3.9,9.7,11.9,8.6,22.4a28.6,28.6,0,0,1,6.4-5.3c1.3-9.9-.3-16.8-5.6-20.1,8.7,2.7,11.3,8.8,11,16.5a29.3,29.3,0,0,1,8-4.7" transform="translate(367.3 258.8)" style="fill:#fff;fill-rule:evenodd"/><path d="M-260.2-149.3c30.8-35.3,57.2-47.8,79.7-40.6A138.3,138.3,0,0,0-207-155.8c27.4-40.6,74.9-52.6,115.8-30.1-.4-2.4-1.9-4.8-4-7.2,41.1-65.6,99.5,1.1,87.4,20.3,1.3-21.8-37.5-55.2-58.3-25.6-5.9,10.7.9,26.9,11.4,40.4,0-15.4.7-30.3,10.9-38.2-8.7,3.7-15.2,10.3-15.8,24.8-10-28.2,12-44.3,35.1-22.8-11.2,4.5-16.6,18.9-17,42-5.6-5.7-7.6-13.7-7.9-23-4.5,14.3,3.1,29.8,24.1,51.9,13.9,14.7.7,34.9,7.4,49.6-47.5-30.7-60.7-36-88.6-33.1-34.4,3.7-54,26.8-70.6,31.6,13.9-10.1,13.1-30.5,8.1-37.3,9.5-5.9,18.1-3.7,25.8,7.2-5.6-19-27.4-22-42.6-3.1-6.9,8.5-15.5,22.7-22.2,24.2-14.6,3.7-21.2-6.2-18.1-23.8-5.3,8.4-7.1,17.2-4.2,22.1l-10.4-.6c-4.6-6.9-6-14.3-1.3-22.4-7.4,5.2-8.2,13-4.8,22.4-5.8,0-12-10.1-9.5-20.6-2.8,4.5-4.3,9.8-2,17.3-7.9-7.3-16.4-30-26.4-25.9-5.9,2.4-2,15.7,1.3,19.1-3.7-12.8-.4-15.1,5.5-9.7-2.5,3.5-2.5,14.1-.1,19-21.9-13.8-22.4-34.5-8.5-45.1,6.1-4.3,19.6,4.3,29.6,17.3-4.5-11-10-20.8-20.9-23.8,4.7-7.4,24.1-4.9,31.9,6.5-3.5-9.8-9.4-11.3-14.1-17" transform="translate(367.3 258.8)" style="fill:#fff;fill-rule:evenodd"/><path d="M-206.8-78.7c23.6,14.6,40.5-13.7,28.6-30.3-7.5,5.4-17.3,26.1-28.6,30.3" transform="translate(367.3 258.8)" style="fill:#fff;fill-rule:evenodd"/><path d="M-259.1-84.8a90.2,90.2,0,0,1-15.3-17.9c-2.6,4.8-2.9,25.9,9.6,24.1,2.1-.8,3.2-4.2,5.6-6.1" transform="translate(367.3 258.8)" style="fill:#fff;fill-rule:evenodd"/><path d="M-273.7-76.2l-6-6.6c-5.2-4.7-13.6-1.3-17.9,3.1s-7.1,9.6,3,19c7.6-3.8,12.4-9.2,22.8-10.7-5.4,0-10.7-.3-16.4-8a18.3,18.3,0,0,0,14.7,3.2" transform="translate(367.3 258.8)" style="fill:#fff;fill-rule:evenodd"/><path d="M-264.1-72.3c18.4-15.4,36.8-6.7,53.4.2,40.5,16.8,60.4-20.1,97.7-28.6C-71.6-110.1,4.2-64.4,5-8.8c.4,25.9-9.3,57.5-25.4,72,5.3-10,7.2-26.8,5.8-47.6-7.7,85.5-55.3,86.7-86.9,73.8-8.2-5,21.1-72.1-22.8-135,10.8,4.8,17,12.8,21.8,21.8-9-32.1-31-44.7-45.9-34.9-19.3,12.7-22.2,36.9-47.1,50.9-4.5-10.8-9.7-23.3-15.9-22.9-4.4,1.3-6.7,15.7-16.3,25.1-13.3-.3-18.4-3.9-27.8-4.4-3.9-3.4-7.1-8.8-9-17.6a26.3,26.3,0,0,0,13.9-10.9c22.2.6,21.4-39.6-13.6-34" transform="translate(367.3 258.8)" style="fill:#fff;fill-rule:evenodd"/><path d="M-287.7-47.3c-5.6-12.5,16.8-20.3,30.6-19.5,22.2,1.3,16.9,26.5,8.4,23.1,4.6-3.8,1.4-13.4-10.1-7.4-3.3,1.7-8.8,12.6,1.9,11.1-3.9,7.1-9.2,11.2-20,3.6,3-4.2-5.8-12.6-10.9-10.9" transform="translate(367.3 258.8)" style="fill:#050000;fill-rule:evenodd"/><path d="M-179.8-46.3c19-20.7,38.4-34.1,58.6-32.1,17.5,10,28.2,30.2,37.3,52.7-8.2-26.9-17.4-52.2-37-59.2-22.8-1.5-41.4,16.1-58.8,38.6" transform="translate(367.3 258.8)" style="fill:#050000;fill-rule:evenodd"/><path d="M-268.6-26.4c-13.2-3.4-23.4-10.2-24.6-27.4-6.4,5.7-20.3,22.2-13,33.1,3.7-10.5,6.9-12,10-8,5.3,7.1,6.6,12.8,17.4,22.7a90.3,90.3,0,0,1,15.7-4,30.7,30.7,0,0,1-5.5-16.4" transform="translate(367.3 258.8)" style="fill:#fff;fill-rule:evenodd"/><path d="M-162.1-35.7c13.5-21.2,19.3-21.4,34-4.9l-3.1,2.8c-8.9-7.1-19.6-1.1-23.1,5.4a16.4,16.4,0,0,0-7.7-3.3" transform="translate(367.3 258.8)" style="fill:#050000;fill-rule:evenodd"/><path d="M-124.2-36.2c10.5,17.8,15.8,36.1,18.6,54.5l-4.8,2.8a27.3,27.3,0,0,0-2.8-8.8c2.7,16.8-12,24.2-20.7,17.2a23.3,23.3,0,0,0-.8-11.2c.1,17.2-16.9,21.5-25.1,12.2l-1.2-4.8c-3.4,12.1-15.2,15.4-23,1.6.2,6.9-1.7,9.2-7.8,2.3a133.8,133.8,0,0,0-2.6-34.4c13.7-5.9,22.1-15.5,29.2-25.9,6.5-.4,12.2,5.5,17.2,16.8a32.9,32.9,0,0,0-3-14.8c8.8-15.7,20.8-6.2,24.6,12.5a30.6,30.6,0,0,0-1-15.6,6,6,0,0,1,3.4-4.4" transform="translate(367.3 258.8)" style="fill:#fff;fill-rule:evenodd"/><path d="M-184.7,18.4c1.8-10.6,5.3-19.3,12.2-24.2,4.8.9,9.5,8.2,12.3,17.5C-153,7.6-149.5-.3-147.7-10A29.5,29.5,0,0,1-135.1,7.4c4.3-4.3,6.5-12.2,7.5-22.1a20.9,20.9,0,0,1,.9,4.6c6.7,5,10.9,11,10.8,18.6a118.1,118.1,0,0,0-11-14.8c-1.4,9.1-4.7,18.7-8.9,17.6-2.1-.7-2.8-8.2-10.7-16.6-1,8.8-4.5,16.4-13,21.3a13.9,13.9,0,0,1-1.2,6.3c-2.7-11.7-6.2-20.7-11.3-23.4-4.6,4.2-8.7,11.4-12.7,19.5" transform="translate(367.3 258.8)" style="fill:#050000;fill-rule:evenodd"/><path d="M-224.2,2.1-210-24.3c9,9.8,13.4,26,12.8,48.9-9-9.2-18-16.8-26.9-22.4" transform="translate(367.3 258.8)" style="fill:#fff;fill-rule:evenodd"/><path d="M-284.3-3.2a130.3,130.3,0,0,1-15.3-20.4c-5,12.3-5.2,25-1.8,37.9,5.1-7.5,10.7-13.6,17.1-17.5" transform="translate(367.3 258.8)" style="fill:#fff;fill-rule:evenodd"/><path d="M-284.9,53.4c-29.3-4-19.4-31.4-2.7-46.7,20.5-18.6,53.3-14.6,85.3,22,27,30.9,64.3,53.6,96.4,23-.7,18.1-23.3,35.9-40.6,34.1-34.5-3.5-39.3-22.1-59-33.2C-194,63-188,74.2-174.1,85c-49.2,26.9-99.5,13.9-108.8-51.4C-267.6,6-237,29.7-215.2,44.1c-15-15.4-35.3-33.8-55-28.1-11.2,3.2-17.4,15.4-19.3,29.2l2.7-6.2,1.9,14.4" transform="translate(367.3 258.8)" style="fill:#fff;fill-rule:evenodd"/><path d="M-252.2,98.8C-265.6,90.2-276,76.7-284,59.1c-27.2-.5-28.6-27.3-21.5-37.3-4.5-11.9-3.7-23.8-2.2-35.7-1.9-1.1-3.6-3.3-5.2-6.7-12.5,52.1,4.1,126.1,60.8,119.4" transform="translate(367.3 258.8)" style="fill:#fff;fill-rule:evenodd"/><path d="M-182.1,39l1-2c5.5,6.3,15.3,6.8,19.7.2,6.5,6.3,20.8,7.8,25.2-3.1,5.6,7,22.1,5.3,25.8-6.5a12.4,12.4,0,0,0,4.8-.2,124.4,124.4,0,0,1-.6,15c-9.9,27.2-56.4,22.4-76.1-3.4" transform="translate(367.3 258.8)" style="fill:#050000;fill-rule:evenodd"/><path d="M-190.8-80.7c3.7-.2,6.4-3.7,6.2-7.7a7.3,7.3,0,0,0-5.1-6.8,106.1,106.1,0,0,1-7.8,9.6A6.8,6.8,0,0,0-190.8-80.7Z" transform="translate(367.3 258.8)" style="fill:#050000;fill-rule:evenodd"/><path d="M-262.3-87.8a79.8,79.8,0,0,1-5.8-6.5c-2.2.6-3.7,3.1-3.5,6s2.4,5.7,5,5.6S-262.6-85-262.3-87.8Z" transform="translate(367.3 258.8)" style="fill:#050000;fill-rule:evenodd"/><ellipse cx="82.8" cy="237.9" rx="2.5" ry="3.5" style="fill:#050000"/><ellipse cx="73.6" cy="222.7" rx="2.4" ry="3.1" style="fill:#050000"/><path d="M-95.3-193c2.2,2.4,3.6,4.8,4,7.2-25-13.8-52.5-14.6-76.4-3.9a34.9,34.9,0,0,0-1.2,10.3c.9,11.2-7.7,23.7-7.7,23.7s-13.3,10.8-13.8,15.1l-.4,4.3s-27.7,14.7-36.1,29.7l.6-.9c-3.1,17.6,3.5,27.5,18.1,23.8,6.7-1.6,15.3-15.7,22.2-24.2,15.2-18.9,37.1-15.9,42.6,3.1-7.7-10.8-16.3-13.1-25.8-7.2,5,6.8,5.8,27.2-8.1,37.3,16.6-4.8,36.2-27.9,70.6-31.6,27.9-3,41.1,2.3,88.6,33.1-6.7-14.7,6.5-34.9-7.4-49.6-21-22.1-28.6-37.6-24.1-51.9.2,9.3,2.2,17.3,7.9,23,.4-23.1,5.8-37.5,17-42-23.1-21.5-45.2-5.4-35.1,22.8.6-14.5,7.1-21.1,15.8-24.8-10.2,7.9-10.9,22.7-10.9,38.2-10.5-13.5-17.4-29.7-11.4-40.4,20.9-29.6,59.7,3.8,58.3,25.6C4.2-192-54.2-258.6-95.3-193Z" transform="translate(367.3 258.8)" style="fill:#fff;fill-rule:evenodd"/><path d="M-214.3-120.9c45.5-33,73.2-21.9,72,17.5C-126.1-135-169.7-172.8-214.3-120.9Z" transform="translate(367.3 258.8)" style="fill:#231f20;fill-rule:evenodd"/><path d="M-140.4-151c-10-16.7-36.9-9.7-45.6,3.9C-173.7-158.6-151.7-161.3-140.4-151Z" transform="translate(367.3 258.8)" style="fill:#231f20;fill-rule:evenodd"/><ellipse cx="131.2" cy="224.6" rx="3.5" ry="3.3" style="fill:#231f20"/><ellipse cx="146.6" cy="214.2" rx="3.2" ry="3" style="fill:#231f20"/><ellipse cx="163.2" cy="210.1" rx="3.1" ry="2.8" style="fill:#231f20"/><ellipse cx="160.1" cy="222.6" rx="2.6" ry="2.5" style="fill:#231f20"/><ellipse cx="145.4" cy="229.3" rx="3" ry="2.7" style="fill:#231f20"/><path d="M-163.7-27.2s6.6,2.4,9.4,13.6-5,20.3-5,20.3-2.4-8.4-5.8-12.6a83.3,83.3,0,0,0-6.6-7.3S-165.1-21.9-163.7-27.2Z" transform="translate(367.3 258.8)" style="fill:#fff;fill-rule:evenodd"/><path d="M-171.4,2.4s7.1,15,6.3,22-12.1,10.2-15.5,2.1S-171.4,2.4-171.4,2.4Z" transform="translate(367.3 258.8)" style="fill:#fff;fill-rule:evenodd"/><path d="M-145.1.9s6.3,12.9,3.6,22.1-8.1,10.7-11.8,9-3.9-3.4-3.9-3.4V20S-145.3,9.5-145.1.9Z" transform="translate(367.3 258.8)" style="fill:#fff;fill-rule:evenodd"/><path d="M-142.4-32.3a45.2,45.2,0,0,1,6.5,17.6A92.1,92.1,0,0,1-134.6,2s-5-10.2-7.3-13.4l-2.3-3.2-3.1-13.9S-145.9-32-142.4-32.3Z" transform="translate(367.3 258.8)" style="fill:#fff;fill-rule:evenodd"/><path d="M-91.3-185.9c-37.6-20.7-80.8-12.2-108.8,20.9,7.7-5.2,39.4-25.9,60.3-27.2,23.9-1.5,49.1,7.7,49.1,7.7Z" transform="translate(367.3 258.8)" style="fill:#fff;fill-rule:evenodd"/><path d="M-95.3-193a21,21,0,0,1,2.7,3.6c1-1.2,23.6-27.7,42.1-27.5,10.4.1,22.6,6.7,31.5,12.5C-36.6-223.2-69.4-234.4-95.3-193Z" transform="translate(367.3 258.8)" style="fill:#fff;fill-rule:evenodd"/></svg>