<svg id="Layer_1" data-name="Layer 1" xmlns="http://www.w3.org/2000/svg" viewBox="0 0 438.2 351.9"><title>Bulldog924_3c</title><path d="M119.6-128.3l.2-.4a32.8,32.8,0,0,0,4.5-17.9,39.2,39.2,0,0,0-.7-5.4c-.6-3.1-.9-6.3,2.4-8.3a5.5,5.5,0,0,1,1.8-.7c2.5-.6,4.7.5,6.5,2.1a22.8,22.8,0,0,1,3.4,3.9,51.6,51.6,0,0,1,6.8,13.7,69,69,0,0,1,3.2,24.4,76,76,0,0,1,12.7,11.3,81.6,81.6,0,0,1,18.1,30.9c2,6.3,3.5,12.8,5.1,19.2s4.4,10.9,7.6,15.5a147.9,147.9,0,0,0,11.3,14,139.7,139.7,0,0,1,9.3,10.8c3.7,5.2,4.9,11.6,5.2,17.9s-.4,15.1-.8,22.5a90.3,90.3,0,0,0,.9,19.8,61.1,61.1,0,0,0,1.7,8l.3,1v1c-.5,9-1,18-1.4,27-.2,5.7-1.1,14.4-4.2,19.2s-7.7,5.7-11.8,6.4-8.4.3-11.7-2c-2.7,1.9-6.3,3.7-9.4,3.9a14.8,14.8,0,0,1-9.6-3H171l-2.7,1.1a21.1,21.1,0,0,1-8.5,1.3h-1.1l-1.2-.6a11.4,11.4,0,0,1-2.9-2.2,19.3,19.3,0,0,1-3.3,1.3l-3.5,1-2.3.7-2.1-1.2a20.7,20.7,0,0,1-7.6-7.7c-2.8-5.2-3.1-13.3-2.2-19s5.4-13.4,12.8-14.1a31.5,31.5,0,0,1,2.9-5.8,33.6,33.6,0,0,1,7.5-8.1l.2-.2V51.7a23.1,23.1,0,0,1-6.6-4c-1.6-1.4-3.1-3.1-4.6-4.7a35.6,35.6,0,0,1-5.1,6.4,125.4,125.4,0,0,1-10.4,8.1L119,65.6l-7.1,7.1c-.7,1.7-1.5,3.5-2.2,5.3a43.8,43.8,0,0,0-2.8,9.7,29.4,29.4,0,0,0-.1,6.3c.2,1.7.5,3.3.5,5a14.7,14.7,0,0,1-1.4,6.2,48.8,48.8,0,0,1-4.6,7.4c-2.2,3.1-4.4,6.1-6.5,9.3s-6.1,9.1-7,12.9-1.4,7-2.1,10.5c-1,5.7-2.6,15.9-7,19.9s-20.5,10.7-26.9,10.3c-3.7-.2-7.7-1.9-11-3.7l-18.2,4.2-2.1-1.6a29.7,29.7,0,0,1-3.9-3.8l-4,1.2a44.8,44.8,0,0,1-7.9,1.6H3.1l-1.4-.7a18.2,18.2,0,0,1-7.2-6.9h-.4l-3.6,1-3.3.8-2.8.7-2.2-1.8a31.6,31.6,0,0,1-7-9.2c-4.2-8-5-17-3.5-25.8S-20,114.3-9.9,112a36.7,36.7,0,0,1,10.5-.7l15-16.4c1.4-6.8,3.7-15.2,6.7-21.2a34.5,34.5,0,0,1,2-3.5,41.4,41.4,0,0,1-9.9-13.4,106.2,106.2,0,0,1-4.4-14.6Q8.8,36.9,7.6,31.6L-123.7,70.3l4.2,19.7a69.1,69.1,0,0,1,3.8,8.2l.8,2.2a25.8,25.8,0,0,1,7.3.1,16.7,16.7,0,0,1,5.1,1.7c7.9,4.1,12,8.5,14.8,17.2a36.6,36.6,0,0,1-.3,21.1l-1.2,3.7-4,.2v5.5l-10.8,1.5-.7,2.3-.6.8a13.9,13.9,0,0,1-9.6,5.6,25.2,25.2,0,0,1-4.7-.1l-.2,2.4-3,1.4a73.3,73.3,0,0,1-8.6,3.4,34.7,34.7,0,0,1-14.7,1.6l-1.3-.2-1.1-.7-8.3-5.5c-2.2-1.4-4.4-2.9-6.6-4.1l-8.6-5-2-1.2-.6-2.3c-1.3-5.4-2.8-10.7-4.3-16-.8-3-1.7-5.9-2.7-8.9a32.7,32.7,0,0,0-1.8-4.9,48,48,0,0,0-4.7-6.4c-2.3-2.8-4.7-5.5-7.1-8.1l-1.1-1.2-.3-1.6c-3.1-17.5-8.5-57.9-1.5-73.7,4-9,7.7-18.3,11.5-27.4l18.9-46.2,30.8-75.8.4-.9.7-.7c3.5-3.9,7.2-7.6,10.9-11.3a272.7,272.7,0,0,1,25.5-22.5c9.2-7.1,20.8-14.7,32.1-17.8,30.1-8.3,66.8,7.3,91.3,24.4,8.7,6.1,19.6,10.4,29.7,13.4a181.1,181.1,0,0,0,28,5.8,121.3,121.3,0,0,0,22,1.1A76.1,76.1,0,0,1,119.6-128.3Z" transform="translate(219.1 175.9)" style="fill:#050000;fill-rule:evenodd"/><path d="M124.8-125.9a22.9,22.9,0,0,1,10,3.4,53.8,53.8,0,0,1,7.3,5.3,65.1,65.1,0,0,0-2.9-22.5c-3.7-11-8.9-16.2-10.1-15.9s5.2,12.7-4.2,29.6m44.4,203s-4.2-4.4-7.8-3.7-5.9,1.8-7.6,5.4-.8,12.8,1.4,17.9,4.8,6.4,4.8,6.4a15.8,15.8,0,0,0,6.2-.9c3-1.2,3.5-1.7,3.5-1.7S163.7,84.2,169.2,77.1Zm-15.9-1.6a6.7,6.7,0,0,0-5.9-2.8c-4.2.1-7.2,3.9-8.1,9.4s-.3,12,1.6,15.4a15.4,15.4,0,0,0,5.4,5.4l3.6-1a10.1,10.1,0,0,0,4-2S146.8,84.4,153.3,75.5Zm33.5,2s-4.4-4.7-8.3-4.5-7.5,4-8.4,9.4-.5,10.8.3,13.5,4.2,6.1,4.2,6.1a9.3,9.3,0,0,0,5.7,1.8c3.2-.2,7.7-3.8,7.7-3.8S183,86.6,186.8,77.5ZM-131.4-118.3s37.8-42.2,65.8-49.9,63,7.1,86.6,23.6,64.7,22.5,83.3,21.4,36.7,4.4,52.1,21.4,17.5,30.1,21.9,47.7,23.6,34.5,29,42.2,4.4,19.7,3.3,36.7a91.3,91.3,0,0,0,2.9,29.9s-1.1,20.3-1.4,27.1-1.4,13.4-3.3,16.4-9.5,5.4-14.3,3.4l-1.2-3.4c-1.7-4.9-3.2-13.5-1.2-18.5l1.4-3.3a7.2,7.2,0,0,1,3.4-2.2c2.5-.5,5.1,2.1,5.1,2.1s-1.9-4-4.8-5.6-5.6-.1-7.5,1.8c-3.1-2.8-7.4-5.2-11.5-5a12.9,12.9,0,0,0-7.9,3.3c-2.9-2-6.5-3.4-9.9-2.7a20.4,20.4,0,0,0-5.1,1.6,12.6,12.6,0,0,0-3-1.6,25.3,25.3,0,0,1,1.9-3.6,29.7,29.7,0,0,1,6.1-6.6,9.2,9.2,0,0,0,1.3,3.4,3.4,3.4,0,0,0,2.4,1.6s-2.2-4.8-1.2-9.2,1.7-5.5,1.7-5.5-6.3-1.2-9.9-4.5a73.6,73.6,0,0,1-6.7-7.3,72.1,72.1,0,0,0,10.4-19.7,67.3,67.3,0,0,0,3.7-23.8s-3.6,18.9-7,24-13,24.1-17.8,28.5-21.8,16.2-21.8,16.2,6.6-14.5,8.5-22.7-3.3-23.4-3.3-23.4,3.1,18.5-2.6,31.1-15.6,31.4-16.7,40.9,1.6,10.8-.5,15.7-16.3,21.5-18.5,30.5-3.6,24.1-7.4,27.7-18.3,9-22.7,8.8-7.3-2.3-9.2-3.4A28.5,28.5,0,0,1,37,152.8c-1.2-8.6,2.3-20.3,6.4-21.5s12.5,1.2,12.5,1.2c-1.9-2.9-11.4-4.7-13.8-3.8s-7.5,4.7-8.5,18.8c-.7,10.2,2,16.5,3.5,19.3l-13.2,3.1a26.8,26.8,0,0,1-3.3-3.3l-1.5-1.7A122.4,122.4,0,0,1,16,150.2c-1.2-8.6,2.3-20.3,6.4-21.5S34.9,130,34.9,130c-1.9-2.9-11.4-4.7-13.8-3.8s-7.5,4.7-8.5,18.8A49.4,49.4,0,0,0,15.4,165L11,166.3a41.3,41.3,0,0,1-6.8,1.4s-3.8-2.2-4.9-4.9l-.2-.5-.8-2.9a4.8,4.8,0,0,1-.1-.7h-.1a118.5,118.5,0,0,1-2.8-13.2c-1.2-8.6,2.3-20.3,6.4-21.5s12.5,1.2,12.5,1.2c-1.9-2.9-11.4-4.7-13.8-3.8s-7.5,4.7-8.5,18.8a49.5,49.5,0,0,0,2.7,19.6l-5.4,1.6-3.3.8s-12-9.9-8.5-29.6S2.8,117.2,2.8,117.2L20.9,97.5s2.7-13.7,6.6-21.4,12.6-15.6,16.4-17,10.7-.8,10.7-.8a17.8,17.8,0,0,0-16.2,1.1,40,40,0,0,0-5.5,3.6l-.5-4.2c-.5-4.7,3.6-12.9,3.6-12.9-7.2,4.7-6.5,15.4-5.9,20a2.4,2.4,0,0,0-.4,1.1s-6.8-5.5-9.9-12.6-7.9-30.1-7.9-30.1L-130.3,66.3l5.5,25.7a64,64,0,0,1,3.8,8.2c1.9,4.9,2.7,6.6,2.7,6.6s7.9-2.5,13.1.3,9.3,5.5,12,14-.3,17.5-.3,17.5l-3.8.2a89.5,89.5,0,0,0-1.8-11.4c-1.2-4.5-4.5-12.6-10.8-15.5s-12.9.3-12.9.3c11.8.1,13.7,1.2,18.5,8.6,3.4,5.3,4.8,14.3,5.3,19v5.1l-8.5,1.2a48.7,48.7,0,0,0-.8-6.6c-1-5.1-5.2-18.9-13.6-22.3s-14.2,3.8-14.2,3.8c11.1-5.3,15.7-1.8,20.8,5.8,3.8,5.7,5.5,16.8,6,21.9l-.7,2.5s-2.2,3-5.5,3.3a29.4,29.4,0,0,1-7.3-.7,49.1,49.1,0,0,0-5.6-17.1c-5.1-8.9-10.3-9.9-12.7-10.1s-13.1,3.3-12.2,13.8c0,0,.8-7.7,8.1-10.5s13.4,4.8,15.7,9.9a49,49,0,0,1,4.1,14.7,30,30,0,0,1,0,4.4,68.1,68.1,0,0,1-8,3.1,28.5,28.5,0,0,1-12,1.4s-11-7.4-15.3-9.9l-8.5-4.9s-6.6-26.3-9.3-31.2-12.6-15.6-12.6-15.6-9.6-53.1-1.9-70.4S-131.4-118.3-131.4-118.3Z" transform="translate(219.1 175.9)" style="fill:#c3c7c7;fill-rule:evenodd"/><path d="M-74.3-132.2c3.2,0,6.5.2,9.6.4.8-2.1,1.6-4.1,2.4-5.9,1.7-3.8,3.5-7.6,5.4-11.3a81.6,81.6,0,0,1,4.6-7.9l4.1-5.9,3.1,6.5a84.6,84.6,0,0,1,3.3,8.5c1.4,4,2.6,8,3.7,12.1a107.4,107.4,0,0,1,2.3,10.7,110,110,0,0,1,42.2,29c2.6-1,5.2-1.8,7.5-2.5,4-1.2,8.1-2.2,12.2-3.1a81.6,81.6,0,0,1,9.1-1.5l7.2-.7-3,6.5a84.7,84.7,0,0,1-4.4,8c-2.2,3.6-4.5,7.1-6.9,10.5s-3.2,4.4-5,6.7A113.2,113.2,0,0,1,35.5-20.2c0,2.2-.1,4.4-.2,6.6h.2c3.9,1.5,7.8,3.1,11.6,4.8a81.7,81.7,0,0,1,8.2,4.2L61.5-.7,55.1,2.7a84.5,84.5,0,0,1-8.3,3.8c-3.9,1.6-7.9,3-11.8,4.3l-4,1.2A112.4,112.4,0,0,1,4.3,58c.6,1.9,1.1,3.8,1.5,5.5,1,4.1,1.9,8.2,2.6,12.3a81.6,81.6,0,0,1,1.2,9.1l.4,7.2L3.6,88.8a84.4,84.4,0,0,1-7.8-4.7c-3.5-2.3-6.9-4.8-10.3-7.3l-2.1-1.7A107.7,107.7,0,0,1-70.8,91.7c-1.9,3.4-3.9,6.7-6,9.9a81.6,81.6,0,0,1-5.4,7.5l-4.6,5.5-2.5-6.8a84.7,84.7,0,0,1-2.5-8.8c-.7-3-1.4-6-1.9-9-51.5-9.3-90.5-55.1-90.5-110.3a112.6,112.6,0,0,1,43.5-89.2c-.2-1.9-.3-3.8-.4-5.5-.2-4.2-.3-8.4-.1-12.6a81.7,81.7,0,0,1,.6-9.2l1-7.1,5.7,4.5a84.6,84.6,0,0,1,6.8,6.2c3,2.9,5.9,6,8.6,9.2l.7.9a107.6,107.6,0,0,1,43.5-9.1" transform="translate(219.1 175.9)" style="fill:#050000;fill-rule:evenodd"/><path d="M-74.3-126.7l7.8.3a38.8,38.8,0,0,0-1.6,7.8c-.3,3.7,2.4,6.4,5.5,8.1a26.4,26.4,0,0,0,10.2,2.7,26.4,26.4,0,0,0,10.5-1.1c3.2-1.1,6.4-3.4,6.6-7.1.1-.9.1-1.9.1-2.9A104.5,104.5,0,0,1,1-93.8a35.3,35.3,0,0,0-5.4,3.1c-3,2.2-3.4,6-2.7,9.4a26.4,26.4,0,0,0,4.5,9.6A26.4,26.4,0,0,0,5-64.4c3,1.8,6.7,2.7,9.7.5a34.1,34.1,0,0,0,4.3-3.8A107.8,107.8,0,0,1,30-20.2c0,1.6,0,3.2-.1,4.7a51.8,51.8,0,0,0-13.7-2.8c-3.7-.1-6.3,2.8-7.8,5.9A26.4,26.4,0,0,0,6.2-2,26.4,26.4,0,0,0,7.9,8.4c1.3,3.2,3.8,6.2,7.5,6.3a41.4,41.4,0,0,0,9.2-1.1A106.9,106.9,0,0,1,2.3,52a39.1,39.1,0,0,0-3.6-7.2c-2-3.1-5.9-3.6-9.3-3a26.4,26.4,0,0,0-9.8,4.1,26.4,26.4,0,0,0-7.6,7.3c-1.9,2.9-2.9,6.6-.9,9.7a46,46,0,0,0,7.7,8.5A102.2,102.2,0,0,1-67.8,86c2.2-4.4,4.3-9.3,5-13.6s-1.8-6.6-4.7-8.5a26.4,26.4,0,0,0-9.9-3.7,26.4,26.4,0,0,0-10.6.2c-3.3.8-6.7,2.8-7.3,6.5-.9,5.2-.2,11.8.6,17.4-47.9-9.6-84.1-52.7-84.1-104.5A107.1,107.1,0,0,1-139.9-103a39.1,39.1,0,0,0,2.1,7.8c1.4,3.5,5.1,4.7,8.5,4.8A26.4,26.4,0,0,0-119-92.5a26.4,26.4,0,0,0,8.9-5.7c2.4-2.5,4.2-5.9,2.8-9.4a49.6,49.6,0,0,0-6.9-11.1,102.2,102.2,0,0,1,39.8-8" transform="translate(219.1 175.9)" style="fill:#b71f36;fill-rule:evenodd"/><path d="M15.5,10.5c-3-.1-5.3-5.6-5.1-12.5s2.7-12.3,5.7-12.2c10.2.2,31.1,9.5,37.1,13.2C47.1,2.4,25.7,10.8,15.5,10.5M12.3-67.3C9.9-65.6,4.7-68.6.8-74.2S-4.4-85.6-2-87.4c8.3-6,30.6-11,37.6-11.7C32.7-92.8,20.7-73.3,12.3-67.3Zm-51.7-49.1c-.2,3-5.9,5-12.7,4.5s-12.1-3.4-11.9-6.4c.8-10.2,11.2-30.5,15.2-36.3C-45.9-148.4-38.6-126.6-39.4-116.4ZM-111.1-106c1.1,2.8-3.1,7.1-9.4,9.6s-12.3,2.3-13.5-.4c-3.8-9.5-3.5-32.3-2.5-39.3C-131.1-131.8-115-115.5-111.1-106Zm20,173.5c.5-3,6.4-4.4,13.1-3.3s11.7,4.5,11.2,7.4c-1.7,10.1-13.9,29.4-18.5,34.8C-87.7,100-92.9,77.6-91.1,67.5Zm65.8-6.9C-27,58.1-23.7,53-18,49.3s11.6-4.7,13.3-2.2c5.6,8.6,9.8,31,10.2,38C-.7,82-19.8,69.2-25.4,60.6Z" transform="translate(219.1 175.9)" style="fill:#fff;fill-rule:evenodd"/><path d="M-198.8-76.8h-.5l-.2-5.1c-1.4,2.3-3.3,4.2-6.4,4.2a7,7,0,0,1-5.8-3.6c-2.6-4.1-2.7-9.1-1.4-13.7,1.8-6.1,15.3-24.7,21.7-25.2s12.9.2,17.4,3.1,12.2,12.7,15.8,17.7a52.6,52.6,0,0,1,14.8-5.8l3-.6,4.6-5.1c9.9-10.6,22.3-15.1,36.8-13.8,4.4.4,8.8,1.1,13.1,1.9,6.5,1.2,13,2.7,19.5,4.3a41.6,41.6,0,0,1,7.3-9.5A14.8,14.8,0,0,1-42-130.3c3.3,1.8,5.2,5.7,7.4,9.1l3,.6,6.1,1.2a34.7,34.7,0,0,0,5,.7,5.9,5.9,0,0,1,3.2.8c2.3,1.4,3,3.9,3.2,6.4s.2,5.4.2,8a27.8,27.8,0,0,1-2.5,11.9l-.8,1.5v2.7C-10.4-77-1.7-65.7,5.9-53.9c8.8,13.8,16,28.3,16.5,43,1.3,18,.2,43-8.8,61.6C7.6,62.9-1.9,72.4-16.6,75.1c-4.6.9-12.4.9-15.8-2.9-.7-.8-1-3.4-1.3-4.5-3.3,2.5-6.9,4.8-10.3,7.1-8.4,5.4-17,11.9-26.2,16s-17,5.6-26.1,4.2A57.1,57.1,0,0,1-109,91.1l-.7.7c-1.6,1.6-7.4,2.9-9.5,3.3l-1.6.3c-9.5,1.8-30.3,1.6-36.7-7.3-17.5-.8-29.6.1-43.7-13.4-10.9-10.4-18.4-25.5-17.8-38.8S-207.6,7.8-199-2.8l1.6-2h0a14.4,14.4,0,0,0-1.5-3.1,18.8,18.8,0,0,1-2.4-6.4c-.6-3.9,1.7-9.9,3.9-14.5l-3-2.6-1.9-1.8c-4.6-4.6-5.7-9.9-5.9-16.3a27.6,27.6,0,0,1,.6-6.3,50.2,50.2,0,0,1,4.1-11.5l2-4.1a15.3,15.3,0,0,0,.9-2,7.8,7.8,0,0,1,1.8-3.4" transform="translate(219.1 175.9)" style="fill:#050000;fill-rule:evenodd"/><path d="M-123.1-37.7a5.8,5.8,0,0,1,3.7,2.6c1.7,2.4-.2,6.7-.2,6.7s.4-4.3-3.5-9.4m56.7-2.7a96.4,96.4,0,0,0,12.6-1.6c4.4-1.1,9.3,2.3,13.1,8.4s7.3,17.7,7.3,17.7A70.6,70.6,0,0,0-38.9-38c-4.9-11.4-8.9-11.5-12.7-9.7S-59.2-42.9-66.5-40.5Zm-76.2,21.7c1.3-.5,4.8-1.9,7.3-3.1l1.2-.7a20.8,20.8,0,0,0,4.6-1.9c4.5-2.5,2.9-7.8,2.2-11.5s-4.7-4-4-4,5.3-1.5,10.1-.1,9.2,8.2,9.2,8.2-2.2-7.8-7.3-9.9-5.3-1.6-5.3-1.6,7-1,11.6,1.8,12.9,11.6,21.5,12.9,12.2.1,12.2.1a25.9,25.9,0,0,0-4.8,3.8,6.7,6.7,0,0,0-1.6,3.4s8.5-7.4,18.1-7.7c6.4-.2,11.1,4.5,13.5,7.6a16.6,16.6,0,0,0-13.5.4c-7.5,3.8-8.5,10.7-12.7,19.6S-90.7,12.2-92.8,12.4h-2.1S-96.3-1-102.6-11.7s-8.8-12.3-9.3-8.1-.5,15.2-1.6,20.7-1.5,7.9-1.5,7.9a91.8,91.8,0,0,0-31.1,1.1l-2.2.5-.2-.2c-1.5-1.5-1.6-4-1.2-8.4s2.5-8.8,4.4-12.6a15.3,15.3,0,0,0,1.5-6A9.6,9.6,0,0,0-142.7-18.8Zm-14.6.7a8.1,8.1,0,0,0,2.5.8l3,.3a9.1,9.1,0,0,0,2.5,3.2l.3,1.2c.4,1.9.3,3.7-1.9,8.1s-1.5,8.6-1.8,12.6a6.3,6.3,0,0,1-1.2,3.6c-9.8,2.5-12.2,4.1-12.2,4.1a104.2,104.2,0,0,1-7.5-9.3c.5-1.3,1.2-3.4,1.7-5.2s.5-6.4,1-12.9c.3-4.7,4.3-8.2,6.5-9.9.6.7.4.9,2.7,2.1A15.3,15.3,0,0,0-157.3-18Zm.8,99.8h.1s1.5,6.2,13.8,7.8,16.8,1.1,22,0a34.2,34.2,0,0,0,7.4-2.2s-6.7-3.6-11.6-3.3-6.4.8-6.4.8,7-5.9,17.8-1.5,21.8,10.7,41.1,2.1S-35,63.3-35,63.3s-.5-23.8-2.2-34a77,77,0,0,0-4-15l-2.6,5.4c-3,6.6-11.8,9.6-20.3,7.4s-27.7-9.9-37.8-13.4-30.1-3.8-49,.3-33.4,13.1-32,20,5.7,8.5,5.7,8.5l12-7.1c10.7-6.3,26.6-3.6,26.6-3.6s-11.2.8-18.9,4.7-10.7,12-10.7,12ZM-89.7-100s-10-4.7-16.5-4.3-12.1,9.9-13.7,13.5a33.9,33.9,0,0,0-2.3,7.5,15.9,15.9,0,0,1,.3-7.2l1.1-3.5a29.5,29.5,0,0,0-4.1,4.5l-2.9,3.9s7.2-17.7,18.2-21S-89.7-100-89.7-100Zm-58,16.3s-6.2,4.9-18.8,5.5-18.2.4-21.6,1.1-7.7,1.9-8.4,4.8-7.8,13-7.5,22.7,3.1,12,6.4,15.1a56.5,56.5,0,0,0,5.5,4.5s-5.8,10.5-5.1,15.1,4.1,7.1,4,10.7-1.2,12.2-1.2,12.2l-1.4-7.9s-13.7,16.7-17.9,29.2.8,28.8,13.4,39.4,17.3,12.3,25.1,12.7a60,60,0,0,1-7.5-13.8A33.9,33.9,0,0,1-184,56.9a69.5,69.5,0,0,1-.4-13.3s0,2.5-2.1-7.5,1.1-12,1.1-12-1.9-12.7-2.5-24.2,1.6-11.6,1.6-11.6,2.5,1.6,7.7,10.8c.8,1.4,1.7,2.8,2.5,4.1a15,15,0,0,0,2-7.4c.3-5.9-1.6-10.3,2.5-14.5a38.1,38.1,0,0,1,5.8-4.9h0s-8.2,5.1-12.6,3.8a8.7,8.7,0,0,1-5.6-5.6l3.1,1.4c3.1,1.4,4.4-.4,4.4-.4s-6.2-4.9-6.8-11.2.3-9.2.3-9.2-.4-.1-1.9-1.8a12.3,12.3,0,0,0-1.8-1.8,24.8,24.8,0,0,0-1.9,2.6,6.6,6.6,0,0,0-1.2,4.2s-5.5-3.8-5.5-12.3,7.4-12.7,7.4-12.7,4,4.7,8.4,9.2,13.1,6.8,13.1,6.8l1.6-3.3s0,.1.3,3.4,3,7.5,7.1,10.7,8.1-1,8.1-1a9.8,9.8,0,0,1-4.5-5.8c-1.4-4.2,2.2-7.7,2.2-7.7a18.3,18.3,0,0,0,.5,6.6,8.9,8.9,0,0,0,8.2,6.3c4.2.3,9.2-2.9,9.2-2.9s-2.3,0-5.1-4.4a7,7,0,0,1,.4-8.1s.1,1.4,2.2,2.5,4.8,1,14.1-8.9,13.6-26.2,13.6-26.2,6-4.1,17.1,1.1,14.2,14.4,14.2,14.4c-11.6-4-14.9-2.2-14.9-2.2l-.4,5.9s7.3,1.4,8.2,12.6S-90.1-41-90.1-41a19.7,19.7,0,0,0,12.6-2.9C-70.8-47.9-74-59-74-59s8.5,8.9,1.1,18.2S-93.8-34-93.8-34a22.9,22.9,0,0,0,9.2,2.3c5.5.3,13.3-4.5,18.6-4.1s15.2,13.7,15.2,13.7h.1s.8,1.4,4,5.6S-38.8,5-38.8,5v.2c1.2,3.9,6.7,21.7,7.7,32.4s-.5,27.1,2.2,30.1S-9.8,72.3.3,57.6,17.1,18.1,14.9-12,2.5-47.9-6.5-62.1-21.6-86.2-21.6-86.2s-5.9,4.4-11.7-4.5c-3-4.6-6-9.8-8.4-14.2a6.6,6.6,0,0,0-1.3,2.2c-.5,1.6.1,2.3.1,2.3a11.7,11.7,0,0,1-3-.8,17.7,17.7,0,0,1-3.7-2.5l2.7-1.2a10.7,10.7,0,0,0,3.6-2.9c-1.4-2.7-2.5-5-2.9-6.1v-.3c-1.4.8-3.9,2.4-4.7,4.3s-.8,2.1-1,2.8h1.3s-1.1,4-4,1.3-4.5-4.4-1.5-9.2,5.5-7.9,8.7-4.6,7,13.3,10.8,18.9,7.1,10.5,10.8,11.4,7.5-6.1,7.5-14.3.1-11-2.2-10.9-12.1-2-12.1-2a14.4,14.4,0,0,0,3.5,4.5,23.3,23.3,0,0,1,4,4.2s-6.4-3.3-10.1-7.2S-41-125-44-126.6a10.5,10.5,0,0,0-12.3,1.8,40.9,40.9,0,0,0-7.3,10l-.7,1.4s-21.6-5.8-35.2-7-24.5,3.1-33.3,12.5-13.6,16.2-16.2,19.2a13.4,13.4,0,0,1-6.7,3.8s6.4-5.2,8.6-9.3a42.3,42.3,0,0,1,4.4-6.7s-12.2,2.6-20.3,10.2-13.5,9.2-15.5,10.8C-174-79.6-159-79.2-147.7-83.7Z" transform="translate(219.1 175.9)" style="fill:#c3c7c7;fill-rule:evenodd"/><path d="M-149.2-34.5s-7.7-1.8-10.3,1-3.6,3.1-4,6.6a6.3,6.3,0,0,0,2.3,5.5s.3-4.8,4.5-3,4.4,4,6,6.2,3.1,2.3,3.1,2.3,3-4.5,5.1-8.5,7.4-5.9,8.9-3,.7,3,.7,3,4.7-1.4,4.5-6.2-1.6-8.9-7-7.8-11.1,4.9-14,4" transform="translate(219.1 175.9)" style="fill:#c3c7c7;fill-rule:evenodd"/><path d="M-130.9-28.8c.3-.4,1.6-4,.3-6.6s-6.8-1.7-10.3.3-7.1,3.3-9.4,3.2a5.8,5.8,0,0,1-3.3-1s-.1,3.3,4.4,3.2,7.4-4.5,12.4-4.7,5.9,2.7,5.9,5.5" transform="translate(219.1 175.9)" style="fill:#fff;fill-rule:evenodd"/><path d="M-101.9-67.8A13.4,13.4,0,0,1-89.3-54.4,13.4,13.4,0,0,1-102.7-41a13.4,13.4,0,0,1-13.3-12,78.9,78.9,0,0,0,7.8-6.8,49.9,49.9,0,0,0,6.4-8" transform="translate(219.1 175.9)" style="fill:#fff;fill-rule:evenodd"/><path d="M-165.6-24.5a13.4,13.4,0,0,1-12.7-13.4,13.4,13.4,0,0,1,.8-4.7,19.8,19.8,0,0,0,5,2.1,90.4,90.4,0,0,0,10.1,1.2s0,.1,1.2,1.4a9.9,9.9,0,0,0,1.5,1.4s-5.3,3.1-5.7,7.7c-.2,2-.3,3.4-.3,4.4" transform="translate(219.1 175.9)" style="fill:#fff;fill-rule:evenodd"/><path d="M-55.5-4.7a11.6,11.6,0,0,1,2.2,2.1c1.2,1.5,1,2.4,1,2.4A13.2,13.2,0,0,1-53.5,3l-.7,1.2A16.4,16.4,0,0,0-55.6.6l-.7-.9a4.4,4.4,0,0,0,.8-4.4m-9.2,2.4A9,9,0,0,1-63-.6c1,1.2.7,1.8.7,1.8a10.3,10.3,0,0,1-.9,2.5l-.5.9a12.8,12.8,0,0,0-1.2-2.8l-.5-.7A3.5,3.5,0,0,0-64.7-2.3Zm-2.1-4.9s.3-6,2.7-7.7,7,2.3,7,2.3,1-4.4,3.8-4,4.9,4.2,4.9,7.3-.3,5.6-.3,5.6A17.2,17.2,0,0,1-44.1,6.8c.7,6.8-4.8,8.4-6.4,7.1a23.4,23.4,0,0,1-2.2-1.8s-.5,3.7-3.4,4-5.8-2.9-5.8-2.9-1,3.6-4.2,3.3a8.9,8.9,0,0,1-5.5-2.9,4.5,4.5,0,0,1-4.2,3.1c-3.6.3-7.1-5.2-7.1-5.2s2-3.3,3.7-6.5h1.5a8.4,8.4,0,0,1,2.7,1.4,6.5,6.5,0,0,1-.2-1.2,3.9,3.9,0,0,1,.5-2.2s-.4-1.3-1.2-3.2A10.5,10.5,0,0,1-76-5.8S-72.9-17.9-66.9-7.2Z" transform="translate(219.1 175.9)" style="fill:#fff;fill-rule:evenodd"/><path d="M-112.2,9s5.9.9,8.6,1.5l5.7,1.4s-1-10.1-4.6-17.6-5.9-11.3-6.8-10.8,1.4,12.1-2.9,25.5" transform="translate(219.1 175.9)" style="fill:#fff;fill-rule:evenodd"/><path d="M-168.7,16.6s-5.2-6.3-10.5-14-6.2-11.4-6.2-7.9a104.8,104.8,0,0,0,1,17.1c1.1,6.6,2.2,10.5,2.2,10.5s4.4-4.1,13.6-5.7" transform="translate(219.1 175.9)" style="fill:#fff;fill-rule:evenodd"/><path d="M-190.1-96.6a20.8,20.8,0,0,1,6.9,6c3.2,4.2,3.5,6,3.5,6l-4.4,1.3s1.6-5.4-6-13.2m-5.1,7.4,1.8-2.9a33,33,0,0,1,3.7,5.4,14.7,14.7,0,0,1,2,4.8l-4.4.9A22.6,22.6,0,0,0-195.3-89.2Zm32.6-6.6s-9.8-13.5-14.4-16.5-13.9-2.2-13.9-2.2-12.6,12.8-15.3,17.8-2.2,9.7-.6,12.3,2.3,0,6.4-7.9,8-12.5,12.8-12.3,8.4,2.6,9.5,6.9a66.6,66.6,0,0,1,1.5,9.9S-167.7-89.7-162.7-95.8Z" transform="translate(219.1 175.9)" style="fill:#c3c7c7;fill-rule:evenodd"/><path d="M-101.7-57.2a4.1,4.1,0,0,1,4.1,4.1,4.1,4.1,0,0,1-4.1,4.1,4.1,4.1,0,0,1-4.1-4.1,4.1,4.1,0,0,1,4.1-4.1" transform="translate(219.1 175.9)" style="fill:#050000;fill-rule:evenodd"/><path d="M-168.2-40.7a4.1,4.1,0,0,1,4.1,4.1,4.1,4.1,0,0,1-4.1,4.1,4.1,4.1,0,0,1-4.1-4.1,4.1,4.1,0,0,1,4.1-4.1" transform="translate(219.1 175.9)" style="fill:#050000;fill-rule:evenodd"/><path d="M10.2,36.3c-2.8,3.8-5.4,6.8-7.6,8.1C-8.1,50.7-21.3,57-23.7,24.1S-53.3-37.5-53.3-37.5s6.4-1.6,11.4,2c-3.6-4.9-8-7.6-12-6.6a96.4,96.4,0,0,1-12.6,1.6c7.3-2.5,11-5.5,14.8-7.3s7.8-1.6,12.7,9.7a72.4,72.4,0,0,1,5.2,18.9,13.4,13.4,0,0,1,.2,1.4,66,66,0,0,0-3.3-22.2c-3.8-11-7.7-12.3-13.4-11.5S-62.1-44-65.1-43.5a66.5,66.5,0,0,0-7.4,2.3l-.4.5C-80.3-31.4-93.8-34-93.8-34a22.9,22.9,0,0,0,9.2,2.3c5.5.3,13.3-4.5,18.6-4.1s15.2,13.7,15.2,13.7h.1s.8,1.4,4,5.6S-38.8,5-38.8,5v.2c1.2,3.9,6.7,21.7,7.7,32.4s-.5,27.1,2.2,30.1S-9.8,72.3.3,57.6a77.7,77.7,0,0,0,9.8-21.2m-195.4,5.2a15.1,15.1,0,0,0,4,5.1,12,12,0,0,0,6.2,1.9,55.2,55.2,0,0,0,3.3,14.8c2.7,6.7,9.9,19.6,9.9,19.6a92.9,92.9,0,0,1-15-1.8c-6.8-.7-12.4-3.3-22.7-12a60,60,0,0,1-6.5-28.7c.5-17,12.3-24.4,12.3-24.4s5.8-12.9,2.5-22.7,3.6-4.9,9-4.4c3.2.3,6.2-1.2,8.3-2.5-.4,2.8.3,5.8.1,9.4a15,15,0,0,1-2,7.4c-.9-1.3-1.7-2.7-2.5-4.1-5.2-9.2-7.7-10.8-7.7-10.8s-2.2.1-1.6,11.6,2.5,24.2,2.5,24.2-3.1,2.1-1.1,12C-185.9,38.6-185.5,40.3-185.2,41.5Zm-7.2-109.9s-6.3,4.4-5.2,14.2,9.3,20.3,9.3,20.3l1.6-5.7s2.2,9.6,4.1,12l1.9,2.5s-4.4-.8-6-2.2l-1.6-1.4s.5,6.8,5.2,9.9a23.6,23.6,0,0,0,9.6,3.2,9.1,9.1,0,0,1,2.1-3.2,38.1,38.1,0,0,1,5.8-4.9h0s-8.2,5.1-12.6,3.8a8.7,8.7,0,0,1-5.6-5.6l3.1,1.4c3.1,1.4,4.4-.4,4.4-.4s-6.2-4.9-6.8-11.2.3-9.2.3-9.2-.4-.1-1.9-1.8a12.3,12.3,0,0,0-1.8-1.8,24.8,24.8,0,0,0-1.9,2.6,6.6,6.6,0,0,0-1.2,4.2s-5.5-3.8-5.5-12.3,7.4-12.7,7.4-12.7,4,4.7,8.4,9.2,13.1,6.8,13.1,6.8l1.6-3.3s0,.1.3,3.4,3,7.5,7.1,10.7,8.1-1,8.1-1a9.8,9.8,0,0,1-4.5-5.8c-1.4-4.2,2.2-7.7,2.2-7.7a18.3,18.3,0,0,0,.5,6.6,8.9,8.9,0,0,0,8.2,6.3c4.2.3,9.2-2.9,9.2-2.9s-2.3,0-5.1-4.4a7,7,0,0,1,.4-8.1s.1,1.4,2.2,2.5,4.8,1,14.1-8.9,13.6-26.2,13.6-26.2,6-4.1,17.1,1.1,14.2,14.4,14.2,14.4c-11.6-4-14.9-2.2-14.9-2.2l-.4,5.9s7.3,1.4,8.2,12.6S-90.1-41-90.1-41a19.7,19.7,0,0,0,12.6-2.9C-70.8-47.9-74-59-74-59l.5.6-.9-1.8s-.5,10.1-3.6,12-4.4,1.9-4.4,1.9,3.3-10.4,2.2-15.1a39,39,0,0,0-4.1-9.6s3-3,7.9.8a42.6,42.6,0,0,1,7.4,7.1s1.1-15.3-12-25.2-22.7-7.9-27.1-7.1-6.8,6-6.8,6-4.7,15.1-8.2,20-11.8,9.3-11.8,9.3l-6-2.2s-5.2,3.6-3,9.3l2.2,5.8s-4.4,2.7-6-1.6-.8-10.7-.8-10.7-8.5,3.3-7.4,8.8l1.1,5.5s-2.7,1.4-4.9-5.2-1.4-10.4-1.4-10.4l-4.9,4.1s-15.1-4.1-18.1-11.5S-192.4-68.4-192.4-68.4Z" transform="translate(219.1 175.9)" style="fill:#c3c7c7;fill-rule:evenodd"/><path d="M-123.1-37.7a5.8,5.8,0,0,1,3.7,2.6c1.7,2.4-.2,6.7-.2,6.7s.4-4.3-3.5-9.4m37.5,16v.5s8.5-7.4,18.1-7.7A13,13,0,0,1-62-27.8a19.1,19.1,0,0,0-4.5.5c-10.7,2.5-12.9,5.2-15.9,10.4a38.3,38.3,0,0,1-7.1,8.8S-89.3-16.5-85.7-21.8Zm-41.7-14V-36c-.7-3.7-4.7-4-4-4s5.3-1.5,10.1-.1,9.2,8.2,9.2,8.2-2.2-7.8-7.3-9.9-5.3-1.6-5.3-1.6,7-1,11.6,1.8,12.9,11.6,21.5,12.9l4.4.5a15.3,15.3,0,0,0-6.4,11,17.8,17.8,0,0,1-6,11.6,49.2,49.2,0,0,0-3-6.1c-6.3-10.7-8.8-12.3-9.3-8.1s-.5,13.6-1.4,19.3c-10.2.7-24.7-1-28.7.2l-4.4,1.4s-.8-4.7,2.5-10.4,3.3-6.8,3.3-6.8,12.9,0,14.2-7.9A23.2,23.2,0,0,0-127.4-35.8Zm-42.9,46.7-3.4-4.5c.5-1.3,1.2-3.4,1.7-5.2s.5-6.4,1-12.9c.3-4.7,4.3-8.2,6.5-9.9.6.7.4.9,2.7,2.1l1.6.7,1.4,1.2a71,71,0,0,0,6.6,4.7s.8,3.8-1.1,6.3-1.6,4.1-1.6,7.1,1.1,6.6-4.7,7.4A59.5,59.5,0,0,0-170.2,10.9ZM-47.9,24.7c-4.1,3-10.2,4-16.1,2.4-8.5-2.2-27.7-9.9-37.8-13.4s-30.1-3.8-49,.3-33.4,13.1-32,20a12.3,12.3,0,0,0,4.3,7.6c.9-2.2,2.8-4.7,6.4-7.1,9.6-6.3,37.2-9.6,49-4.9s14,9,14,9-30.1-2.5-38.9,3a131.5,131.5,0,0,0-11.8,7.9s4.4,18.3,8.5,24.9,12.9,7.1,12.9,7.1,13.7-11.2,25.5-6.8,33.1,7.9,50.4-8.2,17.5-16.7,17.5-16.7-1.4-14-2.7-16.2-7.1,2.2-14.2,1.9-8.8-1.1-8.8-1.1,11-1.6,18.3-4.4A6.5,6.5,0,0,0-47.9,24.7Z" transform="translate(219.1 175.9)" style="fill:#c3c7c7;fill-rule:evenodd"/></svg>