<svg id="Layer_1" data-name="Layer 1" xmlns="http://www.w3.org/2000/svg" viewBox="0 0 747.5 530.5"><title>Bulldog448_3c</title><path d="M-258.9,114.1c-33.1,0-59.3-24.8-68.3-64.7s-1.3-83.5,17.9-105.2c-4.8-6.9-6.4-15.1-4.3-22.7a24.8,24.8,0,0,1,10.1-13.9c-5.6-7.6-7.8-17.7-5.7-28.3,2.5-12.5,10.5-22.3,20.8-25.6,3.4-4.7,8.5-7.9,14.9-9.5,5.5-6.2,12.6-12.7,19.6-19.1.8-4,1.9-10.4.5-12.4h0c-3,2.7-6.3,4.1-9.5,4.1a9.4,9.4,0,0,1-8.1-4.4c-2.7-4.2-2.2-10.2,1.4-17.7,7.9-16.4,23-26.6,39.3-26.6,14,0,29.2,8.4,34.1,27.1,10.1-.5,17.1.3,22.8,2.6,11.3-5.2,25.8-8.1,40.4-8.1a87.8,87.8,0,0,1,26.8,3.9c16.3-18,35.4-27.8,54.1-27.8S-14.3-223.4-2.2-204c5.4,8.7,9.5,22.2,6.2,32.8A20.5,20.5,0,0,1-7.5-158.1l-8.2,3.6-.9-8.9a46.6,46.6,0,0,0-4-14.7l-1,2c-4.1,8.8-5.6,24-.5,34.7a41.2,41.2,0,0,0,3.3,4.3c6.3,7.7,15.8,19.3,12.4,45.9C-8-78.4.3-64.8,7.8-54.3l.5.8C20.1-30.7,23.6-2.2,17.7,24.6S-3.2,73.8-23.4,84.9c-12.6,16.1-36.7,23.3-55.3,23.3-16,0-28.7-5.1-34.8-14a15,15,0,0,1-1.5-2.8c-8.3,5.4-19.4,8.6-31.2,8.6a69.9,69.9,0,0,1-20.4-3.1c-17.9,10.5-35.5,15.6-53.6,15.6a100.8,100.8,0,0,1-17.4-1.6A76.5,76.5,0,0,1-258.9,114.1Zm1.8-315.3,2.3.2c5.2.5,9.2,2.6,11.8,6.2,4.7,6.5,3.2,15.8,1.2,24.7l-.4,2-1.8,1.6c-7.8,7-15.8,14.3-21.2,20.7l-1.5,1.8-2.3.4c-4.9.9-8.1,2.8-9.9,6l-1.5,2.6-2.9.6c-6.5,1.3-11.8,7.6-13.5,16.1s-.1,17.1,7.9,22.4l12.3,8.2-14.4,3.4c-5.4,1.3-9.2,4.6-10.4,9.1s.5,10.6,5.1,15l5,4.9-5.3,4.6C-315.1-34-323.1,8.6-314.6,46.6c6,26.4,23.7,54.6,55.7,54.6h0a64.4,64.4,0,0,0,18.9-3l1.5-.5,1.6.3a88,88,0,0,0,16.6,1.6c16.5,0,32.7-5,49.4-15.3l2.6-1.6,2.9,1a57.3,57.3,0,0,0,19,3.3c15.9,0,27.9-7,31.4-13.9l12.2,2.9a37.9,37.9,0,0,1-.4,5.3c-.3,2.8-.5,4.5.2,5.5,3.6,5.2,12.6,8.4,24.1,8.4,18.7,0,37.6-7.9,45.8-19.2l.9-1.2,1.3-.7C-13.2,65.1-.1,46,5.1,21.9S7.3-27-3-47.2c-8.8-12.4-18.4-28.7-16.2-45.6,2.7-21.1-4.1-29.4-9.5-36.1a47,47,0,0,1-4.6-6.2l-.2-.4c-7.3-15.2-5-34.5.3-46,3.3-7.1,7.8-11.6,12.9-13l4.6-1.2,2.5,4.1A70.4,70.4,0,0,1-7.7-181a37.7,37.7,0,0,0-5.4-16.1c-9.7-15.6-23.5-24.1-38.9-24.1s-32.8,9.5-47.2,26.7l-3,3.6-4.4-1.8c-7.2-3-16.3-4.5-26.3-4.5-13.7,0-27.6,3-37.4,8.1l-3.1,1.6-3.1-1.7c-2-1.1-5.6-2.6-14.2-2.6-2.9,0-6.3.2-10.1.5l-6.2.6-.8-6.2c-2.1-16.1-13-21.9-22.5-21.9S-250.1-214.2-257.1-201.1Z" transform="translate(373.8 265.3)" style="fill:#fff;fill-rule:evenodd"/><path d="M-36.8,265.3a50,50,0,0,1-8.2-.7c-9.3-1.6-15.3-4.2-20-13.2-9.7-.1-21.7-4-26.2-20.7A19.6,19.6,0,0,1-102,218.2c-4.6-15.2,6.3-36.1,14.7-46.4,6.9-17.8,18.6-21.6,27.4-21.6,6.3,0,13.3,1.9,21.3,5.8a53.9,53.9,0,0,1,17.1-2.6h.2C-3.7,133.2.7,124.1,4.9,115.2a124.5,124.5,0,0,1,6.9-13.1l-.6-.7c-11,6.1-26.3,9.5-43.1,9.5A125.9,125.9,0,0,1-91,96.4a135.2,135.2,0,0,1-35.7,5.1c-25.4,0-48.6-8.6-69-25.5a155.9,155.9,0,0,1-46.6,29.5c8.2,13.5,12.4,25.3,12.6,35.8,12.6-.5,23.5,3.6,34,12.6a32.7,32.7,0,0,1,12.2-2.4c21,0,36.9,21.4,37.1,40.6.1,14.4-8.7,24.4-22.9,26.6a17.8,17.8,0,0,1-3.2,5.2c-5.6,6.5-16.7,11-26.7,10.7a17,17,0,0,1-3.2,4.5c-4.5,4.5-11.9,7.1-20.1,7.1l-3.6-.2c-5.3,9.2-15.7,15.2-27.2,15.2-8.4,0-24.3-3.3-37.9-25.1-3.7-3.6-8.5-5.7-13.7-8-11.8-5.2-26.5-11.6-29-38.5-10.5-38.1-22-57.8-29.6-70.8-9.3-15.9-14.9-25.5-5.4-46.3,6.4-13.9,9-25.9,11.7-38.6,7-32.3,14.3-65.7,84.4-128.6,8.1-13.9,20.5-26.6,38.9-39.7,7.7-30.8,35-65,65.9-82.1l14.2-8.1c31.2-18.1,70-40.5,115.6-40.5,25.6,0,50.7,7.3,74.6,21.8,28.3,17.1,45.6,42.5,62.4,67.1,8.2,12.1,16.7,24.6,26.4,35.7,20,13.3,37.9,15.3,56.8,17.4,9.1,1,18.4,2.1,28.1,4.4,6.3-3.1,5.9-6.5,2.1-18.5-2.4-7.7-5.2-16.4-3.6-25.8,3.7-21.6,19.2-34.5,41.3-34.5a59.1,59.1,0,0,1,6.9.4c9.8,1.2,23.6,9.8,27.7,20.4,2.2,5.7,1.3,11.2-2.5,15.6l-6.2,7.1-4.4-8.4c-2.5-4.8-9-8-16.1-8-5.4,0-10,1.9-12.7,5.1s-3.7,8.4-2.4,14.8c.6,3.2,2.2,6,4,9.2a53.8,53.8,0,0,1,5.5,12.5c2.5,9.2,1.9,20.4-3.7,28.5,20.5,14,32.6,36.7,43.4,56.9S310.4-3.7,326.5.5c26.6,6.8,26.1,27.3,25.5,49.1-.5,19.3-1.1,41.1,13.6,63.9,15.7,24.5,5.5,34.6-3.4,43.6-5.1,5.1-10.4,10.4-12.4,19.4-1.8,21.4-17.3,32.6-31.9,32.6a29.1,29.1,0,0,1-13.9-3.5,22,22,0,0,1-15.1,5.9,23.6,23.6,0,0,1-14.7-5.2,19.1,19.1,0,0,1-8.5,1.9,21.4,21.4,0,0,1-12.2-3.8h-1.3c-7.2,0-13.3-3.7-17.2-10.5-6.5-11.3-5.8-29.5,1.6-42.4s17.4-17.4,30.2-16.6a30.2,30.2,0,0,1,13.9-13.2c-2.8-10.3-8.6-21.1-17.7-23.8-11.9,4.1-25.7,8.2-39.1,8.2a54.6,54.6,0,0,1-29.3-7.9c1.5,17.4-9.2,33-18.4,46.2l-5.3,7.7c-22.7,34.8-52.5,46-76.4,55.1-17.9,6.8-32.1,12.1-39.2,24.9-8.7,15.5-22.1,23.8-38.9,23.8a62.1,62.1,0,0,1-13.3-1.5l-2.7-.3c-3.9,0-7.6,1.9-12.2,4.2C-18,261.3-25.8,265.3-36.8,265.3Zm-20-27.4,1.8,4.5c3.1,7.7,5.2,8.4,12.1,9.5a36.8,36.8,0,0,0,6.1.5c7.8,0,13.3-2.8,19.1-5.8S-6.6,241,.4,241a26.3,26.3,0,0,1,5.5.6,49.3,49.3,0,0,0,10.5,1.2c12.1,0,21.1-5.6,27.6-17.2,9.4-16.9,27.2-23.6,45.9-30.7,23.3-8.8,49.7-18.8,70.1-50.1,1.7-2.7,3.6-5.4,5.4-8,11.9-17.2,23.1-33.4,10.9-51.6l-4.7-7,14.9-5,2.8,3.3c9.6,11.2,20.5,16.5,34.4,16.5,12.1,0,25.3-4.1,36.6-8l1.6-.6,1.7.3c18.1,3.4,27.7,22.7,30.8,39.8l1,5.7-5.6,1.6c-6.7,2-10.6,5.5-13.3,12.4l-2,4.9-5.2-1c-9.6-1.8-17,1.5-21.7,9.7-5.7,9.9-5.3,23-1.6,29.5,2.1,3.6,4.4,4.1,6,4.1l1.9-.2,3.3-.7,2.5,2.3a8.6,8.6,0,0,0,5.9,2.4c2.1,0,3.3-.8,3.5-1.1l5-7.9,5.7,7.5a11.5,11.5,0,0,0,9.1,4.9c3.4,0,6.6-1.8,7.6-4.4l3.5-8.5,6.8,6.2a16.2,16.2,0,0,0,11,4.3c8.4,0,17.9-6.6,19-21.1v-.9c2.8-13,10.1-20.4,16-26.3,8.3-8.3,11.8-11.7,1.7-27.5-16.8-26.2-16.1-51.1-15.6-71.2.6-22.7.2-32.1-15.8-36.2-21.6-5.5-33.2-27.2-45.5-50.2s-23.9-44.7-45.5-56l-10-5.3,9.6-5.9c6.3-3.9,7.1-13.6,5.1-20.9a42.1,42.1,0,0,0-4.3-9.6c-2.1-3.9-4.3-7.8-5.3-13-2.5-12.9,1.4-21,5.1-25.5,5.2-6.2,13.4-9.8,22.7-9.8l4.5.3a17.1,17.1,0,0,0-4.5-1.3,46.1,46.1,0,0,0-5.4-.3c-9.1,0-25,3.1-28.6,23.7-1.1,6.3,1.1,13.1,3.2,19.7,3.6,11.4,8.6,27-11.3,35.2l-2,.8-2.1-.6c-9.5-2.5-18.7-3.6-28.4-4.7-19.8-2.2-40.4-4.6-63.3-20l-.7-.5-.6-.6c-10.4-11.8-19.3-24.9-27.9-37.5-16.7-24.5-32.4-47.6-58.4-63.3-22.2-13.4-44.4-20-67.9-20-42.2,0-79.3,21.5-109.1,38.8l-14.4,8.2c-28.3,15.7-54.2,48.4-60.1,76.1l-.5,2.5-2.1,1.5c-18.3,12.7-30.2,24.7-37.6,37.8l-.5.9-.8.7C-331-25.2-337.6,4.8-344.5,36.6c-2.8,12.8-5.7,26-12.6,41.2s-4.1,19.3,4.8,34.4,20.1,34.4,31,74.5l.2.6v.6c1.7,19.8,10.4,23.6,21.4,28.4,6,2.6,12.8,5.6,18.3,11.4l.5.5.4.6c7.7,12.6,17.4,19.5,27.3,19.5,7.9,0,15-4.7,17.2-11.4l1.8-5.5,5.7,1.2a28.9,28.9,0,0,0,6.1.7c5.7,0,9.4-1.7,11-3.3a3.2,3.2,0,0,0,1.1-2.4v-8.3l8.1,2a16.7,16.7,0,0,0,4,.5c6.7,0,13.5-3.2,16.2-6.3a3.3,3.3,0,0,0,1-1.8l-1-7.2h7.3c10.5-.2,15.7-4.9,15.6-14.1-.1-12.6-10.9-27.8-24.2-27.8a21.3,21.3,0,0,0-10.2,2.8l-4.2,2.3-3.4-3.3c-8.6-8.3-16.8-12.1-26.6-12.1a42.5,42.5,0,0,0-7.7.7l-9.5,1.8,2-9.4c2.2-10.4-2.5-23.9-14.3-41.3l-4.7-6.9,7.9-2.8a141.7,141.7,0,0,0,53.7-33.5l4.4-4.3,4.5,4.1C-172.2,80-151,88.5-126.6,88.5A124,124,0,0,0-92,83.2l2.6-.8,2.4,1.4a112.3,112.3,0,0,0,55,14.3C-15.1,98.1.2,94.2,9,87.6l5.7-4.2,3.7,6A23.1,23.1,0,0,0,24.2,96l4.9,3.8-3.5,5a101.1,101.1,0,0,0-9,16c-4.5,9.5-9.7,20.3-30.1,43.4l-2,2.3h-5.9A40.2,40.2,0,0,0-36.6,169l-2.7,1.1-2.6-1.4c-7.1-3.7-13.2-5.6-17.9-5.6s-11.1,1.6-15.6,14.2l-.4,1.1-.8.9c-8.2,9.6-15.5,26.5-12.9,35.2.5,1.8,1.7,4,5.7,5.2l3.9,1.1.7,3.9c1.8,9.8,6.1,13.7,14.8,13.7h2.9Z" transform="translate(373.8 265.3)" style="fill:#fff;fill-rule:evenodd"/><path d="M120.9-135.8c32.4,21.8,59.8,15.9,89.8,23.8,23.3-9.7.7-29.5,4.3-50s20.9-31.1,41.1-28.7c11.6,1.4,29.3,16,21.1,25.4-9.4-18-49.7-16.6-43.3,16.2,1.6,8.1,7.2,13.3,9.5,22.2s1.6,22.2-8,28.1C281.8-74.5,287-3,324.9,6.7c41.3,10.5,2.3,58.7,35.2,110.2,21.2,33.1-10.8,30.1-16.8,58.6-1.9,25.5-26.5,34.1-40.8,21.1-3.8,9.4-19,12.5-27.8.9-3.1,4.9-12.9,6.1-19.3,0-27.8,5.8-25.4-63.4,15.3-55.7,2.9-7.1,7.5-13.2,17.5-16.2-2.9-16.5-11.9-32-25.6-34.6-28.3,10-55.8,15.8-78.1-10.3l-2.7.9c16.9,25.2-3.3,46.9-16.3,66.8-38.3,58.7-96.9,46.5-115.8,80.3C37.7,250.2,19,251,4.5,247.9c-16.2-3.4-23.9,14.4-48.5,10.3-8.8-1.5-13-3.4-17.1-13.5-12.9,1.2-21.9-3.9-24.7-18.9-20.9-5.9-7.5-37.2,4-50.7C-73.7,153.5-58.3,153-39,163a49,49,0,0,1,20.6-3.1c30.6-34.6,25.3-39.6,38.6-58.8a29.4,29.4,0,0,1-7.4-8.3c-19.9,14.9-66.2,17.7-103-3.4-42.7,12.5-77.4,3.6-105.7-22.2a149.1,149.1,0,0,1-56.1,35c11.6,17,18.1,32.8,15.3,46.2,17.5-3.2,29.7,3.1,39.9,13,36.9-20.2,65.6,50.4,22,51.2,1.3,9.1-16.5,18-29.2,14.8,0,9.3-12.7,14.3-26,11.4-5.7,17.5-35.4,27-56.1-6.7-13.8-14.5-38.4-8.2-41.4-43.7-23-84.5-50.7-80-35.5-113.3,23.4-51.3-1.5-79.1,95.4-165.8,9-16.1,23.3-28.7,39.5-39.9,6.4-29.9,33.4-63.8,63.3-80.3,45.9-25.5,115.8-76.6,197.9-26.9,41.3,25,58.2,68.4,87.8,102.1" transform="translate(373.8 265.3)" style="fill:#050000;fill-rule:evenodd"/><path d="M-264.3,221.1c-10.8-16.4,4.3-28,13.9-25.1,5.7-11.9,15-17,29.1-14.5,4.4-4.9,9.2-9.7,18.4-13.5-15-21.6-66.6-14.4-88.6,20.2,8-20.3,23.3-33.9,48-38.6,3.3-19.4-8.7-36.8-19.6-44.8h-17.1c-15.5,6.3-33.7.9-52.7-9a80.6,80.6,0,0,0,26.5,3.4c-13.4-5-19.5-10-23.3-15,44.3,24.1,90,14.3,128.8-23.1-37.4-41-47.2-122.9-29.4-178-25.5,17.8-43.8,44.1-52,82.3-1.8-12.6.9-25.1,4.5-37.7-32.4,34.4-61.2,69.9-66,112.7l20.2-24c-11.1,22.6-26.2,43.4-33.2,67.8-8.5,22.3,28.9,40,38.6,105,4.9,32.6,21.8,14.2,46,46.2,14.8,19.6,43.4,9.6,33.7-14.4S-266.1,200.5-264.3,221.1Z" transform="translate(373.8 265.3)" style="fill:#fff;fill-rule:evenodd"/><path d="M-244.5,198c6.9,4.7,16.1,19.4,16.2,32.9,23.4,3.6,18.9-18.2,15-28.2C-219.7,186.2-238.5,184.4-244.5,198Z" transform="translate(373.8 265.3)" style="fill:#fff;fill-rule:evenodd"/><path d="M-214.9,185c6.9,4.7,14.3,20.7,13,34.2,23.4,3.6,20.5-17.1,16.6-27C-191.7,175.6-205.7,173.6-214.9,185Z" transform="translate(373.8 265.3)" style="fill:#fff;fill-rule:evenodd"/><path d="M-165.7,176.9c-5.5-7.1-17.3-13.1-29.6-7.9,12.3,6.8,21.9,22.1,20.6,35.6C-157.1,207.1-159.2,185.3-165.7,176.9Z" transform="translate(373.8 265.3)" style="fill:#fff;fill-rule:evenodd"/><path d="M337.6,61.8c-.1-15.8,8.5-39.3-15.6-47-39.2-13.4-42.1-64.4-74.8-93.7-49.5-44.3-90.5-20.8-115.1-43.1,7.5,13.8,19.8,27.6,35.7,41.4-37.3-9.9-72.9-82.8-112-126.6-54.4-60.9-119-53.2-189.9-13.5-67.7,38-78,59.1-88,103.2C-244.8-16.7-211.5,103.9-100.3,81.8c-17.3-11.7-25.1-23.3-29.2-35C-87.1,93.1-40.9,108.2,9.8,85-.3,58.5,6.7,42.4,17,28.5c-8.2,20.3-5,57,10.5,65.3,22-18,45.2-21,69.6-7.9-22.6-6.6-47.1-2.3-63.1,11.9-12.8,11.3-8,24.5-44,65.3,20.5,10.6,24.1,25.2,24.2,40.6-6.6-19.9-25.3-39.3-48.5-37l3.4,5.2c-14.3-3.7-30.7-11.6-39-2.7,10.5-2,19.1,3.1,27.2,10.1-44.2-21.7-51.9,37-42,39.1-.1-19.7,22.4-53.2,50.5-28.3-25.6-12.8-45,11.8-42.6,33.7,1,9.9,5.8,14.1,13.9,13.2.2-31.8,19.5-47,39.5-37.3,4,1.6,11.7-3.9,14.8.2-4.4.5-6.1,3.3-9.2,4.9,2.1,3,3.5,5.9,3.1,8.3-36.3-29.7-47.9,26-34.8,34.8,24.1,7.6,30.2-7.8,49.4-8.3,15.3,1,29.4,6.7,41.7-15.7,10.9-19.7,48.4-31.2,73.9-44.5,33.3-17.4,75.3-67.1,59.7-89.8-10.5-15.2,5.6-51-26.5-78.1-5.5,2.8-11.1,6.1-16.6,5.8,23.6-15.2,10.9-58.8-9.9-78.1C147-45.3,157.5-24,153.3,3.5c19.6,16,26.5,41.5,26.9,71.8,18-15.4,27-42.6,26.5-82.6,8.5,32,4.5,60.2-15.7,83.3,38,46.8,109-30.9,125.5-9.6-9.1-3.3-28.1,13.6-42.2,20.4,15.9,10.8,19.4,23.5,22.7,36.1,15.9,1.5,23,7.7,28.7,14.6-15.4-8.6-37.7-11.6-49.4,6.5a18.9,18.9,0,0,1,6.1,5.8c7.7-2.9,11,.1,12.1,5.6-15.5-7.9-24.6,28.9-10.5,41.3,5.1,2.2,11.9.8,14.4-6.7-4.4-6.9-4.9-19.1-1.1-27.4,11.1-24.4,34.6-13.4,31-2.9-7.8-13.4-25.3-7.2-26.5,10.5-2.2,33.7,30.1,27.9,31.2,11.9,5.4-24.6,14.3-28.8,24.1-41.4C365.6,129.7,337.8,116.2,337.6,61.8Z" transform="translate(373.8 265.3)" style="fill:#fff;fill-rule:evenodd"/><path d="M272.6,191.2c-3.9-13-3.3-25.8,3.6-38.2C252.1,149.6,248.5,205.2,272.6,191.2Z" transform="translate(373.8 265.3)" style="fill:#fff;fill-rule:evenodd"/><path d="M266.1,148.8c-23.9-2.9-29.1,38.3-13.9,43.5C246,175.1,251.5,152,266.1,148.8Z" transform="translate(373.8 265.3)" style="fill:#fff;fill-rule:evenodd"/><path d="M218.4-108.1c25.7-19.2-4.4-29.9,5.6-60.1,9-27.1,53.2-16.2,53.2-2-7.9-15-39.3-15.3-46-1.3s-3.2,26.3,3.7,40.5c4.9,10.2,4,24.3-5.9,28.2a34.7,34.7,0,0,0-10.5-5.2" transform="translate(373.8 265.3)" style="fill:#522d24;fill-rule:evenodd"/><path d="M322,14.8c-39.2-13.4-42.1-64.4-74.8-93.7-49.5-44.3-90.5-20.8-115.1-43.1,7.5,13.8,19.8,27.6,35.7,41.4C137.8-88.6,109-137,78.6-178.5c.4,8.8-.8,17.3-4.4,25-18.9,40.5-26.7,93.8-6,119.7S96.6-3.7,97.5,17.8s20.7,52.5,42.2,62c16.4,7.2,31.8,22,38.2,28.5,1.5-7.1,1-13.6-2.5-18.7-10.5-15.2,5.6-51-26.5-78.1-5.5,2.8-11.1,6.1-16.6,5.8,23.6-15.2,10.9-58.8-9.9-78.1C147-45.3,157.5-24,153.3,3.5c19.6,16,26.5,41.5,26.9,71.8,18-15.4,27-42.6,26.5-82.6,8.5,32,4.5,60.2-15.7,83.3,38,46.8,109-30.9,125.5-9.6-9.1-3.3-28.1,13.6-42.2,20.4,15.9,10.8,19.4,23.5,22.7,36.1,15.9,1.5,23,7.7,28.7,14.6h-.2a35.4,35.4,0,0,1,5.8,5.8c3.3,4.2,7.9,9.6,13.5,11.8,3.7-4.7,7.9-8.7,12.2-14.2,8.6-11-19.2-24.5-19.4-78.9C337.5,46,346,22.5,322,14.8Z" transform="translate(373.8 265.3)" style="fill:#522d24;fill-rule:evenodd"/><path d="M-246.7-103.2c-9.1,31-16.9,77-3.6,122.7,8,27.5,18.5,45.9,28.9,58.3A155.2,155.2,0,0,0-201,61.1c-37.4-41-47.2-122.9-29.4-178A124.4,124.4,0,0,0-246.7-103.2Z" transform="translate(373.8 265.3)" style="fill:#aa9f88;fill-rule:evenodd"/><path d="M99.3,22.7c-36.9,4-64.2-3.9-78.8-27.4,3.3,30,55.5,46.6,78.8,27.4" transform="translate(373.8 265.3)" style="fill:#231f20;fill-rule:evenodd"/><path d="M-201.3-197.9c16.1-1.5,23.3.2,28.1,2.9,18.6-9.7,49.1-12.1,69.1-3.8,33.5-39.9,74.6-36.7,96.5-1.8,6.5,10.4,11.4,30.4-2.5,36.6a56,56,0,0,0-8.5-24.2c-10.6,2.8-18,31.5-9.1,49.9C-23-130-8.9-122.1-12.8-91.9-14.7-77.3-6.1-62.7,2.6-50.5,25.5-6.3,13.4,58.6-27.7,79.9c-17.4,23.9-67.7,29.3-80.5,10.7-3-4.4-.8-9.6-.9-14.4-7.1,13.7-32.4,22.8-58.3,13.7-20.9,12.8-43.7,19.6-70.6,14.5-44.1,13.7-73.9-16.5-82.9-56.3s-.7-85,20.4-103.4c-12.8-12.5-8.6-31,8.3-35-19.2-12.8-12.1-46.3,7.9-50.3,2.7-4.8,7.5-8,14.4-9.2,5.7-6.8,13.9-14.2,22-21.5,2.5-11.4,4-22-7.4-23.1-6.6,8.7-15,6.1-8.3-7.9,15.6-32.2,57.8-30.4,62.4,4.5" transform="translate(373.8 265.3)" style="fill:#050000;fill-rule:evenodd"/><path d="M-213.4-195.3c-3.5-22.9-33.1-19.4-47.2-.6,7.6-23.8,48.3-34.2,52.1-.9a15.3,15.3,0,0,0-4.8,1.5" transform="translate(373.8 265.3)" style="fill:#fff;fill-rule:evenodd"/><path d="M-219-192.5c0-14.2-15.2-17.6-28.4-8.9,7.6,3.9,9.7,11.9,8.6,22.4a28.6,28.6,0,0,1,6.4-5.3c1.3-9.9-.3-16.8-5.6-20.1,8.7,2.7,11.3,8.8,11,16.5a29.3,29.3,0,0,1,8-4.7" transform="translate(373.8 265.3)" style="fill:#fff;fill-rule:evenodd"/><path d="M-260.2-149.3c30.8-35.3,57.2-47.8,79.7-40.6A138.3,138.3,0,0,0-207-155.8c27.4-40.6,74.9-52.6,115.8-30.1-.4-2.4-1.9-4.8-4-7.2,41.1-65.6,99.5,1.1,87.4,20.3,1.3-21.8-37.5-55.2-58.3-25.6-5.9,10.7.9,26.9,11.4,40.4,0-15.4.7-30.3,10.9-38.2-8.7,3.7-15.2,10.3-15.8,24.8-10-28.2,12-44.3,35.1-22.8-11.2,4.5-16.6,18.9-17,42-5.6-5.7-7.6-13.7-7.9-23-4.5,14.3,3.1,29.8,24.1,51.9,13.9,14.7.7,34.9,7.4,49.6-47.5-30.7-60.7-36-88.6-33.1-34.4,3.7-54,26.8-70.6,31.6,13.9-10.1,13.1-30.5,8.1-37.3,9.5-5.9,18.1-3.7,25.8,7.2-5.6-19-27.4-22-42.6-3.1-6.9,8.5-15.5,22.7-22.2,24.2-14.6,3.7-21.2-6.2-18.1-23.8-5.3,8.4-7.1,17.2-4.2,22.1l-10.4-.6c-4.6-6.9-6-14.3-1.3-22.4-7.4,5.2-8.2,13-4.8,22.4-5.8,0-12-10.1-9.5-20.6-2.8,4.5-4.3,9.8-2,17.3-7.9-7.3-16.4-30-26.4-25.9-5.9,2.4-2,15.7,1.3,19.1-3.7-12.8-.4-15.1,5.5-9.7-2.5,3.5-2.5,14.1-.1,19-21.9-13.8-22.4-34.5-8.5-45.1,6.1-4.3,19.6,4.3,29.6,17.3-4.5-11-10-20.8-20.9-23.8,4.7-7.4,24.1-4.9,31.9,6.5-3.5-9.8-9.4-11.3-14.1-17" transform="translate(373.8 265.3)" style="fill:#fff;fill-rule:evenodd"/><path d="M-206.8-78.7c23.6,14.6,40.5-13.7,28.6-30.3-7.5,5.4-17.3,26.1-28.6,30.3" transform="translate(373.8 265.3)" style="fill:#fff;fill-rule:evenodd"/><path d="M-259.1-84.8a90.2,90.2,0,0,1-15.3-17.9c-2.6,4.8-2.9,25.9,9.6,24.1,2.1-.8,3.2-4.2,5.6-6.1" transform="translate(373.8 265.3)" style="fill:#fff;fill-rule:evenodd"/><path d="M-273.7-76.2l-6-6.6c-5.2-4.7-13.6-1.3-17.9,3.1s-7.1,9.6,3,19c7.6-3.8,12.4-9.2,22.8-10.7-5.4,0-10.7-.3-16.4-8a18.3,18.3,0,0,0,14.7,3.2" transform="translate(373.8 265.3)" style="fill:#fff;fill-rule:evenodd"/><path d="M-264.1-72.3c18.4-15.4,36.8-6.7,53.4.2,40.5,16.8,60.4-20.1,97.7-28.6C-71.6-110.1,4.2-64.4,5-8.8c.4,25.9-9.3,57.5-25.4,72,5.3-10,7.2-26.8,5.8-47.6-7.7,85.5-55.3,86.7-86.9,73.8-8.2-5,21.1-72.1-22.8-135,10.8,4.8,17,12.8,21.8,21.8-9-32.1-31-44.7-45.9-34.9-19.3,12.7-22.2,36.9-47.1,50.9-4.5-10.8-9.7-23.3-15.9-22.9-4.4,1.3-6.7,15.7-16.3,25.1-13.3-.3-18.4-3.9-27.8-4.4-3.9-3.4-7.1-8.8-9-17.6a26.3,26.3,0,0,0,13.9-10.9c22.2.6,21.4-39.6-13.6-34" transform="translate(373.8 265.3)" style="fill:#fff;fill-rule:evenodd"/><path d="M-287.7-47.3c-5.6-12.5,16.8-20.3,30.6-19.5,22.2,1.3,16.9,26.5,8.4,23.1,4.6-3.8,1.4-13.4-10.1-7.4-3.3,1.7-8.8,12.6,1.9,11.1-3.9,7.1-9.2,11.2-20,3.6,3-4.2-5.8-12.6-10.9-10.9" transform="translate(373.8 265.3)" style="fill:#050000;fill-rule:evenodd"/><path d="M-179.8-46.3c19-20.7,38.4-34.1,58.6-32.1,17.5,10,28.2,30.2,37.3,52.7-8.2-26.9-17.4-52.2-37-59.2-22.8-1.5-41.4,16.1-58.8,38.6" transform="translate(373.8 265.3)" style="fill:#050000;fill-rule:evenodd"/><path d="M-268.6-26.4c-13.2-3.4-23.4-10.2-24.6-27.4-6.4,5.7-20.3,22.2-13,33.1,3.7-10.5,6.9-12,10-8,5.3,7.1,6.6,12.8,17.4,22.7a90.3,90.3,0,0,1,15.7-4,30.7,30.7,0,0,1-5.5-16.4" transform="translate(373.8 265.3)" style="fill:#fff;fill-rule:evenodd"/><path d="M-162.1-35.7c13.5-21.2,19.3-21.4,34-4.9l-3.1,2.8c-8.9-7.1-19.6-1.1-23.1,5.4a16.4,16.4,0,0,0-7.7-3.3" transform="translate(373.8 265.3)" style="fill:#050000;fill-rule:evenodd"/><path d="M-124.2-36.2c10.5,17.8,15.8,36.1,18.6,54.5l-4.8,2.8a27.3,27.3,0,0,0-2.8-8.8c2.7,16.8-12,24.2-20.7,17.2a23.3,23.3,0,0,0-.8-11.2c.1,17.2-16.9,21.5-25.1,12.2l-1.2-4.8c-3.4,12.1-15.2,15.4-23,1.6.2,6.9-1.7,9.2-7.8,2.3a133.8,133.8,0,0,0-2.6-34.4c13.7-5.9,22.1-15.5,29.2-25.9,6.5-.4,12.2,5.5,17.2,16.8a32.9,32.9,0,0,0-3-14.8c8.8-15.7,20.8-6.2,24.6,12.5a30.6,30.6,0,0,0-1-15.6,6,6,0,0,1,3.4-4.4" transform="translate(373.8 265.3)" style="fill:#fff;fill-rule:evenodd"/><path d="M-184.7,18.4c1.8-10.6,5.3-19.3,12.2-24.2,4.8.9,9.5,8.2,12.3,17.5C-153,7.6-149.5-.3-147.7-10A29.5,29.5,0,0,1-135.1,7.4c4.3-4.3,6.5-12.2,7.5-22.1a20.9,20.9,0,0,1,.9,4.6c6.7,5,10.9,11,10.8,18.6a118.1,118.1,0,0,0-11-14.8c-1.4,9.1-4.7,18.7-8.9,17.6-2.1-.7-2.8-8.2-10.7-16.6-1,8.8-4.5,16.4-13,21.3a13.9,13.9,0,0,1-1.2,6.3c-2.7-11.7-6.2-20.7-11.3-23.4-4.6,4.2-8.7,11.4-12.7,19.5" transform="translate(373.8 265.3)" style="fill:#050000;fill-rule:evenodd"/><path d="M-224.2,2.1-210-24.3c9,9.8,13.4,26,12.8,48.9-9-9.2-18-16.8-26.9-22.4" transform="translate(373.8 265.3)" style="fill:#fff;fill-rule:evenodd"/><path d="M-284.3-3.2a130.3,130.3,0,0,1-15.3-20.4c-5,12.3-5.2,25-1.8,37.9,5.1-7.5,10.7-13.6,17.1-17.5" transform="translate(373.8 265.3)" style="fill:#fff;fill-rule:evenodd"/><path d="M-284.9,53.4c-29.3-4-19.4-31.4-2.7-46.7,20.5-18.6,53.3-14.6,85.3,22,27,30.9,64.3,53.6,96.4,23-.7,18.1-23.3,35.9-40.6,34.1-34.5-3.5-39.3-22.1-59-33.2C-194,63-188,74.2-174.1,85c-49.2,26.9-99.5,13.9-108.8-51.4C-267.6,6-237,29.7-215.2,44.1c-15-15.4-35.3-33.8-55-28.1-11.2,3.2-17.4,15.4-19.3,29.2l2.7-6.2,1.9,14.4" transform="translate(373.8 265.3)" style="fill:#fff;fill-rule:evenodd"/><path d="M-252.2,98.8C-265.6,90.2-276,76.7-284,59.1c-27.2-.5-28.6-27.3-21.5-37.3-4.5-11.9-3.7-23.8-2.2-35.7-1.9-1.1-3.6-3.3-5.2-6.7-12.5,52.1,4.1,126.1,60.8,119.4" transform="translate(373.8 265.3)" style="fill:#fff;fill-rule:evenodd"/><path d="M-182.1,39l1-2c5.5,6.3,15.3,6.8,19.7.2,6.5,6.3,20.8,7.8,25.2-3.1,5.6,7,22.1,5.3,25.8-6.5a12.4,12.4,0,0,0,4.8-.2,124.4,124.4,0,0,1-.6,15c-9.9,27.2-56.4,22.4-76.1-3.4" transform="translate(373.8 265.3)" style="fill:#050000;fill-rule:evenodd"/><path d="M-190.8-80.7c3.7-.2,6.4-3.7,6.2-7.7a7.3,7.3,0,0,0-5.1-6.8,106.1,106.1,0,0,1-7.8,9.6A6.8,6.8,0,0,0-190.8-80.7Z" transform="translate(373.8 265.3)" style="fill:#050000;fill-rule:evenodd"/><path d="M-262.3-87.8a79.8,79.8,0,0,1-5.8-6.5c-2.2.6-3.7,3.1-3.5,6s2.4,5.7,5,5.6S-262.6-85-262.3-87.8Z" transform="translate(373.8 265.3)" style="fill:#050000;fill-rule:evenodd"/><ellipse cx="89.3" cy="244.4" rx="2.5" ry="3.5" style="fill:#050000"/><ellipse cx="80" cy="229.1" rx="2.4" ry="3.1" style="fill:#050000"/><path d="M-95.3-193c2.2,2.4,3.6,4.8,4,7.2-25-13.8-52.5-14.6-76.4-3.9a34.9,34.9,0,0,0-1.2,10.3c.9,11.2-7.7,23.7-7.7,23.7s-13.3,10.8-13.8,15.1l-.4,4.3s-27.7,14.7-36.1,29.7l.6-.9c-3.1,17.6,3.5,27.5,18.1,23.8,6.7-1.6,15.3-15.7,22.2-24.2,15.2-18.9,37.1-15.9,42.6,3.1-7.7-10.8-16.3-13.1-25.8-7.2,5,6.8,5.8,27.2-8.1,37.3,16.6-4.8,36.2-27.9,70.6-31.6,27.9-3,41.1,2.3,88.6,33.1-6.7-14.7,6.5-34.9-7.4-49.6-21-22.1-28.6-37.6-24.1-51.9.2,9.3,2.2,17.3,7.9,23,.4-23.1,5.8-37.5,17-42-23.1-21.5-45.2-5.4-35.1,22.8.6-14.5,7.1-21.1,15.8-24.8-10.2,7.9-10.9,22.7-10.9,38.2-10.5-13.5-17.4-29.7-11.4-40.4,20.9-29.6,59.7,3.8,58.3,25.6C4.2-192-54.2-258.6-95.3-193Z" transform="translate(373.8 265.3)" style="fill:#522d24;fill-rule:evenodd"/><path d="M-214.3-120.9c45.5-33,73.2-21.9,72,17.5C-126.1-135-169.7-172.8-214.3-120.9Z" transform="translate(373.8 265.3)" style="fill:#231f20;fill-rule:evenodd"/><path d="M-140.4-151c-10-16.7-36.9-9.7-45.6,3.9C-173.7-158.6-151.7-161.3-140.4-151Z" transform="translate(373.8 265.3)" style="fill:#231f20;fill-rule:evenodd"/><ellipse cx="137.7" cy="231" rx="3.5" ry="3.3" style="fill:#231f20"/><ellipse cx="153" cy="220.6" rx="3.2" ry="3" style="fill:#231f20"/><ellipse cx="169.7" cy="216.5" rx="3.1" ry="2.8" style="fill:#231f20"/><ellipse cx="166.6" cy="229.1" rx="2.6" ry="2.5" style="fill:#231f20"/><ellipse cx="151.9" cy="235.8" rx="3" ry="2.7" style="fill:#231f20"/><path d="M-163.7-27.2s6.6,2.4,9.4,13.6-5,20.3-5,20.3-2.4-8.4-5.8-12.6a83.3,83.3,0,0,0-6.6-7.3S-165.1-21.9-163.7-27.2Z" transform="translate(373.8 265.3)" style="fill:#fff;fill-rule:evenodd"/><path d="M-171.4,2.4s7.1,15,6.3,22-12.1,10.2-15.5,2.1S-171.4,2.4-171.4,2.4Z" transform="translate(373.8 265.3)" style="fill:#fff;fill-rule:evenodd"/><path d="M-145.1.9s6.3,12.9,3.6,22.1-8.1,10.7-11.8,9-3.9-3.4-3.9-3.4V20S-145.3,9.5-145.1.9Z" transform="translate(373.8 265.3)" style="fill:#fff;fill-rule:evenodd"/><path d="M-142.4-32.3a45.2,45.2,0,0,1,6.5,17.6A92.1,92.1,0,0,1-134.6,2s-5-10.2-7.3-13.4l-2.3-3.2-3.1-13.9S-145.9-32-142.4-32.3Z" transform="translate(373.8 265.3)" style="fill:#fff;fill-rule:evenodd"/><path d="M-91.3-185.9c-37.6-20.7-80.8-12.2-108.8,20.9,7.7-5.2,39.4-25.9,60.3-27.2,23.9-1.5,49.1,7.7,49.1,7.7Z" transform="translate(373.8 265.3)" style="fill:#fff;fill-rule:evenodd"/><path d="M-95.3-193a21,21,0,0,1,2.7,3.6c1-1.2,23.6-27.7,42.1-27.5,10.4.1,22.6,6.7,31.5,12.5C-36.6-223.2-69.4-234.4-95.3-193Z" transform="translate(373.8 265.3)" style="fill:#fff;fill-rule:evenodd"/></svg>