<svg id="Layer_1" data-name="Layer 1" xmlns="http://www.w3.org/2000/svg" viewBox="0 0 480.9 449.4"><title>Bulldog713_1c</title><path d="M188.2,36.1q1.7-8,3-16.2c1.2-7.9,2.1-16.1,2.6-24.3,11.8-5.3,23.6-12.7,32.2-20.4l12.5-11.3L223.2-43A245.3,245.3,0,0,0,190-54.9a122.1,122.1,0,0,0-4.5-14.6,101.1,101.1,0,0,0-9.3-18.5c4.9-13.1,8-28.9,7.9-41.8V-147l-14.9,7.4a218,218,0,0,0-25,14.7,131.2,131.2,0,0,0-11.8-11.3,34.3,34.3,0,0,1,1.1-4.3,35.2,35.2,0,0,0,8.4,3.6c7.8,2.1,18.4,1,22.6-7.2s.1-13.3-4.2-18.7c-1.9-2.3-4.3-5-5.6-7.7a10.1,10.1,0,0,1-1.1-3.7c-.1-1.6,0-3.4,0-5.1a85,85,0,0,0-.4-9.7c-.8-7.5-4.2-14.2-10.8-17.9a19.8,19.8,0,0,0-9.9-2.5l-4.5.2c-10.1-8.7-20.6-18.9-34.7-17.5-12,1.2-18.6,11.1-26.1,19.4a31.9,31.9,0,0,1-6.8,6.1l-.8.4-3.1-3.7-.6-.5c-24.4-21.8-65.8-24.9-96-16.9a188,188,0,0,0-22,7.3l-10.3.3c-13.7.4-26.4,2.6-37.9,8.5l-6.3-.3c-5.1-.2-9.7-2.6-14.2-4.9-11.2-5.7-21.3-.4-31.7,4.5-13.7,6.5-17.3,12.4-21,24.6l-8.1,10.6a58.8,58.8,0,0,0-4.5,7.7c-1.7,2.7-8.8,8.1-11.5,10.1-8.7,6-11.2,12.2-.2,18.7l4.1.8c9.4,1.8,21.9-2.7,29.4-8.2l1-.8a10.6,10.6,0,0,1,3.1,3.2,26.7,26.7,0,0,1,2.8,6.9,40.7,40.7,0,0,1-6.1,5.5h-.1c-1.5.8-6.5,1.8-8.4,2.4a25.2,25.2,0,0,0-15.6,14.3c-6.8,15.5-3.3,30.7,7,41l-.8,1.8c-2.5,5.6-6.1,12.9-10.3,17.3-6.1,6.3-11.5,11.9-14.1,20.6-1.5,5-.9,17.1.8,24.8l-5.2,20.4c-3.1,12-14.3,23-19.3,34.4-7.8,17.9,1.5,49.2,10.4,65.6a53,53,0,0,0,11.4,14.7c29,25.8,42.4,20.2,69.5,22.5,7.7,4.9,16.9,20.5,24.3,19.7,27-2.9,54.2-11.4,59.9-15.3a54.6,54.6,0,0,0,4.3,3.8,125.2,125.2,0,0,0,1,25l2.6,16.9,13.7-9.7a247.3,247.3,0,0,0,23.3-18.7c8.3-.4,17-2.1,23.4-5.2a111.8,111.8,0,0,1,11-4.4l1.1,1.8,3.2,5,.6,1c5.7,13.6,14.3,27.7,23.2,37.4l11.4,12.5,6.1-15.9a263.2,263.2,0,0,0,10.3-34.2l6.5-1.8a144.1,144.1,0,0,0,37.6-17.2c12.2,6.2,26.2,11,38.2,12.6l16.4,2.3-5-16.3a261.9,261.9,0,0,0-12.8-33.1,179.6,179.6,0,0,0,20.3-34.4c13,.2,26.8-1.5,37.8-5l15.9-5L214.9,62.1A254.8,254.8,0,0,0,188.2,36.1ZM219-33C199.9-15.7,174.6-8.9,174.6-8.9s-2.2,1.4-4.8-3.8-3.3-22.9-1.1-29.8,5.3-5.4,5.3-5.4A243.1,243.1,0,0,1,219-33ZM167.9-6.8a9,9,0,0,0,3.8,2.7,6.7,6.7,0,0,0,4.6,0c2.3-.7,4.8-1.5,7.2-2.4a242.7,242.7,0,0,1-2.6,24.7q-1.3,8.5-3.1,16.8l-2.4-1.9a7.2,7.2,0,0,0-4.8-1.9,10.3,10.3,0,0,0-6.5,2.6l1.2-3.4.4-1.1.2-1.2,1.6-11.5A113.7,113.7,0,0,0,167.9-6.8ZM180-51.5l-4.5-1.1a7.2,7.2,0,0,0-5.2.4c-3.2,1.5-5,4.9-6.1,8.2a34,34,0,0,0-1.2,6.8,301.9,301.9,0,0,0-16.5-48.6c4,3.1,8.1,5.6,11,6.3s5.6.8,8-.7a6.9,6.9,0,0,0,2-1.9C171.4-76.2,176.5-66.3,180-51.5Zm-41.7-56a217.2,217.2,0,0,1,35.4-22.3c.2,23.1-9.9,44.3-9.9,44.3s-.4,2.3-5.2,1.1-16.7-10.9-19.9-16.4S138.2-107.5,138.2-107.5Zm-318.7-43.3c-10.9,7.9-21.4,6.4-21.4,6.4s12-8.6,14.7-13.7a58.5,58.5,0,0,1,3.6-6.3s-.7,5.8-3,9.2l-2.3,3.5a40.8,40.8,0,0,0,13.5-21.1c3.9-14.2,4.8-17.9,17-23.7s16.9-7.6,22.7-4.7,11.4,5.6,18.3,6c0,0-7.7,5-10.6,8.8a94.4,94.4,0,0,0-5.8,8.5s-3.9-15.8-12.2-16.2-14.4,2.9-18.2,12.7S-169.5-158.7-180.4-150.8ZM-29.5,163.3c-15.3-2.1-27.3-13.9-27.3-13.9l10.9,2.2c10.9,2.2,18,1.3,18,1.3s-4.7-.1-16.9-4.9l-33.7-13.3s1.9-.8,12.9.6a136.4,136.4,0,0,1,20.7,4.5,83.6,83.6,0,0,0-30.9-12.6,281.4,281.4,0,0,0-37.4-3.8s-2.7.2-12.1,3.1-12.3,10.1-12.3,10.1,4.1-1.6,8.3-3.7,14.2.9,14.2.9-5.8,1.5-10.8,3.1-6.7,6.6-6.7,6.6,2.8-1.3,8.5-1.2,15.3,3.8,15.3,3.8-1.1-.3-7.9-.5-16.3,5-16.3,5-8.7-2.5-21.2-16.6-20.9-32.3-20.9-32.3a58.2,58.2,0,0,0-11.2-1.7c-5.2-.1-12.9-3.1-14-9.1s-1.6-19.2,0-23,28.5-28.8,47.5-33.1S-87.3,23.3-40.8,47.1s60.9,90.7,60.9,90.7C13.8,150-14.2,165.4-29.5,163.3ZM-187.1,12.8c2.2-3.2,2.2.9,2.6,2.1a63,63,0,0,0,2.9,7.2,41.5,41.5,0,0,0,7.7,11.8,96.3,96.3,0,0,0-19.2,11.3C-194.5,39.5-191.9,19.5-187.1,12.8ZM-55,2.5c5.9,6.3,12.3,27.9,12,34.4h-.3a141.7,141.7,0,0,0-16-6.2l-3.9-1.2L-64,29a51.7,51.7,0,0,0,5.4-14.9,80.7,80.7,0,0,0,1.5-8.7C-57,4-57.8-.5-55,2.5Zm51.8,67A96.8,96.8,0,0,0-36.9,40V37.2c.2-6.2-2.7-16.3-4.7-22s-5.3-13.7-9.3-18c-2.5-2.7-6-4-9.2-1.7s-3.4,5.7-3.4,9.5a72.8,72.8,0,0,1-1.3,7.5A45,45,0,0,1-69.2,25l-1.4,2.4a180.3,180.3,0,0,0-20.2-3.9A166,166,0,0,0-148,25.6c-1-2.3-2.1-6.2-2.1-12.3a72.3,72.3,0,0,1,3.8-22.2L-153.5-4l-3-1.8a45.8,45.8,0,0,0-1.4,14.9c.4,5.2,1.4,13.4,2,18.4l-5.2,1.6-6.4,2.2-1.9-2a36,36,0,0,1-6.5-10,56.7,56.7,0,0,1-2.5-6.2c-.7-3.3-1.3-6.2-4.9-7.5s-6.7.6-8.7,3.4c-3.3,4.6-5.1,12-6.1,17.6s-2.2,14.7-.9,20.1l.7,2.9a73.2,73.2,0,0,0-11.9,13.8c-5.5,6-2.3,22.3-.4,31,1.1,4.8,5.2,8.2,8,7.8-.2,18.5,4.2,20.9,8.8,22.8-2.1-5.3-3.6-10.8-1.2-17.5l16,29.5L-204,127c-5.6-3.3-11-7.6-16.1-16.8-7.1-13.1-16.1-41.7-10-55.8,4.2-9.5,16.4-22.4,19.9-36.1l3.4,16.5,2.6-39.2c-1.6-3.8-2.8-18.6-1.7-21.9,2-6.5,6.4-10.9,11.6-16.3s9.1-13.2,12.3-20.3l10.3.4-1.3,1.1a14.8,14.8,0,0,0-3.9,6.5l6.3-1.3s-.6-2.4.6-3.9c2.9-3.5,7.7-3.5,11.7-4.1a5.1,5.1,0,0,1,4.6,1.8c1.9,2.3,1.8,3.4,1.8,3.4s3.4-3,1.8-6.2a4.2,4.2,0,0,0-4.3-2.6s3.7-4.1,11.3-4.8,18.9-.4,18.9-.4a27.5,27.5,0,0,0-8.6,3.5,14.8,14.8,0,0,0-5.1,6.4A45.3,45.3,0,0,1-109.9-69a38.5,38.5,0,0,1,20.4,8.5,39.6,39.6,0,0,1,7.2,10.1s2.8-3.6.5-9.6-9.6-9-9.6-9,12.6-.8,18.5,6.1,9.1,22,20.1,29.3,16,8.3,16,8.3-15.7-9.1-20.8-22.8-16.4-23-16.4-23A33.4,33.4,0,0,1-48.6-59.2c11.1,12.8,37.1,35.6,62.1,36.7s33.4-6.5,37.6-11,7.9-8.8,8.7-13.7-1.5-10.3-1.5-10.3A54.3,54.3,0,0,1,51-42.6c-7.6,10.5-21.6,14-33.8,12.9-9.4-.8-18.8-4.5-28.1-10.5,13.5,1.7,32,5,44.1-3.5C40.9-49,44.2-57,42.2-66.3c-2.5,5-5,9.9-9.5,13.4-7.5,5.9-19.6,6-28.4,4.5-13-2.2-26.3-9.6-36.8-17.4,10.1-3.6,16.1-9.8,12.8-21.3-4.2,11.9-10.9,16-19.1,15.3,8.7-4.5,12-10.2,11.9-16.2-.2-7.8-4.3-14.8-12-22.3,3.3-7.1,13.3-22.9,35.2-2.1-1-14.7-21.1-23.8-34.5-20.4S-59.5-111-67.5-101.3c-9.2,13.3-26,22.1-26,22.1s-10-1.9-16.2-5.8-6.4-6.4-6.4-6.4l3.8-10.1s-6.4,3.5-8.1,7.7-1.5,4.5-1.5,4.5a17.6,17.6,0,0,0,3.7,6.9,24.1,24.1,0,0,0,4.8,4.6s-6.9.4-13.6-5.4-3.8-12.5-3.8-12.5-3.3,1.3-4.3,7.2,6.3,10,6.3,10-12-1.1-14.1-6.6,3.9-13.2,3.9-13.2-5.5.7-7.6,7.1,4.6,13.1,4.6,13.1-6.4,3.5-15.7-8.6a174.4,174.4,0,0,0-19.8-21.4,19.6,19.6,0,0,0-6.6,11.1c-1.3,7,3.8,15,3.8,15s-.9-9.1.6-11.8a4.1,4.1,0,0,1,4.4-2.1l2.9,3.7s-3,1.3-3.8,8.1a30.1,30.1,0,0,0,2.2,13.3c-13.5-6.2-21.3-19.5-14.3-35.3,4.8-10.9,15.2-8.2,20.7-12.5q14.1-10.4,20.1-29.4l12.3-20.6c3.6-6.6,7.5-13.1,16.6-18.8,14-13.1,30.3-15.8,46.3-16.3-23.5,19.3-33.9,38.8-40.1,61.5,10.7-21.2,27.9-46.7,49.4-60.7a179.5,179.5,0,0,1,25.3-8.8c26.6-7.1,64.7-4.9,86.5,14.6l1.6,2a13.5,13.5,0,0,1-4.2,1.2c-4.7.4-5.8.1-5.8.1h4.8l.7.3H46l.4.2H47a29,29,0,0,0,8.1,1.5h0a18.9,18.9,0,0,0,10.3-2.5c11.4-6.8,17.8-23,28.8-24.1s21.4,10.7,30.8,18.3a31.3,31.3,0,0,1,11.1,17.2s1.6-8.1-.5-12.4-2.9-5.7-2.9-5.7,8.8-.3,9.9,10.7-1.2,14.4,2.5,22.1,11.7,13.3,10,16.6-15.8,6.9-32.5-16.3S111-197.1,103.5-203s-17.8.1-26.2,7.8-8.9,15.3-5.4,21,7.7,10.9,14.5,11.9,10.7-1.1,10.7-1.1-3.2,7.8-2.2,12.6,5.4,13.4,12.2,16.1,9,.2,10.5-5.7,2.4-9.5,4.1-12l1.7-2.5,3.5,4s-5.9,6.1-6.4,26.1c-.1,4.7,0,9.9.2,15.1h0v2.3h0v.6h0v3h0v3.3h0v.6h0v1.7h0v1.1h0v1h0v2.7h0v.9h0v2.5h0V-87h0v.8h0v1.3h0v.7h0v.6h0v.4h0v.6h0v.6h0v1h0v.5h0v.5h0v.3h0v.2l.5,2.9s.5-10.2,1.3-19.8a71.2,71.2,0,0,1,1-7.8l1.4,1.7c18,34.3,30.4,78.4,29.6,116.7h.2l-1.6,11.5L140.8,66.3c-6.5,12-13.2,23.9-21.1,34.6-19.8,26.9-47.5,46.3-82,37.9-.5-6.2-6.1-19.6-9.5-25.9,6.8,3.9,13.1,12.4,17.4,17.9a45.9,45.9,0,0,0,1-16.1C43.5,91.6,15.8,77.1-3.2,69.4ZM-167-76.9c.2-6.5,3.6-8.7,3.6-8.7s.3,0,2.3,3,8.2,8.4,8.2,8.4a11.2,11.2,0,0,0-8.9,5.7A8.6,8.6,0,0,1-167-76.9Zm93.1-5.8s7.8-6.4,14.4-11.4,10.9-7.4,15.9-6.4c2.9.6,5.6,4.7,6.3,9S-40.1-81.4-45-78.7C-54.6-73.4-65.9-75-73.9-82.7ZM63.9,156A261.7,261.7,0,0,1,51,202.8c-14.3-15.7-21.9-35.9-24.2-42.6,4.5-2.2,8.4-4.7,10.5-8a97.4,97.4,0,0,0,24-.4C64.7,153.8,63.9,156,63.9,156Zm10.9,4.4-7.2,2,1-5a7.4,7.4,0,0,0-1.2-6.5,87.4,87.4,0,0,0,19.3-6.6,89.6,89.6,0,0,0,15.4-9.4,8.7,8.7,0,0,0,.6,2.8,7,7,0,0,0,3,3.5l4.5,2.9A133.6,133.6,0,0,1,74.8,160.3Zm80.1-4.9c-25.2-3.5-46.8-18.7-46.8-18.7s-2.5-.8-.4-6.2l.2-.4a127.2,127.2,0,0,0,16-17,27.1,27.1,0,0,1,5-3c6.5-2.8,7.4.6,7.4.6A259.8,259.8,0,0,1,154.9,155.5Zm-11.9-42-2.4-4.8a7.5,7.5,0,0,0-3.6-3.8,10,10,0,0,0-6.7-.5,338.7,338.7,0,0,0,19.7-32.9v-.2a9.4,9.4,0,0,0,2.5,4.2,6.8,6.8,0,0,0,4.2,1.9c2.3.4,4.7.7,7.1.9A168.7,168.7,0,0,1,143,113.5Zm14-40.9s-2.6.3-2.9-5.5,6.2-22.3,10.9-27.6,7-2.6,7-2.6a251,251,0,0,1,35.1,32.6C182.8,77,157.1,72.6,157.1,72.6Z" transform="translate(242.5 226.8)" style="fill:#050000;fill-rule:evenodd"/><path d="M-113.2-55.1a19.2,19.2,0,0,0-19.4-6.3,36.7,36.7,0,0,0-5.9,2.1l-7.2,3.1a96.6,96.6,0,0,1-10,4l-1,.3h-.4a31.1,31.1,0,0,1-11.1-5c-5.1-3.7-11.2-2.1-14.6,2.5h0c-4,5.5-6,9.2-2.6,16.1l.7,1.4a26.2,26.2,0,0,0,4.8,6,12.2,12.2,0,0,0,4.7,2.9,7.7,7.7,0,0,0,.3,1.5c1.4,5.2,5.9,12,9.4,16a31.6,31.6,0,0,0,9.3,7.7c3.6,1.8,7-1.1,9.5-3.2s5.5-4.9,8.1-7.4,5.2-5.2,7.6-8c.9-1,1.8-2,2.6-3.1a6.7,6.7,0,0,0,1.6-5.1,8.7,8.7,0,0,0,3.6-.7c4-1.7,8.8-3.8,12.3-6.5a8.3,8.3,0,0,0,3.2-4.6C-106.5-46.5-110.1-51.4-113.2-55.1Zm-.6,14.2c-3.1,2.3-8.3,4.6-11.4,5.9s-7.9-1.7-7-3.7a6.1,6.1,0,0,1,3.4-2.8s1.9.1,2.1,1.7.2,1.7.2,1.7a3.8,3.8,0,0,0,.8-5.4c-2.2-3.3-8.6-4.6-13.6-1.1s-5.1,8.3-4.1,11,5.3,2.5,7.3,1.8,4.1,1.6,4.1,1.6l.5,1.2c.6,1.5-20.5,22.9-22.6,21.8-8-4.1-14.8-16-16-20.4-.3-1.2.3-3.5,1.7-1.3,2.5,3.7,7.8.4,5-6s-4.6-7.9-8-9.6-5.1-.1-5.3,2.6,2.1,5.1,2.1,5.1-1-3.5-.3-4.6,2.6-.1,3,.9,2.2,3.6,1.7,5.3a4,4,0,0,1-3.5,2.6c-1.1.1-5.2-3.3-7.3-7.6s-1.5-5.9,2.2-10.9c0,0,3.7-4.9,8.1-1.7a36.3,36.3,0,0,0,13.1,5.9l-2,5.3A86.8,86.8,0,0,0-156.9-28a69.1,69.1,0,0,1,2.4,14.1s.9-8.1.1-13.9-2.4-13.6-2.4-13.6l2.8-6c6-1.8,18.6-8.2,22.7-9.1s10.4-.3,14.6,4.7S-110.8-43.2-113.9-40.9Z" transform="translate(242.5 226.8)" style="fill:#050000;fill-rule:evenodd"/><path d="M149.9,151.2l-.3-.8L120.9,122a122.8,122.8,0,0,1-10.2,10.2,8.4,8.4,0,0,0-.5,2l3.5,2.2c3.2,2,6.5,3.8,9.9,5.4a112.1,112.1,0,0,0,26.3,9.3M160.3,56c-1.3,3.5-2.8,8.4-2.7,10.9a10,10,0,0,0,.4,2.4l4,.5c3.7.4,7.5.6,11.2.7a111.2,111.2,0,0,0,27.5-2.8l-12.9-2.5Zm13.8-68.2,3.8-1.2c3.6-1.2,7.1-2.6,10.5-4.2a113.3,113.3,0,0,0,24.2-14.4l-.8-.3-41,4v.2c.1,3.3.5,11.1,2,14A10,10,0,0,0,174.1-12.3Zm-26-83,1.2,1c2.1,1.8,7.4,6,10,6.6l1.6.2a112.5,112.5,0,0,0,9.2-36.5ZM60.5,155.4a99.1,99.1,0,0,1-16.5.7l5.5,39.6.3.4A266.5,266.5,0,0,0,60.5,155.4Z" transform="translate(242.5 226.8)" style="fill:#050000;fill-rule:evenodd"/><path d="M-51.5-44.5s0,5,5.9,10.9A36.4,36.4,0,0,0-28-24.3c-9.2-4-16.6-11.1-23.5-20.3m6.7,3.1s.4,4.4,6,9.2a31.5,31.5,0,0,0,16,6.9C-31.1-28.1-38.1-33.9-44.7-41.4ZM-107.4-107s.3-5.7,7.4-12.1a41.5,41.5,0,0,1,20.6-9.7C-90.2-124.7-99.1-117-107.4-107Zm-32.3,4c2-8.7-8.9-16.8-15.7-19.2C-148.5-117.6-143.6-111-139.7-103Zm167,88.1s5.6,3.8,16.8,1.3S64.8-23.6,68.1-27.3C56.5-19.3,42.8-16,27.3-14.9Zm-56-154.7s-5.2,6.6,7.7,16S-2.6-142.8-.6-134.3s1.8,10.1,1.8,10.1,6.5-9,6-17.8-15.9-11.8-23.4-17.8-6.1-7.2-6.1-7.2-2.2,1.4.3,5.2l2.5,3.9S-26.4-159.2-28.6-169.6Z" transform="translate(242.5 226.8)" style="fill:#050000;fill-rule:evenodd"/><path d="M-175.6,87.1s14.7-18,25.8-23.9,13.3-6.2,13.3-6.2,24.4-2.5,44.3,3.1,31.7,13.8,31.7,13.8-34.6-6.8-64.8-3.3-50.2,16.5-50.2,16.5" transform="translate(242.5 226.8)" style="fill:#050000;fill-rule:evenodd"/><path d="M-59.2-94.5a8.7,8.7,0,0,1,8.4,9,8.7,8.7,0,0,1-8.8,8.6,8.7,8.7,0,0,1-8.4-9,8.7,8.7,0,0,1,8.8-8.6" transform="translate(242.5 226.8)" style="fill:#050000;fill-rule:evenodd"/><path d="M-157.8-82.6a6.3,6.3,0,0,1,6,6.5,6.3,6.3,0,0,1-6.3,6.2,6.3,6.3,0,0,1-6-6.5,6.3,6.3,0,0,1,6.3-6.2" transform="translate(242.5 226.8)" style="fill:#050000;fill-rule:evenodd"/><path d="M-113.7-17.9a2.3,2.3,0,0,1,2.3,2.3,2.3,2.3,0,0,1-2.3,2.3,2.3,2.3,0,0,1-2.3-2.3,2.3,2.3,0,0,1,2.3-2.3" transform="translate(242.5 226.8)" style="fill:#050000;fill-rule:evenodd"/><path d="M-99.4,2.7A2.3,2.3,0,0,1-97.1,5a2.3,2.3,0,0,1-2.3,2.3A2.3,2.3,0,0,1-101.7,5a2.3,2.3,0,0,1,2.3-2.3" transform="translate(242.5 226.8)" style="fill:#050000;fill-rule:evenodd"/><path d="M-84.6-17a2.3,2.3,0,0,1,2.3,2.3,2.3,2.3,0,0,1-2.3,2.3A2.3,2.3,0,0,1-87-14.7,2.3,2.3,0,0,1-84.6-17" transform="translate(242.5 226.8)" style="fill:#050000;fill-rule:evenodd"/><path d="M-172.3-6.9a2.3,2.3,0,0,1,2.3,2.3,2.3,2.3,0,0,1-2.3,2.3,2.3,2.3,0,0,1-2.3-2.3,2.3,2.3,0,0,1,2.3-2.3" transform="translate(242.5 226.8)" style="fill:#050000;fill-rule:evenodd"/><path d="M-191.1-4.4a2.3,2.3,0,0,1,2.3,2.3A2.3,2.3,0,0,1-191.1.2a2.3,2.3,0,0,1-2.3-2.3,2.3,2.3,0,0,1,2.3-2.3" transform="translate(242.5 226.8)" style="fill:#050000;fill-rule:evenodd"/></svg>