<svg id="Layer_1" data-name="Layer 1" xmlns="http://www.w3.org/2000/svg" viewBox="0 0 734.6 517.6"><title>Bulldog448_1c</title><path d="M-333,95.9c19.1,9.9,37.3,15.2,52.7,9h5.3a54.6,54.6,0,0,1-16-8.1,105.2,105.2,0,0,1-38.9-12.6c3.8,5,9.9,10,23.3,15A80.6,80.6,0,0,1-333,95.9Z" transform="translate(367.3 258.8)" style="fill:#050000;fill-rule:evenodd"/><path d="M-107.7,90.2a10.5,10.5,0,0,1-1.6-6.9l-6.4.7c-7.1,5.6-17.9,9.2-30.1,9.2a109.4,109.4,0,0,0,40.4-.2A18.3,18.3,0,0,1-107.7,90.2Z" transform="translate(367.3 258.8)" style="fill:#050000;fill-rule:evenodd"/><path d="M360.1,116.9c-33-51.5,6.1-99.6-35.2-110.2C287-3,281.8-74.5,235.4-99c9.5-5.9,10.4-18.8,8-28.1s-8-14.1-9.5-22.2c-6.3-32.7,34-34.1,43.3-16.2,8.2-9.4-9.5-24-21.1-25.4-20.1-2.4-37.2,6.7-41.1,28.7s19.1,40.4-4.3,50c-29.9-7.9-57.4-1.9-89.8-23.8-29.5-33.7-46.5-77.2-87.8-102.1-82.1-49.7-152,1.5-197.9,26.9a123.1,123.1,0,0,0-18.4,12.6,27.6,27.6,0,0,1,9.5,2.6c10.4-7.7,23.4-15.9,39.6-25,70.8-39.7,135.4-47.4,189.9,13.5,22.6,25.3,44,60.3,65.3,87.3h.1l1.6,2,.2.2,5,6.1.2.3,1.4,1.6.3.3,1.5,1.7v.2l3.3,3.6.3.4,1.3,1.4.4.4,1.3,1.4.3.3,3.2,3.1.4.4,1.2,1.1.5.4,1.2,1.1.4.3,1.6,1.4h0l1.5,1.2.5.4,1.2.9.5.4,1.2.8.4.3,1.6,1.1h.1l1.5,1,.5.3,1.1.7.5.3,1.1.6.5.2,1.6.8h0l1.5.7.5.2,1.1.4.6.2,1.1.4.5.2,1.6.5c-15.9-13.8-28.1-27.6-35.7-41.4,24.6,22.3,65.6-1.1,115.1,43.1C279.9-49.6,282.8,1.4,322,14.8c24.1,7.7,15.5,31.2,15.6,47,.2,54.4,28,67.9,19.4,78.9l-1.5,1.9-.2.2-1.4,1.7-.2.2-1.4,1.6h-.1l-2,2.2-.5.6-.5.6-1.2,1.4-.3.3-1.2,1.4-.2.3-1.3,1.5c-4.8,6.1-8.9,13.4-11.9,27.2-1.1,16-33.4,21.8-31.2-11.9,1.1-17.8,18.7-23.9,26.5-10.5,3.6-10.5-19.9-21.5-31,2.9-3.8,8.3-3.3,20.5,1.1,27.4-2.5,7.6-9.3,9-14.4,6.7-14.1-12.3-4.9-49.2,10.5-41.3-1.2-5.5-4.4-8.5-12.1-5.6a18.9,18.9,0,0,0-6.1-5.8c11.6-18.1,33.8-15.1,49.2-6.6h.2c-5.7-6.9-12.8-13.1-28.7-14.6-3.2-12.7-6.7-25.3-22.7-36.1,14.1-6.8,33.1-23.7,42.2-20.4C300,45.1,229,122.8,191,76c20.2-23.1,24.2-51.2,15.7-83.3.6,39.9-8.5,67.2-26.5,82.6-.4-30.3-7.3-55.8-26.9-71.8,4.1-27.4-6.4-48.7-31-64.2,20.7,19.3,33.4,62.9,9.9,78.1,5.5.3,11.1-3,16.6-5.8,32.1,27.1,16,62.9,26.5,78.1l.7,1,.2.4.4.7.2.5.3.6.2.5.2.6.2.6.2.6.2.6v2.7a27.1,27.1,0,0,1,0,5.9h0l-.2,1.3h0l-.2,1.3h0c-4.5,24.8-36.2,58.7-62.5,72.4s-63,24.8-73.9,44.5C29.3,246.3,15.2,240.7-.1,239.7c-19.2.5-25.3,15.9-49.4,8.3-13.1-8.8-1.5-64.5,34.8-34.8.3-2.4-1.1-5.3-3.1-8.3,3.1-1.6,4.8-4.4,9.2-4.9-3.1-4.1-10.8,1.4-14.8-.2-20-9.7-39.3,5.4-39.5,37.3-8.1.8-13-3.3-13.9-13.2-2.3-21.8,17.1-46.5,42.6-33.7-28.1-24.9-50.6,8.6-50.5,28.3-10-2-2.2-60.8,42-39.1-8.1-7-16.7-12.1-27.2-10.1,8.4-8.9,24.7-1,39,2.7l-3.4-5.2c23.1-2.3,41.9,17.1,48.5,37-.1-15.4-3.7-30-24.2-40.6,36-40.8,31.2-54,44-65.3,16-14.2,40.5-18.5,63.1-11.9C72.7,72.8,49.6,75.8,27.6,93.8,12,85.5,8.8,48.8,17,28.5,6.7,42.4-.3,58.5,9.8,85c-19.9,9.1-39.1,12.2-57.6,10a76.8,76.8,0,0,1-16.7,5.1c30.5,8.5,61.9,4.2,77.3-7.3a29.4,29.4,0,0,0,7.4,8.3c-13.3,19.2-8,24.2-38.6,58.8A49,49,0,0,0-39,163c-19.3-10-34.8-9.6-42.6,12.1-11.5,13.5-24.9,44.8-4,50.7,2.8,14.9,11.7,20.1,24.7,18.9,4.1,10,8.3,12,17.1,13.5,24.6,4.1,32.3-13.8,48.5-10.3,14.5,3.2,33.1,2.4,45.1-19.1,18.9-33.9,77.5-21.6,115.8-80.3,13-19.9,33.1-41.6,16.3-66.8l2.7-.9c22.3,26.1,49.8,20.3,78.1,10.3,13.7,2.5,22.7,18,25.6,34.6-10.1,2.9-14.6,9-17.5,16.2-40.7-7.7-43,61.5-15.3,55.7,6.4,6.1,16.2,4.9,19.3,0,8.8,11.6,24,8.5,27.8-.9,14.3,13,38.9,4.4,40.8-21.1C349.4,147,381.3,150,360.1,116.9ZM229-102.9a34.7,34.7,0,0,0-10.5-5.2c25.7-19.2-4.4-29.9,5.6-60.1,9-27.1,53.2-16.2,53.2-2-7.9-15-39.3-15.3-46-1.3s-3.2,26.3,3.7,40.5C239.8-120.9,238.8-106.8,229-102.9Zm23.2,295.2c-15.2-5.2-10-46.4,13.9-43.5C251.5,152,246,175.1,252.2,192.3Zm20.4-1.1c-24.1,14-20.5-41.6,3.6-38.2C269.3,165.4,268.8,178.2,272.6,191.2Z" transform="translate(367.3 258.8)" style="fill:#050000;fill-rule:evenodd"/><path d="M-196.8,161.5c-10.3-9.9-22.5-16.3-39.9-13,2.6-12.3-2.6-26.5-12.4-41.8a63.5,63.5,0,0,1-11.1.7c10,8.8,19.6,24.7,16.6,42.3-24.8,4.7-40,18.3-48,38.6,22.1-34.6,73.6-41.8,88.6-20.2-9.2,3.7-14,8.5-18.4,13.5-14.1-2.5-23.4,2.6-29.1,14.5-9.6-2.9-24.7,8.7-13.9,25.1-1.8-20.7,16.1-23.6,25.7-.1s-18.9,33.9-33.7,14.4c-24.2-32-41.1-13.6-46-46.2-9.7-65.1-47.1-82.7-38.6-105C-349.9,60-335,39.4-324,17c0-.1,0-.2,0-.3l-19.9,23.6C-341.3,17.7-332-3-319-22.5c4-14,10.5-25.7,18.9-33.1l-1.6-1.7c-56.7,61.7-41.1,88.5-61.3,132.5-15.2,33.3,12.4,28.9,35.5,113.3,3,35.4,27.6,29.1,41.4,43.7,20.7,33.7,50.4,24.2,56.1,6.7,13.3,2.9,26.1-2.1,26-11.4,12.6,3.1,30.5-5.7,29.2-14.8C-131.1,211.9-159.9,141.2-196.8,161.5Zm-31.6,69.4c-.1-13.5-9.3-28.1-16.2-32.9,6-13.6,24.8-11.8,31.2,4.7C-209.4,212.6-204.9,234.5-228.3,230.9Zm26.5-11.7c1.3-13.5-6.2-29.5-13-34.2,9.2-11.3,23.2-9.3,29.6,7.2C-181.4,202.1-178.4,222.8-201.9,219.2Zm27.2-14.6c1.3-13.5-8.4-28.8-20.6-35.6,12.3-5.3,24.1.8,29.6,7.9S-157.1,207.1-174.7,204.6Z" transform="translate(367.3 258.8)" style="fill:#050000;fill-rule:evenodd"/><path d="M99.3,22.7c-36.9,4-64.2-3.9-78.8-27.4,3.3,30,55.5,46.6,78.8,27.4" transform="translate(367.3 258.8)" style="fill:#231f20;fill-rule:evenodd"/><path d="M2.6-50.5C-6.1-62.7-14.7-77.3-12.8-91.9-8.9-122.1-23-130-27.7-138.3c-8.9-18.4-1.5-47.1,9.1-49.9A56,56,0,0,1-10.1-164c13.8-6.1,9-26.2,2.5-36.6-21.9-35-63-38.1-96.5,1.8-20.1-8.2-50.5-5.9-69.1,3.8-4.7-2.7-12-4.4-28.1-2.9-4.6-34.9-46.8-36.7-62.4-4.5-6.7,13.9,1.7,16.5,8.3,7.9,11.4,1.1,9.9,11.8,7.4,23.1-8.1,7.4-16.3,14.8-22,21.5-6.9,1.2-11.6,4.4-14.4,9.2-20,4-27.1,37.4-7.9,50.3-16.9,4-21.1,22.5-8.3,35-21.1,18.4-29.4,63.5-20.4,103.4s38.7,69.9,82.9,56.3c26.9,5.2,49.7-1.7,70.6-14.5,25.9,9.1,51.3,0,58.3-13.7.1,4.8-2.1,10,.9,14.4,12.8,18.6,63,13.2,80.5-10.7C13.4,58.6,25.5-6.3,2.6-50.5ZM-260.7-195.8c7.6-23.8,48.3-34.2,52.1-.9a15.3,15.3,0,0,0-4.8,1.5C-217-218.1-246.5-214.7-260.7-195.8Zm13.2-5.5c13.2-8.7,28.4-5.3,28.4,8.9a29.3,29.3,0,0,0-8,4.7c.3-7.7-2.3-13.8-11-16.5,5.3,3.3,6.9,10.2,5.6,20.1a28.6,28.6,0,0,0-6.4,5.3C-237.7-189.4-239.8-197.4-247.4-201.3Zm-39.3,69.1c6.1-4.3,19.6,4.3,29.6,17.3-4.5-11-10-20.8-20.9-23.8,4.7-7.4,24.1-4.9,31.9,6.5-3.5-9.8-9.4-11.3-14.1-17,30.8-35.3,57.2-47.8,79.7-40.6A138.3,138.3,0,0,0-207-155.8a105.8,105.8,0,0,1,7-9.2h0l2.6-3h.1a91,91,0,0,1,30.5-22.1h.3l3-1.2.5-.2,2.9-1,.7-.2,2.8-.9.8-.2,2.8-.7.9-.2,2.8-.6.9-.2,2.8-.5h1.8l1.9-.2h18.7l1.3.2,1.4.2h1.3l1.2.2,1.2.2,1,.2.9.2.9.2.9.2h.4l1.4.4.8.2.9.3.9.3,1.5.5.9.3.6.2h.2l2.5.9.4.2h.2l.8.3,2.2.9.7.3h.4l3,1.4.5.2.5.3,3.2,1.7a11,11,0,0,0-1.5-3.9,21.5,21.5,0,0,0-2.5-3.3l1.7-2.7.4-.6,1.7-2.4.3-.4,1.6-2.1.3-.4,1.7-2.1.4-.4,1.7-1.9h.1l1.8-1.8.4-.4,1.8-1.7.2-.2,1.7-1.4.4-.3,1.8-1.4.3-.2,1.7-1.2.2-.2,1.8-1.1.4-.2,1.8-1h.1l1.8-.8.4-.2,1.8-.7h.3l1.6-.5h.3l1.8-.5h.4l1.7-.4h.2l1.8-.3h.5l1.7-.2h6.3l1.6.2h.6l1.5.3h.6l1.2.3.6.2,1.4.4.7.2,1,.3.7.2,1.3.5.7.3.9.4,1.1.5.8.4.8.4.8.4,1.2.6.6.3,1.5.9.4.2.9.6.4.3,1.6,1.1.3.2.9.7h.2l1.7,1.3.2.2,2.6,2.3h.1c12,11.4,18.4,26.5,13.6,34.2,1.3-21.8-37.5-55.2-58.3-25.6-5.9,10.7.9,26.9,11.4,40.4,0-15.4.7-30.3,10.9-38.2-8.7,3.7-15.2,10.3-15.8,24.8-10-28.2,12-44.3,35.1-22.8-11.2,4.5-16.6,18.9-17,42-5.6-5.7-7.6-13.7-7.9-23-4.5,14.3,3.1,29.8,24.1,51.9,13.9,14.7.7,34.9,7.4,49.6-47.5-30.7-60.7-36-88.6-33.1-34.4,3.7-54,26.8-70.6,31.6,13.9-10.1,13.1-30.5,8.1-37.3,9.5-5.9,18.1-3.7,25.8,7.2-5.6-19-27.4-22-42.6-3.1-6.9,8.5-15.5,22.7-22.2,24.2-14.6,3.7-21.2-6.2-18.1-23.8l-.6.9v-.2c-5,8.2-6.6,16.6-3.7,21.3l-10.4-.6c-4.6-6.9-6-14.3-1.3-22.4-7.4,5.2-8.2,13-4.8,22.4-5.8,0-12-10.1-9.5-20.6-2.8,4.5-4.3,9.8-2,17.3-7.9-7.3-16.4-30-26.4-25.9-5.9,2.4-2,15.7,1.3,19.1-3.7-12.8-.4-15.1,5.5-9.7-2.5,3.5-2.5,14.1-.1,19C-300.2-100.9-300.6-121.7-286.8-132.3Zm79.9,53.6c11.3-4.2,21.1-24.9,28.6-30.3C-166.3-92.4-183.2-64.1-206.8-78.7Zm-52.3-6.1c-2.4,1.9-3.6,5.4-5.6,6.1-12.5,1.8-12.2-19.2-9.6-24.1A90.2,90.2,0,0,0-259.1-84.8Zm-38.6,5.1c4.4-4.3,12.8-7.7,17.9-3.1l6,6.6a18.3,18.3,0,0,1-14.7-3.2c5.7,7.7,11,8,16.4,8-10.3,1.6-15.2,7-22.8,10.7C-304.7-70-302.3-75-297.6-79.7Zm4.5,25.9c1.2,17.2,11.4,24,24.6,27.4A30.7,30.7,0,0,0-263.1-10a90.3,90.3,0,0,0-15.7,4c-10.8-9.9-12.1-15.6-17.4-22.7-3.1-4.1-6.3-2.5-10,8C-313.5-31.5-299.6-48.1-293.2-53.7Zm8.9,50.5c-6.3,3.9-11.9,10-17.1,17.5-3.4-12.9-3.2-25.6,1.8-37.9A130.3,130.3,0,0,0-284.3-3.2ZM-313-20.6c1.6,3.4,3.3,5.7,5.2,6.7-1.5,11.9-2.3,23.8,2.2,35.7-7,10-5.7,36.7,21.5,37.3,8,17.6,18.5,31.1,31.9,39.7C-308.9,105.5-325.5,31.5-313-20.6ZM-146.5,85.8c-34.5-3.5-39.3-22.1-59-33.2C-194,63-188,74.2-174.1,85c-49.2,26.9-99.5,13.9-108.8-51.4C-267.6,6-237,29.7-215.2,44.1c-15-15.4-35.3-33.8-55-28.1-11.2,3.2-17.4,15.4-19.3,29.2l2.7-6.2,1.9,14.4c-29.3-4-19.4-31.4-2.7-46.7,20.5-18.6,53.3-14.6,85.3,22,27,30.9,64.3,53.6,96.4,23C-106.7,69.8-129.2,87.6-146.5,85.8ZM-224.2,2.1-210-24.3c9,9.8,13.4,26,12.8,48.9C-206.2,15.4-215.2,7.7-224.2,2.1ZM-110.5,21a27.3,27.3,0,0,0-2.8-8.8c2.7,16.8-12,24.2-20.7,17.2a23.3,23.3,0,0,0-.8-11.2c.1,17.2-16.9,21.5-25.1,12.2l-1.2-4.8c-3.4,12.1-15.2,15.4-23,1.6.2,6.9-1.7,9.2-7.8,2.3a133.8,133.8,0,0,0-2.6-34.4c13.7-5.9,22.1-15.5,29.2-25.9,6.5-.4,12.2,5.5,17.2,16.8a32.9,32.9,0,0,0-3-14.8c8.8-15.7,20.8-6.2,24.6,12.5a30.6,30.6,0,0,0-1-15.6,6,6,0,0,1,3.4-4.4c10.5,17.8,15.8,36.1,18.6,54.5Zm90.1,42.2c5.3-10,7.2-26.8,5.8-47.6-7.7,85.5-55.3,86.7-86.9,73.8-8.2-5,21.1-72.1-22.8-135,10.8,4.8,17,12.8,21.8,21.8-9-32.1-31-44.7-45.9-34.9-19.3,12.7-22.2,36.9-47.1,50.9-4.5-10.8-9.7-23.3-15.9-22.9-4.4,1.3-6.7,15.7-16.3,25.1-13.3-.3-18.4-3.9-27.8-4.4-3.9-3.4-7.1-8.8-9-17.6a26.3,26.3,0,0,0,13.9-10.9c22.2.6,21.4-39.6-13.6-34,18.4-15.4,36.8-6.7,53.4.2,40.5,16.8,60.4-20.1,97.7-28.6C-71.6-110.1,4.2-64.4,5-8.8,5.4,17.1-4.3,48.7-20.3,63.2Z" transform="translate(367.3 258.8)" style="fill:#050000;fill-rule:evenodd"/><path d="M-287.7-47.3c-5.6-12.5,16.8-20.3,30.6-19.5,22.2,1.3,16.9,26.5,8.4,23.1,4.6-3.8,1.4-13.4-10.1-7.4-3.3,1.7-8.8,12.6,1.9,11.1-3.9,7.1-9.2,11.2-20,3.6,3-4.2-5.8-12.6-10.9-10.9" transform="translate(367.3 258.8)" style="fill:#050000;fill-rule:evenodd"/><path d="M-179.8-46.3c19-20.7,38.4-34.1,58.6-32.1,17.5,10,28.2,30.2,37.3,52.7-8.2-26.9-17.4-52.2-37-59.2-22.8-1.5-41.4,16.1-58.8,38.6" transform="translate(367.3 258.8)" style="fill:#050000;fill-rule:evenodd"/><path d="M-162.1-35.7c13.5-21.2,19.3-21.4,34-4.9l-3.1,2.8c-8.9-7.1-19.6-1.1-23.1,5.4a16.4,16.4,0,0,0-7.7-3.3" transform="translate(367.3 258.8)" style="fill:#050000;fill-rule:evenodd"/><path d="M-184.7,18.4c1.8-10.6,5.3-19.3,12.2-24.2,4.8.9,9.5,8.2,12.3,17.5C-153,7.6-149.5-.3-147.7-10A29.5,29.5,0,0,1-135.1,7.4c4.3-4.3,6.5-12.2,7.5-22.1a20.9,20.9,0,0,1,.9,4.6c6.7,5,10.9,11,10.8,18.6a118.1,118.1,0,0,0-11-14.8c-1.4,9.1-4.7,18.7-8.9,17.6-2.1-.7-2.8-8.2-10.7-16.6-1,8.8-4.5,16.4-13,21.3a13.9,13.9,0,0,1-1.2,6.3c-2.7-11.7-6.2-20.7-11.3-23.4-4.6,4.2-8.7,11.4-12.7,19.5" transform="translate(367.3 258.8)" style="fill:#050000;fill-rule:evenodd"/><path d="M-182.1,39l1-2c5.5,6.3,15.3,6.8,19.7.2,6.5,6.3,20.8,7.8,25.2-3.1,5.6,7,22.1,5.3,25.8-6.5a12.4,12.4,0,0,0,4.8-.2,124.4,124.4,0,0,1-.6,15c-9.9,27.2-56.4,22.4-76.1-3.4" transform="translate(367.3 258.8)" style="fill:#050000;fill-rule:evenodd"/><path d="M-190.8-80.7c3.7-.2,6.4-3.7,6.2-7.7a7.3,7.3,0,0,0-5.1-6.8,106.1,106.1,0,0,1-7.8,9.6A6.8,6.8,0,0,0-190.8-80.7Z" transform="translate(367.3 258.8)" style="fill:#050000;fill-rule:evenodd"/><path d="M-262.3-87.8a79.8,79.8,0,0,1-5.8-6.5c-2.2.6-3.7,3.1-3.5,6s2.4,5.7,5,5.6S-262.6-85-262.3-87.8Z" transform="translate(367.3 258.8)" style="fill:#050000;fill-rule:evenodd"/><ellipse cx="82.8" cy="237.9" rx="2.5" ry="3.5" style="fill:#050000"/><ellipse cx="73.6" cy="222.7" rx="2.4" ry="3.1" style="fill:#050000"/><path d="M-214.3-120.9c45.5-33,73.2-21.9,72,17.5C-126.1-135-169.7-172.8-214.3-120.9Z" transform="translate(367.3 258.8)" style="fill:#231f20;fill-rule:evenodd"/><path d="M-140.4-151c-10-16.7-36.9-9.7-45.6,3.9C-173.7-158.6-151.7-161.3-140.4-151Z" transform="translate(367.3 258.8)" style="fill:#231f20;fill-rule:evenodd"/><ellipse cx="131.2" cy="224.6" rx="3.5" ry="3.3" style="fill:#231f20"/><ellipse cx="146.6" cy="214.2" rx="3.2" ry="3" style="fill:#231f20"/><ellipse cx="163.2" cy="210.1" rx="3.1" ry="2.8" style="fill:#231f20"/><ellipse cx="160.1" cy="222.6" rx="2.6" ry="2.5" style="fill:#231f20"/><ellipse cx="145.4" cy="229.3" rx="3" ry="2.7" style="fill:#231f20"/></svg>