<svg xmlns="http://www.w3.org/2000/svg" viewBox="0 0 305.25 389.52"><title>Cavalier075_1c</title><path d="M333.12,164.22c-19.08-50-65.45-73.67-65.45-73.67s-10.39,9.06-26.81,23.92l46.87-85.09L287.3,3.95,260.77,18.86,248.61,45.62c-2.14-4.14-5.26-6.72-7.6-6.64-5.9.2-14.59,5.76-16.21,15.32A22.36,22.36,0,0,1,218,66.57c1.5-4.79,3.33-13.23,4.72-27.93C225.54,8.54,209.47,0,209.47,0l.26,7.93s0,2.24-2.59,6.1S203,18.1,203,18.1l6.74,10.37L202.22,22,209,31.32l-6.22-3.25s0,4.68,4.92,10.37c4.73,5.47,4.67,16.39,3.28,25.18-1.86-4.74-4.61-14.34-8.11-15.22-4.07-1-6.92,1.83-10.17,4.07-3,2.1-10.92,1.69-11.9,1.63s-8.85.46-11.9-1.63c-3.25-2.24-6.1-5.08-10.17-4.07s-7.12,13.83-8.95,17.08-3.74,12-3.74,12-18.21-9.1-36.93-4.28C82.55,80,98.44,98.65,112.86,100a70.85,70.85,0,0,0,18.79,1.92c9.87-.14,16.34-.28,20.58-.41,0,.07,0,.13,0,.2-.2,3.25,1.22,8.54,1,10.58s2.44,4.47,2.64,5.29-.2,8.75-.2,13a6.49,6.49,0,0,0,.54,2.41,16,16,0,0,1-2-.77,16.63,16.63,0,0,1-5-3.51s-3.78,9.07-1.68,15.66c-24.47-14.31-38.33-37.7-38.33-37.7s-30.91-3.29-53.61,35.19S48,196.45,48,196.45s-6.25,9.54-5.59,27S50,249.73,61.8,246.77a60.05,60.05,0,0,1,22.69-1l5.26,10.52s3.62-3.95,19.4-8.22,20.72-2,20.72-2,1.73,1.09,4,2.46c-3.41,4,2.36,11.08,5.89,11.73a31.45,31.45,0,0,0,7.36.51v3.8l-2.16-1.77s-6.28,8.62-3,15.21a5.19,5.19,0,0,0,3.59,2.78l-11.69,16.6s-50.65,93.73,52.62,92.09S291,305,291,305s-2,8.88-12.83,17.76-19.4,6.58-19.4,6.58-11.51-8.55-2.63-19.4,36.51-18.42,53.28-33.55,12.17-38.48,12.17-38.48a41.29,41.29,0,0,1,11.51-4.28,127.42,127.42,0,0,1,13.81-2.3S352.2,214.21,333.12,164.22ZM207.33,33.49l5.43.82-3-3.78L215.06,34l-7.89-14.8s2,0,4.28-4.77,1-8.22,1-8.22,6.74,5.43,7.4,22.86-6.91,36.67-6.91,36.67,1.64-18.25-.82-25S207.33,33.49,207.33,33.49Zm5,38.75a80.38,80.38,0,0,1-10.63,5.7c-6.36,2.85-17,4.71-17,4.71l-.55-4.71a78.66,78.66,0,0,0,11.51-1.32c5.15-1.1,15.24-6,15.24-6ZM183,56.83s1.88.54,7.52-.54,5.1-3.76,8.59-4,5.37,3.76,6.18,8.05,4.56,8.86,4.56,8.86-2.68,1.61-11.28,4a36.59,36.59,0,0,1-14.77,1.34,72.48,72.48,0,0,1-2.15-8.06A12.59,12.59,0,0,1,183,56.83ZM143.9,80.3S178.42,92,202.22,81.64,226.62,58.15,228.15,53s7-6.1,7-6.1,5.19-.3,4.27,11-14.95,30.81-48.2,33.25S143.9,80.3,143.9,80.3Zm66.25,32c-.2-2,1.22-7.32,1-10.58s-2.64-5.08-3.25-5.9.2-3.46.2-3.46a78.94,78.94,0,0,0,23.32-8.92l-21,46.22c-.31-1.09-.76-1.87-1.4-1.59a14.82,14.82,0,0,0-1.34.72c-.08-4.39-.36-10.5-.19-11.21S210.35,114.3,210.15,112.26ZM200,111.38c2.46-.41,2.46,2.19.55,6.57s-5.75,10.95-5.75,10.95,3.56-1.64,4.65-3.7,2.46-4.93,2.46-4.93a51.89,51.89,0,0,1,.41,7c0,4.24-7.94,8.07-9,10.67s-3.15,5.47-5.2,6.29-6.3-1.09-6.57-2.05,1.64-2.33,1.64-3.56-.41-3.26,0-3.67,4.65-1.23,5.47-2.33-4.73-2.28-5.55-2.28-1.16-1.82-1.16-2.64,5.61-.55,7-.27,2.05,3.28,2.33,4.24,1.23-.68,1.23-.68-.55-5.34-1.23-5.75-1.51.27-1.92.27-5.06-1.78-5.06-1.78-1.78.68-2.46-.14-.14-2.6-.14-2.6.82,1.51,2.05,1.51,1.51-2.46,1.51-2.46,1.37.68,1.37,1.09,4-3,4.11-4-2.37-1.54-3.15-1.37l-4.79,3a15,15,0,0,1-2.6-1.09s-.41-13.44,1.09-15.22,2.74,1.37,2.87,2.46.14,8.07.14,8.07a15.4,15.4,0,0,0,1.51-4.79c.27-2.46.41-4.24.41-4.24s1.78,1.92,3.56,1.92,8.9-5.88,10.81-6.16,3.69,2.05,3.83,3.42-10.26,8.48-10.26,8.48A35.3,35.3,0,0,0,200,111.38ZM48.54,173.21s-1.75-11.84,19.73-36.83,39-22.36,39-22.36,22.36,26.31,41.22,38.59,29.82,10.52,29.82,10.52-11.84,8.33-40.78-1.75-28-22.92-45.6-21.92C68.71,140.76,48.54,173.21,48.54,173.21Zm41.66,63.14s-.88-2.19-11-5.26-19.73,2.19-19.73,2.19-11-2.63-3.07-30.7,41.22-50.87,41.22-50.87,2.19,3.51,13.59,8.33a225.5,225.5,0,0,0,24.12,8.33L149,189s1.75,0,8.33-4.82a26.39,26.39,0,0,0,8.77-10.52s-.44,16.66-11.84,24.56-5.7,18-5.7,18-18-12.28-20.17-26.31-6.14-15.35-6.14-15.35a66.63,66.63,0,0,1,0,14.91c-.88,9.21-3.95,14-3.95,14A94,94,0,0,0,116.07,182c-2.63-12.72-11-22.36-11-22.36s-.44,3.51-3.51,14.91-11.84,18.86-11.84,18.86a43.4,43.4,0,0,1-8.33-5.7,11.46,11.46,0,0,1-3.95-7.89,15.34,15.34,0,0,0-1.32,8.33c.44,5.26,5.7,8.33,5.7,8.33a55,55,0,0,0-9.21,1.32A28.93,28.93,0,0,0,61.25,203s6.58-.88,18.42,0a34.31,34.31,0,0,1,18.86,7S95,213.11,91.95,223.2,90.19,236.35,90.19,236.35Zm44.62,3.51c-4.93-4.6-6.58-12.83-6.58-12.83l.33,10.2a59.3,59.3,0,0,0-19.4.33C99,239.53,96,241.5,96,241.5a35.87,35.87,0,0,1,2-16.77,56.81,56.81,0,0,1,7.56-13.48s20.06,4.93,31.57,9.87S150.93,228,150.93,228l-4.28-5.59s13.48,1.32,16.77,3-12.83,20.39-12.83,20.39S139.74,244.46,134.81,239.86Zm8.84,17.65c-4.54-.51-7.14-8.11-1.52-9.12s11.47,6.08,11.47,6.08,26.19,8.87,30.95-8.62a26.39,26.39,0,0,0,1-7.17l-.59-4.32c-2.32-8.38-11.16-11.42-18.62-13.09-10.17-2.28-6.71-18-6.71-18s7.57.25,8.22,4.56-3.68,4.05-3.68,4.05,0,1.27,2.81,4.05a5.57,5.57,0,0,0,6.28,1L264.72,21.49,284.38,8.58,177.19,217.72a43.35,43.35,0,0,1,7.58,5.89c3.69-1.6,15.63-7.9,29.07-27.16,16.22-23.24,15.35-34.64,15.35-34.64s3.95,17.54-10.09,46.48c-9.56,19.73-21,31.91-27.24,37.67a20,20,0,0,1-.82,1.92c-12.88,25.93-41.12,8.62-41.12,8.62S148.19,258,143.65,257.51ZM270,160.93c-11.4-18-40.78-19.29-40.78-19.29a24.7,24.7,0,0,1,11-8.77c7.46-3.07,24.12-6.14,38.15,18.42s-.88,53.94-.88,53.94S281.38,178.91,270,160.93Zm-14,30.26a144,144,0,0,0-10.52-37.71s20.17,17.1,19.29,41.66-15.35,39-15.35,39S259,213.11,255.95,191.19Zm41.66,82.44c-18,10.09-30.26,14.91-44.29,23.68s-14.47,18-14.47,18-5.26-21,14.47-37.27,60.07-34.2,60.07-34.2S315.58,263.54,297.6,273.62Zm40.78-49.11s-37.93-1.54-99.32,38.37-51.52,91.87-51.52,91.87-3.29-18.86,22.58-53.06,59-40.34,59-40.34-54.81,21.92-43,56.13,49.11,14,49.11,14-95.09,81-126.29,16.88c-24.34-50,36.83-84.85,74.55-99.76s59.2-25.43,71-60.51-8.77-59.2-24.12-62.71-36.83,5.7-36.83,5.7l37.27-32.45s12.72,2.19,43,42.1S338.39,224.51,338.39,224.51Z" transform="translate(-42.35)"/></svg>