<svg xmlns="http://www.w3.org/2000/svg" viewBox="0 0 305.25 389.52"><defs><style>.a{fill:#ed1c24;}.b{fill:#878787;}</style></defs><title>Cavalier075_3c</title><path d="M333.12,164.22c-19.08-50-65.45-73.67-65.45-73.67S252.22,104,229.2,125.08a151.66,151.66,0,0,1-20,15.7A62.57,62.57,0,0,0,211,134c0-1.32-.44-6.58-2-5.92s-9.21,5.7-9.21,5.7H160.57a17.19,17.19,0,0,1-11.4-5s-3.78,9.07-1.69,15.66c-24.47-14.31-38.33-37.7-38.33-37.7s-30.91-3.29-53.61,35.19S48,196.45,48,196.45s-6.25,9.54-5.59,27S50,249.73,61.8,246.77a60.05,60.05,0,0,1,22.69-1l5.26,10.52s3.62-3.95,19.4-8.22,20.72-2,20.72-2,6.25,3.95,10.52,6.25,16.12,12.83,16.12,12.83l-22.69,32.23s-50.65,93.73,52.62,92.09S291,305,291,305s-2,8.88-12.83,17.76-19.4,6.58-19.4,6.58-11.51-8.55-2.63-19.4,36.51-18.42,53.28-33.55,12.17-38.48,12.17-38.48a41.29,41.29,0,0,1,11.51-4.28,127.42,127.42,0,0,1,13.81-2.3s5.26-17.1-13.81-67.09Z" transform="translate(-42.35)"/><path class="a" d="M229.2,161.81s3.95,17.54-10.09,46.48-32,41.66-32,41.66l-3.51-25.87s14-4.38,30.26-27.63,15.35-34.64,15.35-34.64Z" transform="translate(-42.35)"/><path d="M180.66,54.1h0ZM241,39c-5.9.2-14.59,5.76-16.21,15.32A22.36,22.36,0,0,1,218,66.57c1.5-4.79,3.33-13.23,4.72-27.93C225.54,8.54,209.47,0,209.47,0l.26,7.93s0,2.24-2.59,6.1S203,18.1,203,18.1l6.74,10.37L202.22,22,209,31.32l-6.22-3.25s0,4.68,4.92,10.37c4.73,5.47,4.67,16.39,3.28,25.18-1.86-4.74-4.61-14.34-8.11-15.22-4.07-1-6.92,1.83-10.17,4.07-3,2.1-10.92,1.69-11.9,1.63s-8.85.46-11.9-1.63c-3.25-2.24-6.1-5.08-10.17-4.07s-7.12,13.83-8.95,17.08-3.74,12-3.74,12-18.21-9.1-36.93-4.28C82.55,80,98.44,98.65,112.86,100a70.85,70.85,0,0,0,18.79,1.92c9.87-.14,16.34-.28,20.58-.41,0,.07,0,.13,0,.2-.2,3.25,1.22,8.54,1,10.58s2.44,4.47,2.64,5.29-.2,8.75-.2,13,6.1,10,9.36,13.63,6.71,6.71,9.15,7.32,6.3-.41,6.3-.41h2.42s3.86,1,6.3.41,5.9-3.66,9.15-7.32,9.36-9.36,9.36-13.63-.41-12.2-.2-13,2.85-3.25,2.64-5.29,1.22-7.32,1-10.58-2.64-5.08-3.25-5.9.2-3.46.2-3.46,24.48-4.4,37.09-20.67S246.9,38.78,241,39Z" transform="translate(-42.35)"/><path class="b" d="M235.17,46.87s-5.49.92-7,6.1S226,71.27,202.22,81.64,143.9,80.3,143.9,80.3,158,93.54,191.24,91.1s47.29-22,48.2-33.25-4.27-11-4.27-11Z" transform="translate(-42.35)"/><path class="b" d="M183.82,74.56a36.59,36.59,0,0,0,14.77-1.34c8.59-2.42,11.28-4,11.28-4s-3.76-4.56-4.56-8.86-2.68-8.32-6.18-8.05-3,3-8.59,4-7.52.54-7.52.54a12.59,12.59,0,0,0-1.34,9.67,72.49,72.49,0,0,0,2.15,8.06Z" transform="translate(-42.35)"/><path class="b" d="M182.77,118.8a15,15,0,0,1-2.6-1.09s-.41-13.44,1.09-15.22,2.74,1.37,2.87,2.46.14,8.07.14,8.07a15.4,15.4,0,0,0,1.51-4.79c.27-2.46.41-4.24.41-4.24s1.78,1.92,3.56,1.92,8.9-5.88,10.81-6.16,3.69,2.05,3.83,3.42-10.26,8.48-10.26,8.48a35.3,35.3,0,0,0,5.88-.27c2.46-.41,2.46,2.19.55,6.57s-5.75,10.95-5.75,10.95,3.56-1.64,4.65-3.7,2.46-4.93,2.46-4.93a51.9,51.9,0,0,1,.41,7c0,4.24-7.94,8.07-9,10.67s-3.15,5.47-5.2,6.29-6.3-1.09-6.57-2.05,1.64-2.33,1.64-3.56-.41-3.26,0-3.67,4.65-1.23,5.47-2.33-4.73-2.28-5.55-2.28-1.16-1.82-1.16-2.64,5.61-.55,7-.27,2.05,3.28,2.33,4.24,1.23-.68,1.23-.68-.55-5.34-1.23-5.75-1.51.27-1.92.27-5.06-1.78-5.06-1.78-1.78.68-2.46-.14-.14-2.6-.14-2.6.82,1.51,2.05,1.51,1.51-2.46,1.51-2.46,1.37.68,1.37,1.09,4-3,4.11-4-2.37-1.54-3.15-1.37l-4.79,3Z" transform="translate(-42.35)"/><path d="M184.92,119.82a50.84,50.84,0,0,0,6.33,2c3.92,1,6.93,9.12,6.93,9.12s-7.39-4.94-11.3-5.45-6.78-.51-7.24-2.15.45-2.53.9-2.66,4.37-.89,4.37-.89Z" transform="translate(-42.35)"/><path d="M167.89,213.16s4.11-2,2.16-7.1-12.77-6.34-12.77-6.34-1.08,18.75,3.9,22.3,22.29,7.1,20.13,20.53-26.4,10.14-26.4,10.14-10.82-9.12-18.61-5.83-.65,12.67,3.46,13.43a31.45,31.45,0,0,0,7.36.51v3.8l-2.16-1.77s-6.28,8.62-3,15.21,16.45,1,18.83-3.55a15,15,0,0,0,1.08-9.63s25.6,8.22,34.15-15.13c8.26-22.56-11.43-33-11.43-33L287.74,29.38,287.3,3.95,260.77,18.86l-89,195.82a1.92,1.92,0,0,1-2.38.25c-1.51-.76-1.51-1.77-1.51-1.77Z" transform="translate(-42.35)"/><path class="b" d="M177.19,217.72,284.38,8.58,264.72,21.49,173.3,217a5.57,5.57,0,0,1-6.28-1c-2.81-2.79-2.81-4.05-2.81-4.05s4.33.25,3.68-4.05-8.22-4.56-8.22-4.56-3.46,15.71,6.71,18,22.94,7.1,18.18,24.58-30.95,8.62-30.95,8.62-5.84-7.1-11.47-6.08-3,8.62,1.52,9.12,6.28-1,6.28-1,28.24,17.32,41.12-8.62c8.55-17.23-13.85-30.16-13.85-30.16Z" transform="translate(-42.35)"/><path class="a" d="M233.58,131.11s21.49-9.21,36.83-5.7,36,27.63,24.12,62.71-33.33,45.6-71,60.51S124.62,298.4,149,348.39c31.2,64.08,126.29-16.88,126.29-16.88s-37.27,20.17-49.11-14,43-56.13,43-56.13-33.11,6.14-59,40.34-22.58,53.06-22.58,53.06-9.87-52,51.52-91.87,99.32-38.37,99.32-38.37,5.7-43.85-24.56-83.75-43-42.1-43-42.1" transform="translate(-42.35)"/><path class="a" d="M313.39,243.81s2.19,19.73-15.79,29.82-30.26,14.91-44.29,23.68-14.47,18-14.47,18-5.26-21,14.47-37.27,60.07-34.2,60.07-34.2Z" transform="translate(-42.35)"/><path class="a" d="M229.2,141.64S258.58,143,270,160.93s7.45,44.29,7.45,44.29,14.91-29.38.88-53.94-30.69-21.49-38.15-18.42a24.7,24.7,0,0,0-11,8.77Z" transform="translate(-42.35)"/><path class="a" d="M245.42,153.47s20.17,17.1,19.29,41.66-15.35,39-15.35,39,9.65-21,6.58-43a144,144,0,0,0-10.52-37.71Z" transform="translate(-42.35)"/><path class="a" d="M48.54,173.21s-1.75-11.84,19.73-36.83,39-22.36,39-22.36,22.36,26.31,41.22,38.59,29.82,10.52,29.82,10.52-11.84,8.33-40.78-1.75-28-22.92-45.6-21.92c-23.24,1.32-43.41,33.76-43.41,33.76Z" transform="translate(-42.35)"/><path class="b" d="M97.65,151.72s-33.33,22.8-41.22,50.87,3.07,30.7,3.07,30.7,9.65-5.26,19.73-2.19,11,5.26,11,5.26-1.32-3.07,1.75-13.16S98.53,210,98.53,210a34.31,34.31,0,0,0-18.86-7c-11.84-.88-18.42,0-18.42,0a28.93,28.93,0,0,1,11.4-5.26,55,55,0,0,1,9.21-1.32s-5.26-3.07-5.7-8.33a15.34,15.34,0,0,1,1.32-8.33,11.46,11.46,0,0,0,3.95,7.89,43.4,43.4,0,0,0,8.33,5.7s8.77-7.45,11.84-18.86,3.51-14.91,3.51-14.91,8.33,9.65,11,22.36a94,94,0,0,1,2.19,21.49s3.07-4.82,3.95-14a66.63,66.63,0,0,0,0-14.91s3.95,1.32,6.14,15.35,20.17,26.31,20.17,26.31-5.7-10.09,5.7-18,11.84-24.56,11.84-24.56a26.39,26.39,0,0,1-8.77,10.52C150.71,189,149,189,149,189l-13.59-20.61a225.5,225.5,0,0,1-24.12-8.33c-11.4-4.82-13.59-8.33-13.59-8.33Z" transform="translate(-42.35)"/><path class="b" d="M105.54,211.25s20.06,4.93,31.57,9.87S150.93,228,150.93,228l-4.28-5.59s13.48,1.32,16.77,3-12.83,20.39-12.83,20.39-10.85-1.32-15.79-5.92S128.23,227,128.23,227l.33,10.2a59.3,59.3,0,0,0-19.4.33C99,239.53,96,241.5,96,241.5a35.87,35.87,0,0,1,2-16.77,56.81,56.81,0,0,1,7.56-13.48Z" transform="translate(-42.35)"/><path class="a" d="M207.33,33.49s2.3.49,4.77,7.24.82,25,.82,25,7.56-19.24,6.91-36.67-7.4-22.86-7.4-22.86,1.32,3.45-1,8.22-4.28,4.77-4.28,4.77L215.06,34l-5.26-3.45,3,3.78-5.43-.82Z" transform="translate(-42.35)"/><path class="a" d="M210.89,70.6s-10.09,4.93-15.24,6a78.65,78.65,0,0,1-11.51,1.32l.55,4.71s10.63-1.86,17-4.71a80.37,80.37,0,0,0,10.63-5.7l-1.42-1.64Z" transform="translate(-42.35)"/></svg>