<svg id="Layer_1" data-name="Layer 1" xmlns="http://www.w3.org/2000/svg" viewBox="0 0 792.3 416.3"><title>Cougar460_1c</title><path d="M392.6-181.8c-7.2-13-22.6-20.4-36.4-24.1H356a110.9,110.9,0,0,0-60.8,4.7c-19.8,7.3-37.4,19.6-53.5,33.1s-32.8,30.2-49.1,45.3c-19,17.6-39.2,34.9-62.3,46.7a149.5,149.5,0,0,1-18.6,8.1A181,181,0,0,0,80.6-89.1a159.6,159.6,0,0,0-30.2-12c-10.8-3.1-21.8-5.4-32.7-7.7-12.7-2.7-25.3-5.5-37.8-9.1-38.2-10.9-73.7-28-108-48.1a168.6,168.6,0,0,0-32.4-19.6,125.4,125.4,0,0,0-47.1-10.7c-20.3-.8-41,2.6-60.7,7.4-3.5-3-7.8-5.4-12.5-5.2-8,.4-13.6,8.2-17.2,14.7a238.9,238.9,0,0,0-23.6,10.7c-2.2-4.5-5.7-8.5-10.9-9.1s-10.4,3-13.7,7.3c-4.5,6-6.9,14.2-8.1,21.6l-7.6,6.8c-4.7,4.2-9.5,8.3-14.1,12.7-2.9,2.8-7.1,6.8-9.1,10.3s.5,7.4,3.2,10.4c-5.5,5.3-10.4,11.4-13.6,18.4l-.2.5v.5a55.7,55.7,0,0,0,3,23.9c6.7,18,22.2,26.6,40.8,27.8l6.6.4-4.1-5.2a70.3,70.3,0,0,1-6.2-9l7.6-.7c7.2,5.3,17.1,11.4,26,11.3h2.1l.7-1.9a8,8,0,0,0-.1-4.2l.8.8a33,33,0,0,1,5.2,7.9c2.5,4.7,4.7,9.7,6.9,14.6a21.1,21.1,0,0,1-2.9,1.6c-2.7-.1-5.9.1-8.3-.6l-4.1-1.4.2,4.3a18.7,18.7,0,0,0,3.6,9.6,45.4,45.4,0,0,0,6.5,9.6A148.7,148.7,0,0,0-328.2,9.7c-8.7.9-14.7,5.1-16.9,13.2h-.3a12.4,12.4,0,0,0-7.8,5.7,19.6,19.6,0,0,0-2.8,9.7,21.1,21.1,0,0,0-5.2,10.4,20.5,20.5,0,0,0,3.9,15.9c2.6,8.5,8.1,16.4,17,19,6.6,1.9,14.3.5,18.8-5.1a13.8,13.8,0,0,0,2.9-6.6,30.7,30.7,0,0,1,8-6.1c2.7-1.4,5.5-2.5,8.1-4.1l.4-.3c2.2,4.1,5.9,7.1,10.2,9.2a14.5,14.5,0,0,0,4.9,7.6,23.7,23.7,0,0,0,11.2,5.1,22.2,22.2,0,0,0,13.5-1.8c5.2-2.5,9-6.9,11.5-12h.1a11.1,11.1,0,0,1,2.9-4.2,25.2,25.2,0,0,1,6.4-4c2.9-1.4,5.8-2.6,8.6-4.1A31.6,31.6,0,0,0-217,38.2a9.9,9.9,0,0,1,1.5-2.9c2.1-2.7,5.6-4.4,8.7-5.6,4.9-1.9,10.3-3.2,15.4-4.7a161.4,161.4,0,0,0,19.9-7,110.3,110.3,0,0,0,21-12.1c29.9,13.6,62.6,17.8,95.2,15.8C-44.9,50.6-19.9,66.1,7,78.1c14.2,6.4,28.9,11.7,42.9,18.2A115.6,115.6,0,0,1,68.6,109a140.2,140.2,0,0,1,14.2,13.8c5.7,6.3,11.1,12.9,16.8,19.2a205.1,205.1,0,0,0,21,20.3,43.5,43.5,0,0,0,5.6,21.8,36.1,36.1,0,0,0,12.9,13.7,27.1,27.1,0,0,0,18.6,3.3c3.5,3,9,3.5,13.3,2.7a15.7,15.7,0,0,0,7.5-3.7c4-3.7,4.7-8.9,3.4-14v-.4l-.2-.4c-4.6-7.5-5.5-18.9-4.9-27.5h0a16.4,16.4,0,0,0-.7-4.9c-1.5-5.1-5.4-9.2-9.4-12.6s-10.2-8.1-15.2-12.3c-13.7-11.4-23.3-23.6-29.8-39.9a85.9,85.9,0,0,1,32.1,7.1,107.2,107.2,0,0,1,21.7,12.6c19.4,14.4,36.2,36.3,44.5,59a57.9,57.9,0,0,0,3,19.1c2.4,7.1,6.6,14.7,13.4,18.4,5,2.7,10.5,2.8,15.8,1.1,7.9,4.1,15.5,3.9,21.5-2.8,7,0,12.5-2.5,15.1-9,6.6-.9,12.6-6.9,15.2-12.6a19.5,19.5,0,0,0,1.5-12.5c-1.2-5.2-4.5-9.3-8.7-12.4h-.2c-5.3-3.3-8.4-6.9-11.7-12-1.8-2.8-3.5-5.7-5.4-8.4a47.6,47.6,0,0,0-8.4-9c-17.8-14.6-38-33.8-47.5-55.2a97.8,97.8,0,0,1-5.3-16.2c-1-3.9-2-8.2-4.6-11.3a13.2,13.2,0,0,0-4.3-3.4c-12.6-6.4-23.8-14.2-33.2-24.7-7.6-8.4-13.2-17.7-19-27.4s-10.6-17.5-17.2-25.4a353.9,353.9,0,0,0,54.8-36.2c15.1-12,29.1-25.1,42.9-38.5,5.9-5.8,11.8-11.6,17.9-17.3s10.8-10.1,16.6-14.7c9.7-7.9,20.4-15,32.4-18.5,20.5-5.9,40.4.4,58.7,9.9h.1c5,2.4,10.5,3.9,16.1,3.2a18.9,18.9,0,0,0,11.9-6C397.9-162.5,397.2-173.4,392.6-181.8ZM-328-161.6l-4.6,3.1c-.5-2.1-.9-4.1-4.3-5.9,1.7,1.9,1.2,5.1.7,8.3l-9.3,6.2C-341.3-163.2-336.5-173.1-328-161.6Zm-59.9,81.5c3.4,4.7,7,8.4,11.1,9.4a50,50,0,0,0,4.4,8.1,56.7,56.7,0,0,0-5,6.5A32.6,32.6,0,0,1-387.8-80.1Zm14.2,25.8a42.6,42.6,0,0,1,5.8-5.8A53.1,53.1,0,0,0-362-46.5,34,34,0,0,1-373.7-54.2Zm5.6-11.5a45.5,45.5,0,0,1-5.9-7.7c6.1-8.7,12.6-23.6,27.7-18.9l-13.7,8.7a40.2,40.2,0,0,0,17.7-6.2,5,5,0,0,1,2.2,2.7c-5.8,4.4-13.6,7-20.4,10.5a48.7,48.7,0,0,0,23.1-6.2,6.2,6.2,0,0,1,1.3,5.2c-8.2,3.2-15.9,5.4-22.5,5,4.5,2.5,13,2.1,23,.7-.1,3-.7,5.9-2.3,6.1Zm22.3,5.3c5-.2,9.8-.6,13.3-1.6a28.9,28.9,0,0,0,3.6,12.5C-335.5-51.4-340.8-55.6-345.7-60.5Zm45.6,42.2a22.6,22.6,0,0,1-.3,11.2q-7.4-2.9-10.9-7.2A12.8,12.8,0,0,0-300.1-18.3Zm-52.2,63.2c3.6,7.8,9.1,12.4,15.5,13.2C-340.1,74.5-358.7,54-352.4,44.9Zm6.7,24.8c4.6,1,8,.7,10-1,1.2,2.3,3.3,4.1,7.5,4.6C-332.7,77.7-341.9,75.7-345.7,69.7Zm3.5-40.9c2.7,8.2,7.9,14.7,14.2,16.3C-338.7,63.2-355.6,36.6-342.3,28.8Zm28.6,2.8c-10.1,16.3-19.6,3.9-22.3-3.1-3.4-8.7,12.3-15.5,22.4-6.7-.9-2-3-4.4-6.9-7.1,5.4-3.3,14.7-7,22.1-10.7,22.2,8.8,28.6-9.9,47.1-7.4-13.1,5.2-13.5,23.3-29.3,21.5C-296.7.7-315.1,19.3-313.6,31.6ZM191.4,45.4h0a57.7,57.7,0,0,0,8.4,3.8c15.8,5.9-4.9,26.4,58.6,83,21.1,14.4,14.1,23.3,30.9,33.3a8.1,8.1,0,0,1,3.8,6.1h0q.1.5.1,1h0c0,.3,0,.6,0,.8v.2a10.3,10.3,0,0,1-.4,1.9v.2l-.3.7v.2l-.4.9h-.1l-.4.7v.2l-.5.6h-.1l-.7.7-.2.2-.6.4h-.2l-.8.5h-.1l-.8.3h-.3l-.8.2h-2.6l-1.2-.2c-8.8-1.6-14.5-8.5-19.5-17.6,1.4,12.2,5.3,21.4,13.7,25.4-11.9,3.5-18.3-4.9-22-19-3.1,8.6-1,20.9,6.4,25.4-9-1.6-19.1-12-20.8-25.5-2.4,7.3-1.6,14.4,3.5,24.6-21.5-13.8-1.8-28.1-28.4-62.3-67.6-87.2-94.6-31.9-164.1-83.4C31,34.8,20,12.1-9.8,5.5c8,3,14.3,8.4,19.9,14.9C-38.8-2.8-80.8,24.2-142-2.4c9.3-8.2,32-3.3,28-24.6-6.3-19.8-1.8-43.8-16.6-63.3-1.7-2.3-6.4-11-10.9-24.8-2.4-18.2-9.4-32.6-23.9-35.8-3.7-5.6-10-10.1-24.2-11.2,15.5,6.3,24.5,20.2,22.4,47.5,7-2.3,8.3-11.9,4.8-27.7,13.1,6.4,15.7,27.1,9.6,40-3.2,6.8-3.8,12.3-1.8,22.4,1.8-7.8,7.6-15,10.5-23.4,7.1,24.1,18,19.6,21.4,72.2,1.3,14.5-.2,13-9.6,16.1C-155-7.9-157.5,7.9-206.3,21c-23,6-16.5,22.8-30.1,28.6-27.6,9.3-20,25.8-34.8,25.7-16.4-.5-13.8-13.9-6.9-17.9l1.2-.7h.2l1.1-.5h.1c7-3,12.1,1.4,13-10.6-4.3,7.3-7.1,3.6-12.5,4.9a22.1,22.1,0,0,0-3.4,1.1l-.4.2-.7.3-.4.2-.8.5h-.2l-1,.6-.2.2-.7.5-.3.2-.6.5-.3.3-.5.5-.3.3-.6.6-.2.2-.7.9v.2l-.5.7-.2.3-.3.6-.2.4-.3.6v.4l-.2.7v.3l-.2,1.1c-10.6-4-7.7-13.8,2.2-18.2l1.1-.4h.1c8.2-2.7,16.7,3.6,15.7-7.4-2.8,7.6-7.3.5-14.3,1.4a18.2,18.2,0,0,0-4.4,1.2l-.5.2-.8.3-.5.3-.7.4-.5.3-.7.4-.4.3-1,.7-.2.2-.7.6-.4.3-.5.5-.3.4-.5.6-.3.4-.5.7-.2.2-.7.9-.2.3-.5.7-.2.3-.4.6-.2.3-.4.7-.2.3-.5.9-.7-.6-.2-.2-.4-.4-.2-.3-.3-.4-.2-.3-.3-.4-.2-.3-.2-.4v-.3l-.2-.4V44.7c0-.1,0-.2,0-.4s0-.3,0-.4V40.4l.2-.4.2-.4.2-.4.2-.4.2-.4.2-.4.2-.4.2-.4.2-.3.3-.4.2-.3.3-.4.3-.3.3-.3.3-.3.3-.3.3-.3.3-.3.3-.2.4-.3.3-.2.4-.3.3-.2.4-.3.3-.2.4-.2.3-.2.4-.2h.3l.4-.2h.3l.4-.2h1.3c8.5-1.8,13,8.9,18.2-2.5-5.7,5.1-8.3-2.2-14.2-2.9a16.5,16.5,0,0,0-5.4.3l-1.3.3h-.3l-1.5.6h-.3l-1.3.6-.3.2-1.4.9-.2.2-1.2.8-.3.3-1.3,1.1h-.1l-1,1.1-.3.3-1,1.4-.4-.6v-.2l-.2-.4v-.2l-.2-.4V29.9h0c0-.2,0-.4,0-.6V26.5l.3-.6v-.2l.2-.4.2-.3.2-.3.2-.3.2-.3.2-.3.2-.3.2-.3.3-.3.2-.2.5-.5.3-.2.3-.3.3-.2.3-.2.3-.2.3-.2.3-.2.3-.2.3-.2.3-.2.4-.2h.1l.8-.4h.3l.4-.2h1.5a12.6,12.6,0,0,1,3.7-.5c8.3.2,5.2,13.7,26.9,3.3,7.8-3.5,7.7-15.9,22.2-20.8,13.6,3.1,35-27.1,53.1-38.7,16-1,27.9,1.4,35.4,7.4h.2l1.1,1,.5.5,1.5,1.6c-5.3-11.7-28.2-20.4-42.3-15.4l-1.1-1.9-.8-1.4-.2-.4-.9-1.6-.2-.3-.9-1.6-.2-.3-.9-1.7-.2-.3-.9-1.7v-.3l-.9-1.8v-.2l-.9-2h0a98.8,98.8,0,0,1-6.8-26.4c13.8.9,23.4,5.1,29.7,12l-.4-1.4-.3-.9-.4-.9-.4-.9-.5-.9-.5-.9-.6-.9-.6-.9-.7-.9-.7-.8-.8-.8-.8-.8-.9-.8-.9-.8-1-.8-.9-.8-1.1-.8-1-.7-1.2-.8-1.1-.7-1.3-.8-1.2-.7-1.4-.8-1.2-.6-1.6-.8-1.3-.6-1.8-.8-1.3-.6-2.1-.9-1.1-.4-3.4-1.3q-16.6-19.1-8.5-40.4c-9.2,9.2-11.1,18-9.8,26.7-5.8-4.3-14-5.8-24.8-4.1a46.6,46.6,0,0,0-12-9.4c16.2,18.2,18.5,29.5,13.7,40-2.5,5.5-9.4,11.8-11.8,15.9.7-7.3.3-14.7,2.1-21.8-11.4,11.2-11.2,66.8,6.2,65.8,1.1,11.2-29,30-39,23.6,13.3-1.7,23.7-7.7,18.8-26.9-5.3-20.7-12.4-48.4-41.5-49.2.1-.6.2-1.1.2-1.7v-.5q.1-.6.1-1.3v-.4c0-.5,0-1.1,0-1.6v-.2c0-.5-.1-.9-.1-1.4-1.4-11.2-11-18.4-26.2-15.8l-2.2.5-.7.2-1.6.5-.7.2-2.1.7h-.3l-2.4,1-.7.3-1.8.8-.8.4-2.1,1.1-.4.2-2.6,1.4-.7.4-2.1,1.2c-4.4,2.6-9,5.6-13.9,9.2l-7.4-2.4c5.8-9.3,12.6-17.4,21.4-23.4,1.8-1.5-.3-3.6-10.9-6.6,10.5-9.8,21.1-19.5,31.9-27.9h0l.5-.4,1.8-1.4.9-.7,1.8-1.3.8-.6,2.1-1.5.5-.4,2.7-1.8.4-.2,2.3-1.5.9-.5,1.9-1.1,1-.6,1.8-1,1-.6,1.8-.9,1-.5,2-1,.8-.4,2.8-1.3h.3l2.5-1,1-.4,1.9-.7,1.1-.4,1.8-.6,1.1-.3,1.8-.5,1.1-.3,2-.5,1-.2,3-.5c-.1.5-.1,1-.1,1.5v.2c0,.5,0,.9,0,1.4a13.6,13.6,0,0,0,.9,4.2c2.8-10.1,10.5-28.1,17.1-25.6,10.7,3.2,17.9,22.1,12.9,45h0l-.3,1.2,3.1,4.4.6-1,.2-.3.4-.8.2-.4.3-.8v-.4l.3-.9c2.8-8.8,2.5-22.3-.3-32.3l-.3-.9v-.5l-.3-.9-.2-.5-.3-.9v-.4l-.5-1.2c11.7-4.6,28.5-8.4,48.8-7.6l-1,.8-.3.3-.7.6-.4.4-.6.6-.4.4-.6.6-.4.4-.5.6-.4.5-.5.6-.4.5-.5.6-.4.5a59.5,59.5,0,0,0-5.3,8.1l-.3.5-.5.9c-13.1,5.1-24.3,10.5-25.3,17.2,3.7-4.4,13-2.3,19.4-3.5a36.3,36.3,0,0,0-1.7,14.6l1-2.9.4-1.3.4-1.2,1.3-3.3h0a80.1,80.1,0,0,1,7-13.7h0c8.9-13.6,20.3-19.8,33.4-20.2h2.2a57.8,57.8,0,0,1,15.2,2.4h0l2.1.6h.3l2,.7h.4l2,.7h.4l2,.8h.3a115,115,0,0,1,11.4,5.6h.3l1.9,1.1.6.3,1.8,1.1.7.5,1.7,1.1.8.5,1.7,1.1.8.6,1.7,1.2.8.6,1.8,1.2.7.5,6.1,4.6.8.6,1.6,1.2,1.1.9,1.5,1.2,1.2,1,1.4,1.2,1.2,1,1.4,1.2,1.3,1.1,1.4,1.2,1.3,1.2,1.3,1.2,1.4,1.3,1.2,1.1,1.7,1.6,1,.9,2.6,2.5,1,1,1.7,1.6,1.1,1.1,1.6,1.5,1.1,1.2,1.5,1.5,1.1,1.2,1.5,1.6,1.1,1.2,1.6,1.7,1.1,1.2,1.6,1.7,1,1.1,1.8,1.9.9,1,2.6,2.9c-1.7-3.7-3.7-7.3-5.9-11l-.9-1.5-.4-.7-.9-1.3-.5-.7-1-1.5-.4-.5-1.4-2-.3-.4-1.2-1.6-.5-.7-1-1.4-.6-.7-1.1-1.4-.5-.7-1.7-2C-14.5-90.2,41.4-107.2,99-64l4,3.6.3.3,3.6,3.5.5.5,3.4,3.4.5.6,3.2,3.4.5.6,3.1,3.5.5.5,3,3.5.3.4,2.9,3.6.2.2,2.8,3.6.4.5,2.5,3.4.6.8,2.3,3.2.7.9,2.1,3.1.8,1.1,2,2.9.9,1.4,1.3,2,1.7,2.6.4.6C159.4,13.5,171.8,34.7,191.4,45.4ZM-242-102a46.7,46.7,0,0,1,14.1,1.2,61.5,61.5,0,0,0,7,7.5,28.5,28.5,0,0,0,3.6,8.1c-5.8-3.8-13.6-6.3-22.3-8.2A27.8,27.8,0,0,0-242-102Zm-53.4,82.2c5,1,9.6-.3,13.5-4.9,2.7,5-.2,10.3-2.6,11.1C-288.8-13.2-292-16.6-295.4-19.8ZM382.1-162.6h0l-.6.5h-.1l-1.4.7h-.2l-.8.2h-5l-1.3-.3h-.2l-1.2-.3H371l-1.5-.5C267.7-215.2,252.8-103.5,129-44.9l-2.6-3.3-1-1.2-1.7-2-5-5.7C228.9-108.9,255.1-212.6,357-193.4c16.8,3.2,28.3,19.7,26.6,28h0l-.2.7h0l-.3.7h0l-.4.6h-.1Z" transform="translate(396.2 208.2)" style="fill:#050000;fill-rule:evenodd"/><path d="M-317.1-119.4c-9.7-12.4-20.8-19.1-35,3.2-2.5.6-3.3-1.1-3.3-3.9-2.3,3.2-1.6,6.9,1.4,8.2a42.1,42.1,0,0,0-4.3,8.5c6.6-9.6,21.3-10.7,34.9-13,2.8-.3,1.4-2.6-2.5-6.7Zm-27.1,3.7c1.1-7.7,10-9.5,14.2-2.5A58.4,58.4,0,0,0-344.2-115.7Z" transform="translate(396.2 208.2)" style="fill:#050000;fill-rule:evenodd"/><path d="M-354.7-125.3c1.4-6.6,6.5-11.2,14.2-14.3-4.5,4.8-9.2,9.5-14.2,14.3" transform="translate(396.2 208.2)" style="fill:#050000;fill-rule:evenodd"/><path d="M-308.6-126.1c24.2,7.5,15.8,14.2,5.4,26.9a38.3,38.3,0,0,1,1.9,9c7.6,4.4,10,11,12.3,17.6-19.7-21.9-27.4,3-25.7-37.7l2.2,5.7c7.8-15.8,19.4-11.7,3.9-21.6" transform="translate(396.2 208.2)" style="fill:#050000;fill-rule:evenodd"/><path d="M-282-152.7a49.9,49.9,0,0,0-.3-16.2,13.6,13.6,0,0,1,5.4,3,62.9,62.9,0,0,0-4.8-14.2c9.6,5,13,18.3,11.8,38-2.7-4-7-7.5-12.2-10.7" transform="translate(396.2 208.2)" style="fill:#050000;fill-rule:evenodd"/><path d="M-7.9-11.7C-27.7-22.8-23.6-51.9-37.4-70.8-15.2-58.8-14.7-28-7.9-11.7" transform="translate(396.2 208.2)" style="fill:#050000;fill-rule:evenodd"/></svg>