<svg id="Layer_1" data-name="Layer 1" xmlns="http://www.w3.org/2000/svg" viewBox="0 0 549.8 544.8"><title>Cougar_1c</title><path d="M274.7-170.6c-.6-7.8-2.3-22-10.8-25.5-17.5-19.3-39.3-30.6-63.7-38.6-1.7-8.9-11.2-20.2-16.4-26.2a16.3,16.3,0,0,0-7.4-6.2c-5.1-2.1-10.8-1.4-16-.1s-10.9,3.2-16.4,4.6a49.4,49.4,0,0,1-11.4,1.7h-.3a20.9,20.9,0,0,1-4-.1,42.2,42.2,0,0,1-10.8-3.2c-4.1-1.7-8-3.6-12.1-5.1l-2.5-.9c-11.6-3.8-21.6-2.9-32,3.5C18.9-249-28-216.6-71.5-183.9c-19.3,2.5-37.1,8.1-55.5,14.2-6.9,2.3-14,4.7-21.1,6.3-4.6,1.1-10.3,2-15,1.1l-4.8-.9v4.9a55.4,55.4,0,0,0,8.1,31,67.2,67.2,0,0,0,10.8,13.1c-24.4,27.3-48.1,55.4-70.5,84.5-19,24.7-38.7,53.7-55.2,80.1,2.3,58.5,22.4,110.9,53.9,150.9,87.7,111.3,266.7,70.3,333.4,23-19.4-18.3-31.5-45.8-37.2-73.4,10.6,6.1,23.2,9.7,34.7,4.6s17.2-17.1,19.4-29c6.8-.9,13.6-3,19.2-7,10.3-7.4,13.6-19,13-31.3l-.3-5.5L156,84.4c-7.5,2.6-18.6,6.1-26.8,3.6,2.2-37.4,7.9-121.4,34-145.2l.2-.2.2-.2A288.5,288.5,0,0,1,210.2-104a9.2,9.2,0,0,0,4.5,2,9.2,9.2,0,0,0,6.7-1.8,9.6,9.6,0,0,0,6.1,4.4,7.6,7.6,0,0,0,2.5,0c3.3,8.9,3.6,18.8,2.8,28.1l-.8,8.5,7.1-4.6c7.3-4.7,13.2-10.1,17.7-17.7,5.6-9.4,8.2-20.5,9.4-31.3h3.6l.7-3.3q.7-3.4,1.3-6.7C274.1-140.6,275.7-156.3,274.7-170.6ZM258.2-190c5.7,5.5,8.2,9.5-3.4,19.9,1.6-5.9,2.2-11.6-.1-16.3.6,8.7-2.9,13.8-6.6,18.7a63.3,63.3,0,0,1-17.3-9.6c21.5-1.4-9.4-26.3-12.1-10-7.1-4.7-11.7-9.8-14.8-15.3,18.4,3.9,31.6,8.9,46.3,13.6C254.2-187.4,256.2-188.8,258.2-190ZM110.4,74.7c13.5,15.4,4.5,17.9,5.7,35.1-2.9-.7-5.4-.7-9.1-4,5.9-4.8,7.7-12.7,6.9-20-20.9,9-25.4-11.9-39.6.4-20-50,14-84-.8-99.2,5.3,17-6.9,23.3-9,35.6.4-23.7.9-47.4,6.4-70.1,34,17.7,28.6,24.1,27.9,43.7,3.4-9.1,3.7-25.4.8-32.8C154.1-11.7,66,28,110.4,74.7ZM80.9,106.7c-4.2-9.7-4.1-15.5-1.8-18.5C89.3,85,90.9,98.3,110.6,91,102.9,107.5,85.7,114,80.9,106.7Zm73.2-11c-4.7,9.4-13.8,22.5-27.4,21.5-6-2.4-4.9-18.3-2.9-21.3C136.4,101.4,145.7,99.5,154.1,95.7Zm-48.5-207a67.9,67.9,0,0,1-1.6-15.1l47-22.2-5.5,1.2-.8.2-1.7.4-3.7.9-.8.2-1.9.5-3.5,1-2.5.8-3,.9-.5.2-2.4.8-3,1-.6.2-2.3.8-3.1,1.1-2.7,1-2.9,1.1H110l-2.6,1.1-2.8,1.2-.3.2-2.5,1.1-3,1.4-2,.9-3.1,1.5-1.9,1-4.4,2.3-1.8,1L82.4-123l-2,1.1-3.7,2.1-2.2,1.3-3.3,2-2,1.2-3.1,2-1.8,1.1-4.1,2.8L58.4-108l-2.9,2-1.8,1.3-4.2,3.1-1.8,1.3-2.9,2.2-1.8,1.4-4.2,3.3-1.5,1.2-3.1,2.5-1.8,1.5-3.3,2.8-1.7,1.4-3.6,3.2L22-79.4l-3,2.7-1.4,1.3-4.1,3.8-1.6,1.5-3,2.8L7.4-65.8l-4.1,4L1.9-60.5l-3.1,3.1-1.5,1.6-3.8,4-1.1,1.1-3.5,3.7-1.5,1.6L-15.9-42l-1,1.1L-18-39.6l-4.3,4.7,5.8-5.6h.1C10.2-66,39.2-90.1,74.4-110h0l.3-.2,3.1-1.7,1.1-.6,3.2-1.7,1.1-.6,3.4-1.7,1-.5,4.4-2.2a76.1,76.1,0,0,0,3,15.1C61.9-81.8,52.6-62.2,51.5-56.9c5.2-8.6,14.3-16.2,21.4-24.3C38.5,7.8,57.2,142.9,109.4,141.6,86.2,158.4,63,122.3,53.2,90a86.7,86.7,0,0,0,10.9,41.1c-16.1-10-36-56.4-58.1-123.7C-23.6-22.5-53.2-51.2-74.7-37.4l.3-3.7v-.4l.3-3.6v-.6l.3-3.6v-.6q.1-1.9.2-3.7v-.4c.1-2.6.3-5.3.3-7.9v-.4q.1-1.9.1-3.8v-.5q0-1.9,0-3.7c0-.2,0-.3,0-.5s0-2.5,0-3.8v-.3c0-2.6-.1-5.2-.2-7.6v-.3q-.1-1.8-.2-3.5V-87q-.1-1.7-.3-3.4v-.4c-.1-1.1-.2-2.2-.4-3.3v-.2c-.3-2.2-.6-4.4-1-6.4s-.8-3.8-1.3-5.5a556.2,556.2,0,0,1-6,74.3c-47,28.7-105.7,190.9-95.5,209.9,23-55.9,59.1-93.7,100.3-129.3-31.6,63.8-39.3,130.7-47.5,197.6-82.1-31.3-124-96-133.7-187.6,38.7-55.5,77.2-111,130.2-166.5l25.8-2.8c-24.6,0-47.1-20.1-52.9-38.3,40.2,3.6,56.4-30.6,111.6-14.9.7-3.5-1-7.7-5.3-12.4A690,690,0,0,1,77.7-252.5c20.6-10.3,31.4,4.7,58.1,2.8a47.9,47.9,0,0,0,11,2.1,14.3,14.3,0,0,0-3.1-2.8c30.4-8.3,24.8-2.8,39.4,16.4l-17.2-.9-6-14.1,1.5,14.9L148-232.2c-4.8-5.1-10.1-9.1-17.2-10.6,4.7,3,8.4,6.6,10,11.3-13.5,11.9-41-5.6-50.7-6.2-15.3-.6-24.3,7.4-31.5,17.9,9-7.7,17.9-15.8,27.9-10.2-7.4,7.7-6,17.3-6,26.6L68.8-190.7c14.3-11.2,30.1-21.2,52.4-25.8l-18.5,13.9c36.4-19.4,70.4-44.9,147.8,6.8-7.6,3-41-10.9-61.5-16.2q3,4.1,6,7.9l1.3,1.6,1.8,2.2,1.3,1.6,1.9,2.1,1.4,1.5,1.9,2.1,1.3,1.4,2,2.1,1.2,1.3,2.4,2.3,1,.9,3.4,3,.6.5,2.8,2.4,1.2,1,2.2,1.8,1.4,1,2.1,1.5,1.5,1,2.1,1.4,1.5,1,2.1,1.3,1.5.9,2.2,1.3,1.4.8,2.5,1.3,1.2.6,3.7,1.7a98.3,98.3,0,0,1-1.3,13.6C194.1-152.2,149.6-132.5,105.6-111.3Zm5.8-111.1c-7.6,4.5-13.8,2.7-24.4,12.5C90.1-232.8,97.7-226.1,111.4-222.4ZM170.5-82.1c3.5-16.3,1.5-31.5-8.1-45.2,6-3,15.3-5.3,25.3-7.5C188.2-106.1,179.6-93.6,170.5-82.1Zm30.3-32.8c-5.9-9.6-6.7-14.8-6.3-18.9,3.1,2.5,7.6,5.1,14.4,8.1A37.8,37.8,0,0,1,200.8-114.9Zm15.4,4.8c-4.2-7.1-4.2-10.5-3.6-13.3a40.9,40.9,0,0,0,8.8,3.5A33.3,33.3,0,0,1,216.2-110.2Zm13.6,1.1c-2.5-3.5-3.9-6.7-4.2-9.7a72,72,0,0,0,9.5,1.1A36.8,36.8,0,0,1,229.8-109Zm-30.6-28.9c12.3-2.6,25.9-4.6,46.8-3.2,4.6,2.8,8,6,9.6,9.8C244.9-118.3,225.5-121.8,199.2-137.9Zm41.1,20.3a55.2,55.2,0,0,0,6.1-1.6c-.5,5.2-2.2,9.1-3.9,13C239.5-111.3,236.7-111.9,240.4-117.6Zm2.6,37c-.6-7.5.7-13.9-3.4-23.4,7.9,5.5,11.1-10.2,12.1-17.2a39,39,0,0,0,6-6.6C259.4-114.9,254.8-99.3,243-80.6Zm20.3-55.6c-3.8-5.2-8.2-9.9-14.6-11.6a59.7,59.7,0,0,0,2.9-13.7c3.8-1.7,8.3-7.1,12.2-10.7C266.1-159.6,264.5-148,263.2-136.2Z" transform="translate(274.9 272.4)" style="fill:#231f20;fill-rule:evenodd"/><path d="M-145.4-141.3c25.5,15.1,47.7-30.7,74.1-2.5,11,14.9-8.6,24.1-30.7,21.1,11-2.5,18-7.1,18.7-15.8-8.7-8.7-25.1,8-42.7,4.4,2.3,5.7,10.2,6.5,17.2,9.2-14.9-.3-24-2.4-25.4-10.5-7.4-1.3-10.5-3.3-11.2-6" transform="translate(274.9 272.4)" style="fill:#231f20;fill-rule:evenodd"/><path d="M-66.1-49.6c34-39.4,122.2-100.3,227-112.7-21.2,4.6-40.1,12-58.1,18.7-.2,2,.2,3.9,0,5.9a56.1,56.1,0,0,0-10.9,4.6c-.1-2.1-.1-4.3-.2-6.4C37.8-117.8-24.7-88-66.1-49.6" transform="translate(274.9 272.4)" style="fill:#231f20;fill-rule:evenodd"/><path d="M-53.1-101.4c34.4-31.6,147.4-78.7,226.8-69.2-18.4-.3-40.7,3.2-68.2,11.9a18.8,18.8,0,0,0-.3,3.8A96.2,96.2,0,0,0,94.5-152c.1-1.4.2-2.7.4-4.1-53.3,10.2-104.2,25.4-148,54.7" transform="translate(274.9 272.4)" style="fill:#231f20;fill-rule:evenodd"/><path d="M102.6-173.3c4.3-.8,7.8-1.2,12.2-1.9,8.7-15.4,34.7-28.1,54-8.8-4-8.7-15.7-14.2-29.2-14.7,9-8.5,39.7-4.4,44.3,7.5-7.6-18.9-30.2-23.1-51.5-12.3-2.7,1.9-2,4.8-2.5,6.5-8.3,2.8-17.5,10.8-27.4,23.7" transform="translate(274.9 272.4)" style="fill:#231f20;fill-rule:evenodd"/><path d="M130.6-209.4c22.9-15.5,30.1-18.7,55.6-2.6-18.2-5.5-39.7-5.9-55.6,2.6" transform="translate(274.9 272.4)" style="fill:#231f20;fill-rule:evenodd"/><path d="M92.1,21.7C78,61.6,83.5,62,105.1,80c-13.6-17.9-15.4-29.4-13-58.2" transform="translate(274.9 272.4)" style="fill:#231f20;fill-rule:evenodd"/></svg>