<svg id="Layer_1" data-name="Layer 1" xmlns="http://www.w3.org/2000/svg" viewBox="0 0 441.5 816"><title>Cougar356_1c</title><path d="M202.4,77.1c19.7-24.8,21.6-54.7,14.9-84.9,5.5-31.4,1.8-60.1-8.4-90.1-.8-25-9.1-49.1-20.5-71.2a45.9,45.9,0,0,0,0-10.9c-4.6-36.7-52.3-64-82.3-78.1-28.3-13.3-56.8-24-87.8-28.9s-63.4-3.9-95.1-1.4c-17.7,1.4-40,1.6-57.1-3.9-6.4-2.1-17-6.7-18-14.5s9-16.2,15.3-20.1c17.9-5.8,38.9-5.7,57.4-4.2,23.4,1.9,46.9,6.3,69.9,11S38-310.1,61.9-306.2c10.6,1.7,21.3,3.2,32,3.9a141.1,141.1,0,0,0,27.9-.5h.1c15.1-2.4,30.5-7.8,42.8-17,10.3-7.7,18.7-18.3,21.1-31.2a41.8,41.8,0,0,0-2.8-24c-3.8-9.2-10.4-17-17.8-23.5a41.7,41.7,0,0,0-31.5-10.2c-9.2.9-19.4,5.4-23.1,14.4a17.6,17.6,0,0,0-1,9.7h.1c1.1,4.4,1.5,9.6-1.3,13.5-4.4,6.2-15.6,7.6-22.5,8.1-13.3.9-27.8-.6-41.1-2.2-16.5-2-32.9-5.1-49.2-8.4-18.6-3.7-37.2-7.6-56-10.2s-37.3-4-56-2.5a155.5,155.5,0,0,0-59.7,16.5c-17.3,8.1-30.9,26.8-36.4,44.8a68.7,68.7,0,0,0-2.8,15.1c-1.5,21.1,7.6,38.9,24.4,51.5,22.6,17,56,22.5,84.8,23.9-13.5,14.7-20.4,32.6-25,52.4a138,138,0,0,1-30.5,23.6c-3.4,1.9-6.9,3.6-10.2,5.5a23.1,23.1,0,0,0-7.6,6.4,16,16,0,0,0-2.5,5.8v.5c-1.3,12.5-5.7,24.8-10.7,36.2-5.8,13.1-12.6,25.7-19.2,38.4a20.4,20.4,0,0,0-2.4,5.7c-1.4,5.7-.4,12.8-.3,18.8A96.6,96.6,0,0,1-219-10.8a21.5,21.5,0,0,0-1.8,7.6c-.2,4,.8,8,1.6,11.8a117.5,117.5,0,0,1,2.4,17.1h0a21.5,21.5,0,0,0,.8,4.1,23.4,23.4,0,0,0,15,15.6c7.7,2.5,15.2.4,21.4-4.3,6.6,3.3,14.6,3.9,21,0a16.9,16.9,0,0,0,5.1-4.7c6,.3,10.7-2.5,14.1-7.4a12.1,12.1,0,0,0,6-.1c6.6-1.8,10.5-8.5,11.6-14.9a26.1,26.1,0,0,0-6.3-21.6c-1.6-1.8-3.1-3.7-4.8-5.4-4.4-4.2-9.4-5.7-15.3-6-.8-1.9-1.1-6.6-1.2-8-.3-5.7-.1-11.5.2-17.2s.7-12.3.8-18.5a86.4,86.4,0,0,0,8.8-6.9c7.6-6.6,12.8-10.2,22.6-12.2,29.4,10.6,53,5.3,72.4-19.1a121.5,121.5,0,0,0,11.5-5.9,104.1,104.1,0,0,1,11.6-5.9A64.8,64.8,0,0,1-10.3-116,102.3,102.3,0,0,0-3.8-98.6a54.1,54.1,0,0,0-6.7,20.7h-2.9a50.1,50.1,0,0,0-7.6,1c-2.8.5-5.6,1.1-8.5,1.5-9.6,1.3-19.4.8-29-.3-17.3-2.1-27.8,34-30.5,47.3a107.1,107.1,0,0,0-3,19.9c-.6,7.1-1.2,13.5-3.3,20.4-3,10.2-8.4,20-14.2,28.9l-1.1,1.8.6,2c2.8,9.5,2.7,20.5,2.2,30.4a51.2,51.2,0,0,0-2.3,7.2c-2.9,12.3-2,30.4,9.5,38.3,7,4.8,15.3,3.9,22.8.8,5.6,2.6,11.4,3.3,16.8,1.5,3.2,12.4,10.8,20.7,22.2,27.9a48.9,48.9,0,0,0,7.2,5.7c1.1.7,2.4,1.6,3.9,2.4a5.9,5.9,0,0,0-.9,1.8h0a26.1,26.1,0,0,0,3.9,21c-2,4.7-1.1,8.5,2.5,13.2s10.7,9.9,17.1,12a60.1,60.1,0,0,0,25.4,2.5,46.8,46.8,0,0,0,19.1-6.3,35.5,35.5,0,0,0,13.3-14.4c3.6-7.1,4.7-15.1,4.4-23l-.2-3.8-3.7-.6-.9-.2c-.4-1,.4-4.8.6-5.8,1.9-10.1,11.3-15.1,19.6-19.4,4-2,8.5-4.1,12.7-6.5-2,14.6.3,30.9,2.1,44.6,1.1,8.8,2.3,17.7,2.6,26.6a62.4,62.4,0,0,0-16.9,11.8c-7.4,7.1-13.6,15.6-20.5,23.3a99,99,0,0,1-29.1,22.3c-16.3,8.3-43.5,22.2-45.7,42.8-3.3,2.2-6.7,4.3-9.9,6.4a79.4,79.4,0,0,0-12.5,9.8c-9.7,9.6-13.4,21.1-12.9,34.6-4.1,18.5-.9,40.8,16.9,51.1l4.7,2.7,1.9-5.1a85.7,85.7,0,0,1,5.4-11.4,32.1,32.1,0,0,0,7.7,1.6c2.5,5.5,7,12.3,11.4,14.8l2,1.1,2.1-.9c4.5-2,8.3-6.6,10.6-11.3a33,33,0,0,0,9.2.6c2.5,4.4,6.6,9,11.1,10l1.2.3,1.1-.3c4.8-1.4,9.3-6.4,12.2-11.2a24.1,24.1,0,0,0,7.6,0,82.2,82.2,0,0,1,2.4,8.1l.7,3.5,3.5.2c10.1.5,20.6-12.2,23-21.6,7.1-8.3,9.3-21.7,8.4-32.1a55.4,55.4,0,0,0-16-35,92.2,92.2,0,0,1,13.6-4.8c9.1-2.7,18.2-5,27.1-8.5,22.2-8.6,37.7-22,43.8-45.3,7.9-2.9,17.1-7,20.7-14.9a30.9,30.9,0,0,0,2.3-10.8c.3-4.3.5-8.6,1-13,1.8-15.4,7.1-29.8,13.9-43.7,13.3-21.4,12.2-43.7,10.7-67.8C202.2,97.9,201.5,87.5,202.4,77.1ZM-92.3,111a22.7,22.7,0,0,1-4.5-21.8c.6-4.2,9-5.7,12.8-1.7-2.1,9.4-2.1,17.5,2,23.5C-85.1,112.5-89.5,112.8-92.3,111Zm35.8-2.9c-6.9,4.1-14.8,5.2-18.5-.5-5.5-9-2.2-28,9.3-24.7.6,8.7,3.6,15.7,10.8,19.4A40.3,40.3,0,0,0-56.4,108.1Zm15.8,25.7c-1.9-.9-4.9-4.8-5.5-6.2,4.2.3,7.1-1.4,9.8-3.8-4.1.2-7.9.2-11.1,0s-3.1-3.2-2.8-4.6a10.7,10.7,0,0,0,11.4.1c-5.5-.9-9.8-2.6-12.1-5.7s.9-3.8,1.9-4.9c2.5,4.3,5.7,7.2,10.8,6.9a43.2,43.2,0,0,1-7.8-9.3c.5-1.3,2.1-2.3,3.7-3.1,3.1,7.1,7.2,13.3,14.9,16.1a37.5,37.5,0,0,0,2,8.5C-29.7,127.7-34.5,129-40.6,133.8Zm5.1,3.7c.8-1.4,5.5-4.2,11.7-1,0,4.3.4,8.5.7,12.7A33.9,33.9,0,0,1-35.5,137.5Zm12.8-9.7c-1.3-4.8-1.9-9-.2-10.5,7.3-6.1,14.6-11,21.9-16.5a21.6,21.6,0,0,1,8.8,3.2c-4.3,5.1-9.6,9.3-16.8,11.1,6.5,1.9,15.7-2.3,20.9-8.3a14.9,14.9,0,0,1,3.3,2.8c-4.8,6.2-11.5,10.3-21.9,10.2,9.5,3.7,17.9,1.7,25.1-6.3a9.7,9.7,0,0,1,2.5,5.9c-7.4,5.5-15.7,6.9-24.4,5.2,6.8,4.8,14.9,5.8,24.8,1.3-3.2,4.3-6.7,8.1-12.1,8.8C-1.5,130.6-12.1,127.6-22.7,127.7ZM7.1,162.3c-2.9.2-5.4,9.2,2,18.5a12.8,12.8,0,0,1-6,.1c-6.7-3.3-7.1-14.4-4-29.8,2.7,3.6,6.2,6.4,11.4,6.8.9-11.6,5.2-20.1,10.5-23.8-.3,14.4,4.8,22.9.2,34.7C12.9,167.3,11,164.6,7.1,162.3Zm12.7,9.3c-.1,4.2-1.4,7.8-4.2,7.8-5.8-.2-8.1-8.1-7.7-11.6A22.3,22.3,0,0,0,19.8,171.7ZM-1.6,139.4c2.9-.2,6.4.5,10.5,2.4-.3,3.9-.5,7.7-.7,11.6C2.6,150.2-.9,145.7-1.6,139.4Zm-17.5,29.8a15.6,15.6,0,0,0,8.1,1.3c2.4.7,5.2,6.6,2.1,9C-15.8,179.9-19.9,172.1-19.1,169.2ZM-39.8,389c-10.2-14-9.2-34.8-1.2-39.9,3.2-2.7,7.6,3.1,8.5,11.3S-37.4,376.6-39.8,389Zm33.3-3.2c-13.7-22-7.4-37.6-1-37.7C6.7,348.2,1.8,373.7-6.6,385.9Zm33.3,0c-8.4-12.2-13.2-37.7,1-37.7C34.1,348.3,40.4,363.9,26.7,385.9ZM60,389c-2.4-12.4-8.7-19.3-7.3-28.7s5.2-14,8.5-11.3C69.2,354.2,70.2,375,60,389ZM187.4,53.8A40.5,40.5,0,0,0,168.1,38c14.8,13.9,16.2,34.4,5,52-12.7,19.9-30.7,19.9-32.3,48.7,8.5-16.7,19.9-13.9,31.3-23.7,12.3,39.8.7,42.2-4.2,61.8-1.3-9.2-3.2-18.1,1.1-29.1-22.7,33.1-4,47.4-9.4,89.7a18.2,18.2,0,0,1-6,2.1c.3-14-8.3-26.9-13.1-27.8,8.1,15.5-7.5,52.1-37.9,66.9,6-10.7,6.1-20.9,3.4-30.9-1.6,27.1-52.9,29.5-68.6,42.2-9,8.2-29.6,14-33,2.4-5.6,15.3-2.4,21.9,3.4,25.8l.8.5h.1l.8.5h0c3.8,2,8.3,3.4,12.3,5.2h.3l.5.3.4.2.5.2.4.2.4.2.5.3.5.3.5.3.3.2.4.3.3.3.4.4.3.3.4.4.2.2.6.7.2.2.4.5.2.3.3.5.2.3.3.6.2.3.3.8v.2l.3,1v.3l.2.8V338c0,.4,0,.9,0,1.3-9.3-2.4-15.4-.2-19.4,5.3-8.4-15.6-25.2-9.7-29.1-.5-3.4-10.1-12.7-15.8-23.4-12.2l1.2-1.5.4-.5.9-1,.5-.6.9-.9.6-.6.8-.9h.1c5.8-5.8,13-11.4,19.1-17.1l3.8,2.3c4.5-26,33.2-32.7,62.5-53.1s34.1-58.3,82.1-48.1c-6.9-5.2-15.4-8.9-28.6-8.2-.6-29.8-11-55.8-1.9-89.4,5.4,6.7,11.6,10.8,18.8,11.6l-2.3-2.8-.4-.5-2-2.7-.4-.5-1.8-2.6v-.2l-1.7-2.7-.3-.5-1.5-2.6-.2-.4-1.3-2.5v-.3l-1.2-2.6-.2-.4-1-2.6h0l-.9-2.5v-.3l-.7-2.5V94a50,50,0,0,1-1-5.1v-.2q-.2-1.2-.3-2.5v-.2a44.5,44.5,0,0,1-.2-4.9V81q0-1.2.1-2.4h0c1.5-18.6,15-32.5,29.3-39.3h-2.7l-1.4.2h0l-1.5.4h0l-1.7.5h0l-1.8.7h0l-2,.9h0l-2.2,1.2c.4-20.9-3.7-35.1-11.1-44.6,9.5,44-5.7,46.1-14.9,65.2A24.6,24.6,0,0,0,85,57.8c2.8,6.1,6.2,18.8,6.7,31h0v.7c0,.3,0,.6,0,.9s0,.7,0,1.1,0,.8,0,1.2,0,.9,0,1.3v6.1l-.2,1.1v.6l-.3,1.5v.2L90,105l-.2.5-.3,1-.2.6-.4.9-.3.6-.4.9-.3.5-.5.9-.3.4-.9,1.2c-7.2,10.2-25.7,12.7-36.2,23.9S37,164.6,45,171c-3.7,29.6-50.7,32.3-57.3,13.1,30.3,13,43.8-3.1,46-24.9,1.8-17.5,11.8-31.7,29.9-38.5,5-6.2,3.7-33.2-2.4-46.2,5.1,27-29.4,13.6-31.3,36.7-7.7-12.3-20.3-19-30.6-19A25.2,25.2,0,0,1,5,77.1c8.6,10.5,27.1,7.7,28.5-1.3a10.9,10.9,0,0,1-6.1,3.9c4.8-4.1,6.1-9.3,5-15.4a9.8,9.8,0,0,1,6.2,3C30.8,49.3,4.4,63-1.3,68.6a13.7,13.7,0,0,1-4.6-4.2c.1,3.8.8,6.8,3.2,8-3.1,6.9-2.8,15.2-2.5,23.4H-8.5A38.3,38.3,0,0,0-29,102.6a40.2,40.2,0,0,1-8.6-6.1C-34.3,83.6-31,80.3-27.3,75l.5-.7h.1l.6-.9h.1l.5-.8v-.2l.6-1c.8-3.3-12.9-9.3-21.7-18.8-3.9-2.2-4.8,4.6-3.4,12.6,1.3-6.6,1-8.5,3.1-5.5-.1,11,1.8,19.8,9.9,21.8a45.9,45.9,0,0,0-5.2,12.2A52.9,52.9,0,0,0-49,99.6l-1-.7h0c-8-6.1-8.6-13.2-7.7-17.7s3.5-6.5,4.7-9.1V72l.2-.5v-1a4.6,4.6,0,0,0,.1-.7h0a4.4,4.4,0,0,0-.1-.6v-.2l-.2-.6V68l-.4-.8-.8-1.4-.2-.5-.5-.9-.3-.5-.4-.8-.2-.5-.3-.8-.2-.5-.3-.7-.2-.5-.3-.7-.2-.5-.2-.7v-.5l-.2-.7v-.4l-.2-.7V53.1c0-.3,0-.6,0-.9V52a15.3,15.3,0,0,1,.3-3.1h0l.2-.9h0c1.3-4.7,5-9,11-14a15.3,15.3,0,0,0-6.5,1.9c13.9-24.3,30.5-38.1,51-38Q-9.3,5.6-8.8,12.4C2.9-9.5,38.8-12,65.9,9.8A26.4,26.4,0,0,0,57.5-1.9l-.7-.5-.5-.3-.7-.5-.5-.3-.8-.5-.4-.3-1.3-.8c-2.2-7.4,12.3-26.7,17.1-24.2,15,10.5,21,32.9,17.9,58.3,1.5,2,2.2,4.3,4.5,6.1,6.7-30.4-2.7-59.5-19.3-69.6-10-5.6-26.1,15-25.5,27.8C32.2-13,17.7-13.6,3.7-5.9,2.5-7.1.8-7.9-2.2-7.8c13.4-17,29-29.4,47.2-35.8h.2c-22.6.3-41.4,10.8-56.8,31.3C-20.6-25.2-35.8-28.5-40-26.5c-5.8,3.7-7.8,11.3-9.7,20.2-4.1-15.5-12-30.6-5-47.4C-71.6-31.7-64.2,2.2-73.9,27.2s-16.2,10.4-10.7,46a22.8,22.8,0,0,0-9.3,1.4,178.7,178.7,0,0,0-1.7-28.4l2.1-2.7.7-.9,1.3-1.8.7-1.2,1-1.6.7-1.3.9-1.6.7-1.3.7-1.5.6-1.4.7-1.5L-85,28l.6-1.5.5-1.5.5-1.5.5-1.5.4-1.5.4-1.6.4-1.5.4-1.6.3-1.5.3-1.7.3-1.5.3-1.7.3-1.4.3-1.8.2-1.4.3-1.9.2-1.3.3-2C-76-18.3-74.4-38-64.1-59c18.8-5.7,10.8,2.9,51.5-4.6a75.5,75.5,0,0,0-7.5,8.1l-1.5,2-.2.3L-23.4-51l-.3.5-1.2,1.8-.3.4L-26.4-46l-.2.5-.9,1.8-.3.5-1,2.2v.3l-.8,1.9-.2.6-.8,2.1,1-1.6.3-.5.7-1.1.4-.6.7-1,.4-.6.8-1,.4-.5,1.3-1.4.2-.2,1.2-1.2.5-.5.9-.9.6-.6.9-.8.7-.6.9-.8.7-.6,1.2-1,1-.7,1-.8.8-.6.9-.6.9-.6.9-.6.9-.6.2-.2h0C1.7-63.6,16-68.2,27.3-67.4a38.8,38.8,0,0,0-5.8,8.8v.3l-.2.5v.3l-.2.7v.2l-.2.8v2c0,.3,0,.5,0,.8l1.4-1.7.6-.7.9-1,.8-.8.7-.7.9-.9.6-.6h0c6.6-6.2,14-11.2,19.9-15.5,9.2-6.9,27.1,2.6,36.1,4.7a30.8,30.8,0,0,0-8.7-8.7h0l-2.8-1.8h0l-2-1.1h-.1l-1-.5h0l-1.1-.5h0l-1-.4h-.1L63-84h-.2l-1-.3h-.2l-1.1-.3h-.1l-1-.2h-.2L58.2-85H51.8l-1.1.2h-.3l-.9.2h-.3l-1.2.3h-.1l-1,.3h-.3l-.9.4h-.2l-1.1.5-.3.2-.9.5-.3.2-1.1.7h-.1l-1.1.7-.3.2-.9.7-.3.2-1.1.9-.3.2-.9.8-.3.3L35-75.8c-9.8-3.3-20.4-2.1-31.5,2.6,2.4-13.8,5.9-19,11.4-28.8,8.2-14.7,3.7-29.7,15.9-47.8-9.3,9.9-18.2,20.4-23.3,39.1-13.5-28.5-9.4-80.5.3-93.8-14.2,17.3-19.4,42.2-17,73.6a58.9,58.9,0,0,0-29.3,11.8,162.1,162.1,0,0,1,16.1-19.8c-39,16.5-36.6,62.3-91.6,43.2-11.4-8.2-25.4-6.7-34.2-24.5.9,8.7,7,17.9,19.5,27.8-26,6.8-22.7,27.3-56.4,26.7a35.4,35.4,0,0,1-2.9-4.4c-1,7,12.5,22.2,23.7,26.2-1.2,22.2,3.5,37.6,15,37.4,14.7-.1,21.3,20.2,10.4,23.1,3-17.3-16.3-25.1-20.4-19.6,16.2,2.6,16.5,23.4,5.9,28.4,2.9-27.4-21-28.8-21-21.4,19.9-3.8,18.1,34.1-2.3,25.2,4-22.2-13.6-31.7-16.3-23.8l1.3.5.4.2.8.4.4.3.7.5.4.3.6.5.4.4.5.5.3.4.5.6.3.4.4.6.3.5.3.6.2.5.3.6.2.5.2.6.2.6.2.6V18c0,.2,0,.4,0,.7s0,.4,0,.6,0,.5,0,.7,0,.4,0,.5v2.4l-.2.7V24l-.2.7v.4l-.3.7v.3l-.4.7-.2.3-.4.7-.2.3-.5.6-.2.2-.5.6-.2.2-.6.5-.2.2-.6.4-.3.2-.7.3h-.3l-.7.2h-.3l-.7.2h-4.2c-10.4-2.8-6.2-24.1-9.3-36.2,2.8-5.2,6.8-25.4,5.1-38.6-3.1-23.7,23.6-39.3,30.7-87.3,2.1-14.1,6-3.5,37-32.3a42,42,0,0,1-7,15.6c35.5-2.9,3.3-65.6,89.9-112-3.9,1.1-7.7,2.4-11.5,3.9l-4.6,1.9-.7.3-3.9,1.8-1.4.7-3.3,1.6-1.3.7-4.5,2.3-10.4-1-2.1-.2-3.8-.4-2.2-.2-5.1-.6h-.6l-5.1-.6h-.4l-4.9-.6h-.5l-4.7-.6h-.4l-4.6-.6h-.4l-4.5-.7h-.3l-4.2-.7h-.4l-3.8-.7h-.6l-3.7-.7h-.5l-3.5-.7h-.6l-3.3-.8h-.6l-3.1-.8-.6-.2-2.9-.8-.6-.2-2.7-.9-.6-.2-2.6-.9-.6-.2-2.4-.9-.6-.2-2.3-1-.6-.3-2.1-1-.6-.3-2-1.1-.6-.3-1.8-1.1-.5-.3-1.7-1.2-.5-.4-1.6-1.2-.5-.4-1.4-1.3-.5-.4-1.3-1.3-.5-.5-1.2-1.4-.4-.5-1.1-1.4-.4-.5-1-1.5-.4-.6-.9-1.6-.3-.6-.8-1.6-.3-.6h0v-.2c-11.4-26.7-4.4-49,16-66.2,76.3-58.1,186,16.3,284.4-.4,35.6-6,5.5-39.4,23.5-43,15.7-4,36.4,9.6,40.8,27.7h0l.2,1v.2l.2,1v1.4a29.1,29.1,0,0,1,.2,3.2c0,.1,0,.2,0,.3s0,.6,0,.9v4.2l-.4,1.7v.6l-.2.7-.2.6-.2.7-.2.7-.3.7-.3.7-.3.6-.6,1.2-.3.6-.5.9-.3.6-.5.8-.4.6-.5.8-.4.6-.6.9-.4.5-1.1,1.3-.2.2-1,1.1-.5.5-.8.9-.5.5-.9.8-.5.5-1,.9-.5.4-1.6,1.3c-67,36.9-136-11.3-249.4-14h-14l-3,.2h-.9l-2,.2h-1l-2,.2h-.9l-2.5.3h-.2l-2.6.4h-.7l-1.8.3-.8.2-1.7.4-.7.2-2.1.5h-.2l-2.3.6-.5.2-1.7.5-.7.2-1.5.5-.6.2-1.9.7h-.2l-2,.8-.4.2-1.5.7-.5.2-1.3.7-.4.2-1.6.9h-.1l-1.7,1h-.2l-1.3.9-.4.2-1.2.8-.3.2-1.3,1h0l-1.4,1.1h-.1l-1.1,1-.2.2-.9.9-.2.2-1,1.1h0l-1.9,2.5v.2l-.7,1.1v.2l-.7,1.2h0c-4.7,8.6-4,18.3,1.5,27,21.9,34.7,137.7.8,199.6,21.1,43.7,14.4,84.2,32.5,109.5,53.2h0l5.1,4.4h.1l4.6,4.4.2.2q2.1,2.2,4,4.4l.2.3q1.8,2.2,3.4,4.5l.2.3,1.4,2,.2.2L168-195l.2.3,1,1.9.2.4,1,2.2v.3l.8,1.9.2.5.8,2.2v.2l.5,2v.6c.2.7.3,1.5.5,2.2-9.1-9.5-18.4-19-32.3-27.6,26.3,25.2,41.7,55.6,50.3,89.2a138.8,138.8,0,0,0-19.5-19c24.4,34.5,35.3,72.4,33.4,113.3-8.5-14.4-19.6-25-33.7-31.8C211.2-18,213.5,18.5,187.4,53.8ZM8.2,69.4c5.1-3.8,12-5,19.3-5.5C27.2,78.5,10.4,75.1,8.2,69.4Zm-51.9-7c3.9,3.4,8.2,6.8,13,10.3C-34.6,80.9-42.2,71.3-43.7,62.4ZM-26.2-2.1A112.2,112.2,0,0,0-42.3,10.6l-2,2h-.1a103,103,0,0,1,.3-10.8c.6-7.3,1.8-14.9,3.9-19.3l.4-.7.8-1.2.8-.9c2.2-1,5.9-.5,10.2,1.7s9.2,6.2,13.8,12.2a22.4,22.4,0,0,0-6.4,1.7C-24-11.5-32.5-15.8-36.2-16.3A112,112,0,0,1-26.2-2.1Z" transform="translate(220.7 409)" style="fill:#050000;fill-rule:evenodd"/><path d="M-10.7,56.9C-7.1,45.5,2.4,39.2,18.4,38.4,13.4,44.4,3.5,45-10.7,56.9" transform="translate(220.7 409)" style="fill:#050000;fill-rule:evenodd"/><path d="M-27.1,54.5C-25.6,43.6-32,38.4-42.4,35c5.8,5.3,7.6,10.5,15.3,19.5" transform="translate(220.7 409)" style="fill:#050000;fill-rule:evenodd"/><path d="M48.9,61.3c3.6-9.2,4.6-17.9,2.2-26.1,5.7,5.9,7.9,17.1,6.9,33.1-2.3-3.2-4.5-6.4-9-6.9" transform="translate(220.7 409)" style="fill:#050000;fill-rule:evenodd"/><path d="M72.1,12.6A126.4,126.4,0,0,0,67.9-8.3a41.3,41.3,0,0,1,6.9,4.5c-1.3-6.4-3.9-12-6.7-17.4C76.3-16.1,82.2-7.3,83.3,9.1A17.4,17.4,0,0,0,77,4a60.9,60.9,0,0,1,3.4,16.1,25,25,0,0,0-8.3-7.6" transform="translate(220.7 409)" style="fill:#050000;fill-rule:evenodd"/><path d="M115.4-221c36.7,34.7,29.1,108-6.2,152.8-5.6,5.3-8.6,8.2-11.5,13.6C117-71.9,137.3-71.8,158-63.7c-2.4-7.3-10.6-12.7-34.4-12.7,35.5-59.4,30.5-120-8.2-144.6" transform="translate(220.7 409)" style="fill:#050000;fill-rule:evenodd"/><path d="M-89.4-100.1c-21.4-9-2.8-51.2,13.9-71.5-8.2,6-16.1,12.1-20.6,19.6.9-16.6,8.8-31.5,19.5-45.7-15.7,6.3-36.7,40-28.6,60.1-10,31.1-3.4,42,15.9,37.4" transform="translate(220.7 409)" style="fill:#050000;fill-rule:evenodd"/><path d="M-14.8,71c-1.6-3.3-4.6-2.1-4.8-9.8-1.4.6-2.1,8.8,0,11.8a2.7,2.7,0,0,0,4.9-2" transform="translate(220.7 409)" style="fill:#050000;fill-rule:evenodd"/><path d="M19,62.8a3.8,3.8,0,1,1-3.8,3.8A3.8,3.8,0,0,1,19,62.8" transform="translate(220.7 409)" style="fill:#050000;fill-rule:evenodd"/><path d="M-34.6,65.3a3.8,3.8,0,0,1,3.8,3.8,3.8,3.8,0,0,1-3.8,3.8,3.8,3.8,0,0,1-3.8-3.8,3.8,3.8,0,0,1,3.8-3.8" transform="translate(220.7 409)" style="fill:#050000;fill-rule:evenodd"/></svg>