<svg id="Layer_1" data-name="Layer 1" xmlns="http://www.w3.org/2000/svg" viewBox="0 0 565.5 560.3"><title>Cougar_3c</title><path d="M272.9-108.6c-1.6,9.6-4.5,19.1-9.5,27.5s-11.8,14.9-20.1,20.2L222.8-47.6,225-72a63.8,63.8,0,0,0-1-20.3,15.8,15.8,0,0,1-4.4-2.3,16.1,16.1,0,0,1-5.9.3l-2.5-.5a284,284,0,0,0-41.5,42.1l-.6.7-.7.6c-22.3,20.4-28.7,96.1-31,132.4,5.5-.4,11.9-2.5,16-3.9l15-5.3.9,15.9c.8,14.9-3.7,29-16.2,38a47.1,47.1,0,0,1-17.3,7.5c-3.4,12.5-10.3,23.9-22.7,29.4-8.7,3.9-17.8,3.8-26.6,1.5,6,20.3,16.1,40.2,31.2,54.5l6.9,6.5-7.7,5.5C92.2,248,60,260.5,31,268.3-5.5,278-44.7,282.4-82.4,279.1c-56.9-5-108.7-27.3-144.7-73s-53.3-99.4-55.5-155.4V48.2l1.3-2c17.3-27.6,35.8-54.9,55.6-80.7,21-27.3,43.2-53.8,66.1-79.6a67.9,67.9,0,0,1-6.8-9.2,63.5,63.5,0,0,1-9.3-35.3l.4-14,13.7,2.6c3.5.7,8.4-.3,11.8-1.1,6.9-1.6,13.7-3.9,20.4-6.1,18.1-5.9,36-11.5,54.9-14.2,43.6-32.7,90.2-64.5,142.1-82.4,12.1-7.2,24.3-8.2,37.8-3.8l2.7,1c4.2,1.6,8.2,3.5,12.4,5.2a35.1,35.1,0,0,0,8.8,2.7h3.2a41.8,41.8,0,0,0,9.6-1.5c5.6-1.4,11-3.3,16.6-4.6s14-2.2,20.7.5a23.9,23.9,0,0,1,10.6,8.6c5.9,6.8,13.3,15.9,16.6,24.9,23.7,8.1,44.9,19.7,62.1,38.3,10.5,5.7,13.1,20.4,13.8,31.3,1.1,15.1-.5,31.1-3.1,46q-.6,3.5-1.3,6.9l-1.9,9.6Z" transform="translate(282.8 280.2)" style="fill:#fff;fill-rule:evenodd"/><path d="M266.2-116.4c-1.2,10.8-3.8,22-9.4,31.3-4.5,7.6-10.3,12.9-17.7,17.7L232-62.8l.8-8.5c.8-9.3.5-19.2-2.8-28.1a7.6,7.6,0,0,1-2.5,0,9.6,9.6,0,0,1-6.1-4.4,9.2,9.2,0,0,1-6.7,1.8,9.2,9.2,0,0,1-4.5-2,288.5,288.5,0,0,0-46.6,46.3l-.2.2-.2.2C137.2-33.4,131.5,50.6,129.2,88c8.3,2.4,19.4-1,26.8-3.6l5.2-1.8.3,5.5c.7,12.3-2.7,23.9-13,31.3-5.6,4-12.4,6.1-19.2,7-2.2,11.9-7.8,23.9-19.4,29s-24.1,1.5-34.7-4.6c5.7,27.6,17.7,55,37.2,73.4-66.7,47.3-245.6,88.4-333.4-23-31.5-40-51.6-92.4-53.9-150.9,16.5-26.4,36.2-55.4,55.2-80.1,22.3-29.1,46-57.2,70.5-84.5A67.2,67.2,0,0,1-160-127.4a55.4,55.4,0,0,1-8.1-31v-4.9l4.8.9c4.7.9,10.4-.1,15-1.1,7.1-1.6,14.2-4,21.1-6.3,18.4-6.1,36.2-11.7,55.5-14.2C-28-216.6,18.9-249,70.8-266.7c10.4-6.4,20.5-7.3,32-3.5l2.5.9c4.1,1.5,8.1,3.4,12.1,5.1a42.2,42.2,0,0,0,10.8,3.2,20.9,20.9,0,0,0,4,.1h.3a49.4,49.4,0,0,0,11.4-1.7c5.5-1.4,10.9-3.3,16.4-4.6s10.9-1.9,16,.1a16.3,16.3,0,0,1,7.4,6.2c5.2,6,14.7,17.2,16.4,26.2,24.4,7.9,46.2,19.2,63.7,38.6,8.5,3.5,10.3,17.7,10.8,25.5,1,14.3-.5,30-3,44.2q-.6,3.4-1.3,6.7l-.7,3.3h-3.6" transform="translate(282.8 280.2)" style="fill:#231f20;fill-rule:evenodd"/><path d="M183.1-234l-17.2-.9-6-14.1,1.5,14.9L148-232.2c-4.8-5.1-10.1-9.1-17.2-10.6,4.7,3,8.4,6.6,10,11.3-13.5,11.9-41-5.6-50.7-6.2-15.3-.6-24.3,7.4-31.5,17.9,9-7.7,17.9-15.8,27.9-10.2-7.4,7.7-6,17.3-6,26.6L68.8-190.7c14.3-11.2,30.1-21.2,52.4-25.8l-18.5,13.9c36.4-19.4,70.4-44.9,147.8,6.8-7.6,3-41-10.9-61.5-16.2,17,23.4,35.9,40.1,56.9,49.4a98.4,98.4,0,0,1-1.3,13.6c-50.6-3.1-95.1,16.5-139.1,37.7a67.9,67.9,0,0,1-1.6-15.1l47-22.2C85.4-135.7,29.3-92.6-22.3-34.9,10.2-66.6,46-96.6,92.1-119.3a76.1,76.1,0,0,0,3,15.1C61.9-81.8,52.6-62.2,51.5-56.9c5.2-8.6,14.3-16.2,21.4-24.3C38.5,7.8,57.2,142.9,109.4,141.6,86.2,158.4,63,122.3,53.2,90a86.7,86.7,0,0,0,10.9,41.1c-16.1-10-36-56.4-58.1-123.7C-23.6-22.5-53.2-51.2-74.7-37.4c2.3-23.6,2.8-52.4-1.8-68.8a556.2,556.2,0,0,1-6,74.3c-47,28.7-105.7,190.9-95.5,209.9,23-55.9,59.1-93.7,100.3-129.3-31.6,63.8-39.3,130.7-47.5,197.6-82.1-31.3-124-96-133.7-187.6,38.7-55.5,77.2-111,130.2-166.5l25.8-2.8c-24.6,0-47.1-20.1-52.9-38.3,40.2,3.6,56.4-30.6,111.6-14.9.7-3.5-1-7.7-5.3-12.4A690,690,0,0,1,77.7-252.5c20.6-10.3,31.4,4.7,58.1,2.8a47.9,47.9,0,0,0,11,2.1,14.3,14.3,0,0,0-3.1-2.8c30.4-8.3,24.8-2.8,39.4,16.4" transform="translate(282.8 280.2)" style="fill:#d2ab67;fill-rule:evenodd"/><path d="M-16.9-40.9l-5.4,6,5.9-5.7A296.4,296.4,0,0,1,11.5-18.3L27.1-42.9,11.5-33.3l18-30C39.5-80.1,59.1-97.7,74.4-110q8.6-4.9,17.7-9.4a76.1,76.1,0,0,0,3,15.1C61.9-81.8,52.6-62.2,51.5-56.9c5.2-8.6,14.3-16.2,21.4-24.3C38.5,7.8,57.2,142.9,109.4,141.6,86.2,158.4,63,122.3,53.2,90a86.7,86.7,0,0,0,10.9,41.1c-16.1-10-36-56.4-58.1-123.7C-23.6-22.5-53.2-51.2-74.7-37.4c2.1-21.2,2.7-46.6-.5-63.5,1.5,1.8,5.3,7,7.8,16.2a129.9,129.9,0,0,1,3.9,25.1s11.4,3,28.8,9c5.3,1.8,11.6,5.5,17.9,9.8M194.7-204.7c15.5,19.6,32.6,33.8,51.4,42.1a98.4,98.4,0,0,1-1.3,13.6c-50.6-3.1-95.1,16.5-139.1,37.7a67.9,67.9,0,0,1-1.6-15.1l47-22.2a227.6,227.6,0,0,0-55.3,18.7,150.9,150.9,0,0,1,3-29.9c3.6-16.2,31.2-31.5,31.2-31.5l4.2-4.2c3.3-3.3,10.8-7.8,10.8-7.8s11.4-5.1,30.6-4.8A63.9,63.9,0,0,1,194.7-204.7Z" transform="translate(282.8 280.2)" style="fill:#fff;fill-rule:evenodd"/><path d="M151-148.7C85.7-135.8,29.8-93-21.5-35.8c2.5-2.8,10.3-11.8,18.6-23,10-13.6,65.4-60.8,96.2-75S151-148.7,151-148.7" transform="translate(282.8 280.2)" style="fill:#fff;fill-rule:evenodd"/><path d="M137.7-157S77-142.9,39.5-122.7-22.9-85.6-22.9-85.6-40.2-72.8-48.9-65.8A192.6,192.6,0,0,0-66.1-49.6s30.9-43.7,90.8-74.6,107.4-36.9,115.7-37.6,20.5-.5,20.5-.5-18.6,2.7-23.2,5.3" transform="translate(282.8 280.2)" style="fill:#fff;fill-rule:evenodd"/><path d="M93.6-162.4,30-143.5l-44,18.2-22.8,12.7-16.3,11.3C-24.4-133,44.2-157.8,87-169.7c25.4-7.1,62.5-10.3,85.8-.9,0,0-42-3.5-79.2,8.2" transform="translate(282.8 280.2)" style="fill:#fff;fill-rule:evenodd"/><path d="M70.8-47.4c34,17.7,28.6,24.1,27.9,43.7,3.4-9.1,3.7-25.4.8-32.8C154.1-11.7,66,28,110.4,74.7c13.5,15.4,4.5,17.9,5.7,35.1-2.9-.7-5.4-.7-9.1-4,5.9-4.8,7.7-12.8,6.9-20-20.9,9-25.4-11.9-39.6.4-20-50,14-84-.8-99.2,5.3,17-6.9,23.3-9,35.6.4-23.7.9-47.4,6.4-70.1" transform="translate(282.8 280.2)" style="fill:#fff;fill-rule:evenodd"/><path d="M203.9-202.6c18.4,3.9,31.6,8.9,46.3,13.6,4,1.7,6,.2,8-.9,5.7,5.5,8.2,9.5-3.4,19.9,1.6-5.9,2.2-11.6-.1-16.3.6,8.7-2.9,13.8-6.6,18.7a63.3,63.3,0,0,1-17.3-9.6c21.5-1.4-9.4-26.3-12.1-10-7.1-4.7-11.7-9.8-14.8-15.3" transform="translate(282.8 280.2)" style="fill:#d2ab67;fill-rule:evenodd"/><path d="M251.5-161.5c3.8-1.7,8.3-7.1,12.2-10.7,2.4,12.6.8,24.1-.5,35.9-3.8-5.2-8.2-9.9-14.6-11.6a59.7,59.7,0,0,0,2.9-13.7" transform="translate(282.8 280.2)" style="fill:#fff;fill-rule:evenodd"/><path d="M199.2-137.9c12.3-2.6,25.9-4.6,46.7-3.2,4.6,2.8,8,6,9.6,9.8-10.6,13-30.1,9.5-56.4-6.6" transform="translate(282.8 280.2)" style="fill:#fff;fill-rule:evenodd"/><path d="M251.6-121.1a39,39,0,0,0,6-6.6c1.7,12.9-2.9,28.5-14.7,47.1-.6-7.5.7-13.9-3.4-23.4,7.9,5.5,11.1-10.2,12.1-17.2" transform="translate(282.8 280.2)" style="fill:#fff;fill-rule:evenodd"/><path d="M162.4-127.4c6-3,15.3-5.3,25.3-7.5.5,28.7-8,41.3-17.2,52.8,3.5-16.3,1.5-31.5-8.1-45.2" transform="translate(282.8 280.2)" style="fill:#fff;fill-rule:evenodd"/><path d="M194.5-133.8c3.1,2.5,7.6,5.1,14.4,8.1a37.8,37.8,0,0,1-8.1,10.7c-5.9-9.6-6.7-14.8-6.3-18.9" transform="translate(282.8 280.2)" style="fill:#fff;fill-rule:evenodd"/><path d="M212.7-123.4a40.9,40.9,0,0,0,8.8,3.5,33.3,33.3,0,0,1-5.2,9.8c-4.2-7.1-4.2-10.5-3.6-13.3" transform="translate(282.8 280.2)" style="fill:#fff;fill-rule:evenodd"/><path d="M225.6-118.7a72,72,0,0,0,9.5,1.1,36.8,36.8,0,0,1-5.3,8.6c-2.5-3.5-3.9-6.7-4.2-9.7" transform="translate(282.8 280.2)" style="fill:#fff;fill-rule:evenodd"/><path d="M240.4-117.6a55.2,55.2,0,0,0,6.1-1.6c-.5,5.2-2.2,9.1-3.9,13-3.1-5.1-5.9-5.7-2.3-11.4" transform="translate(282.8 280.2)" style="fill:#fff;fill-rule:evenodd"/><path d="M111.4-222.4c-13.7-3.6-21.3-10.4-24.4,12.5,10.6-9.9,16.8-8,24.4-12.5" transform="translate(282.8 280.2)" style="fill:#fff;fill-rule:evenodd"/><path d="M-145.4-141.3c25.5,15.1,47.7-30.7,74.1-2.5,11,14.9-8.6,24.1-30.7,21.1,11-2.5,18-7.1,18.7-15.8-8.7-8.7-25.1,8-42.7,4.4,2.3,5.7,10.2,6.5,17.2,9.2-14.9-.3-24-2.4-25.4-10.5-7.4-1.3-10.5-3.3-11.2-6" transform="translate(282.8 280.2)" style="fill:#231f20;fill-rule:evenodd"/><path d="M-66.1-49.6c34-39.4,122.2-100.3,227-112.7-21.2,4.6-40.1,12-58.1,18.7-.2,2,.2,3.9,0,5.9a56.1,56.1,0,0,0-10.9,4.6c-.1-2.1-.1-4.3-.2-6.4C37.8-117.8-24.7-88-66.1-49.6" transform="translate(282.8 280.2)" style="fill:#231f20;fill-rule:evenodd"/><path d="M-53.1-101.4c34.4-31.6,147.4-78.7,226.8-69.2-18.4-.3-40.7,3.2-68.2,11.9a18.8,18.8,0,0,0-.3,3.8A96.2,96.2,0,0,0,94.5-152c.1-1.4.2-2.7.4-4.1-53.3,10.2-104.2,25.4-148,54.7" transform="translate(282.8 280.2)" style="fill:#231f20;fill-rule:evenodd"/><path d="M102.6-173.3c4.3-.8,7.8-1.2,12.2-1.9,8.7-15.4,34.7-28.1,54-8.8-4-8.7-15.7-14.2-29.2-14.7,9-8.5,39.7-4.4,44.3,7.5-7.6-18.9-30.2-23.1-51.5-12.3-2.7,1.9-2,4.8-2.5,6.5-8.3,2.8-17.5,10.8-27.4,23.7" transform="translate(282.8 280.2)" style="fill:#231f20;fill-rule:evenodd"/><path d="M130.6-209.4c22.9-15.5,30.1-18.7,55.6-2.6-18.2-5.5-39.7-5.9-55.6,2.6" transform="translate(282.8 280.2)" style="fill:#231f20;fill-rule:evenodd"/><path d="M123.8,95.9c-2,3-3.1,18.9,2.9,21.3,13.6,1,22.7-12.1,27.4-21.5-8.4,3.8-17.7,5.7-30.3.2" transform="translate(282.8 280.2)" style="fill:#fff;fill-rule:evenodd"/><path d="M79.1,88.2C89.3,85,90.9,98.3,110.6,91c-7.7,16.5-24.9,23-29.7,15.6-4.2-9.7-4.1-15.5-1.8-18.5" transform="translate(282.8 280.2)" style="fill:#fff;fill-rule:evenodd"/><path d="M92.1,21.7C78,61.6,83.5,62,105.1,80c-13.6-17.9-15.4-29.4-13-58.2" transform="translate(282.8 280.2)" style="fill:#231f20;fill-rule:evenodd"/></svg>