<svg xmlns="http://www.w3.org/2000/svg" viewBox="0 0 386.89 356.03"><defs><style>.a{fill:#72482c;}.b{fill:#b37a3c;}.c{fill:#ed1c24;}</style></defs><title>Cowboy619_4c</title><path d="M312.64,274.25c-20.33,18.67-43,34.66-63,47.22C330.67,257.09,349.06,156,349.06,156L322.1,122l-29.21,14.19v8.16l-8.16.71-6-14.54L273,132.59l-1.77,5S261,124.79,258.84,124.08s-13.13,10.64-13.13,10.64V121.24s25.19-22,43.28-44,24.48-33,24.48-33-10.29-6-16.32-6-17.74,11-34.76,18.45-24.12,9.22-24.12,9.22-6-17.74-9.22-27.31S212.37,18,212.37,18l-18.8,16L167,20.14s-7.45,6.39-9.93,12.42-8.51,42.21-8.51,42.21-12.77-.35-33.34-11.71S91,43.91,87.86,42.85s-14.19,7.09-14.19,7.09,6,18.8,26.25,40.44,36.54,30.51,36.54,30.51a50.61,50.61,0,0,0,2.13,13.48c2.13,6.74,3.55,13.83,3.55,13.83s-1.77-2.84-3.9-3.55-4.61,1.42-4.61,1.42-2.13-10.29-8.87-13.48-20.22-5-20.22-5,6,6.74,9.22,11.35,3.55,7.09,3.55,7.09a95.26,95.26,0,0,1-12.06-4.61,113.57,113.57,0,0,1-12.42-7.09s2.84,9.22,12.42,18.8,22.7,8.16,22.7,8.16.71,3.19-2.48,7.45-4.61,5.32-4.61,5.32S101.34,164.16,87.5,150a198.87,198.87,0,0,1-22.7-28L37.84,156s18.38,101.09,99.43,165.47c-20-12.56-42.68-28.56-63-47.22C22.23,226.48,0,157,0,157s11.82,73.78,75.68,134.8S193.45,374,193.45,374V354.66h0V374s53.92-21.28,117.77-82.3S386.89,157,386.89,157s-22.23,69.53-74.26,117.3Z" transform="translate(0 -18.01)"/><path class="a" d="M167.43,31.14S175,47,183.75,52.19s8.51,4.26,9,8.75S195.81,108,195.81,108a108.46,108.46,0,0,0,28.85-16.79c13.72-11.35,13.72-13.48,13.72-13.48S227,56,224.66,45.09s-11.59-18.21-13.24-18.68S193,41.07,193,41.07l11.82-3.31S196,41.31,196,43.2s5,6.39,5,6.39S191.79,43.44,182.1,38s-14.66-6.86-14.66-6.86Z" transform="translate(0 -18.01)"/><path class="a" d="M236.73,94.76c.24-.71,3.78-10.88,3.78-10.88S265.81,68,278.58,57.63s18-13.24,22.23-12.77,4.73,1.66,4.73,1.66a593.76,593.76,0,0,1-57.47,57.94c-31.93,27.67-54.63,38.07-54.63,38.07s-32.16-13-52.26-28.14-27-25.54-27-25.54,34.05,25.07,57.23,32.64L194.63,129s36.89-20.34,61-44.22l24.12-23.89s-25.54,21.52-32.87,27.2-10.17,6.62-10.17,6.62Z" transform="translate(0 -18.01)"/><path class="b" d="M156.32,94.52s11.82,8.28,19.87,11.82a97,97,0,0,0,18.21,5.44,136.31,136.31,0,0,0,21.76-10.64c11.82-7.09,17-12.06,17-12.06A104.81,104.81,0,0,1,210.71,113c-14.19,10.88-16.08,12.3-16.08,12.3V115.8l-3.55,4s-8-2.6-18-9.93a111.51,111.51,0,0,1-16.79-15.37Z" transform="translate(0 -18.01)"/><path class="b" d="M160.22,141.82a84,84,0,0,0,9.58,6.39c3.55,1.77,7.63,3.55,7.63,3.55l-6.74,6.56a40.63,40.63,0,0,1-8.87-4.61,30.23,30.23,0,0,1-4.61-3.72,17.79,17.79,0,0,1,.35-4.79,8.35,8.35,0,0,1,2.66-3.37Z" transform="translate(0 -18.01)"/><path class="b" d="M194.45,146.78s4.61,1.6,6.92,2.66l2.31,1.06-2.13,2.66h4.61s8.34-6.56,17.2-13.13,15.25-8,15.25-8a72.78,72.78,0,0,1-11.17,17.38,89.67,89.67,0,0,1-14.72,13.83s8.51-4.26,14-9.22,9.93-5.85,9.93-5.85l-41.09,34.17a5.09,5.09,0,0,1,1.18-4c1.6-1.77,3.9-2.84,7.09-9s3-8,3-8-3.9,5.68-7.45,7.8-5.5,2.31-5.5,2.31l.53-24.65Z" transform="translate(0 -18.01)"/><path class="c" d="M243.35,147.61l-49.43,41.92,4.41,27.74-11.51-5s2.81,6.22,7.16,14.82a114.47,114.47,0,0,1,5.37,11.56L216,218.45s-6.91,14.23-9.72,22.23A62.72,62.72,0,0,0,202.94,254S217,234.76,226.72,214.6s12-31.72,12-31.72-10,10.67-20.2,18.08-12.79,8.3-12.79,8.3L240.53,177l2.81-11-11.25,12.45s8.18-10.08,9.72-18.08A78.45,78.45,0,0,0,243.35,147" transform="translate(0 -18.01)"/><path class="a" d="M115.17,200.7s16,34.41,52.86,64.21,53.92,35.83,53.92,35.83a82,82,0,0,1-11,13.12c-6.39,6-10.29,9.22-10.29,9.22S176.18,305.7,162,289.74a113.7,113.7,0,0,1-20.22-32.28s2.48,16,14.19,35.83,33.7,39.38,33.7,39.38-31.57-22-52.5-60.66-22-71.3-22-71.3Z" transform="translate(0 -18.01)"/><path class="a" d="M278,138.27s-8.87,51.08-28,85.49a286.86,286.86,0,0,1-42.21,57.47l16.67,14.19s42.21-47.89,51.08-93.65,2.48-63.5,2.48-63.5Z" transform="translate(0 -18.01)"/><path class="a" d="M64.09,134.72l9.58,9.22s15.25,68.46,42.21,112.45,70.24,81.94,70.24,81.94l-6.74,4.61s-62.08-41.86-90.1-99S53.8,147.85,53.8,147.85l10.29-13.13Z" transform="translate(0 -18.01)"/><path class="a" d="M323.4,132.24l17,22.7s-9.93,57.11-53.56,116S193.57,350,193.57,350s66-47.53,90.81-93.29,27-57.11,27-57.11-18.45,38.67-45.41,73.07-78,74.85-78,74.85l-5-2.48s44.34-29.09,87.26-98.62S323.4,132.24,323.4,132.24Z" transform="translate(0 -18.01)"/><path class="a" d="M297.27,139.69s.71,15.84-5,40.68-14.43,40-14.43,40,17.26-28.14,22.47-49.66S306,139,306,139s.47,8.28,0,16.55a116.21,116.21,0,0,1-1.89,15.14,95.69,95.69,0,0,0,8.51-22.23c3.55-13.72,5-20.81,5-20.81l-20.34,12.06Z" transform="translate(0 -18.01)"/><polygon class="c" points="202.79 126.99 222.95 114.58 207.12 128.06 202.79 126.99 202.79 126.99"/><path class="c" d="M98.5,140.22s12.24,8.16,20.57,9.22,11,.53,11,.53a6.26,6.26,0,0,1,3.19,4.61l.71,3.55s-13.83,2.84-22.7-3.37A41.22,41.22,0,0,1,98.5,140.22Z" transform="translate(0 -18.01)"/></svg>