<svg id="Layer_1" data-name="Layer 1" xmlns="http://www.w3.org/2000/svg" viewBox="0 0 575 546.2"><title>Cowboy Bandit800_4c</title><path d="M107,15.6c-.8,4.8-1.6,9.7-2.2,14.5-4.5,31.7-5.9,64.3-2.5,96.2a179.6,179.6,0,0,0,28.1,78.9c6.1,9.5,14.2,20.5,22.7,28l45.1,40L137.8,270a317.7,317.7,0,0,1-39.7-5.1,410.4,410.4,0,0,1-87.2-25.6c-24-10.2-47.6-21.5-70.1-34.8a230.8,230.8,0,0,1-24-15.7l-3.6-2.8L-169.7,30.9l1.5-3.1c8.7-18,17.3-36,26.4-53.7l-17.8-22.6,1.4-6.3-3.9,2.1c-23,12.6-44.5,26.4-64.8,43.1C-242.3,2.9-256.7,16.8-270.8,31l-16.7,16.8,5.4-23.1c6.6-28.5,14.9-56.6,27.5-83.1,28.2-58.7,74.1-98.5,128.2-132.9l36.8-81.9,19.3,17.4c2.6,1.8,9.5,2.9,12.6,3.2,10.8.8,21.5,1.9,32.2,3.3l19.3,2.6,10.9-3.3c44.1-12.7,91.7-19.9,137.7-16.7,50.8,3.5,106.1,21.4,132.3,68.6,18.1,32.5,17.8,75.3-6,104.9a78.5,78.5,0,0,1-16.9,15.6A101.4,101.4,0,0,1,218.1-63a155.3,155.3,0,0,1-27.6,3.9c7.3,6.1,15.8,11.3,24.3,13.2a147.2,147.2,0,0,0,23.8,3.5,39.8,39.8,0,0,0,6.4-.1l16.5-2.5L251.4-31.8a103.9,103.9,0,0,1-10.2,11.3,104,104,0,0,1-26.4,19L194.6,8.4,192,9.7,175.2,3.5a36.2,36.2,0,0,0,6.9,8.4c4.8,4.1,12.7,8.4,19,9.8L216.6,25l-13.2,8.8a66.3,66.3,0,0,1-13.6,6.5,87.1,87.1,0,0,1-34.4,5,104.8,104.8,0,0,1-31.8-6.6A57.6,57.6,0,0,1,112,32.9l-2.3-1.6Z" transform="translate(287.5 273.1)" style="fill:#fff;fill-rule:evenodd"/><path d="M107.7-18.4l-1.4,4.9C102.6.1,100,15.3,98,29.2c-4.6,32.2-5.9,65.5-2.5,97.8a186.3,186.3,0,0,0,29.1,81.9c6.2,9.6,15.2,21.7,23.9,29.3l30.7,27.2-40.9-2.1a318.5,318.5,0,0,1-38.9-5,404.5,404.5,0,0,1-85.8-25.2c-23.6-10-47.2-21.3-69.3-34.4A230.3,230.3,0,0,1-79,183.5l-2.4-1.9L-162.1,30.7c9.4-19.4,18.5-38.5,28.3-57.4l-18.5-23.6,3.7-17.1q-8.5,4.1-16.7,8.6c-48.3,26.4-74.8,49.3-110.3,85,20.1-86.7,50.3-147.1,154.5-212.9l33.9-75.3,12.7,11.4c3.8,2.9,11.9,4.3,16.3,4.7,10.6.8,21.3,1.9,31.9,3.3l20.8,2.8c48.7-15.3,100.1-23.4,147.5-20.1s101.8,20.1,126.9,65.2c16.7,30.1,16.8,69.9-5.4,97.4A71.8,71.8,0,0,1,248-83a94.7,94.7,0,0,1-31.5,13.5c-12.6,3-27.5,4.3-42.3,3.9,5.9,6.7,21.2,22.4,39.1,26.3,23,5,32.7,3.5,32.7,3.5S232-17.3,211.8-7.5L191.7,2.4,162.3-8.5S167.5,8.4,177.8,17a56.6,56.6,0,0,0,21.9,11.2S182,40.1,155.8,38.6s-39.9-11.2-39.9-11.2Z" transform="translate(287.5 273.1)" style="fill:#26406a;fill-rule:evenodd"/><path d="M-239.7-30.1s101.1-88.4,221.2-88.1S144.7-86.8,144.7-86.8s74.7,15.7,104.8-21.7,16-124.8-108.8-133.5S-177.6-173.9-239.7-30.1" transform="translate(287.5 273.1)" style="fill:#fff;fill-rule:evenodd"/><path d="M-101.9-192.1l21-46.7s6.7,6,22,7.2,29,3,29,3-33.9,11.8-72.1,36.5" transform="translate(287.5 273.1)" style="fill:#fff;fill-rule:evenodd"/><path d="M-132.9-73.3A259.7,259.7,0,0,1-77.4-89.2a363.7,363.7,0,0,1,55.7-4.5,85.7,85.7,0,0,1-4.2,25.5c-4.5,14.3-6.8,20-6.8,20l22,9.8S-36.8-27.6-63-14.6-99.4,5.8-99.4,5.8s-28-14.5-27.4-15.7l9.7-18.4-20-25.5Z" transform="translate(287.5 273.1)" style="fill:#fff;fill-rule:evenodd"/><path d="M139.4-60.9s29.4,4,29.7,4.8S180-39.5,199.3-31.3s27.2,4.2,27.2,4.2a80,80,0,0,1-28.7,10c-16.2,2.2-16,2-16,2L153.9-41.9A40.3,40.3,0,0,1,167.1-38c6,3.2,7.3,4.8,7.3,4.8s-7.8-16.7-35-27.7m-8.8,27.2s16.5,35.5,24.4,46.4,12.8,13.7,12.8,13.7-15.7-2.2-26.4-5.3-14.5-6.3-14.5-6.3l-2.7-31.4S128.8-4.8,132.9.2s4.5,5.2,4.5,5.2S134.1-13.5,130.6-33.7ZM-132.2,1.7l33.9,17.9S-46.9-11,2.5-28.7s82.7-14,82.7-14A901.3,901.3,0,0,0-1.5-5c-46,23-61.7,40.7-61.7,40.7l76.4-29L-53.6,66.4l-54.7,2,72.1,22S-3.5,53.7,13.1,39.7s17.4-15,17.4-15S-5.9,76.8-20.2,100.4s-17.7,29.7-17.7,29.7l-47.4-6.7,23.7,41.4s49.7,34,95.1,51,71.4,19,71.4,19S63.2,179.9,65.2,103.5,92.6-17.3,92.6-17.3,73.2,52.1,81.2,128.5s57.7,120.4,57.7,120.4-58.4-3-119.8-29-89.4-47.7-89.4-47.7L-146,30.4Z" transform="translate(287.5 273.1)" style="fill:#b71f36;fill-rule:evenodd"/><path d="M247.8-106.5c18.4-41.5-4.2-113-116.4-120.8S-145.9-174.8-224.5-59.7a258.4,258.4,0,0,0-15.1,29.6s101.1-88.4,221.2-88.1S144.7-86.8,144.7-86.8s72.1,15.1,103.1-19.7" transform="translate(287.5 273.1)" style="fill:#64a0c8;fill-rule:evenodd"/><path d="M-97.4-195l15.7-34.8s6.7,6,22,7.2l12.4,1.1A401.8,401.8,0,0,0-97.4-195" transform="translate(287.5 273.1)" style="fill:#64a0c8;fill-rule:evenodd"/><path d="M-117.2-28h9.2l-7.7,18.4,50.4-21.7,12.3-16.3-4.7-5h11.3L-18.4-35l7.8-3.2-22-9.8s2.3-5.7,6.8-20a85.7,85.7,0,0,0,4.2-25.5,363.7,363.7,0,0,0-55.7,4.5,259.7,259.7,0,0,0-55.6,15.8l-4.2,19.5,20,25.5Z" transform="translate(287.5 273.1)" style="fill:#c3c7c7;fill-rule:evenodd"/><path d="M-73.2-44.8s-11.3-.6-16.5.2A38.8,38.8,0,0,0-99-41.9l1.6-13.6s11.4-4.8,24.2,10.7m-50.9-19a13,13,0,0,0,5.1,6.6c3.8,2.4,5.3,2.4,5.3,2.4l26.8-21.9s14.8,1.5,22.6,8.9,8.9,12,8.9,12L-73-62.5a71.8,71.8,0,0,1,6.2,10,59.9,59.9,0,0,1,3.6,7.8l-6.7,10.8-40.6,19.1,8.9-10.6-.2-4.6a32.3,32.3,0,0,1-7.1-7.7c-3.1-4.7-3.5-6.7-3.5-6.7l-4.6,2.2S-126-50.8-124-63.8Z" transform="translate(287.5 273.1)" style="fill:#26406a;fill-rule:evenodd"/><path d="M-107.4,75.1-37.2,97s24.7-26.2,32.5-34l7.8-7.8L-43,122.3l-46.7-7.8Zm-17.9-55.7,25,10.3S-45.2-1-23.8-11.3A165.7,165.7,0,0,1,17.9-24.8S-32.3-1.6-54.5,18.7-80,44.9-80,44.9l58.7-18.2-36.9,33-53.4,2.7-3.8,1.5-20.9-32.9Z" transform="translate(287.5 273.1)" style="fill:#b71f36;fill-rule:evenodd"/></svg>