<svg xmlns="http://www.w3.org/2000/svg" viewBox="0 0 386.89 356.03"><title>Cowboy619_1c</title><path d="M312.64,274.25c-20.33,18.67-43,34.66-63,47.22C330.67,257.09,349.06,156,349.06,156L322.1,122l-29.21,14.19v8.16l-8.16.71-6-14.54L273,132.59l-1.77,5S261,124.79,258.84,124.08s-13.13,10.64-13.13,10.64V121.24s25.19-22,43.28-44,24.48-33,24.48-33-10.29-6-16.32-6-17.74,11-34.76,18.45-24.12,9.22-24.12,9.22-6-17.74-9.22-27.31S212.37,18,212.37,18l-18.8,16L167,20.14s-7.45,6.39-9.93,12.42-8.51,42.21-8.51,42.21-12.77-.35-33.34-11.71S91,43.91,87.86,42.85s-14.19,7.09-14.19,7.09,6,18.8,26.25,40.44,36.54,30.51,36.54,30.51a50.61,50.61,0,0,0,2.13,13.48c2.13,6.74,3.55,13.83,3.55,13.83s-1.77-2.84-3.9-3.55-4.61,1.42-4.61,1.42-2.13-10.29-8.87-13.48-20.22-5-20.22-5,6,6.74,9.22,11.35,3.55,7.09,3.55,7.09a95.25,95.25,0,0,1-12.06-4.61,113.57,113.57,0,0,1-12.42-7.09s2.84,9.22,12.42,18.8,22.7,8.16,22.7,8.16.71,3.19-2.48,7.45-4.61,5.32-4.61,5.32S101.34,164.16,87.5,150a198.87,198.87,0,0,1-22.7-28L37.84,156s18.38,101.09,99.43,165.47c-20-12.56-42.68-28.56-63-47.22C22.23,226.48,0,157,0,157s11.82,73.78,75.68,134.8S193.45,374,193.45,374V354.66h0V374s53.92-21.28,117.77-82.3S386.89,157,386.89,157,364.66,226.48,312.64,274.25ZM292.3,180.36c5.68-24.83,5-40.68,5-40.68l20.34-12.06s-1.42,7.09-5,20.81a95.69,95.69,0,0,1-8.51,22.23A116.21,116.21,0,0,0,306,155.53c.47-8.28,0-16.55,0-16.55s-.47,10.17-5.68,31.69-22.47,49.66-22.47,49.66S286.62,205.19,292.3,180.36ZM250,223.76c19.16-34.41,28-85.49,28-85.49s6.38,17.74-2.48,63.5-51.08,93.65-51.08,93.65l-16.67-14.19A286.86,286.86,0,0,0,250,223.76Zm-50.61,14.85A114.47,114.47,0,0,0,194,227c-4.35-8.6-7.16-14.82-7.16-14.82l11.51,5-4.41-27.74,49.41-41.91c0-.39,0-.6,0-.6v.59h0a83.39,83.39,0,0,1-1.52,12.74c-1.53,8-9.72,18.08-9.72,18.08L243.35,166l-2.81,11-34.78,32.31s2.56-.89,12.79-8.3,20.2-18.08,20.2-18.08-2.3,11.56-12,31.72S202.94,254,202.94,254a62.72,62.72,0,0,1,3.32-13.34c2.81-8,9.72-22.23,9.72-22.23Zm4.32-88.1-2.13,2.66h4.61s8.34-6.56,17.2-13.13,15.25-8,15.25-8a72.78,72.78,0,0,1-11.17,17.38,89.67,89.67,0,0,1-14.72,13.83s8.51-4.26,14-9.22,9.93-5.85,9.93-5.85l-41.09,34.17a5.09,5.09,0,0,1,1.18-4c1.6-1.77,3.9-2.84,7.09-9s3-8,3-8-3.9,5.68-7.45,7.8-5.5,2.31-5.5,2.31l.53-24.65s4.61,1.6,6.92,2.66Zm-.89-5.51,20.16-12.41-15.83,13.48ZM182.1,38C191.79,43.44,201,49.59,201,49.59s-5-4.49-5-6.39,8.75-5.44,8.75-5.44L193,41.07s16.79-15.14,18.45-14.66,10.88,7.8,13.24,18.68,13.72,32.64,13.72,32.64,0,2.13-13.72,13.48A108.46,108.46,0,0,1,195.81,108s-2.6-42.57-3.07-47.06-.24-3.55-9-8.75-16.32-21-16.32-21S172.4,32.56,182.1,38Zm-5.91,68.35a97,97,0,0,0,18.21,5.44,136.31,136.31,0,0,0,21.76-10.64c11.82-7.09,17-12.06,17-12.06A104.81,104.81,0,0,1,210.71,113c-14.19,10.88-16.08,12.3-16.08,12.3V115.8l-3.55,4s-8-2.6-18-9.93a111.51,111.51,0,0,1-16.79-15.37S168.14,102.8,176.18,106.34Zm-35,8c-20.1-15.14-27-25.54-27-25.54s34.05,25.07,57.23,32.64L194.63,129s36.89-20.34,61-44.22l24.12-23.89s-25.54,21.52-32.87,27.2-10.17,6.62-10.17,6.62c.24-.71,3.78-10.88,3.78-10.88S265.81,68,278.58,57.63s18-13.24,22.23-12.77,4.73,1.66,4.73,1.66a593.77,593.77,0,0,1-57.47,57.94c-31.93,27.67-54.63,38.07-54.63,38.07S161.29,129.52,141.18,114.38Zm36.24,37.36-6.74,6.56a40.63,40.63,0,0,1-8.87-4.61,30.23,30.23,0,0,1-4.61-3.72,17.78,17.78,0,0,1,.35-4.79,8.35,8.35,0,0,1,2.66-3.37,84,84,0,0,0,9.58,6.39C173.35,150,177.43,151.75,177.43,151.75Zm-66.16,3A41.22,41.22,0,0,1,98.5,140.22s12.24,8.16,20.57,9.22,11,.53,11,.53a6.26,6.26,0,0,1,3.19,4.61l.71,3.55S120.14,161,111.27,154.76ZM168,264.91c36.89,29.8,53.92,35.83,53.92,35.83a82,82,0,0,1-11,13.13c-6.39,6-10.29,9.22-10.29,9.22S176.18,305.7,162,289.74a113.7,113.7,0,0,1-20.22-32.28s2.48,16,14.19,35.83,33.7,39.38,33.7,39.38-31.57-22-52.5-60.66-22-71.3-22-71.3S131.13,235.11,168,264.91ZM89.27,244c-28-57.11-35.47-96.13-35.47-96.13l10.29-13.12,9.58,9.22s15.25,68.46,42.21,112.45,70.24,81.94,70.24,81.94l-6.74,4.61S117.3,301.09,89.27,244Zm176.66,28.73c-27,34.41-78,74.85-78,74.85l-5-2.48s44.34-29.09,87.26-98.62S323.4,132.24,323.4,132.24l17,22.7s-9.93,57.11-53.56,116S193.57,350,193.57,350s66-47.53,90.81-93.29,27-57.11,27-57.11S292.89,238.3,265.93,272.71Z" transform="translate(0 -18.01)"/></svg>