<svg id="Layer_1" data-name="Layer 1" xmlns="http://www.w3.org/2000/svg" viewBox="0 0 556.3 527.3"><title>Cowboy Bandit800_1c</title><path d="M3.2,55.1l-7.8,7.8c-7.8,7.8-32.5,34-32.5,34l-70.2-21.9,17.7,39.4,46.7,7.8Z" transform="translate(275.6 261.9)" style="fill:#050000;fill-rule:evenodd"/><path d="M-21.3,26.7-80,44.9s3.3-5.8,25.5-26.2S17.9-24.8,17.9-24.8A165.7,165.7,0,0,0-23.8-11.3c-21.4,10.3-76.4,41-76.4,41l-25-10.3-11,11.7,20.9,32.9,3.8-1.5,53.4-2.7Z" transform="translate(275.6 261.9)" style="fill:#050000;fill-rule:evenodd"/><path d="M268.8-194.7c-25.1-45.1-78.5-61.8-126.9-65.2S43.1-255.1-5.6-239.8l-20.8-2.8c-10.5-1.4-21.3-2.5-31.9-3.3-4.5-.3-12.6-1.8-16.3-4.7l-12.7-11.4-33.9,75.3C-225.3-120.8-255.4-60.5-275.6,26.3c35.5-35.7,62.1-58.6,110.3-85q8.2-4.5,16.7-8.6l-3.7,17.1,18.5,23.6c-9.8,18.9-19,38-28.3,57.4l80.6,150.9,2.4,1.9a230.3,230.3,0,0,0,23.3,15.2c22.1,13.1,45.7,24.4,69.3,34.4a404.5,404.5,0,0,0,85.8,25.2,318.5,318.5,0,0,0,38.9,5l40.9,2.1-30.7-27.2c-8.6-7.7-17.7-19.8-23.9-29.3A186.3,186.3,0,0,1,95.5,127c-3.4-32.3-2-65.7,2.5-97.8,2-13.9,4.6-29.1,8.3-42.6l1.4-4.9,8.2,45.7s13.7,9.7,39.9,11.2,43.9-10.3,43.9-10.3A56.6,56.6,0,0,1,177.8,17C167.5,8.4,162.3-8.5,162.3-8.5L191.7,2.4l20.2-9.8C232-17.3,246-35.8,246-35.8s-9.7,1.5-32.7-3.5c-17.9-3.9-33.2-19.5-39.1-26.3,14.7.3,29.7-.9,42.3-3.9A94.7,94.7,0,0,0,248-83a71.8,71.8,0,0,0,15.4-14.2C285.6-124.8,285.6-164.6,268.8-194.7ZM-80.9-238.8s6.7,6,22,7.2,29,3,29,3-33.9,11.8-72.1,36.5Zm-56.2,185,4.2-19.5A259.7,259.7,0,0,1-77.4-89.2a363.7,363.7,0,0,1,55.7-4.5,85.7,85.7,0,0,1-4.2,25.5c-4.5,14.3-6.8,20-6.8,20l22,9.8S-36.8-27.6-63-14.6-99.4,5.8-99.4,5.8s-28-14.5-27.4-15.7l9.7-18.4Zm276,302.7s-58.4-3-119.8-29-89.4-47.7-89.4-47.7L-146,30.4l13.8-28.7,33.9,17.9S-46.9-11,2.5-28.7s82.7-14,82.7-14A901.3,901.3,0,0,0-1.5-5c-46,23-61.7,40.7-61.7,40.7l76.4-29L-53.6,66.4l-54.7,2,72.1,22S-3.5,53.7,13.1,39.7s17.4-15,17.4-15S-5.9,76.8-20.2,100.4s-17.7,29.7-17.7,29.7l-47.4-6.7,23.7,41.4s49.7,34,95.1,51,71.4,19,71.4,19S63.2,179.9,65.2,103.5,92.6-17.3,92.6-17.3,73.2,52.1,81.2,128.5,138.9,248.9,138.9,248.9ZM167.8,26.4s-15.7-2.2-26.4-5.3-14.5-6.3-14.5-6.3l-2.7-31.4S128.8-4.8,132.9.2s4.5,5.2,4.5,5.2-3.3-18.9-6.8-39c0,0,16.5,35.5,24.4,46.4S167.8,26.4,167.8,26.4Zm31.5-57.7c19.4,8.2,27.2,4.2,27.2,4.2a80,80,0,0,1-28.7,10c-16.2,2.2-16,2-16,2L153.9-41.9A40.3,40.3,0,0,1,167.1-38c6,3.2,7.3,4.8,7.3,4.8s-7.8-16.7-35-27.7c0,0,29.4,4,29.7,4.8S180-39.5,199.3-31.3Zm50.1-77.2c-30,37.4-104.8,21.7-104.8,21.7s-43-31-163.2-31.4S-239.7-30.1-239.7-30.1C-177.6-173.9,15.9-250.6,140.7-242S279.5-145.9,249.5-108.5Z" transform="translate(275.6 261.9)" style="fill:#050000;fill-rule:evenodd"/><path d="M247.8-106.5c-31,34.8-103.1,19.7-103.1,19.7s-43-31-163.2-31.4S-239.7-30.1-239.7-30.1a258.4,258.4,0,0,1,15.1-29.6C-145.9-174.8,20-235,131.3-227.3S266.2-148,247.8-106.5M-97.4-195a401.8,401.8,0,0,1,50.1-26.6l-12.4-1.1c-15.3-1.2-22-7.2-22-7.2L-97.4-195M-73.2-44.8C-85.9-60.3-97.3-55.5-97.3-55.5L-99-41.9a38.8,38.8,0,0,1,9.3-2.7c5.2-.8,16.5-.2,16.5-.2m-43.7,2.7,4.6-2.2s.4,2,3.5,6.7a32.3,32.3,0,0,0,7.1,7.7l.2,4.6-8.9,10.6,40.6-19.1,6.7-10.8a59.9,59.9,0,0,0-3.6-7.8,71.8,71.8,0,0,0-6.2-10l17.7,6.7s-1.1-4.6-8.9-12-22.6-8.9-22.6-8.9l-26.8,21.9s-1.5,0-5.3-2.4a13,13,0,0,1-5.1-6.6C-126-50.8-116.9-42.1-116.9-42.1Z" transform="translate(275.6 261.9)" style="fill:#050000;fill-rule:evenodd"/></svg>