<svg id="Layer_1" data-name="Layer 1" xmlns="http://www.w3.org/2000/svg" viewBox="0 0 578.8 631.2"><title>Dragon363_3c</title><path d="M-172.4-7a50.2,50.2,0,0,1,1-5.7l1.2-5.2,5.3.3h4.5c.6-4.1.9-8,2.5-12.3l1.8-5.1,5.3.9c2,.4,4.1.6,6.2.7s4.3.3,6.6.3a10.3,10.3,0,0,1,1.3-3.1l1.3-1.9,2.2-.6c15.5-4.5,33.1-6.5,48.1-13.1a71,71,0,0,0-.1-10.4,18.7,18.7,0,0,0-2.2-7.9c-2.2-3.6-6.9-6.4-10.7-8.4a103.7,103.7,0,0,0-38.5,2.5c-1.3,2.9-2.5,6-3.7,9A91.1,91.1,0,0,0-144-56l-1.3,5.5-5.6-.7a64.8,64.8,0,0,1-10.2-2.1l-.2.9c-.6,3.1-1.2,6.2-1.9,9.3l-.8,3.3-1.4,5.5L-171-35a63.8,63.8,0,0,1-14.6-3.7c-.8,2.4-1.4,4.8-2.2,7.1l-1.7,4.9c-4.4-.6-8.9-1.1-13.1-2.5,3.9,7.7,23.9,17.6,30.3,22.3M-197-159.2a39.4,39.4,0,0,0,9.8,0,56.6,56.6,0,0,0,9.8-2.3l7.3-2.5c.5-10.3,2.8-20.5,10.3-28.1,4.6-4.6,10.3-7.6,16-10.5h.2q22.7-10.6,45.5-20.9c21.9-9.9,44-19.4,66.6-27.3,12-5.8,23.9-11.7,35.8-17.5,15.4-7.6,30.8-15.2,46.3-22.3,6.8-3.1,13.6-6.2,20.5-9s11.5-4.6,17.5-6.5l25.6-8.1L99.9-291.7c-6.6,10.5-12.8,21.2-18.8,32A688.2,688.2,0,0,0,150-279.3c24.6-8.5,48.6-18.4,72.5-28.7l17.4-7.6L235.9-297c-3.6,16.9-15.7,30.8-28.6,41.6a203.9,203.9,0,0,1-25.5,18l-8,4.7c35.6,11,64.8,31.7,87.2,63.1l20.9,29.3L249-154.9a47,47,0,0,0-9.3-3c21.3,22.5,36.3,48.3,44.2,79.4l5.5,21.7L269.7-67.5l-3.6-1.9c10.5,28.1,12.4,58.3,8.7,88.4l-3,24.7-7-9.6c3.6,16.8,4.2,33.9,3,51.1l-1.5,21.1-7.7-7.5a219.5,219.5,0,0,1,13.1,41.6l5.5,25.9-21.1-16c-19.7-15-43-29.9-67.9-33.6a80.4,80.4,0,0,0-13.2-.9C48.5,156.2-76.6,210.8-175.2,301.9L-190,315.6l-1.7-20.1a189.4,189.4,0,0,1,4.3-58.9c10-43,34.4-80.7,62.9-113.8A640.8,640.8,0,0,1-72.8,70.1c15.1-14,30.7-27.4,46.6-40.7a100.3,100.3,0,0,0-27.4-.8A125.5,125.5,0,0,0-97,41.4c-9.1,4.6-20.5,12.1-25.9,21l-.3.5-.4.5a22.8,22.8,0,0,1-10.7,7.8c-7.7,2.6-15.9.1-23.2-2.6l-12.6-4.9c-5.2-2-10.5-4-15.8-5.7s-10.5-5.5-10.8-11.9,2.6-8.8,6.3-11.6A76.3,76.3,0,0,1-201-2.8l-13.2-6.4c-13.2-6.4-25.8-14.7-35-26.3a73.7,73.7,0,0,1-11.1-20l-16.6,2.1L-289.4-52l1.5-12.5c.3-2.4.5-4.7.7-7.1.8-9.5,1.1-19.1,2.5-28.5s3.6-17.1,10.2-22.4c1.3-8.5,4.9-17.8,8.4-25.3,15.7-33.6,35.1-51.7,68.2-67.8l15-7.3-6.4,15.4C-195.6-191.7-197.7-175.9-197-159.2Z" transform="translate(289.4 315.6)" style="fill:#fff;fill-rule:evenodd"/><path d="M-268.5-118.8c.7-8.6,4.8-18.9,8.3-26.3,15.2-32.4,33.4-49.4,65.3-64.8-5.5,13.2-10,30.5-8.1,56.2a50.8,50.8,0,0,0,16.6.9,62.7,62.7,0,0,0,10.9-2.6c3.9-1.2,7.8-2.7,11.6-4.1.1-10,1.3-20.8,8.6-28.1,4-4,9.3-6.7,14.3-9.2h.1c15.1-7,30.2-14,45.4-20.9,21.8-9.8,43.9-19.4,66.5-27.2,12.1-5.8,24.2-11.8,36.2-17.7,15.3-7.6,30.7-15.1,46.2-22.3,6.7-3.1,13.5-6.1,20.3-8.9s11.2-4.5,16.9-6.3l9-2.9-5.1,8c-9.1,14.5-17.6,29.5-25.6,44.6A699.3,699.3,0,0,0,152-273.3c24.8-8.5,48.9-18.5,72.9-28.9l6.2-2.7-1.4,6.6c-3.2,15.4-14.7,28.2-26.5,38.1a197.9,197.9,0,0,1-24.8,17.4c-7.1,4.3-14.5,8.3-21.9,12.1,40.8,9,74.3,29.7,99.2,64.7l7.4,10.4-11.6-5.2c-8.9-4-19.1-5.1-29.1-5,26.9,24.3,46,52.6,55.2,88.8l1.9,7.7-7-3.8-20-10.8c16.6,31.5,20.2,66.5,15.8,102.1l-1.1,8.7-5.2-7.1A175,175,0,0,0,247,1.4a174.6,174.6,0,0,1,9.4,25c5.4,19.1,6.4,38.6,5.1,58.3l-.5,7.5L255.6,87q-10.4-10.1-21.6-19c15.6,21.9,25.7,46.6,31.5,73.8l1.9,9.2-7.5-5.7c-20.6-15.7-44.7-31-70.8-34.8a86.5,86.5,0,0,0-15.2-.9C46.1,150.2-79.9,205.2-179.5,297.3l-5.2,4.8-.6-7.1a182.6,182.6,0,0,1,4.1-56.9c9.8-42,33.7-78.8,61.5-111.1A635.1,635.1,0,0,1-68.5,74.8c18.1-16.7,36.9-32.7,55.9-48.4-13.3-4.5-27.8-5.4-41.7-4A132.3,132.3,0,0,0-99.9,35.7c-10.3,5.2-22.4,13.4-28.5,23.4v.4a16.6,16.6,0,0,1-7.7,5.7c-6.1,2-13.2-.5-19-2.6l-12.5-4.9c-5.3-2.1-10.7-4-16.2-5.8-2.9-1-6.3-2.7-6.4-6.2s4.7-7.1,7.8-9l.7-.4c-8.9-13.6-12.9-26.3-12.7-43.3v-6.4l5.3,3.5a196.9,196.9,0,0,0,22.5,13c.4-5,.5-9.6,1.6-14.3a50.1,50.1,0,0,0,10.3-.6c1.2-6,1-10.2,3-16,6.1,1.1,15.6,1.3,18.5.7v-.2c.9-1.9,1.3-4.5,1.9-5.3,15.4-4.5,36.5-7.1,52.4-15A92.5,92.5,0,0,0-79-62.9a24.6,24.6,0,0,0-3.1-10.5c-3.1-5.1-9-8.6-14.2-11.3-15.6-1.8-29.9-1.1-44.9,3.3-2.8,5.9-7.3,17.2-8.9,23.9a61.1,61.1,0,0,1-15.2-4c-2,5.1-2.9,13-4.7,20.2-8.8-1.3-14.7-3.5-18.8-6.3-2.1,4.2-2.9,8.4-4.9,13.9-7.3-1-10.9-2.8-16.6-7.1a82.9,82.9,0,0,0,3.8,21.6l2.6,7.8-7.4-3.6c-12.3-6-24.3-13.7-32.9-24.6-5.6-7.1-9-14.6-11.8-23l-21.6,2.7-4.4.6.5-4.4c.3-2.4.5-4.9.8-7.3.8-9.3,1.1-18.9,2.5-28.1,1-6.7,3-15.6,9.3-19.4l.6-.3" transform="translate(289.4 315.6)" style="fill:#050000;fill-rule:evenodd"/><path d="M-254.8-125.2c11.4-27,23.9-48.8,39-57.5a71.9,71.9,0,0,0-6.4,33.8c-11.9,8-22.8,16-32.7,23.7" transform="translate(289.4 315.6)" style="fill:#fff;fill-rule:evenodd"/><path d="M143.7-168.6c45.3,34.9,69.7,110.6,1.7,208.9.8-57.5,50.4-118.5-1.7-208.9M-267.4-75.3c1.6-10.8,3.2-21.7,5.5-31.8,15.9-12.5,31.9-24.9,48.5-35.4,19.2,7.6,39.7,2.4,62.9-8.8a97.9,97.9,0,0,0,10.3,3.2c-15.7,3.5-41.4,15.9-48.6,27-3.8-3-7.6-6-13.1-7.4a75.8,75.8,0,0,1,11.8,20.5c-21.3-2.4-40.8,7.3-47.6,17.9,17.5-9.7,34.8-11.3,52-10.3,5.9.3,13-3.2,1.2-16.2,9.9-15.8,44.1-21.1,62.6-21.1,23.1,15.5,44.2-26.3,51.5-37a32.6,32.6,0,0,0,11.7-6c-20.7,2.5-46.4,5.6-69.7,15-2.2,1.7-4.4,8.4-6.5,12.6a135.7,135.7,0,0,0-13.8-7.5,43.1,43.1,0,0,1,3.6-15.4c37.8-20,76.1-33.9,114.5-45.2,21.7-.8,61.3,9.8,57.2,40.8l-5.2,4.5c-.6-17.8-24.1-27.5-38.3-27.8,16,10.1,26,23.5,26.1,36.1-.4,8.8,9.2,6.9,29.2-6.9,3.1-2.2,3-6.6,2.7-11.2,25-7.7,47.1-15.7,65.4-24.1,48,11.9,99.9,49.4,108.6,114,9.8,72.8-47.6,112.8-43.9,188.1C79,121.3-30.6,167.4-69.5,194c8.9-68.5,204.7-206.4,119.9-302.9C62.4-72.9,42.2-43.6,8.9-17-42.4-24.7-93.2-5.1-143.2,51l-23.7-7.7c26-16,39.8-38.6,45.9-65.3,27-7.6,38.5-10.1,60.8-16.2,5.2-21.4,5.8-40.2,13.3-56,11.3-23.7,31.8-44,59.7-45-33.2-25.1-94.6,14.9-102.4,41.9-30.9-.3-62.5-3-85.9,20.6C-208.7-79.9-240.2-80.8-267.4-75.3Z" transform="translate(289.4 315.6)" style="fill:#b71f36;fill-rule:evenodd"/><path d="M92.7-203.7q7.2-2.9,13.8-6c48,11.9,99.9,49.4,108.6,114,5.1,37.6-7.9,66.5-21,96.1,6.5-26.8,17.4-86.6-2-131.8-21.2-49.4-79.4-67.5-99.4-72.3" transform="translate(289.4 315.6)" style="fill:#fff;fill-rule:evenodd"/><path d="M-142.5-157.4l-6.2-3.1a43.1,43.1,0,0,1,3.6-15.4c37.8-20,76.1-33.9,114.5-45.2C-20-221.6-5-219.2,7-213c-4.2-.6-11.7-1.3-23.8-1.7-22.3-.8-36.6,6.9-36.6,6.9s3.1,0,11.3,1.5,12.3,4.4,12.3,4.4-15.4-.3-54.5,8.7S-137.9-173-137.9-173ZM-267.4-75.3c1.6-10.8,3.2-21.7,5.5-31.8,15.9-12.5,31.9-24.9,48.5-35.4,19.2,7.6,39.7,2.4,62.9-8.8l5.1,1.8c-7.9,3.7-23.5,10.6-36,14.4-17.7,5.4-22.3,1.8-22.3,1.8l-9.7-6.1s-7.7,3.8-20.2,13.8-17.7,18.9-17.7,18.9L-257-77.1Q-262.3-76.4-267.4-75.3Z" transform="translate(289.4 315.6)" style="fill:#fff;fill-rule:evenodd"/><path d="M143.7-168.6c45.3,34.9,69.7,110.6,1.7,208.9.8-57.5,50.4-118.5-1.7-208.9M14.6-208.2c8.3,6.4,13.6,15.5,12,27.8l-5.2,4.5c-.6-17.8-24.1-27.5-38.3-27.8,16,10.1,26,23.5,26.1,36.1-.4,8.8,9.2,6.9,29.2-6.9,3.1-2.2,3-6.6,2.7-11.2,16.7-5.2,32.2-10.5,46.1-15.9,15.8,4.1,46.6,14.2,73.3,36.6,37.9,31.7,48.1,99.3,27.6,146.4-14.2,32.7-31.9,88.1-41.4,118.9-20.1,6.7-40.6,14-60.7,21.6,8.6-16.4,23.8-46.7,34.5-96.6,16.4-75.8-16.4-105.4-16.4-105.4s1,45-33.8,113.6C47,79.9,27.7,125.1,17.6,149.7c-38,16.5-69.7,32.3-87.1,44.3,8.9-68.5,204.7-206.4,119.9-302.9C62.4-72.9,42.2-43.6,8.9-17-42.4-24.7-93.2-5.1-143.2,51l-12.5-4.1a136.9,136.9,0,0,0,18.8-17.3C-125.1,16.3-112.3-16-112.3-16l63-16.4s3.1-45.6,24.1-76.3,43.5-29.7,43.5-29.7-1.5-.3-6.2-.8h.9c-28.5-21.6-77.8,4.9-96.1,29.9,4.8-8.7,13.2-21.2,25.2-30C-37.9-154.2-12.3-159-12.3-159l6.9-20.2s1.3-8.2-2-15.1-14.1-11.8-14.1-11.8,6.4-3.1,18.4-1a40.5,40.5,0,0,1,20,10l-.5-5.6A15.7,15.7,0,0,0,14.6-208.2Z" transform="translate(289.4 315.6)" style="fill:#b71f36;fill-rule:evenodd"/><path d="M-249.8-93.8s3.6-7.9,19.5-16.4,23-12.5,23-12.5-3.3-6.7-13.1-5.4-16.1,5.9-23,17.4-6.4,16.9-6.4,16.9m15.2-.2a25.9,25.9,0,0,0-3.2,3.9c17.5-9.7,34.8-11.3,52-10.3,5.9.3,13-3.2,1.2-16.2,9.9-15.8,44.1-21.1,62.6-21.1,23.1,15.5,44.2-26.3,51.5-37a32.6,32.6,0,0,0,11.7-6c-20.7,2.5-46.4,5.6-69.7,15-2.2,1.7-4.4,8.4-6.5,12.6l-2.2-1.3,5-15.5c22-11.4,64.1-14.3,90.3-19.5,0,0,0,6.9-11.3,15.6s-15.1,8.4-15.1,8.4-6.1,23.3-26.4,32.5-28.9,1.8-28.9,1.8-16.4,1.5-29.9,7.9-9,13.8-2.3,16.4,21.8-1.8,35.8-2,22,3.3,22,3.3-16.6-1.5-39.2,2.6a128.9,128.9,0,0,0-39.2,14.1s-14.1-4.1-33.8-2.6-32.5,3.8-32.5,3.8A38.6,38.6,0,0,1-234.5-93.9Z" transform="translate(289.4 315.6)" style="fill:#b71f36;fill-rule:evenodd"/><path d="M12.2-221.8c69.1-13.7,135.1-28.8,183-51.8-39.8,26.1-83.7,51.8-157.5,75.2-5.5-8.3-13.9-16-25.4-23.3m135.3,7.5c11.1.7,62.3,16.4,72.3,32.2l-31.7-.4A178.6,178.6,0,0,0,147.5-214.2ZM207.7-154c23,18,39.7,38.5,54.7,59.8-10.5-8.6-21.8-16.5-37-21.4A172.7,172.7,0,0,0,207.7-154Zm21.7,58.6c2.2,18.5.1,37.1-5,55.6C239.7-30.8,251.8-17,261.1.7,254.4-35.9,244-68.2,229.3-95.4Zm-9.2,71.3c-5.3,17.5-16.2,34.7-22.7,51.8,19.4,2.1,37.7,20.9,55.7,43C242.8,34.7,231.8,3.3,220.1-24.1ZM190.3,48.8c-2.7,14.7-6.6,19.6-4.7,45.6,16.7,1.1,34.4,4.7,56.7,19.8C229.1,88.3,213.9,64.4,190.3,48.8ZM-16.8-229.9c26.9-14.5,55.9-29,79.8-43.5-9.1,10.3-15.4,21.2-21.2,32.2L-13-228.6A14,14,0,0,0-16.8-229.9Z" transform="translate(289.4 315.6)" style="fill:#fff;fill-rule:evenodd"/><path d="M-245.8-66.6c25.1-1,48-.7,68,1.2l-.5,11.1c-4.4-.6-12.9-3.9-16.9-7.1-1.9,3.1-3.6,9.5-4.7,15.4a207.3,207.3,0,0,1-19.9-14.8c-2,9.7-2.2,17.8-2.9,25.4a106.6,106.6,0,0,1-23.2-31.3" transform="translate(289.4 315.6)" style="fill:#fff;fill-rule:evenodd"/><path d="M-166.1-73.3A53.7,53.7,0,0,1-153-81l-1.4,13.6a37.6,37.6,0,0,1-11.6-5.9" transform="translate(289.4 315.6)" style="fill:#fff;fill-rule:evenodd"/><path d="M-77.7-87.5c5.2,5.3,9.2,13,12.7,21.6,6.4-34.2,20-57.6,41.8-68.5-30.9,2.1-54.9,30.6-54.5,47" transform="translate(289.4 315.6)" style="fill:#fff;fill-rule:evenodd"/><path d="M-171.3,33.8A83.2,83.2,0,0,1-183.1,7.7c9.6,5.2,18.1,8.4,26.2,9.8-1.2-6.2-2.4-13.1-1.9-19.3,4.8,1.2,9,2.7,14.1,1.6a71,71,0,0,1-1.5-16.7c7.5.7,9.8.4,14.8,1.3-6.4,21.7-20.9,39.6-39.9,49.4" transform="translate(289.4 315.6)" style="fill:#fff;fill-rule:evenodd"/><path d="M-137.4,179.2A232.1,232.1,0,0,0-169.2,267c18.4-20.1,51.6-41.8,84.7-63.6-.5-13.1,3.6-26.6,10.5-40.2-24.3,9.3-47.3,17-63.5,15.9m55.3-66.7c-16.1,15.5-31.8,32.4-45.4,51.7,13.7.5,36.7-6.1,60.9-13.6,7.9-12.6,17.9-25.4,28.5-38.1C-56.1,114.6-72.4,115.6-82.1,112.5Zm53.6-47.9C-42,76.5-56.5,88.8-71,102a297.3,297.3,0,0,0,41.7,0C-18.8,89.7-8,77.5,2,65.4-8.8,65.7-20.3,66.5-28.5,64.5ZM6.1,30.6a318.1,318.1,0,0,1-23.6,24c9.8.3,18.6,1,26.7,1.9,4.3-5.5,8.4-10.9,12.1-16.3A48.8,48.8,0,0,0,6.1,30.6Z" transform="translate(289.4 315.6)" style="fill:#fff;fill-rule:evenodd"/><path d="M-225.1-124.7c16.6-11.2,26.2,6,16.2,8.6-14.3,4.9-27.8,10.5-38.1,18.1a91.1,91.1,0,0,1,28.3-26,35.8,35.8,0,0,0-6.4-.6" transform="translate(289.4 315.6)" style="fill:#050000;fill-rule:evenodd"/><path d="M-125.4-153.5c7.1-3.1,10.2-4.4,23.2-6.5-2.3,18.1-17.2,15.7-23.2,6.5" transform="translate(289.4 315.6)" style="fill:#fff;fill-rule:evenodd"/><path d="M-65.3-160.8S-74-132-94.7-127.2s-27.9,0-27.9,0-25.2,2.7-30,8.4.6,10.8,15.9,8.1,22.8-3,30.6-1.5,12,4.2,12,4.2,10.8-15.9,18.6-22.5,8.4-7.8,8.4-7.8,3.9-11.7,1.8-22.5" transform="translate(289.4 315.6)" style="fill:#fff;fill-rule:evenodd"/></svg>