<svg id="Layer_1" data-name="Layer 1" xmlns="http://www.w3.org/2000/svg" viewBox="0 0 561.8 607"><title>Dragon363_1c</title><path d="M143.7-168.6c52.2,90.4,2.6,151.4,1.7,208.9C213.4-58,189.1-133.7,143.7-168.6Z" transform="translate(282.1 304.9)" style="fill:#050000;fill-rule:evenodd"/><path d="M279.7-69.3,277.7-77c-9.2-36.2-28.3-64.5-55.2-88.8,9.9-.1,20.2,1.1,29.1,5l11.6,5.2-7.4-10.4c-24.9-35-58.4-55.8-99.2-64.7,7.4-3.8,14.8-7.8,21.9-12.1a197.9,197.9,0,0,0,24.8-17.4c11.7-9.8,23.2-22.7,26.5-38.1l1.4-6.6-6.2,2.7c-24,10.4-48.1,20.4-72.9,28.9a699.3,699.3,0,0,1-83.1,22.9c8-15.1,16.5-30.1,25.6-44.6l5.1-8-9,2.9c-5.7,1.8-11.4,4-16.9,6.3S60-288.1,53.3-285c-15.5,7.2-30.9,14.7-46.2,22.3C-4.9-256.8-17-250.8-29.1-245c-22.6,7.8-44.7,17.4-66.5,27.2-15.2,6.8-30.3,13.9-45.4,20.9h-.1c-5,2.5-10.3,5.1-14.3,9.2-7.3,7.4-8.5,18.2-8.6,28.1-3.9,1.4-7.7,2.8-11.6,4.1a62.7,62.7,0,0,1-10.9,2.6,50.8,50.8,0,0,1-16.6-.9c-1.9-25.7,2.6-42.9,8.1-56.2-31.8,15.4-50.1,32.4-65.3,64.8-3.4,7.3-7.5,17.7-8.3,26.3l-.6.3c-6.3,3.7-8.3,12.7-9.3,19.4-1.4,9.2-1.7,18.8-2.5,28.1-.2,2.5-.5,4.9-.7,7.3l-.5,4.4,4.4-.6,21.6-2.7c2.8,8.4,6.2,15.8,11.8,23,8.6,10.8,20.6,18.6,32.9,24.6l7.4,3.6-2.6-7.8a82.9,82.9,0,0,1-3.8-21.6c5.7,4.3,9.3,6.1,16.6,7.1,1.9-5.4,2.7-9.6,4.9-13.9,4.2,2.8,10,5,18.8,6.3,1.8-7.2,2.7-15.1,4.7-20.2a61.1,61.1,0,0,0,15.2,4c1.6-6.7,6.1-18,8.9-23.9,15.1-4.4,29.3-5.1,44.9-3.3,5.2,2.7,11.1,6.2,14.2,11.3A24.6,24.6,0,0,1-79-62.9a92.5,92.5,0,0,1-.1,15.2c-15.9,8-36.9,10.5-52.4,15-.5.8-1,3.4-1.9,5.3v.2c-2.9.7-12.4.4-18.5-.7-2,5.7-1.8,9.9-3,16a50.1,50.1,0,0,1-10.3.6c-1.1,4.7-1.2,9.4-1.6,14.3a196.9,196.9,0,0,1-22.5-13l-5.3-3.5v6.4c-.2,17,3.8,29.7,12.7,43.3l-.7.4c-3,2-8,4.9-7.8,9s3.5,5.2,6.4,6.2c5.4,1.8,10.8,3.8,16.2,5.8l12.5,4.9c5.8,2.1,12.9,4.6,19,2.6a16.6,16.6,0,0,0,7.7-5.7v-.4c6.1-10,18.2-18.2,28.5-23.4A132.3,132.3,0,0,1-54.4,22.4c13.9-1.4,28.4-.5,41.7,4-19,15.7-37.8,31.7-55.9,48.4A635.1,635.1,0,0,0-119.7,127c-27.8,32.3-51.7,69.1-61.5,111.1a182.6,182.6,0,0,0-4.1,56.9l.6,7.1,5.2-4.8C-79.9,205.2,46.1,150.2,174,109.5a86.5,86.5,0,0,1,15.2.9c26.1,3.8,50.2,19.1,70.8,34.8l7.5,5.7-1.9-9.2c-5.8-27.2-15.9-51.9-31.5-73.8q11.2,9,21.6,19l5.4,5.2.5-7.5c1.4-19.8.3-39.2-5.1-58.3a174.6,174.6,0,0,0-9.4-25,175,175,0,0,1,15.3,18.4l5.2,7.1,1.1-8.7c4.4-35.6.8-70.6-15.8-102.1l20,10.8ZM219.8-182.1l-31.7-.4a178.6,178.6,0,0,0-40.6-31.8C158.6-213.6,209.8-197.9,219.8-182.1Zm-24.6-91.5c-39.8,26.1-83.7,51.8-157.5,75.2-5.5-8.3-13.9-16-25.4-23.3C81.4-235.5,147.4-250.6,195.2-273.6ZM63-273.4c-9.1,10.3-15.4,21.2-21.2,32.2L-13-228.6a14,14,0,0,0-3.7-1.2C10.2-244.4,39.1-258.9,63-273.4Zm-278.8,90.7a71.9,71.9,0,0,0-6.4,33.8c-11.9,8-22.8,16-32.7,23.7C-243.4-152.1-230.9-173.9-215.8-182.6Zm37.6,128.3c-4.4-.6-12.9-3.9-16.9-7.1-1.9,3.1-3.6,9.5-4.7,15.4a207.3,207.3,0,0,1-19.9-14.8c-2,9.7-2.2,17.8-2.9,25.4a106.6,106.6,0,0,1-23.2-31.3c25.1-1,48-.7,68,1.2Zm23.7-13.1a37.6,37.6,0,0,1-11.6-5.9A53.7,53.7,0,0,1-153-81ZM-171.3,33.8A83.2,83.2,0,0,1-183.1,7.7c9.6,5.2,18.1,8.4,26.2,9.8-1.2-6.2-2.4-13.1-1.9-19.3,4.8,1.2,9,2.7,14.1,1.6a71,71,0,0,1-1.5-16.7c7.5.7,9.8.4,14.8,1.3C-137.8,6.2-152.3,24.1-171.3,33.8ZM6.1,30.6a48.8,48.8,0,0,1,15.1,9.5C17.6,45.5,13.5,51,9.2,56.5c-8.1-1-16.9-1.6-26.7-1.9A318.1,318.1,0,0,0,6.1,30.6ZM-28.5,64.5c8.2,2,19.7,1.1,30.5.9C-8,77.5-18.8,89.7-29.3,102A297.3,297.3,0,0,1-71,102C-56.5,88.8-42,76.5-28.5,64.5Zm-53.6,47.9c9.7,3.2,26,2.1,44-.1-10.6,12.7-20.6,25.5-28.5,38.1-24.2,7.5-47.2,14.1-60.9,13.6C-113.9,144.8-98.3,127.9-82.1,112.5Zm-2.3,90.9c-33.2,21.7-66.4,43.5-84.7,63.6a232.1,232.1,0,0,1,31.7-87.8c16.2,1,39.2-6.6,63.5-15.9C-80.8,176.8-84.9,190.3-84.4,203.4ZM171.2,92.5l-24.5,7.9-22.7,7.8H124l-7.4,2.6h-.3l-22.5,8.2h-.2L86,122.1h0c-23.8,9-47.1,18.4-68.4,27.7h0l-20.4,9.1h-.3L-6,160.3l-.6.3-2.7,1.2-.7.3-2.6,1.2-.7.3-2.6,1.2-.6.3-2.6,1.3h0l-8.5,4.1-.5.3-2,1-1,.5-1.8.9-1.2.6-1.7.9-1.2.6-1.6.8-1.3.7-1.5.8-1.3.7-1.4.7-1.3.7-1.3.7-1.5.8-1.2.7-2.3,1.3-.9.5-1.5.9-1,.6-1.4.8-1,.6-1.3.8-.9.6-1.3.8-.9.5-1.2.8-.8.5-1.2.8-.8.5-1.3.8-.6.4-1.8,1.2c8.9-68.5,204.7-206.4,119.9-302.9C62.4-72.9,42.2-43.6,8.9-17-42.4-24.7-93.2-5.1-143.2,51l-12.5-4.1h0l-11.1-3.6c26-16,39.8-38.6,45.9-65.3,27-7.6,38.5-10.1,60.8-16.2,5.2-21.4,5.8-40.2,13.3-56,11.1-23.5,31.4-43.6,58.9-44.9h.8l-1.5-1.1-.5-.3-1-.7-.6-.3-1-.6-.6-.3-1-.5-.6-.3L5-143.7l-.5-.2-1.5-.6H2.8l-1.7-.6-.5-.2-1.2-.3-.7-.2-1.1-.3H-3l-1.1-.2h-.7l-1.2-.2h-.6l-1.5-.2H-18.2l-1.5.2h-.4l-1.8.3h-.6l-1.2.2h-.8l-1.1.2-.8.2-1.1.3-.8.2-1.1.3-.7.2-1.4.4h-.5l-1.8.6-.7.2-1.2.4-.8.3-1.1.4-.8.3-1.1.4-.8.3-1.1.4-.8.3-1.2.5-.6.3-1.8.8-.7.3-1.1.5-.8.4-1,.5-.8.4-.9.5-.8.5-.9.5-.8.5-1,.6-.7.4-1.6,1-.8.5-.9.6-.8.5-.8.6-.8.5-.8.6-.8.6-.8.6-.8.6-.8.6-.7.6-1.4,1.1-.7.6-.8.6-.7.6-.7.6-.7.6-.7.6-.7.6-.7.6-.7.6-.6.6-.7.6-.9.9-.9.9-.6.6-.6.7-.6.6-.6.7-.5.6-.6.7-.5.6-.5.7-.5.6-.5.6-.7.9-.2.3h0a39.5,39.5,0,0,0-6.3,12c-30.9-.3-62.5-3-85.9,20.6-29-2.8-56.8-3.8-81.5-.4l-4,.6-1.3.2-5.2,1c1.6-10.8,3.2-21.7,5.5-31.8,15.9-12.5,31.9-24.9,48.5-35.4,19.2,7.6,39.7,2.4,62.9-8.8l1.2.4h.3l.9.3h.4l.8.3.5.2.8.3,5.4,1.5c-15.7,3.5-41.4,15.9-48.6,27-3.8-3-7.6-6-13.1-7.4a75.8,75.8,0,0,1,11.8,20.5c-18.6-2.1-35.9,5.1-44.5,14l-.6.7-.3.3-.6.8-.2.2-.6.8-.2.2-.7,1c17.5-9.7,34.8-11.3,52-10.3,5.9.3,13-3.2,1.2-16.2,9.9-15.8,44.1-21.1,62.6-21.1,23.1,15.5,44.2-26.3,51.5-37a32.6,32.6,0,0,0,11.7-6c-20.7,2.5-46.4,5.6-69.7,15-2.2,1.7-4.4,8.4-6.5,12.6-2.9-1.9-6.1-3.6-9.4-5.3l-1-.5-3.4-1.7a43.1,43.1,0,0,1,3.6-15.4c37.8-20,76.1-33.9,114.5-45.2h6.4l2.2.2h.1l2.3.2h.1l2.3.3h.1l2.4.4h0l2.4.4h0l2.5.5h0c10.8,2.5,21.7,7.2,28.8,14.7h0a32.1,32.1,0,0,1,2.4,2.8h.1a28.9,28.9,0,0,1,2,3h.1l.8,1.6v.2l.7,1.6h0l.6,1.7v.3l.5,1.7h0c.1.6.2,1.1.3,1.7v.3c.1.6.2,1.2.2,1.8v.3q.1.8.1,1.7v.3c0,.6,0,1.3-.1,1.9v.4c0,.7-.1,1.3-.2,2l-5.2,4.5c-.6-17.8-24.1-27.5-38.3-27.8,16,10.1,26,23.5,26.1,36.1-.4,8.8,9.2,6.9,29.2-6.9,3.1-2.2,3-6.6,2.7-11.2l5.6-1.8,1.5-.5,4.2-1.4,1.4-.5,10.8-3.6,1.3-.5,4.1-1.4,1.2-.4,5.1-1.9h.2l4.7-1.8,1.3-.5,3.7-1.4,7.6-3.1,2.1-.9,1.5-.6,2.1-.9,1.6-.7,1.8-.8,3.4-1.5c48,11.9,99.9,49.4,108.6,114q.2,1.7.4,3.4v1.1c.1.8.2,1.5.2,2.3v1.3c0,.7.1,1.4.1,2.1s0,.9.1,1.4.1,1.3.1,1.9,0,.9,0,1.4,0,1.3,0,1.9,0,.9,0,1.4,0,1.2,0,1.8,0,.9-.1,1.4,0,1.2-.1,1.8v4.6l-.2,1.7-.2,1.4-.2,1.7-.2,1.4-.2,1.6-.2,1.4-.3,1.6-.3,1.4-.3,1.6-.3,1.4-.3,1.6-.3,1.4-.4,1.6-.3,1.3-.4,1.6-.4,1.3-.4,1.5-.4,1.3-.5,1.5-.4,1.3-.5,1.5-.4,1.3-.5,1.5-.4,1.3-.5,1.5-.5,1.3-.5,1.5-.5,1.3-.6,1.5-.5,1.3-.6,1.4-.5,1.3-.6,1.4-.5,1.3-.5,1.3-.6,1.4-.5,1.1-.7,1.6-.3.6C198-8.3,196-3.9,194.1.4h0C181.8,28,169.4,56.1,171.2,92.5ZM-77.7-87.5c-.4-16.4,23.6-44.8,54.5-47-21.7,11-35.3,34.3-41.8,68.5C-68.5-74.5-72.4-82.2-77.7-87.5Zm-47.7-66c7.1-3.1,10.2-4.4,23.2-6.5C-104.4-141.9-119.3-144.4-125.4-153.5ZM242.3,114.2c-22.3-15.1-40-18.7-56.7-19.8-1.9-26,2-30.9,4.7-45.6C213.9,64.4,229.1,88.3,242.3,114.2Zm10.8-43.5c-18.1-22.1-36.3-40.9-55.7-43,6.4-17.2,17.4-34.3,22.7-51.8C231.8,3.3,242.8,34.7,253.2,70.7Zm8-70c-9.3-17.7-21.4-31.4-36.8-40.5,5.1-18.5,7.2-37.1,5-55.6C244-68.2,254.4-35.9,261.1.7ZM225.4-115.6A172.7,172.7,0,0,0,207.7-154c23,18,39.7,38.5,54.7,59.8C251.9-102.7,240.5-110.7,225.4-115.6Z" transform="translate(282.1 304.9)" style="fill:#050000;fill-rule:evenodd"/></svg>