<svg id="eagle" xmlns="http://www.w3.org/2000/svg" viewBox="0 0 828.3 568.6"><title>Eagle319_1c</title><path d="M-256.5-83.3s-10.7,4.6-16.2,12.2c1.6,7.2,3.9,11.3,11.4,16,12,7.6,21.4-3.4,35,21.4C-225.9-54.6-232.5-71.1-256.5-83.3Z" transform="translate(421.1 289.7)" style="fill:#050000"/><path d="M370.8,60.9c9.9,0,20.9,2,35.6,10.3C411.5,42.4,357.1-34.1,277.8-52a157.6,157.6,0,0,1,34.8-3.8c31.9,0,55.4,8.9,55.4,8.9s-54.4-74.2-120.9-92.7c16.2-5.8,38.6-6.4,48.1-6.4h4.6S198.5-289.2-18.2-289.2q-18.5,0-38.2,1.4c-216.3,16.2-249.2,168.9-249.2,168.9s-132.7,56.3-113,160.2c17.1,90.2,85.2,109.5,85.2,109.5s-21.9-66.1,4.8-81.7c4.5-2.6,9.9-3.5,15.4-3.5,12.1,0,24,4.5,24,4.5s-18.9,53.7,28.8,97.9c-3.5-32.3,4.8-36.9,4.8-36.9s19.5,15.2,15,55.5,6.1,64,36.8,84.1c0-34.5,3.5-49.9,13.8-63.6,30.2,45.1,66.6,71.3,131.5,71.3q8.9,0,18.5-.7c-36.2-45.7,2.6-110,2.6-110s14.1,49.6,77.4,66.5c54.6,14.6,80.6-7,121.9,36.8-8.6-83.8-50.1-59.1-59.6-130.1,89.4,98.6,131.1,37.2,194,112.5C285,176.2,242.3,144,242.3,144a313.7,313.7,0,0,0,78.1,9.9c24.5,0,52.1-3.1,78.3-12.7-48.6-25.6-71-51.8-88.9-85.7,13.2,5.9,23.3,7.4,32.4,7.4S361,60.9,370.8,60.9Zm-742,8.3C-407.6-7.9-352.1-63.7-307-84.8-295.3-37-268.5-22.6-255.7-21c-44.1-36-16.8-76.8-32.1-90.2,48-4.3,66.2,12.5,72.1,42.2s39,36.8,65.1,37.4c-67-9-52.8-70-52.8-70,93.8,21.8,122,81.9,122,81.9C-166.9-26.7-307-33.8-371.3,69.2ZM-40.9-115.7c-6.5-9.4-17.9-5-19.1,6.6-6.1-3.4-10.3-12.5-3.4-21.7,9.2-12.2,25.3-3,27.7,1.9.5-5.2.5-9.4-.6-12.5,10.2-2.7,22.6,1.5,22.6,1.5,5,17.9-.2,46.2-28.7,52.6-20.6,4.6-37.4-2.4-47.3-13.8C-59.2-90.3-30.9-101.4-40.9-115.7ZM16.8-92.3C123.6-141.6,195.6,4.9,204.9,29.4,40.7-73.8-30.8,25.7-30.8,25.7s17.6,16.6,70.7,14.7C1.7,57.7-36.9,56.2-60.9,46.9c-3.3,8.3-1.9,25.2,10.6,38C-86.8,64.4-164.2,59.3-164.2,59.3s-4.2,26.5,6.7,61.4c-18.2-13.1-24-40-24-40s-7.8,4.2-12.8,17c-2.9-13.8-14.4-28.5-26.1-36,17.6-12.1,54.7-21.1,104.3-18.8-12.6-14.6-57.6-20.1-57.6-20.1S-110.6,5.9-35.9,12C-29,11.1-21.1-.8-21.1-.8L-52.3-41.6S-57-23.5-67.1-22.8C-75-52.2-99.5-77.4-99.5-77.4S-69.6-52.5,16.8-92.3ZM3.8-137.4s27.6-2.5,35.3,10C21.2-129.5,22.5-114,.3-108,5.5-118.5,3.8-137.4,3.8-137.4ZM-293.3,40.5s41-65.2,181.1-42.1c-66.9,2.5-98.7,21.8-98.7,21.8s17.1,2.4,27.4,13.2c-14.4-.2-27.9,4.6-27.9,4.6S-252.1,21-293.3,40.5ZM265.8,12.6c.5,64.8,33.1,98.5,33.1,98.5-32.1-3-41.6,16-81.9-5.8-12,17.3-9,49.3,9,76.8-26.9-8-96.1-40.1-136.9-91.5C72.2,131.9,73.5,167,87.8,201.9c-68.1,3.2-122.2-65.2-122.2-65.2-33.3,15-51.8,78-47,117.1-73.4-5.8-106.2-83.3-106.2-83.3s-22.1,17.3-30.9,62.6c-12.3-24.2-10.8-43.2-6.5-68.5,6-35.5-16.8-58.8-38.4-63.6-2.4-10.1,3.4-28.3,3.4-28.3l17.5-3c26.8,10.9,42.2,41.8,45.8,75.4,8-15.7,16.8-18.7,16.8-18.7,14.4,31.5,50.5,53.3,94.3,52-24.9-13.1-49.6-52.1-55-78.7,78.7,0,134.6,21.4,161.8,62.7-1.1-36.9-17-63.8-40.9-84C44.2,99.4,54.7,45.7,146.7,93.8,125.7,46.7,70.1,27,70.1,27c81.2,5.7,115.1,14.4,175.7,56C203.2-79.1,111.2-144,27.1-162.7s-107.6,29.4-162.8,42.4-59.5-23.8-59.5-23.8c39.4-55,101.7-33.7,101.7-33.7s-58.5-51.3-109.3,4.3c-22.7,25-40.9,22.1-43.3,6.7C-208.7-219-148-259.9-1.4-265c-10.8,4.2-19.3,11.4-23.3,17.9C98.1-251.6,190-211.4,248-163.5c-31-1.9-54.2,33.1-54.2,33.1C269.2-117.9,274-85.9,274-85.9c-56.9-8.3-38.9,39.5-38.9,39.5,55.6,8.2,84.5,33.8,104.7,66.7C298.9,9.5,294.1,19.3,265.8,12.6Z" transform="translate(421.1 289.7)" style="fill:#050000;stroke:#050000;stroke-miterlimit:10"/></svg>