<svg id="Layer_1" data-name="Layer 1" xmlns="http://www.w3.org/2000/svg" viewBox="0 0 816.2 419.2"><title>Eagle473_4c</title><path d="M-52.4,72.7s-34,21.1-54.5,27.3a110.1,110.1,0,0,1-37.2,4.9s4,10.4,10.4,17.7a26.3,26.3,0,0,0,14.3,8.5l-8.5,3.8s7.8,11.8,20.8,15.7,20.2,3.1,20.2,3.1-7.3,4.4-12.8,5.2l-7.2.9s7.2,13.1,20.5,15.9,21.5-.9,21.5-.9l-13.1,9.8s9,10.4,25.8,12.1,23.5-4.1,23.5-4.1-4,7.5-6.4,10.5a12.2,12.2,0,0,1-4.4,3.8s4.4,4.1,16.3,2.1S0,195.2,0,195.2s11.4,11.9,23.3,13.9,16.3-2.1,16.3-2.1a12.2,12.2,0,0,1-4.4-3.8c-2.4-3.1-6.4-10.5-6.4-10.5s6.7,5.8,23.5,4.1,25.8-12.1,25.8-12.1L65,174.8s8.2,3.7,21.5.9S107,159.8,107,159.8l-7.2-.9c-5.5-.8-12.8-5.2-12.8-5.2s7.2.9,20.2-3.1,20.8-15.7,20.8-15.7l-8.5-3.8a26.3,26.3,0,0,0,14.4-8.5c6.4-7.3,10.4-17.7,10.4-17.7a110.1,110.1,0,0,1-37.2-4.9C86.4,93.7,52.4,72.7,52.4,72.7L0,115Z" transform="translate(408.1 209.6)" style="fill:#050000;fill-rule:evenodd"/><path d="M14.4,121.9s-1.8,17.7-4.1,26.7S0,165.9,0,165.9s-8-8.2-10.3-17.3-4.1-26.7-4.1-26.7L0,117.3Zm4.7-18.5s-.5,18.6-1.7,33.4-7.8,27-9.8,29.2a53.5,53.5,0,0,1-5.6,4.9s-.2,11.6,1.8,16.8,6.7,9.6,12.8,12.4a45.2,45.2,0,0,0,12.7,3.4s-10.1-17.1-11.6-27.8-1.1-27.8-1.1-27.8l2.7-1.4s-.8,20.2,4.3,30.4S40.5,191,51.5,190s15.4-5.5,15.4-5.5a64.7,64.7,0,0,1-19.7-24.9c-7.3-16.3-11-35.6-11-35.6l3.1-3.5s6.7,32.4,16.6,40.9,18.3,8.9,26.4,9,14.5-6.7,14.5-6.7-15.4-3.7-27.9-18.8-25.5-42.4-25.5-42.4l2.3-1.5s18.2,35.3,29.6,41.4,21.8,4.3,29,2.4a19.7,19.7,0,0,0,10.7-6.9s-9.6-.6-22.9-10.4S54.3,94.3,54.3,94.3l1.8-3.2s27.6,25.4,39.2,30.6,21.8,4,29.9-3.1,7.8-8.7,7.8-8.7a89.4,89.4,0,0,1-29.8-4.7C87.9,99.8,50.4,77.7,50.4,77.7Zm-38.3,0s.5,18.6,1.7,33.4,7.8,27,9.8,29.2a53.5,53.5,0,0,0,5.6,4.9s.2,11.6-1.8,16.8-6.7,9.6-12.8,12.4a45.2,45.2,0,0,1-12.7,3.4s10.1-17.1,11.6-27.8,1.1-27.8,1.1-27.8l-2.7-1.4s.8,20.2-4.3,30.4S-40.5,191-51.5,190s-15.4-5.5-15.4-5.5a64.7,64.7,0,0,0,19.7-24.9c7.3-16.3,11-35.6,11-35.6l-3.1-3.5s-6.7,32.4-16.6,40.9-18.3,8.9-26.4,9-14.5-6.7-14.5-6.7,15.4-3.7,27.9-18.8,25.5-42.4,25.5-42.4l-2.3-1.5s-18.2,35.3-29.6,41.4-21.8,4.3-29,2.4a19.7,19.7,0,0,1-10.7-6.9s9.6-.6,22.9-10.4,37.9-33.3,37.9-33.3l-1.8-3.2s-27.6,25.4-39.2,30.6-21.8,4-29.9-3.1-7.8-8.7-7.8-8.7a89.4,89.4,0,0,0,29.8-4.7c15.3-5.3,52.8-27.5,52.8-27.5Z" transform="translate(408.1 209.6)" style="fill:#fff;fill-rule:evenodd"/><path d="M0,132.1l-10-13.7L-8.7,130l-5.5-3.7s-.3,7.9-2.1,12.8-4.9,4.9-4.9,4.9l-26-28.7L-64,83.9a56.4,56.4,0,0,1,.3-14.4c1.2-6.4,2.1-7.6,2.1-7.6l-6.5-15.2-.6-6.4S-71,47-75.5,50.5a26.9,26.9,0,0,1-8.9,4.6,66.9,66.9,0,0,0-.5-12.7,78.3,78.3,0,0,0-1.5-9.6s-1.9,10.7-6.8,17.3-13.4,10.2-13.4,10.2-.2-9-.7-17.1-1.3-9.9-1.3-9.9-1.6,13.9-12,21.7-15.5,7.9-15.5,7.9,1-7.2,1.3-12.2a43.1,43.1,0,0,0,0-7.3,34.9,34.9,0,0,1-9.3,8.4,35.3,35.3,0,0,1-9.6,3.8,114.8,114.8,0,0,0,1.1-12.1c.1-5.2.1-7.4.1-7.4A40.9,40.9,0,0,1-166.9,46c-8.8,3.4-11.1,2.8-11.1,2.8s2.1-6.1,3.1-9.8a63.4,63.4,0,0,0,1.4-6.3s-5.5,5.6-12.7,7.6-9.8,1.6-9.8,1.6,1.9-6.9,2.9-11.7a48.4,48.4,0,0,0,1.1-6.8,35.1,35.1,0,0,1-13.9,7.6c-8.8,2.5-10.8,1.8-10.8,1.8s2.4-7.2,3.3-10.8,1.5-5.7,1.5-5.7a42.4,42.4,0,0,1-15.4,6.8c-9.6,2.3-15.2,2.1-15.2,2.1l4-11.2c1.5-4.3,1.5-5.2,1.5-5.2s-8.7,4.8-17.1,5.8a75.7,75.7,0,0,1-17.2-.3s6-9.2,9.5-14.4,4.2-7.3,4.2-7.3A69.5,69.5,0,0,1-277.2-3c-10.8.8-15.6.2-15.6.2s5-6.6,7.6-10.3l3-4.2a77.8,77.8,0,0,1-19.2,1.7c-9.6-.5-13.7-1.8-13.7-1.8s8.7-7.4,12.4-10.2a34.8,34.8,0,0,0,4.4-3.7,97.2,97.2,0,0,1-27.3,4.1c-14.1-.2-18.1-3.9-18.1-3.9s6.5-4.2,12.7-8.7,7.9-5.9,7.9-5.9-8.4,3.2-24.8,1.5a60.8,60.8,0,0,1-27.7-10.3s19.5-6.3,26.9-9.7a110.4,110.4,0,0,0,10.5-5.3s-11.7,2.1-30.5.5-29.9-12.2-29.9-12.2,26.6-5.6,34.7-7.8,10.4-3.2,10.4-3.2-19.1-.2-35-7.6-19.5-18.5-19.5-18.5,22.6,2.1,41.1.6,29.3-3.2,29.3-3.2-25.9-4.5-40.8-16.9-22-31.1-22-31.1,26.1,15.1,51,21.4,41.2,8.7,41.2,8.7-16.5-11.1-22.1-31.1-.9-39.5-.9-39.5,9.6,32.5,40.8,48.5,49.9,16.3,49.9,16.3-3.8-4.1-6.7-13.1-1.1-18.8-1.1-18.8,6,18.1,37.5,27.2,33.9,8.2,52.8,22.3,62.7,57.7,86.6,64.4,46.4,3.2,52.2,1S0-66.8,0-66.8s13.6,3.1,19.5,5.2,28.4,5.7,52.2-1,67.6-50.4,86.6-64.4,21.4-13.1,52.8-22.3,37.5-27.2,37.5-27.2,1.8,9.8-1.1,18.8-6.7,13.1-6.7,13.1,18.8-.3,49.9-16.3,40.8-48.5,40.8-48.5,4.7,19.5-.9,39.5-22.1,31.1-22.1,31.1,16.3-2.4,41.2-8.7,51-21.4,51-21.4-7,18.8-22,31.1S337.7-121,337.7-121s10.8,1.7,29.3,3.2,41.1-.6,41.1-.6-3.7,11-19.5,18.5-35,7.6-35,7.6,2.3,1.1,10.4,3.2,34.7,7.8,34.7,7.8-11.1,10.5-29.9,12.2-30.5-.5-30.5-.5a110.3,110.3,0,0,0,10.5,5.3c7.4,3.4,26.9,9.7,26.9,9.7A60.8,60.8,0,0,1,348-44.3c-16.4,1.8-24.8-1.5-24.8-1.5s1.6,1.4,7.9,5.9,12.7,8.7,12.7,8.7-4,3.7-18.1,3.9a97.2,97.2,0,0,1-27.3-4.1,34.8,34.8,0,0,0,4.4,3.7c3.7,2.8,12.4,10.2,12.4,10.2s-4.1,1.2-13.7,1.8a77.8,77.8,0,0,1-19.2-1.7l3,4.2c2.6,3.7,7.6,10.3,7.6,10.3s-4.8.6-15.6-.2a69.5,69.5,0,0,1-19.5-4.4s.6,2.1,4.2,7.3,9.5,14.4,9.5,14.4a75.7,75.7,0,0,1-17.2.3c-8.4-1-17.1-5.8-17.1-5.8s-.1.9,1.5,5.2l4,11.2s-5.5.1-15.2-2.1A42.4,42.4,0,0,1,212,16.2s.6,2.1,1.5,5.7,3.3,10.8,3.3,10.8-2.1.7-10.8-1.8A35.1,35.1,0,0,1,192,23.3a48.6,48.6,0,0,0,1.1,6.8c1,4.8,2.9,11.7,2.9,11.7s-2.7.3-9.8-1.6-12.7-7.6-12.7-7.6a63.4,63.4,0,0,0,1.4,6.3c1,3.7,3.1,9.8,3.1,9.8s-2.3.6-11.1-2.8a40.9,40.9,0,0,1-14.5-10.1s0,2.2.1,7.4a114.8,114.8,0,0,0,1.1,12.1,35.3,35.3,0,0,1-9.6-3.8,34.9,34.9,0,0,1-9.3-8.4,43.1,43.1,0,0,0,0,7.3c.3,5,1.3,12.2,1.3,12.2s-5.1-.1-15.5-7.9-12-21.7-12-21.7-.8,1.8-1.3,9.9-.7,17.1-.7,17.1S98,56.7,93.1,50.1s-6.8-17.3-6.8-17.3a78.4,78.4,0,0,0-1.5,9.6,66.9,66.9,0,0,0-.5,12.7,27,27,0,0,1-8.9-4.6C71,47,68.7,40.3,68.7,40.3l-.6,6.4L61.6,61.9s.9,1.2,2.1,7.6A56.4,56.4,0,0,1,64,83.9L47.2,115.3,21.3,144s-3.1,0-4.9-4.9-2.1-12.8-2.1-12.8L8.7,130,10,118.4Z" transform="translate(408.1 209.6)" style="fill:#4d4f53;fill-rule:evenodd"/><path d="M-20.6-57.9s-38.2,14.7-71.7-9.5-70.2-59.8-86.1-65.9-40.1-11.4-51.5-18.2-13.6-11.1-13.6-11.1.5,8.5,8.5,16.8,12.8,9.2,12.8,9.2-47.6-1.4-75-20.3-32.2-37.1-32.2-37.1-3.4,28.7,20.5,46.9,56.2,22.7,84.3,25.2,46.4,5.6,64.4,25.5a583.5,583.5,0,0,0,44.3,44c12.5,11.3,21.1,17.2,29.7,28S-74.2-7.1-74.2-7.1s-1.5-9.3-4.9-14.2l-3.4-4.9s9.7,3.9,14.9,21,4.9,36.5,5.6,44.1,5.6,18.2,5.6,18.2,4.8-6.2,15.5-7.1a15.6,15.6,0,0,1,15.1,7.6s-10.4-6-21.7-.3S-55.3,88-55.3,88l14.1,27.3,18.5,18.6s2.3-2.1,3.5-10.5,1.5-16.2,1.5-16.2l3.1,4.4a115.2,115.2,0,0,1,1.7-11.9,11.2,11.2,0,0,1,3.1-5.5,73.2,73.2,0,0,0-.6,9.5c.2,3.5.3,5.8.3,5.8L0,122.3l10.2-12.8s.2-2.3.3-5.8a73.3,73.3,0,0,0-.6-9.5,11.2,11.2,0,0,1,3.1,5.5,115.2,115.2,0,0,1,1.7,11.9l3.1-4.4s.3,7.8,1.5,16.2,3.5,10.5,3.5,10.5l18.5-18.6L55.3,88s3.4-25-7.9-30.7-21.7.3-21.7.3A15.6,15.6,0,0,1,40.8,50c10.7.9,15.5,7.1,15.5,7.1s4.9-10.5,5.6-18.2.5-27,5.6-44.1,14.9-21,14.9-21l-3.4,4.9c-3.4,4.9-4.9,14.2-4.9,14.2s3.5-6.7,12.1-17.6,17.2-16.7,29.7-28a583.4,583.4,0,0,0,44.3-44c18-19.8,36.3-23.1,64.4-25.5s60.5-7,84.3-25.2,20.5-46.9,20.5-46.9-4.9,18.2-32.2,37.1-75,20.3-75,20.3,4.7-.9,12.8-9.2,8.5-16.8,8.5-16.8-2.1,4.3-13.6,11.1-35.6,12.1-51.5,18.2S125.9-91.5,92.4-67.4s-71.7,9.5-71.7,9.5C12.6-62.3,0-63.2,0-63.2s-12.6.9-20.6,5.3" transform="translate(408.1 209.6)" style="fill:#050000;fill-rule:evenodd"/><path d="M-195.3-113.3c-5.7,1.4-26,5.8-34.4,1.6s-9.2-6.2-9.3-6.7c16.5,1.4,31.5,1.8,37.4,3.3l6.3,1.8m16.1,7.3c-2.2,1.1-10.6,4.8-23.4,6.3-15,1.7-20.8-5.6-20.8-5.6s13.1.8,23.8-2c6.2-1.6,9.7-2.7,11.5-3.3A70.1,70.1,0,0,1-179.2-106Zm12,9.4c-3.3,1.6-15.9,7.3-27.3,8.6-13.3,1.5-18.5-7.6-18.5-7.6s12.8.8,24.1-2.5a145.9,145.9,0,0,0,14.2-4.9,66.7,66.7,0,0,1,7.1,6Zm8.3,8.7a59,59,0,0,1-17.6,7.1,25.4,25.4,0,0,1-20.2-3.4s11.8-.8,21.8-4.6a70.8,70.8,0,0,0,10.8-4.8Zm9.3,10.5c-1.9,1.2-9.6,5.9-17.2,6.2s-16.5-4.3-16.5-4.3,11.9-2.6,18.9-5a31.2,31.2,0,0,0,8.4-4.1Zm9.5,10.5a23.7,23.7,0,0,1-13.3,4.5c-8.2.1-11.7-3.6-11.7-3.6s10.2-3.1,15-5.4l4.1-2Zm8.6,8.5c-1.7,1.4-6.1,4.3-13.8,4.1-10.1-.2-11.8-4.1-11.8-4.1s8.8.3,14.4-2.1a27.3,27.3,0,0,0,5.7-3.1C-135.1-61.6-133.3-59.9-131.5-58.2Zm9.9,8.6a16.8,16.8,0,0,1-13.9,4.4c-8.7-1.4-11.2-4.8-11.2-4.8s7.7.5,13.2-2.1a51.1,51.1,0,0,0,5.5-3Zm11,9.7a17,17,0,0,1-13.6,4.6c-8.6-1.1-10.2-5.2-10.2-5.2s6.4.2,11.2-2.2a36,36,0,0,0,5.5-3.3Zm10.2,9c-1.4,1.2-4.4,2.8-9.8,2.7-8.5-.3-9.9-3.2-9.9-3.2a15.7,15.7,0,0,0,9-2.6,31.5,31.5,0,0,0,3.7-3Z" transform="translate(408.1 209.6)" style="fill:#050000;fill-rule:evenodd"/><path d="M-223.1-100.3a46.7,46.7,0,0,1-28.2,3.2c-17.2-3.4-17.8-11.9-17.8-11.9s9.5,4.4,23.9,3.3a156.7,156.7,0,0,0,17-2,16.6,16.6,0,0,0,3.1,5.7,11.9,11.9,0,0,0,2,1.7m9,8.7a47.6,47.6,0,0,1-22.5,8.3,21.4,21.4,0,0,1-19.9-9.9s8.7,3,21.1.1c8.1-1.9,12.4-4.3,14.5-5.7l2.4,1.2A28.2,28.2,0,0,0-214.1-91.6Zm12.4,8.4c-3.2,2.5-9.7,7.3-16,9.1-8.7,2.4-18.5-3.9-18.5-3.9s7,.1,15.4-5.3c4.7-3,7.5-5,9-6.2a29.2,29.2,0,0,0,8.2,3.7A10,10,0,0,0-201.7-83.2Zm12.2,6.6c-3.4,3-9.5,7.6-15.3,8.2-8.7.9-12.3-1.6-12.3-1.6a48.2,48.2,0,0,0,12.7-7.4,49.8,49.8,0,0,0,4.5-4.3,19.5,19.5,0,0,0,3.6,2.2A56,56,0,0,0-189.6-76.6Zm11.4,7.2a29.5,29.5,0,0,1-9.4,6.5c-8,3.3-16.9-1.2-16.9-1.2s7.6-1.1,12.3-5.7a50.5,50.5,0,0,0,4.9-5.6,12.6,12.6,0,0,0,4.1,3.7A31.2,31.2,0,0,0-178.2-69.4Zm9.3,4.9a21.3,21.3,0,0,1-7.5,9.1c-8.1,5.8-15.3-1.7-15.3-1.7s7.8-1.6,12.6-6.3a31.1,31.1,0,0,0,4.2-5l4.2,1.3A16.9,16.9,0,0,0-168.9-64.5Zm9.4,7.7a14.5,14.5,0,0,1-9.4,7.2c-8,1.9-10.6.5-10.6.5a20.4,20.4,0,0,0,9.7-8.9,53.4,53.4,0,0,0,2.4-5.1,13.2,13.2,0,0,0,2,1.5,29,29,0,0,0,4.4,2.3A13.9,13.9,0,0,0-159.5-56.7Zm9.4,7a14.1,14.1,0,0,1-7.8,7,19.1,19.1,0,0,1-12.2.4l.3-2.1s6.6-2.1,9.5-6.6a39.4,39.4,0,0,0,2.2-4,7.2,7.2,0,0,0,1.6,1.2,30.5,30.5,0,0,0,5.2,2.1A16.9,16.9,0,0,0-150.1-49.7Zm10.9,7.9c-1.7,2.6-5,6.9-8.6,8.2a24.7,24.7,0,0,1-9,1.7l-.5-6.3a15,15,0,0,0,6.3-4.4,13.5,13.5,0,0,0,2.6-4.8,10.8,10.8,0,0,0,2.2,1.8,18.3,18.3,0,0,0,6.2,2.5Zm10.3,8.5c-.5,1.9-1.8,5.8-4,8.3s-8.5,4.9-8.5,4.9-.5-3.3-1.2-6.9-.8-4.5-.8-4.5a32.2,32.2,0,0,0,4.7-5.7,24.3,24.3,0,0,0,1.2-2.3,20,20,0,0,0,2.5,2.6A34.5,34.5,0,0,0-128.8-33.3Zm12.2,8a21.1,21.1,0,0,1-3.6,7.3,16.2,16.2,0,0,1-6.2,4.7s-.5-3.2-1.3-6.3l-.8-3.1s1.1-5.1,1.7-7.9l.3-1.6,1.4.6a19.9,19.9,0,0,0,6.3,5.3Zm12,1.2c-.1,2.3-.4,5.9-1.8,8.4a14.8,14.8,0,0,1-5.7,5.9l-3-8.3s1-4.4,1.3-6.4A23,23,0,0,0-104.7-24.1Zm7.3-3.7,4.1,4.1a16.9,16.9,0,0,1-1.3,7.1,22.8,22.8,0,0,1-3.6,6,25.4,25.4,0,0,0-1.7-4l-1.7-3s-.1-2.2-.1-5a24.7,24.7,0,0,0-.1-2.5A20.2,20.2,0,0,0-97.3-27.8Zm-185.2-101a87.1,87.1,0,0,0,20.5,6.9c9.5,2,17.3,2.8,20,3.1a15.7,15.7,0,0,0,4.7,6.7,19.1,19.1,0,0,0,4.5,2.8C-241.7-108.6-275.6-107.7-282.6-128.8Z" transform="translate(408.1 209.6)" style="fill:#050000;fill-rule:evenodd"/><path d="M-109.7-6.7a78.6,78.6,0,0,1,3.4,14.5,58.7,58.7,0,0,1,.3,13.9s2.6,9.5,3.7,16.3a74.4,74.4,0,0,1,.9,12.2s15-15.6,10.1-34.2S-103-12.1-103-12.1s-2.9,5.5-6.7,5.3m-16.3-2.1s.8,15.9-.5,26.3S-129.1,34-129.1,34V52.5s11.9-.5,16.2-23.4-4.6-42.9-4.6-42.9S-120.7-8.6-126.1-8.9Zm-15.6-6.9s.5,14.5-.8,24.4A63.6,63.6,0,0,1-148,27.3V37.8c0,4-.5,8.7-.5,8.7s11.9-2.7,16.6-25a105.8,105.8,0,0,0,.6-40.8S-137.1-14.5-141.6-15.7ZM-170.3,41s.8-4.6,1.2-8.7a38.6,38.6,0,0,0,.3-6.3A71.7,71.7,0,0,0-158.7.7,152.1,152.1,0,0,0-156.6-29a26.7,26.7,0,0,0,10.2-.9S-140.3,34.9-170.3,41Zm-18.2-6.3s2.1-7.4,3.2-12.8a79.1,79.1,0,0,0,1.3-10.1s5.8-9.5,10-25.4,3.8-24.4,3.8-24.4c1.7.8,6.3,1.6,10.7.9,0,0,0,30.2-8.2,49.8S-188.6,34.7-188.6,34.7Zm-21.7-7.9L-204,6.6a71.3,71.3,0,0,0,14.3-24.3,251.8,251.8,0,0,0,7-26.6c3.2,1.5,7.4.9,9.8.6C-172.9-43.6-177.9,24.2-210.3,26.8ZM-234.1,17-228,1.7a121,121,0,0,0,18.2-26.4,290.8,290.8,0,0,0,13.4-31.6h1.8c1.4,5.3,5.5,6.9,9,7.8C-185.6-48.5-196.6,15.8-234.1,17Zm-27.4-8.2,15.3-23.2s12.8-12.1,21.4-25A153.8,153.8,0,0,0-212-62.8h4c1.6,1.9,5.6,3.9,8.2,4.3C-199.8-58.5-223.3,12.3-261.5,8.8ZM-282.3-8l10.4-14s12.8-7.3,26.7-23.5,17.3-23.1,17.3-23.1a19.9,19.9,0,0,0,7,.2,13.9,13.9,0,0,0,3.2,2.3,8.5,8.5,0,0,0,2.1.9S-243-6.4-282.3-8Zm-20.7-14,18-17.6s15.6-9.6,23.7-16.6S-243-78.3-243-78.3l3.2.3a46.2,46.2,0,0,0,9.3,6.9S-264.3-16.9-303-21.9Zm-29.8-11s7.2-4.7,16.2-11.3,10.5-8.9,10.5-8.9,15-7,26-15.4,22.9-18.6,22.9-18.6c3.5,3.9,8,5.7,11.9,6.7C-245.3-80.4-285.2-29.6-332.7-32.9ZM-363-54.3a273.1,273.1,0,0,0,27.5-10.4c14-6.3,20.3-11,20.3-11s9-2.9,24.1-8.5A268.9,268.9,0,0,0-263-96.8l3.5,1.4a28.8,28.8,0,0,0,.4,3c.3,1.5.5,2.1.5,2.1S-317.3-35.1-363-54.3Zm-25.7-24.8s12.2-1.7,33.7-6.7,33-8.1,33-8.1,18.9-2.4,31.8-5.2a173.8,173.8,0,0,0,19.7-5.2,12.3,12.3,0,0,0,2.9,4,16.8,16.8,0,0,0,2.4,1.8S-342-60.4-388.7-79.1Zm-7.3-32.5,36.6-1.5a328.2,328.2,0,0,0,38.8-4s8.9,1.1,20.5,1.7a87.2,87.2,0,0,0,19.4-.9,27.5,27.5,0,0,0,4.9,3.4l3.5,2,.2,1.7S-323.7-95-353.4-97.5-396-111.7-396-111.7Zm4.9-46.4s20.2,12.8,56.8,19.4,42,6,42,6l5.8,2a16.1,16.1,0,0,0,1.1,6.3,18.1,18.1,0,0,0,2.7,4.4S-355.9-116.1-391.2-158.1ZM-95.5-6.4A81.2,81.2,0,0,1-86.4,13c3.5,11.1,6.9,32.7,6.9,32.7s13.9-15,5.2-37.9-14.8-27-14.8-27S-90-9.5-95.5-6.4Z" transform="translate(408.1 209.6)" style="fill:#050000;fill-rule:evenodd"/><path d="M-48,72.1s-3-17.2-15.7-16S-76.7,68.7-75,71.9a29.9,29.9,0,0,0,4.5,5.9l3.7,8.1S-75.6,75.8-82,75.3-94.9,79-96.3,84.5s.8,7.5.8,7.5a43.2,43.2,0,0,0,.5,7,16.1,16.1,0,0,0,.8,3.5s-7.2,1-11.1,6.1-1.7,9.3-.9,11.6a8.5,8.5,0,0,0,3.1,3.7s3.4,8.1,10.9,10.8,13.1-3.7,13.1-3.7a9.6,9.6,0,0,1-6.3-3.4c-2.5-3.1-2-4.6-2-4.6s8.4-2.3,11.7-2.1a50.7,50.7,0,0,0,7.6-.3s6.6,1.9,10.7,4.7,9.2,8.7,9.2,8.7-.5.6-.1,2.1a15.6,15.6,0,0,0,1,2.9,7,7,0,0,1-4.2-1.1,19.3,19.3,0,0,1-2.6-2s.1,8.1,3.7,13.3,11.9,4.2,14.2,3.2a20.4,20.4,0,0,0,3.9-2.2s5.5-.9,8.6-8.2S-37.3,103.1-48,72.1" transform="translate(408.1 209.6)" style="fill:#050000;fill-rule:evenodd"/><path d="M-70,71.1a9.3,9.3,0,0,1,4.6-4.1c3.1-1.2,7.5.3,8.9,1.9s.9,8.6,1.2,14.2a50.9,50.9,0,0,0,1.6,10l-6.7-4.2s2.2,6.8,4.8,8.8,6.4-.3,6.4-.3.3,1.6-2.6,3.4a7.7,7.7,0,0,1-5.5,1S-70.6,87.3-74.2,83.8a11.6,11.6,0,0,0-14.7-1c-4.9,3.6-3.8,7.5-3.8,7.5s6.7-4.9,11.2-1.2a7.1,7.1,0,0,1,2.4,8.2,5,5,0,0,0,5.5,1.1,6.5,6.5,0,0,0,3.9-4.6,5.9,5.9,0,0,1-.4,5.1,10.3,10.3,0,0,1-3.9,3.3s7,6.2,9.8,6.6,4.8-3.4,4.8-3.4.9,4.1-2.8,5.2-12.9-5.5-12.9-5.5l-3.6.7a10.6,10.6,0,0,0,.9,3,16.6,16.6,0,0,0,2.8,3.6s-5.3,1.1-8.9-.8-7.7-6.2-7.7-6.2-6.8,1-10.5,4.5-.7,9.7-.7,9.7-.6-5.1,5.3-6.3,8.7,4.6,8.7,4.6a8.2,8.2,0,0,0,1.6-4,11.3,11.3,0,0,0-.8-3.6,10,10,0,0,1,2.4,3.2c.7,1.8,0,4.5,0,4.5s6.4-1.9,9.9-2.1,5.8.5,8.6.1,3.9-3.9,3.9-3.9a3.2,3.2,0,0,1,.3,2.8,5.4,5.4,0,0,1-2.3,2.1s7.9,3.4,11.1,5.8,8.3,8.9,8.3,8.9a9.8,9.8,0,0,1,4.6-3.2c3.4-1.3,6.4,1.8,6.4,1.8a20.8,20.8,0,0,0-6.3,1.4,5.8,5.8,0,0,0-3.6,4.6,2.4,2.4,0,0,0,.4,1.5,6.1,6.1,0,0,1,5.7-1.5c3.6.8,6,6.7,6,7.8a8.2,8.2,0,0,1,0,1.2s7.4-.6,2.8-14.3-8.9-23.4-12-31.1-9.9-24.2-11.7-30.3-6.4-10-11.6-8.7-7.4,7.1-4.9,10.1" transform="translate(408.1 209.6)" style="fill:#fff200;fill-rule:evenodd"/><path d="M-92.2,119.3a22.2,22.2,0,0,0,1.5,6.9,15.7,15.7,0,0,0,4.5,5.9s-6.6.1-10.4-5.1-3.5-8-2.3-9.3,6.5-1.4,6.7,1.6m.8-26.8a8.7,8.7,0,0,1,6.2-1.6c3.4.6,3.6,4,3.1,5.9a12.9,12.9,0,0,0-.8,6.5,16,16,0,0,0,2.3,6S-92.3,105.6-91.4,92.5ZM-57,87.6s-.5-4-.8-8.6-.4-8.1-.4-8.1-3.8-2.2-6.4-1.3-3.5,4.9-3.5,4.9A32.8,32.8,0,0,0-57,87.6Zm16.4,52.1s2.1-.6,3.8,2.2,1.1,4.4-1.1,5.7-6.5,2.9-9.6,0a9.5,9.5,0,0,1-3-6.5S-46.2,147.4-40.6,139.7Z" transform="translate(408.1 209.6)" style="fill:#6d6e71;fill-rule:evenodd"/><path d="M0-72.7s-11.6,0-19.5,4.1a45,45,0,0,0-11.9,8.4,80.7,80.7,0,0,0-11.3,1.8,60.7,60.7,0,0,0-13,4.5l4.4,6.7s-8.6,6.3-11.6,11.6A73.6,73.6,0,0,0-68-23.3a39.4,39.4,0,0,1,5.6-.7,26.7,26.7,0,0,1,5.1,0A51.7,51.7,0,0,0-58.6-5.6c1,10.7,6.8,13.8,6.8,13.8s.3-1.8,1.1-5S-49-.9-49-.9s2.1,10.3,6.8,16.8a28.7,28.7,0,0,0,11.1,9.2,16.3,16.3,0,0,1-1.4-4.5c-.2-2-.1-4.2-.1-4.2a30,30,0,0,0,5.7,6.2c3.5,2.9,11.5,8.4,15,12S0,48.9,0,48.9,8.4,38.2,11.9,34.6s11.5-9.2,15-12a30,30,0,0,0,5.7-6.2s.1,2.2-.1,4.2a16.3,16.3,0,0,1-1.4,4.5,28.7,28.7,0,0,0,11.1-9.2C46.9,9.4,49-.9,49-.9s.8.9,1.6,4.1,1.1,5,1.1,5,5.8-3.1,6.8-13.8A51.7,51.7,0,0,0,57.3-24a26.7,26.7,0,0,1,5.1,0,39.4,39.4,0,0,1,5.6.7,73.7,73.7,0,0,0-5.1-12.3c-2.9-5.3-11.6-11.6-11.6-11.6l4.4-6.7a60.7,60.7,0,0,0-13-4.5,80.7,80.7,0,0,0-11.3-1.8,45,45,0,0,0-11.9-8.4C11.6-72.7,0-72.7,0-72.7" transform="translate(408.1 209.6)" style="fill:#050000;fill-rule:evenodd"/><path d="M-31.5-43.7s-4.5,6.1-6.3,9.9a31.5,31.5,0,0,0-2,4.9,34.8,34.8,0,0,1,4.1-2.4,8.6,8.6,0,0,1,2.3-.9A118.9,118.9,0,0,0-36-19.8c-.5,4.3-.6,6.5-.6,6.5A19.7,19.7,0,0,1-34-17.1l1.4-1.4A41.2,41.2,0,0,0-30.5-5.1c2.4,7.2,8.8,14.6,8.8,14.6S-29.1,5.2-32.1.6s-3.3-6.1-3.3-6.1l-1,6.3a38.4,38.4,0,0,1-3.9-13.5c-.7-7.6.3-11.8.3-11.8l-5.2,2.9s1.1-14.4,13.7-22.3m63,0s4.5,6.1,6.3,9.9a31.5,31.5,0,0,1,2,4.9,34.7,34.7,0,0,0-4.1-2.4,8.6,8.6,0,0,0-2.3-.9A119,119,0,0,1,36-19.8c.5,4.3.6,6.5.6,6.5A19.6,19.6,0,0,0,34-17.1l-1.4-1.4A41.2,41.2,0,0,1,30.5-5.1C28.1,2.1,21.7,9.4,21.7,9.4S29.1,5.2,32.1.6s3.3-6.1,3.3-6.1l1,6.3a38.4,38.4,0,0,0,3.9-13.5c.7-7.6-.3-11.8-.3-11.8l5.2,2.9S44.1-35.9,31.5-43.7ZM0-37.6-1-27.4a6.1,6.1,0,0,1-2.5,3c-1.9,1.1-2.7,2.1-4.6,1.1s-9.7-8.9-12.2-10.8-1-5.3.6-7.2-.3-7.5-.3-7.5-.6,6.5-2.2,7.4-3.1,3.5-2.7,6.7a5.7,5.7,0,0,0,3.1,4.4,9.5,9.5,0,0,0-.6,8.3c1.8,4.8,4,5,4,5a5.9,5.9,0,0,1-3.7-.9c-2.1-1.2-2.3-1.9-2.3-1.9a7.5,7.5,0,0,0,3.8,5c3.3,1.7,4.9,1.4,4.9,1.4a46.3,46.3,0,0,0-7.5.6A8.3,8.3,0,0,0-28.1-10,132.4,132.4,0,0,1-15.8-4.4C-12.2-2.2-8.2,2.3-7,6.5S0,22.7,0,22.7,5.8,10.8,7,6.5s5.2-8.8,8.8-10.9A132.4,132.4,0,0,1,28.1-10a8.3,8.3,0,0,0-4.8-2.8,46.3,46.3,0,0,0-7.5-.6s1.6.2,4.9-1.4a7.5,7.5,0,0,0,3.8-5s-.2.7-2.3,1.9a5.9,5.9,0,0,1-3.7.9s2.2-.2,4-5a9.5,9.5,0,0,0-.6-8.3,5.7,5.7,0,0,0,3.1-4.4c.4-3.2-1-5.8-2.7-6.7S20-48.8,20-48.8s-1.9,5.6-.3,7.5,2.5,5.9.6,7.2S9-23.9,8.1-23.3s-2.7,0-4.6-1.1a6.1,6.1,0,0,1-2.5-3ZM0-69.1s-12.7-1.6-21.2,6.7S-31.5-50-36.2-45.8s-7.5,3.3-7.5,3.3a71.7,71.7,0,0,0,6.5-6.4,59.3,59.3,0,0,0,3.5-5.4s-5.6.2-9.2.5a29.5,29.5,0,0,0-7,1.6l4.5,5.6s-9.4,7.3-11.8,10-5.6,8.8-5.6,8.8l7.5-.3,3.2-3a42.7,42.7,0,0,0-3.2,15.8c-.2,9.2,1.8,12.9,1.8,12.9A43.7,43.7,0,0,1-50-11c2.1-3.5,4-4.5,4-4.5A125.4,125.4,0,0,0-43.8,1c1.6,6.8,7.6,15.3,7.6,15.3a34,34,0,0,1-.2-8,21.5,21.5,0,0,1,1-4.8s4.8,10.4,12.4,15.3S0,40.6,0,40.6,15.3,23.8,22.9,18.8,35.4,3.5,35.4,3.5a21.5,21.5,0,0,1,1,4.8,34,34,0,0,1-.2,8S42.2,7.8,43.8,1A125.4,125.4,0,0,0,46-15.4s1.9,1,4,4.5a43.7,43.7,0,0,1,3.5,8.4s1.9-3.7,1.8-12.9a42.8,42.8,0,0,0-3.2-15.8l3.2,3,7.5.3s-3.2-6.1-5.6-8.8-11.8-10-11.8-10l4.5-5.6a29.5,29.5,0,0,0-7-1.6c-3.7-.3-9.2-.5-9.2-.5a59.2,59.2,0,0,0,3.5,5.4,71.7,71.7,0,0,0,6.5,6.4s-2.9.8-7.5-3.3-6.5-8.3-15-16.6S0-69.1,0-69.1Z" transform="translate(408.1 209.6)" style="fill:#fff;fill-rule:evenodd"/><path d="M-5.9-16.2c.6,0,.8.9.5,2s-1.1,2-1.8,2-.8-.9-.5-2,1.1-2,1.8-2M-11-5.6a2.7,2.7,0,0,0,4.2-.5c1.9-2.7,2.4-4.5,3.6-5.7a8.8,8.8,0,0,1,2-1.6A6,6,0,0,0-6-10.6C-8.1-7.8-7.2-6.7-11-5.6ZM5.9-16.2c-.6,0-.8.9-.5,2s1.1,2,1.8,2,.8-.9.5-2S6.5-16.2,5.9-16.2ZM11-5.6a2.7,2.7,0,0,1-4.2-.5c-1.9-2.7-2.4-4.5-3.6-5.7a8.8,8.8,0,0,0-2-1.6A6,6,0,0,1,6-10.6C8.1-7.8,7.2-6.7,11-5.6ZM0-23.6a16.7,16.7,0,0,0-6.6,3.8c-2.7,2.9-4.3,8.5-4.3,8.5a70.2,70.2,0,0,0-7.7.4A7,7,0,0,0-22-9.8s7.5,3,11.3,6.4A21.9,21.9,0,0,1-4.3,6.9a46,46,0,0,0,2.8,8.3,7.5,7.5,0,0,0,1.5,2,7.5,7.5,0,0,0,1.5-2A46,46,0,0,0,4.3,6.9,21.9,21.9,0,0,1,10.7-3.4C14.5-6.8,22-9.8,22-9.8a7,7,0,0,0-3.3-1.1,70.2,70.2,0,0,0-7.7-.4S9.3-17,6.6-19.8A16.7,16.7,0,0,0,0-23.6Z" transform="translate(408.1 209.6)" style="fill:#fff200;fill-rule:evenodd"/><path d="M-17.8-27.3l1.9,2a2.7,2.7,0,0,0-.7,1.8,2.7,2.7,0,0,0,2.7,2.7,2.7,2.7,0,0,0,1.8-.7l1.2,1.2s-1.9,3.4-5.3,1.8c-4.9-2.4-1.7-8.8-1.7-8.8" transform="translate(408.1 209.6)" style="fill:#fff;fill-rule:evenodd"/><path d="M17.8-27.3l-1.9,2a2.7,2.7,0,0,1,.8,1.9,2.7,2.7,0,0,1-2.7,2.7,2.7,2.7,0,0,1-1.9-.7l-1.2,1.2s1.9,3.4,5.3,1.8c4.9-2.4,1.7-8.8,1.7-8.8" transform="translate(408.1 209.6)" style="fill:#fff;fill-rule:evenodd"/><path d="M195.3-113.3c5.7,1.4,26,5.8,34.4,1.6s9.2-6.2,9.3-6.7c-16.5,1.4-31.5,1.8-37.4,3.3l-6.3,1.8M179.2-106c2.2,1.1,10.6,4.8,23.4,6.3,15,1.7,20.8-5.6,20.8-5.6s-13.1.8-23.8-2c-6.2-1.6-9.7-2.7-11.5-3.3A70.1,70.1,0,0,0,179.2-106Zm-12,9.4c3.3,1.6,15.9,7.3,27.3,8.6,13.3,1.5,18.5-7.6,18.5-7.6s-12.8.8-24.1-2.5a145.9,145.9,0,0,1-14.2-4.9,66.7,66.7,0,0,0-7.1,6Zm-8.3,8.7a59,59,0,0,0,17.6,7.1,25.4,25.4,0,0,0,20.2-3.4S185-84.9,175-88.7a70.8,70.8,0,0,1-10.8-4.8Zm-9.3,10.5c1.9,1.2,9.6,5.9,17.2,6.2s16.5-4.3,16.5-4.3-11.9-2.6-18.9-5a31.2,31.2,0,0,1-8.4-4.1Zm-9.5,10.5a23.7,23.7,0,0,0,13.3,4.5c8.2.1,11.7-3.6,11.7-3.6s-10.2-3.1-15-5.4l-4.1-2Zm-8.6,8.5c1.7,1.4,6.1,4.3,13.8,4.1,10.1-.2,11.8-4.1,11.8-4.1s-8.8.3-14.4-2.1a27.3,27.3,0,0,1-5.7-3.1C135.1-61.6,133.3-59.9,131.5-58.2Zm-9.9,8.6a16.8,16.8,0,0,0,13.9,4.4c8.7-1.4,11.2-4.8,11.2-4.8s-7.7.5-13.2-2.1a51.1,51.1,0,0,1-5.5-3Zm-11,9.7a17,17,0,0,0,13.6,4.6c8.6-1.1,10.2-5.2,10.2-5.2s-6.4.2-11.2-2.2a35.9,35.9,0,0,1-5.5-3.3Zm-10.2,9c1.4,1.2,4.4,2.8,9.8,2.7,8.5-.3,9.9-3.2,9.9-3.2a15.7,15.7,0,0,1-9-2.6,31.5,31.5,0,0,1-3.7-3Z" transform="translate(408.1 209.6)" style="fill:#050000;fill-rule:evenodd"/><path d="M223.1-100.3a46.7,46.7,0,0,0,28.2,3.2c17.2-3.4,17.8-11.9,17.8-11.9s-9.5,4.4-23.9,3.3a156.6,156.6,0,0,1-17-2,16.7,16.7,0,0,1-3.1,5.7,11.9,11.9,0,0,1-2,1.7m-9,8.7a47.7,47.7,0,0,0,22.5,8.3,21.4,21.4,0,0,0,19.9-9.9s-8.7,3-21.1.1c-8.1-1.9-12.4-4.3-14.5-5.7l-2.4,1.2A28.2,28.2,0,0,1,214.1-91.6Zm-12.4,8.4c3.2,2.5,9.7,7.3,16,9.1,8.7,2.4,18.5-3.9,18.5-3.9s-7,.1-15.4-5.3c-4.7-3-7.5-5-9-6.2a29.2,29.2,0,0,1-8.2,3.7A10,10,0,0,1,201.7-83.2Zm-12.2,6.6c3.4,3,9.5,7.6,15.3,8.2,8.7.9,12.3-1.6,12.3-1.6a48.2,48.2,0,0,1-12.7-7.4,49.8,49.8,0,0,1-4.5-4.3,19.5,19.5,0,0,1-3.6,2.2A56,56,0,0,1,189.6-76.6Zm-11.4,7.2a29.5,29.5,0,0,0,9.4,6.5c8,3.3,16.9-1.2,16.9-1.2s-7.6-1.1-12.3-5.7a50.4,50.4,0,0,1-4.9-5.6,12.6,12.6,0,0,1-4.1,3.7A31.2,31.2,0,0,1,178.2-69.4Zm-9.3,4.9a21.3,21.3,0,0,0,7.5,9.1c8.1,5.8,15.3-1.7,15.3-1.7s-7.8-1.6-12.6-6.3a31,31,0,0,1-4.2-5L170.8-67A16.9,16.9,0,0,1,168.9-64.5Zm-9.4,7.7a14.5,14.5,0,0,0,9.4,7.2c8,1.9,10.6.5,10.6.5a20.4,20.4,0,0,1-9.7-8.9,53.3,53.3,0,0,1-2.4-5.1,13.2,13.2,0,0,1-2,1.5,29,29,0,0,1-4.4,2.3A13.9,13.9,0,0,1,159.5-56.7Zm-9.4,7a14.1,14.1,0,0,0,7.8,7,19.1,19.1,0,0,0,12.2.4l-.3-2.1s-6.6-2.1-9.5-6.6a39.3,39.3,0,0,1-2.2-4,7.2,7.2,0,0,1-1.6,1.2,30.5,30.5,0,0,1-5.2,2.1A16.9,16.9,0,0,1,150.1-49.7Zm-10.9,7.9c1.7,2.6,5,6.9,8.6,8.2a24.7,24.7,0,0,0,9,1.7l.5-6.3a15,15,0,0,1-6.3-4.4,13.5,13.5,0,0,1-2.6-4.8,10.8,10.8,0,0,1-2.2,1.8,18.3,18.3,0,0,1-6.2,2.5Zm-10.3,8.5c.5,1.9,1.8,5.8,4,8.3s8.5,4.9,8.5,4.9.5-3.3,1.2-6.9.8-4.5.8-4.5a32.2,32.2,0,0,1-4.7-5.7,24.2,24.2,0,0,1-1.2-2.3,20,20,0,0,1-2.5,2.6A34.5,34.5,0,0,1,128.8-33.3Zm-12.2,8a21.1,21.1,0,0,0,3.6,7.3,16.2,16.2,0,0,0,6.2,4.7s.5-3.2,1.3-6.3l.8-3.1s-1.1-5.1-1.7-7.9l-.3-1.6-1.4.6a19.9,19.9,0,0,1-6.3,5.3Zm-12,1.2c.1,2.3.4,5.9,1.8,8.4a14.8,14.8,0,0,0,5.7,5.9l3-8.3s-1-4.4-1.3-6.4A23,23,0,0,1,104.7-24.1Zm-7.3-3.7-4.1,4.1a16.9,16.9,0,0,0,1.3,7.1,22.8,22.8,0,0,0,3.6,6,25.4,25.4,0,0,1,1.7-4l1.7-3s.1-2.2.1-5a24.7,24.7,0,0,1,.1-2.5A20.2,20.2,0,0,1,97.3-27.8Zm185.2-101a87.1,87.1,0,0,1-20.5,6.9c-9.5,2-17.3,2.8-20,3.1a15.7,15.7,0,0,1-4.7,6.7,19.1,19.1,0,0,1-4.5,2.8C241.7-108.6,275.6-107.7,282.6-128.8Z" transform="translate(408.1 209.6)" style="fill:#050000;fill-rule:evenodd"/><path d="M109.7-6.7a78.5,78.5,0,0,0-3.4,14.5,58.7,58.7,0,0,0-.3,13.9s-2.6,9.5-3.7,16.3a74.5,74.5,0,0,0-.9,12.2S86.5,34.6,91.4,16,103-12.1,103-12.1s2.9,5.5,6.7,5.3m16.3-2.1s-.8,15.9.5,26.3S129.1,34,129.1,34V52.5s-11.9-.5-16.2-23.4,4.6-42.9,4.6-42.9S120.7-8.6,126.1-8.9Zm15.6-6.9s-.5,14.5.8,24.4A63.6,63.6,0,0,0,148,27.3V37.8c0,4,.5,8.7.5,8.7s-11.9-2.7-16.6-25a105.8,105.8,0,0,1-.6-40.8S137.1-14.5,141.6-15.7ZM170.3,41s-.8-4.6-1.2-8.7a38.6,38.6,0,0,1-.3-6.3A71.7,71.7,0,0,1,158.7.7,152.1,152.1,0,0,1,156.6-29a26.7,26.7,0,0,1-10.2-.9S140.3,34.9,170.3,41Zm18.2-6.3s-2.1-7.4-3.2-12.8a79,79,0,0,1-1.3-10.1s-5.8-9.5-10-25.4S170.3-38,170.3-38c-1.7.8-6.3,1.6-10.7.9,0,0,0,30.2,8.2,49.8S188.6,34.7,188.6,34.7Zm21.7-7.9L204,6.6a71.3,71.3,0,0,1-14.3-24.3,251.7,251.7,0,0,1-7-26.6c-3.2,1.5-7.4.9-9.8.6C172.9-43.6,177.9,24.2,210.3,26.8ZM234.1,17,228,1.7a121,121,0,0,1-18.2-26.4,290.6,290.6,0,0,1-13.4-31.6h-1.8c-1.4,5.3-5.5,6.9-9,7.8C185.6-48.5,196.6,15.8,234.1,17Zm27.4-8.2L246.2-14.4s-12.8-12.1-21.4-25A153.7,153.7,0,0,1,212-62.8h-4c-1.6,1.9-5.6,3.9-8.2,4.3C199.8-58.5,223.3,12.3,261.5,8.8ZM282.3-8,271.9-22s-12.8-7.3-26.7-23.5-17.2-23.1-17.2-23.1a19.9,19.9,0,0,1-7,.2,13.9,13.9,0,0,1-3.2,2.3,8.5,8.5,0,0,1-2.1.9S243-6.4,282.3-8Zm20.7-14-18-17.6s-15.6-9.6-23.7-16.6S243-78.3,243-78.3l-3.2.3a46.2,46.2,0,0,1-9.3,6.9S264.3-16.9,303-21.9Zm29.8-11s-7.2-4.7-16.2-11.3S306-53.1,306-53.1s-15-7-26-15.4-22.9-18.6-22.9-18.6c-3.5,3.9-8,5.7-11.9,6.7C245.3-80.4,285.2-29.6,332.7-32.9ZM363-54.3a273.2,273.2,0,0,1-27.5-10.4c-14-6.3-20.3-11-20.3-11s-9-2.9-24.1-8.5A268.9,268.9,0,0,1,263-96.8l-3.5,1.4a28.9,28.9,0,0,1-.4,3c-.3,1.5-.5,2.1-.5,2.1S317.3-35.1,363-54.3Zm25.7-24.8s-12.2-1.7-33.7-6.7-33-8.1-33-8.1-18.9-2.4-31.8-5.2a173.7,173.7,0,0,1-19.7-5.2,12.3,12.3,0,0,1-2.9,4,16.8,16.8,0,0,1-2.4,1.8S342-60.4,388.7-79.1Zm7.3-32.5-36.6-1.5a328.2,328.2,0,0,1-38.8-4s-8.9,1.1-20.5,1.7a87.2,87.2,0,0,1-19.4-.9,27.5,27.5,0,0,1-4.9,3.4l-3.5,2-.2,1.7S323.7-95,353.4-97.5,396-111.7,396-111.7Zm-4.9-46.4s-20.2,12.8-56.8,19.4-42,6-42,6l-5.8,2a16.2,16.2,0,0,1-1.1,6.3,18.1,18.1,0,0,1-2.7,4.4S355.9-116.1,391.2-158.1ZM95.5-6.4A81.2,81.2,0,0,0,86.4,13c-3.5,11.1-6.9,32.7-6.9,32.7s-13.9-15-5.2-37.9,14.8-27,14.8-27S90-9.5,95.5-6.4Z" transform="translate(408.1 209.6)" style="fill:#050000;fill-rule:evenodd"/><path d="M47.9,72.1s3-17.2,15.7-16,13,12.6,11.3,15.8a29.9,29.9,0,0,1-4.5,5.9l-3.7,8.1s8.7-10.1,15.1-10.6S94.8,79,96.1,84.5s-.8,7.5-.8,7.5a43.2,43.2,0,0,1-.5,7,16.1,16.1,0,0,1-.8,3.5s7.2,1,11.1,6.1,1.7,9.3.9,11.6a8.5,8.5,0,0,1-3.1,3.7s-3.4,8.1-10.9,10.8-13.1-3.7-13.1-3.7a9.6,9.6,0,0,0,6.3-3.4c2.5-3.1,2-4.6,2-4.6s-8.4-2.3-11.7-2.1a50.7,50.7,0,0,1-7.6-.3s-6.6,1.9-10.7,4.7-9.2,8.7-9.2,8.7.5.6.1,2.1a15.6,15.6,0,0,1-1,2.9,7,7,0,0,0,4.2-1.1,19.4,19.4,0,0,0,2.6-2s-.1,8.1-3.7,13.3-11.9,4.2-14.2,3.2a20.4,20.4,0,0,1-3.9-2.2s-5.5-.9-8.6-8.2,13.6-38.9,24.4-69.8" transform="translate(408.1 209.6)" style="fill:#050000;fill-rule:evenodd"/><path d="M69.9,71.1a9.3,9.3,0,0,0-4.6-4.1c-3.1-1.2-7.5.3-8.9,1.9s-.9,8.6-1.2,14.2a50.8,50.8,0,0,1-1.6,10l6.7-4.2s-2.2,6.8-4.8,8.8-6.4-.3-6.4-.3-.3,1.6,2.6,3.4a7.7,7.7,0,0,0,5.5,1S70.4,87.3,74.1,83.8a11.6,11.6,0,0,1,14.7-1c4.9,3.6,3.8,7.5,3.8,7.5s-6.7-4.9-11.2-1.2a7.1,7.1,0,0,0-2.4,8.2,5,5,0,0,1-5.5,1.1,6.5,6.5,0,0,1-3.9-4.6,6,6,0,0,0,.4,5.1,10.3,10.3,0,0,0,3.9,3.3s-7,6.2-9.8,6.6-4.8-3.4-4.8-3.4-1,4.1,2.8,5.2,12.9-5.5,12.9-5.5l3.6.7a10.6,10.6,0,0,1-.9,3,16.6,16.6,0,0,1-2.8,3.6s5.3,1.1,8.9-.8,7.7-6.2,7.7-6.2,6.8,1,10.5,4.5.7,9.7.7,9.7.6-5.1-5.3-6.3-8.7,4.6-8.7,4.6a8.2,8.2,0,0,1-1.6-4,11.3,11.3,0,0,1,.8-3.6,9.9,9.9,0,0,0-2.4,3.2c-.7,1.8,0,4.5,0,4.5s-6.4-1.9-9.9-2.1-5.8.5-8.6.1-3.9-3.9-3.9-3.9a3.2,3.2,0,0,0-.3,2.8,5.4,5.4,0,0,0,2.3,2.1s-7.9,3.4-11.1,5.8-8.3,8.9-8.3,8.9a9.8,9.8,0,0,0-4.6-3.2c-3.4-1.3-6.4,1.8-6.4,1.8a20.8,20.8,0,0,1,6.3,1.4,5.8,5.8,0,0,1,3.6,4.6,2.4,2.4,0,0,1-.4,1.5,6.1,6.1,0,0,0-5.7-1.5c-3.6.8-6,6.7-6,7.8a8.3,8.3,0,0,0,0,1.2s-7.4-.6-2.8-14.3,8.9-23.4,12-31.1,9.9-24.2,11.7-30.3S59.8,59.6,65,61s7.4,7.1,4.9,10.1" transform="translate(408.1 209.6)" style="fill:#fff200;fill-rule:evenodd"/><path d="M92.1,119.3a22.2,22.2,0,0,1-1.5,6.9,15.7,15.7,0,0,1-4.5,5.9s6.6.1,10.4-5.1,3.5-8,2.3-9.3-6.5-1.4-6.7,1.6m-.8-26.8a8.7,8.7,0,0,0-6.2-1.6c-3.4.6-3.6,4-3.1,5.9a12.9,12.9,0,0,1,.8,6.5,16,16,0,0,1-2.3,6S92.2,105.6,91.3,92.5ZM56.9,87.6s.5-4,.8-8.6.4-8.1.4-8.1,3.8-2.2,6.4-1.3,3.5,4.9,3.5,4.9A32.8,32.8,0,0,1,56.9,87.6ZM40.5,139.7s-2.1-.6-3.8,2.2-1.1,4.4,1.1,5.7,6.5,2.9,9.6,0a9.5,9.5,0,0,0,3-6.5S46,147.4,40.5,139.7Z" transform="translate(408.1 209.6)" style="fill:#6d6e71;fill-rule:evenodd"/></svg>