<svg id="Layer_1" data-name="Layer 1" xmlns="http://www.w3.org/2000/svg" viewBox="0 0 678 586.6"><title>Eagle238_2c</title><path d="M263.6,293.3c-9.7,0-15.1-7.6-17.9-11.7l-1.3-1.8-1.8-1.4c-9-6.8-12.1-9.7-11.2-20.6a84.7,84.7,0,0,0,.2-11.9c-4.7-.3-9.6-.8-15.3-1.4-14.9,9.9-33.5,16.3-56.6,19.6l-22.2,3.2,9.2-13.6a136.2,136.2,0,0,1-19,1.4,132.6,132.6,0,0,1-17.3-1.1l-25.4-3.3,9.8-6.9-8,.2a90.7,90.7,0,0,1-18.5-1.6L46,237.5l2.2-1.6a195.9,195.9,0,0,1-23.8-2.2c-32.5,17.3-62.9,33.1-80.6,38.6l-.9.3H-58a127.7,127.7,0,0,1-13.7.7,126,126,0,0,1-51.6-11.2c-30-1.1-49.1-10.7-58.3-29.4-14.1-8.7-21.9-18.3-23.2-28.6-17.7-11.1-26.2-35.5-28.3-48l-2.9-16.9,16.1,5.8c50.2,18.1,93.6,26.9,132.8,26.9,28.8,0,55.5-4.9,79.3-14.6l5.9-6.5a53.1,53.1,0,0,1-9.2-2.4l-5.6.2c-11.1,0-20.6-2.7-28.3-8.1-18.7-.2-32.7-4.2-42.5-12.3-19.4-2.3-34-7.5-44.4-15.7-25.7-4.4-42.4-12.8-50.9-25.3C-198.6,83-211.4,75.2-221,64.1c-59-4.2-88.8-28.7-87.7-51.4l.5-9.4,11.2-.2,23.4-.5C-306.3-12.2-336.2-43.1-338-67l-1-13.2,12.9,2.6c49.6,10,105,20.8,160.1,30.2-5.3-3.1-10.1-6.1-14.5-9.1l-.7-.5c-14-11.6-30.1-56.7-33.6-76.8l-4.7-27.5,21.1,18.3c21.7,18.8,43.4,34.2,65.4,46.6l10.9-2.2,10.6-2.1,1.1-.2c-15.7-15.1-30-29.4-32.4-43.5l-2.2-12.8,25.3,2.2c-10.9-19.5-18.4-36-23.5-51.8l-6.7-20.8,20.1,8.5c15.3,6.5,30.9,12.6,46.9,18.5l-.4-1c-13.3-29.3-17.1-46.2-13.3-58.3l4.4-14,11.4,9.2c11.1,8.9,24.4,18.8,40.7,30-2.7-12.3-3.9-26.2.1-39.7l5.6-19,11.9,15.8c18.4,24.4,42.9,49.1,62.7,69,11.4,11.5,21.3,21.4,28.4,29.6,7.3-8.8,16.7-17.8,31-24l16.4-7.2-2.5,17.7c-5.4,38,.1,51.3,10,75.4l1.9,4.6,2.1,5.1-3.2,4.5c-10.9,15.4-12.4,45.1-3.5,72.2,6.7,20.7,18.3,36,31.2,41.4l22.1-3,2.2,8.7c9,36.3,12.8,70.9,16.2,106l.3,2.7-1.2,2.5a96.1,96.1,0,0,0-6,19.1c16.9,15.7,28.2,24.4,50.9,29.4a14.1,14.1,0,0,1,9.3,6.3,14.7,14.7,0,0,1,1.9,4.7c5.9-.2,6.7-2.3,7.7-10.6.5-4.2,1-8.5,4.3-11.8,7.2-7.3,15.2-11.1,23.8-11.1a33.1,33.1,0,0,1,12.2,2.5l5.4,2.1a29.1,29.1,0,0,1,7-.9,25.9,25.9,0,0,1,24.8,17.4l5.9,16.9-10.8-2.3a22.5,22.5,0,0,1,1.1,3.8c1.9,9.6-3.1,17.9-7,23.3l-1.9,2.6a28.6,28.6,0,0,1-.1,4.3c-1,9.5-6.7,17.1-15,19.9l-3.2,1.1-.7,1v-.8l-8.5,2.8-.7-10.6a101.5,101.5,0,0,1-14.2,6.2l4.9,6.6c3.6,5,4.5,12,2.4,20.5-.4,1.7-4.3,16.7-13.4,21.1A19.5,19.5,0,0,1,263.6,293.3Zm3.7-45.7a8,8,0,0,0,.1,1.5l3.4-3.2A28.1,28.1,0,0,0,267.3,247.6Z" transform="translate(339 293.3)" style="fill:#fff;fill-rule:evenodd"/><path d="M181.1,162.7l-13.2-12.2c-7.8-7.2-17.4-17.5-21.6-31l-.2.4-7.3-18.6A64.4,64.4,0,0,1,134.2,75l-3,2.8-.7-22.5c-.6-21,16.4-40.8,28.9-45.8l1.7-.7H167c55.1,0,118.1,28.2,140.5,62.8l2.1,3.3-1.8,10.7,2.7,4.6a162.8,162.8,0,0,1,8.6,15.6l.2.6c2.5,6.9.2,16-6.3,25.2-7.9,11.3-23.3,23.4-42.4,23.4h-2.7l-16.1-.9,8-14a54,54,0,0,0,4.8-10.9,89.4,89.4,0,0,0-44.1-12c-11.8,0-19.8,2.7-22.4,4.5-7.2,5.1-12,15.6-13.6,23.7Z" transform="translate(339 293.3)" style="fill:#fff;fill-rule:evenodd"/><path d="M166.6,18.9,150.8,21C109.8,7.2,91.7-73.8,116.2-108.6c-11.2-27.3-18.7-42-12.6-85.1-17.3,7.5-26.2,19.3-35,31.2-12.3-19.6-65-63.9-99.1-109-4.4,14.9-1.5,31.4,3.9,48.3l24.3,25.5c-32.8-21.1-62.4-41.3-84.8-59.3-3.5,10.9,3.2,29.8,12.8,51.2,21.3,13.5,44.7,27.5,70.9,42a1260.3,1260.3,0,0,1-130.3-46.2c5.7,17.5,13.9,34.3,23.1,50.8a641.9,641.9,0,0,0,66,20.7l-88.3-7.7c2.2,12.8,20.1,28.9,36.5,44.7a169.9,169.9,0,0,0,30.2.6c-13.8,4.5-34.6,8.1-53.9,12,2.5,6.3,8.8,12,15.8,17.5-36.2-15.2-69.5-37.2-100.6-64.2,3.4,19.9,19.1,61.6,30.1,70.8,19.3,13.4,46.9,26,77.4,38.3C-171.8-37.1-250.4-52.2-328-67.8c1.7,23.1,39.4,58.9,76.2,67.6,24.8,2.7,48.3,4.6,70.8,6-38.3,6.2-78,6.8-117.7,7.5-.9,17.7,29.1,38.3,82.7,41.2,8.5,11.5,21,20.1,39.6,24.3,6.4,12.8,23.5,20.6,48.7,24.6,9.2,8.2,23.7,13.5,44.4,15.6,8.8,8.7,23.2,12.2,41.5,11.9,8.8,7.4,19.9,9,32.2,7.7,5.8,2.8,15.6,4.1,28.8,4.1L-1.9,165.9c-74,31.1-157.1,11.9-221.4-11.3,1.7,9.8,10,36.3,28.5,43.6-1.7,9.6,5.5,18.8,21,27.7,7.9,19,27.4,25.8,52.8,26.4a115.1,115.1,0,0,0,61.9,10.5c17.4-5.4,49-21.9,81.8-39.4a182.4,182.4,0,0,0,59.6.4l-12,8.6c13.5,2.9,35.5.8,58.8-2-5.5,4.6-11.2,9.1-17.5,13.5,22.4,3,39.8-.8,56.9-4.9l-10.2,15.2c21.2-3,40.2-9,55.4-20.1,9,1.1,18,1.9,27.1,2.2,3.5,32.2-5.9,23.6,10,35.7,3.7,2.9,7.5,14.9,17.1,10.2,4.8-2.4,12.1-20.1,7.3-26.6l-8.3,7.8c-8.6-1.2-12.1-17.9-7.1-22.5,6.8-6.3,26.3-8.6,35.4-18.5,4.8,1,6.8,5.3,7.2,11.4,10.7-3.6,12.3-22.4-3-31.3.8-1.9,1.7-3.8,2.7-4.4,9.6,1.6,12.9,6.2,12.4,12.5,6.8-9.4,10-18.8-6.5-28.8a18.1,18.1,0,0,1,15.9-3.7c-4.2-11.9-21.8-17.3-37.2,2.4l-4,1.6c-2-7.4.3-13.3,9.7-16.6-8.4-3.3-16.9-2.2-25.3,6.3-3.8,3.8,3.7,30.8-29.5,24.4,1.6-5.9.9-9.6-2.9-10.3-27-5.9-39.9-17-59.8-35.6,1.5-9,4.4-19.4,7.9-26.8-3.5-35.8-7.2-69.4-16-104.6" transform="translate(339 293.3)" style="fill:#050000;fill-rule:evenodd"/><path d="M117.9,33.4A45.9,45.9,0,0,1,136.5,22C103.1,6.6,83.7-73.6,108.9-109.5c-12.3-21.7-16.9-43.5-17.3-65.5-6.4,5.1-11.4,12.3-16.5,20.3-2.3,5.8-3.1,13.1-3.3,22.1-4.8-9.9-3-14.5-4.6-21.8-3.9-11.3-68.8-67.4-88.9-94.3,3.3,31.6,9.8,28.6,35.5,60.6L38.5-167c-48.1-25.6-83.9-49.6-116.6-73.1,2.5,9.4,6.6,19.6,11.1,30l94,58.7C-24.5-161.8-74.2-175.6-120-196.7c3.4,10.1,9.4,20.8,15.1,31.5A821,821,0,0,0-19.2-137L12-134.9c-39.7,3.4-84,1.9-130.7-1.9,6.4,9.1,14.1,18.5,28.6,29.3q18.7,1,35.2.6a24.3,24.3,0,0,1,2.5-8.6l5.7,8.2c15.7-.7,31.4-1.9,47.1-5.4L-39.3-98.5c2.5,4.6,6.7,9.5,12.4,14.7,7.7-1.8,15.3-3.7,22.5-5.7A107.1,107.1,0,0,1-20.6-78.8,109.8,109.8,0,0,0-8.3-68.2,101.1,101.1,0,0,0,5.2-70.5L-2-63.9,36.5-34C54.3,3.2,79.2,27.6,107.1,46.6c11.8.6,24.1,1.6,32.5-.8-6.4,4.2-15.9,5.7-23.9,8.4,7.4,8.5,7.2,17.7,3.5,27.2,1.2-21.7-22.4-29.5-37.7-42C60.9,22.7,43.6-.5,28.2-27.7c-2.5-5.1-57.3-40.7-71-59.6a111.7,111.7,0,0,0,3.1,28.5c10.2,16.5,22.3,28.1,36,36.3-79.7-21-135.1-51.7-177.2-80.9,3.7,8.7,7.1,17.4,11.9,26.3,22.7,23.5,71,44.9,124.9,65.9-90.8-7.2-180.5-26-268.2-41.6,20.9,27.1,46.7,44.3,80.2,46.2,56.3,3.3,111.8,5,168.8,9.7C-134,11.3-214.5,23.5-282.6,22.2c18.4,22.5,49.9,23.3,76.4,22.2,48.7-1.9,96.4-14.7,144.6-22.1C-109,39.8-155.7,51-201.7,54.1-173.8,82.9-117.2,74.6-37,35.6c-41.4,29.8-83.5,47.7-126.9,44.1,30.7,24.1,83,12.6,150.2-23.7-27.2,24.9-60.1,38.9-96.7,46,27.1,14.1,66,8,125.1-32.4-16.3,23-44.3,39.2-84.8,48C-38.6,129-.6,112.9,40.7,83.3,24.8,103.7,3,119.4-26.9,128.4c23,4.6,53.2-5.1,90.9-29.8-12.7,17.5-29.7,29.3-51.3,35.2,15.5,1.1,36.9-4.5,72.5-26.4-7,13.4-24.1,22.5-44.6,30.2,22.2-.5,41.3-8.9,58.3-22.4C78.7,137.4,55.8,147.8,30,145.6c-25.2,35.9-55.8,58-94.7,59.3,16.3-6.3,31.3-12.8,42.1-20.3-56.8,17.9-135.6,6.3-185.8-11.8,3.7,7.9,10.9,15.3,25.3,21.5,33.1,8.5,67.7,14.7,105.9,15.3-41,6.3-76.2,3.2-107.6-6,5.7,9.8,13.9,15.7,24.1,18,21.2,4.9,48.5,6.8,103.4-.4-44.9,12.2-81.3,17.1-102.7,9.6,3.6,6.8,28.1,13.6,45,12.4q43.4-3.8,77.9-12.4a471.4,471.4,0,0,1-58,19.9,114.5,114.5,0,0,0,35,2.3c24-10.2,46.5-20.7,67.3-31.6A50,50,0,0,1-6.7,219c-9.2,4.2-17.6,7.5-24.6,9.1,6.2-3.2,12.2-6.6,16.7-11.1-4.9-1.5-7.7-2.5-10.1-3.5a81.3,81.3,0,0,1-23.4,4c17.7-8.7,44-18.3,66.1-27.5A89.5,89.5,0,0,1-8,210.6c21.1-.8,40.8-2.9,57.3-8.4-6.3,4.9-13.6,8.6-21.1,12.2,18.5,4.5,40-2.7,62.8-14.6-5,4.8-10.5,9.6-16.4,14.2,14.9-1.2,28.7-4.5,42.2-8.2-2.5,2.2-6.1,4.1-10,6a66.2,66.2,0,0,1-13,14.5q24.2-.5,49.2-2.2A85.2,85.2,0,0,1,131.4,237c16.2-1.8,32.4-3.1,48.9-7.5-.2,1.2-1.3,2.1-2.6,3.1a27.7,27.7,0,0,1-5.3,13.1c24.1-9.2,43.5-19.2,46.2-31.7-49-16.3-54.8-32.7-75-48.9-4.4-3.5,2.2-21.8-4.8-30.7,6.1,4.3,10.2,11.3,10.5,23.2,6-21.3,16.7-58.4,17.9-63.9l-9.3-67c-13.3,2.3-29.1.8-40,6.8" transform="translate(339 293.3)" style="fill:#fff;fill-rule:evenodd"/><path d="M-55.2-95-106-83.8A101.1,101.1,0,0,0-77.5-64.6l22.6-7.6c-.3-7.7-.5-15.3-.3-22.8" transform="translate(339 293.3)" style="fill:#fff;fill-rule:evenodd"/><path d="M226.4,216.2l20.9,4.8c13.2-3.6,35.8-14.4,39.9-32.4,10.7-4.9,24.6-.9,27.6,8.8-10.8-6.8-16.7-2.5-23.3-5,.3,1.4,2.2,3.2,4.2,4.9-4,8.5-17,16.6-30.4,24.6,10.8-1.3,20.8-6.1,30-14.5,7.2,4.3,10.1,10.2,9.4,18.7-2.4-4-5.1-7.6-9.5-7.4-1.3-1.4-1.6-3.2-1.3-5.4a6.5,6.5,0,0,0-1.4,6.2c-17.4,12.2-33.1,11.1-38.1,19.3-5.6,11.1,2.4,26.4,9.5,27.4l-.5,1.9c3.9.4,7.5-1.4,10.8-5.4-2.7,14.5-9.6,16.9-11.9,14.2-4.5-5.6-9.4-10.7-15.1-14.6.6-7.5,1.3-14.8-3.2-29.7l-24.7-3.2a28.6,28.6,0,0,0,7.3-13" transform="translate(339 293.3)" style="fill:#fff;fill-rule:evenodd"/><path d="M297.3,87.3c4.2,7.4,10.2,16.9,12.6,22.4,3.4,9.4-15.4,36.7-41.4,35.2a65.2,65.2,0,0,0,7.5-20.6c-36.3-23.9-73.3-18.4-83.7-11s-15.6,19.2-17.6,29.9c-12.5-11.6-21.7-24.3-20.5-40.7a49.1,49.1,0,0,1,7.2-19.1A43.9,43.9,0,0,0,148,97.7c-4.3-10.9-6-24,.3-44.6l8.7-8.2c-7.3,3.4-13,6.8-16.5,10.1-.5-17.1,14.2-32.9,22.6-36.2,51.1-1.3,114.3,24.9,135.9,58.2l-1.8,10.4" transform="translate(339 293.3)" style="fill:#050000;fill-rule:evenodd"/><path d="M262.9,100.3c7.6-2.6,21.7-5.6,22.9-7.9a33.3,33.3,0,0,0,0-10.1c-2.3,8-1.2,7.2-6.5,7.7-2.6-6.4-3.9-9.9-7.2-11.9-8.1-4.9-20.2-8.2-32.2-5.6,15.9,1.5,21.8,5.1,29.6,10.8-1.3,2.3-5,2.7-4.7-.1-3,2.4.6,7.3,7,4.5l.7,2.2c-5.9,3.4-16.4-1.8-12.6-9.7-4.4,4.2-2.7,8,3.1,13.8-32.1,11.2-74.3-9.2-96.3,33.6-2.5-4.4-5.7-18.3-6.3-25.6,3.8-8.3,6.2-16.1,11.3-23.7,14.9-8.1,26-9.4,36.2-9.3-20.9-4.5-47.2,1.9-58.3,17.9-.3-10.1-.5-20.2,3-30.3,6.3-7.2,13.9-10.4,21.5-13.5,12.2.6,24.3,1.2,33.4,4.2a120.8,120.8,0,0,0-34.7-10.6c-7.3.3-14.1.9-21.4,3A70.2,70.2,0,0,1,161.8,27C189.8,20.6,272,42.4,291.2,78c-1.1,5-1.7,8.1-2,10.9s7.7,13.5,12.1,21.9c1.5,5-4.1,16.4-19.5,24.5,2.3-5,5-15.7,4.4-16.8a55.3,55.3,0,0,0-23.4-18.3" transform="translate(339 293.3)" style="fill:#fff;fill-rule:evenodd"/><path d="M262.9,100.3a55.3,55.3,0,0,1,23.4,18.3c.6,1.1-2.1,11.8-4.4,16.8,15.4-8,21-19.4,19.5-24.5-4.4-8.4-12.4-19.2-12.1-21.9l-3.5,3.4C284.6,94.6,270.5,97.6,262.9,100.3Z" transform="translate(339 293.3)" style="fill:#fff;fill-rule:evenodd"/><path d="M290.2,98c-1.4-3-8.2,1.5-10.2,2.3,3.3.5,12.3,2.5,10.2-2.3" transform="translate(339 293.3)" style="fill:#050000;fill-rule:evenodd"/><path d="M-6.7,219c-9.2,4.2-17.6,7.5-24.6,9.1,6.2-3.2,12.2-6.6,16.7-11.1-4.9-1.5-7.7-2.5-10.1-3.5a81.3,81.3,0,0,1-23.4,4c10.9-5.4,25.2-11.1,39.7-16.9-15,3.5-37.3,7.2-56.4,4.2,16.3-6.3,31.3-12.8,42.1-20.3-56.8,17.9-135.6,6.3-185.8-11.8,3.7,7.9,10.9,15.3,25.3,21.5,33.1,8.5,67.7,14.7,105.9,15.3-41,6.3-76.2,3.2-107.6-6,5.7,9.8,13.9,15.7,24.1,18,21.2,4.9,48.5,6.8,103.4-.4-44.9,12.2-81.3,17.1-102.7,9.6,3.6,6.8,28.1,13.6,45,12.4q43.4-3.8,77.9-12.4a471.4,471.4,0,0,1-58,19.9,114.5,114.5,0,0,0,35,2.3c24-10.2,46.5-20.7,67.3-31.6A50,50,0,0,1-6.7,219Z" transform="translate(339 293.3)" style="fill:#fff;fill-rule:evenodd"/></svg>