<svg id="Layer_1" data-name="Layer 1" xmlns="http://www.w3.org/2000/svg" viewBox="0 0 651.7 554.8"><title>Eagle238_1c</title><path d="M177.2,75.9l-.8-5.7a59.3,59.3,0,0,0-11.8,4.5l1.9,13.7a68.6,68.6,0,0,1,5.4-9.9Z" transform="translate(328 271.5)" style="fill:#050000;fill-rule:evenodd"/><path d="M161.2,49.7a67.3,67.3,0,0,1,11-5.5L170.7,37a104.5,104.5,0,0,0-11.1,1.1Z" transform="translate(328 271.5)" style="fill:#050000;fill-rule:evenodd"/><path d="M307.7,181.9a18.1,18.1,0,0,1,15.9-3.7c-4.2-11.9-21.8-17.3-37.2,2.4l-4,1.6c-2-7.4.3-13.3,9.7-16.6-8.4-3.3-16.9-2.2-25.3,6.3-3.8,3.8,3.7,30.8-29.5,24.4,1.6-5.9.9-9.6-2.9-10.3-27-5.9-39.9-17-59.8-35.6,1.5-9,4.4-19.4,7.9-26.8q-.7-6.9-1.4-13.7c-5.3,4.2-10.2,10-14.3,18-1.6-2.7-3.4-9.3-4.7-15.6-3.9,13.9-9.2,32.4-12.8,45.3-.3-11.9-4.4-18.8-10.5-23.2,7,8.9.4,27.1,4.8,30.7,20.2,16.2,25.9,32.7,75,48.9-2.7,12.6-22.1,22.5-46.2,31.7a27.7,27.7,0,0,0,5.3-13.1c1.3-.9,2.3-1.9,2.6-3.1-16.5,4.3-32.7,5.7-48.9,7.5A85.2,85.2,0,0,0,143.1,224q-24.9,1.7-49.2,2.2a66.2,66.2,0,0,0,13-14.5c3.8-1.9,7.5-3.8,10-6-13.5,3.8-27.3,7-42.2,8.2,5.9-4.7,11.3-9.4,16.4-14.2-22.8,11.9-44.3,19.1-62.8,14.6,7.5-3.5,14.7-7.3,21.1-12.2-16.4,5.4-36.1,7.6-57.3,8.4a89.5,89.5,0,0,0,26-20.5C8.6,194-1.6,198-11.5,202l-1.3.5-3.6,1.4-.6.3-3.2,1.3-1,.4-3.5,1.4-.9.4-3.3,1.4-.5.2-3.5,1.5-.9.4-3.4,1.5-.5.2-3,1.3-.6.3-3.1,1.4-.7.3-3.1,1.5a81.3,81.3,0,0,0,23.4-4c2.4,1,5.2,2,10.1,3.5-4.5,4.4-10.5,7.8-16.7,11.1,6.9-1.5,15.4-4.9,24.6-9.1a50,50,0,0,0,13.9,2.4c-20.7,10.9-43.3,21.4-67.3,31.6a114.5,114.5,0,0,1-35-2.3,471.4,471.4,0,0,0,58-19.9q-34.6,8.6-77.9,12.4c-17,1.1-41.4-5.7-45-12.4,21.5,7.6,57.8,2.6,102.7-9.6-55,7.2-82.3,5.2-103.4.4-10.1-2.3-18.3-8.3-24.1-18,31.5,9.2,66.6,12.4,107.6,6-38.2-.5-72.8-6.7-105.9-15.3-14.3-6.2-21.5-13.5-25.3-21.5,50.2,18.1,129,29.7,185.8,11.8-10.8,7.4-25.9,14-42.1,20.3,38.9-1.3,69.5-23.4,94.7-59.3,25.8,2.2,48.7-8.1,68.9-30.4-17,13.5-36.1,21.9-58.3,22.4,20.5-7.7,37.7-16.8,44.6-30.2-35.7,21.9-57,27.5-72.5,26.4,21.6-6,38.7-17.8,51.3-35.2C26.3,123.3-3.9,133-26.9,128.4c29.9-9,51.7-24.7,67.6-45.1C-.6,112.9-38.6,129-70.1,117.6c40.6-8.8,68.5-25,84.8-48-59,40.4-97.9,46.5-125.1,32.4,36.5-7.1,69.4-21.1,96.7-46-67.2,36.3-119.5,47.8-150.2,23.7C-120.5,83.3-78.4,65.3-37,35.6c-80.2,39-136.8,47.4-164.7,18.5,46-3.1,92.7-14.3,140-31.8-48.2,7.4-95.9,20.2-144.6,22.1-26.5,1-57.9.3-76.4-22.2C-214.5,23.5-134,11.3-63.3,3.1c-57-4.7-112.6-6.4-168.8-9.7-33.5-1.9-59.4-19.1-80.2-46.2C-224.6-37.1-135-18.3-44.1-11.1-98-32.1-146.4-53.5-169-77.1c-4.8-8.9-8.2-17.6-11.9-26.3C-138.8-74.2-83.4-43.5-3.8-22.5c-13.6-8.1-25.8-19.8-36-36.3a111.7,111.7,0,0,1-3.1-28.5c13.8,18.9,68.5,54.5,71,59.6C43.6-.5,60.9,22.7,81.5,39.4c15.4,12.5,39,20.2,37.7,42,3.6-9.5,3.8-18.8-3.5-27.2,7.9-2.6,17.5-4.2,23.9-8.4-8.4,2.5-20.7,1.4-32.5.8C79.2,27.6,54.3,3.2,36.5-34L-2-63.9l7.1-6.6A101.1,101.1,0,0,1-8.3-68.2,109.8,109.8,0,0,1-20.6-78.8,107.1,107.1,0,0,0-4.4-89.4c-7.2,2-14.7,3.9-22.5,5.7-5.7-5.2-9.9-10.2-12.4-14.7L.3-112.7c-15.7,3.5-31.4,4.7-47.1,5.4l-5.7-8.2a24.3,24.3,0,0,0-2.5,8.6q-16.4.4-35.2-.6c-14.5-10.8-22.2-20.2-28.6-29.3,46.7,3.8,91,5.2,130.7,1.9L-19.2-137A821,821,0,0,1-105-165.2c-5.7-10.6-11.7-21.3-15.1-31.5,45.9,21.1,95.6,34.9,147.1,45.3l-94-58.7c-4.6-10.4-8.6-20.6-11.1-30C-45.4-216.6-9.6-192.6,38.5-167L13.8-188.1c-25.7-32.1-32.2-29-35.5-60.6,20.2,26.9,85.1,83,88.9,94.3,1.5,7.3-.2,11.9,4.6,21.8.2-9,1-16.3,3.3-22.1,5.1-8,10.1-15.2,16.5-20.3.3,22,4.9,43.9,17.3,65.5C83.7-73.6,103.1,6.6,136.5,22a45.9,45.9,0,0,0-18.6,11.4c10.9-6,26.7-4.5,40-6.8l.6,4.4,3.5-3.6a44,44,0,0,1,6.3-.9q-.9-3.7-1.8-7.5L150.8,21C109.8,7.2,91.7-73.8,116.2-108.6c-11.2-27.3-18.7-42-12.6-85.1-17.3,7.5-26.2,19.3-35,31.2-12.3-19.6-65-63.9-99.1-109-4.4,14.9-1.5,31.4,3.9,48.3l24.3,25.5c-32.8-21.1-62.4-41.3-84.8-59.3-3.5,10.9,3.2,29.8,12.8,51.2,21.3,13.5,44.7,27.5,70.9,42a1260.3,1260.3,0,0,1-130.3-46.2c5.7,17.5,13.9,34.3,23.1,50.8a641.9,641.9,0,0,0,66,20.7l-88.3-7.7c2.2,12.8,20.1,28.9,36.5,44.7a169.9,169.9,0,0,0,30.2.6c-13.8,4.5-34.6,8.1-53.9,12,2.5,6.3,8.8,12,15.8,17.5-36.2-15.2-69.5-37.2-100.6-64.2,3.4,19.9,19.1,61.6,30.1,70.8,19.3,13.4,46.9,26,77.4,38.3C-171.8-37.1-250.4-52.2-328-67.8c1.7,23.1,39.4,58.9,76.2,67.6,24.8,2.7,48.3,4.6,70.8,6-38.3,6.2-78,6.8-117.7,7.5-.9,17.7,29.1,38.3,82.7,41.2,8.5,11.5,21,20.1,39.6,24.3,6.4,12.8,23.5,20.6,48.7,24.6,9.2,8.2,23.7,13.5,44.4,15.6,8.8,8.7,23.2,12.2,41.5,11.9,8.8,7.4,19.9,9,32.2,7.7,5.8,2.8,15.6,4.1,28.8,4.1L-1.9,165.9c-74,31.1-157.1,11.9-221.4-11.3,1.7,9.8,10,36.3,28.5,43.6-1.7,9.6,5.5,18.8,21,27.7,7.9,19,27.4,25.8,52.8,26.4a115.1,115.1,0,0,0,61.9,10.5c17.4-5.4,49-21.9,81.8-39.4a182.4,182.4,0,0,0,59.6.4l-12,8.6c13.5,2.9,35.5.8,58.8-2-5.5,4.6-11.2,9.1-17.5,13.5,22.4,3,39.8-.8,56.9-4.9l-10.2,15.2c21.2-3,40.2-9,55.4-20.1,9,1.1,18,1.9,27.1,2.2,3.5,32.2-5.9,23.6,10,35.7,3.7,2.9,7.5,14.9,17.1,10.2,4.8-2.4,12.1-20.1,7.3-26.6l-8.3,7.8c-8.6-1.2-12.1-17.9-7.1-22.5,6.8-6.3,26.3-8.6,35.4-18.5,4.8,1,6.8,5.3,7.2,11.4,10.7-3.6,12.3-22.4-3-31.3.8-1.9,1.7-3.8,2.7-4.4,9.6,1.6,12.9,6.2,12.4,12.5C321,201.3,324.2,191.9,307.7,181.9ZM-106-83.8-55.2-95c-.2,7.5,0,15.2.3,22.8l-22.6,7.6A101.1,101.1,0,0,1-106-83.8ZM291.5,192.4c.3,1.4,2.2,3.2,4.2,4.9-4,8.5-17,16.6-30.4,24.6,10.8-1.3,20.8-6.1,30-14.5,7.2,4.3,10.1,10.2,9.4,18.7-2.4-4-5.1-7.6-9.5-7.4-1.3-1.4-1.6-3.2-1.3-5.4a6.5,6.5,0,0,0-1.4,6.2c-17.4,12.2-33.1,11.1-38.1,19.3-5.6,11.1,2.4,26.4,9.5,27.4l-.5,1.9c3.9.4,7.5-1.4,10.8-5.4-2.7,14.5-9.6,16.9-11.9,14.2-4.5-5.6-9.4-10.7-15.1-14.6.6-7.5,1.3-14.8-3.2-29.7l-24.7-3.2a28.6,28.6,0,0,0,7.3-13l20.9,4.8c13.2-3.6,35.8-14.4,39.9-32.4,10.7-4.9,24.6-.9,27.6,8.8C304,190.6,298.2,194.9,291.5,192.4Z" transform="translate(328 271.5)" style="fill:#050000;fill-rule:evenodd"/><path d="M309.9,109.6c-2.4-5.5-8.4-14.9-12.6-22.4l1.8-10.4c-21.5-33.3-84.8-59.5-135.9-58.2-8.4,3.4-23.1,19.1-22.6,36.2,3.5-3.3,9.2-6.7,16.5-10.1l-8.7,8.2c-6.3,20.6-4.5,33.7-.3,44.6a43.9,43.9,0,0,1,13.4-14.3,49.1,49.1,0,0,0-7.2,19.1c-1.2,16.3,7.9,29.1,20.5,40.7,2.1-10.8,8.2-23.3,17.6-29.9s47.5-12.9,83.7,11a65.2,65.2,0,0,1-7.5,20.6C294.5,146.3,313.3,119.1,309.9,109.6Zm-28.1,25.7c2.3-5,5-15.7,4.4-16.8a55.3,55.3,0,0,0-23.4-18.3c7.6-2.6,21.7-5.6,22.9-7.9a33.3,33.3,0,0,0,0-10.1c-2.3,8-1.2,7.2-6.5,7.7-2.6-6.4-3.9-9.9-7.2-11.9-8.1-4.9-20.2-8.2-32.2-5.6,15.9,1.5,21.8,5.1,29.6,10.8-1.3,2.3-5,2.7-4.7-.1-3,2.4.6,7.3,7,4.5l.7,2.2c-5.9,3.4-16.4-1.8-12.6-9.7-4.4,4.2-2.7,8,3.1,13.8-32.1,11.2-74.3-9.2-96.3,33.6-2.5-4.4-5.7-18.3-6.3-25.6,3.8-8.3,6.2-16.1,11.3-23.7,14.9-8.1,26-9.4,36.2-9.3-20.9-4.5-47.2,1.9-58.3,17.9-.3-10.1-.5-20.2,3-30.3,6.3-7.2,13.9-10.4,21.5-13.5,12.2.6,24.3,1.2,33.4,4.2a120.8,120.8,0,0,0-34.7-10.6c-7.3.3-14.1.9-21.4,3A70.2,70.2,0,0,1,161.8,27C189.8,20.6,272,42.4,291.2,78c-1.1,5-1.7,8.1-2,10.9s7.7,13.5,12.1,21.9C302.8,115.9,297.2,127.3,281.8,135.3Z" transform="translate(328 271.5)" style="fill:#050000;fill-rule:evenodd"/></svg>