<svg id="eagle" xmlns="http://www.w3.org/2000/svg" viewBox="0 0 874.9 611"><title>Eagle319_3c</title><path d="M344.5,79.2c5.1-.1,9.8-.6,14-1.1a116.4,116.4,0,0,1,12.3-.9c6.4,0,14.7,1,27.7,8.2l20,11.2S438.7,49.3,385.8-5.5a249.3,249.3,0,0,0-31.9-28.6,230,230,0,0,1,56.2,19.9S392.7-75.9,305.2-129.5l26.9.9s-24.1-87.8-192.6-152.4C94.2-298.3,33-305.5-18.2-305.5c-12.9,0-26.2.5-39.4,1.5-51.4,3.9-97.3,15.6-136.2,34.9-31.6,15.6-58.7,36.2-80.5,61.1-28.2,32.1-40.4,63.2-44.9,77.5a286.1,286.1,0,0,0-61,40.5C-425-50.5-445.4-3.7-434.6,44.4c29.2,130.1,123.4,128,123.4,128s-11.2-27.8-13.6-58.8c-1.4-18,.8-28.1,4.5-30.3.7-.4,2.7-1.3,7.1-1.3l4.8.3c-9.7,78.6,50.8,110.6,50.8,110.6-7.5,85.4,70,103.9,70,103.9s-4.3-36.7,1.7-57.1c12.5,14.4,25.6,25.5,40.2,34,24.3,14.1,52.7,21,87,21,6.3,0,12.9-.2,19.6-.7l30.9-2.1-19.2-24.3c-15.3-19.3-13.3-43.9-8-62.8,13.2,16.8,35.3,35.6,71,45.2,20.9,5.6,37.7,5.7,52.4,6.9,50.9,4.1,89.6,48.6,89.6,48.6s7.7-69.1-20-99.6c20.2,10.1,38,13.2,53.5,17.2,64.7,16.6,103.4,74.4,103.4,74.4s6.1-85.7-31.1-129.4a288.9,288.9,0,0,0,37.1,2.1c81.7-1.3,117-29,117-29S360.5,108.3,344.5,79.2Z" transform="translate(437.5 305.5)" style="fill:#fff"/><path d="M309.8,55.5c13.2,5.9,23.3,7.4,32.4,7.4s18.9-2,28.6-2,20.9,2,35.6,10.3C411.5,42.4,357.1-34.1,277.8-52a157.6,157.6,0,0,1,34.8-3.8c31.9,0,55.4,8.9,55.4,8.9s-54.4-74.2-120.9-92.7c16.2-5.8,38.6-6.4,48.1-6.4h4.6S198.5-289.2-18.2-289.2q-18.5,0-38.2,1.4c-216.3,16.2-249.2,168.9-249.2,168.9s-132.7,56.3-113,160.2c17.1,90.2,85.2,109.5,85.2,109.5s-21.9-66.1,4.8-81.7c4.5-2.6,9.9-3.5,15.4-3.5,12.1,0,24,4.5,24,4.5s-18.9,53.7,28.8,97.9c-3.5-32.3,4.8-36.9,4.8-36.9s19.5,15.2,15,55.5,6.1,64,36.8,84.1c0-34.5,3.5-49.9,13.8-63.6,30.2,45.1,66.6,71.3,131.5,71.3q8.9,0,18.5-.7c-36.2-45.7,2.6-110,2.6-110s14.1,49.6,77.4,66.5c54.6,14.6,80.6-7,121.9,36.8-8.6-83.8-50.1-59.1-59.6-130.1,89.4,98.6,131.1,37.2,194,112.5C285,176.2,242.3,144,242.3,144a313.7,313.7,0,0,0,78.1,9.9c24.5,0,52.1-3.1,78.3-12.7C350.1,115.6,327.7,89.4,309.8,55.5Z" transform="translate(437.5 305.5)" style="fill:#050000;stroke:#050000;stroke-miterlimit:10"/><path d="M-293.3,40.5s41-65.2,181.1-42.1c-66.9,2.5-98.7,21.8-98.7,21.8s17.1,2.4,27.4,13.2c-14.4-.2-27.9,4.6-27.9,4.6S-252.1,21-293.3,40.5Z" transform="translate(437.5 305.5)" style="fill:#d6aa29"/><path d="M3.8-137.4S5.5-118.5.3-108c22.1-6,20.8-21.5,38.7-19.4C31.4-139.9,3.8-137.4,3.8-137.4Z" transform="translate(437.5 305.5)" style="fill:#d6aa29"/><path d="M-203.4-101.6s-14.2,61.1,52.8,70c-26.1-.6-59-6.8-65.1-37.4s-24.1-46.5-72.1-42.2c15.4,13.4-12,54.2,32.1,90.2-12.8-1.6-39.7-16-51.3-63.8-45.1,21.1-100.6,76.9-64.3,154C-307-33.8-166.9-26.7-81.4-19.6-81.4-19.6-109.6-79.8-203.4-101.6Z" transform="translate(437.5 305.5)" style="fill:#d6aa29"/><path d="M-256.5-83.3s-10.7,4.6-16.2,12.2c1.6,7.2,3.9,11.3,11.4,16,12,7.6,21.4-3.4,35,21.4C-225.9-54.6-232.5-71.1-256.5-83.3Z" transform="translate(437.5 305.5)" style="fill:#050000"/><path d="M-89.7-101.1C-79.8-89.7-63-82.7-42.3-87.3c28.5-6.4,33.7-34.7,28.7-52.6,0,0-12.4-4.2-22.6-1.5,1.1,3,1.1,7.3.6,12.5-2.4-5-18.5-14.1-27.7-1.9-7,9.2-2.8,18.3,3.4,21.7,1.2-11.7,12.6-16,19.1-6.6C-30.9-101.4-59.2-90.3-89.7-101.1Z" transform="translate(437.5 305.5)" style="fill:#fff"/><path d="M-260,72.6s-5.8,18.2-3.4,28.3c21.6,4.8,44.4,28.2,38.4,63.6-4.3,25.3-5.8,44.3,6.5,68.5,8.9-45.3,30.9-62.6,30.9-62.6s32.7,77.6,106.2,83.3c-4.8-39,13.8-102,47-117.1,0,0,54.1,68.4,122.2,65.2-14.3-34.9-15.6-70,1.3-111.3,40.8,51.3,110,83.5,136.9,91.5-17.9-27.5-20.9-59.5-9-76.8,40.3,21.7,49.7,2.7,81.9,5.8,0,0-32.6-33.7-33.1-98.5,28.3,6.7,33.1-3.1,74,7.7-20.2-32.9-49.1-58.5-104.7-66.7,0,0-18.1-47.8,38.9-39.5,0,0-4.8-32-80.1-44.5,0,0,23.2-35,54.2-33.1-58-47.9-150-88.1-272.8-83.6,4-6.6,12.6-13.8,23.3-17.9C-148-259.9-208.7-219-246.1-166.8c2.4,15.4,20.5,18.2,43.3-6.7,50.7-55.6,109.3-4.3,109.3-4.3s-62.3-21.3-101.7,33.7c0,0,4.3,36.8,59.5,23.8s79.2-60.9,162.8-42.4S203.2-79.1,245.8,83C185.2,41.4,151.3,32.7,70.1,27c0,0,55.6,19.7,76.6,66.8C54.7,45.7,44.2,99.4-19.6,78.3c24,20.1,39.8,47,40.9,84C-5.9,121-61.9,99.6-140.5,99.6c5.4,26.5,30.1,65.6,55,78.7-43.8,1.3-80-20.5-94.3-52,0,0-8.8,3-16.8,18.7-3.6-33.6-18.9-64.5-45.8-75.4Z" transform="translate(437.5 305.5)" style="fill:#fff"/><path d="M204.9,29.4C195.6,4.9,123.6-141.6,16.8-92.3c-86.4,39.8-116.3,15-116.3,15S-75-52.2-67.1-22.8c10.1-.7,14.8-18.8,14.8-18.8L-21.1-.8S-29,11.1-35.9,12c-74.7-6.1-137.7,10.7-137.7,10.7s44.9,5.6,57.6,20.1c-49.7-2.3-86.7,6.7-104.3,18.8,11.7,7.6,23.2,22.2,26.1,36,5-12.8,12.8-17,12.8-17s5.8,26.9,24,40c-10.9-34.9-6.7-61.4-6.7-61.4s77.4,5.1,113.9,25.6c-12.5-12.8-13.8-29.6-10.6-38,24,9.3,62.6,10.8,100.7-6.5-53.1,1.9-70.7-14.7-70.7-14.7S40.7-73.8,204.9,29.4Z" transform="translate(437.5 305.5)" style="fill:#fff"/></svg>