<svg id="Layer_1" data-name="Layer 1" xmlns="http://www.w3.org/2000/svg" viewBox="0 0 553.3 620"><title>Eagle Face004_2c</title><path d="M0,309.9H-.5l-4.9-1.5C-33.8,300-67.5,281.4-88.8,261l-4.7-4.7-20.5-3.6c-8.3-1.5-17.9-5.2-25.3-9.1A90.5,90.5,0,0,1-174,212.8l-24.1-12.4c-6.9-3.6-13.9-10.8-18.5-16.9-12-15.9-18.4-35.9-21.5-55.3s-3.6-39.8,1.4-58.6l.3-1.1a69.8,69.8,0,0,1-22-15.8c-20.8-23.1-19.4-54.9-16.8-66.5,15.1,13.2,27.1,21.9,50,15.7C-213.8-1.3-200-14.6-191.9-25c1.9-26,3.8-52.5,4.4-78.4q.7-31.4,1.6-62.9v-3.3l32.9-75.7,1.3-1.7c9.2-11.8,25.1-23.8,37.7-31.5,34-20.8,73.4-30.5,113-31.6H.9c39.7,1.1,79,10.7,113,31.6,12.6,7.7,28.4,19.7,37.7,31.5l1.3,1.7,32.9,75.7v3.3q.8,31.4,1.6,62.9c.6,26,2.5,52.4,4.4,78.4C200-14.6,213.8-1.3,225.3,1.8c22.9,6.2,34.9-2.5,50-15.7,2.6,11.6,4,43.5-16.8,66.5a69.8,69.8,0,0,1-22,15.8l.3,1.1c5,18.8,4.4,39.5,1.4,58.6s-9.5,39.5-21.5,55.3c-4.6,6.1-11.6,13.3-18.5,16.9L174,212.8a90.5,90.5,0,0,1-34.6,30.8c-7.4,3.9-17,7.6-25.3,9.1l-20.5,3.6L88.8,261c-21.3,20.4-55,38.9-83.4,47.5L.5,310Z" transform="translate(276.7 310)" style="fill:#fff;fill-rule:evenodd"/><path d="M-.5,292.4s45.5-13.7,76.6-43.5,41.6-61.5,41.6-61.5a125.2,125.2,0,0,1-1.3,26.2c-2.2,14.7-6.3,22.6-6.3,22.6s36.8-6.5,53-39.9,16.2-63.8,16.2-63.8a76.7,76.7,0,0,1,9.5,23.6c2.9,13.4.6,29.5.6,29.5s23.5-12.1,31.1-59.9-7.9-67.4-7.9-67.4,20-2.9,32.4-16.7a61.6,61.6,0,0,0,14.6-29.5S244,24.7,219.9,18.1s-45.4-37-45.4-37-4.1-57.3-4.8-84.1-1.6-62.8-1.6-62.8l-30.8-70.7c-57.2-73.2-218.5-73.2-275.8,0l-30.8,70.7s-1,36-1.6,62.8-4.8,84.1-4.8,84.1-21.3,30.4-45.4,37-39.7-6.2-39.7-6.2a61.6,61.6,0,0,0,14.6,29.5c12.4,13.7,32.4,16.7,32.4,16.7s-15.5,19.6-7.9,67.4,31.1,59.9,31.1,59.9-2.2-16,.6-29.5a76.7,76.7,0,0,1,9.5-23.6s0,30.4,16.2,63.8,53,39.9,53,39.9-4.1-7.9-6.3-22.6a125.2,125.2,0,0,1-1.3-26.2s10.5,31.7,41.6,61.5S-.5,292.4-.5,292.4" transform="translate(276.7 310)" style="fill:#050000;fill-rule:evenodd"/><path d="M-111.5-222.3l7,28.8s-16.5,17.7-20,29.1-3.8,28.8-3.8,28.8-3.8-11.5-6.7-22.6-1.9-18.7-1.9-18.7l21.6-15.1Zm222.1,0-7,28.8s16.5,17.7,20,29.1,3.8,28.8,3.8,28.8,3.8-11.5,6.7-22.6,1.9-18.7,1.9-18.7l-21.6-15.1ZM-.5-172.9s-4.1,23.6-7.3,33.4S-11.6-129-11.6-129s-6.7,10.5-15.2,16-14.6,5.9-14.6,5.9-6.7-6.9-22.5-26.2-27.6-32.4-27.6-32.4-11.4.7-19.4,14.4-6.7,23.9-6.7,23.9a38.5,38.5,0,0,1,8.9-15.4c7-7.5,9.8-7.5,9.8-7.5s-6,24.5-2.9,42.2,12.1,20.9,12.1,20.9-20.9,1-33.6,9.5-14.6,11.1-14.6,11.1,22.2,6.2,37.4,39.9,16.2,48.4,16.2,48.4a138.3,138.3,0,0,1-7.9,55c-10.5,28.1-26,42.5-26,42.5s-1.3-18.3,3.5-31.1,8.3-15.4,8.3-15.4-30.5,12.4-38.1,59.2,7.9,79.9,7.9,79.9-24.4-18.3-30.5-62.5,4.4-61.2,4.4-61.2-21.9,9.2-31.1,25.9a89.5,89.5,0,0,0-10.5,32.4s-10.2-47.1-1.3-73.6,13.6-31.4,13.6-31.4l-9.8,4.9a65.5,65.5,0,0,1-23.2-5.6c-11.1-5.2-13-8.5-13-8.5a75,75,0,0,0,31.1-7.2A71.8,71.8,0,0,0-183.2,6.8s-1.9,8.8-6,15.1a74.6,74.6,0,0,1-7.6,9.8s34.9-3.9,38.1-77.6,1.6-114.6,1.6-114.6l27.9-66.4s35.2-32.1,71.7-42.6c41.6-11.9,72.7-11.9,114.2,0,36.5,10.5,71.7,42.6,71.7,42.6l27.9,66.4s-1.6,40.9,1.6,114.6S196,31.7,196,31.7a74.6,74.6,0,0,1-7.6-9.8c-4.1-6.2-6-15.1-6-15.1a71.8,71.8,0,0,0,23.5,18.3,75,75,0,0,0,31.1,7.2s-1.9,3.3-13,8.5a65.5,65.5,0,0,1-23.2,5.6l-9.8-4.9s4.8,4.9,13.6,31.4-1.3,73.6-1.3,73.6a89.5,89.5,0,0,0-10.5-32.4c-9.2-16.7-31.1-25.9-31.1-25.9s10.5,17,4.4,61.2S135.7,212,135.7,212s15.5-33.1,7.9-79.9-38.1-59.2-38.1-59.2,3.5,2.6,8.2,15.4,3.5,31.1,3.5,31.1-15.5-14.4-26-42.5a138.3,138.3,0,0,1-7.9-55s1-14.7,16.2-48.4,37.4-39.9,37.4-39.9-1.9-2.6-14.6-11.1-33.6-9.5-33.6-9.5,8.9-3.3,12.1-20.9-2.9-42.2-2.9-42.2,2.9,0,9.8,7.5a38.5,38.5,0,0,1,8.9,15.4s1.3-10.1-6.7-23.9-19.4-14.4-19.4-14.4S78.9-152.6,63-133.3s-22.5,26.2-22.5,26.2-6-.3-14.6-5.9-15.2-16-15.2-16-.6-.7-3.8-10.5S-.5-172.9-.5-172.9Z" transform="translate(276.7 310)" style="fill:#fff;fill-rule:evenodd"/><path d="M-15.4-95.6s.3-5.6-3.3-4.4S-34.6-81.4-36.2-75.3s3.5,3.9,8.7.2,6.2-5.7,6.2-5.7.8-4.1,1.4-8.2,1-6.7,1-6.7,2.5-2.6,3.5.2m29.8,0s-.3-5.6,3.3-4.4S33.7-81.4,35.2-75.3s-3.5,3.9-8.7.2-6.2-5.7-6.2-5.7-.8-4.1-1.4-8.2-1-6.7-1-6.7S15.4-98.4,14.5-95.6ZM-.5-76.5a27.8,27.8,0,0,0-15.7,6.4c-10.2,8.8-21.3,30.4-21.3,30.4C-27.2-76.4-10.2-84-.5-85.2c9.7,1.2,26.8,8.9,37,45.6,0,0-11.1-21.6-21.3-30.4A27.8,27.8,0,0,0-.5-76.5Zm0-42s-8.9-1.6-19.7,11.1-20.3,31.1-34.6,37a46.3,46.3,0,0,1-26.3,2.9s7-1.6,13-3.3a29.2,29.2,0,0,0,10.5-5.6l-37.8-2s-12.7,3.6-17.5,6.5l-7.9,4.9s23.5,22.4,34.1,31.6,14.3,10,14.3,10S-82.5-40.5-91.5-49A177.5,177.5,0,0,0-110.1-64s32.2,8.7,50.6,34.9,20.3,39.9,33,61.5A295,295,0,0,0-.5,69.7a294.9,294.9,0,0,0,26-37.3C38.3,10.8,40.2-3,58.6-29.2S109.2-64,109.2-64A177.5,177.5,0,0,0,90.6-49c-9,8.5-19.2,23.7-19.2,23.7s3.6-.8,14.3-10,34.1-31.6,34.1-31.6l-7.9-4.9c-4.8-2.9-17.5-6.5-17.5-6.5l-37.8,2a29.2,29.2,0,0,0,10.5,5.6c6,1.6,13,3.3,13,3.3a46.3,46.3,0,0,1-26.3-2.9c-14.3-5.9-23.8-24.2-34.6-37S-.5-118.5-.5-118.5Z" transform="translate(276.7 310)" style="fill:#fff;fill-rule:evenodd"/><path d="M-84.9-144.4l12.7,16.1a23.4,23.4,0,0,0-2.1,9.9c0,9.6,5.3,17.3,11.7,17.3,3.1,0,6-1.8,8.1-4.8l4.4,5.6s-4.1,12.8-19,7.9-18.1-28.8-15.9-52" transform="translate(276.7 310)" style="fill:#fff;fill-rule:evenodd"/><path d="M83.9-144.4,71.2-128.3a23.4,23.4,0,0,1,2.1,9.9c0,9.6-5.3,17.3-11.7,17.3-3.1,0-6-1.8-8.1-4.8L49-100.2s4.1,12.8,19,7.9,18.1-28.8,15.9-52" transform="translate(276.7 310)" style="fill:#fff;fill-rule:evenodd"/><path d="M-111.5-222.3l7,28.8s-16.5,17.7-20,29.1-3.8,28.8-3.8,28.8-3.8-11.5-6.7-22.6-1.9-18.7-1.9-18.7l21.6-15.1Zm222.1,0-7,28.8s16.5,17.7,20,29.1,3.8,28.8,3.8,28.8,3.8-11.5,6.7-22.6,1.9-18.7,1.9-18.7l-21.6-15.1ZM236.9,32.4A107.1,107.1,0,0,1,219,35.8c-20.9,2.3-36.3-1-36.3-1l8.5,6.8,9.6,4.8a65.5,65.5,0,0,0,23.2-5.6C234.3,35.9,236.6,32.8,236.9,32.4ZM-192,41.6l8.5-6.8s-15.4,3.3-36.3,1a107.2,107.2,0,0,1-17.9-3.4c.2.4,2.6,3.6,13,8.5a65.5,65.5,0,0,0,23.2,5.6ZM-.5-212.3S-9.8-178.6-20-163.9s-14.9,18-14.9,18l-48.2-39.6s-10.2,0-17.1,4.6l-7,4.6,9.5-17.7s-3.2-18.3-8.9-28.1-8.9-10.5-8.9-10.5l-6.3,37.6-22.8,18.7s4.8,36.7,9.8,49.8a62.1,62.1,0,0,0,14.6,21.6l.3-14.7s4.1,9.8,7.6,16.7A116.9,116.9,0,0,0-106-91.9s-22.2,8.8-29.8,17.3-7.9,9.2-7.9,9.2,8.6,24.5,7.3,59.2S-178.3,43-178.3,43s-17.1,11.1-21.6,41.9c-3,20.6-4.2,45.3-4.8,59.4l.5,2.3a89.5,89.5,0,0,1,10.5-32.4c9.2-16.7,31.1-25.9,31.1-25.9s-10.5,17-4.4,61.2,30.5,62.5,30.5,62.5-15.5-33.1-7.9-79.9,38.1-59.2,38.1-59.2-3.5,2.6-8.3,15.4-3.5,31.1-3.5,31.1,15.5-14.4,26-42.5a138.3,138.3,0,0,0,7.9-55s-1-14.7-16.2-48.4-37.4-39.9-37.4-39.9,1.9-2.6,14.6-11.1,33.6-9.5,33.6-9.5-8.9-3.3-12.1-20.9,2.9-42.2,2.9-42.2-2.9,0-9.8,7.5a38.5,38.5,0,0,0-8.9,15.4s-1.3-10.1,6.7-23.9,19.4-14.4,19.4-14.4,11.7,13.1,27.6,32.4,22.5,26.2,22.5,26.2,6-.3,14.6-5.9,15.2-16,15.2-16,.6-.7,3.8-10.5,7.3-33.4,7.3-33.4,4.1,23.6,7.3,33.4S10.6-129,10.6-129s6.7,10.5,15.2,16,14.6,5.9,14.6,5.9,6.7-6.9,22.5-26.2,27.6-32.4,27.6-32.4,11.4.7,19.4,14.4,6.7,23.9,6.7,23.9a38.5,38.5,0,0,0-8.9-15.4c-7-7.5-9.8-7.5-9.8-7.5s6,24.5,2.9,42.2S88.7-87.1,88.7-87.1s20.9,1,33.6,9.5,14.6,11.1,14.6,11.1-22.2,6.2-37.4,39.9S83.3,21.9,83.3,21.9a138.3,138.3,0,0,0,7.9,55c10.5,28.1,26,42.5,26,42.5s1.3-18.3-3.5-31.1-8.2-15.4-8.2-15.4,30.5,12.4,38.1,59.2-7.9,79.9-7.9,79.9,24.4-18.3,30.5-62.5-4.4-61.2-4.4-61.2,21.9,9.2,31.1,25.9a89.5,89.5,0,0,1,10.5,32.4l.5-2.3c-.5-14.1-1.8-38.8-4.8-59.4C194.5,54.1,177.4,43,177.4,43S136.8,28.6,135.5-6.1s7.3-59.2,7.3-59.2-.3-.7-7.9-9.2S105-91.9,105-91.9a117.1,117.1,0,0,0,6.3-11.1c3.5-6.9,7.6-16.7,7.6-16.7l.3,14.7a62.1,62.1,0,0,0,14.6-21.6c5.1-13.1,9.8-49.8,9.8-49.8L120.9-195l-6.3-37.6s-3.2.7-8.9,10.5S96.8-194,96.8-194l9.5,17.7-7-4.6c-7-4.6-17.1-4.6-17.1-4.6L34-145.9s-4.8-3.3-14.9-18S-.5-212.3-.5-212.3Z" transform="translate(276.7 310)" style="fill:#fff;fill-rule:evenodd"/><path d="M-120-67.3a87.6,87.6,0,0,1,28.9,5.7c19,7.2,43.5,35.3,43.5,35.3s4.8-21.9,15.9-36a60.8,60.8,0,0,1,9.7-10c-5.7,6.8-11.2,17.1-15.4,32.6,0,0,8.9-17.2,18-27.2-5,8-11,19.5-12.9,30.5-3.5,20,6,46.2,14.6,59.9S-.5,41.9-.5,41.9s8.7-4.6,17.3-18.3S34.9-16.4,31.4-36.4c-1.9-11-7.9-22.5-12.9-30.5,9.1,10,18,27.2,18,27.2-4.3-15.4-9.8-25.7-15.4-32.6a60.8,60.8,0,0,1,9.7,10c11.1,14.1,15.9,36,15.9,36S71.1-54.4,90.1-61.6A87.6,87.6,0,0,1,119-67.3l.8.5S96.3-44.4,85.7-35.2s-14.3,10-14.3,10S81.6-40.5,90.6-49A177.5,177.5,0,0,1,109.2-64S77-55.4,58.6-29.2s-20.3,39.9-33,61.5A294.9,294.9,0,0,1-.5,69.7a295,295,0,0,1-26-37.3C-39.2,10.8-41.1-3-59.5-29.2S-110.1-64-110.1-64A177.5,177.5,0,0,1-91.5-49c9,8.5,19.2,23.7,19.2,23.7s-3.6-.8-14.3-10-34.1-31.6-34.1-31.6Z" transform="translate(276.7 310)" style="fill:#fff;fill-rule:evenodd"/><path d="M-.5.3S-13.3-9.2-16.2-36s15.7-34,15.7-34,18.6,7.2,15.7,34S-.5.3-.5.3" transform="translate(276.7 310)" style="fill:#050000;fill-rule:evenodd"/></svg>