<svg id="Layer_1" data-name="Layer 1" xmlns="http://www.w3.org/2000/svg" viewBox="0 0 520.1 583.9"><title>Eagle Face004_1c</title><path d="M-115.3-191.8l-21.6,15.1s-1,7.5,1.9,18.7,6.7,22.6,6.7,22.6.3-17.3,3.8-28.8,20-29.1,20-29.1l-7-28.8Z" transform="translate(260.5 291.5)" style="fill:#050000;fill-rule:evenodd"/><path d="M17.9-95.8s.3,2.6,1,6.7,1.4,8.2,1.4,8.2,1,2,6.2,5.7,10.3,5.9,8.7-.2S21.4-98.9,17.8-100s-3.3,4.4-3.3,4.4C15.4-98.4,17.9-95.8,17.9-95.8Z" transform="translate(260.5 291.5)" style="fill:#050000;fill-rule:evenodd"/><path d="M-27.4-75.2c5.2-3.8,6.2-5.7,6.2-5.7s.8-4.1,1.4-8.2,1-6.7,1-6.7,2.5-2.6,3.5.2c0,0,.3-5.6-3.3-4.4S-34.6-81.4-36.2-75.3-32.7-71.4-27.4-75.2Z" transform="translate(260.5 291.5)" style="fill:#050000;fill-rule:evenodd"/><path d="M-.5-85.2c-9.7,1.2-26.8,8.9-37,45.6,0,0,11.1-21.6,21.3-30.4A27.8,27.8,0,0,1-.5-76.5a27.8,27.8,0,0,1,15.7,6.4c10.2,8.8,21.3,30.4,21.3,30.4C26.3-76.4,9.2-84-.5-85.2Z" transform="translate(260.5 291.5)" style="fill:#050000;fill-rule:evenodd"/><path d="M219.9,18.1c-24.1-6.5-45.4-37-45.4-37s-4.1-57.3-4.8-84.1-1.6-62.8-1.6-62.8l-30.8-70.7c-57.2-73.2-218.5-73.2-275.8,0l-30.8,70.7s-1,36-1.6,62.8-4.8,84.1-4.8,84.1-21.3,30.4-45.4,37-39.7-6.2-39.7-6.2a61.6,61.6,0,0,0,14.6,29.5c12.4,13.7,32.4,16.7,32.4,16.7s-15.5,19.6-7.9,67.4,31.1,59.9,31.1,59.9-2.2-16,.6-29.5a76.7,76.7,0,0,1,9.5-23.6s0,30.4,16.2,63.8,53,39.9,53,39.9-4.1-7.9-6.3-22.6a125.2,125.2,0,0,1-1.3-26.2s10.5,31.7,41.6,61.5S-.5,292.4-.5,292.4s45.5-13.7,76.6-43.5,41.6-61.5,41.6-61.5a125.2,125.2,0,0,1-1.3,26.2c-2.2,14.7-6.3,22.6-6.3,22.6s36.8-6.5,53-39.9,16.2-63.8,16.2-63.8a76.7,76.7,0,0,1,9.5,23.6c2.9,13.4.6,29.5.6,29.5s23.5-12.1,31.1-59.9-7.9-67.4-7.9-67.4,20-2.9,32.4-16.7a61.6,61.6,0,0,0,14.6-29.5S244,24.7,219.9,18.1ZM71.4-25.2S81.6-40.5,90.6-49A177.5,177.5,0,0,1,109.2-64S77-55.4,58.6-29.2s-20.3,39.9-33,61.5A294.9,294.9,0,0,1-.5,69.7a295,295,0,0,1-26-37.3C-39.2,10.8-41.1-3-59.5-29.2S-110.1-64-110.1-64A177.5,177.5,0,0,1-91.5-49c9,8.5,19.2,23.7,19.2,23.7s-3.6-.8-14.3-10-34.1-31.6-34.1-31.6l7.9-4.9c4.8-2.9,17.5-6.5,17.5-6.5l37.8,2a29.2,29.2,0,0,1-10.5,5.6c-6,1.6-13,3.3-13,3.3a46.3,46.3,0,0,0,26.3-2.9c14.3-5.9,23.8-24.2,34.6-37S-.5-118.5-.5-118.5s8.9-1.6,19.7,11.1,20.3,31.1,34.6,37a46.3,46.3,0,0,0,26.3,2.9s-7-1.6-13-3.3a29.2,29.2,0,0,1-10.5-5.6l37.8-2s12.7,3.6,17.5,6.5l7.9,4.9S96.3-44.4,85.7-35.2,71.4-25.2,71.4-25.2ZM-62.5-101c3.1,0,6-1.8,8.1-4.8l4.4,5.6s-4.1,12.8-19,7.9-18.1-28.8-15.9-52l12.7,16.1a23.4,23.4,0,0,0-2.1,9.9C-74.2-108.8-69-101-62.5-101ZM71.2-128.3l12.7-16.1c2.2,23.2-1,47.1-15.9,52s-19-7.9-19-7.9l4.4-5.6c2.1,3,5,4.8,8.1,4.8,6.5,0,11.7-7.8,11.7-17.3A23.4,23.4,0,0,0,71.2-128.3ZM223.9,40.9a65.5,65.5,0,0,1-23.2,5.6l-9.8-4.9s4.8,4.9,13.6,31.4-1.3,73.6-1.3,73.6a89.5,89.5,0,0,0-10.5-32.4c-9.2-16.7-31.1-25.9-31.1-25.9s10.5,17,4.4,61.2S135.7,212,135.7,212s15.5-33.1,7.9-79.9-38.1-59.2-38.1-59.2,3.5,2.6,8.3,15.4,3.5,31.1,3.5,31.1-15.5-14.4-26-42.5a138.3,138.3,0,0,1-7.9-55s1-14.7,16.2-48.4,37.4-39.9,37.4-39.9-1.9-2.6-14.6-11.1-33.6-9.5-33.6-9.5,8.9-3.3,12.1-20.9-2.9-42.2-2.9-42.2,2.9,0,9.8,7.5a38.5,38.5,0,0,1,8.9,15.4s1.3-10.1-6.7-23.9-19.4-14.4-19.4-14.4S78.9-152.6,63-133.3s-22.5,26.2-22.5,26.2-6-.3-14.6-5.9-15.2-16-15.2-16-.6-.7-3.8-10.5S-.5-172.9-.5-172.9s-4.1,23.6-7.3,33.4S-11.6-129-11.6-129s-6.7,10.5-15.2,16-14.6,5.9-14.6,5.9-6.7-6.9-22.5-26.2-27.6-32.4-27.6-32.4-11.4.7-19.4,14.4-6.7,23.9-6.7,23.9a38.5,38.5,0,0,1,8.9-15.4c7-7.5,9.8-7.5,9.8-7.5s-6,24.5-2.9,42.2,12.1,20.9,12.1,20.9-20.9,1-33.6,9.5-14.6,11.1-14.6,11.1,22.2,6.2,37.4,39.9,16.2,48.4,16.2,48.4a138.3,138.3,0,0,1-7.9,55c-10.5,28.1-26,42.5-26,42.5s-1.3-18.3,3.5-31.1,8.3-15.4,8.3-15.4-30.5,12.4-38.1,59.2,7.9,79.9,7.9,79.9-24.4-18.3-30.5-62.5,4.4-61.2,4.4-61.2-21.9,9.2-31.1,25.9a89.5,89.5,0,0,0-10.5,32.4s-10.2-47.1-1.3-73.6,13.6-31.4,13.6-31.4l-9.8,4.9a65.5,65.5,0,0,1-23.2-5.6c-11.1-5.2-13-8.5-13-8.5a75,75,0,0,0,31.1-7.2A71.8,71.8,0,0,0-183.2,6.8s-1.9,8.8-6,15.1a74.6,74.6,0,0,1-7.6,9.8s34.9-3.9,38.1-77.6,1.6-114.6,1.6-114.6l27.9-66.4s35.2-32.1,71.7-42.6c41.6-11.9,72.7-11.9,114.2,0,36.5,10.5,71.7,42.6,71.7,42.6l27.9,66.4s-1.6,40.9,1.6,114.6S196,31.7,196,31.7a74.6,74.6,0,0,1-7.6-9.8c-4.1-6.2-6-15.1-6-15.1a71.8,71.8,0,0,0,23.5,18.3,75,75,0,0,0,31.1,7.2S235,35.6,223.9,40.9Z" transform="translate(260.5 291.5)" style="fill:#050000;fill-rule:evenodd"/><path d="M114.4-191.8l-3.8-30.4-7,28.8s16.5,17.7,20,29.1,3.8,28.8,3.8,28.8,3.8-11.5,6.7-22.6,1.9-18.7,1.9-18.7Z" transform="translate(260.5 291.5)" style="fill:#050000;fill-rule:evenodd"/><path d="M-.5.3S-13.3-9.2-16.2-36s15.7-34,15.7-34,18.6,7.2,15.7,34S-.5.3-.5.3" transform="translate(260.5 291.5)" style="fill:#050000;fill-rule:evenodd"/></svg>