<svg id="Layer_1" data-name="Layer 1" xmlns="http://www.w3.org/2000/svg" viewBox="0 0 542.2 709.4"><title>Falcon901_1c</title><path d="M-9.7,319.3c17.5-5.5,30-31,31.9-34C31.4,271,31.7,247,31.7,247l-14.8-4.8-62.5,12.3c-.1,19.9-5.9,77.9,36,64.8" transform="translate(273.7 339.3)" style="fill:#050000;fill-rule:evenodd"/><path d="M224.4,246.5c-21.1-10.4-65.5-36.3-90.7-59s-64.5-38.9-64.5-38.9l10-3.9-19.8-10s8.7-1,20.7-6.2a40.3,40.3,0,0,0,17.8-15.9l-34.3-9.1A101.7,101.7,0,0,0,94.5,92.9c15.2-8.4,22.7-23.7,22.7-23.7s-10.4-.3-36-2.9-38.6-9.1-38.6-9.1S55.9,55.7,91.6,45,132.4-4,132.4-4,127.6-.1,91.3,6.4s-58.3,5.2-58.3,5.2,9.4-2.9,58-21.7,65.5-65.8,65.5-65.8-19.1,9.4-52.8,19.4-57,13.6-57,13.6,19.1-9.7,62.9-56.4,42.1-103,42.1-103-10,13-47.3,50.2S28.7-97.3,28.7-97.3,54-123.5,75.1-191.9s4.2-147.4,4.2-147.4S60.8-278.7,43-235-4.6-146.5-4.6-146.5s0-5.8-2.9-21.7-12.6-33.1-12.6-33.1S-36.1-133.6-64.6-94s-47.6,66.7-47.6,66.7-.6-4.5-3.6-18.1-10.4-26.2-10.4-26.2l-12.3,22.4s-.3-7.5-2.9-31.8-15.9-51.5-15.9-51.5l-12.6,42.8s-1.6-22.7-13.9-59S-214.3-200-214.3-200s8.4,80,2.6,129S-229.2,34.3-229.2,34.3l-9.1-21.7s-16.2,67.4-25.9,90.7-13.9,40.2-2.9,55.7,26.9,18.1,51.5,9.4,55.8-6.1,59.6-5.9c-7.8,5-15.7,9.8-23.9,14.2-11.7,6.2-30.2,17.8-28.1,33.5a23.6,23.6,0,0,0,3.7,10.4l.4.5a33.1,33.1,0,0,0-5.7,7.3c-5,8.8-4.7,18.6-1.1,27.9s10.4,16.7,20.3,19.6a32.7,32.7,0,0,0,13.3,1.1l5-.8-3-4c-1.8-2.3-3.1-6.1-2.8-9s2.2-3.5,4.2-4.4a32.2,32.2,0,0,1,3.3,7.6c1.3,4.5,2.3,9.1,3.2,13.7l.7,3.4,3.3-1.2a61.5,61.5,0,0,0,8-3.6,59.1,59.1,0,0,0,15-10.9,82.9,82.9,0,0,0,9.9-12.4c.8-1.2,1.6-2.5,2.3-3.8l18.5-1.1c3.8-.2,7.6-.6,11.4-1.2,11.9,6.3,30.4,13,56.3,13.5,49.9,1,85.2-14.3,85.2-14.3l1.4,1.8c1.4-18.8,7.8-44,37.2-52.9,0,0-6.2-12.3-44.2-22.5,0,0,11.2-2.4,16.7-4.7s7.1-3.6,7.1-3.6L54,162l13-5.7s18.5,5.3,62.9,41,114.7,66.4,114.7,66.4h-.5l-1.2.3h-.1l-.8.2h-.2l-.9.2h-.1l-1.3.2h-.1l-1.2.2h-.2c-8.7,1.2-25.3,1.2-44.9-9.5-29.2-15.9-53.5-36-63.5-40.2s-15.6-4.5-15.6-4.5c6.7,22.3,9.2,39.3-27.5,66.7-3.6-13.6-22.6-20.3-36-19.7l15.2,19.6s13,18.8,25.9,19.8,13.9-1.3,13.9-1.3,6.2,3.2,18.5,4.2a29.6,29.6,0,0,0,20.1-5.5s6.2,1.9,20.4,0,16.5-7.1,16.5-7.1a107.3,107.3,0,0,0,22.4-2.3c13-2.6,15.2-9.1,15.2-9.1s6.8.6,24.6-1.9,25.3-10,25.3-10A379.3,379.3,0,0,1,224.4,246.5ZM98.4,76.7C45.6,92.6-15,55.3-15,55.3S4.4,56.3,34.6,66,98.4,76.7,98.4,76.7ZM-4.7-125.5s19.1-25.9,38.9-64.8S77-299.1,77-299.1s0,48-28.8,112.1-58,86.2-58,86.2ZM-195.5,152.9c-32.4,4.9-36.6,13.3-50.5,7.8s-21.7-25.9-10-45.7,22.4-69.7,22.4-69.7l7.5,17.5s21.7-79.1,25-143.2.3-87.5.3-87.5,16.2,37.9,20.4,67.7S-196.5,52.4-196.5,52.4s22-73.6,29.5-107.6,10.7-50.5,10.7-50.5,8.1,33.4,8.1,55.7S-172.8,66.7-172.8,66.7s24.6-70.3,34-91.1,11.7-29.2,11.7-29.2a172.9,172.9,0,0,1,4.2,41.2C-123.6,9-155,86.1-155,86.1c16.3-17.9,22.7-31.9,32-50.5a113.9,113.9,0,0,0,6.3,40.2c-5.7,11.8-19.2,26.5-19.2,26.5s13.9-7.1,19.4-11.3c1.5-1.2,3.4-2.8,5.3-4.5,3.4,5.8,7.2,11.2,10.8,17.4l-13.8,9.8,16.2-5.5,1.6,3.3a109,109,0,0,1,5.7,15l-49.1,27.5S-163.1,148-195.5,152.9Zm88.1-4.7-.6-2.9,21.7-11.9s3.9,4.7,6.5,18.9l-7,5s-10.7,4.1-16.2,5l-5.7.9S-106.7,151.1-107.4,148.2Zm-6.5-.7h0Zm-37.3,116.7a74,74,0,0,1-10.7,8.7,67.2,67.2,0,0,0-4.4-14.4c-2.9-6.2-3.2-6.3-3.2-6.3l3.2-1.5s2.3,4.2,3.7,7.6,2.8,7.1,2.8,7.1a77.4,77.4,0,0,0,9.2-15.7c3.7-8.7,7.9-12.6,7.9-12.6s-12,.8-17.5,3.7a66.2,66.2,0,0,0-11.3,8.3s-9.4.2-12.6,6.5,0,13.6,0,13.6-11.3-.8-18.3-16.8,4.5-27.1,13.1-29.6a26.1,26.1,0,0,1,17.5,3.2c8.6,5.2,14.7,5.7,23.8,6.6a40.3,40.3,0,0,1,15.4,4.9S-145.3,258.5-151.1,264.2Zm-10.8-56a47.2,47.2,0,0,1,3.7-3.3c2.1,2,6.3,9.4.2,14.8s-13.3.2-13.3.2.7-1.2,2.4-3.5a5.5,5.5,0,0,0,4.5,2.4,5.5,5.5,0,0,0,5.5-5.5A5.5,5.5,0,0,0-161.9,208.1Zm70.6,13.4c-7,6.2-9.4,7.3-9.4,7.3l7.8,9.1s-11.2,3.4-20.1,3.9-12.5.5-12.5.5l1.8-7.1-15.4-6.3a58.5,58.5,0,0,0-15.2-3.6s6.2-5.7,6.3-13.9-2.3-11.5-2.3-11.5a10.6,10.6,0,0,1,8.3,1l4.4,2.6s-7.9-14.3-20.7-6.6-19.3,20.9-19.3,20.9-6.8,2.9-11.3-1.5a20.7,20.7,0,0,1-4.4-5.6h0l-.3-.8.3.8h0c-.3-2.8.4-3.8.4-3.8a30.6,30.6,0,0,0,3.9,5.5l1.1,1a8.4,8.4,0,0,0,3.9,3l4.8-.9a48.9,48.9,0,0,1,13.9-17.1c9.8-7.5,18.9-6.9,18.9-6.9s-4-3.5-8.4-4.1l-4.4-.6c23-10.4,32.2-16.1,45.4-37.2v0h0a135,135,0,0,1-1.4,15.8c-1.3,7.8-1.5,8.1-1.5,8.1a115.4,115.4,0,0,0,16.2-1.3,80.5,80.5,0,0,0,16.2-4.9s-1.6,17-4.2,23.5-4.2,8.1-4.2,8.1,9.1,3.1,13.1,2.1l4.1-1S-84.4,215.4-91.3,221.6ZM-44.5-76.6C-60.4-54.3-85.3-35.1-95.7,14.8s13.3,59.9,26.6,94.6-4.2,58.3-4.2,58.3c1-17.3-4.2-40.2-20.7-70.6s-24-46-17.8-82.3S-98-24.8-57.5-82.8s38.6-85.5,38.6-85.5,6.2,15.9,3.9,46-9.4,40.2-9.4,40.2l-1.3-24.6S-28.6-99-44.5-76.6ZM37.1-85c36-22.4,91.7-72.9,91.7-72.9s-18.8,44.7-68.4,74.5S-27.3-42.5-27.3-42.5,1.2-62.6,37.1-85Zm-13,60.6c28.2-7.5,107.3-31.8,107.3-31.8S96.8-30.5,60.5-24-24.4-6.9-24.4-6.9A289,289,0,0,1,24.2-24.4Zm13.3,46c41.5,1,74.2-9.4,74.2-9.4S97.4,29.1,62.1,31.7s-83.3-7.1-83.3-7.1S-4,20.7,37.5,21.6ZM24.2,104.3c21.1,6.8,58,13.3,58,13.3C3.8,124.7-17.3,85.5-17.3,85.5S3.1,97.5,24.2,104.3Zm-38.6,11.7s3.2,3.9,26.2,13.9a398.1,398.1,0,0,0,46.3,16.5C-1.4,145.4-14.4,115.9-14.4,115.9Z" transform="translate(273.7 339.3)" style="fill:#050000;fill-rule:evenodd"/><path d="M96,341.6c-.8-4.2-1.8-8.2-2.8-12.3-1.9-7.6-3.6-15.3-5.6-22.9s-3.2-12.5-5.3-18.5c-1.5-4.1-3.2-8.5-6.5-11.5s-7.6-4-12-3.8A14.4,14.4,0,0,0,53.2,277a13.1,13.1,0,0,0-2.5,4.1l-3.5-2.1c-4.6-2.4-10-3.9-15.2-2.4s-8.5,4.9-10.8,9.3a27.7,27.7,0,0,0-2.2,5.3,20.4,20.4,0,0,0-6,3.7c-5.2,4.7-7.1,11.3-7,18.2S9.9,327,17.1,330.1a27.6,27.6,0,0,0,10.5,2H31l-1-3.2c-.4-1.4-1.6-5.7-1.3-7A101.8,101.8,0,0,1,44,326.5a54.6,54.6,0,0,1,5.2,2.4,42.5,42.5,0,0,1,6.8,4.6,92,92,0,0,1,8.9,8.3l3.5,3.9,1.3,3.3a9.7,9.7,0,0,1-4.2,1H55.9l.9,3.2a27.7,27.7,0,0,0,4.1,7.9A20.8,20.8,0,0,0,76.2,370c6.4.5,13.4-.4,17.5-6S97.2,348.6,96,341.6Zm-8,17.8c-1.3,2.5-5.2,3.4-8.7,3.7-8.1.6-12-6.8-12-6.8s.8.6,5.2-.1a10.3,10.3,0,0,0,6.4-3.9l1.7-.4a8.6,8.6,0,0,1,4.7.8,4.9,4.9,0,0,0-4.2-3.2,7.6,7.6,0,0,0-3.1.3l-2.8-7.8s-17-16.8-24.9-21.5-24.3-7.1-24.3-7.1-1.9,1.2-2.6,4.8a27.7,27.7,0,0,0,0,7.9s-11.6-3.6-10.7-14.2,9.5-12.6,9.5-12.6.7,2.6,4.3,6.6a25.9,25.9,0,0,0,7.9,5.9l2.4-7.1a56.1,56.1,0,0,0,7.8,6.9c3.6,2.4,8.5,2,8.5,2s-.9-.1-4.3-3.8-9.5-12.4-9.5-12.4-2.1.5-4.6,3.6a9.5,9.5,0,0,0-2.3,5.8,14.4,14.4,0,0,1-5.8-9.1c-1.6-7.9,3.2-11.6,10.2-12.4,8.7-.9,12.5,5,17.5,11.3a32.2,32.2,0,0,0,4.3,7.7c2.7,3.4,5.1,4,5.1,4a24.3,24.3,0,0,0,3.2-6c1.7-4.3.5-9.4.5-9.4l-4.8,10.7s-2.4-.9-4.3-5.8-2.1-8.4-.9-12.1a7.8,7.8,0,0,1,7.4-5.3,9,9,0,0,1,8.8,5.6c3.3,8.8,5.9,16.9,8.1,24.3C87.2,328.8,91.8,351.7,88,359.4Z" transform="translate(273.7 339.3)" style="fill:#050000;fill-rule:evenodd"/><path d="M-15.9,336c-1.6-3.4-3.4-6.7-5.2-10.1-3.3-6.2-6.6-12.5-10-18.6s-5.6-10.1-8.8-14.8-4.7-6.7-8.3-8.5-7.5-1.7-11.2-.6a12.9,12.9,0,0,0-8.2,6.3,11.7,11.7,0,0,0-1.2,4.2l-3.5-1c-4.5-1-9.6-1.1-13.7,1.4a16.1,16.1,0,0,0-7.3,10.5,24.9,24.9,0,0,0-.7,5.1,18.3,18.3,0,0,0-4.4,4.6c-3.5,5.2-3.6,11.5-2,17.4s6.5,11.1,13.5,12.1a24.8,24.8,0,0,0,9.6-.6l2.9-.8-1.6-2.5c-.7-1.1-2.7-4.6-2.7-5.8a91.3,91.3,0,0,1,14.3.6,48.8,48.8,0,0,1,5.1.9,38.2,38.2,0,0,1,6.9,2.5,82.6,82.6,0,0,1,9.6,5.2l3.9,2.6,1.9,2.6a8.8,8.8,0,0,1-3.5,1.8l-5.4,1.4-2.9.8,1.5,2.6a24.8,24.8,0,0,0,5.3,6,18.6,18.6,0,0,0,15.3,4.3c5.7-1,11.6-3.4,13.8-9.2S-13.2,341.7-15.9,336Zm-2.9,17.2c-.5,2.5-3.7,4.1-6.8,5.1-6.9,2.4-12-3.2-12-3.2s.9.4,4.5-1.3a9.2,9.2,0,0,0,4.7-4.9l1.4-.8a7.7,7.7,0,0,1,4.3-.3,4.4,4.4,0,0,0-4.3-1.8,6.8,6.8,0,0,0-2.7.9l-4.2-6.1s-18.6-10.7-26.4-13-22.7-.7-22.7-.7-1.4,1.5-1.1,4.8a24.8,24.8,0,0,0,1.8,6.9s-10.8-.5-12.5-9.9,5.4-13.1,5.4-13.1,1.2,2.1,5.2,4.7a23.3,23.3,0,0,0,8.2,3.3l.5-6.7a50.2,50.2,0,0,0,8.3,4.2,13.4,13.4,0,0,0,7.8-.2s-.8.1-4.6-2.3-11.1-8.6-11.1-8.6-1.7,1-3.1,4.2a8.5,8.5,0,0,0-.7,5.5,12.9,12.9,0,0,1-7.1-6.6c-3.2-6.4.1-10.8,6.1-13s12,1.5,17.7,5.8a28.8,28.8,0,0,0,5.5,5.7c3.1,2.3,5.3,2.3,5.3,2.3a21.8,21.8,0,0,0,1.4-6,15.8,15.8,0,0,0-1.7-8.3l-1.8,10.4s-2.3-.3-5-4-3.7-6.9-3.5-10.3a7,7,0,0,1,5.2-6.2,8,8,0,0,1,8.9,2.9c4.9,6.9,9,13.4,12.5,19.3C-26.4,326.8-17.2,345.7-18.8,353.2Z" transform="translate(273.7 339.3)" style="fill:#050000;fill-rule:evenodd"/><path d="M-194.4,228.1a12.7,12.7,0,0,1,8.4,3.5c3.5,3.5,4.1,5.3,4.1,5.3s-6.1,3.3-7.3,13,.4,14.3.4,14.3-21.5-20.4-5.6-36" transform="translate(273.7 339.3)" style="fill:#050000;fill-rule:evenodd"/><polygon points="287.7 631.3 310.5 624.5 322.7 624.3 326.8 616.3 346.7 610.3 329.7 599.3 312.7 583.3 280.7 591.3 287.7 631.3" style="fill:#050000;fill-rule:evenodd"/></svg>