<svg id="Layer_1" data-name="Layer 1" xmlns="http://www.w3.org/2000/svg" viewBox="0 0 577.6 540.1"><title>Falcon329_1c</title><path d="M216.3,137C161,85.1,104.2,57.8,104.2,57.8S85,38.5,68.9,24.4,47.2,7,47.2,7L48.9-9.8S53.6-6.7,61.7,2.4s9.9,11.5,9.9,11.5S75.8,6.3,78.6-10a86.6,86.6,0,0,0-.5-30.6l-12-10.7s11.2,4.1,21,8.9,15.3,7.7,15.3,7.7S100-49.2,95.8-59.9A100.4,100.4,0,0,0,85.2-79.5L100-76.2s-1.5-5.6-3.5-10.6-2.1-5.6-2.1-5.6,13.9,5.8,18.4,8.1,7.6,3.6,7.6,3.6L99.9-107.1,81-118.1s22.3,8.7,38.6,17.9,27.4,16.8,27.4,16.8-7.1-20.9-10.8-28.9-5.3-9.9-5.3-9.9-16.6-8.9-28.9-14.6-18.7-7.2-18.7-7.2,30.4,3.8,52.1,9.7,49.3,19.6,49.3,19.6a235.8,235.8,0,0,0-27.3-30.7c-16.1-15.1-24.2-19.1-24.2-19.1s-8.8-5.1-41.2-9.9-38.5-4.8-38.5-4.8l-8.9-5.3s55.3-11,122-7.4,116.5,25.8,116.5,25.8-12.3-21.5-42.7-43.4-42.7-25.8-42.7-25.8-23.5-3.5-64.6-2.5-67.4,5.6-67.4,5.6,35.8-10.5,71.7-12.8l41.4-2.6s-15.1-9.5-52.6-16.4-54.9-6.6-54.9-6.6S-4.5-260.8-125.4-197C-226.2-143.9-256.7-102.7-261-72.1c-11.5,9.2-21.8,21.5-24.1,36.8-5.9,38.8,14.5,42.1,14.5,42.1l.7-6.6c.6-5.7,4.6-14.9,23.3-26.3,5.7,5,10.8,5.9,10.8,5.9a94.8,94.8,0,0,1,6.6-14.5c29.1-10.1,78.2-8.5,78.2-8.5s0,2-2,15.1a88.4,88.4,0,0,1-3,12.4c-4.2,2.5-13.3,6.8-32.5,13.1C-221.8,8.3-232,12.5-248.1,20.6a144.7,144.7,0,0,0-27.3,17.7,43.7,43.7,0,0,0,3.1,5.9,38.6,38.6,0,0,0,3.1,4.3s-11.1,6-17,12.6a119.8,119.8,0,0,0-8.2,9.9S-293,81.2-283,89.4s24,7.4,24,7.4a26.5,26.5,0,0,1-4.3-6.2,14,14,0,0,1-1.5-5.1s19.4-2.5,36-2.8,21.4.3,21.4.3,52.3,9.9,68.1,15.5,28.8,11.5,28.8,11.5a143.2,143.2,0,0,0,.5,19.2,107.9,107.9,0,0,0,1.8,12.2l-9.9,22.4-18.7-2.8-2.5,2.6-13.3-4.6-5.8,4.3-8.2-2.6a24.4,24.4,0,0,0-9.7,11.2c-3.1,7.6-3.9,18.7-2.5,27.1s9.4,15.9,9.4,15.9l3.3-8.4a22.6,22.6,0,0,0,5.9,5.9l4.3,3.1s3.5-8.2,4.8-10l1.3-1.8,2.8,8.4,3.8-4.8,26.3,35.2s.7,5.9-4.3,7.7a11.1,11.1,0,0,1-9.2-1l.7,5.3a36.5,36.5,0,0,1-6.9-2.1l-3-1.5s3.3,10,6.7,13a65.3,65.3,0,0,0,7.9,5.6l8.5-4.4a20.3,20.3,0,0,0,8.9,3.8,31.6,31.6,0,0,0,11-.7l20-29.4s-5.9-1.8-9.9-11-4.6-20.5-4.6-20.5l11.7-7.1,2.5.8s20.6-.4,55.5-14.5,49.6-29.1,49.6-29.1-10.4.7-13,.7a11.3,11.3,0,0,1-3-.2s15.5-4.5,31.1-19,18.2-24.3,18.2-24.3-7.1,2.1-11.3,3.1l-4.3,1s9.9-6.6,13-10.8a57.3,57.3,0,0,1,4.9-6.1s14.1,7.1,35,33.7,30.6,48.8,30.6,48.8,43.4-.2,89.1,12.7,64.7,21.7,64.7,21.7S271.5,189,216.3,137ZM-256.2,79.6A63.1,63.1,0,0,1-236,72.6a115.8,115.8,0,0,1,17.9-1.5s-9.5-2.3-24.5-.2-27.8,11.3-27.8,11.3-.2,4.4,1.6,7.1l1.8,2.6a31.3,31.3,0,0,1-12.7-7.2,33.8,33.8,0,0,1-8.2-13.1s10.5-13,25.3-20.9c0,0,8.1,2.5,12,4.8s14.6,4.9,25.1,8.9S-206,76-206,76Zm8.4-29.2c1.8-2.8,7.6-5.1,16.1-5.5a13,13,0,0,1-5.9,5.9C-242,52.9-247.8,50.5-247.8,50.5Zm57,31.5s-2.5-8.3-18.1-15.5a263.1,263.1,0,0,0-27.4-11,17,17,0,0,0,6.5-4.7c3.2-3.6,3.8-4.8,3.8-4.8a11.7,11.7,0,0,0-3.9-3,15.5,15.5,0,0,0-3.9-1l5-3.9a17.3,17.3,0,0,1,7.1,1.6,36.1,36.1,0,0,1,5.3,3.1,14.4,14.4,0,0,0-4.8-6.7c-3.9-3.2-11.6-3.9-11.6-3.9a81.1,81.1,0,0,0-11.7,9c-4.6,4.5-7.6,7.9-7.6,7.9a13.3,13.3,0,0,1-5.9-2.4l-2.2-1.9a15.3,15.3,0,0,0,1.2,4.2,13.9,13.9,0,0,1-5.3-3.9c-2.4-2.9-2.5-3.9-2.5-3.9s11.9-13.2,47.2-25.1,59.8-18,75.9-28.4A192.3,192.3,0,0,0-115-35.6l-.7,18.2s-6.6,8.2-11.7,14.1-8.2,8.9-8.2,8.9,6.1-2.3,14.1-5.8,8.9-4.3,8.9-4.3l-12,29.9a132.8,132.8,0,0,1-11.7,12.3c-5.3,4.6-6.7,6.1-6.7,6.1l19.2-3.1-9.7,17.7s-5.3,4.8-9.9,8.1l-6.7,4.8,16.6,2.5a39.1,39.1,0,0,1-21.3,13.5C-163.3,85.6-180.5,83.5-190.8,82Zm22.9,98.8a35.6,35.6,0,0,0-.7,14.3,60.8,60.8,0,0,0-1.8,5.9,17.1,17.1,0,0,0-.3,6.2,37.3,37.3,0,0,1-3.5-23.5c2.3-13.8,8.2-16.6,8.2-16.6l3.1,2.1S-165.9,173.1-167.9,180.8Zm18.6-2.6a99,99,0,0,0-2,11.7,9.7,9.7,0,0,0-5.6,5.1,33.7,33.7,0,0,0-2.5,9.9s-5.9-7.2-3.5-20.4,11.2-17.9,11.2-17.9l6.7,3S-147.8,171.8-149.3,178.2Zm49.8,27.4s.3,9.9,3.1,17.9A98.9,98.9,0,0,0-88,240.5s-4.1,11.8-10,17.7-14.5,2.8-17.6.8a19.8,19.8,0,0,1-4.8-4.1s10,3.3,13.1-3,3-16.6,3-16.6-12-13.3-19.4-23.5a88.7,88.7,0,0,1-10.7-19.1l2.6-1.8a69.4,69.4,0,0,0,6.4,12.8c3.6,5.3,6.2,7.2,6.2,7.2a88.3,88.3,0,0,1-6.6-15.1c-2.5-7.9-2.6-11.5-2.6-11.5l-3.6-1.8s-5.8,3.8-8.9,9a36.1,36.1,0,0,0-4.1,10.4s-1.8-14.3,1.2-22.5,9-10.4,9-10.4l14.3,2.1,8.1,25.6s14.5-14.8,14.5-15a31,31,0,0,1,8.2,3.9,13.7,13.7,0,0,1,4.4,5.6ZM200.1,153c-31.4-28.9-86.3-61.6-86.3-61.6,51.3,37.1,85.8,74.8,100.5,92.2-5.2-1.1-10.7-2.2-16.5-3.1h-.7a253.3,253.3,0,0,0-20.3-24.7C150.3,126.7,100.9,94,100.9,94a455.2,455.2,0,0,1,79.4,84.2c-5.2-.5-10.1-.9-14.6-1.2-3.1-5.1-6.9-11-11.8-17.6C132.6,130.5,89,97.8,89,97.8a352.5,352.5,0,0,1,61.2,78.5c-8-.2-12.6,0-12.6,0s-6.2-16.3-27-42.4S64.2,96.2,64.2,96.2l5.1-11.3s-4.8,5.8-16.9,17.9-31.6,24.4-31.6,24.4a73.6,73.6,0,0,0,10.6-.4,137.8,137.8,0,0,0,15.9-2.7s-3.7,4.8-17.1,13.9-44.7,22-44.7,22,1.8.7,9,1.8,15.6,2.1,15.6,2.1S-.3,170-31,181s-42.7,12-42.7,12-2-4.1-7.4-9.9S-98.1,176-98.1,176s1.2-5.8,7.2-16.6A93.9,93.9,0,0,1-78,141.7a171.3,171.3,0,0,1-4-30,66,66,0,0,1,5.3-27.6s-4.7,2.3-8.5,11.3a53.8,53.8,0,0,0-4.2,15.8,193.2,193.2,0,0,0-22.1-10.8c-11.2-4.4-34.3-11.1-34.3-11.1a74.5,74.5,0,0,0,10.6-7.2c4.8-4,9.9-13.1,9.9-13.1l-13.3-1.3L-129,60l12.2-25.1-11.8,1.8,9.5-10.5L-105.8-11l-13.6,5.4,9.9-11.3.3-20.5c10.8-15.1-1-41.1-1-41.1A48.5,48.5,0,0,1-84-58.4c-2-19.9-30.2-28.3-45.7-30.9-23.7-4-47,1.1-68.4,10.2s-33.6,26.9-41.4,47.7c-6.6-6-12-9.7-13.8-26-2.8-25.2,11.4-43.6,33.9-62.1,78-64.2,193.6-121,296.6-143.1,29.2,1.7,49.8,5.8,69.3,10.2C37.2-239.9-48-209.4-117.1-174c88.5-35.3,196-61.7,312.9-51.9,23.5,12,41.4,25.4,57.8,39.1-122.5-32.7-305.7-6.1-469.8,82.7-22.7,17.1-26.1,34.2-26,51.3,3.1-17.9,12-33.9,33.2-47,69.8-43.2,164.5-69,242.6-82.5a105.6,105.6,0,0,1,27.3,16.4c-71.1,2.6-122.5,19.8-162,46,37.4-15.5,77.3-29.5,127.9-37.1,27.3,9.3,39,19.4,47,29.6-51.9-1.8-102.9,3.7-152.2,20.4,41.8-8.8,87.2-13.7,138.7-12.8,12.7,10.7,18.9,21.5,25.3,32.2Q3.7-104.4-63.7-92.9c47-1.4,92,1,133.8,9.2C82-72,86.6-61.3,92.1-50.5,42.1-71.2-6.6-78.1-55.8-82.1c32.8,5.9,65.6,11.3,97.9,23l27,20.7c2.4,11.3,2,22.6,0,33.9C42.6-35.8,4.2-59.5-52.2-71.9c32.3,14,64.3,28.7,92.7,53.2.3,17.3-3.3,31.7-8.2,45C14.5-9.1-10.3-41.2-55.3-63.5-30.4-45.6-7.3-24.7,10.6,5A106.1,106.1,0,0,1-.4,40.8C-12.5,5.1-25.2-30.4-63-57.3c14.5,18,28.9,36.1,38.9,62.9-3.6,14.9-8.3,28.4-16.3,38-1.4-34.2-8.2-66.8-29.7-95.3C-54.7-16-48.3,22.5-46.5,62.6c0,0,6.2-5.1,15.3-16.8s13.3-27.4,13.3-27.4,3.6,7.2,6.7,15.4,6.6,24,6.6,24S2.6,52.7,8.6,42.2s8.9-26.8,8.9-26.8L32.1,46.3a62.1,62.1,0,0,0,7.2-12.8,143.6,143.6,0,0,0,6.6-19.9s5.9,5.3,21.7,19.9A350.4,350.4,0,0,1,96.2,63.8s40.8,24.7,87.4,59.5,73,72.6,73,72.6a241.5,241.5,0,0,0-23.6-7.8C227.6,180.9,217.6,169.1,200.1,153Z" transform="translate(294.3 270.7)" style="fill:#050000;fill-rule:evenodd"/><path d="M-253.5,57.6c-3.6-2.9-6.8-4.1-8.5-3.6,0,0,1.5,3.1,4,3.9a7.1,7.1,0,0,0,4.6-.2" transform="translate(294.3 270.7)" style="fill:#050000;fill-rule:evenodd"/></svg>