<svg id="Layer_1" data-name="Layer 1" xmlns="http://www.w3.org/2000/svg" viewBox="0 0 605.8 557.8"><title>Falcon329_2c</title><path d="M-78.4,209.1l-4,2.4a55,55,0,0,0,3.4,13c.8,2,2.9,5.5,5,6.5l10.4,3.2-28.1,41.2-3,.8a38.2,38.2,0,0,1-14.3.8,29.6,29.6,0,0,1-7.9-2.5l-8.5,4.4-3.9-2.3a65.8,65.8,0,0,1-9-6.4c-4.2-3.6-7.5-11.4-9.2-16.7l-9.2-28.3-4-2.9-2.1-1.5-3.4,8.7-8.9-8.5c-5.4-5.1-10.5-13.1-11.8-20.4-1.7-9.8-.8-22.5,3-31.7a32.6,32.6,0,0,1,13.3-15.2l3.1-1.7,7.6,2.4,5.8-4.3,12.4,4.3,1.8-1.9,16.8,2.5,6.3-14.3c-.6-3.4-1-7.1-1.4-10.4a126,126,0,0,1-.7-14.9c-7.6-3.3-15.4-6.3-23.1-9-4.1-1.4-8.5-2.6-12.7-3.6-5.9-1.5-11.8-2.8-17.8-4.1-12-2.6-24.1-5.1-36.1-7.4l-4.1-.2c-5.3-.2-10.5-.1-15.8,0-7.7.2-15.5.7-23.3,1.4l11.1,11.7-17.7,1c-10,.6-21.9-2.9-29.7-9.2S-301.4,80.9-302.5,72l-.4-3.2,1.8-2.6a117.8,117.8,0,0,1,8.8-10.6A64.1,64.1,0,0,1-280.8,46a46.3,46.3,0,0,1-2.2-4.5l-2.3-5.5,4.5-3.9c8.2-7.1,19.3-14.1,29-18.9l10.6-5.1c16.1-7.4,33.2-13,50-18.5,7.1-2.3,14.3-4.8,21.3-7.7,2.3-.9,4.6-2,6.9-3.1a67.7,67.7,0,0,0,1.8-8.1l.8-5.8h-6.9a304.6,304.6,0,0,0-34.2,2.5,141.2,141.2,0,0,0-22.2,4.6,74.4,74.4,0,0,0-4.5,10.3l-2.2,6.7-7-1.2a28.3,28.3,0,0,1-9.8-4c-6.2,4.3-14.2,10.9-14.9,17.1l-.7,6.6-.9,8.7-8.6-1.4c-5.7-.9-11.3-5.1-14.7-9.6-8.8-11.5-8.6-28.2-6.5-41.8,2.5-16.3,12.4-29.6,24.7-40,4.1-21.4,18.3-40.3,33.4-55.4,12.7-12.7,27.2-24,42-34.2,20.4-14.1,42-26.6,63.9-38.1,46.1-24.3,95-46,144.9-61.3,13.2-4,26.5-7.7,40-10.5,4.8-1,9.9-2.1,14.8-2.7h.9a140.5,140.5,0,0,1,14.3.7c14.1,1.2,28.3,3.4,42.2,6s28.4,6.1,41.7,11.2a82.9,82.9,0,0,1,13.8,6.4l19.8,12.5c3,1.2,6.1,2.9,8.7,4.3a317.5,317.5,0,0,1,33.6,21.6A191.6,191.6,0,0,1,279.5-185a105.7,105.7,0,0,1,10.9,14.8l12.5,21.8-23-10.2c-10.1-4.5-21.8-8.2-32.3-11.2a366.9,366.9,0,0,0-81.3-13.9,533.6,533.6,0,0,0-72.5,1.2c11,1.7,22.6,3.7,33.3,6.9a54.1,54.1,0,0,1,10,3.8,56.7,56.7,0,0,1,7,4.5,187.5,187.5,0,0,1,18.9,15.9,229.1,229.1,0,0,1,28.3,31.9l19.2,26.8-29.5-14.6a339,339,0,0,0-34.4-14.7l-7.4-2.5c1.7,2.9,3.3,6.4,4.5,8.8,2,4.3,3.7,8.9,5.3,13.3s4,11,5.9,16.5L162.7-63,142.5-76.6c-5.3-3.6-10.8-7-16.4-10.3l20.1,25.8-28.9-12c-2.8-1.1-5.6-2.5-8.2-3.9l-.9-.5,3.3,12.2-9.9-2.2c.7,1.5,1.4,3.1,2,4.6A139.6,139.6,0,0,1,110.6-36l2.8,16.6L98.5-27.4c-3.6-1.9-7.2-3.8-10.9-5.6a98,98,0,0,1-.9,24.4c-1.3,7.8-4,19.4-8,26.5l-1.6,2.8C88.1,30.4,98.7,40.7,109,51a380.6,380.6,0,0,1,35.1,20.1,514.7,514.7,0,0,1,77.8,60c19.7,18.5,39.5,39.2,55.2,61.3,4.6,6.5,10.8,15.6,13.8,23.1l7.7,19.3L279.8,226c-4.7-2.2-9.9-4.1-14.7-5.8-16-5.8-32.4-10.8-48.8-15.4a342.9,342.9,0,0,0-60.1-10.9c-8.7-.8-18-1.5-26.7-1.5h-5.4l-2.2-5a152.8,152.8,0,0,0-7.2-13.8,271.2,271.2,0,0,0-22.3-33.2A172.5,172.5,0,0,0,69.7,116l-.2.6C67,126.3,56,138.4,49,144.9L45.4,148l3.8-.2L34,163.1a92.5,92.5,0,0,1-13,10.3A210.1,210.1,0,0,1-18.4,194a233.8,233.8,0,0,1-42.2,13,99.2,99.2,0,0,1-16.2,2.1h-1.6Z" transform="translate(302.9 278.9)" style="fill:#fff;fill-rule:evenodd"/><path d="M-156-15.7c-4.2,2.5-13.3,6.8-32.5,13.1C-221.8,8.3-232,12.5-248.1,20.6a144.7,144.7,0,0,0-27.3,17.7,43.7,43.7,0,0,0,3.1,5.9,38.6,38.6,0,0,0,3.1,4.3s-11.1,6-17,12.6a119.8,119.8,0,0,0-8.2,9.9S-293,81.2-283,89.4s24,7.4,24,7.4a26.5,26.5,0,0,1-4.3-6.2,14,14,0,0,1-1.5-5.1s19.4-2.5,36-2.8,21.4.3,21.4.3,52.3,9.9,68.1,15.5,28.8,11.5,28.8,11.5a143.2,143.2,0,0,0,.5,19.2,107.9,107.9,0,0,0,1.8,12.2l-9.9,22.4-18.7-2.8-2.5,2.6-13.3-4.6-5.8,4.3-8.2-2.6a24.4,24.4,0,0,0-9.7,11.2c-3.1,7.6-3.9,18.7-2.5,27.1s9.4,15.9,9.4,15.9l3.3-8.4a22.6,22.6,0,0,0,5.9,5.9l4.3,3.1s3.5-8.2,4.8-10l1.3-1.8,2.8,8.4,3.8-4.8,26.3,35.2s.7,5.9-4.3,7.7a11.1,11.1,0,0,1-9.2-1l.7,5.3a36.5,36.5,0,0,1-6.9-2.1l-3-1.5s3.3,10,6.7,13a65.3,65.3,0,0,0,7.9,5.6l8.5-4.4a20.3,20.3,0,0,0,8.9,3.8,31.6,31.6,0,0,0,11-.7l20-29.4s-5.9-1.8-9.9-11-4.6-20.5-4.6-20.5l11.7-7.1,2.5.8s20.6-.4,55.5-14.5,49.6-29.1,49.6-29.1-10.4.7-13,.7a11.3,11.3,0,0,1-3-.2s15.5-4.5,31.1-19,18.2-24.3,18.2-24.3-7.1,2.1-11.3,3.1l-4.3,1s9.9-6.6,13-10.8a57.3,57.3,0,0,1,4.9-6.1s14.1,7.1,35,33.7,30.6,48.8,30.6,48.8,43.4-.2,89.1,12.7,64.7,21.7,64.7,21.7-11.8-29.6-67-81.5S104.2,57.8,104.2,57.8,85,38.5,68.9,24.4,47.2,7,47.2,7L48.9-9.8S53.6-6.7,61.7,2.4s9.9,11.5,9.9,11.5S75.8,6.3,78.6-10a86.6,86.6,0,0,0-.5-30.6l-12-10.7s11.2,4.1,21,8.9,15.3,7.7,15.3,7.7S100-49.2,95.8-59.9A100.4,100.4,0,0,0,85.2-79.5L100-76.2a111.5,111.5,0,0,0-3.5-10.6c-2-5-2.1-5.6-2.1-5.6s13.9,5.8,18.4,8.1,7.6,3.6,7.6,3.6L99.9-107.1,81-118.1s22.3,8.7,38.6,17.9,27.4,16.8,27.4,16.8-7.1-20.9-10.8-28.9-5.3-9.9-5.3-9.9-16.6-8.9-28.9-14.6-18.7-7.2-18.7-7.2,30.4,3.8,52.1,9.7,49.3,19.6,49.3,19.6a235.8,235.8,0,0,0-27.3-30.7c-16.1-15.1-24.2-19.1-24.2-19.1s-8.8-5.1-41.2-9.9-38.5-4.8-38.5-4.8l-8.9-5.3s55.3-11,122-7.4,116.5,25.8,116.5,25.8-12.3-21.5-42.7-43.4-42.7-25.8-42.7-25.8-23.5-3.5-64.6-2.5-67.4,5.6-67.4,5.6,35.8-10.5,71.7-12.8l41.4-2.6s-15.1-9.5-52.6-16.4-54.9-6.6-54.9-6.6S-4.5-260.8-125.4-197C-226.2-143.9-256.7-102.7-261-72.1c-11.5,9.2-21.8,21.5-24.1,36.8-5.9,38.8,14.5,42.1,14.5,42.1l.7-6.6c.6-5.7,4.6-14.9,23.3-26.3,5.7,5,10.8,5.9,10.8,5.9a94.8,94.8,0,0,1,6.6-14.5c29.1-10.1,78.2-8.5,78.2-8.5s0,2-2,15.1a88.4,88.4,0,0,1-3,12.4" transform="translate(302.9 278.9)" style="fill:#050000;fill-rule:evenodd"/><path d="M-259.2,48.8a13.9,13.9,0,0,1-5.3-3.9c-2.4-2.9-2.5-3.9-2.5-3.9s11.9-13.2,47.2-25.1,59.8-18,75.9-28.4A192.3,192.3,0,0,0-115-35.6l-.7,18.2s-6.6,8.2-11.7,14.1-8.2,8.9-8.2,8.9,6.1-2.3,14.1-5.8,8.9-4.3,8.9-4.3l-12,29.9a132.8,132.8,0,0,1-11.7,12.3c-5.3,4.6-6.7,6.1-6.7,6.1l19.2-3.1-9.7,17.7s-5.3,4.8-9.9,8.1l-6.7,4.8,16.6,2.5a39.1,39.1,0,0,1-21.3,13.5c-8.5-1.7-25.8-3.8-36.1-5.3,0,0-2.5-8.3-18.1-15.5a263.1,263.1,0,0,0-27.4-11,17,17,0,0,0,6.5-4.7c3.2-3.6,3.8-4.8,3.8-4.8a11.7,11.7,0,0,0-3.9-3,15.5,15.5,0,0,0-3.9-1l5-3.9a17.3,17.3,0,0,1,7.1,1.6,36.1,36.1,0,0,1,5.3,3.1,14.4,14.4,0,0,0-4.8-6.7c-3.9-3.2-11.6-3.9-11.6-3.9a81.1,81.1,0,0,0-11.7,9c-4.6,4.5-7.6,7.9-7.6,7.9a13.3,13.3,0,0,1-5.9-2.4l-2.2-1.9a15.3,15.3,0,0,0,1.2,4.2" transform="translate(302.9 278.9)" style="fill:#fff;fill-rule:evenodd"/><path d="M-109.3-37.4l-.3,20.5-9.9,11.3,13.6-5.4-13.3,37.1-9.5,10.5,11.8-1.8L-129,60l-9.5,7.7,13.3,1.3s-5.1,9.1-9.9,13.1a74.5,74.5,0,0,1-10.6,7.2s23.1,6.6,34.3,11.1a193.2,193.2,0,0,1,22.1,10.8,53.8,53.8,0,0,1,4.2-15.8c3.8-9,8.5-11.3,8.5-11.3A66,66,0,0,0-82,111.7a171.3,171.3,0,0,0,4,30,93.9,93.9,0,0,0-12.8,17.8c-6.1,10.8-7.2,16.6-7.2,16.6s11.5,1.3,16.9,7.1,7.4,9.9,7.4,9.9,12-1,42.7-12,41.1-17.1,41.1-17.1-8.4-1-15.6-2.1-9-1.8-9-1.8,31.3-12.9,44.7-22,17.1-13.9,17.1-13.9a137.8,137.8,0,0,1-15.9,2.7,73.6,73.6,0,0,1-10.6.4s19.4-12.2,31.6-24.4S69.3,84.9,69.3,84.9L64.2,96.2S90,107.9,110.7,134s27,42.4,27,42.4,4.7-.2,12.6,0A352.5,352.5,0,0,0,89,97.8s43.5,32.7,64.9,61.6c4.9,6.6,8.7,12.5,11.8,17.6,4.5.3,9.4.7,14.6,1.2A455.2,455.2,0,0,0,100.9,94s49.4,32.7,75.9,61.6a253.3,253.3,0,0,1,20.3,24.7h.7c5.8.9,11.3,1.9,16.5,3.1-14.7-17.4-49.1-55.1-100.5-92.2,0,0,54.9,32.7,86.3,61.6,17.5,16.1,27.5,27.9,32.9,35.2a241.5,241.5,0,0,1,23.6,7.8s-26.3-37.8-73-72.6S96.2,63.8,96.2,63.8A350.4,350.4,0,0,0,67.6,33.5C51.8,18.9,45.9,13.6,45.9,13.6a143.6,143.6,0,0,1-6.6,19.9,62.1,62.1,0,0,1-7.2,12.8L17.4,15.4s-3,16.3-8.9,26.8S-4.6,57.8-4.6,57.8s-3.5-15.8-6.6-24-6.7-15.4-6.7-15.4-4.3,15.8-13.3,27.4S-46.5,62.6-46.5,62.6C-48.3,22.5-54.7-16-70.1-51.7-48.5-23.2-41.7,9.4-40.3,43.6c8-9.6,12.7-23.1,16.3-38C-34.1-21.2-48.5-39.3-63-57.3-25.2-30.4-12.5,5.1-.4,40.8A106.1,106.1,0,0,0,10.6,5c-17.9-29.7-41-50.6-65.9-68.5,45,22.3,69.8,54.4,87.6,89.9,4.9-13.4,8.5-27.7,8.2-45C12.2-43.2-19.9-57.9-52.2-71.9,4.2-59.5,42.6-35.8,69.1-4.5c2-11.3,2.4-22.6,0-33.9l-27-20.7C9.8-70.8-23-76.2-55.8-82.1c49.2,4,97.9,10.9,147.9,31.6C86.6-61.3,82-72,70.1-83.7,28.3-91.9-16.6-94.4-63.7-92.9Q3.7-104.5,85.5-87.7c-6.4-10.7-12.6-21.5-25.3-32.2-51.5-.9-96.9,4-138.7,12.8,49.3-16.6,100.2-22.1,152.2-20.4-8-10.2-19.7-20.2-47-29.6-50.6,7.6-90.4,21.6-127.9,37.1,39.5-26.2,91-43.5,162-46a105.6,105.6,0,0,0-27.3-16.4C-44.5-168.8-139.1-143-208.9-99.8c-21.2,13.1-30.1,29.1-33.2,47-.2-17.1,3.3-34.2,26-51.3,164.1-88.8,347.4-115.4,469.8-82.7-16.4-13.7-34.4-27.1-57.8-39.1C78.9-235.6-28.5-209.3-117.1-174c69-35.4,154.3-66,263.6-78.6-19.6-4.4-40.1-8.5-69.3-10.2-103,22.1-218.7,78.9-296.6,143.1-22.5,18.5-36.6,36.9-33.9,62.1,1.8,16.3,7.2,19.9,13.8,26,7.8-20.8,19.6-38.3,41.4-47.7s44.6-14.2,68.4-10.2c15.5,2.6,43.7,11,45.7,30.9a48.5,48.5,0,0,0-26.3-20s11.8,26,1,41.1" transform="translate(302.9 278.9)" style="fill:#fff;fill-rule:evenodd"/><path d="M-253.5,57.6c-3.6-2.9-6.8-4.1-8.5-3.6,0,0,1.5,3.1,4,3.9a7.1,7.1,0,0,0,4.6-.2m-9-6.9s8.1,2.5,12,4.8,14.6,4.9,25.1,8.9S-206,76-206,76l-50.3,3.6A63.1,63.1,0,0,1-236,72.6a115.8,115.8,0,0,1,17.9-1.5s-9.5-2.3-24.5-.2-27.8,11.3-27.8,11.3-.2,4.4,1.6,7.1l1.8,2.6a31.3,31.3,0,0,1-12.7-7.2,33.8,33.8,0,0,1-8.2-13.1S-277.3,58.6-262.5,50.7Z" transform="translate(302.9 278.9)" style="fill:#fff;fill-rule:evenodd"/><path d="M-231.8,44.9c-8.4.4-14.3,2.7-16.1,5.5,0,0,5.9,2.5,10.1.4a13,13,0,0,0,5.9-5.9" transform="translate(302.9 278.9)" style="fill:#fff;fill-rule:evenodd"/><path d="M-144.9,169.5s-3,2.3-4.4,8.7a99,99,0,0,0-2,11.7,9.7,9.7,0,0,0-5.6,5.1,33.7,33.7,0,0,0-2.5,9.9s-5.9-7.2-3.5-20.4,11.2-17.9,11.2-17.9Zm-17.9-.2s-3.1,3.8-5.1,11.5a35.6,35.6,0,0,0-.7,14.3,60.8,60.8,0,0,0-1.8,5.9,17.1,17.1,0,0,0-.3,6.2,37.3,37.3,0,0,1-3.5-23.5c2.3-13.8,8.2-16.6,8.2-16.6ZM-97.9,182a31,31,0,0,1,8.2,3.9,13.7,13.7,0,0,1,4.4,5.6l-14.3,14.1s.3,9.9,3.1,17.9A98.9,98.9,0,0,0-88,240.5s-4.1,11.8-10,17.7-14.5,2.8-17.6.8a19.8,19.8,0,0,1-4.8-4.1s10,3.3,13.1-3,3-16.6,3-16.6-12-13.3-19.4-23.5a88.7,88.7,0,0,1-10.7-19.1l2.6-1.8a69.4,69.4,0,0,0,6.4,12.8c3.6,5.3,6.2,7.2,6.2,7.2a88.3,88.3,0,0,1-6.6-15.1c-2.5-7.9-2.6-11.5-2.6-11.5l-3.6-1.8s-5.8,3.8-8.9,9a36.1,36.1,0,0,0-4.1,10.4s-1.8-14.3,1.2-22.5,9-10.4,9-10.4l14.3,2.1,8.1,25.6S-97.9,182.1-97.9,182Z" transform="translate(302.9 278.9)" style="fill:#fff;fill-rule:evenodd"/></svg>