<svg id="Layer_1" data-name="Layer 1" xmlns="http://www.w3.org/2000/svg" viewBox="0 0 559.1 726"><title>Falcon901_2c</title><path d="M-176.6,168.2a161.9,161.9,0,0,0-22.3,2.1,89.5,89.5,0,0,0-14.7,3.7c-22,7.8-43.6,9.3-58.3-11.6s-6.1-41.3,2.3-61.4c2.3-5.6,4.3-11.5,6.1-17.3,2.4-7.5,4.5-15.1,6.7-22.7,4.6-16.5,8.9-33.2,12.9-49.8l4.2-17.7,8.5,20.5,1.5-8.2c3.7-19.8,7-39.7,9.8-59.7q1.2-8.9,2.3-17.8c1.8-14.8,2.1-30.2,2-45.1-.1-18.9-1-37.8-2.4-56.6-.6-8.7-1.3-17.4-2.2-26l-1.5-14.4,11.2,9.2c4.2,3.4,8.5,8.8,11.7,13.1,9,12.2,15.7,26.4,20.6,40.8a344.7,344.7,0,0,1,9.9,34.6l9.7-32.9,6.7,13.7c2.1,4.2,3.9,8.7,5.7,13.1a185,185,0,0,1,9,29.2,112,112,0,0,1,1.8,11.1q.7,6.2,1.3,12.4l7.9-14.3,5.3,9a101.4,101.4,0,0,1,11.1,28l1,4.5q19.6-27.8,39.6-55.4a189.4,189.4,0,0,0,16.8-29A381,381,0,0,0-32.9-178c2.5-8.1,5-16.4,6.9-24.7l3.5-14.8,7.5,13.2A132.4,132.4,0,0,1-3.4-176.3c.6,2.3,1.2,4.6,1.6,7l1,5.6L4.8-173a541,541,0,0,0,27.5-52.1q2.7-6,5.2-12.1c3.7-9.1,7.2-18.2,10.5-27.4,9.2-25.1,17.8-50.8,25.6-76.4L80.3-363l4.8,22.4c1,4.6,1.7,9.4,2.4,14,1.7,11.6,2.9,23.4,3.5,35.2,1.9,33.5-.4,69-10.3,101.2-7.8,25.3-18,51.2-31.5,74.1l-.4.7.7-.4A297.9,297.9,0,0,0,100-156.2c12.7-12.7,25.3-25.5,37.4-38.8,3.1-3.5,6.6-7.2,9.4-10.9L157-219l.5,16.5A91.8,91.8,0,0,1,157-192a160.2,160.2,0,0,1-4.4,25.4,162.8,162.8,0,0,1-38.9,71.4C100.5-81,86.4-66.7,71.5-54c10.2-2.4,20.4-5.2,30.4-8.1,13-3.9,25.9-8.2,38.5-13.3,4.5-1.8,9.1-3.7,13.4-5.8l13.1-6.5L162-73.9a80.4,80.4,0,0,1-3.7,8.4,132,132,0,0,1-11.6,19C132.9-27.7,114.8-13,93.1-4.6L72.6,3.3Q81.5,2.1,90.2.6c10.3-1.8,21.1-3.9,31.2-6.7a44.3,44.3,0,0,0,7.6-2.6l11.3-9.1-2,14.7c-1,7.3-4.3,16.1-7.7,22.5-8.1,15.2-20.7,26.3-37.3,31.3-8.9,2.7-17.9,5.3-26.9,7.6,5.1,1,10.3,1.7,15.4,2.2,9.1.9,18.2,1.8,27.3,2.4l8.2.5,9.2.3-4,8.2a59.7,59.7,0,0,1-6.3,9.7A62.5,62.5,0,0,1,97.4,98.1a101.4,101.4,0,0,1-11.2,5.3l20.8,5.5-3.6,6.6c-4.2,7.7-12.7,15-20.7,18.5l-6.4,2.5,17.6,9-9.3,3.6,4.7,2.3A264.2,264.2,0,0,1,125.1,173a157.5,157.5,0,0,1,12.6,10.1c10.7,9.6,22.9,18.3,34.8,26.2,9.9,6.5,20,12.8,30.2,18.7,8,4.6,16.1,9.1,24.4,13.2s19.4,8.8,29.3,12.5c4.6,1.7,9.3,3.4,13.9,5l9.2,3-6.9,6.9a33.3,33.3,0,0,1-7.4,5.1,65.4,65.4,0,0,1-21.2,6.6,192.5,192.5,0,0,1-19.6,2h-2.8l-2,2c-4.2,3.7-9.8,5.8-15.2,6.9a118.7,118.7,0,0,1-20.7,2.4c-4.7,4.4-13.2,6.3-18.5,7s-13.7,1.4-19.9.5c-6.3,4-14.9,5.6-21.9,5.1-5.1-.4-12.4-1.5-17.9-3.6a24.1,24.1,0,0,1-6,.9c.7,3,1.4,5.9,2,9,1.6,8.8,2.3,19.2-3.2,26.8s-14.1,9.1-22.7,8.4a26.6,26.6,0,0,1-19.6-11.3,32.9,32.9,0,0,1-5-9.8l-3.1-10.6H59a80.5,80.5,0,0,0-6.7-6.1,36.6,36.6,0,0,0-5.8-4,48.2,48.2,0,0,0-4.7-2.1l-5.4-2,2.5,7.7-11.1.3a33.2,33.2,0,0,1-12.3-2.2,78.2,78.2,0,0,1-5.8,6.5C4.8,319.1-1,323.5-7.8,325.6l-2.6.7c3.3,7.2,6,15.9,2.9,23.6s-10.4,11.3-18.1,12.7a24.3,24.3,0,0,1-19.9-5.5,30,30,0,0,1-6.6-7.5l-5.4-9.1,8.9-2.3c-2-1.2-4.1-2.3-6.2-3.2a32.4,32.4,0,0,0-5.9-2.1l-4.5-.8-4.2-.4,3.7,5.9-10.1,3a30.2,30.2,0,0,1-12,.8c-9.2-1.3-15.6-7.2-18.1-16.2s-1.7-15.4,2.7-22a24.2,24.2,0,0,1,3.6-4.3,30.6,30.6,0,0,1,.6-3.6,21.7,21.7,0,0,1,9.9-14.1c5-2.9,10.8-3.3,16.4-2.3a18.5,18.5,0,0,1,11.6-9,23.4,23.4,0,0,1,8.4-1v-.5c-16.2-1.4-32.2-5.4-46.7-12.8q-5,.6-10,.9l-15.4.9-.8,1.2A88.7,88.7,0,0,1-136.1,272a64.9,64.9,0,0,1-16.5,12,65.8,65.8,0,0,1-8.9,4l-9.8,3.4-1.7-9.1-3.2.5a38.2,38.2,0,0,1-15.9-1.3c-11.7-3.5-19.8-11.9-24.2-23.1s-4.4-22.5,1.4-32.9a37.8,37.8,0,0,1,3.6-5.2,31.9,31.9,0,0,1-2.6-9.3,24.4,24.4,0,0,1,.6-9.4c3.7-13.9,18.7-23.7,30.6-30.1l6.1-3.4" transform="translate(279.6 363)" style="fill:#d6aa29;fill-rule:evenodd"/><path d="M-9.7,319.3c17.5-5.5,30-31,31.9-34C31.4,271,31.7,247,31.7,247l-14.8-4.8-62.5,12.3c-.1,19.9-5.9,77.9,36,64.8" transform="translate(279.6 363)" style="fill:#050000;fill-rule:evenodd"/><path d="M-156,162.6c-3.8-.3-36.4-2.4-59.6,5.9s-40.5,6.2-51.5-9.4-6.8-32.4,2.9-55.7,25.9-90.7,25.9-90.7l9.1,21.7S-217.5-22.1-211.7-71s-2.6-129-2.6-129,18.1,14.9,30.5,51.2,13.9,59,13.9,59l12.6-42.8s13.3,27.2,15.9,51.5,2.9,31.8,2.9,31.8l12.3-22.4s7.5,12.6,10.4,26.2,3.6,18.1,3.6,18.1S-93.1-54.5-64.6-94s44.4-107.3,44.4-107.3,9.7,17.2,12.6,33.1,2.9,21.7,2.9,21.7S25.2-191.2,43-235,79.3-339.3,79.3-339.3s16.8,79.1-4.2,147.4S28.7-97.3,28.7-97.3,67-114.8,104.2-152s47.3-50.2,47.3-50.2,1.6,56.4-42.1,103S46.5-42.8,46.5-42.8s23.3-3.6,57-13.6,52.8-19.4,52.8-19.4-16.8,47-65.5,65.8-58,21.7-58,21.7,22,1.3,58.3-5.2S132.4-4,132.4-4,127.2,34.3,91.6,45,42.7,57.3,42.7,57.3s13,6.5,38.6,9.1,36,2.9,36,2.9-7.5,15.2-22.7,23.7a101.7,101.7,0,0,1-30.8,10.7l34.3,9.1a40.3,40.3,0,0,1-17.8,15.9c-12,5.2-20.7,6.2-20.7,6.2l19.8,10-10,3.9s39.2,16.2,64.5,38.9,69.7,48.6,90.7,59a379.3,379.3,0,0,0,44.1,17.8s-7.5,7.5-25.3,10-24.6,1.9-24.6,1.9-2.3,6.5-15.2,9.1a107.3,107.3,0,0,1-22.4,2.3s-2.3,5.2-16.5,7.1-20.4,0-20.4,0a29.6,29.6,0,0,1-20.1,5.5c-12.3-1-18.5-4.2-18.5-4.2s-1,2.3-13.9,1.3-25.9-19.8-25.9-19.8L43.3,248.8S8,264-41.9,263c-25.9-.5-44.5-7.2-56.3-13.5-3.8.5-7.6.9-11.4,1.2l-18.5,1.1c-.7,1.3-1.5,2.6-2.3,3.8a82.9,82.9,0,0,1-9.9,12.4,59.1,59.1,0,0,1-15,10.9,61.5,61.5,0,0,1-8,3.6l-3.3,1.2-.7-3.4c-.9-4.6-1.9-9.2-3.2-13.7a32.2,32.2,0,0,0-3.3-7.6c-2,.9-4,2.4-4.2,4.4s1.1,6.7,2.8,9l3,4-5,.8a32.7,32.7,0,0,1-13.3-1.1c-9.9-2.9-16.6-10.1-20.3-19.6s-3.9-19,1.1-27.9a33.1,33.1,0,0,1,5.7-7.3l-.4-.5a23.6,23.6,0,0,1-3.7-10.4c-2-15.7,16.5-27.3,28.1-33.5,8.2-4.4,16.1-9.2,23.9-14.2" transform="translate(279.6 363)" style="fill:#050000;fill-rule:evenodd"/><path d="M77-299.1s0,48-28.8,112.1-58,86.2-58,86.2l5.2-24.6s19.1-25.9,38.9-64.8S77-299.1,77-299.1L-73.3,167.7s17.5-23.7,4.2-58.3-36.9-44.7-26.6-94.6,35.3-69,51.2-91.4,18.8-30.1,18.8-30.1l1.3,24.6s7.1-10,9.4-40.2-3.9-46-3.9-46,1.9,27.5-38.6,85.5-48.3,61.2-54.4,97.5,1.3,51.8,17.8,82.3,21.7,53.4,20.7,70.6" transform="translate(279.6 363)" style="fill:#d6aa29;fill-rule:evenodd"/><path d="M128.8-157.9S73.1-107.3,37.1-85-27.3-42.5-27.3-42.5s38.2-11,87.8-40.8,68.4-74.5,68.4-74.5" transform="translate(279.6 363)" style="fill:#d6aa29;fill-rule:evenodd"/><path d="M131.4-56.1S52.4-31.8,24.2-24.4A289,289,0,0,0-24.4-6.9S24.2-17.6,60.5-24s71-32.1,71-32.1" transform="translate(279.6 363)" style="fill:#d6aa29;fill-rule:evenodd"/><path d="M111.7,12.2S78.9,22.6,37.5,21.6s-58.6,2.9-58.6,2.9,48,9.7,83.3,7.1,49.6-19.1,49.6-19.4" transform="translate(279.6 363)" style="fill:#d6aa29;fill-rule:evenodd"/><path d="M98.4,76.7S64.7,75.8,34.6,66-15,55.3-15,55.3,45.6,92.6,98.4,76.7" transform="translate(279.6 363)" style="fill:#d6aa29;fill-rule:evenodd"/><path d="M82.2,117.6s-36.9-6.5-58-13.3S-17.3,85.5-17.3,85.5s21.1,39.2,99.5,32.1" transform="translate(279.6 363)" style="fill:#d6aa29;fill-rule:evenodd"/><path d="M58.2,146.4a398.1,398.1,0,0,1-46.3-16.5c-23-10-26.2-13.9-26.2-13.9s13,29.5,72.6,30.5" transform="translate(279.6 363)" style="fill:#d6aa29;fill-rule:evenodd"/><path d="M-139.8,153.8s-23.3-5.8-55.7-1-36.6,13.3-50.5,7.8-21.7-25.9-10-45.7,22.4-69.7,22.4-69.7l7.5,17.5s21.7-79.1,25-143.2.3-87.5.3-87.5,16.2,37.9,20.4,67.7S-196.5,52.4-196.5,52.4s22-73.6,29.5-107.6,10.7-50.5,10.7-50.5,8.1,33.4,8.1,55.7S-172.8,66.7-172.8,66.7s24.6-70.3,34-91.1,11.7-29.2,11.7-29.2a172.9,172.9,0,0,1,4.2,41.2C-123.6,9-155,86.1-155,86.1c16.3-17.9,22.7-31.9,32-50.5a113.9,113.9,0,0,0,6.3,40.2c-5.7,11.8-19.2,26.5-19.2,26.5s13.9-7.1,19.4-11.3c1.5-1.2,3.4-2.8,5.3-4.5,3.4,5.8,7.2,11.2,10.8,17.4l-13.8,9.8,16.2-5.5,1.6,3.3a109,109,0,0,1,5.7,15Z" transform="translate(279.6 363)" style="fill:#d6aa29;fill-rule:evenodd"/><path d="M37.6,175.1s11.2-2.4,16.7-4.7,7.1-3.6,7.1-3.6L54,162l13-5.7s18.5,5.3,62.9,41,114.7,66.4,114.7,66.4-22.4,7.8-51.5-8.1-53.5-36-63.5-40.2-15.6-4.5-15.6-4.5c6.7,22.3,9.2,39.3-27.5,66.7-4.2-15.9-29.5-22.4-42.1-18.8.4-18.7,3.5-51,37.6-61.2C81.9,197.7,75.7,185.4,37.6,175.1Z" transform="translate(279.6 363)" style="fill:#d6aa29;fill-rule:evenodd"/><path d="M58.6,165a146.9,146.9,0,0,1,15.3,7.5A177.2,177.2,0,0,1,105.1,195s28.2,18.6,63.9,38.1c23.4,12.8,52.1,25.1,69,32a37.2,37.2,0,0,0,6.6-1.4S174.2,233,129.8,197.3s-62.9-41-62.9-41L54,162Z" transform="translate(279.6 363)" style="fill:#d6aa29;fill-rule:evenodd"/><path d="M-79.8,152.3l-7,5s-10.7,4.1-16.2,5l-5.7.9s1.9-12.2,1.3-15l-.6-2.9,21.7-11.9s3.9,4.7,6.5,18.9" transform="translate(279.6 363)" style="fill:#d6aa29;fill-rule:evenodd"/><path d="M19,263.3a27.7,27.7,0,0,1,2.2-5.3c2.4-4.4,5.9-7.9,10.8-9.3s10.6,0,15.2,2.4l3.5,2.1a13.1,13.1,0,0,1,2.5-4.1,14.4,14.4,0,0,1,10.6-4.5c4.4-.1,8.6.8,12,3.8s5.1,7.4,6.5,11.5c2.1,6,3.8,12.3,5.3,18.5s3.7,15.3,5.6,22.9c1,4.1,2,8.2,2.8,12.3,1.3,7,2.2,16.3-2.2,22.4s-11.1,6.5-17.5,6a20.8,20.8,0,0,1-15.3-8.9,27.7,27.7,0,0,1-4.1-7.9l-.9-3.2h9.5a9.7,9.7,0,0,0,4.2-1l-1.3-3.3-3.5-3.9a92,92,0,0,0-8.9-8.3,42.5,42.5,0,0,0-6.8-4.6,54.6,54.6,0,0,0-5.2-2.4,101.8,101.8,0,0,0-15.3-4.7c-.3,1.4.8,5.6,1.3,7l1,3.2H27.6a27.6,27.6,0,0,1-10.5-2c-7.2-3-11-9-11.1-16.8s1.8-13.5,7-18.2a20.4,20.4,0,0,1,6-3.7" transform="translate(279.6 363)" style="fill:#050000;fill-rule:evenodd"/><path d="M-176,231.8s-2.4-4.5-6-4.7-2.8,5,6,4.7m-13.2-9.1a26.1,26.1,0,0,1,17.5,3.2c8.6,5.2,14.7,5.7,23.8,6.6a40.3,40.3,0,0,1,15.4,4.9s-12.8,21.1-18.6,26.7a74,74,0,0,1-10.7,8.7,67.2,67.2,0,0,0-4.4-14.4c-2.9-6.2-3.2-6.3-3.2-6.3l3.2-1.5s2.3,4.2,3.7,7.6,2.8,7.1,2.8,7.1a77.4,77.4,0,0,0,9.2-15.7c3.7-8.7,7.9-12.6,7.9-12.6s-12,.8-17.5,3.7a66.2,66.2,0,0,0-11.3,8.3s-9.4.2-12.6,6.5,0,13.6,0,13.6-11.3-.8-18.3-16.8S-197.8,225.3-189.2,222.7Z" transform="translate(279.6 363)" style="fill:#d6aa29;fill-rule:evenodd"/><path d="M-158.2,204.8a47.2,47.2,0,0,0-3.7,3.3,5.5,5.5,0,0,1,3.2,5,5.5,5.5,0,0,1-5.5,5.5,5.5,5.5,0,0,1-4.5-2.4c-1.7,2.3-2.4,3.5-2.4,3.5s7.2,5.3,13.3-.2,1.9-12.8-.2-14.8" transform="translate(279.6 363)" style="fill:#d6aa29;fill-rule:evenodd"/><path d="M73.6,257.9a9,9,0,0,0-8.8-5.6,7.8,7.8,0,0,0-7.4,5.3c-1.2,3.6-.5,8.7.9,12.1s4.3,5.8,4.3,5.8l4.8-10.7s1.2,5.1-.5,9.4a24.3,24.3,0,0,1-3.2,6s-2.4-.7-5.1-4a32.2,32.2,0,0,1-4.3-7.7c-5-6.3-8.7-12.2-17.5-11.3-7,.7-11.8,4.5-10.2,12.4a14.4,14.4,0,0,0,5.8,9.1,9.5,9.5,0,0,1,2.3-5.8c2.4-3.1,4.6-3.6,4.6-3.6s6.2,8.7,9.5,12.4,4.3,3.8,4.3,3.8-4.8.4-8.5-2a56.1,56.1,0,0,1-7.8-6.9l-2.4,7.1a25.9,25.9,0,0,1-7.9-5.9c-3.6-4-4.3-6.6-4.3-6.6s-8.7,2-9.5,12.6S23.4,298,23.4,298a27.7,27.7,0,0,1,0-7.9c.7-3.6,2.6-4.8,2.6-4.8s16.5,2.4,24.3,7.1,24.9,21.5,24.9,21.5l2.8,7.8a7.6,7.6,0,0,1,3.1-.2,4.9,4.9,0,0,1,4.2,3.2,8.6,8.6,0,0,0-4.7-.8l-1.7.4a10.3,10.3,0,0,1-6.4,3.9c-4.4.8-5.2.1-5.2.1s3.9,7.4,12,6.8c3.5-.3,7.5-1.1,8.7-3.7,3.9-7.7-.8-30.6-6.2-49.1-2.2-7.4-4.8-15.5-8.1-24.3" transform="translate(279.6 363)" style="fill:#d6aa29;fill-rule:evenodd"/><path d="M-94,301.8a24.9,24.9,0,0,1,.7-5.1,16.1,16.1,0,0,1,7.3-10.5c4.1-2.4,9.2-2.4,13.7-1.4l3.5,1a11.7,11.7,0,0,1,1.2-4.2,12.9,12.9,0,0,1,8.2-6.3c3.8-1.1,7.7-1.3,11.2.6s6.1,5.3,8.3,8.5,6,9.8,8.8,14.8,6.7,12.4,10,18.6c1.8,3.3,3.6,6.6,5.2,10.1,2.7,5.8,5.6,13.6,3.1,19.9s-8.1,8.2-13.8,9.2a18.6,18.6,0,0,1-15.3-4.3,24.8,24.8,0,0,1-5.3-6l-1.5-2.6,2.9-.8,5.4-1.4a8.8,8.8,0,0,0,3.5-1.8l-1.9-2.6-3.9-2.6a82.6,82.6,0,0,0-9.6-5.2,38.2,38.2,0,0,0-6.9-2.5,48.8,48.8,0,0,0-5.1-.9,91.3,91.3,0,0,0-14.3-.6c0,1.2,2,4.7,2.7,5.8l1.6,2.5-2.9.8a24.8,24.8,0,0,1-9.6.6c-7-1-11.6-5.3-13.5-12.1s-1.5-12.1,2-17.4a18.3,18.3,0,0,1,4.4-4.6" transform="translate(279.6 363)" style="fill:#050000;fill-rule:evenodd"/><path d="M-47.8,284.7a8,8,0,0,0-8.9-2.9,7,7,0,0,0-5.2,6.2c-.3,3.4,1.6,7.7,3.5,10.3s5,4,5,4l1.8-10.4a15.8,15.8,0,0,1,1.7,8.3,21.8,21.8,0,0,1-1.4,6s-2.3,0-5.3-2.3a28.8,28.8,0,0,1-5.5-5.7c-5.7-4.3-10.3-8.6-17.7-5.8s-9.2,6.6-6.1,13a12.9,12.9,0,0,0,7.1,6.6,8.5,8.5,0,0,1,.7-5.5c1.4-3.2,3.1-4.2,3.1-4.2s7.3,6.2,11.1,8.6,4.6,2.3,4.6,2.3a13.4,13.4,0,0,1-7.8.2,50.2,50.2,0,0,1-8.3-4.2l-.5,6.7a23.3,23.3,0,0,1-8.2-3.3c-4.1-2.7-5.2-4.7-5.2-4.7s-7.1,3.7-5.4,13.1,12.5,9.9,12.5,9.9a24.8,24.8,0,0,1-1.8-6.9c-.2-3.3,1.1-4.8,1.1-4.8s14.8-1.6,22.7.7,26.4,13,26.4,13l4.2,6.1a6.8,6.8,0,0,1,2.7-.9,4.4,4.4,0,0,1,4.3,1.8,7.7,7.7,0,0,0-4.3.3l-1.4.8a9.2,9.2,0,0,1-4.7,4.9c-3.6,1.7-4.5,1.3-4.5,1.3s5.1,5.5,12,3.2c3-1,6.2-2.7,6.8-5.1,1.6-7.5-7.6-26.4-16.5-41.2-3.6-5.9-7.6-12.4-12.5-19.3" transform="translate(279.6 363)" style="fill:#d6aa29;fill-rule:evenodd"/><path d="M-188.1,213.5l-1.1-1a30.6,30.6,0,0,1-3.9-5.5s-.7,1-.4,3.8a4.6,4.6,0,0,1-.4-1.2s-1.8,3.1,2.1,10.9c0,0-13-6.3-2.1-19.3s58.9-36.7,80-53.5c0,0,0,.8-.1,2.2-13.2,21.1-22.4,26.8-45.4,37.2l4.4.6c4.4.6,8.4,4.1,8.4,4.1s-9.1-.6-18.9,6.9a48.9,48.9,0,0,0-13.9,17.1l-4.8.9a8.4,8.4,0,0,1-3.9-3l-3.7,6.8s-13-6.3-2.1-19.3,58.9-36.7,80-53.5a146.2,146.2,0,0,1-1.5,18c-1.3,7.8-1.5,8.1-1.5,8.1a115.4,115.4,0,0,0,16.2-1.3,80.5,80.5,0,0,0,16.2-4.9s-1.6,17-4.2,23.5-4.2,8.1-4.2,8.1,9.1,3.1,13.1,2.1l4.1-1s-8.7,15.2-15.7,21.4-9.4,7.3-9.4,7.3l7.8,9.1s-11.2,3.4-20.1,3.9-12.5.5-12.5.5l1.8-7.1-15.4-6.3a58.5,58.5,0,0,0-15.2-3.6s6.2-5.7,6.3-13.9-2.3-11.5-2.3-11.5a10.6,10.6,0,0,1,8.3,1l4.4,2.6s-7.9-14.3-20.7-6.6-19.3,20.9-19.3,20.9-6.8,2.9-11.3-1.5-4.9-6.8-4.9-6.8-1.8,3.1,2.1,10.9" transform="translate(279.6 363)" style="fill:#d6aa29;fill-rule:evenodd"/><path d="M-154,85l-3.2,6.7,35.3-37.6A110.4,110.4,0,0,1-123,35.7c-9.1,18.2-15.4,32-31,49.4m-15.5-27.6c-3.3,11.4-5.7,19.3-5.7,19.3L-132-21.1s1.8,17.4,2.4,36v1.6c3.8-12.1,6.4-22.7,6.6-28.8a172.9,172.9,0,0,0-4.2-41.2s-2.3,8.4-11.7,29.2C-146.1-8.3-162.5,37.6-169.5,57.4ZM-196,50.8l-3.8,19.3S-174,6.5-165-28.3l9-34.8a160.7,160.7,0,0,1,4.1,40c2.2-11.6,3.7-21.4,3.7-26.9,0-22.4-8.1-55.7-8.1-55.7s-3.2,16.5-10.7,50.5C-173.8-24.1-192.7,39.7-196,50.8Zm-43,111.6c-3.6-5.1-7.6-13.4-8.3-25.1-1.2-22.2,15.6-63.6,15.6-63.6l4.2,16.8c30.2-92.6,39.1-152.9,29.8-249.8-2.1-5.3-3.5-8.6-3.5-8.6s2.9,23.3-.3,87.5-25,143.2-25,143.2l-7.5-17.5s-10.7,49.9-22.4,69.7-3.9,40.2,10,45.7A24,24,0,0,0-238.9,162.4Z" transform="translate(279.6 363)" style="fill:#d6aa29;fill-rule:evenodd"/><path d="M-194.4,228.1a12.7,12.7,0,0,1,8.4,3.5c3.5,3.5,4.1,5.3,4.1,5.3s-6.1,3.3-7.3,13,.4,14.3.4,14.3-21.5-20.4-5.6-36" transform="translate(279.6 363)" style="fill:#d6aa29;fill-rule:evenodd"/><path d="M-6.5-116.6c9-9.4,30.1-34.3,50.1-79a684.2,684.2,0,0,0,32.3-88.8A147.9,147.9,0,0,0,77-299.1s-23,70-42.8,108.9S-4.7-125.5-4.7-125.5ZM-87.9,109.2a146.3,146.3,0,0,0-8.6-25.7c-10.8-24-22.8-61.2,15-118.8s58.2-90,58.2-90l6.2,20.4A173.9,173.9,0,0,0-15-122.3c2.3-30.1-3.9-46-3.9-46s1.9,27.5-38.6,85.5-48.3,61.2-54.4,97.5,1.3,51.8,17.8,82.3Q-90.7,103.3-87.9,109.2Z" transform="translate(279.6 363)" style="fill:#d6aa29;fill-rule:evenodd"/></svg>