<svg id="Layer_1" data-name="Layer 1" xmlns="http://www.w3.org/2000/svg" viewBox="0 0 806.3 522.4"><title>Griffin451_1c</title><path d="M212.5-10.2c-25.5-3.9-52.1,6.7-61.2,26.5C131.1,70,181.5,64.7,185.7,75.8c5.6,14.2-6.8,24-19.3,8.7-2.5,14.2,24.3,32.8,52.1,6.2s-4.3-81.8-43.1-58.2c-11,15.2-17.2-1.5-13.3-16.3C166,4.5,187.1-3.7,208.8-.1c39.8,6.7,58.1,50.3,42.9,84.9-16.4,37.5-74.9,48.1-100.3,15.8S93.2-7.9,8.5-13.6C4.9-9.9,7.8,11.8,27.4,27.9c57.6,4,90.2,55.4,118,85.3C176.8,147,241.7,135.1,262,91,280.2,51.4,259.3-3.1,212.5-10.2ZM184.1,38.9c24-14.6,52.3,26.6,24.3,48.3,10.4-14.5,1.5-42.2-13.1-38.9,14.4,7.6,10.4,31.3.7,38.4,4.2-36.4-42-20.1-40.5-48.7C165.5,53.9,180.7,43.7,184.1,38.9Z" transform="translate(403.1 261.2)" style="fill:#26406a;fill-rule:evenodd"/><path d="M-277.3-151.3c-2.6,2.7,2.3,2.7,6.2,2.4,2.3-.2,4.8-2.8,6.1-4.9S-266.9-162-277.3-151.3Z" transform="translate(403.1 261.2)" style="fill:#26406a;fill-rule:evenodd"/><path d="M64.2-202.5C-60-235.6-176-210.7-196.6-159.5c22-11.5,48,.4,52.9,16.5,15,48.7-63.3,57.6-94.9,86.5-15.5-11-24.7-18.8-30-28.6-2.2-7.2-.4-17.9.2-26.9,16.1,4.6,18.3,1.5,23,24.3,20.1-11.4,36.2-47.3,5.9-74,3.7-8,1.1-19.6-10.1-30.2-4.3-6.5-.8-31.1,11.8-42.9-25.1,1.7-38.4,14.1-41.3,28.3a90.6,90.6,0,0,0-31.2-4.5c-.2-19.4,5.4-36.7,21.2-50.2-27.7,2.5-52.4,25.3-54.3,56.1a73.5,73.5,0,0,1-1.6-20.8c-10,7.7-12.2,18.8-8.5,39.5-18.6,25.4-33.8,51.2-41,78l8.5-5c-10.5,27.9-19.5,76.8-16.5,116.8C-397.1,70-276.9,134.1-259.8,217a202.2,202.2,0,0,0-19,8.7c-9.4-6.5-12.4-9.5-21.8-1.4-8.7-7.7-16.4-11.8-25.7-.1-3-3.1-6.4-4-12-5.9s-23.6,25.1-20.8,38.9c2.8.4,7.8-3.6,13.6-8.9l6.4,1.6a22.5,22.5,0,0,0-.9,9.4c10.1-10.9,17.2-12.3,22.4-7.3-.9,3.3-1.1,6.4,0,9A209.7,209.7,0,0,1-300,248.9c40.4,24.1,96.5-9.7,121.1,5.6a20.4,20.4,0,0,0-2.2-11l51.4-1c0-6.3,2.5-8.8,11.5-12.7,3.6-15,16.8-25.4,27.2-25.7,10.3-24.6,32.8-52.8,52.4-75.4-20-10.5-25.5-25.1-26.2-40.9,19.5,32.5,42.8,45.8,69.6,42.4-8.4-6.7-15.1-13.5-19.5-20.2,18.6,12.6,38.6,17.3,59.9,16,9.6,17.9,22.6,34,38.2,48.7C77,182,70.6,189.4,64.9,198.1c-15.3-1.7-15.8-5.3-23.2,14.3-15,7.4-21,27.5-14.3,38.1,3.3-4.7,9.1-7.1,18.7-6.2.5,3.5,1.7,5.7,3.2,7.2,4.1-4.9,8.8-8.6,17.2-5.1,0,2.3.9,4,2.9,4.2,22.8-13.4,13.4,5.9,52.1-6.4,4.2-16.3,15.4-21.5,14.4-31.5-2.6-25.4,6.2-39.6,4-44.5-34.2-36.6-47.5-61.2-46-103.2C69.9,51.7,48,34.6,36,19.7a35.4,35.4,0,0,0-7.9.4c-2.3-1.9-4.5-5.5-6.6-9.8,6.8,17.8,15.6,32.8,26.6,44.4l-12.1-24C47.4,44.5,63,58,84.3,71.2c-1.2,37.3,17,70.4,46.5,101.1-3.9,11.6-4.2,23.2-3.4,34.7-6.2,4.5-12.5,10.6-18.7,17.7-1.7-6.5-3.6-12.8-9.2-18,6.2-11.6,12.5-20.4,18.7-34.7-42.6-41.4-39.7-68.6-47.4-81.8-31,.1-51.5-22.6-61.1-48.7-.2,25.7,8,47.5,26.4,64.6C-13.1,86.7-17.6,38-13.2,2.7c.8-5.6-24.4-10-34.5-10.4,18-1.5,22-8.9,29.4-9.4C-6.7-13.1,7.6-9.8,16.4-5l.2.5a85.5,85.5,0,0,1,9.1,1.9C23.1-12.8,21-14.1-5.6-21.1a31.9,31.9,0,0,0,7.5-4.5c9.2,1.1,17.6-1.8,25.5-7,10.2,1.7,32.5-1.1,38.4-6.7,17.3,3.8,40.6,6.6,62.3-1.6-11.7-3.7-21.3-8.8-28.9-15.2,26.9,8.4,69.1,12.9,89.8.3-5.9-2.5-13.6-5-17.7-7.5,27.9,2.9,52.4-1.2,73-13.6a327.7,327.7,0,0,1-33.7-10.7c41.9,5.2,72.9-2.7,97.6-18.2a376.7,376.7,0,0,1-63.9-10.7c77.1,4.3,119.6-15.6,150.3-43.9q4.5-4.1,8.7-8.5C264.3-142.1,183-170.9,64.2-202.5Zm-19,440.4c-6.6-.1-11.8,1.6-15.7,5.5,1.4-11.4,5.5-20.4,15-24.5l4.7,4.9C46.6,226.5,45.7,231.9,45.1,237.9Zm21.8.7c-7.4-1.4-13.4-.1-16.5,3.7,0-14.2,6.5-22.6,16.2-21a13.2,13.2,0,0,1,4.5,7.2A29.2,29.2,0,0,0,67,238.6Zm25.2,3c-4.8-2-15.2-2.4-20,1.6.8-10.8,6-17.1,13.5-21C90.2,226.2,92.6,232.4,92.2,241.6ZM80.8,212.2c-1.6-1.2-4.2-6-6.2-9,8.3-8.2,16.3-16.5,23.8-25A275,275,0,0,1,80.8,212.2Zm-312-349.8c-4.7-.2-14.9,5.5-17.6,14.6,5.5-7.1,12.8-10,19.1-8.1,1.2,10.8-4.3,23.1-13,32.9-2.9-26.3-46.6-48.5-87.2-41.5,2.5-3.4,5.2-6.1,9-5.9,18.4-.3,29.6,2.9,41.8-8.6C-263.6-168.8-240.3-162.9-231.2-137.6ZM-306.1-172c8,3.7,15.9,7.6,22.6,12.5C-296.6-148.1-304.8-160.4-306.1-172ZM-387.2-53.6c2-26.2,10.8-55.4,24.7-86.8-6.1,1.6-12.1,6.6-18.2,12.2,8.9-17.6,19-35,31.9-51.9a22.6,22.6,0,0,0,8.1,3.9c-6.9-6.2-9.5-15.8-8.1-28.4,1.1,7.9,6.2,13.2,12.6,17.7-5.2-24.7,10.5-47.8,24.1-57.4-11.6,29.4-8.2,48.2,6.9,54.8-4.1-4.1-5.4-9.7-5.2-16.1,15.2.8,69.3,12.2,65,40.3a26.8,26.8,0,0,0-7.6-3.6c-.8-13.6-14.5-19.5-20.5-21.8,8.8,6.3,14.1,13.2,14,21.2a31.7,31.7,0,0,0-17.2,4.9c-9-6.2-22.6-13-34.1-17.2-7.5-2.2-13.1,11.1-13.5,16.2,2.1-3.2,5.7-5,9.5-6.5.5,9.5,2.9,16.8,8.1,20.3-15.1-1-24,3.8-28.8,14.5,27.9,13.7,41.7,36.3,56.6,58.1a150.8,150.8,0,0,0-45.4,67.6c6.8-11,18-22.3,34.2-33.9-9.9,14.2-19.5,36.7-28.7,66.9C-345.9,0-372.6-22-387.2-53.6ZM-354,248.1c2.3-8.7,8.1-16.6,12.3-21.3s5.7.7,12.9,1.9c-4.1,4.8-6,9.2-8.7,16C-345.2,241.1-347.4,241.7-354,248.1Zm21.1-.5c13.6-25.8,14.2-24.4,27.7-19.6a63.4,63.4,0,0,0-10.1,17.5C-320.5,241-324.9,241-332.9,247.6Zm58.5,2.5c-21.2-5.7-23-12.2-37.3.5,3.1-9.4,12.3-23.2,21.2-23.5,19.4,9.1,21,23.6,45.7-2.6-14.6,3.9-20.6,12.7-26.1,5.4,21.2-12.2,15.7,3.8,39.5-46,5.4-.6,14.4,5.8,17.3,12a244.9,244.9,0,0,0-14.4,29.9c-2.9,7.1,1,15.2,12.1,9.7-8.5.1-7.8-2.5-7.2-6.9,6.9,4.8,14.5,3.5,22.5-1.3,2.3.5,9.8,10.8,14.8,18.2C-200,239.7-257.3,255.2-274.4,250.1Zm146.6-57.8c-15.6,3.7-26.2,12.2-33.4,24.2l-17.2-6.5a46.1,46.1,0,0,0-16.5,15.5c-9.3-15.3-11,6-25-2.7,1.2-4.9,6.5-13.2,11.7-21.5,37.4.4,73.7-29.8,85.1-64.4,8,6.3,16,9.9,24,9.2C-112.1,163.5-125.3,190.5-127.7,192.3ZM-153.9-69.5A100.4,100.4,0,0,1-143-74.1C-104.8-58.6-79.2-39.4-47.3-22-74.5-23-108.5-58.4-153.9-69.5Zm19.2-9.7c3.5-1.3,7.4-3,12.5-4.8C-80-66-52.9-42.2-21-27.1-55.4-23.3-86.1-66.1-134.7-79.2Zm18.2-11.3a23.6,23.6,0,0,0,6.7-6.7C-67.4-85.8-24.9-44.9,14.5-34.8-38.4-28.9-67.6-75.9-116.5-90.5Zm12.8-16.3a35.5,35.5,0,0,0,2.9-6.2C-29.3-91.8-6.2-67.4,57.7-42-2.6-31.2-35.2-82.9-103.7-106.8ZM111.5-42.6C45.2-39-7.1-96.2-98.1-121.4A30,30,0,0,0-97-129C-16.1-107.2,54.2-73.7,111.5-42.6Zm60-13.8C87.1-47.9,25.3-110.3-96.8-137.9a24.1,24.1,0,0,0-.5-6.1C33.7-122,81.9-85.6,171.5-56.4Zm51.8-17.7c-96,17.9-163-55.5-323.1-79.5-.7-2.2-1.6-4.3-2.5-6.4C32.1-151.2,118.9-105.2,223.3-74.1ZM286.9-101C158.6-72.1,50.1-171.6-107.5-168.3a64.2,64.2,0,0,0-12.2-9c84.3-5.6,173.4,16.6,260.8,39.9C190.5-124.3,215.4-107.1,286.9-101Zm-427.3-77.6c52.4,14.2,39.9,72.2,12.9,86.6-38,20.3-110.5,40.1-102.2,79.2,21.3,2.8,46.8,23.8,51.3,58.3,7.3-9.2,8.9-24.1,7.5-41.9,12.2,24,19.8,50.7,7.4,89.5,8.6-7,15.6-16.4,20.2-29.4,3.6,25.8,9.3,50.9-13.6,86.2a54.3,54.3,0,0,0,24.7-17c-4.2,26.8-47.4,63.9-75.5,59-7.3-8.8-18.1-14.7-25-13,2.6-31.6,22.6-64.4,44.7-80.3-17.7,3-34.2,11.7-48.7,29.9-22.5-22.2-42.7-55.7-40.9-94.1-6.3,15.8-12.8,23-11.7,47.2-32-49.3,6.4-94.4,43.2-118.8-1.2,9.1,1.8,16.6,5.9,23.7-5.9-45.8,56.3-54.4,86.3-77.7,36.9-28.7,29-73.9-18.7-82.3,150.1-98.8,350.9,59.8,546.7,20.3C251.6-60.4,4.2-229.1-140.3-178.6Z" transform="translate(403.1 261.2)" style="fill:#26406a;fill-rule:evenodd"/></svg>