<svg id="Layer_1" data-name="Layer 1" xmlns="http://www.w3.org/2000/svg" viewBox="0 0 831.7 543.7"><title>Griffin451_2c</title><path d="M8.5-13.6C93.1-7.8,124.9,67.1,151.4,100.7s83.9,21.6,100.3-15.8c15.2-34.7-3.2-78.2-42.9-84.9C187.1-3.7,166,4.5,162.1,16.1c-3.9,14.9,2.4,31.5,13.3,16.3,38.8-23.6,71.8,30.8,43.1,58.2s-54.7,8-52.1-6.2c12.5,15.4,24.9,5.6,19.3-8.7-4.2-11.1-54.6-5.7-34.4-59.5,9.1-19.8,35.7-30.3,61.2-26.5C259.3-3.1,280.2,51.4,262,91c-20.3,44.1-85.2,56-116.6,22.2-27.8-30-60.5-81.3-118-85.3C7.8,11.8,4.9-9.9,8.5-13.6" transform="translate(409.6 269.5)" style="fill:#26406a;fill-rule:evenodd"/><path d="M193.2,139.2c-20.6,0-39.6-7.7-52.5-21.6-4.8-5.2-9.7-10.9-14.8-17C101.8,72.5,72,37.5,26.9,34.4H24.9l-1.6-1.3C7.5,19.9,1.3,3.4.7-6.8c-.3-5.1.8-8.9,3.2-11.3l2.1-2.1,3,.2C41-17.9,68.6-6.2,93.2,15.6c20.8,18.4,35.9,41.2,48.1,59.4,5.4,8,10.4,15.7,15.1,21.6,9.9,12.5,26.7,18.5,45,16.2,20.1-2.6,37.1-14.3,44.2-30.6a57.4,57.4,0,0,0-2-50A49.7,49.7,0,0,0,207.7,6.4C187.4,2.9,171,10.9,168.4,18a25.5,25.5,0,0,0-.1,13,19.1,19.1,0,0,0,2-2.4l.8-1.1,1.1-.7c19.3-11.7,40.5-8,54,9.6,12,15.7,15,41.6-3,58.8s-37.9,17.5-49.5,11.3c-9.6-5.2-15.1-14.6-13.5-23.4L162.2,71c-7.4-3.5-15.1-8.6-19.2-17.7s-3.9-23,2.2-39.3l.2-.4c10.1-22,38.7-34.6,68.1-30.2C235.7-13.3,254-.1,265,20.5c12.2,22.6,13.3,50.7,2.9,73.3s-33.6,40-61.2,44.4A85.8,85.8,0,0,1,193.2,139.2ZM30,21.6C79.3,26,110.5,62.7,135.7,92.2l9,10.5c-4.5-6-9.2-13-14.2-20.4C107.3,47.5,75.8.2,13.7-6.6,14.3-.5,18.5,11.4,30,21.6ZM185.4,97.2c6.3,1.2,16.5.3,28.7-11.2s10.5-30,1.7-41.5c-7.1-9.3-20.3-15.9-35.9-7.1-7.2,9.2-13.6,8.1-16.9,6.5-5.4-2.6-8-9.1-8.5-16.5-2.1,8.4-2,15.3.3,20.4,3.7,8.1,13,11.6,21.1,14.6s13.6,5.1,15.8,10.9c3.8,9.6,1.4,19.2-5.7,23.4ZM164.8,72.1l6.7,8.2c4.1,5.1,7.3,5.7,8.1,5.2s1.7-3.1.2-7.2c-1.1-1-5.3-2.6-8.3-3.7Zm14.9,6h0ZM166.9,32.1ZM13.8-10Z" transform="translate(409.6 269.5)" style="fill:#fff"/><path d="M-208.1,201.3c37.4.4,73.7-29.8,85.1-64.4,8,6.3,16,9.9,24,9.2-13.1,17.4-26.2,44.4-28.7,46.2-15.6,3.7-26.2,12.2-33.4,24.2l-17.2-6.5a46.1,46.1,0,0,0-16.5,15.5c-9.3-15.3-11,6-25-2.7,1.2-4.9,6.5-13.2,11.7-21.5M-310.4-211a90.6,90.6,0,0,1,31.2,4.5c2.9-14.2,16.2-26.6,41.3-28.3-12.6,11.8-16.1,36.5-11.8,42.9,11.3,10.5,13.8,22.2,10.1,30.2,30.3,26.8,14.2,62.6-5.9,74-4.7-22.8-6.8-19.7-23-24.3-.6,9-2.4,19.7-.2,26.9,5.3,9.8,14.5,17.6,30,28.6C-207-85.4-128.7-94.3-143.7-143c-4.9-16-30.9-27.9-52.9-16.5C-176-210.7-60-235.6,64.2-202.5c118.8,31.7,200.1,60.4,339,33.4q-4.2,4.4-8.7,8.5c-30.6,28.2-73.2,48.1-150.3,43.9A376.7,376.7,0,0,0,308.1-106c-24.6,15.5-55.6,23.4-97.6,18.2A327.7,327.7,0,0,0,244.2-77c-20.5,12.4-45.1,16.5-73,13.6,4.2,2.5,11.8,5,17.7,7.5-20.7,12.7-62.9,8.1-89.8-.2,7.7,6.4,17.3,11.5,28.9,15.2-21.6,8.2-44.9,5.5-62.3,1.6-5.9,5.7-28.2,8.4-38.4,6.7-7.9,5.2-16.2,8.1-25.5,7a31.9,31.9,0,0,1-7.5,4.5C25.7-12.8,23.1-12.6,27.2,4S60.8,46.6,93.7,65.2c-1.4,42,11.9,66.5,46,103.2,2.2,4.8-6.6,19-4,44.5,1,10-10.2,15.2-14.4,31.5-38.8,12.3-29.4-7.1-52.1,6.4-2-.3-2.9-2-2.9-4.2-8.4-3.5-13.1.3-17.2,5.1-1.5-1.5-2.7-3.7-3.2-7.2-9.6-1-15.4,1.5-18.7,6.2-6.7-10.6-.7-30.7,14.3-38.1,7.4-19.7,7.9-16.1,23.2-14.3,5.7-8.7,12.1-16.1,18.5-23.5C67.7,160.1,54.8,144,45.1,126c-21.2,1.4-41.3-3.4-59.9-16,4.4,6.7,11.1,13.5,19.5,20.2-26.8,3.4-50.2-9.9-69.6-42.4.7,15.9,6.2,30.4,26.2,40.9-19.6,22.6-42.1,50.8-52.4,75.4-10.4.3-23.6,10.7-27.2,25.7-8.9,3.9-11.5,6.5-11.5,12.7l-51.4,1a20.4,20.4,0,0,1,2.2,11c-24.7-15.3-80.8,18.5-121.1-5.6a209.7,209.7,0,0,0-17.7,12.3c-1.1-2.6-.9-5.7,0-9-5.1-5-12.2-3.7-22.4,7.3a22.5,22.5,0,0,1,.9-9.4l-6.4-1.6c-5.8,5.3-10.8,9.3-13.6,8.9-2.8-13.8,13.9-41.3,20.8-38.9s9,2.8,12,5.9c9.3-11.7,17-7.5,25.7.1,9.4-8.1,12.5-5.2,21.8,1.4a202.1,202.1,0,0,1,19-8.7C-276.9,134.1-397.1,70-402.6,3.4c-3-39.9,6-88.8,16.5-116.8l-8.5,5c7.3-26.7,22.5-52.6,41-78-3.7-20.7-1.5-31.8,8.5-39.5a73.5,73.5,0,0,0,1.6,20.8c1.8-30.8,26.6-53.6,54.3-56.1C-304.9-247.7-310.6-230.5-310.4-211Z" transform="translate(409.6 269.5)" style="fill:#26406a;fill-rule:evenodd"/><path d="M-344.9,274.2l-1.7-14q-.1-1.1-.2-2.2c-5.2,4.2-9.3,6.3-13.4,5.7l-4.5-.7-.9-4.5c-2.7-13.6,8.4-35,17.2-42.8,5.2-4.6,9.4-4.5,12-3.6l1.6.5a51.8,51.8,0,0,1,7.5,2.9,19.1,19.1,0,0,1,11.1-5.1c5.9-.5,11,2.1,15.7,5.6,9.3-5.9,15.5-2.5,22.2,2.1,3.7-1.8,7.3-3.5,10.9-5.1-10-38.3-42.8-72.8-74.5-106.3S-406.2,39-409,4s3.3-74,11.5-103l-7.5,4.4,4.2-15.4c6.5-23.9,19.4-48.7,40.5-77.9C-363-204.1-363-220.3-349-231l11.2-8.6h0a66.5,66.5,0,0,1,48.1-28l20.4-1.9-15.5,13.3c-11.5,9.8-17.6,22.5-18.7,38.7a96.5,96.5,0,0,1,20.2,2.9c6.3-15.4,22.6-25.2,45.2-26.8l18.2-1.2-13.3,12.5c-10.3,9.7-12.8,29.5-11,34.2,11.9,11.5,14.3,23.4,12.3,32.2,14.8,14.8,16.7,30.4,15.6,41.3-1.7,16.4-12,32.6-25.7,40.4l-7.8,4.4-1.8-8.8c-1.2-6.1-2.8-12.7-4.6-14.9s-2.3-1.5-6.2-2.5c-.5,5.8-1,12.1,0,16.2,4.3,7.6,11.8,14.2,23.6,22.9,11-8.6,25.5-15.4,39.6-22,36-16.9,57.3-29,49.5-54.3-1.7-5.4-7.2-10.7-14.4-13.7a34.4,34.4,0,0,0-29.3,1.1l-15.6,8.1,6.6-16.3c10.9-27.2,46.1-48,96.4-57.1s112.5-5.7,172,10.2l32.1,8.7c100.2,27.3,179.4,48.9,304,24.7l20.1-3.9-14.2,14.8c-3,3.1-6,6-9,8.8a162.1,162.1,0,0,1-60.1,35.5,199.3,199.3,0,0,1-32.3,7.7l2.1.2,19.4,1.6-16.5,10.4a134.1,134.1,0,0,1-55.8,19.6l5.3,1.3-13.4,8.1c-13,7.9-28,12.8-44.7,14.6l-10.6,6.5c-11.2,6.8-27.5,9.3-44.8,8.8h.2l-17.4,6.6c-17.8,6.8-38.5,7.6-63.1,2.5-9.4,5.5-28,7.4-38.4,6.5A50.8,50.8,0,0,1,18-20.8c9.5,3.9,12,8.4,14.6,19.4l.9,3.8c3.6,14.2,30.9,38.8,63.4,57.2l3.4,1.9v3.9c-1.3,37.7,9,60.7,44.3,98.5l.7.8.4,1c1.8,3.9.7,8.1-.7,14s-4.3,17.9-2.8,32.5c.8,7.5-3,12.9-6.6,18.1s-6.2,8.9-7.9,15.7l-.9,3.5-3.4,1.1c-20.4,6.5-29,4.9-36.6,2.6-4-1.2-5.8-1.8-14.2,3.2l-2,1.2-2.3-.3a9.5,9.5,0,0,1-7.4-5.5c-2.4-.3-4.1.9-6.8,4.2l-4.5,5.3-5-4.8a16.1,16.1,0,0,1-3.7-5.6c-6,.3-7.7,2.7-8.3,3.6L27,262.3,21.8,254c-4-6.3-4.8-14.9-2.3-23.6a38.5,38.5,0,0,1,16.9-22.5c3.1-8.1,5.3-12.3,8.6-15s9.4-2.9,15.1-2l1.7.2c4.1-5.8,8.4-11.1,12.7-16.1a196.2,196.2,0,0,1-33-42.4,103.7,103.7,0,0,1-26.5-2.6l5.8,4.7L5.5,136.7a63.3,63.3,0,0,1-37.2-6.1l-2.1,2.4c-17,19.7-40.9,48.7-51.3,73.6l-1.6,3.9h-4.2c-7.7.2-18.2,8.8-21.1,20.7l-.8,3.2-3,1.3c-7.6,3.3-7.6,4.2-7.6,6.8V249h-6.4l-25.7.5-17.2.4a28.2,28.2,0,0,1,.1,5.1l-.7,10.8-9.2-5.7c-8.8-5.5-25.3-2.8-42.7.1-24,4-51.1,8.5-74.8-3.7-4.6,3-9.3,6.3-13.9,9.9l-6.7,5.2-3.3-7.8a17,17,0,0,1-1.2-7.8c-1.5.4-4.9,1.9-10.4,7.9Zm44.8-32.9,3.4,2c20.5,12.2,46.6,7.9,69.6,4,14.2-2.4,27.8-4.6,39.2-2.8l-3.8-7.3,10.5-.2,25.6-.5,20.4-.4c1.9-5.4,6.3-8.4,11.6-11,4.8-14.7,17.2-24.6,28.1-27,10.6-23.3,30.7-48.7,46.9-67.8-14.7-9.9-21.9-23.5-22.7-42.3l-1.1-25.6,13.2,22c13.7,22.9,29.2,35.8,47,39a72.5,72.5,0,0,1-7.9-9.9L-37.9,86.5l26.8,18.2c16.7,11.3,35,16.2,55.8,14.9l4.2-.3,2,3.7c8.9,16.6,21.3,32.4,36.9,47l4.6,4.3-4.1,4.7c-6.1,7.1-12.4,14.3-17.9,22.8L68.1,205l-4-.4-6-.8a31.2,31.2,0,0,0-5.1-.5c-1.5,1.4-4.3,9-5.3,11.5l-.9,2.4-2.3,1.1A25,25,0,0,0,32,233.9a23.4,23.4,0,0,0-.9,5.6q6.4-2.6,15.5-1.7l5,.5.4,2.3c4.1-2.2,9.7-3.2,16.9-.2l3.3,1.4c8.3-3.7,12.9-2.9,18.4-1.1s9.9,3,25.6-1.5c2.4-7.1,5.9-12.1,8.8-16.3s4.6-6.8,4.3-9.3c-1.7-16.8,1.1-28.9,3.1-36.9.4-1.9,1-4.1,1.2-5.4-31-33.5-46.9-59.3-46.4-102.3C57.3,51.5,26.1,25.7,20.9,5.6l-1-4c-1.5-6.2-1.9-7.4-3.7-8.7C13-9.4,4.4-11.7-7.2-14.8l-17.9-4.7,17-7.5a25.6,25.6,0,0,0,6-3.6l2.2-1.8,2.8.3c6.9.8,13.8-1.1,21.1-6l2.1-1.4,2.5.4c10.2,1.7,29.4-1.7,32.9-5l2.5-2.4,3.4.8c15.1,3.3,28.4,4.3,40.3,3a79.5,79.5,0,0,1-12.5-8.5L69.9-72,101-62.4c21.5,6.7,50,10.1,69.9,6.2l-3.1-1.6-25-15,29,3c20.8,2.1,38.7.3,54.3-5.6-6.3-2-12.3-4.2-17.8-6.2l-53.8-19.5,56.9,7c28.4,3.5,53,1,74.5-7.7a376.3,376.3,0,0,1-43.2-8.5l2-12.8c60.6,3.3,103.7-7.7,138-35.7a531.7,531.7,0,0,1-84.1,6.9c-72.9,0-133.3-16.4-203.9-35.7l-32-8.7c-57.7-15.4-116.8-18.9-166.4-10-36.5,6.6-64,19.3-78.3,35.9a48,48,0,0,1,23,3.5c10.8,4.5,19,12.7,21.8,21.9,5.2,17,.9,31.9-12.8,44.4-11.3,10.3-27.7,18-43.6,25.5s-30.6,14.4-40.4,23.3l-3.9,3.5-4.3-3c-16.2-11.5-26.1-19.9-32-30.8l-.3-.6-.2-.6c-2.1-6.8-1.3-15-.6-23,.2-2.2.4-4.2.5-6.2l.5-8.1,7.8,2.2,5.9,1.6c11.1,2.8,15.6,5.2,19.2,17.8a41.6,41.6,0,0,0,12-24.8c1.3-12.2-3.7-23.7-14.4-33.1l-3.6-3.2,2-4.4c2.2-4.7,1.2-13.5-8.7-22.7l-.6-.5-.4-.6c-4.8-7.2-3.3-23.7,3.1-37.3-11.4,3.7-18.9,10.9-20.8,20.4l-1.4,7.1-6.9-2.2a83.8,83.8,0,0,0-29-4.2l-6.6.2V-211c-.2-14.8,2.8-27.4,9.1-38.2a53.8,53.8,0,0,0-29.2,44.5l-2.6,43.9-9-37.9a106.2,106.2,0,0,0,1.4,11.2l.5,2.7-1.6,2.2c-16.2,22.1-27.5,41.5-34.6,59.7l9.4-5.5-6.4,17.2c-10.2,27.2-19,75.1-16.1,114,2.5,30.4,32.2,61.8,63.6,95,34.4,36.3,69.9,73.8,79,117.8l1.1,5.3-5.1,2a195.8,195.8,0,0,0-18.4,8.5l-3.5,1.8-4.7-3.3c-2.9-2-5.7-4-6.9-4.1s-1.8.2-5.5,3.3l-4.3,3.7-4.2-3.7c-3.2-2.8-7.2-6-10-5.8s-4.6,2.7-6.3,4.8l-4.6,5.8-5.2-5.3c-1.5-1.6-3.4-2.2-7.8-3.7h-.3c-3.3,2.2-9.1,11.3-12.1,19.8l1.2-1.1,2.7-2.4,3.5,1,6.1,1.6,5.3,1.3a18.8,18.8,0,0,1,8-2.1,15.4,15.4,0,0,1,11.3,4.7l1.4,1.3,8.3-5.5Zm-40.3-16.8h0Zm474-54.2h0ZM-195,237.7l-5.4-8.8-1.3-2-.5.4c-3.5,2.4-10.7,7.5-21,1l-4-2.5,1.1-4.5c1.4-5.8,6.7-14.1,12.3-22.9l2.2-3.5h4.3c32.9,0,67.1-26.2,78.2-59.9l2.9-8.9,7.3,5.8c7.3,5.8,13.6,8.3,19.4,7.9l14.4-1.2L-93.9,150c-7.6,10.1-15.2,23.5-20.8,33.4s-7.2,12.7-9.3,14.1l-1.1.8-1.3.3c-13,3.1-22.6,10-29.4,21.2l-2.8,4.6-19.3-7.3A39.6,39.6,0,0,0-189.4,229Zm-9.4-29.9c-1.9,3-3.9,6.2-5.5,9.1l.3-.2c2.3-1.6,5.8-4.1,10.5-3.1a11.1,11.1,0,0,1,4,1.8,52.3,52.3,0,0,1,13.7-10.9l2.6-1.5,15.2,5.7a57.2,57.2,0,0,1,32.2-22c1.3-2,3.5-6,5.6-9.6,4.2-7.5,9.6-17,15.4-25.8a43.7,43.7,0,0,1-9.4-4.3C-134.7,180.8-169.9,206.3-204.5,207.7Z" transform="translate(409.6 269.5)" style="fill:#fff"/><path d="M8.5-13.6C93.2-7.9,124.9,67.1,151.4,100.7s83.9,21.6,100.3-15.8c15.2-34.7-3.2-78.2-42.9-84.9C187.1-3.7,166,4.5,162.1,16.1c-3.9,14.9,2.4,31.5,13.3,16.3,38.8-23.6,71.8,30.8,43.1,58.2s-54.7,8-52.1-6.2c12.5,15.4,24.9,5.6,19.3-8.7-4.2-11.1-54.6-5.7-34.4-59.5,9.1-19.8,35.7-30.3,61.2-26.5C259.3-3.1,280.2,51.4,262,91c-20.3,44.1-85.2,56-116.6,22.2-27.8-30-60.5-81.3-118-85.3C7.8,11.8,4.9-9.9,8.5-13.6" transform="translate(409.6 269.5)" style="fill:#26406a;fill-rule:evenodd"/><path d="M15.2-4.7C46.1-.6,90.4,26.2,115.3,66.8,90.9,38.5,51.4,16,28.2,20.1c-4.8-4-9.6-16.4-13-24.8" transform="translate(409.6 269.5)" style="fill:#fff;fill-rule:evenodd"/><path d="M155.5,38c10,15.9,25.2,5.7,28.6.9,24-14.6,52.3,26.6,24.3,48.3,10.4-14.5,1.5-42.2-13.1-38.9,14.4,7.6,10.4,31.3.7,38.4,4.2-36.4-42-20.1-40.5-48.7" transform="translate(409.6 269.5)" style="fill:#fff;fill-rule:evenodd"/><path d="M-208.1,201.3c37.4.4,73.7-29.8,85.1-64.4,8,6.3,16,9.9,24,9.2-13.1,17.4-26.2,44.4-28.7,46.2-15.6,3.7-26.2,12.2-33.4,24.2l-17.2-6.5a46.1,46.1,0,0,0-16.5,15.5c-9.3-15.3-11,6-25-2.7,1.2-4.9,6.5-13.2,11.7-21.5M-310.4-211a90.6,90.6,0,0,1,31.2,4.5c2.9-14.2,16.2-26.6,41.3-28.3-12.6,11.8-16.1,36.5-11.8,42.9,11.3,10.5,13.8,22.2,10.1,30.2,30.3,26.8,14.2,62.6-5.9,74-4.7-22.8-6.8-19.7-23-24.3-.6,9-2.4,19.7-.2,26.9,5.3,9.8,14.5,17.6,30,28.6C-207-85.4-128.7-94.3-143.7-143c-4.9-16-30.9-27.9-52.9-16.5C-176-210.7-60-235.6,64.2-202.5c118.8,31.7,200.1,60.4,339,33.4q-4.2,4.4-8.7,8.5c-30.6,28.2-73.2,48.1-150.3,43.9A376.7,376.7,0,0,0,308.1-106c-24.6,15.5-55.6,23.4-97.6,18.2A327.7,327.7,0,0,0,244.2-77c-20.5,12.4-45.1,16.5-73,13.6,4.2,2.5,11.8,5,17.7,7.5-20.7,12.7-62.9,8.1-89.8-.2,7.7,6.4,17.3,11.5,28.9,15.2-21.6,8.2-44.9,5.5-62.3,1.6-5.9,5.7-28.2,8.4-38.4,6.7-7.9,5.2-16.2,8.1-25.5,7a31.9,31.9,0,0,1-7.5,4.5c31.3,8.3,28.6,8.6,32.8,25.1S60.9,46.6,93.7,65.2c-1.4,42,11.9,66.5,46,103.2,2.2,4.8-6.6,19-4,44.5,1,10-10.2,15.2-14.4,31.5-38.8,12.3-29.4-7.1-52.1,6.4-2-.3-2.9-2-2.9-4.2-8.4-3.5-13.1.3-17.2,5.1-1.5-1.5-2.7-3.7-3.2-7.2-9.6-1-15.4,1.5-18.7,6.2-6.7-10.6-.7-30.7,14.3-38.1,7.4-19.7,7.9-16.1,23.2-14.3,5.7-8.7,12.1-16.1,18.5-23.5C67.7,160.1,54.8,144,45.2,126c-21.2,1.4-41.3-3.4-59.9-16,4.4,6.7,11.1,13.5,19.5,20.2-26.8,3.4-50.2-9.9-69.6-42.4.7,15.9,6.2,30.4,26.2,40.9-19.6,22.6-42.1,50.8-52.4,75.4-10.4.3-23.6,10.7-27.2,25.7-8.9,3.9-11.5,6.5-11.5,12.7l-51.4,1a20.4,20.4,0,0,1,2.2,11c-24.7-15.3-80.8,18.5-121.1-5.6a209.7,209.7,0,0,0-17.7,12.3c-1.1-2.6-.9-5.7,0-9-5.1-5-12.2-3.7-22.4,7.3a22.5,22.5,0,0,1,.9-9.4l-6.4-1.6c-5.8,5.3-10.8,9.3-13.6,8.9-2.8-13.8,13.9-41.3,20.8-38.9s9,2.8,12,5.9c9.3-11.7,17-7.5,25.7.1,9.4-8.1,12.5-5.2,21.8,1.4a202.1,202.1,0,0,1,19-8.7C-276.9,134.1-397.1,70-402.6,3.4c-3-39.9,6-88.8,16.5-116.8l-8.5,5c7.3-26.7,22.5-52.6,41-78-3.7-20.7-1.5-31.8,8.5-39.5a73.5,73.5,0,0,0,1.6,20.8c1.8-30.8,26.6-53.6,54.3-56.1C-304.9-247.7-310.6-230.5-310.4-211Z" transform="translate(409.6 269.5)" style="fill:#26406a;fill-rule:evenodd"/><path d="M-277.3-151.3c10.4-10.7,14.1-5.2,12.2-2.6s-3.8,4.7-6.1,4.9c-3.9.3-8.8.4-6.2-2.4m-52.6,11.6c2.5-3.4,5.2-6.1,9-5.9,18.4-.3,29.6,2.9,41.8-8.6,15.4-14.5,38.7-8.7,47.8,16.7-4.7-.2-14.9,5.5-17.6,14.6,5.5-7.1,12.8-10,19.1-8.1,1.2,10.8-4.3,23.1-13,32.9C-245.7-124.5-289.3-146.7-329.9-139.8Z" transform="translate(409.6 269.5)" style="fill:#fff;fill-rule:evenodd"/><path d="M-283.6-159.6c-13,11.4-21.3-.8-22.6-12.5,8,3.7,15.9,7.6,22.6,12.5" transform="translate(409.6 269.5)" style="fill:#fff;fill-rule:evenodd"/><path d="M-245.3-165.2c4.2-28.2-49.8-39.5-65-40.3-.2,6.4,1.1,12,5.2,16.1-15.2-6.6-18.5-25.4-6.9-54.8-13.6,9.5-29.3,32.6-24.1,57.4-6.4-4.5-11.5-9.9-12.6-17.7-1.4,12.6,1.2,22.1,8.1,28.4a22.6,22.6,0,0,1-8.1-3.9c-12.9,16.9-23,34.3-31.9,51.9,6.1-5.6,12.1-10.6,18.2-12.2-13.9,31.5-22.7,60.7-24.7,86.8,14.6,31.6,41.3,53.5,68.6,75,9.2-30.2,18.8-52.6,28.7-66.9-16.2,11.7-27.3,22.9-34.2,33.9a150.8,150.8,0,0,1,45.4-67.6c-15-21.8-28.7-44.5-56.6-58.1,4.9-10.7,13.7-15.5,28.8-14.5-5.2-3.6-7.6-10.8-8.1-20.3-3.8,1.5-7.3,3.3-9.5,6.5.4-5.2,6-18.4,13.5-16.2,11.5,4.2,25.1,11,34.1,17.2a31.7,31.7,0,0,1,17.2-4.9c.2-8-5.2-14.9-14-21.2,5.9,2.4,19.6,8.2,20.5,21.8a26.8,26.8,0,0,1,7.6,3.6" transform="translate(409.6 269.5)" style="fill:#fff;fill-rule:evenodd"/><path d="M-240.1-13.5c-5.9-45.8,56.3-54.4,86.3-77.7,36.9-28.7,29-73.9-18.7-82.3,150.1-98.8,350.9,59.8,546.7,20.3-122.6,92.8-370-75.8-514.5-25.4,52.4,14.2,39.9,72.2,12.9,86.6-38,20.3-110.5,40.1-102.2,79.2,21.3,2.8,46.8,23.8,51.3,58.3,7.3-9.2,8.9-24.1,7.5-41.9,12.2,24,19.8,50.7,7.4,89.5,8.6-7,15.6-16.4,20.2-29.4,3.6,25.8,9.3,50.9-13.6,86.2a54.3,54.3,0,0,0,24.7-17c-4.2,26.8-47.4,63.9-75.5,59-7.3-8.8-18.1-14.7-25-13,2.6-31.6,22.6-64.4,44.7-80.3-17.7,3-34.2,11.7-48.7,29.9-22.5-22.2-42.7-55.7-40.9-94.1-6.3,15.8-12.8,23-11.7,47.2-32-49.3,6.4-94.4,43.2-118.8-1.2,9.1,1.8,16.6,5.9,23.7" transform="translate(409.6 269.5)" style="fill:#fff;fill-rule:evenodd"/><path d="M-231.4,183.9c5.4-.6,14.4,5.8,17.3,12a244.9,244.9,0,0,0-14.4,29.9c-2.9,7.1,1,15.2,12.1,9.7-8.5.1-7.8-2.5-7.2-6.9,6.9,4.8,14.5,3.5,22.5-1.3,2.3.5,9.8,10.8,14.8,18.2-13.6-5.8-70.9,9.6-88,4.6-21.2-5.7-23-12.2-37.3.5,3.1-9.4,12.3-23.2,21.2-23.5,19.4,9.1,21,23.6,45.7-2.6-14.6,3.9-20.6,12.7-26.1,5.4,21.2-12.2,15.7,3.8,39.5-46" transform="translate(409.6 269.5)" style="fill:#fff;fill-rule:evenodd"/><path d="M-305.2,228c-13.5-4.8-14.1-6.2-27.7,19.6,8-6.6,12.4-6.6,17.6-2.1A63.4,63.4,0,0,1-305.2,228" transform="translate(409.6 269.5)" style="fill:#fff;fill-rule:evenodd"/><path d="M-328.8,228.6c-7.3-1.2-9.5-5.7-12.9-1.9s-10,12.6-12.3,21.3c6.6-6.4,8.7-7,16.5-3.5,2.7-6.8,4.7-11.2,8.7-16" transform="translate(409.6 269.5)" style="fill:#fff;fill-rule:evenodd"/><path d="M-102.3-159.9c134.4,8.7,221.2,54.7,325.6,85.8-96,17.9-163-55.5-323.1-79.5-.7-2.2-1.6-4.3-2.5-6.4m5,15.9a24.1,24.1,0,0,1,.5,6.1c122.1,27.7,183.8,90,268.3,81.5C81.9-85.6,33.7-122-97.3-144ZM-97-129a30,30,0,0,1-1.1,7.6C-7.1-96.2,45.2-39,111.5-42.6,54.2-73.7-16.1-107.2-97-129Zm-3.8,16.1C-29.3-91.8-6.2-67.4,57.7-42-2.6-31.2-35.2-82.9-103.7-106.8A35.5,35.5,0,0,0-100.8-113Zm-8.9,15.7a23.6,23.6,0,0,1-6.7,6.7c48.9,14.6,78.1,61.6,131,55.7C-24.9-44.9-67.4-85.8-109.7-97.2ZM-122.2-84C-80-66-52.9-42.2-21-27.1c-34.4,3.8-65.1-39-113.7-52.1C-131.3-80.4-127.3-82.2-122.2-84ZM-143-74.1a100.4,100.4,0,0,0-10.9,4.7C-108.5-58.4-74.5-23-47.3-22-79.2-39.4-104.8-58.6-143-74.1Zm23.3-103.2c84.3-5.6,173.4,16.6,260.8,39.9,49.4,13.2,74.3,30.4,145.9,36.4C158.6-72.1,50.1-171.6-107.5-168.3A64.2,64.2,0,0,0-119.7-177.3Z" transform="translate(409.6 269.5)" style="fill:#fff;fill-rule:evenodd"/><path d="M74.5,203.2c8.3-8.2,16.3-16.5,23.8-25a275,275,0,0,1-17.6,33.9c-1.6-1.2-4.2-6-6.2-9M-47.7-7.7c18-1.5,22-8.9,29.4-9.4C-6.7-13.1,7.6-9.8,16.4-5c7.4,24.7,17.7,45,31.8,59.7l-12.1-24C47.4,44.5,63,58,84.3,71.2c-1.2,37.3,17,70.4,46.5,101.1-3.9,11.6-4.2,23.2-3.4,34.7-6.2,4.5-12.5,10.6-18.7,17.7-1.7-6.5-3.6-12.8-9.2-18,6.2-11.6,12.5-20.4,18.7-34.7-42.6-41.4-39.7-68.6-47.4-81.8-31,.1-51.5-22.6-61.1-48.7-.2,25.7,8,47.5,26.4,64.6C-13.1,86.7-17.6,38-13.2,2.7-12.4-2.9-37.5-7.4-47.7-7.7Z" transform="translate(409.6 269.5)" style="fill:#fff;fill-rule:evenodd"/><path d="M85.7,222.3c-7.5,3.8-12.6,10.1-13.5,21,4.8-4,15.2-3.6,20-1.6.5-9.2-2-15.4-6.5-19.3" transform="translate(409.6 269.5)" style="fill:#fff;fill-rule:evenodd"/><path d="M71.2,228.7a13.2,13.2,0,0,0-4.5-7.2c-9.7-1.7-16.2,6.7-16.2,21,3.1-3.8,9.1-5.2,16.5-3.7a29.2,29.2,0,0,1,4.2-10" transform="translate(409.6 269.5)" style="fill:#fff;fill-rule:evenodd"/><path d="M49.1,223.8l-4.7-4.9c-9.4,4.1-13.5,13-15,24.5,3.9-3.9,9.2-5.6,15.7-5.5.5-6,1.5-11.4,4-14.1" transform="translate(409.6 269.5)" style="fill:#fff;fill-rule:evenodd"/></svg>