<svg id="Layer_1" data-name="Layer 1" xmlns="http://www.w3.org/2000/svg" viewBox="0 0 547.5 686.2"><title>Husky909_4c</title><path d="M-59.2-265.7A312.8,312.8,0,0,1,0-271a312.8,312.8,0,0,1,59.2,5.2l4.7-4.9c12.1-12.5,25.9-23.5,39.9-33.8,18-13.2,38.7-23,59.9-29.9a192.8,192.8,0,0,1,30-7.5l7.9-1.2,5.6,5.7c4.5,4.6,8.2,12.7,10.6,18.7,8.2,20.1,13.3,42.3,17.6,63.6,3.7,18,4.8,36.7,4.7,55.1a568.6,568.6,0,0,1-5.5,75.2c-1.2,9.2-2.6,18.4-4.2,27.5l35.5,45.9,7.8,149-17.6-24q-3.5,9.2-6.9,18.5c-5.6,15.2-11.1,30.5-16.6,45.8-3.8,10.6-7.5,21.2-11.8,31.5l-15.4,36.9-10.2-27.6c-3,13-6.2,26-9.9,38.8l-2.4,8.2-8.2,2.5C116,246.1,52.7,283.3,11.8,329.7L0,343.1l-11.8-13.4C-52.7,283.3-116,246.1-174.9,228.2l-8.2-2.5-2.4-8.2c-3.7-12.8-6.9-25.8-9.9-38.8l-10.2,27.6-15.4-36.9c-4.3-10.4-8-21-11.8-31.5-5.5-15.3-11-30.6-16.6-45.8q-3.4-9.3-6.9-18.5l-17.6,24,7.8-149,35.5-45.9c-1.7-9.1-3-18.3-4.2-27.5a568.4,568.4,0,0,1-5.5-75.2c0-18.4,1.1-37,4.7-55.1,4.3-21.3,9.4-43.5,17.6-63.6,2.5-6,6.1-14.1,10.6-18.7l5.6-5.7,7.9,1.2a192.8,192.8,0,0,1,30,7.5c21.2,6.9,41.9,16.7,59.9,29.9,14,10.3,27.8,21.3,39.9,33.8l4.7,4.9" transform="translate(273.8 343.1)" style="fill:#c3c7c7;fill-rule:evenodd"/><path d="M0,319.3c-43-48.8-109.3-87.6-170.3-106.1-6.5-22.6-16.1-65.7-22-94.3-6.4,16.1-10.8,35.6-14,44.5-6.4-15.3-22.7-63.3-37.7-102.1,1.1-9.6,4-26.8,6.6-38.1-6.8,6.4-14.4,17.9-17.8,22.7l4.8-91.5,36.9-47.6s-19.2-95.6-6.4-158.6,24-74.4,24-74.4,45.3,6.9,83,34.6,47.7,43.5,47.7,43.5c34.7-9.2,95.9-9.2,130.7,0,0,0,10-15.9,47.7-43.5s83-34.6,83-34.6,11.2,11.4,24,74.4-6.4,158.6-6.4,158.6l36.9,47.6,4.8,91.5c-3.5-4.7-11-16.2-17.8-22.7,2.6,11.3,5.5,28.5,6.6,38.1-15,38.8-31.3,86.8-37.7,102.1-3.3-8.9-7.6-28.3-14-44.5-5.9,28.6-15.5,71.7-22,94.3C109.3,231.7,43,270.5,0,319.3" transform="translate(273.8 343.1)" style="fill:#26406a;fill-rule:evenodd"/><path d="M-97.6-20.5s1.1,5.4,2.6,12.3S-92.9,0-92.9,0-84.9.3-73-2.5s14.4-3.6,14.4-3.6A40.5,40.5,0,0,1-78.3,8.2c-12.7,4-17.9,4-17.9,4s-8.5-16.8-1.3-32.6m195.1,0S96.5-15.1,95-8.1,92.9,0,92.9,0,84.9.3,73-2.5,58.6-6.1,58.6-6.1A40.5,40.5,0,0,0,78.3,8.2c12.7,4,17.9,4,17.9,4S104.7-4.7,97.6-20.5ZM0-189.9s-11.2,41.6-15,60.3-4.2,26.5-4.2,26.5,7.9,15.5,9.6,27.7,1.7,14.3,1.7,14.3S-14.3-58-19.9-42.5s-5.8,21.4-5.8,21.4L-37-33.4s-25.2,8.3-40.6,1.8S-96-51-96-51l-9-8.5c11.4-5.8,16.8-7.3,26.5-7C-83-71.2-96-76-103.8-72c2-3.5,4.2-9,12.9-13.5,6.9-2.1,15.4,1.1,24,6.8C-56.1-71.5-45-60.5-36.6-51.3l11-10.6s-10.8-26.7-30.1-40.6S-90-121.2-90-121.2s16.2.8,28.5,3.3,16.6,4.9,16.6,4.9-17.5-14.7-44.9-20.4-41.8-1-41.8-1c-2,28.9,7.7,55,19.2,73.4-23.9,12.2-34.4,19.3-51,31.5-16,35.2-15.1,62-8.7,99.1,7.9-15,20.5-34.6,36.1-46.9-11.2,16.3-19.4,42.7-24.5,63.4,4.7,17.3,34.6,57.6,45.4,66.8-.1-23.7,3.5-41.4,12.4-67.4C-94,127-80,164.3-71.8,177.3c20.4,14.2,51.1,27,71.8,36.3,20.7-9.3,51.4-22.1,71.8-36.3C80,164.3,94,127,102.6,85.4c8.9,26,12.5,43.7,12.4,67.4,10.8-9.2,40.7-49.4,45.4-66.8-5-20.7-13.3-47-24.5-63.4C151.6,35,164.2,54.5,172,69.6c6.4-37.1,7.3-63.9-8.7-99.1-16.5-12.2-27.1-19.4-51-31.5,11.5-18.4,21.2-44.5,19.2-73.4,0,0-14.3-4.7-41.8,1s-44.9,20.4-44.9,20.4,4.4-2.4,16.6-4.9S90-121.2,90-121.2s-15,4.9-34.3,18.8S25.6-61.9,25.6-61.9l11,10.6C45-60.5,56.1-71.5,66.9-78.6c8.7-5.7,17.2-9,24-6.8,8.7,4.5,10.9,9.9,12.9,13.5-7.8-4-20.9.8-25.3,5.5,9.7-.3,15.1,1.2,26.5,7L96-51S92.9-38.1,77.5-31.6,37-33.4,37-33.4L25.8-21.1s-.2-5.9-5.8-21.4S7.9-61.1,7.9-61.1s0-2,1.7-14.3,9.6-27.7,9.6-27.7-.4-7.7-4.2-26.5S0-189.9,0-189.9Z" transform="translate(273.8 343.1)" style="fill:#fff;fill-rule:evenodd"/><path d="M-114.9-45l-39.8,20.6a119.8,119.8,0,0,0-9.2,31.2,178.9,178.9,0,0,0-1.6,29.9s3-5.8,20.1-13.5,19.4-8.4,19.4-8.4-8.6,21.6-14.2,38.3S-148.1,77-148.1,77s4.6,17.4,9.9,27.1a148.2,148.2,0,0,0,11.5,17.7s4.6-20.9,11.2-34.8a272,272,0,0,1,14.2-25.8s7.6,39.6,12.2,51.2,3.9,14.8,4.6,11.6,3.6-29.9,8.2-45.4,11.5-23.8,11.5-23.8l5.9-27L-71.4,36l12.5-17.4L-55.6-2s-6.3,7.2-20.2,14.5S-100.4,20-100.4,20a127.1,127.1,0,0,1-7.9-28c-2.3-15.1,4.8-25.4,4.8-25.4Zm227.7,0,39.8,20.6a119.8,119.8,0,0,1,9.2,31.2,178.9,178.9,0,0,1,1.6,29.9s-3-5.8-20.1-13.5-19.4-8.4-19.4-8.4,8.6,21.6,14.2,38.3S146.1,77,146.1,77s-4.6,17.4-9.9,27.1a148.3,148.3,0,0,1-11.5,17.7s-4.6-20.9-11.2-34.8A272.1,272.1,0,0,0,99.4,61.2s-7.6,39.6-12.2,51.2-4,14.8-4.6,11.6S79,94.1,74.4,78.6,62.9,54.8,62.9,54.8l-5.9-27L69.4,36,56.9,18.6,53.6-2s6.3,7.2,20.2,14.5S98.4,20,98.4,20a127.1,127.1,0,0,0,7.9-28c2.3-15.1-4.8-25.4-4.8-25.4ZM-97.6-20.5s1.1,5.4,2.6,12.3S-92.9,0-92.9,0-84.9.3-73-2.5s14.4-3.6,14.4-3.6A40.5,40.5,0,0,1-78.3,8.2c-12.7,4-17.9,4-17.9,4S-104.7-4.7-97.6-20.5Zm195.1,0S96.5-15.1,95-8.1,92.9,0,92.9,0,84.9.3,73-2.5,58.6-6.1,58.6-6.1A40.5,40.5,0,0,0,78.3,8.2c12.7,4,17.9,4,17.9,4S104.7-4.7,97.6-20.5ZM-12.8-88.1A68.8,68.8,0,0,1-9.6-75.3c1.7,12.2,1.7,14.3,1.7,14.3S-14.3-58-19.9-42.5s-5.8,21.4-5.8,21.4L-37-33.4s-25.2,8.3-40.6,1.8S-96-51-96-51l-9-8.5c11.4-5.8,16.8-7.3,26.5-7C-83-71.2-96-76-103.8-72c2-3.5,4.2-9,12.9-13.5,6.9-2.1,15.4,1.1,24,6.8C-56.1-71.5-45-60.5-36.6-51.3l11-10.6a105.1,105.1,0,0,0-4.7-9.7l-9.5,5.3S-66.2-89.5-83.3-94s-25,9.7-25,9.7l-9.9-7.7a109,109,0,0,1-11.1-10.7A131.1,131.1,0,0,0-112.3-61c-23.9,12.2-34.4,19.3-51,31.5-16,35.2-15.1,62-8.7,99.1,7.9-15,20.5-34.6,36.1-46.9-11.2,16.3-19.4,42.7-24.5,63.4,4.7,17.3,34.6,57.6,45.4,66.8-.1-23.7,3.5-41.4,12.4-67.4C-94,127-80,164.3-71.8,177.3c20.4,14.2,51.1,27,71.8,36.3,20.7-9.3,51.4-22.1,71.8-36.3C80,164.3,94,127,102.6,85.4c8.9,26,12.5,43.7,12.4,67.4,10.8-9.2,40.7-49.4,45.4-66.8-5-20.7-13.3-47-24.5-63.4C151.6,35,164.2,54.5,172,69.6c6.4-37.1,7.3-63.9-8.7-99.1-16.5-12.2-27.1-19.4-51-31.5a130.7,130.7,0,0,0,17.4-44.5c-4.9,5.4-9.9,10.6-13.6,13.5l-9.9,7.7s-7.9-14.2-25-9.7S37.8-66.3,37.8-66.3l-8-4.5c-2.8,5.3-4.3,8.9-4.3,8.9l11,10.6C45-60.5,56.1-71.5,66.9-78.6c8.7-5.7,17.2-9,24-6.8,8.7,4.5,10.9,9.9,12.9,13.5-7.8-4-20.9.8-25.3,5.5,9.7-.3,15.1,1.2,26.5,7L96-51S92.9-38.1,77.5-31.6,37-33.4,37-33.4L25.8-21.1s-.2-5.9-5.8-21.4S7.9-61.1,7.9-61.1s0-2,1.7-14.3a62.1,62.1,0,0,1,2.3-9.9A34.2,34.2,0,0,0-1-103,34.8,34.8,0,0,0-12.8-88.1ZM-92.2-33.8s5.9,7.1,19.1,9.7,28-2.6,28-2.6l2.6,8.1S-59.2-11.2-71.4-8-88.9-4.4-88.9-4.4-94.5-22.5-92.2-33.8Zm184.3,0s-5.9,7.1-19.1,9.7-28-2.6-28-2.6l-2.6,8.1S59.2-11.2,71.4-8,88.9-4.4,88.9-4.4,94.5-22.5,92.2-33.8ZM-1-58.1c-3.9,1.2-9.7,4.4-13.2,12.4C-19.7-32.8-25.7.4-27.6,15.2s-3.6,23.5-3.6,23.5,9.5-3.9,27.3-4.5H2c17.8.6,27.3,4.5,27.3,4.5S27.6,30,25.7,15.2s-7.9-48-13.5-60.9C8.7-53.7,2.9-56.9-1-58.1Z" transform="translate(273.8 343.1)" style="fill:#9dd6f1;fill-rule:evenodd"/><path d="M-21.9,42c-13,2.9-15.4,9.7-15.4,9.7,4.4,7.2,21.5,24.1,23.3,25.8a39.5,39.5,0,0,0,7.8,5l2.3,23.3a80.9,80.9,0,0,0-19,4.9,98,98,0,0,0-19.3,10.7l-20.5-14s-.4-9.7.1-18.5,1.3-13.3,1.3-13.3a58.4,58.4,0,0,0-8.1,18.9,76.3,76.3,0,0,0-1.9,19.3l22.4,20.1,18.7,20.9a100,100,0,0,0,17.4,2c4.8.1,9.6-.2,12.8-.5H0c3.3.3,8,.6,12.8.5a100,100,0,0,0,17.4-2l18.7-20.9,22.4-20.1a76.4,76.4,0,0,0-1.9-19.3,58.4,58.4,0,0,0-8.1-18.9s.7,4.5,1.3,13.3.1,18.5.1,18.5l-20.5,14a98,98,0,0,0-19.3-10.7,80.9,80.9,0,0,0-19-4.9L6.2,82.5a39.5,39.5,0,0,0,7.8-5c1.8-1.6,18.9-18.5,23.3-25.8,0,0-2.3-6.8-15.4-9.7s-31.6-2.7-43.9,0" transform="translate(273.8 343.1)" style="fill:#26406a;fill-rule:evenodd"/><path d="M0,114.8a70.1,70.1,0,0,0-20.7,4.5c-11.9,4.9-17.5,9.5-17.5,9.5a58.1,58.1,0,0,0,6.9,10.9,23.3,23.3,0,0,0,8,6.2s10.6.6,17.5.4l5.8-.2,5.8.2c6.8.2,17.5-.4,17.5-.4a23.3,23.3,0,0,0,8-6.2,58.1,58.1,0,0,0,6.9-10.9s-5.6-4.6-17.5-9.5A70.1,70.1,0,0,0,0,114.8Z" transform="translate(273.8 343.1)" style="fill:#9dd6f1;fill-rule:evenodd"/><path d="M-81.1-58.5a33,33,0,0,1,10.2.7,7.6,7.6,0,0,0-2.1,5.6,7.8,7.8,0,0,0,8.3,7.4,7.8,7.8,0,0,0,7.5-8c3.5,2.1,6.3,4.7,7.4,7.8,0,0-9.1,5.6-19.2,3S-81.1-58.5-81.1-58.5" transform="translate(273.8 343.1)" style="fill:#fff;fill-rule:evenodd"/><path d="M-183.4-294.8s38.5,18,58.1,39.3,24.8,28.5,24.8,28.5l-14.8,15.2-10.6-9-2.6,19.2-14.3-18.8-4.2,33.6-24.2-38.5s1.8,28-1.2,51a299.4,299.4,0,0,1-7.2,38.1s-26-83.4-3.7-158.5" transform="translate(273.8 343.1)" style="fill:#fff;fill-rule:evenodd"/><path d="M183.4-294.8s-38.5,18-58.1,39.3S100.4-227,100.4-227l14.8,15.2,10.6-9,2.6,19.2,14.3-18.8,4.2,33.6,24.2-38.5s-1.8,28,1.2,51a299.3,299.3,0,0,0,7.2,38.1s26-83.4,3.7-158.5" transform="translate(273.8 343.1)" style="fill:#fff;fill-rule:evenodd"/><path d="M-20,45.5c-9,1.9-11.4,4.6-11.4,4.6l3.8,4.2A150.1,150.1,0,0,1,.2,52a147.4,147.4,0,0,1,27.7,2.3l3.8-4.2s-2.4-2.8-11.4-4.6a94.5,94.5,0,0,0-40.4,0" transform="translate(273.8 343.1)" style="fill:#9dd6f1;fill-rule:evenodd"/><path d="M-187-316.9s43.2,13.4,71.6,32.9,50.5,44.1,50.5,44.1c40.9-8.4,88.9-8.4,129.8,0,0,0,22.1-24.6,50.5-44.1S187-316.9,187-316.9C116.3-290,83.1-226.4,83.1-226.4l24.3,30.4S90.5-206,63.9-215.6c-35.8-12.9-92.1-12.9-127.9,0-26.5,9.6-43.5,19.5-43.5,19.5l24.3-30.4S-116.3-290-187-316.9" transform="translate(273.8 343.1)" style="fill:#9dd6f1;fill-rule:evenodd"/><path d="M81.1-58.5a33,33,0,0,0-10.2.7,7.6,7.6,0,0,1,2.1,5.6,7.8,7.8,0,0,1-8.3,7.4,7.8,7.8,0,0,1-7.5-8c-3.5,2.1-6.3,4.7-7.4,7.8,0,0,9.1,5.6,19.2,3S81.1-58.5,81.1-58.5" transform="translate(273.8 343.1)" style="fill:#fff;fill-rule:evenodd"/></svg>