<svg id="Layer_1" data-name="Layer 1" xmlns="http://www.w3.org/2000/svg" viewBox="0 0 510.6 645.6"><title>Husky909_1c</title><path d="M-92.9,0s-.6-1.2-2.1-8.2-2.6-12.3-2.6-12.3c-7.2,15.8,1.3,32.6,1.3,32.6s5.2,0,17.9-4A40.5,40.5,0,0,0-58.6-6.1S-61-5.4-73-2.5-92.9,0-92.9,0Z" transform="translate(255.3 326.3)" style="fill:#050000;fill-rule:evenodd"/><path d="M95-8.1C93.5-1.2,92.9,0,92.9,0S84.9.3,73-2.5,58.6-6.1,58.6-6.1A40.5,40.5,0,0,0,78.3,8.2c12.7,4,17.9,4,17.9,4s8.5-16.8,1.3-32.6C97.6-20.5,96.5-15.1,95-8.1Z" transform="translate(255.3 326.3)" style="fill:#050000;fill-rule:evenodd"/><path d="M255.3,45.7l-4.8-91.5L213.6-93.3s19.2-95.6,6.4-158.6-24-74.4-24-74.4-45.3,6.9-83,34.6-47.7,43.5-47.7,43.5c-34.7-9.2-95.9-9.2-130.7,0,0,0-10-15.9-47.7-43.5s-83-34.6-83-34.6-11.2,11.4-24,74.4,6.4,158.6,6.4,158.6l-36.9,47.6-4.8,91.5c3.5-4.7,11-16.2,17.8-22.7-2.6,11.3-5.5,28.5-6.6,38.1,15,38.8,31.3,86.8,37.7,102.1,3.3-8.9,7.6-28.3,14-44.5,5.9,28.6,15.5,71.7,22,94.3C-109.3,231.7-43,270.5,0,319.3c43-48.8,109.3-87.6,170.3-106.1,6.5-22.6,16.1-65.7,22-94.3,6.4,16.1,10.8,35.6,14,44.5,6.4-15.3,22.7-63.3,37.7-102.1-1.1-9.6-4-26.8-6.6-38.1C244.3,29.5,251.8,41,255.3,45.7ZM-115.4-284c28.4,19.5,50.5,44.1,50.5,44.1,40.9-8.4,88.9-8.4,129.8,0,0,0,22.1-24.6,50.5-44.1S187-316.9,187-316.9C116.3-290,83.1-226.4,83.1-226.4l24.3,30.4S90.5-206,63.9-215.6c-35.8-12.9-92.1-12.9-127.9,0-26.5,9.6-43.5,19.5-43.5,19.5l24.3-30.4S-116.3-290-187-316.9C-187-316.9-143.8-303.5-115.4-284Zm-68-10.8s38.5,18,58.1,39.3,24.8,28.5,24.8,28.5l-14.8,15.2-10.6-9-2.6,19.2-14.3-18.8-4.2,33.6-24.2-38.5s1.8,28-1.2,51a299.4,299.4,0,0,1-7.2,38.1S-205.7-219.6-183.4-294.8ZM172,69.6c-7.9-15-20.5-34.6-36.1-46.9,11.2,16.3,19.4,42.7,24.5,63.4-4.7,17.3-34.6,57.6-45.4,66.8.1-23.7-3.5-41.4-12.4-67.4C94,127,80,164.3,71.8,177.3c-20.4,14.2-51.1,27-71.8,36.3-20.7-9.3-51.4-22.1-71.8-36.3C-80,164.3-94,127-102.6,85.4c-8.9,26-12.5,43.7-12.4,67.4-10.8-9.2-40.7-49.4-45.4-66.8,5-20.7,13.3-47,24.5-63.4C-151.6,35-164.2,54.5-172,69.6c-6.4-37.1-7.3-63.9,8.7-99.1,16.5-12.2,27.1-19.4,51-31.5-11.5-18.4-21.2-44.5-19.2-73.4,0,0,14.3-4.7,41.8,1s44.9,20.4,44.9,20.4-4.4-2.4-16.6-4.9S-90-121.2-90-121.2s15,4.9,34.3,18.8,30.1,40.6,30.1,40.6l-11,10.6C-45-60.5-56.1-71.5-66.9-78.6c-8.7-5.7-17.2-9-24-6.8-8.7,4.5-10.9,9.9-12.9,13.5,7.8-4,20.9.8,25.3,5.5-9.7-.3-15.1,1.2-26.5,7l9,8.5s3.1,12.8,18.5,19.4S-37-33.4-37-33.4l11.2,12.2s.2-5.9,5.8-21.4S-7.9-61.1-7.9-61.1s0-2-1.7-14.3-9.6-27.7-9.6-27.7.4-7.7,4.2-26.5S0-189.9,0-189.9s11.2,41.6,15,60.3,4.2,26.5,4.2,26.5S11.2-87.6,9.6-75.3,7.9-61.1,7.9-61.1,14.3-58,19.9-42.5s5.8,21.4,5.8,21.4L37-33.4s25.2,8.3,40.6,1.8S96-51,96-51l9-8.5c-11.4-5.8-16.8-7.3-26.5-7C83-71.2,96-76,103.8-72c-2-3.5-4.2-9-12.9-13.5-6.9-2.1-15.4,1.1-24,6.8C56.1-71.5,45-60.5,36.6-51.3l-11-10.6s10.8-26.7,30.1-40.6S90-121.2,90-121.2s-16.2.8-28.5,3.3-16.6,4.9-16.6,4.9,17.5-14.7,44.9-20.4,41.8-1,41.8-1c2,28.9-7.7,55-19.2,73.4,23.9,12.2,34.4,19.3,51,31.5C179.4,5.7,178.5,32.5,172,69.6ZM-64.7-44.9a7.8,7.8,0,0,0,7.5-8c3.5,2.1,6.3,4.7,7.4,7.8,0,0-9.1,5.6-19.2,3S-81.1-58.5-81.1-58.5a33,33,0,0,1,10.2.7,7.6,7.6,0,0,0-2.1,5.6A7.8,7.8,0,0,0-64.7-44.9ZM70.9-57.8a33,33,0,0,1,10.2-.7S79-44.7,68.9-42.1s-19.2-3-19.2-3c1.1-3.1,3.9-5.7,7.4-7.8a7.8,7.8,0,0,0,7.5,8,7.8,7.8,0,0,0,8.3-7.4A7.6,7.6,0,0,0,70.9-57.8Zm108.8-78.5a299.3,299.3,0,0,1-7.2-38.1c-3-23-1.2-51-1.2-51L147-186.9l-4.2-33.6-14.3,18.8-2.6-19.2-10.6,9L100.4-227s5.2-7.2,24.8-28.5,58.1-39.3,58.1-39.3C205.7-219.6,179.7-136.3,179.7-136.3Z" transform="translate(255.3 326.3)" style="fill:#050000;fill-rule:evenodd"/><path d="M69.4,94.4a58.4,58.4,0,0,0-8.1-18.9s.7,4.5,1.3,13.3.1,18.5.1,18.5l-20.5,14a98,98,0,0,0-19.3-10.7,80.9,80.9,0,0,0-19-4.9L6.2,82.5a39.5,39.5,0,0,0,7.8-5c1.8-1.6,18.9-18.5,23.3-25.8,0,0-2.3-6.8-15.4-9.7s-31.6-2.7-43.9,0-15.4,9.7-15.4,9.7c4.4,7.2,21.5,24.1,23.3,25.8a39.5,39.5,0,0,0,7.8,5l2.3,23.3a80.9,80.9,0,0,0-19,4.9,98,98,0,0,0-19.3,10.7l-20.5-14s-.4-9.7.1-18.5,1.3-13.3,1.3-13.3a58.4,58.4,0,0,0-8.1,18.9,76.3,76.3,0,0,0-1.9,19.3l22.4,20.1,18.7,20.9a100,100,0,0,0,17.4,2c4.8.1,9.6-.2,12.8-.5s8,.6,12.8.5a100,100,0,0,0,17.4-2l18.7-20.9,22.4-20.1A76.4,76.4,0,0,0,69.4,94.4Zm-97-40.1-3.8-4.2S-29,47.3-20,45.5a94.5,94.5,0,0,1,40.4,0c9,1.9,11.4,4.6,11.4,4.6l-3.8,4.2A147.4,147.4,0,0,0,.2,52,150.1,150.1,0,0,0-27.6,54.3Zm58.8,85.4a23.3,23.3,0,0,1-8,6.2s-10.6.6-17.5.4L0,146.1l-5.8.2c-6.8.2-17.5-.4-17.5-.4a23.3,23.3,0,0,1-8-6.2,58.1,58.1,0,0,1-6.9-10.9s5.6-4.6,17.5-9.5A70,70,0,0,1,0,114.8H0a70.1,70.1,0,0,1,20.7,4.5c11.9,4.9,17.5,9.5,17.5,9.5A58.1,58.1,0,0,1,31.2,139.7Z" transform="translate(255.3 326.3)" style="fill:#050000;fill-rule:evenodd"/></svg>