<svg id="Layer_1" data-name="Layer 1" xmlns="http://www.w3.org/2000/svg" viewBox="0 0 599.9 759.8"><title>Knight439_3C</title><path d="M186.7,379.9c-14.9,0-29.1-9.4-36.7-17.5-6-6.4-9.1-13-8.7-18.5.3-4,.6-8,1-11.9,1.1-13.4,2.3-27.3,1.9-40.8-.9-3.2-1.5-6.3-2.1-9.3-2.7-13.1-4.2-16.4-10.7-16.4h-2.2c-23.3,0-42.7-12.2-45-28.5-.7-4.8-2.3-5.6-5.5-5.6a25.1,25.1,0,0,0-6.9,1.2c.7,6.1,1.5,12.3,2.3,18.3,1.9,14.9,3.9,30.3,5,45.4v2l-1.2,1.6c-6.1,8.3-20.6,13.1-45.4,15-3.8,22.3-8,38.8-15.5,47.5l-5,5.8-3.8-6.6c-5.7-9.8-10.1-23.6-13.7-43.1l-3.4.3c-7.9.7-16.2,1.4-23.2,1.4s-17.5-.8-21.9-6.6l-1.7-2.3.9-2.7c5.9-17,25.6-24,46.2-29.4L-8.8,243c-13.9-2.5-21.6-8.7-28.6-14.2s-13.5-10.7-26.6-10.7c-7.3,0-16.2,1.5-27.1,4.7C-115.1,256-136.4,263-150.1,263s-27.6-8.7-32.6-22.1c-3.2-8.7-5.4-19-7.8-29.9-5.5-25.5-11.2-51.9-28.6-51.9h-.3c-27.2,26.9-52.5,73.4-43.4,125.1l2.4,13.6-11-8.3c-35-26.4-34.7-82-16.4-123.7,0-10.5,1.4-21.7,7.8-40.4,10.9-36.7,50.2-78.5,93.3-99.5S-93.8-23-57.5-66.8l-1.4-1.9c-13-3.2-21.4-14-22.7-29.4s4.1-31.6,14.8-36.7a307.5,307.5,0,0,0,20.3-27.3l-1.3-5.7c-3.4-15.2,2.8-35.9,15.8-52.7,11.5-14.8,26.4-24.1,41.4-25.8,2.6-4.4,6.2-8.9,12.1-11.5a58.9,58.9,0,0,1-3.1-8.6,33.5,33.5,0,0,1-17.5,5A23.5,23.5,0,0,1-14-266.4l-4.1-3.3a37.8,37.8,0,0,0-5.9-.5c-9,0-17,3.4-20.9,8.8l-6.7,9.3-2.9-10.6c-4.6,5.9-5.5,13.2-3.8,17.9l6.3,17-14.6-10.8c-8-5.9-11.8-17.4-10.1-30.8s10.3-32.1,29-40a44.5,44.5,0,0,1,10-5c-3.2-4.3-4.9-8.7-4.8-13.2v-12.2l9,8.2a12.7,12.7,0,0,0,9.1,3.4c8.5,0,19.5-6,30.2-11.8,5.9-3.2,11.9-6.4,17.8-8.9-2.7-4.9-3.3-11-1.7-18.5l2.6-12.7,7.2,10.8c3.9,5.8,9.5,8.5,17.8,8.5,6.7,0,15.1-1.9,25-5.7a40.5,40.5,0,0,1,17.7-3.8c9,0,16.9,2.5,21.5,6.8,7.4,2.9,15.5,10.1,18.1,18.3,7.8,4.9,10.2,15.4,8.5,24.2s-7.7,15.6-15.5,17.7c1.3,14.5-1,26.7-7.1,37.9a96.8,96.8,0,0,0,7.1,7.6c5.7-2.5,10.8-3.8,15.2-3.8,6.6,0,17.6,2.9,20.2,21.6,18.2,9.1,39.9,40.7,38.3,62.5a13.3,13.3,0,0,1-2.4,6.9c5,9.2,9.9,19,14.7,29.8l89.2,24.7L290.4,77.5c-2.1,31.7-18.4,63.9-49.7,98.6-.2,11.5,3.2,23.9,6.7,36.9,6.5,24,13.8,51.3,3.6,85L245.1,317l-4.7-19.4c-5.4-22.4-21.3-33.4-48.4-33.9a171.5,171.5,0,0,0,5.7,19.1c2.2,6.4,4,11.9,4.7,16.4,1.6,6.4,4.5,12.3,7.4,18,5.2,10.5,10.6,21.3,6.9,33.9s-18.1,25.6-28.2,28.5l-.7.2Z" transform="translate(299.9 379.9)" style="fill:#050000;fill-rule:evenodd"/><path d="M283,75l9.2-188.9-86.8-24.2a394.1,394.1,0,0,0-17.4-35.4,7.4,7.4,0,0,0,3.8-6.3c1.6-20.4-21.2-52.5-37.6-58.4-1.6-20.3-12.4-24.6-31-15.1a106.1,106.1,0,0,1-12.6-13.5c8.6-13.9,9.7-28.4,7.6-43.2,18.9.6,21.4-28.1,8.3-33.5-1.3-7.7-9.5-15.1-16.3-17.4-5.9-6.8-23.1-8.2-33.7-2.7-22.5,8.7-40,9-49.1-4.8-1.8,8.6-.4,15.5,5.9,19.8-23.2,6.3-52.1,34.9-69.6,18.9,0,5.7,3.6,11.2,10.4,16.7-6.1,0-11.7,1.4-19,4.6-28.4,14.1-32.7,52.1-17.6,63.4-3.8-10.4,1.7-26.2,16.8-32-2,3.6-3.8,7.1-2.9,10.4,8.5-12,29.7-14.9,46.1-5.5l-7.7-.5c9,7.4,26.1,3,32.2-6.4a55.2,55.2,0,0,0,7.6,22.4c-8.7,1.2-13.1,6.8-16.5,13.4-34,1.5-60.6,46.3-54.8,72.2a68.5,68.5,0,0,1,11-7,339.7,339.7,0,0,1-31.9,45.6c-15,5.3-21.7,51.7,7.7,56.8l4.9,7c-35.3,44.5-83.1,73-132.4,97.2C-221.6,47.9-261.1,88-272,124.8c-6.8,20-7.6,30.7-7.5,39.9-18.1,40.8-17.8,94,14.1,118.3-9.4-53.5,16.4-102.6,46-131.3,32.7-3.4,32.6,54.6,43.8,85.2,7.8,21.3,43,34.9,82.5-21,61.4-18.5,51,16.1,90.2,20.2l.5,45c-21.4,5.3-41,11.8-46.1,26.9,5.3,7.1,28.1,3.9,48.2,2.4,3.1,18.6,7.2,34.9,13.7,46.1,7.3-8.6,11.4-27.8,14.8-49.1,23.2-1.4,39.7-5.3,45.3-13.1-1.6-22.4-5.1-45.2-7.7-67.8,17.5-6.7,22.3-.8,23.4,7.3,2,14.3,20.5,24.4,40.8,23.8,15.5-.4,14.5,15.4,18.7,30.3.5,18-1.5,36-2.8,53.9-.8,10.9,20.6,30.4,39.9,30.2,7.7-2.2,21.1-13.7,24.3-24.8,4.9-17-9.7-30.6-14.3-49.4-1.4-9.6-10.1-27.9-11.3-41.8,31.6-1.3,52.8,9.9,59.5,37.9,15.6-51.8-12-88.2-10.3-122.4C267.9,134.1,281.1,102.8,283,75ZM-18.2-108.6a35.8,35.8,0,0,0-3.8-6.2L.6-144.5A361.6,361.6,0,0,1-18.2-108.6Z" transform="translate(299.9 379.9)" style="fill-rule:evenodd"/><path d="M106.5-336.5l.7,1.5" transform="translate(299.9 379.9)" style="fill:#b71f36;fill-rule:evenodd"/><path d="M29.7-326.6c-22.3,3.4-19.7,23.1-42.8,22C6.5-306.7,5.4-327.2,29.7-326.6Z" transform="translate(299.9 379.9)" style="fill:#b71f36;fill-rule:evenodd"/><path d="M15-331.5c7.5-7.5,16.8-10,27.9-8A94.6,94.6,0,0,0,15-331.5Z" transform="translate(299.9 379.9)" style="fill:#b71f36;fill-rule:evenodd"/><path d="M88.1-344.3a27.1,27.1,0,0,1,8.4,1.6l-1.8,9.4a29.4,29.4,0,0,0-7.9-3.2l1.3-7.9" transform="translate(299.9 379.9)" style="fill:#fff;fill-rule:evenodd"/><path d="M99.2-340.8c3.8,3.4,7.6,11.7,11.2,24.9-2.3-5.7-6.3-10.9-12.9-15.4a65.1,65.1,0,0,1,1.7-9.5" transform="translate(299.9 379.9)" style="fill:#fff;fill-rule:evenodd"/><path d="M123.1-344.3c1.9,9-4.2,18.8-11.4,20.5l.8,2.9,1,3.9c18.8,2.8,20-16.2,9.5-27.3" transform="translate(299.9 379.9)" style="fill:#b71f36;fill-rule:evenodd"/><path d="M41.7-319.1c6.8-2.7,12.9-4.6,17.8-5.1a73.6,73.6,0,0,1,24.2,18.4l12-9c-1.2-5.4-4-10.7-10.4-15.9,9.1,2.6,14.9,9.4,18.6,18.8-4.5-1.5-5.6,7-5,9.7s3.6,8.4,8,6.4l-.3,6,1.6,4.6c6-24.7-1.9-42.3-25.2-48.9-11.4-3.3-34.6,2.1-41.1,15.2" transform="translate(299.9 379.9)" style="fill:#fff;fill-rule:evenodd"/><path d="M37.1-313.9l15.6-5.7a79.4,79.4,0,0,0-9.2,19.9A88.6,88.6,0,0,1,59-320.7c15.8,8.7,24.2,17.8,29.5,27l-3,.2c-1.3-3.2-3.7-6.2-7.9-9.2,1.3,4.9-6.2,7.8-6.3,14.3l-2.2.5.5-3.5c-12,4.5-14.3,2-13.1,6.8-7.8,1.7-15.2,3-21.5,3.2-4.2-6.5-6-11.8-5.6-15.8,2.8,4.1,5.7,7.1,8.8,8.1a12,12,0,0,0,.5-5.9l-7.7-5.6a109.1,109.1,0,0,1,6.2-13.4" transform="translate(299.9 379.9)" style="fill:#fff;fill-rule:evenodd"/><path d="M46.3-289c-.3-2.2,1.2-4.3,2.6-6.5a42.3,42.3,0,0,0,9.3-.5,67.5,67.5,0,0,0,7.1-9.4c2.7-4,.7-7.3-4.9-12.5,7.6,4,12.3,7.9,14.7,11.2s.7,6.6-2.9,10.1l1.3.6c-4.3,3.7-19.4,7.3-27.2,7" transform="translate(299.9 379.9)" style="fill-rule:evenodd"/><path d="M26.2-295.9c.3,6.7,1.9,12.1,6,16a22.2,22.2,0,0,1-2,6.9l5.3-5.9c9.9.6,28.5-3.6,48.1-10.3-8.1,9.1-39.2,18.9-55.6,20.1-8.7-6.3-5.7-20.1-1.8-26.8" transform="translate(299.9 379.9)" style="fill:#fff;fill-rule:evenodd"/><path d="M87.7-264a15.3,15.3,0,0,1,2-3.3c-.2-3.1.5-5.2,1.7-6.6,4.2,13.9,17.1,1.1,12.2-13.9-1.5-4.6-9.3-6.6-12,8.3-1.4-1.9-2.3-5.4-2.2-11.9-11.2,14-39.9,23.3-60.5,25.5,7.1,12.1,14.2,23.3,21,29,8.6-.5,26.7-9.7,31.2-17.3C82.8-256.7,86.7-260.7,87.7-264Z" transform="translate(299.9 379.9)" style="fill:#fff;fill-rule:evenodd"/><path d="M95.8-271.7c-2.6-4.1.2-14.9,1.3-16.3-.3,2.6-.7,7.8.6,7.8a12.1,12.1,0,0,1,1.4-6c-.3,3.4-.2,5.7.4,6.9s1.6.6,3.2.3C102.4-271.1,97.6-268.8,95.8-271.7Z" transform="translate(299.9 379.9)" style="fill-rule:evenodd"/><path d="M36.3-246.2c4,4.8,8,9.6,12.7,11.9,9.3,1,32.2-8.8,39.3-23.8l2.1,12c-8,9.1-29.6,19.8-41.7,20.7a39.1,39.1,0,0,0-.6-7.4c-1,2.3-1.8,4.6-2.5,6.9a59.3,59.3,0,0,1-11.3-10.5c1.8,6,5.5,8.9,11.7,14.2,15.8-1.9,30.3-8.3,45.5-19.9l1.8,7.7c-9.4,9-34.8,21-47.1,21.5.1-2.2-.6-5-.8-7.2-.8,2.1-1.7,4.4-2.3,6.3-5-4.4-9.7-9.7-12.4-14.7,2.2,7.3,8.4,16,13,18.2C53-209,84-221,94.1-230.9l1.6,8.4c-11.3,10.9-36,20.3-51.9,19.7-.2-1.4,0-4.4-.2-5.7-.6,1.1-1.7,3.7-2.3,4.8-6.6-4.7-11-13.8-15.4-22.1a114.4,114.4,0,0,1,10.3-20.4" transform="translate(299.9 379.9)" style="fill:#fff;fill-rule:evenodd"/><path d="M29.5-252.7c-14-1.1-22.5,20.4-19,52.6-9.5-38.2,5.2-57.9,17.1-57.1,1.4.1,4.2,4.6,1.8,4.5" transform="translate(299.9 379.9)" style="fill:#fff;fill-rule:evenodd"/><path d="M7.5-243.5c-13.8,1.7-26.9,9.2-39,26.7a19.2,19.2,0,0,0,4.5,4.4c12.1-13.8,21.4-18.3,29.6-19.1-9.9,3.3-18.3,10.5-25.5,21.1a9.5,9.5,0,0,0,2.3,1.3c8.2-10.6,16.6-16,25-18.6a62.3,62.3,0,0,1,3.2-15.7" transform="translate(299.9 379.9)" style="fill:#fff;fill-rule:evenodd"/><path d="M-33.2-214.1c2.7,7.9,17.1,2.2,24.5,20.8,3.3,8.3,4.2,20.6,12.1,25.5l-.6,1.1c-9.2-3.8-9.1-12.5-16-17-8.9-5.8-22.2-5.5-30.5,2.3,1.3-13.8,4.8-24.7,10.5-32.7" transform="translate(299.9 379.9)" style="fill:#fff;fill-rule:evenodd"/><path d="M-26-206c-1.8-.2-3.3-.5-3.8-1.2a39.6,39.6,0,0,0-7.8,19,24,24,0,0,1,5.1-2.8A41.9,41.9,0,0,1-26-206" transform="translate(299.9 379.9)" style="fill-rule:evenodd"/><path d="M-23.5-205.3c-3.5,4.6-6.3,9.2-6.9,13.8,6.6-1.1,10.7-.5,13.4,1.1l4.6-3.3a19.6,19.6,0,0,0-11.1-11.6" transform="translate(299.9 379.9)" style="fill-rule:evenodd"/><path d="M6.1-200.7a48.6,48.6,0,0,0-13,4,36.3,36.3,0,0,1,1.6,4.3c4.2-1.8,8.6-2,13.1-1.9a29.9,29.9,0,0,0-1.6-6.3" transform="translate(299.9 379.9)" style="fill:#fff;fill-rule:evenodd"/><path d="M17.8-151.4" transform="translate(299.9 379.9)" style="fill:#fff;fill-rule:evenodd"/><path d="M24.3-221c5.3,9.1,10.7,17.5,16.5,21.7,13-.6,25.9-4,38.9-9.1-.8,31-2.9,50.1-6.6,55.2,7.7-7.9,11.6-29.1,13.7-56.8l1.4-.6c-.2,25.3-3.1,46.4-11,59.6-15.7,4.6-31.2,7.9-45.2,4.9a419.3,419.3,0,0,1,7-49.3c-4.3,11-8.1,24.8-10.4,49l-12.5-6.1c-4.8-2.7-9.5-5.6-10.1-10.7,10.6-3.2,7.9-12.8,8.8-21.2,2.5-12,5.1-24,9.6-36.5" transform="translate(299.9 379.9)" style="fill:#fff;fill-rule:evenodd"/><path d="M104.8-268.9l-3.4,3.6c4.2,4.7,8.4,8.9,13.2,10.8l1.2-.9a83.5,83.5,0,0,1-11-13.5" transform="translate(299.9 379.9)" style="fill:#fff;fill-rule:evenodd"/><path d="M145.6-243.7" transform="translate(299.9 379.9)" style="fill:#fff;fill-rule:evenodd"/><path d="M143-244.1" transform="translate(299.9 379.9)" style="fill:#fff;fill-rule:evenodd"/><path d="M113.6-231c7.2-8.7,16.6-12,25.8-13l6.2.2,1.2.4c.2-22.3-21.7-15.4-29.1-8.5-15.6,14.6-25.1,46.2-25,59a55.3,55.3,0,0,1,6-16.6A210.8,210.8,0,0,1,113.6-231Z" transform="translate(299.9 379.9)" style="fill:#fff;fill-rule:evenodd"/><path d="M165.5-175l-5.1-.8" transform="translate(299.9 379.9)" style="fill:#fff;fill-rule:evenodd"/><path d="M180.7-179.4l-.8.6c-2.7-11.4-7.9-23.5-16.7-36.3a13.3,13.3,0,0,0-4.9,2.1,109,109,0,0,1,17.4,36.5,6.2,6.2,0,0,1-2.2,1,117.4,117.4,0,0,0-17.1-36.6,5.5,5.5,0,0,0-2.3,2.6c6.2,11.1,11.8,22.5,15.1,34.8a7.5,7.5,0,0,1-2.3-.1l-8.7-1-1.3-.2c-2.3-8-7.1-14.9-15.7-20.1a30.7,30.7,0,0,0-3.8,6.6c6.8,2.4,11.6,6.5,13.7,13-11.1,1-15.8,7.4-24.6,11.6s-16.5,5.3-24.8-.5c20.3,3.4,30.6-23,41.5-38.4,5.2-7.4,13.6-16.5,27.9-15.2,7.5,10.3,13.2,21.5,13.1,35.9a3.8,3.8,0,0,1-1.9,3.1Z" transform="translate(299.9 379.9)" style="fill:#fff;fill-rule:evenodd"/><path d="M108.1-193.2c2.3,8.3,9.2,11.9,16.8,12.6a45.5,45.5,0,0,0,6.4-11.2c-11.6-.5-24.6-15.6-21.2-22.1s7.9-11.6,14.3-17.6c-4.3,13.3.8,22,14.3,28.2,3.1-4.7,6.3-9.6,11.6-13.2a71.2,71.2,0,0,1,8.1-4.6,22.5,22.5,0,0,1,9.8-1.6c-6-8.2-16.8-17.3-24.5-17.8-21.1-1.3-35.5,19.4-41.7,31.8-8,16.1-11.2,30.7-3.7,39.7.8.9,3.5,1.3,8,.9l1.1-2.4c-4.5-4.3-8.7-8.3-9.4-12.1s5.1-20.2,8.6-25.5C106.5-208,107.1-196.8,108.1-193.2Z" transform="translate(299.9 379.9)" style="fill:#fff;fill-rule:evenodd"/><path d="M141.8-176.6c-2.6-1.7-6.6-2.5-11-3.1-3.2,4.2-5.7,8.9-11.4,12.5,10-.2,14.7-7,22.4-9.4" transform="translate(299.9 379.9)" style="fill-rule:evenodd"/><path d="M180.8-173.5a33.8,33.8,0,0,1-11.2,4.5,105.4,105.4,0,0,1-12.1.6h-2.2c5.1,9.3,8.8,17.4,10.8,23.9a117.9,117.9,0,0,1,13-3.5c7.5,1.8,12.8,3.4,17.1,4.9-4.5-10.3-9.8-20.3-15.3-30.4" transform="translate(299.9 379.9)" style="fill:#fff;fill-rule:evenodd"/><path d="M141.2-161.8a198.5,198.5,0,0,0,11.1,21.4l-5.2,1.6c-2.7-6.2-5.9-12.2-9.1-18.3a12.3,12.3,0,0,1,3.3-4.8" transform="translate(299.9 379.9)" style="fill:#fff;fill-rule:evenodd"/><path d="M-28.5-183.4c-10.3,16.1-20.6,31.9-30.9,46.6,5.9.3,10.7,1.3,14.1,3.3l5.5,2.5c10.9-16,18.1-31.1,22.2-45.6l-1.9-4.6c-1.6-1.5-4.9-2.1-9-2.1" transform="translate(299.9 379.9)" style="fill:#fff;fill-rule:evenodd"/><path d="M36.6-98.3c-4.3-13.2-7.8-29.3-11.4-45.2a98.1,98.1,0,0,1-16.5-9.6,438.6,438.6,0,0,0,16.8,49.6Z" transform="translate(299.9 379.9)" style="fill:#fff;fill-rule:evenodd"/><path d="M29.5-142.2l-3.3-1.1c4.6,20,8.8,36.9,12.4,45.6l2,1.1C36.3-107.2,32.6-122.3,29.5-142.2Z" transform="translate(299.9 379.9)" style="fill:#fff;fill-rule:evenodd"/><path d="M7.6-141.5,3.6-157.1" transform="translate(299.9 379.9)" style="fill:#b71f36;fill-rule:evenodd"/><path d="M9.7-133.8l-.8-3.5" transform="translate(299.9 379.9)" style="fill:#b71f36;fill-rule:evenodd"/><path d="M11.3-129.5l-1-2.6" transform="translate(299.9 379.9)" style="fill:#b71f36;fill-rule:evenodd"/><path d="M12.6-124.7l-.8-2.7" transform="translate(299.9 379.9)" style="fill:#b71f36;fill-rule:evenodd"/><path d="M3.6-157.1A338.6,338.6,0,0,1-19.6-107a287.3,287.3,0,0,0,11,29.3A19.4,19.4,0,0,1-3-72.5l7.4-3.8V-89.1c-6.5-3.3-7.1-15.7,2.3-18.7,4.5-1.4,11.5,1.2,12.5,7.7l2-2.6-6.2-15.8Z" transform="translate(299.9 379.9)" style="fill:#b71f36;fill-rule:evenodd"/><path d="M9.3-103.5a5.4,5.4,0,0,1,5.4,5.4,5.4,5.4,0,0,1-5.4,5.4,5.4,5.4,0,0,1-5.4-5.4,5.4,5.4,0,0,1,5.4-5.4" transform="translate(299.9 379.9)" style="fill:#fff;fill-rule:evenodd"/><path d="M-28.6-115.9C-36.4-127-51-134.6-64.2-133.1S-84.2-92-60.7-83.2a27.5,27.5,0,0,1,.7-4.4c-8-2.4-12.6-8.8-11.4-21.9,5.3,5.5,11.1.7,14.7-6,2.1-3.9,3.1-12.3-2.3-13.1,5.9-1.9,22.9,7,26.6,13.1a9.6,9.6,0,0,1,3.8-.4" transform="translate(299.9 379.9)" style="fill:#fff;fill-rule:evenodd"/><path d="M-48.7-102c2.9-5.3,13.5-11.1,22.4-10l14.3,35.3A12.6,12.6,0,0,0-19-71.8l-10.5-.7A127.7,127.7,0,0,1-48.7-102" transform="translate(299.9 379.9)" style="fill:#fff;fill-rule:evenodd"/><path d="M-55-91.3A253.7,253.7,0,0,0-27-54.3l-.3,3.8C-38.1-61-48.1-71.4-56.9-81.9c-.5-2.9.2-6,1.9-9.4" transform="translate(299.9 379.9)" style="fill:#fff;fill-rule:evenodd"/><path d="M-10.5-73.6C-20.9-71.1-27-48.7-21.7-39.4c1.8,3,5.6,5.2,11,7.7a8.5,8.5,0,0,1-1.1-4.5c-1.3-8.4.6-23.2,8.6-32.4C-4-70.6-10.5-73.6-10.5-73.6Z" transform="translate(299.9 379.9)" style="fill:#fff;fill-rule:evenodd"/><path d="M-.8-65.8c6-3.9,30.2,1.4,32.1,6.3-.7,5.2,2.7,9.6-2,15.7s-8.1,15.4-17,21.4C3.7-24.3-3.8-26.6-6-28.4-9.4-36.6-7.7-58-.8-65.8" transform="translate(299.9 379.9)" style="fill:#fff;fill-rule:evenodd"/><path d="M23.6-100.9c6.1,3.9,12.2,7.9,19,9.3l29.6-6.4.3,11.6-29,6.7a64,64,0,0,1-.7-9.7c-1.3,2.4-2.1,6.2-2.9,9.8-6.8-3.6-13.7-7.8-20.5-12.2l4.2-9.2" transform="translate(299.9 379.9)" style="fill:#fff;fill-rule:evenodd"/><path d="M24.8-83.4A178.9,178.9,0,0,0,42.5-73.1l5.3-1.5a74.7,74.7,0,0,1-3.4,8.9A172,172,0,0,1,22.2-77.4a31.4,31.4,0,0,1,2.6-6" transform="translate(299.9 379.9)" style="fill:#fff;fill-rule:evenodd"/><path d="M51.5-76.5l20.4-5-.5,7.8c-6.7,2.6-14.2,5.2-22.9,7.9l3-10.6" transform="translate(299.9 379.9)" style="fill:#fff;fill-rule:evenodd"/><path d="M7.1-20.1,2-21.5C-8-14.1-35,1.3-46.7,5.6c-3.3-4.1-9.1-3.4-7.7,3.6s7.6,4.9,7.9-.9C-19.6-6.3,36-8.5,66.7,8.2c-.4,3.3,4.9,9.9,7.6.8,1.8-6.3-3.9-8.2-7.4-3.4A344.2,344.2,0,0,1,23.4-17.7L16-17.8c5.4,4.6,15.3,9.4,25.1,14.3Q5.5-10-23.5-2.2C-10.8-8.1,0-14.1,7.1-20.1" transform="translate(299.9 379.9)" style="fill:#fff;fill-rule:evenodd"/><path d="M3.1.7c4,.7,6.5,1.5,7,2.5Q10,16.4,9.9,29.6c-3.1-5.3-6.5-10.7-14.6-16C-.9,9.7,1.9,5.5,3.1.7" transform="translate(299.9 379.9)" style="fill:#fff;fill-rule:evenodd"/><path d="M-6.5,15.3A52.4,52.4,0,0,1,7.8,35.6c.5,103.6-.6,211.7,1.6,310.7C5.2,336.1-2.5,308.8-2.5,284l-4-268.7" transform="translate(299.9 379.9)" style="fill:#fff;fill-rule:evenodd"/><path d="M26.2,15.3A52.4,52.4,0,0,0,11.9,35.6c-.5,103.6.6,211.7-1.6,310.7,4.1-10.2,11.8-37.5,11.8-62.4l4-268.7" transform="translate(299.9 379.9)" style="fill:#fff;fill-rule:evenodd"/><path d="M-269.2,120.3" transform="translate(299.9 379.9)" style="fill:#b71f36;fill-rule:evenodd"/><path d="M-205,71.1" transform="translate(299.9 379.9)" style="fill-rule:evenodd"/><path d="M-163.4,45.3" transform="translate(299.9 379.9)" style="fill-rule:evenodd"/><path d="M179.6-143.9l-105,29.1L84.2,75.7c4.1,43.6,44.8,97.2,95.4,122.3,50.6-25.2,91.3-78.7,95.4-122.3l9.6-190.5-105-29.1" transform="translate(299.9 379.9)" style="fill:#fff;fill-rule:evenodd"/><path d="M81.6-109.1l98-26.6,98,26.6L268.5,69.3c-4.4,45.7-45,97.2-88.9,117.2-43.9-20-84.5-71.5-88.9-117.2L81.6-109.1" transform="translate(299.9 379.9)" style="fill-rule:evenodd"/><path d="M85.4-106.3l94.2-26.2,94.2,26.2L265.1,69.1c-4,45.8-43,92.7-85.5,113.2C137.1,161.7,98,114.8,94.1,69.1L85.4-106.3" transform="translate(299.9 379.9)" style="fill:#b71f36;fill-rule:evenodd"/><path d="M-25.3,5l2.2-.6" transform="translate(299.9 379.9)" style="fill:#b71f36;fill-rule:evenodd"/><path d="M-14.1,1.5C-11.6-1.3-6.6-.1-2.5-.2-5.1,5-7.9,9.7-12,12.5l1.3,1.9.7,24.9C-37,106.8-101.4,225.5-129.3,241c-34.6,19.3-45.9-1-49.6-42.5-2-21.9-15.5-42.3-14.2-43.2C-144,122.6-56.4,48.5-14.1,1.5Z" transform="translate(299.9 379.9)" style="fill:#b71f36;fill-rule:evenodd"/><path d="M-6.3,283.1c-5.5,3-11.9,4.2-19.5,7s-16.9,9-21.5,15c6.6-.4,12.7-4.3,18.8-8,1.9-.5,7.6,4.9,9.8,3.4s10.5-5,11.2-9.4c.3-2,.9-4.9,1.2-8" transform="translate(299.9 379.9)" style="fill:#fff;fill-rule:evenodd"/><path d="M55.1,45.7l1.4,93.5c4.8,15.2,6,45.4,5.9,80.1,16.9-6.1,25.3-2.2,27.9,10.1.6-36.1-8.8-174.9-35.2-183.7" transform="translate(299.9 379.9)" style="fill:#b71f36;fill-rule:evenodd"/><path d="M83,95.4c4.9,13.3,10.6,26.7,16.5,39,8.9,89.2,27.1,85.9,35.6,118.2-13.7-2.8-38.4,0-42.1-17.6,1.9-56.3-3.7-99.4-10-139.6" transform="translate(299.9 379.9)" style="fill:#b71f36;fill-rule:evenodd"/><path d="M104.5,137.6c3.6,23.9,12.8,30.5,27.3,34.1a287.2,287.2,0,0,1-27.3-34.1" transform="translate(299.9 379.9)" style="fill:#fff;fill-rule:evenodd"/><path d="M135.8,176.5c-13.4-2.7-23.3-8.5-28.8-18a134.6,134.6,0,0,0,5.6,30c6.6,6.8,18.8,11.9,31.8,16.7l-8.6-28.7" transform="translate(299.9 379.9)" style="fill:#fff;fill-rule:evenodd"/><path d="M114.7,194.5c3.3,3.3,12.5,8.5,30.7,16.7a115.8,115.8,0,0,1,5.1,20.6c-10.2-4.5-18.8-9-24.2-13.5a107.5,107.5,0,0,1-11.6-23.9" transform="translate(299.9 379.9)" style="fill:#fff;fill-rule:evenodd"/><path d="M141.3,179.7l3.8,3c2.4,5.8,4.6,11.5,5.5,16.3a26.8,26.8,0,0,0,8.4-7l1.6.8a39.8,39.8,0,0,1-12.5,12.4c-2.4-8.6-4.5-16.9-6.9-25.5" transform="translate(299.9 379.9)" style="fill:#fff;fill-rule:evenodd"/><path d="M149.2,211.3l5,19.2c9-6.2,13.1-13,15-20l-.6-3.3A29.4,29.4,0,0,1,156.5,224l-4.1-17.2-3.2,4.5" transform="translate(299.9 379.9)" style="fill:#fff;fill-rule:evenodd"/><path d="M129.3,225.5a230.3,230.3,0,0,0,22.4,12.4l7,30.5c-7,3.4-9.1,6.5-10.3,9.4a477.4,477.4,0,0,0-19.2-52.3" transform="translate(299.9 379.9)" style="fill:#fff;fill-rule:evenodd"/><path d="M157.9,233.5l-2.3,2.6q2.7,15.3,6.6,31.3a10.7,10.7,0,0,1,3.9.2c-4.1-7.7-7.1-21.9-8.2-34.1" transform="translate(299.9 379.9)" style="fill:#fff;fill-rule:evenodd"/><path d="M149.2,281.3c7.8-13.6,23.9-12.4,34.4-.5l2.4,7.5c-7.1-14.5-28.7-17.7-36-1.7l-.8-5.3" transform="translate(299.9 379.9)" style="fill:#fff;fill-rule:evenodd"/><path d="M165.5,280.1c-5.5-.3-10.8,2.9-15.6,11.4-.3,10.3-1.6,23.3-.9,30.9a26.1,26.1,0,0,1,13.1-7.7l2.5-4.6c-.1-5.1,3.5-10,4.9-14.3.1-9.7-2.7-10.5-4.1-15.7" transform="translate(299.9 379.9)" style="fill:#fff;fill-rule:evenodd"/><path d="M192.5,327.9c-.8-3.8-4.4-6.6-9.9-8.5-12.3-4.3-35.6,1.5-34.7,21.3.1,4.8,6.9,11.1,15,14.7l7.3,2.6a11.2,11.2,0,0,0,4.8,1.7c-7.3-11.5,2.1-14.3,2.3-21.8s-1.5-12.2-8.2-16.6a34,34,0,0,1,23.6,6.5" transform="translate(299.9 379.9)" style="fill:#fff;fill-rule:evenodd"/><path d="M225.9,171.2c-5.2,4.6-31,29.2-41.5,29.2-1,0,1.8,23.7,8.5,52.6,12.5-1.7,45,7.6,50.4,28.5,6.3-49.3-15.2-74.6-17.4-110.3" transform="translate(299.9 379.9)" style="fill:#b71f36;fill-rule:evenodd"/><path d="M58.4-316.9s6,4.5,6,7.9-7,11.1-7,11.1l-9.9.7-3.5,9.6,10.2-.5v2.7l-17.5,2.9S46.9-307.1,58.4-316.9Z" transform="translate(299.9 379.9)" style="fill:#fff;fill-rule:evenodd"/><path d="M52.2-278.8l-1.6,4.3s-13.7,3.6-20.2,4c5.5-6.5,5.5-6.8,5.5-6.8A156.8,156.8,0,0,0,52.2-278.8Z" transform="translate(299.9 379.9)" style="fill:#fff;fill-rule:evenodd"/><path d="M55.3-244.8a4.5,4.5,0,0,1-4.5-4.5,4.5,4.5,0,0,1,2.4-4c-3.7-9.1-4.2-13.7-4.2-13.7a96.8,96.8,0,0,1-15.5,3.3C38-255,50-240.5,50-240.5s2.2,0,8-2.3l-1.1-2.3A4.5,4.5,0,0,1,55.3-244.8Zm-10.4-8.8a4.8,4.8,0,0,1-4.8-4.8,4.8,4.8,0,0,1,4.8-4.8,4.8,4.8,0,0,1,4.8,4.8A4.8,4.8,0,0,1,44.8-253.6Z" transform="translate(299.9 379.9)" style="fill:#fff;fill-rule:evenodd"/><circle cx="344.8" cy="121.5" r="2.6"/><circle cx="355.2" cy="130.6" r="2.4"/><circle cx="355.2" cy="117.4" r="2.4"/><circle cx="364.8" cy="125.3" r="2.4"/><circle cx="365.9" cy="113.3" r="2.4"/><circle cx="374.1" cy="119.8" r="2.4"/><circle cx="376.2" cy="108.4" r="2.4"/><path d="M48.2-196.6s-3.4,25.4-.7,46.3c-8.3.2-12.6,0-12.6,0A324.7,324.7,0,0,1,41.3-195Z" transform="translate(299.9 379.9)" style="fill:#fff;fill-rule:evenodd"/><path d="M67.8-213.5c-15,4.2-21.6,4.8-21.6,4.8v4.5a92.3,92.3,0,0,0,24-4.9Z" transform="translate(299.9 379.9)" style="fill:#fff;fill-rule:evenodd"/><path d="M70.1-226.9c-15.2,5.8-21.9,7.1-21.9,7.1l-.2,4.5a102.7,102.7,0,0,0,24.3-7.5Z" transform="translate(299.9 379.9)" style="fill:#fff;fill-rule:evenodd"/><path d="M72.2-239.7c-15,6.3-21.7,7.9-21.7,7.9v4.5a102.6,102.6,0,0,0,24-8.4Z" transform="translate(299.9 379.9)" style="fill:#fff;fill-rule:evenodd"/><path d="M-22.6-179.9a22.3,22.3,0,0,0-5.1-.7c-13.1,20.4-25.5,41-25.5,41a36.3,36.3,0,0,1,6.3,2.4C-37.1-146.1-27.3-165-22.6-179.9Z" transform="translate(299.9 379.9)" style="fill:#fff;fill-rule:evenodd"/><ellipse cx="-65" cy="-119.4" rx="9.8" ry="5.9" transform="translate(370.1 245.7) rotate(-67.7)" style="fill:#fff"/><path d="M42.2-314.1s-5,8.8-6.6,14.4L32.7-301s2.7-7.1,4.8-11.5A34.1,34.1,0,0,1,42.2-314.1Z" transform="translate(299.9 379.9)" style="fill:#fff;fill-rule:evenodd"/><path d="M81.5-331.7a38.4,38.4,0,0,0-36,11.2,62.6,62.6,0,0,1,14-3.7l.8.4C67.2-331.8,81.5-331.7,81.5-331.7Z" transform="translate(299.9 379.9)" style="fill:#fff;fill-rule:evenodd"/><path d="M7.5-243.5c-13.8,1.7-26.9,9.2-39,26.7a16,16,0,0,0,3.4,3.5c1.4-2.2,4.9-6.5,12.4-11.9A51.3,51.3,0,0,1,5.1-234,65.4,65.4,0,0,1,7.5-243.5Z" transform="translate(299.9 379.9)" style="fill:#fff;fill-rule:evenodd"/><path d="M-33.2-214.1c-5.7,8-9.2,18.8-10.5,32.7a22.4,22.4,0,0,1,4.8-3.4,35.2,35.2,0,0,1,.4-8.3c1.1-8,6.7-15.7,6.7-15.7a81.4,81.4,0,0,1,9.8,2.9c4.2,1.5,9.8,7.8,12.9,11.5C-16.7-211.7-30.5-206.4-33.2-214.1Z" transform="translate(299.9 379.9)" style="fill:#fff;fill-rule:evenodd"/><path d="M25.3-289.3s1.7,6.1,3.7,8.7c-1.4,3.1-2.9,6.7-2.9,6.7S22.5-281.4,25.3-289.3Z" transform="translate(299.9 379.9)" style="fill:#fff;fill-rule:evenodd"/><path d="M145.1-201.6c7.2,5,13.2,14.9,17.1,23.7a95.6,95.6,0,0,0-11.5-30.4A49.9,49.9,0,0,0,145.1-201.6Z" transform="translate(299.9 379.9)" style="fill:#fff;fill-rule:evenodd"/><path d="M130.5-232.4a2.6,2.6,0,0,0-2.7,2c-.7,2.3-1.2,12.6,5.3,18.7a70.1,70.1,0,0,0,7.4,5.8,53.1,53.1,0,0,1,6.5-7.6C138.1-227,130.5-232.4,130.5-232.4Z" transform="translate(299.9 379.9)" style="fill:#fff;fill-rule:evenodd"/><path d="M148.8-239.1a25.5,25.5,0,0,0-7,1.2,116.1,116.1,0,0,1,18.9,16.2,28,28,0,0,1,7.5-.9C163.4-229.1,155.6-236.2,148.8-239.1Z" transform="translate(299.9 379.9)" style="fill:#fff;fill-rule:evenodd"/><path d="M172.6-216.8a34.3,34.3,0,0,0-7.1.7,94.3,94.3,0,0,1,18.1,34.7,4.6,4.6,0,0,0,.5-1.6C184.2-196.5,179.3-207.2,172.6-216.8Z" transform="translate(299.9 379.9)" style="fill:#fff;fill-rule:evenodd"/><path d="M-19.6-75.7A10.7,10.7,0,0,1-15.2-78l-13.3-31.3a36.5,36.5,0,0,0-12.6,3.8c6.1,11.4,10.8,19.9,10.8,19.9Z" transform="translate(299.9 379.9)" style="fill:#fff;fill-rule:evenodd"/><path d="M0-63a52.8,52.8,0,0,1,12.5,0A194.5,194.5,0,0,0,9.3-36.6S4.5-45.9,1.8-47s-5.2-4.5-5.2-4.5A33.8,33.8,0,0,1,0-63Z" transform="translate(299.9 379.9)" style="fill:#fff;fill-rule:evenodd"/><path d="M42.5-209.1s-11.1-11.7-12.9-14.6a102.9,102.9,0,0,0,11,17.7Z" transform="translate(299.9 379.9)" style="fill:#fff;fill-rule:evenodd"/><path d="M43.8-221.5s-8.2-4.9-11.3-8.5a80.3,80.3,0,0,0,10,13.4Z" transform="translate(299.9 379.9)" style="fill:#fff;fill-rule:evenodd"/><path d="M47-233.5s-8.6-1.8-12.1-4.9c6.2,7.3,10,10.1,10,10.1Z" transform="translate(299.9 379.9)" style="fill:#fff;fill-rule:evenodd"/><path d="M19.1-100l2-2.6-3.9-10-2.9,5.8A9.1,9.1,0,0,1,19.1-100Z" transform="translate(299.9 379.9)" style="fill:#b71f36;fill-rule:evenodd"/><path d="M4.4-76.2V-87.7c-2.5,4.5-5.1,9.3-8,14.4l.7.9Z" transform="translate(299.9 379.9)" style="fill:#b71f36;fill-rule:evenodd"/><path d="M-19.6-31.4l-.3-.2-.7-.5-.2-.2-1.7-1.6h-.1l-.7-.9h-.1a16.1,16.1,0,0,1-2-3.5h0a23,23,0,0,1-1.6-6.2L-49.9-68.4C-71.3-43.7-109.5-9-139.4,5.7c-47.6,23.4-106.9,55.4-126,99.9-3.3,7.6-8.7,20-10.7,28-1,3.7-2,11.1-2.5,13.8V158c-22.9,36.6-16.7,90.2,3.8,110C-283.4,120.9-95.7,72.8-52.4,16.5c-4.1-1.9-5-6.5-5-8.8,0-8,8.2-9,10.7-4.5a96.3,96.3,0,0,0,9.8-5.3c7.6-9.1,14.4-18.5,18.2-28.6Z" transform="translate(299.9 379.9)" style="fill:#b71f36;fill-rule:evenodd"/><path d="M191.9-144.5l-12.3-23.4-7.2,2,.7,4.5-.7,3.2,3.6,11,3-.7C184.3-146.7,188.4-145.5,191.9-144.5Z" transform="translate(299.9 379.9)" style="fill:#fff;fill-rule:evenodd"/><path d="M-20.9-310.9c.4,1.1-7.1,2.4-8.4,2.8-13,3.9-20.2,6.3-24.5,16.4a24.5,24.5,0,0,1,2.8-9.7c-15.7,8.9-21.9,25.9-19.4,42.5l.4-1.7.4-1.4v-.2q.5-1.6,1.1-3c6.5-14.9,23.6-22.7,44.9-24.1l13.6-.2c8.9-.5,18.1-4.5,27.7-17.9-4.7,3-9,5.5-12,6.3,6.3-4.7,12.9-13.6,19.3-15.7-3.4,0-8,2.1-13.2,5.2,15.1-14,27.6-7.6,31.1-13.8-13.1-.8-26.2-1.8-38.7,10.1,16.5-23,48.7-6.7,64.2-27.7-7.9,4.3-15.1,5-21.8,2.5,8,1.6,17-.8,24.3-6.6,4.3-3.4,11.2-7.3,25.3,0,2.2,1.1,4.8,5,6,7.1s2.7,4.6,3.4,5.9l5.2,7.5c3-1.3,5.7-2.8,7.5-5.1h0l.6-1,.5-1.1c1.6-8.9-1.7-16.8-11.3-23.6.9,4.3.8,10.1-1,11.9.7-11.5-6.7-18-16.8-18.4,5.5,2.4,9,5.4,10.4,8.8-17.2-20.3-44.2,18.3-72.3-6.6.8,5.2,1,7,4.2,11.8,2,2.9,7.1,3.8,7,3.9-23.7,6.8-53.4,33.4-72.1,24.1C-32.1-316.8-23.9-311.6-20.9-310.9Z" transform="translate(299.9 379.9)" style="fill:#b71f36;fill-rule:evenodd"/><path d="M-25.7-319.1" transform="translate(299.9 379.9)" style="fill:#b71f36;fill-rule:evenodd"/><ellipse cx="104.8" cy="-303.9" rx="3.1" ry="6.4" transform="translate(339.9 390.8) rotate(-7.4)" style="fill:#fff"/><path d="M110.8,168.6s6.8,7,12.5,9.5c1.7,12.2,2.4,15,2.4,15s-8.7-3.5-10.9-5.8C110.8,172.6,110.8,168.6,110.8,168.6Z" transform="translate(299.9 379.9)" style="fill:#fff;fill-rule:evenodd"/><path d="M120.8,200.8a94,94,0,0,0,8.5,6c4,10.6,5.8,14.4,5.8,14.4l-7.1-3.7A131.5,131.5,0,0,1,120.8,200.8Z" transform="translate(299.9 379.9)" style="fill:#fff;fill-rule:evenodd"/><path d="M135.1,232.8l7.5,3.5,10,31.2-3.4,4S140.4,242.6,135.1,232.8Z" transform="translate(299.9 379.9)" style="fill:#fff;fill-rule:evenodd"/><path d="M158.7,285.5s4.6,6.2,2.2,12.5-.7,15-.7,15-5.9,1.3-9.2,4c.8-21,1.7-26,1.7-26A14.3,14.3,0,0,1,158.7,285.5Z" transform="translate(299.9 379.9)" style="fill:#fff;fill-rule:evenodd"/><path d="M159.2,326.3s3.5,6.3,0,12.6a9.5,9.5,0,0,0,.8,10.9s-7.2-2.1-9.1-8S154.2,327.5,159.2,326.3Z" transform="translate(299.9 379.9)" style="fill:#fff;fill-rule:evenodd"/><path d="M-80.2,208.1c15.8-42,64.8-127.7,70.8-140,.3-.7,2,161.2,1,161.4s-10.4.6-16.8-5.1c-14-12.3-20.8-15.8-29.3-18C-73,201.7-80.4,208.7-80.2,208.1Z" transform="translate(299.9 379.9)" style="fill:#b71f36;fill-rule:evenodd"/></svg>