<svg id="logo" xmlns="http://www.w3.org/2000/svg" viewBox="0 0 797.9 747.1"><title>Knight-horse012_3c</title><path d="M84.8-136.4a60.2,60.2,0,0,1-3.2-17.7l317.3-47-317,31.6c.4-5.4,1-9.1,1-9.1l8.3.5s-2.7-8.6-10.8-12.9a17.8,17.8,0,0,1-9.1-12.4l2.1-5.1a20.5,20.5,0,0,1-1.6-7.3c-.3-4.6,4.3-20.4,4-28.8a31.3,31.3,0,0,0-4.6-14.8,66.5,66.5,0,0,1-5.9,12.6c-4,6.7-10,7.8-10,7.8s-7.5-5.4-16.4-5.4c-1.6,0-10.8,6.7-10.8,6.7l-3.8-6.7a82.7,82.7,0,0,0-.8-14.3,51.2,51.2,0,0,0-4-11.8L-2-221.4s-4.6-.3-12.1,5.1-3.5,11.6-3.5,11.6l-15.3,19.9-7.5-8.1L-27-205.8l-13.4-6.4,4.8-1.4,1.1-8.3,9.4-11.6-9.7-6.2s.3-10.8-11.6-27.4-21.8-20.7-21.8-20.7,6.5-4.3.5-9.1-9.4-2.4-9.4-2.4l4-8.1s-8.6,5.4-9.4-5.4,10-18.3,10-18.3l-15.9,10.5v-11.3s-10.2,9.1-22.3,5.4-14.3-16.1-14.3-16.1l-4,3.5s9.4-23.7-3.8-31.2-21.2.5-21.2.5,14,.3,14.5,9.4-18,11.3-26.4,22.3-1.1,19.6-1.1,19.6l-8.1-8.6s-.8,5.4,8.1,16.4,20.2,12.1,38.7,8.1,36.9,9.1,36.9,9.1-4.3,3-3.2,6.2a5.5,5.5,0,0,0,3.8,3.8l-22.9,29.6,4.6,12.4-1.6,4s-2.7-1.6-15.9-4.3a164.3,164.3,0,0,0-28.2-2.7l7,15.3-5.1,3.2s-22.1-8.3-43.6,9.9-23.1,38.2-23.1,38.2-5.9,8.6-18.6,18.6-32.8,11-32.8,11-53.2-54.6-90.9-50S-399-162.5-399-162.5s5.1-6.5,15.9-9.7,26.9-5.4,44.1,19.6-2.7,44.4-2.7,44.4.3,1.9,9.1,12.4,47.6,30.4,76.6,31.5S-218.8-46-218.8-46s2.4-5.4,16.4-15.1,23.7-9.1,23.7-9.1l1.6,8.6s-7.5-.5-21.5,11.6-14.2,16.1-14.2,16.1l8.3,1.3L-211-19.1l2.2,7.8A194.5,194.5,0,0,0-226.6.2C-235.7,7-245.4,21-245.4,21s-16.4-2.4-25,1.1-10,8.9-10,8.9-3.2-.8-7.8-13.5,1.6-15.6,0-23.9-7-9.4-7-9.4a24.6,24.6,0,0,1,3.2,10.2c.3,5.4-1.9,5.4-1.9,5.4s-3-10.2-7.8-25.8-28.2-17.5-38.5-10.2-19.4,4.8-19.4,4.8l14.5,4S-353-27.2-360-11s-2.7,21.8-2.7,21.8,0-.8.8-7.3,6.5-11,6.5-11v5.9S-348.9-11-335-11-324.5-.8-324.5-.8l-3.8-2.7s.8,6.2,4,20.4,17.8,20.2,17.8,20.2l-8.3-.5s1.1,3.5,7,7.3,19.1,5.1,30.1-1.1,18.8,1.9,18.8,1.9-1.1,3.5-2.2,7.8a45.2,45.2,0,0,0-.8,10.5s-23.9,3.5-35.2,42.8,4.8,51.4,4.8,51.4-.5-9.4,6.7-24.5,15.9-17.5,15.9-17.5l4.3,14s-5.1,14.2-22.6,32.3-66.7,49.2-66.7,49.2l-.8,8.6s7.3-11.3,23.7-11.8,18.8,11.8,18.8,11.8,3.8-5.4,18.8-18A128.2,128.2,0,0,1-264,182.3l-5.6,28.8s4,7.3,14.8,16.7,17.7,31.7,17.7,31.7l-1.9,7.8v10.5l-5.1,13.4,1.6,7s-2.7,6.7,1.9,16.9,28.5,15.1,28.5,15.1l-9.7,9.7,1.6,25.8s9.1,8.3,18,7.8,25.5-6.4,25.5-6.4l5.9-32.3,2.7-1.6s2.4-5.4,5.1-18.3,9.1-46.5,9.1-46.5l18.8-36.6-1.9,20.4A156.4,156.4,0,0,1-108,287.7c12.4,21.3-6.2,40.9-6.2,40.9l-4.3,20.4s7.5,17.7,17.5,16.9,28.5-11.6,28.5-11.6-.3-12.1-.3-16.9,6.5-15.6,6.5-15.6-3.5-20.4-4.8-24.5-16.4-18.8-16.4-18.8L-97.8,252s1.6-1.9,8.1-11,14.5-40.9,14.5-40.9L-58,177.2A47.6,47.6,0,0,1-34.3,181a35.5,35.5,0,0,1,16.1,14.5s0,2.4,4.8,12.9A50.9,50.9,0,0,0,.4,225.6a96.8,96.8,0,0,0-12.9,4.6c-6.7,3-16.4,9.9-16.4,9.9l-5.6-5.1-.3-10.5s-5.9-2.7-23.1,0-21.8,11-21.8,11l21.5,22.6s.3,9.7,7.3,16.1a13.6,13.6,0,0,0,14.5,3s1.1,3,13.2,3.5S.4,266,.4,266s6.5,3.5,29.8-2.7,16.1-21.8,11.3-42.8-.8-29.1-.8-29.1,14.8-2.7,24.5-9.4,29.3.5,29.3.5a141.9,141.9,0,0,1-24.5-21.3c-12.4-13.4-12.4-24.7-12.4-24.7s2.4,1.1,9.9,3.5a31.5,31.5,0,0,0,13.7,1.4S68.2,136.1,65.2,114,80,78.8,80,78.8s.5-34.4-11.3-59.2S31.3-19.1,31.3-19.1s4.3-8.1,2.2-16.4-8.9-18.6-8.9-18.6l-5.9-4.3a229.9,229.9,0,0,0,2.4-23.1A154.2,154.2,0,0,0,20.6-99s1.3-.5,5.6,1.3,9.7,9.7,12.1,14-2.4,11,4.6,15.6,23.7,5.4,28.8,1.3,16.9-6.4,19.1-7.8,3-11,3.2-16.1S97.8-96,97.8-96l3.5-15.1S91-120,84.8-136.4ZM-127.6-305.8c-24.2,1.6-32.8-16.7-25.8-30.7s16.1-9.7,16.7-21.5-8.1-11.8-8.1-11.8,8.1-2.7,11.8,6.5,5.4,15.1-1.6,20.4-6.5,16.1,6.4,22.1,16.1,5.9,16.1,5.9a19.8,19.8,0,0,1-12.9-8.6c-4.8-7.5-4.8-12.9-4.8-12.9s2.7,9.1,18.3,14,21.5-3.2,21.5-3.2-7.5,10.8-3.8,17.2,7,13.4,7,13.4A66.3,66.3,0,0,0-127.6-305.8ZM-265.5,172.5l18.3-19.7-31.9,25.1,15.1-18.6a116.2,116.2,0,0,1-21.5,18.6c-12.9,8.6-28,12.6-28,12.6s16.1-7.2,37.3-29.8,23.7-54.5,23.7-54.5l7.5.4-7.2,15.1,10.8,11.1s14.3,7.2,23.3,6.8,26.5-.7,26.5-.7l-6.1,6.5Zm21.5-5.4,53.8-21.5,7.9-6.4-3.9,14.3a118.5,118.5,0,0,1,11.1-12.9c6.4-6.5,18.6-15.1,18.6-15.1s1.4-2.9.4-10-6.5-15.1-6.5-15.1l34.4,12.9s-1.1-7.9-1.8-28.7a257.9,257.9,0,0,1,1.8-39.1l1.4,25.5,5.7-38.4,24.4,7.9a161.7,161.7,0,0,1-3.2,19c-2.2,8.6-12.5,25.5-12.5,25.5s4.7-4.3,10.4-14.4,11.5-27.3,11.5-27.3l3.9,1.8a57.4,57.4,0,0,1-4.7,25.1C-97,84-105.6,96.5-118.1,110.2s-25.5,50.5-25.5,50.5-9.3-5.4-27.3-5.4-47,6.5-47,6.5l26.2-10Zm63.1,33.7s2.1,19.9,3.8,41.4-15.6,36-15.6,36l-4.8,12.9-3.2-5.4.5-27.4s-12.9-11.8-18.3-17.2-8.6-35-8.6-35,10.8-3.2,24.2-16.7,14.5-19.9,14.5-19.9h18.8l1.1,17.2Zm104-109.4s-20.1,10.4-41.6,41.6-15.1,53.1-15.1,53.1-15.8-20.4-34.1-22.2-67.8,2.9-67.8,2.9,36.2-7.2,62-7.9,31.9,10,31.9,10,2.2-9,10-25.8,17.2-29.4,34.8-54.9,15.8-40.2,15.8-40.2l9.3,6.1s0,5-6.5,16.1A207.6,207.6,0,0,1-93.4,92.6,97,97,0,0,0-78.3,78.2c6.8-8.2,8.3-12.9,8.3-12.9ZM-27.6,68a38.1,38.1,0,0,0-4.8,8.6S-52.3,46.5-79.2,35.7s-39.3-13.4-39.3-13.4a81.7,81.7,0,0,1,2.2-27.4c3.8-15.1,7.5-25.3,7.5-25.3S-110.4-11.6-98.6.8s40.9,22,59.2,35.5S-16.8,60-16.8,60-23.8,62.6-27.6,68Zm22-239.3.5-26.1,6.4,4s-8.6-5.4-7.8-13.4S-2-218.1-2-218.1a10.1,10.1,0,0,0,5.1,6.7c4.6,2.7,12.1,2.2,12.1,2.2L.1-201.7l12.1.8s1.3,6.2-4,9.4S-5.5-171.3-5.5-171.3ZM46.5,131c1.3,7,7.1,17.2,10.5,22.7a81.3,81.3,0,0,1-5.8-15.9c-4.3-15.8-1.4-24-1.4-24L54,117s-3.2,9.7.4,24,21.9,33,21.9,33l-13.3.7c-6.8.4-20.4,6.8-20.4,6.8a166.6,166.6,0,0,0,3.6-29.4c.7-17.6-8.6-31.6-8.6-31.6l7.2-11.1A143.3,143.3,0,0,0,46.5,131ZM20.3,40.6c12.4-21,11.8-52.7,11.8-52.7S49.9,5.1,41.3,36.8,6.9,92.8,6.9,92.8s2.7-3.2,2.2-14S4.2,63.2,4.2,63.2,7.9,61.6,20.3,40.6ZM40.5-125.3c-7.3,1.1-9.7,2.7-9.7,2.7S19.5-132.6,15.2-145s-3.5-18.8-3.5-18.8a12.4,12.4,0,0,0,7,4.8,15.8,15.8,0,0,0,9.1-1.1s-.5,11.3,3,18.3,34.4,24.2,34.4,24.2S47.7-126.4,40.5-125.3Z" transform="translate(399 373.5)" style="fill:#050000"/><path d="M-112-201.4l-43-20.4s-18.3-3.2-32.8,9.7-18.8,21-21.5,39.3-11.3,46.3-26.9,53.2-40.3-4.8-40.3-4.8,26.4,8.1,40.3-3.2,16.7-40.3,16.7-40.3-15.1,17.2-32.8,21-21.5,3.8-21.5,3.8-38.7-41.9-72.1-49.5-39.8,13.4-39.8,13.4,44.1-14,57,25.3-1.6,47.3-1.6,47.3,48.9,44.6,100.6,20.4,44.1-73.7,44.1-73.7-9.1,17.2-14,24.7-21.5,22.6-21.5,22.6,16.1-22.1,22-38.7,5.9-23.7,5.9-23.7l-9.1,10.8s-.5-32.3,33.4-40.3S-112-201.4-112-201.4Z" transform="translate(399 373.5)" style="fill:#1e4ca0"/><path d="M-117.7-173.7s-4-6.7-15.1-7A38.8,38.8,0,0,0-151-177s1.3,10.8,5.4,16.9,5.9,8.6,5.9,8.6a32.2,32.2,0,0,1,9.7-14.8C-122.8-172.1-117.7-173.7-117.7-173.7Z" transform="translate(399 373.5)" style="fill:#c3c7c7"/><path d="M-126.8-184s-12.1-.8-22.3,4a27.1,27.1,0,0,0-13.4,13.4l6.2-5.4a73.3,73.3,0,0,0,7.8,12.6,77.4,77.4,0,0,0,8.1,9.4l-25.3-12.1-1.1-13.7s14.8-10.2,25-11.8S-126.8-184-126.8-184Z" transform="translate(399 373.5)" style="fill:#c3c7c7"/><path d="M-90.8-161.6s-3-19.4-14-29-12.4-11-12.4-11l-30.9-2.2-3.5,4.6,21.5,9.7-8.1-8.3s3.5-2.2,13.4,5.1S-98-162.7-98-162.7l-2.7-12.1Z" transform="translate(399 373.5)" style="fill:#c3c7c7"/><path d="M34.3-234.5l6.4-4.2s13.3,4.3,19.4,10,7.2,21.9,7.2,21.9L58.7-181l-.9-.8C56.4-200.9,51-223.7,34.3-234.5Z" transform="translate(399 373.5)" style="fill:#1e4ca0"/><path d="M27.7-219.1c3.9-11.1,1.8-13.3,1.8-13.3l2.9-1.9c16.7,10.9,22.1,33.7,23.4,52.8-3.8-3.3-19.3-15.9-32.1-19.7-8.8-2.6-13.9-2.4-16.5-1.9C12.5-205.1,24.7-210.5,27.7-219.1Z" transform="translate(399 373.5)" style="fill:#1e4ca0"/><path d="M-43.2-162.4l-8.6,1.8s-10,7.5-15.1,16.1-9.3,21.9-9.3,21.9,16.9-5,24.7-19S-43.2-162.4-43.2-162.4Z" transform="translate(399 373.5)" style="fill:#c3c7c7"/><path d="M81.6-120.8c-28.6-2.1-32.2-33.5-28.1-56,4.3,5.2,5.2,6.9,5.2,6.9L68-196.1l11.5,10.8-1.8,3.9a307,307,0,0,0,1.8,36.9c2.2,17.6,18.7,33.7,18.7,33.7l-10.4,9.5C82.2-108.5,73.4-113.5,81.6-120.8Z" transform="translate(399 373.5)" style="fill:#1e4ca0"/><path d="M32.6-183.2c-1.4-4.7-7.9-11.5-7.9-11.5s12.9,3.6,21.5,13.3l4.9,5.6c-4,22.5-.5,53.9,28.1,56-8.2,7.3.6,12.3,6.1,19.5l-2.2,2L67.7-112.5l3.6-4.3s-33.7-17.2-38-26.9-2.5-22.2-2.5-22.2S34-178.5,32.6-183.2Z" transform="translate(399 373.5)" style="fill:#1e4ca0"/><path d="M-62-156s-15.9,13.4-20.7,19.6-8.3,11-8.3,11l-1.9-11.3-5.5,10.9-6.8-1.1,6.6-20.3-10.2,19.5s-11-3.9-18.6-9.9-10-10.5-10-10.5,5.9-12.4,15.6-16.7l9.7-4.3,12.6,16.2,10.8,1.8-6.7,11.3,8.9-8.9c3.5-3.5,4.6-4,4.6-4Z" transform="translate(399 373.5)" style="fill:#c3c7c7"/><path d="M-33.2-204.4l-12.4-5.1-19.1,19.9,3.8,3.2-21.8,31.5,14.8-2.7,4.8-5.9L-41.8-174-45-186.4l6.4,8.1,2.7-4.8-10-9.1s-4.3,0-6.7,5.6a28.5,28.5,0,0,0-2.2,11.3s-4.8-7.3.8-16.9,10.5-3,10.5-3Z" transform="translate(399 373.5)" style="fill:#c3c7c7"/><path d="M-111.7-232.8a188.9,188.9,0,0,0-19.4-5.7c-10-2.3-18.7-3.4-18.7-3.4s2.7,8.1,5.7,12.9,5.6,8.3,5.6,8.3,6.1,1.6,16,8.6a143.3,143.3,0,0,1,16.7,13.8l-3.4-7.2s7,4.7,14.3,16.3A67.6,67.6,0,0,1-85.7-167s1.8-8.1-5.7-23.7-26.7-33.5-26.7-33.5h6.8l-8.4-3.4Z" transform="translate(399 373.5)" style="fill:#c3c7c7"/><path d="M-191.9-112.2s-14,21.2-35.5,30.7S-275-73.4-275-73.4s24.5,1.9,35.8,4.8a45.3,45.3,0,0,1,17.8,8.9l34.1-44.6L-200-94.7Z" transform="translate(399 373.5)" style="fill:#1e4ca0"/><path d="M-58.3-221.4l19.6,5.6.7-7.2,7.2-10.4-19.9-10.8,11.3,2.2s-1.2-6.1-7.2-17.7-19-19.9-19-19.9,7.7,8.6,10.6,17.6a37,37,0,0,1,.9,17.6l-1.4,5.6,16.7,6.3-3.6,5.6-13.1-3.8-2.3,9Zm-43.9-10.7s3.6,12.9,10.6,22a61.2,61.2,0,0,0,16,14.3l10.2-13.4-7.9,14.7,23.5-19-13-2.5-14.3,16.1-8.2-8.4c-8.2-8.4-13.5-23.7-13.5-23.7Z" transform="translate(399 373.5)" style="fill:#c3c7c7"/><path d="M-64-216.4l-21.4,2.9a71.3,71.3,0,0,0,8.4,11.4l13.6-14Z" transform="translate(399 373.5)" style="fill:#c3c7c7"/><path d="M-101.4-248.9l1.3,3.5,4-1.3s.9-6.2,6.1-14.1a38.2,38.2,0,0,1,10.9-11.4s-3.6,2.7-7.4,10c-.4.8-.8,1.6-1.1,2.4l22,13.9h.8l-4.4.2-22.3,2.4a34.6,34.6,0,0,0-.2,11.7l7.6,2.9,24.5,7,.5-.6,2.2-8.9-23.8-4.3,2.3-5,20.3,1.2s2.8-13.4.1-23.8-13.2-19.5-13.2-19.5-9.4,3.8-18.3,13.9A61.9,61.9,0,0,0-101.4-248.9Z" transform="translate(399 373.5)" style="fill:#c3c7c7"/><path d="M-129.2-39l-22.6-24.7-21,6.5,16.1-2.2-42,20.4,1.1,14,28-21.5-25.8,27.4L-162-43.3s11.3,13.4,15.6,22.1,4.8,11.3,4.8,11.3a96.2,96.2,0,0,0,9.7-14C-126.5-33.1-129.2-39-129.2-39Z" transform="translate(399 373.5)" style="fill:#c3c7c7"/><path d="M-160.4-31.5S-178.7-17-188.9,26.6s-9.7,68.8-9.7,68.8,15.1-34.4,32.8-54.9,20.4-35.5,15.6-49A173.7,173.7,0,0,0-160.4-31.5Z" transform="translate(399 373.5)" style="fill:#c3c7c7"/><path d="M-164.7-32s-20.4,17.2-26.4,45.2-10.8,83.4-10.8,83.4L-219,91.7l12.4,7-35,24.7-7-3.8s21.5-31.7,29-55.9,7-32.8,7-32.8l-7.5,17.2s-2.7-17.2,11.3-39.8S-164.7-32-164.7-32Z" transform="translate(399 373.5)" style="fill:#c3c7c7"/><path d="M-158.8,120.7s-10.8-12.9-26.4-14.5S-225,117.5-225,117.5s37.1-21,40.3-23.7,16.1,3.2,21,10.8A33.3,33.3,0,0,1-158.8,120.7Z" transform="translate(399 373.5)" style="fill:#c3c7c7"/><path d="M-209.4.2s-10.8,9.7-14.5,27.4.5,28.5.5,28.5l-15.1,42.5s-23.1-3.8-35.5,4.8S-290,117-290,117a60.3,60.3,0,0,1,14-7c7-2.2,10.8-2.2,10.8-2.2s-16.7,8.1-23.7,22.6-5.9,19.4-5.9,19.4-6.5-43.6,11.3-63.5,38.7-24.7,38.7-24.7H-254s1.1-11.8,14-32.3S-209.4.2-209.4.2Z" transform="translate(399 373.5)" style="fill:#1e4ca0"/><path d="M4.4,84.6C5.7,73.6.4,63.9-7.4,63s-15.3,7.2-16.6,18.2,4,20.7,11.9,21.6S3.1,95.6,4.4,84.6Z" transform="translate(399 373.5)" style="fill:#1e4ca0"/><path d="M43.6-4.9a84.3,84.3,0,0,1,3.9,15.1,45.4,45.4,0,0,1-.4,16.1l4.7-2.9-1.1,5.4S61.5,48.5,59,69.3s-10.4,34.1-10.4,34.1l11.5,16.9s-4.7-14,3.2-33.3S74.1,66.4,74.1,66.4a150.4,150.4,0,0,0-10-42C55.4,3.7,43.6-4.9,43.6-4.9Z" transform="translate(399 373.5)" style="fill:#1e4ca0"/><path d="M12.8-53s8.6,9.7,2.2,17.2S-.1-33.1-.1-33.1L12.8-20.7-3.4-24.5S2-9.4,2,12.1-5.5,57.8-5.5,57.8L2,60.5s20.4-28,23.7-53.8l3.2-25.8-9.7-2.7s8.1,1.6,9.1-10.8S12.8-53,12.8-53Z" transform="translate(399 373.5)" style="fill:#1e4ca0"/><path d="M-6.1-36.3S-20.6-47.6-24.3-51.4a87.2,87.2,0,0,1-7-8.1s-11.3,1.6-17.2-5.9l-8.1-10.2-40.9,1.1s-8.1,7-4.3,15.1,35,2.2,35,2.2,1.1,9.1,16.7,18.8,37.6,14,37.6,14,.5,8.1-24.7,0S-72.7-48.7-72.7-48.7l-23.1.5S-104.5-33.1-91-8.4s37.7,22.6,56.5,36.6S-12,56.7-12,56.7s10.8-21.5,10.2-43A173.8,173.8,0,0,0-7.7-26.1s-15.6-4.3-29-12.9-14-13.4-14-13.4,14.5,9.7,26.4,12.4S-6.1-36.3-6.1-36.3Z" transform="translate(399 373.5)" style="fill:#1e4ca0"/><path d="M-161,44.4c16.7-17.8,20.4-49,20.4-49l7.2-9.9c-2.7,10-5.9,23.6-9.3,41.1-8.6,44.1-3.2,64.6-3.2,64.6s-1.6-15.1,3.2-47.3c3.6-24,13.8-56.4,18.7-71.4l7.1-9.8,9.1-3.2S-129.2,4-133.5,47s.5,58.1.5,58.1l-30.1-9.7-16.7-8.6-9.1,2.1S-177.6,62.1-161,44.4Z" transform="translate(399 373.5)" style="fill:#1e4ca0"/><path d="M-156.6-91.4l24.1-10L-151.4-99l.6-1.3c3-8.9-4.1-18.7-12.8-21.9,3.6-1.7,8.6-3.6,10.6-2.3s31.2,22.1,31.2,22.1l-8.6,7,9.1,10.2-14-4.3,14,23.1-24.2-16.1-20.6,6.5A42,42,0,0,1-156.6-91.4Z" transform="translate(399 373.5)" style="fill:#c3c7c7"/></svg>