<svg id="Layer_1" data-name="Layer 1" xmlns="http://www.w3.org/2000/svg" viewBox="0 0 550.5 554.1"><title>Knight246_4c</title><path d="M-137-192.8l12.5-.3,9.7,3.3.7,2.9,3.9,2.4.2,1.8,11.1,1v1.8l2.2,3c2.6,3.4,5,7,7.4,10.6l10,4.9.4.8.2.4c7.9,7.1,15.6,14.5,23.1,21.9a87.4,87.4,0,0,0,16.4,12.8,62.2,62.2,0,0,0,7.4,4l2.9.7c3,.7,6.1,1.2,9.2,1.7a263.9,263.9,0,0,0,37.1,2.7c13.3.1,27.2-2.8,40-5.7,15-3.5,29.9-7.5,45.1-10.3a195.9,195.9,0,0,1,31.1-3.5c21.1-.5,42.3.2,62.5,6.9,24.4,8.2,42.7,23.8,57.2,44.8S275-38.2,275.3-12.6a145.2,145.2,0,0,1-1.9,24.8,88.9,88.9,0,0,1-2.1,9.9l-2.4,8.2-3.2-8c-2-5-4.3-10-6.6-14.9a251.9,251.9,0,0,0-17.1-30.6c-5.5-8.3-12.4-17.3-20.3-23.5a127.8,127.8,0,0,0-32.3-18.6,98.6,98.6,0,0,0-10.3-3.4l-2.4-.6c-1.9,1.8-3.7,3.6-5.4,5.5a144.3,144.3,0,0,0-12.8,15.2,69,69,0,0,0-6.6,11.1c-3.8,8.3-4.6,18.6-4.9,27.6-.4,12,0,24-.7,36-.5,7.8-1.1,16.5-3.2,24.1-1.5,5.5-4,11-8.6,14.5a20.9,20.9,0,0,1-9.8,3.9c-7.1,1-15-1.4-21.8-3.4s-16.2-5.2-22.7-2.6l-1.2.6c-6.9,4.4-8,21-8.5,28.3s-.6,12.8-1.2,19.1S65.2,125.1,57.6,128c-5.1,1.9-10.8,1.6-16.1.9a30.4,30.4,0,0,1-6.2-1.7c-3-1.1-5.9-2.4-9.1-2.8a18.7,18.7,0,0,0-11,2.3c-12,6.1-17.9,27.2-25.1,38.1s-28.5,18.4-41.7,19.8a27.3,27.3,0,0,0-8.3,1.8l-3,1.3a45.6,45.6,0,0,1-5.6,1.7,45.2,45.2,0,0,1-13.8.7l-.3,1-.2.6a32.6,32.6,0,0,1,.9,10.2,34.8,34.8,0,0,1-1,5.9l4.2,8.2-1.7,7.7a69.5,69.5,0,0,1,5.6,7.2,63.1,63.1,0,0,1,4.8,8.7,35.8,35.8,0,0,1,5.2,2.7c4,2.5,7.6,5.8,9.4,10.2a16.1,16.1,0,0,1,1.3,7.6,14.5,14.5,0,0,1-6.3,10.4c-4.7,3.5-11.1,5.1-16.8,5.9a46,46,0,0,1-27.1-4.9c-3.5-1.8-11.6-6.7-13.2-10.5a25.3,25.3,0,0,1-1.3-8.2l-5.4-3.6-.2-1.3c-.5-3.4,1.3-9.4,2.5-12.5s1.6-4.5,2.5-6.7l-3.9-7.7,4.1-9.6a78.1,78.1,0,0,1-.8-8,70.6,70.6,0,0,1,.1-7.6c-1.3-3.6-2.7-8.8-2.7-12.5V180a35,35,0,0,1-2.2-3.7l-1.2-.8a59.6,59.6,0,0,1-10.6-9.8v20.8c.1,4.8-.1,9.6-.3,14.4a250.3,250.3,0,0,1-3.1,30.7c-2.1,12.5-6.1,28.5-14.7,38.1l-6.1,6.8-6.1-6.8c-8.7-9.6-12.6-25.6-14.7-38.1a250.1,250.1,0,0,1-3.1-30.7c-.2-4.8-.4-9.5-.3-14.3l.4-91.8-3.4,8.8,1.6,8.9-2.9,6.1c.5,2.3,1,4.7,1.4,7a117.4,117.4,0,0,1,1.7,18,37.3,37.3,0,0,1-3.2,16.1,26.4,26.4,0,0,1-3,5.1c-.4,2.2-.8,4.4-1.3,6.6a26.9,26.9,0,0,1-4.1,8.7v3.6c0,3.7-1.5,8.8-2.7,12.5a70.7,70.7,0,0,1,.1,7.6,78.1,78.1,0,0,1-.8,8l4.1,9.6-3.9,7.7c.9,2.2,1.7,4.4,2.5,6.7s2.9,9.1,2.5,12.5l-.2,1.3-5.4,3.6a25.3,25.3,0,0,1-1.3,8.2c-1.5,3.9-9.6,8.8-13.2,10.5a46,46,0,0,1-27.1,4.9c-5.7-.8-12.1-2.4-16.8-5.9a14.5,14.5,0,0,1-6.3-10.4,16.1,16.1,0,0,1,1.3-7.6c1.8-4.4,5.5-7.7,9.4-10.2a35.8,35.8,0,0,1,5.2-2.7,63.2,63.2,0,0,1,4.8-8.7,69.4,69.4,0,0,1,5.6-7.2l-1.7-7.7,4.2-8.2a34.8,34.8,0,0,1-1-5.9,32.7,32.7,0,0,1,.9-10.2l-.2-.6c-.5-1.7-.8-3.4-1.2-5.1-.7-3.7-.5-9,0-12.9a42.1,42.1,0,0,1-1-5.2,44.3,44.3,0,0,1-.1-7.3c.1-2.5.3-5.1.5-7.6-1.7-14.8,3.6-27.8,9.1-41.1a21.1,21.1,0,0,1,.2-5.7,43.8,43.8,0,0,1,1.8-8.3c-.1-4.4-.1-8.9,0-13.3.2-9.9.7-19.8,1.7-29.6.8-8.3,2.1-16.5,3.6-24.7l-6.4,2.6-.3-4a99.9,99.9,0,0,1-.3-10.2,97.7,97.7,0,0,1,2.6-21.5l.7-2.7q.5-1.8,1.2-3.6a102.7,102.7,0,0,1,9.3-19c1.3-2,2.6-4.2,4-6.2l.2-15.1,1.4-.9-.5-1.9-12.8-.9-16.3-2.8-2.5-11.2-1.9-.4-8.7-19.9-14.1,10.2.2-26-7.6,3.4v-4.5a81.7,81.7,0,0,1,.5-8.5,107.4,107.4,0,0,1,3.8-19.1c.5-1.8,1.1-3.5,1.7-5.3a159.1,159.1,0,0,1,7.3-16.9c1.3-2.5,2.6-5.1,4-7.6l.4-.8,16.3-8.4a28,28,0,0,1,1.6-4.7c1.4-3.2,5-5.5,8.5-6.7l.2-5.1,9.9-2.2v-5l14-5.1,2,.7-4.8-10.8-.7-1.6,9.3-13.5c2.5-9.8,6.4-17.9,15.4-22.5-2.6-8-1.4-16.6,4.9-23a24,24,0,0,1,8.6-5.5,30.8,30.8,0,0,1,9.4-1.9c7.4-.4,16.3,1.7,22.5,5.8l6.6,4.5a23.3,23.3,0,0,0,4.3,2.4,15.2,15.2,0,0,0,5,.9c3.4.2,6.8-2.5,8.6-5.2l4.2-6.8,1.4,7.9c.7,4.2.2,9.8-2.2,13.4l-.8,1.1a176.6,176.6,0,0,0,18.4,1.2A57.3,57.3,0,0,1-71-246.3c5.7,2.8,11.5,6.9,15,12.3A32.8,32.8,0,0,1-51-223.1a14.4,14.4,0,0,1,.3,4.7l-1.1,7.1-4.3-5.7c-1.9-2.5-5.8-6.5-8.8-7.4l-1.7-.5c.7,1.6,1.4,3.2,1.9,4.8a55.7,55.7,0,0,0,4.5,10.6c2.2,3.7,5.3,6.8,9.6,7.8s8.1-.2,11.6-2.3a25.3,25.3,0,0,0,5.3-4.2l4.9-5.4.4,7.3a36.5,36.5,0,0,1-3,15.6c-5,11-15,15-26.6,13.9a54.9,54.9,0,0,1-31.2-12.8c-3-2.4-5.7-5.1-8.6-7.6s-3.7-3.1-5.6-3.6a50.2,50.2,0,0,0-12-.9,76.4,76.4,0,0,1-11.1-.1,39.4,39.4,0,0,1-5.7-1l-4.7,9.2v.6Z" transform="translate(275.3 277)" style="fill:#fff;fill-rule:evenodd"/><path d="M-177.6,98.8s34,61.2,53.2,74.2,45.2,16.1,55.1,13.6,6.2-3.7,17.3-4.9,32.2-7.4,39.6-18.6S.7,130.8,13.8,124.1s19.2.6,28,1.9,22.9,1.7,24.6-15.6.1-45.4,12.8-50.5,31.2,7.9,45.2,5.9S142,51.6,143.5,26s-1.5-48.6,5.9-64.6S176-72.4,176-72.4s22.9,4,47.6,23.5,44.9,70.2,44.9,70.2S284.4-34.2,251-82.4s-76.1-51.3-117.2-50.4S50.9-113.1,17.5-113.4s-50.1-5.3-50.1-5.3a87.6,87.6,0,0,1-24.9-17.5c-12.1-12.1-23.8-22.6-23.8-22.6l-41.8,12.4-4,65-42.2,70.5Z" transform="translate(275.3 277)" style="fill:#050000;fill-rule:evenodd"/><path d="M-80.9-153.4S-35.4-90,18.4-82.6s81.7-11.8,81.7-11.8S60.5-82.9,23.7-88.2s-48.9-23.2-48.9-23.2,24.4,9.6,74.5-.3,90.5-23.7,144.3-8.5S263.2-45.9,266-27.7s-.6,30.3-.6,30.3-22-72.4-92.2-83.5S83.8-56.8,21-63.6s-95.3-56.3-95.3-56.3Z" transform="translate(275.3 277)" style="fill:#b71f36;fill-rule:evenodd"/><path d="M-76.7-113.1S-51.3-73.5-4-60.2s107.6-9,127.8-13.6,46.7-.6,46.7-.6-31.2,24.7-31.2,56.9-2.9,58.9-5.7,66.7-7.4,12.4-27.5,6.8S27.1,24.7-9.4-2.5L-45.9-29.7S-17.2.6,4.8,20.7,65.4,63.4,65.4,63.4a107.5,107.5,0,0,0-5.9,28.5c-.9,15.5.9,22-7.1,26.3S33.9,119.4,5.1,97.4-95.7-57.9-95.7-57.9l-8.4,4S-50.6,52.3-36,82.9s22.6,44.2,24.7,51.3-9.3,29.1-21.7,33.7-19.5,3.4-19.5,3.4S-81.8,84.7-94.5,32.5s-16.7-84.1-16.7-84.1l-6.5,27.2s37.1,163.6,40.8,179.7,5.6,20.7,5.6,20.7-7.1,1.2-17.6-2.8a45.6,45.6,0,0,1-16.7-11.1l-7.7-80.7L-145.8-35.9s42.2-67.9,69.1-77.2" transform="translate(275.3 277)" style="fill:#b71f36;fill-rule:evenodd"/><path d="M-183.2-187.5l-23.8-8.4-11.1,4-.2,5.3-9.9,2.2-.2,4.9s-7,1.5-8.7,5.6-1.5,5.4-1.5,5.4l-16.9,8.7s-8.6,15.1-12.8,29.2a105.2,105.2,0,0,0-4.2,26.8l7.6-3.4-.2,24.7,12.4-9,9.6,21.8,2.3.5,2.5,11.1,14.2,2.5,14.7,1.1,1.7,5.9-1.9,1.2-.2,12.4.9.8s-11.1,14.6-15.5,29.9-2.9,33.3-2.9,33.3l7.7-3.2c-1.6,8.5-3.5,19.4-4.6,29.7a396,396,0,0,0-1.7,43,40.5,40.5,0,0,0-1.9,8.2c-.6,4.9,0,5.6,0,5.6-5.4,13.1-11.1,26.1-9.3,40.8,0,0-.9,11.1-.5,14.5a37.5,37.5,0,0,0,1.1,5.4s-1,7.8-.1,12.6a34.6,34.6,0,0,0,1.5,6.1,30.8,30.8,0,0,0-1,10.1c.5,5,1.2,6.3,1.2,6.3l-4.3,8.4,1.8,8.2a75.7,75.7,0,0,0-6.4,8,69.3,69.3,0,0,0-5.1,9.4s-10.7,3.7-14.1,11.7.2,17.2,19.5,20,35.9-10.5,37.1-13.6,1.1-8.7,1.1-8.7l5.6-3.7s.5-3.4-2.3-11.1-2.9-7.7-2.9-7.7l3.9-7.7-3.9-9.1s.8-4.9.9-8.5-.2-7.9-.2-7.9,2.8-7.6,2.8-12.1v-4.5s3.4-4.6,4.2-8.4,1.4-7.3,1.4-7.3,6.3-6.7,6.1-19.9a123,123,0,0,0-3.2-25.4l2.9-6.2-1.5-8.8,9.5-24.2-.4,107.5c-.1,4.6.1,9.4.3,14.1a248,248,0,0,0,3.1,30.4c2,11.8,5.8,27.6,14,36.7l4,4.4,4-4.4c8.2-9.1,12-24.8,14-36.7a248.1,248.1,0,0,0,3.1-30.4c.2-4.7.4-9.5.3-14.2l-.4-109.9,10.4,26.6L-131,112l2.9,6.2a123,123,0,0,0-3.2,25.4c-.2,13.1,6.1,19.9,6.1,19.9s.6,3.6,1.4,7.3,4.2,8.4,4.2,8.4v4.5c0,4.5,2.8,12.1,2.8,12.1s-.3,4.3-.2,7.9.9,8.5.9,8.5l-3.9,9.1,3.9,7.7s-.2,0-2.9,7.7-2.3,11.1-2.3,11.1l5.6,3.7s-.2,5.6,1.1,8.7,17.8,16.4,37.1,13.6,22.9-11.9,19.5-20-14.1-11.7-14.1-11.7a69.3,69.3,0,0,0-5.1-9.4,75.7,75.7,0,0,0-6.4-8l1.8-8.2-4.3-8.4s.8-1.3,1.2-6.3a30.8,30.8,0,0,0-1-10.1,34.7,34.7,0,0,0,1.5-6.1c.9-4.7-.1-12.6-.1-12.6a37.4,37.4,0,0,0,1.1-5.4c.5-3.4-.5-14.5-.5-14.5s1.1-9.6-1.1-17.5-8.2-23.4-8.2-23.4.6-.7,0-5.6A40.5,40.5,0,0,0-95,98.5a395.9,395.9,0,0,0-1.7-43c-1.3-12.9-3.9-26.8-5.8-35.5l9.4,9.3A107.9,107.9,0,0,0-95.1,0c-3.4-16.1-13.5-32.3-13.5-32.3l10.7-9.5,9.6-5.7.3-15,6-25.4,7.4,3.2.3-23.5,6.8,2.5s-.3-10.5-6.2-30.2-7.9-23.4-7.9-23.4l-9.8-4.9s-4.9-7.4-7.7-11.1a39.2,39.2,0,0,1-2.8-3.9l-10.8-.9-.3-2.8-3.7-2.3-.6-2.5-7.7-2.6-25.2.6Z" transform="translate(275.3 277)" style="fill:#050000;fill-rule:evenodd"/><path d="M-167.1-103.2l.2-10.3c16.5,6.6,25,14.1,37.4,26.7L-131.3-75l-3.9-3.9.8-8.9a59.5,59.5,0,0,0-5.6-5.7c-3.6-3.2-7.7-6.8-7.7-6.8.3,4.9-.6,7.5-1.5,8.9a109.7,109.7,0,0,0-17.9-11.8m17.6-9.1a91.9,91.9,0,0,0-17.4-7.4l-.8-22.7s12-4,25.2-17.5a11.7,11.7,0,0,0-.8,4.2A11.7,11.7,0,0,0-131.6-144h1.5c0,4.4-.6,15.6-5.6,23.3A19,19,0,0,1-149.5-112.3Zm29.6-43.4,1.3,1.2s2,18.3-.5,34A109.2,109.2,0,0,1-126.5-94s-1.4-1.6-3.7-3.9a85.6,85.6,0,0,0,7.7-25.1,99.8,99.8,0,0,0-.2-25.2,11.6,11.6,0,0,0,2.8-7.5Zm-46.7,61.6V-80a51.4,51.4,0,0,1,9,6.7c2.2-1.4,5.9-4.5,5.7-8.4,0,0,7.7,7.4,10.1,10.2a86.4,86.4,0,0,1,5.7,8.5l2.4-2.1C-138.5-71.1-149.8-85.3-166.7-94.1Z" transform="translate(275.3 277)" style="fill:#86754f;fill-rule:evenodd"/><path d="M-172-103.2l-.2-10.3c-14.9,5.9-23.3,12.7-33.9,23.2l10,4.2c7.5-6.6,15.8-12.8,24.1-17.1m-31-61.3a11.6,11.6,0,0,1,4,8.8A11.7,11.7,0,0,1-210.6-144a11.7,11.7,0,0,1-10.2-5.9c-.4,6.4-.9,18.5.8,29.5A109.2,109.2,0,0,0-212.5-94s9.1-10.5,20.7-17,19.6-8.7,19.6-8.7l.8-22.7s-15.6-5.2-30.8-23.8Zm30.6,70.4V-80l-3.5,2.2L-188.6-83A86.1,86.1,0,0,1-172.4-94.1Z" transform="translate(275.3 277)" style="fill:#86754f;fill-rule:evenodd"/><path d="M-236.9-165.1l-17,9.2s-5.6,13.5-9.6,25.1a88.5,88.5,0,0,0-4.6,20.7,89.5,89.5,0,0,1,22.6-13.5l2.1-.9c-.2-1.8,0-6.1,3.9-13.1,5.4-9.6,5.9-15.7,4.5-22a18.2,18.2,0,0,0,3.1,2.5l3.7,2.4s-1,9-1,14.2.3,8.5.5,10.5l2.4-.7s0-9,.5-17.5a48.6,48.6,0,0,1,.9-7.5,40.3,40.3,0,0,1-5.5-3.6,77.3,77.3,0,0,1-6.4-5.8" transform="translate(275.3 277)" style="fill:#86754f;fill-rule:evenodd"/><path d="M-224.9-126.9l1.9,11.6-3.5,2-1.8-11a55.5,55.5,0,0,0-10.2,4.3,63.9,63.9,0,0,1,.9,9.4,26.8,26.8,0,0,1-.6,4.3L-249-100c-8.7,5.4-12.5,10.1-12.5,10.1l.6-21s14.1-10.5,36-15.9" transform="translate(275.3 277)" style="fill:#86754f;fill-rule:evenodd"/><path d="M-102.2-164.9l16.5,8.9s5.6,13.5,9.6,25.1a88.5,88.5,0,0,1,4.6,20.7s-1.7-1.5-4.9-3.7A56.7,56.7,0,0,0-78-127.8c-2.2-9.3-9.6-25.1-9.6-25.1l-9.7-5.7c11.5,12.1,8.1,31,6.7,36.5l-3.5-1.5c-13.8-5.7-19.2-7.1-19.2-7.1s0-9-.5-17.5a37.7,37.7,0,0,0-1.9-11,40.9,40.9,0,0,1,9.4-4.8,29.3,29.3,0,0,1,4-.9" transform="translate(275.3 277)" style="fill:#86754f;fill-rule:evenodd"/><path d="M-114.7-126.9l-1.9,11.6s11.6,6.6,20.6,12c2-1,4.9-3.9,5.3-11.9a31.2,31.2,0,0,1,7.1,3.2l2.6,1.9-.7,16.7A35,35,0,0,1-78.1-90l-.6-21s-14.1-10.5-36-15.9" transform="translate(275.3 277)" style="fill:#86754f;fill-rule:evenodd"/><path d="M-207.4-166.9a53.6,53.6,0,0,1-1.5-12.5c.2-6.1,1-12.3,1-12.3l-7.3,2.9a23.1,23.1,0,0,0-.9,9.4,56.7,56.7,0,0,0,1.4,8.4,34.4,34.4,0,0,1-3.3-6.3,21.8,21.8,0,0,1-1.5-5.6l-5.6,1.7a40.4,40.4,0,0,0,2,7.5,24.5,24.5,0,0,0,1.4,3l-5.3-6a11.6,11.6,0,0,0-4.9,3.2c-2,2.3-2,6-2,6a52.4,52.4,0,0,0,6.3,6.2,30.9,30.9,0,0,0,5.6,3.5,11.6,11.6,0,0,1,.6-2.2l-2.1-2.7a16.7,16.7,0,0,1-2.1-3.7l5.3,4.4a11.7,11.7,0,0,1,8.1-5.2v-4.1l1.6,3.9h.1a11.7,11.7,0,0,1,3.2.4" transform="translate(275.3 277)" style="fill:#b71f36;fill-rule:evenodd"/><path d="M-135.8-166.6c.6-1.7,4-10.6,5.3-14.4s2.1-6.3,2.1-6.3a44.4,44.4,0,0,1,6.4,1.2,7.5,7.5,0,0,1,2.6,1.3l-.2,5.7,2.2-2.4,1.6,1.1a47.9,47.9,0,0,1-2.9,6.3l-2.3,4.2a53.4,53.4,0,0,0,6-4.6l2.4-2.4,8.4,1.5a19.6,19.6,0,0,1,5.3,5.5c2.8,4,3.2,4.9,3.2,4.9s-5.3-2.9-10.7-2.6-12,5.8-14.5,7.7a11.6,11.6,0,0,0-1.2-2.3l9.3-7.8-11.2,5.6a11.7,11.7,0,0,0-4.7-2.6l1.7-8.8-4.1,8.4h-.8a11.7,11.7,0,0,0-4.2.8" transform="translate(275.3 277)" style="fill:#b71f36;fill-rule:evenodd"/><path d="M-210.6-159.5a3.8,3.8,0,0,1,3.8,3.8,3.8,3.8,0,0,1-3.8,3.8,3.8,3.8,0,0,1-3.8-3.8,3.8,3.8,0,0,1,3.8-3.8m0-4.4a8.2,8.2,0,0,1,8.2,8.2,8.2,8.2,0,0,1-8.2,8.2,8.2,8.2,0,0,1-8.2-8.2A8.2,8.2,0,0,1-210.6-163.9Z" transform="translate(275.3 277)" style="fill:#86754f;fill-rule:evenodd"/><path d="M-131.6-159.5a3.8,3.8,0,0,1,3.8,3.8,3.8,3.8,0,0,1-3.8,3.8,3.8,3.8,0,0,1-3.8-3.8,3.8,3.8,0,0,1,3.8-3.8m0-4.4a8.2,8.2,0,0,1,8.2,8.2,8.2,8.2,0,0,1-8.2,8.2,8.2,8.2,0,0,1-8.2-8.2A8.2,8.2,0,0,1-131.6-163.9Z" transform="translate(275.3 277)" style="fill:#86754f;fill-rule:evenodd"/><path d="M-225.1-109.9l3.3-1.6,5.3,16.2c1.2,3.6,1.6,4.8,1.6,4.8a33.8,33.8,0,0,0-3.8.7Zm-24.6,15.5a77.1,77.1,0,0,1,15.3-10.9l3-1.5a63,63,0,0,1,2.7,7.7c1,3.7,2.3,9.9,2.7,11.8a35.4,35.4,0,0,0-3.9,2.1,30.8,30.8,0,0,0-10.4,10.5Z" transform="translate(275.3 277)" style="fill:#86754f;fill-rule:evenodd"/><path d="M-223-85.2s-3.7,6.9-3.8,13.9A34,34,0,0,0-225-59.6l-9.8-1.3-2.9-12.1A24.9,24.9,0,0,1-223-85.2" transform="translate(275.3 277)" style="fill:#86754f;fill-rule:evenodd"/><path d="M-221-59.6l28.8,1.5a14.6,14.6,0,0,1,0-1.8L-220-61.5a22.6,22.6,0,0,1-1.5-7.2,50.1,50.1,0,0,1,.4-7.8c.9,4.9,3.6,9.2,11.1,10.6s15.6.5,18.9.2a15.4,15.4,0,0,1,2.6-4.6c4.3-5.3,9.5-5.8,9.5-5.8l-31.5-12.1s-10.9,1.1-12.5,12.2,2.1,16.4,2.1,16.4" transform="translate(275.3 277)" style="fill:#86754f;fill-rule:evenodd"/><path d="M-171.5-72.2s-7.3.6-10.5,6.8-2.6,10.5-2.6,10.5-5.3-.6-4-9.1,12.8-13.8,17.1-8.2" transform="translate(275.3 277)" style="fill:#86754f;fill-rule:evenodd"/><path d="M-178.3-62.4a65.1,65.1,0,0,0,4.1,5.9l3.2,3.9a7.4,7.4,0,0,0-.9,2.2l-.2,1a16,16,0,0,0-2.6.1,7.4,7.4,0,0,0-1.6.5l-4.1-7.7a25.5,25.5,0,0,1,2-5.9m10.4-8.1s-7.6-.5-10.9,6-2.8,9.9-2.8,9.9l4.4,10s.9-2.9,3.2-2.9a5.1,5.1,0,0,1,3.3.9,5.5,5.5,0,0,1,2.4-4.3,4.1,4.1,0,0,1,4.4-.2s.5-4.2,3.3-4.9a7.5,7.5,0,0,1,5.3.7,5.3,5.3,0,0,1,1.7-3.5,3.7,3.7,0,0,1,2.9-.9A147.2,147.2,0,0,0-168-70.5Z" transform="translate(275.3 277)" style="fill:#86754f;fill-rule:evenodd"/><path d="M-173.3-44.3a2.5,2.5,0,0,1,2.9,2.1,2.5,2.5,0,0,1-1.5,3.2,2.5,2.5,0,0,1-2.9-2.1,2.5,2.5,0,0,1,1.5-3.2" transform="translate(275.3 277)" style="fill:#86754f;fill-rule:evenodd"/><path d="M-166-48.4a2.7,2.7,0,0,1,3.1,2.2,2.7,2.7,0,0,1-1.6,3.5,2.7,2.7,0,0,1-3.1-2.2,2.7,2.7,0,0,1,1.6-3.5" transform="translate(275.3 277)" style="fill:#86754f;fill-rule:evenodd"/><path d="M-159.2-53.1a2.7,2.7,0,0,1,3.6,1.3,2.7,2.7,0,0,1-.7,3.8,2.7,2.7,0,0,1-3.6-1.3,2.7,2.7,0,0,1,.7-3.8" transform="translate(275.3 277)" style="fill:#86754f;fill-rule:evenodd"/><path d="M-150.5-57.5a2.7,2.7,0,0,1,3.6,1.3,2.7,2.7,0,0,1-.7,3.8,2.7,2.7,0,0,1-3.6-1.3,2.7,2.7,0,0,1,.7-3.8" transform="translate(275.3 277)" style="fill:#86754f;fill-rule:evenodd"/><path d="M-173.9-35.9a4.3,4.3,0,0,0,3.2,0,4.9,4.9,0,0,0,2.1-1.8l2.2,6.8a4.2,4.2,0,0,1-2,1.3,8.3,8.3,0,0,1-2.7.3Z" transform="translate(275.3 277)" style="fill:#86754f;fill-rule:evenodd"/><path d="M-170.3-27.2a7.9,7.9,0,0,0,3.2-.5,3.8,3.8,0,0,0,1.8-1.2l1.5,6a2.9,2.9,0,0,1-2,1.1h-1.8Z" transform="translate(275.3 277)" style="fill:#86754f;fill-rule:evenodd"/><path d="M-166.4-39.1a6.4,6.4,0,0,0,3.4-1.2,5,5,0,0,0,1.9-2.2l2.9,9.4a10.1,10.1,0,0,1-2.9,1.5,4.2,4.2,0,0,1-2.6.3Z" transform="translate(275.3 277)" style="fill:#86754f;fill-rule:evenodd"/><path d="M-162.7-29.4a6.9,6.9,0,0,0,2.8-.5,6.5,6.5,0,0,0,2.3-1.3l.7,9a3.6,3.6,0,0,1-2.4.8,4.2,4.2,0,0,1-2.6-.9Z" transform="translate(275.3 277)" style="fill:#86754f;fill-rule:evenodd"/><path d="M-158.9-44.6a10.8,10.8,0,0,0,4-.9,4.4,4.4,0,0,0,2.2-1.7l2.5,10.9a3.8,3.8,0,0,1-2.7,1.8,8,8,0,0,1-2.5-.1s-3.4-10-3.4-10" transform="translate(275.3 277)" style="fill:#86754f;fill-rule:evenodd"/><path d="M-155.3-32.4a6.7,6.7,0,0,0,3,0,6,6,0,0,0,2.6-1.4l.4,11.4s-.2.7-1.9,1a4.4,4.4,0,0,1-2.9-.4Z" transform="translate(275.3 277)" style="fill:#86754f;fill-rule:evenodd"/><path d="M-149.4-49.5s2.9-.5,4.1-1.7a6.5,6.5,0,0,0,1.7-2.7l6.6,8.8a5.9,5.9,0,0,1-2.6,2.7,12.7,12.7,0,0,1-3.8.8Z" transform="translate(275.3 277)" style="fill:#86754f;fill-rule:evenodd"/><path d="M-141.6-39.9a7.1,7.1,0,0,0,3.9-.7,5,5,0,0,0,2.3-1.9l1.5,9s-.3,1.4-2.3,1.7S-139-32-139-32Z" transform="translate(275.3 277)" style="fill:#86754f;fill-rule:evenodd"/><path d="M-138.8-29.8a5.8,5.8,0,0,0,2.7.2,3.8,3.8,0,0,0,2-1.1l-1,8.7-1.3.9-2.1-.5Z" transform="translate(275.3 277)" style="fill:#86754f;fill-rule:evenodd"/><path d="M-88.8-95.3l3.3,2.1-4.3,26a22.6,22.6,0,0,0-4-2.9Zm-27.4-15.2s8.7,4,18.6,9.9l3.1,1.9a57,57,0,0,1-1.7,14.4A44.3,44.3,0,0,1-100.8-73a25.7,25.7,0,0,0-3.8-.7c-9.1-.9-13.3-1.1-13.3-1.1Z" transform="translate(275.3 277)" style="fill:#86754f;fill-rule:evenodd"/><path d="M-141.2-25.8v-4.4l-3.2-7.1-4.8-6.7,1.4,9.3.5,6.3a13.2,13.2,0,0,1,2.5,3.5,26.8,26.8,0,0,0,3.6-1m20.5-46-20,17.3,7,9.1,2.3,13.8-.2,1.1a76.8,76.8,0,0,0,9.8-7.2c14.1-12.1,12.8-27.1,12.8-27.1a16.4,16.4,0,0,1,5.3,8,22.2,22.2,0,0,1,.6,9.1l-29.8,23.7-.7,3.9s-2.9,1.9-5.3,1.5h-.6l-2.4,1.9a22.4,22.4,0,0,1,.4,4.1l41.9-32.6S-97.5-72.9-120.7-71.8Z" transform="translate(275.3 277)" style="fill:#86754f;fill-rule:evenodd"/><path d="M-105.6-70.4s5.9.2,9,2.3a23.9,23.9,0,0,1,5.1,4.9v14.1l-5.4,2.5s2.8-11.9-8.7-23.8" transform="translate(275.3 277)" style="fill:#86754f;fill-rule:evenodd"/><path d="M-180.2-43.2s.5,3.5,1.6,4.9a22.8,22.8,0,0,0,2.2,2.4,166.6,166.6,0,0,1-17.8.8,77.3,77.3,0,0,1-10.5-.8V-44s5.9,1.2,24.6.8" transform="translate(275.3 277)" style="fill:#86754f;fill-rule:evenodd"/><path d="M-159.5-12.6a7.1,7.1,0,0,0-.8,3.5,7.6,7.6,0,0,0,.5,3.5l-12.4-.7s-.9-.2-1.4-2.7.7-3.6.7-3.6Z" transform="translate(275.3 277)" style="fill:#86754f;fill-rule:evenodd"/><path d="M-165.3-15h-8.5s-.9-.2-1.4-2.6a4,4,0,0,1,.7-3.6l4.6-.3.5,1.2Z" transform="translate(275.3 277)" style="fill:#86754f;fill-rule:evenodd"/><path d="M-171.1-24.2h-2.7s-.9-.2-1.4-2.6a4,4,0,0,1,.7-3.6h.4l1.9,3.8Z" transform="translate(275.3 277)" style="fill:#86754f;fill-rule:evenodd"/><path d="M-159.1-3.7a6.8,6.8,0,0,0-.7,3.2,7.4,7.4,0,0,0,.5,3.3L-170.5,2s-.8-.2-1.2-2.5.6-3.3.6-3.3Z" transform="translate(275.3 277)" style="fill:#86754f;fill-rule:evenodd"/><path d="M-177-30.4a9.9,9.9,0,0,0-.5,4,4.5,4.5,0,0,0,1.5,3.6,6.6,6.6,0,0,0-1.2,3.8,7.3,7.3,0,0,0,.7,3,6.4,6.4,0,0,1-1.5,2,6,6,0,0,1-2.4.9,38.5,38.5,0,0,0-.1-7.1c-.4-2.9-1.4-6.5-1.4-6.5s-.1-3.2,4.8-3.7" transform="translate(275.3 277)" style="fill:#86754f;fill-rule:evenodd"/><path d="M-152.8-10.5a4.6,4.6,0,0,1,.2,1.6c-.1,1.9-1.3,3.4-2.5,3.4s-2.2-1.5-2.1-3.4a4.5,4.5,0,0,1,.9-2.5,6.9,6.9,0,0,0,1.8.9,3.5,3.5,0,0,0,1.8,0" transform="translate(275.3 277)" style="fill:#86754f;fill-rule:evenodd"/><path d="M-154.8-2.9c1.2,0,2.1,1.4,2,3.1s-1.2,3.1-2.4,3.1-2.1-1.4-2-3.1,1.2-3.1,2.4-3.1" transform="translate(275.3 277)" style="fill:#86754f;fill-rule:evenodd"/><path d="M-146.9-25.1V-21l-1.1,7-2.1,2.6a8.2,8.2,0,0,1-.2,3.3,13.1,13.1,0,0,1-1.3,3.2,6.7,6.7,0,0,1,.7,2.2A10.1,10.1,0,0,1-151,.5l7.4-12.1s.5-9-3.4-13.5" transform="translate(275.3 277)" style="fill:#86754f;fill-rule:evenodd"/><path d="M-204.9-32.7a33.4,33.4,0,0,0,8.7.9l10.3-.2S-212.1,1.5-217,9.2s-7.1,11.6-7.1,11.6.6-31.9,19.3-53.5" transform="translate(275.3 277)" style="fill:#86754f;fill-rule:evenodd"/><path d="M-125.5-20.6c8.1,10.5,19.2,25,22.3,29.8,4.9,7.7,7.1,11.6,7.1,11.6s-.6-29.2-17-50.7Z" transform="translate(275.3 277)" style="fill:#86754f;fill-rule:evenodd"/><path d="M-213.3,16.8s6,4.8,8.8,8.2a38.8,38.8,0,0,1,3.9,5.4s-.8,22-1.9,33.3a180,180,0,0,1-3.8,22.3,10.2,10.2,0,0,0-5.4-1c-4.1.3-8.1,4.4-10.6,9.1-.1-2.9-1.2-42.3,9-77.3" transform="translate(275.3 277)" style="fill:#86754f;fill-rule:evenodd"/><path d="M-179.2,49.4c-2.9,8.4-7.3,21.2-10.7,30.6-5.4,15-8.2,21.3-8.2,21.3l3.7-.3s9.6-22.9,13.9-36.2l1.8-5.8Z" transform="translate(275.3 277)" style="fill:#86754f;fill-rule:evenodd"/><polygon points="77.3 380.9 77.9 387.1 81.6 388.3 78.6 392.4 77.1 392.6 76.6 393.9 79.6 394 83.3 388.7 81.3 381.7 77.3 380.9" style="fill:#86754f;fill-rule:evenodd"/><path d="M-206.8,119.4c6.3-3.3,5-13.6,3.7-18.3s-2.7-7.2-6-8.5c1.3,2.6,3.4,7.7,1.9,10.9s-7,1.8-10.1,3.3-3.5,4.5-4.3,6.8a12.1,12.1,0,0,0,1.5,3.1c2.9,4.7,8.7,5.1,13.4,2.6m1,2.4c7.5-3.9,5.9-16.2,4.3-21.7s-4.5-11.1-11-10.5-12.8,12.8-12,19.4,1,7,2.8,9.8C-218.2,124.2-211.3,124.7-205.7,121.7Z" transform="translate(275.3 277)" style="fill:#86754f;fill-rule:evenodd"/><path d="M-215.8,125.5c6.5,1.2,11.6-1,13.2-2.6a10,10,0,0,0,2.3-3.8l3.5.3a123.8,123.8,0,0,1,3.3,15.5,135.5,135.5,0,0,1,1.4,14.4,39.7,39.7,0,0,1-2.3,6.1,23.2,23.2,0,0,1-2.4,3.6l-1.8-2.7a25.2,25.2,0,0,0,1.9-2.9,43.5,43.5,0,0,0,2.2-5s-.1-1.5-.5-5.3-1.5-10.9-1.5-10.9l-1.6,14.6-4.4,3.9-3.9-5.2a44.5,44.5,0,0,0-10.8-10Zm-10.3-9.9a13.9,13.9,0,0,0,5.3,7.9,21.6,21.6,0,0,0-3,5.3c-1.2,3-2.6,9.7-3.1,12.3-.6.5.8-.9-1.6,1.5a65.2,65.2,0,0,0-6,7.6C-235.4,138.8-230,125.1-226.1,115.7Z" transform="translate(275.3 277)" style="fill:#86754f;fill-rule:evenodd"/><path d="M-234,152.6a74.2,74.2,0,0,1,7.4-8.5,40.7,40.7,0,0,1,8-5.7s8.4,6.7,12.6,12.1a61,61,0,0,1,6.5,10.4s.5,5.6-.8,9.5a20.8,20.8,0,0,1-2.7,5.8l-1.5-2.5a22.9,22.9,0,0,0,2.5-5.9,23.3,23.3,0,0,0,.8-6.9l-3.2-4.9c-.2,3.9-2.8,9.2-4.1,11.6a36.7,36.7,0,0,0-3.3-4.2,98.1,98.1,0,0,0-7.6-6.9h0c-.1-1.1-.2-3.5-.1-6.1s.6-10.1.6-10.1-5.9,4.4-8.3,10.2-1.8,10.7-1.6,12.9l-.5.6a39.1,39.1,0,0,0-4.2,6.4,77,77,0,0,1-.7-18.1" transform="translate(275.3 277)" style="fill:#86754f;fill-rule:evenodd"/><path d="M-220.1,160a33.4,33.4,0,0,0-8.7,7.8c-3.5,4.7-4.8,6.7-5.1,12.4s1,8.4,1,8.4,1.9-2.4,4.3-5.1l-.2-8s.3-6.7,8.2-12.5a66,66,0,0,0-.7,7.5c-.1,2.8-.1,4.9,0,6.2a85.8,85.8,0,0,1,9.2,9.1c.8-1.1,3.4-5.3,3.3-10.1l2.5,3.9a26.5,26.5,0,0,1-.1,7.2,16.5,16.5,0,0,1-1.5,4.4,26.2,26.2,0,0,1,1.6,2.3,19.5,19.5,0,0,0,1.9-7.2c.1-3.6-.2-6.8-.2-6.8A77.8,77.8,0,0,0-220.1,160" transform="translate(275.3 277)" style="fill:#86754f;fill-rule:evenodd"/><path d="M-221.6,179.8a119.3,119.3,0,0,1,9.4,10.1c3.3,4.3,4.8,6.3,5.4,10.4s-1.5,9.3-1.5,9.3l-1.4-1.8a20.5,20.5,0,0,0,1.3-7.9,9,9,0,0,0-3.1-5.8,11.9,11.9,0,0,1-2.5,9l-1.4-1.3a30.3,30.3,0,0,0-6.4-4.8h0v-1.9c-.2-3-.1-12.4-.1-12.4-2.6,3.2-5.7,8-6.3,11.2a55.1,55.1,0,0,0-.6,8.7l-.6.6-2.7,3.1s-1.4-8.9.5-13.8,10.1-12.5,10.1-12.5" transform="translate(275.3 277)" style="fill:#86754f;fill-rule:evenodd"/><path d="M-234.2,221.4l-1.2-5.1,3-6.7a46.4,46.4,0,0,1,6.2-6.4,23.4,23.4,0,0,1,4-2.9s8.6,5.8,12.5,11.4,5,9.1,5,9.1l-2.9,4.8-1.6-1.7,2.2-4.2-3.4-6.3-2.9,6.4a35.2,35.2,0,0,0-3.5-3,10.6,10.6,0,0,0-6.7-2.2c0-.9-.1-3-.1-5.3a32.4,32.4,0,0,1,.7-6.3s-5.6,4.7-6.9,7.5-.7,5.1-.5,6.9a25.7,25.7,0,0,0-4,3.9" transform="translate(275.3 277)" style="fill:#86754f;fill-rule:evenodd"/><path d="M-228.6,246.9a29.8,29.8,0,0,1,6.3,2.9,13.1,13.1,0,0,1,4.3,5.1s-9.4,11.4-23.3,10-15.5-7.7-15.5-7.7,12.5,4.4,21,.6,7.2-10.8,7.2-10.8m-11-13.4s7.3-14.9,15.9-15.6,16.7,11.5,18.7,18.6a87.2,87.2,0,0,1,2.4,9.9,7.5,7.5,0,0,1-1.9,1.2l-1.2.5-.9-5.8s-1.7,13-3.8,16.6-17.3,12.3-31.8,11-18.9-8.7-17.5-12.6,6.7-13.8,21.7-13.6,25,10.4,25,10.4a20.3,20.3,0,0,0-3.7-5.8c.5-2.3.7-8.4-8.2-11.5,0,0,.8.6.3,2.9a5.9,5.9,0,0,1-1.1,2.5l-1.9-.6c-11.1-2.9-16-1-16-1s3.7-7.3,14.2-6.3a22,22,0,0,1,15.6,9.3,20.1,20.1,0,0,0-1.5-3.4c.6-.5,1.8-2,2.9-5.7,1.5-5.4-.5-9.8-7.3-13.5,0,0,1.7,4.7-.4,8a17.7,17.7,0,0,1-2.8,3.4,13.4,13.4,0,0,0-3.6-1.1C-236,229.9-239.6,233.5-239.6,233.5Z" transform="translate(275.3 277)" style="fill:#86754f;fill-rule:evenodd"/><path d="M-174.2,3.5l-24,5.8a3.5,3.5,0,0,0-3.2-2.1,3.5,3.5,0,0,0-3.5,3.5,3.5,3.5,0,0,0,3.5,3.5,3.5,3.5,0,0,0,3.3-2.3l37.2-.7,37.2.7a3.5,3.5,0,0,0,3.3,2.3,3.5,3.5,0,0,0,3.5-3.5,3.5,3.5,0,0,0-3.5-3.5,3.5,3.5,0,0,0-3.2,2.1l-26.5-6.4c-.3.5-2.4,3.5-4.6,3.5s-2.9-.4-2.9-.4l-15.1-1.4a5.5,5.5,0,0,1-1.4-1.1" transform="translate(275.3 277)" style="fill:#b71f36;fill-rule:evenodd"/><path d="M-160.8,34.8s-3.1-4.8-6.8-6.9a11.1,11.1,0,0,0-7.7-1.2,15.8,15.8,0,0,1,7.4,4.7,49.8,49.8,0,0,1,5,6.2l.9,189.1s1.1,7.6,1.1,7.6,1.1-7.6,1.1-7.6l.9-189.1a49.7,49.7,0,0,1,5-6.2,15.8,15.8,0,0,1,7.4-4.7,11.1,11.1,0,0,0-7.7,1.2c-3.7,2.2-6.8,6.9-6.8,6.9m0-21.2h-6.4l-9,13.3-.6,159.6s-.9,58.8,16,77.6c16.9-18.8,16-77.6,16-77.6l-.6-159.6-9-13.3Z" transform="translate(275.3 277)" style="fill:#fff;fill-rule:evenodd"/><path d="M-160.8,260.9c6.1-8.2,9.1-21.7,10.7-31.1a240.7,240.7,0,0,0,3-29.5c.2-4.5.3-9.2.3-13.8l-.6-157.3a16.5,16.5,0,0,0-4.8,3.6,50.9,50.9,0,0,0-4.5,5.4l-.9,188.6h0l-.6,3.8-.4,2.6a4,4,0,0,1-.8,2.3l-1.4,1.4Z" transform="translate(275.3 277)" style="fill:#fff;fill-rule:evenodd"/><path d="M-107.4,16.8l-4,3.4c1.8,6.5,6.1,23.6,6.8,38.3.8,16.3.6,26.4.5,28.6a22.3,22.3,0,0,1,5.7,7c.1-2.9,1.2-42.3-9-77.3" transform="translate(275.3 277)" style="fill:#86754f;fill-rule:evenodd"/><path d="M-141.5,49.4c2.9,8.4,7.3,21.2,10.7,30.6,5.4,15,8.2,21.3,8.2,21.3l-3.7-.3s-9.6-22.9-13.9-36.2l-1.8-5.8Z" transform="translate(275.3 277)" style="fill:#86754f;fill-rule:evenodd"/><polygon points="152.5 380.9 151.9 387.1 148.3 388.3 151.2 392.4 152.8 392.6 153.2 393.9 150.2 394 146.6 388.7 148.6 381.7 152.5 380.9" style="fill:#86754f;fill-rule:evenodd"/><path d="M-113.9,119.4c-6.3-3.3-5-13.6-3.7-18.3s2.7-7.2,6-8.5c-1.3,2.6-3.4,7.7-1.9,10.9s7,1.8,10.1,3.3,3.5,4.5,4.3,6.8a12.1,12.1,0,0,1-1.5,3.1c-2.9,4.7-8.7,5.1-13.4,2.6m-1,2.4c-7.5-3.9-5.9-16.2-4.3-21.7s4.5-11.1,11-10.5,12.8,12.8,12,19.4-1,7-2.8,9.8C-102.5,124.2-109.3,124.7-114.9,121.7Z" transform="translate(275.3 277)" style="fill:#86754f;fill-rule:evenodd"/><path d="M-122.6,119.3h-1.2a123.9,123.9,0,0,0-3.3,15.5,135.5,135.5,0,0,0-1.4,14.4,39.7,39.7,0,0,0,2.3,6.1,23.3,23.3,0,0,0,2.4,3.6l1.8-2.7a25.3,25.3,0,0,1-1.9-2.9,43.5,43.5,0,0,1-2.2-5s.1-1.5.5-5.3,1.3-9.5,1.5-10.7a98.5,98.5,0,0,1,1.7-13.2m28.1-3.7a13.9,13.9,0,0,1-5.3,7.9,21.6,21.6,0,0,1,3,5.3c1.2,3,2.6,9.7,3.1,12.3l1.6,1.5a30.5,30.5,0,0,1,6,7.6v-4.5A221.5,221.5,0,0,0-94.5,115.7Z" transform="translate(275.3 277)" style="fill:#86754f;fill-rule:evenodd"/><path d="M-119.9,158.4c-.9,1.6-1.3,2.6-1.3,2.6s-.5,5.6.8,9.5a20.8,20.8,0,0,0,2.7,5.8l1.5-2.5a22.9,22.9,0,0,1-2.5-5.9,23.3,23.3,0,0,1-.8-6.9Zm33.2-5.8a74.3,74.3,0,0,0-7.4-8.5l-1-.9,1.1,4.4a42.8,42.8,0,0,1,1,4.9,33.8,33.8,0,0,1,1,11.2l.5.6a39.2,39.2,0,0,1,4.2,6.4A77,77,0,0,0-86.7,152.6Z" transform="translate(275.3 277)" style="fill:#86754f;fill-rule:evenodd"/><path d="M-114.2,179.5a26.5,26.5,0,0,0,.1,7.2,16.5,16.5,0,0,0,1.5,4.4,26.1,26.1,0,0,0-1.6,2.3,19.5,19.5,0,0,1-1.9-7.2c-.1-3.6.2-6.8.2-6.8l1.2-2.1Zm22.8-11.1c3.1,4.3,4.4,6.4,4.6,11.8s-1,8.4-1,8.4l-3.4-4.1a73.4,73.4,0,0,0,.4-9.3A56.3,56.3,0,0,0-91.4,168.4Z" transform="translate(275.3 277)" style="fill:#86754f;fill-rule:evenodd"/><path d="M-90.8,203.4l2.4,2.7s1.4-8.9-.5-13.8a18.7,18.7,0,0,0-2.6-4.4c.2,1.1.4,2.7.6,4.8a66.6,66.6,0,0,1,.1,10.7M-111,193.2a15.1,15.1,0,0,0-2.9,7.1c-.6,4.2,1.5,9.3,1.5,9.3l1.4-1.8a20.5,20.5,0,0,1-1.3-7.9v-.4a38.3,38.3,0,0,1,.5-4.3Z" transform="translate(275.3 277)" style="fill:#86754f;fill-rule:evenodd"/><path d="M-111.7,212.7a35.9,35.9,0,0,0-4.4,8.3l2.9,4.8,1.6-1.7-2.2-4.2Zm25.2,8.7,1.2-5.1-3-6.7s-1-1.3-2.5-2.9l.8,2.3a27,27,0,0,1,1.3,6.2l-.7,3.1A28,28,0,0,1-86.5,221.4Z" transform="translate(275.3 277)" style="fill:#86754f;fill-rule:evenodd"/><path d="M-81.8,240a14.7,14.7,0,0,1,4.8.6,13.2,13.2,0,0,0-10.5-6.3,31.6,31.6,0,0,1,4.8,4.6Zm-35.6,3c-.6,2.4-.7,3.4-.7,3.4a7.5,7.5,0,0,0,1.9,1.2l1.2.5.9-5.8s1.7,13,3.8,16.6,17.3,12.3,31.8,11,18.9-8.7,17.5-12.6-6.4-13.2-20.5-13.6a8.4,8.4,0,0,0,1.5,6.7c3.3,4.7,16.5,5.7,16.5,5.7l1.3,2.4s-6,10.8-24,8.1S-109,256-109,256l-3.9-13.8-.7-5.1-2.2,6.9Zm36.4-9.5s-7.1-14.7-15.7-15.6a62.5,62.5,0,0,1,5.6,9.3c.7,1.7,1.2,2.9,1.5,3.8C-83.5,231-81.1,233.5-81.1,233.5Z" transform="translate(275.3 277)" style="fill:#86754f;fill-rule:evenodd"/><path d="M-210.6-159.5a3.8,3.8,0,0,1,3.8,3.8,3.8,3.8,0,0,1-3.8,3.8,3.8,3.8,0,0,1-3.8-3.8,3.8,3.8,0,0,1,3.8-3.8" transform="translate(275.3 277)" style="fill:#050000;fill-rule:evenodd"/><path d="M-239.9-157.6a18.3,18.3,0,0,1-.6,12.1c-2.6,6.3-5.6,10.1-6.7,14.2s-1.1,4.3-1.1,4.3-5.9,2.6-9.1,4.5a22.6,22.6,0,0,0-4.2,2.8,177.7,177.7,0,0,1,5.4-19.2c3.2-9.1,5.9-14.8,5.9-14.8Zm-8.8,42.7s.5,3.4.8,6.3a19.1,19.1,0,0,0,.8,4.2s-5.3,2.8-7.4,4.3l-2.2,1.5-.5-12.5A65,65,0,0,1-248.7-114.9Zm8.7,16.4,5.3,13.6a29.8,29.8,0,0,0-2.8,2.1,7,7,0,0,0-1.2,1.2l-6-13.2A47.1,47.1,0,0,1-240.1-98.5Zm13.6,17.1a50.6,50.6,0,0,0-2.8,7.7,54.8,54.8,0,0,0-.9,6.6l-3.3,2.9-1.9-7.7S-231.5-78.7-226.5-81.4Zm8,.4a27.5,27.5,0,0,1,4.6-4l1.8-1,27.5,9.9a11.9,11.9,0,0,0-3.8,2.4c-2.4,2-2.9,3.2-2.9,3.2s-10-1.9-15.2-2.6S-217.7-78.7-218.5-81.1Zm15.8,38.9v5.1s4.7.7,7.8.9l3.1.2S-199.9-39.5-202.7-42.2Zm4.3,14.8s-11.8,16.2-16.4,24.7a89.9,89.9,0,0,0-6,12.7,135.1,135.1,0,0,1,6.6-23c4.3-10.5,9.1-15.2,9.1-15.2A20.5,20.5,0,0,0-198.4-27.3Zm-13.6,52,3.2,3.7a12.1,12.1,0,0,1,1.7,2.3s-5.1,20.1-7,32.9-1.7,19-1.7,19l-3.9,4S-221.7,51.8-212,24.7Zm-1.5,68.2a9,9,0,0,0-6,4.8,17.5,17.5,0,0,0-2.2,8s1.4-4.3,3.9-4.8S-207.8,95.6-213.5,92.9Zm65.5-242a44.9,44.9,0,0,1-8.7,5.7,63.8,63.8,0,0,1-8,3.1l.8,17.9,4.8,1.2s.9-5.4,5.1-7.6S-145.2-139.6-148-149.2Zm-16.5,39.2-.3,5.3,4.3,2.7c.7.4,1.5-2.1,3.6-2.2a10.6,10.6,0,0,1,3.6.5S-159-108.1-164.5-109.9Zm0,19.8v9.2l3.6,3a6.5,6.5,0,0,0,2.7-1.9,14.7,14.7,0,0,1,3.2-2.6S-162-89-164.5-90.1Zm51.2-14.7L-115-77l6.3,1.1s1.7-11.3.5-17.5a85.8,85.8,0,0,0-2.6-10.2Zm3.2-18-1.5,6.7,6.3,4s2.3-1.2,2.6-3.4a9.4,9.4,0,0,0-.5-4.2Zm-2-34.3a63.6,63.6,0,0,1,2,12.8c.6,8.4.8,12.2.8,12.2l9,3.1s2.5-9.6.3-16.1-7.4-13.6-7.4-13.6ZM-139.3-52.7-120.1-69s3.7,1.1,5.1,1.7l1.4.6s-4.9,10.8-12.8,15.6a58.7,58.7,0,0,1-8.3,4.2Zm-78-88.9a12.9,12.9,0,0,0,6.8,1.1h.1a230.5,230.5,0,0,0,3.5,25.2c.9,4.2,1.7,7.2,2.2,9.3l-.9.8a42.7,42.7,0,0,0-6,6.5S-220.5-122.4-217.2-141.6Z" transform="translate(275.3 277)" style="fill:#fff;fill-rule:evenodd"/><path d="M-181.8-245c-10.3,4-14.1,12.3-16.5,22.2l-8.7,12.5c2.4,5.6,6.7,15.2,8.4,18.7l-7.5,14.8s5.1,10.7,13.5,17.9,23.3,15.2,23.3,15.2,14.9-7.9,23.3-15.2,13.5-17.9,13.5-17.9l-7.6-15.8.5-2,6.2-11.9c2.1.7,1.2.9,7.6,1.7s14.2-.9,23.4,1.1,17.2,21.3,45,23.8,26.3-26.3,26.3-26.3-9.1,10.1-20,7.4-14.4-15.2-16.2-20.4a63.6,63.6,0,0,0-4.5-9.7,31,31,0,0,1,8,1.5c5.1,1.5,10.4,8.5,10.4,8.5s.8-5.1-4.8-13.5-19.2-16.1-36.3-16.4-24.7-2.2-24.7-2.2,1.7-.5,4.6-4.9,1.8-11.2,1.8-11.2-4.3,7-11.3,6.7-9.1-2.8-17.4-8.4-26.6-9-36.7,1.2c-8.4,8.5-4.7,19.1-3.2,22.4" transform="translate(275.3 277)" style="fill:#050000;fill-rule:evenodd"/><path d="M-169.4-245s-12.6-.5-19.7,8.5-7,20.1-7,20.1c4.1,7.1,19,9,26.7,9.6l5.1-.5c1.3-2.7,4.8-11,4.5-19.5-.3-10.4-3.1-14.5-3.1-14.5a20.1,20.1,0,0,1,13.5,9.6c4.1,6.8,4,15.5,3.8,18.6a10.9,10.9,0,0,0,3-3.2s0-11.1-7-20.1-19.7-8.5-19.7-8.5" transform="translate(275.3 277)" style="fill:#86754f;fill-rule:evenodd"/><path d="M-189-205.1l13,3.4,1.6,6-13.3-5.1Zm39.3,0-13,3.4-1.6,6,13.3-5.1Zm-19.7,18a62.6,62.6,0,0,1-14.5-5.6,71.6,71.6,0,0,1-11.6-8,92.8,92.8,0,0,1-3.1-13.4s1,3.1,2.1,6,2.6,5.8,2.6,5.8,7,5.5,13.3,8.2a88,88,0,0,0,11.3,3.9v-12.2l5.2-.5-2.3,9.5,16.9-6.7,2.2-6.8a23.2,23.2,0,0,0,4.6-3.5l2.2-2.3.5-1.4a92.8,92.8,0,0,1-3.1,13.4,71.6,71.6,0,0,1-11.6,8A62.6,62.6,0,0,1-169.4-187.1Zm0-17.1s-11.7-1-19.2-3.8-9.3-7.6-9.3-7.6l.4-4.6-6.6,10.1,5.6,12.5.2-5.8,4.5,17.8c1.9,7.4,2.9,10.4,2.9,10.4a92.1,92.1,0,0,0,11,9.2,89.7,89.7,0,0,0,10.6,6.3V-185a60.6,60.6,0,0,0,9.8-3.2c5.5-2.3,15.6-9.4,15.6-9.4-1.1,7-3.9,17.3-6,24.4l2.1-2s1-3.1,2.9-10.4l4.5-17.8.2,5.8,5.6-12.5-6.6-10.1.4,4.6s-1.7,4.8-9.3,7.6S-169.4-204.2-169.4-204.2Z" transform="translate(275.3 277)" style="fill:#86754f;fill-rule:evenodd"/><path d="M-183.5-187.1l-2.6-1.6,1.9,16.7,1.7,1.1Zm11.5,3.9-2.9-.7,1.1,18.9,2.1,1.2Zm-5.9-1.4-2.8-1.2,1.5,17.7,2,1.2Z" transform="translate(275.3 277)" style="fill:#050000;fill-rule:evenodd"/><path d="M-155.3-187.1l2.6-1.6-1.9,16.7-1.7,1.1Zm-11.5,3.9,2.9-.7L-165-165l-2.1,1.2Zm5.9-1.4,2.8-1.2-1.5,17.7-2,1.2Z" transform="translate(275.3 277)" style="fill:#86754f;fill-rule:evenodd"/><path d="M-169.4-252.7s-2.8-.3-4.4,1.5a6.1,6.1,0,0,0-1.2,4.3,36.9,36.9,0,0,1,5.6-.5,36.9,36.9,0,0,1,5.6.5,6.1,6.1,0,0,0-1.2-4.3c-1.6-1.9-4.4-1.5-4.4-1.5" transform="translate(275.3 277)" style="fill:#86754f;fill-rule:evenodd"/><path d="M-180.3-245.6c-1.2-2.7-4.3-11.4,1.8-19,7.3-9,24-8.4,32.6-3.3s13.9,10.2,21.8,10.1,8.9-3.2,8.9-3.2-.5,4.2-3.6,6.5-4.9,2.4-4.9,2.4-4.5-.1-7.1-1.9l-2.9-2s2.5,8.1,19.4,9.2,32.1,1.1,42.2,7,11.5,10.4,11.5,10.4-7-2.9-12.7-2.8-6.5.5-6.5.5,5.3,2.4,8.4,11.8,7.7,21.2,18.9,24.7,18.7-5.3,18.7-5.3-3.4,15.5-22,12.4-24.6-17-29.5-24a27.7,27.7,0,0,0-12.8-9.4,32.4,32.4,0,0,1,9.7.5c4.2,1.1,8.5,5.1,8.5,5.1s-4.5-13.3-21.2-13.5-21.8,3.1-32.9-1.2-17.5-21-17.5-21a14.7,14.7,0,0,1,8.5,3.8,28.3,28.3,0,0,1,4.7,5.3s-.2-14.5-12.2-20.5-21.4,0-23.1,3.9-1.1,6-1.1,6-1.5-.4-2.7-2.9a12,12,0,0,1-1.2-4.5,16.9,16.9,0,0,0-1,8.8,14.9,14.9,0,0,0,1.9,5.4l-2.4.7" transform="translate(275.3 277)" style="fill:#b71f36;fill-rule:evenodd"/><path d="M-169.4-156.8v9s-14.6-8-21.6-14.2-11.9-15.8-11.9-15.8l5.9-10.9c.7,2.9,1.5,6.2,2.1,8.3,1.2,4.3,1.6,6.5,1.6,6.5s10.5,11.6,23.9,17.2" transform="translate(275.3 277)" style="fill:#86754f;fill-rule:evenodd"/><path d="M-194.7-209.9l4.2,2.8,1.9,7.4-4.5-3.3Zm.1,13.3,6.9,5.4,2.3,18.6-4.7-4S-194.7-196.5-194.5-196.6Zm-2.9,13.6-2.9,4.6a35.3,35.3,0,0,0,4.6,8.7,34.8,34.8,0,0,0,3.6,4.2l1.1-4.3-3.8-3.5Zm26.3-58.2s-9.1-.3-15,6.5-7.3,18.9-7.3,18.9a30,30,0,0,0,7.9,3.7l4.3,1.2S-185.7-233.8-171.1-241.2Z" transform="translate(275.3 277)" style="fill:#fff;fill-rule:evenodd"/></svg>