<svg id="logo" xmlns="http://www.w3.org/2000/svg" viewBox="0 0 815.9 718.2"><title>Knight-sword175_1c</title><path d="M-281.1,113.4s20.2-.2,37.8-22.1l-3.9-6.8a55.3,55.3,0,0,1-4.7,5.9C-271.4,111.6-281.1,113.4-281.1,113.4Z" transform="translate(408 359.1)" style="fill:#050000"/><path d="M-274.6,171.6c7.7-1.3,23.5-5.3,42.7-17.1a202.7,202.7,0,0,0,23.6-16.4l-1.6-1.8c-14.5,9.2-42,24.6-70.5,29.1Z" transform="translate(408 359.1)" style="fill:#050000"/><path d="M-285.3,160.1l2.4-.6c21.8-5.7,44.8-15,63.7-33.7l-5.4-6.9a86.6,86.6,0,0,1-19.7,14.8A133.7,133.7,0,0,1-293.9,150Q-289.7,155.1-285.3,160.1Z" transform="translate(408 359.1)" style="fill:#050000"/><path d="M-50.9-359.1c-172.6,0-312.5,139.9-312.5,312.5a311.1,311.1,0,0,0,42.2,156.8,35.6,35.6,0,0,0,4.7,0,15.5,15.5,0,0,1-3.5,2l3.3,5.5c10.5-2.4,22.9-7.7,37-18.2a156.5,156.5,0,0,0,27.3-25.4A264.6,264.6,0,0,1-279.6-42.9,265.2,265.2,0,0,1-174-255c1.7-5,5.6-13.6,14-23.2,13.5-15.3,40.8-26.4,40.8-26.4l-8.7,2c-102.7,41.4-175.2,142-175.2,259.6a278.8,278.8,0,0,0,29,124.1,63,63,0,0,1-7.3,7,69.8,69.8,0,0,1-14.1,9.1A290,290,0,0,1-334.1-47.8c0-160.9,130.4-291.4,291.4-291.4A290.8,290.8,0,0,1,182.7-232.3a279.1,279.1,0,0,0-206-90.4,282.6,282.6,0,0,0-34.1,2.1,183.5,183.5,0,0,1,16.4,13.5,268.8,268.8,0,0,1,27-1.4c146.7,0,265.7,118.9,265.7,265.7S132.7,222.8-14,222.8a264.8,264.8,0,0,1-187.1-77c-26.3,21.7-59.9,25.7-73.1,26.4A311.6,311.6,0,0,0-50.9,266c172.6,0,312.5-139.9,312.5-312.5S121.7-359.1-50.9-359.1Z" transform="translate(408 359.1)" style="fill:#050000"/><path d="M-57.1-305h.3l-1.7-5.4,2.9.2-6.6-9.8a278.6,278.6,0,0,0-28.1,5.4l6.3.4C-65.2-312.7-58.9-307.3-57.1-305Z" transform="translate(408 359.1)" style="fill:#050000"/><path d="M-162.8-266.6a42.7,42.7,0,0,0-9,10.1q5.8-4.3,11.8-8.3a73.7,73.7,0,0,1,11.4-8.7S-153.9-273.7-162.8-266.6Z" transform="translate(408 359.1)" style="fill:#050000"/><path d="M-141.1-285.5l7.8-.7-8.9,6.4s.9-.2,14.9-5.8a62.7,62.7,0,0,1,14.2-3.9q12.2-4.9,24.9-8.6C-116.3-299.9-141.1-285.5-141.1-285.5Z" transform="translate(408 359.1)" style="fill:#050000"/><path d="M308.5,168.6,190.8,110.1a219.2,219.2,0,0,0,8.3-28.9c2.7-13.6,3.3-32.9,3.3-32.9s12.3-19,8.3-73.5-30.9-110.4-30.9-110.4-.3-8,2-22.9,6.7-20,6.7-20-19.3,1.3-53.5-8-46.6-26.6-46.6-26.6l-34.9-8s4,9,7.6,33.9-3.7,47.9-3.7,47.9,18,11,36.2,37.2S116-46.5,116-46.5l-12-6.3,5.3-5.3-14-22.3-5-1,6.7-9s-7-5.3-22.3-12.6-20.9-25.6-20.9-25.6.3,1.7-.3,11.3-7,12.3-7,12.3l-7.3-6.6s5.3-8,7.3-29.6-5-30.9-5-30.9.3,6.7-2.7,17A28.2,28.2,0,0,1,27.6-140s-.7-2.3,1-10,10.6-22.6,10.6-22.6-5-7.3-18.3-22.3S-3-216.4-3-216.4l3-3.7s-4.6-1-5.3-8.3S4-241.7,4-241.7v-9l-6,3,2.7-10a10.7,10.7,0,0,1-3.3,5,32.1,32.1,0,0,1-5.7,3s4.3-23.6-16-50.5-52.9-35.9-52.9-35.9l9.3,16.3-6-2.7,3,5.7s-12.6-11.6-43.6-5.7-51.2,25.6-51.2,25.6l8,.7-12,5,9-.7s-2.3,1.3-8.6,5.6-13.6,13-13.6,13,5.3-3.7,12.3-7.6a43.7,43.7,0,0,1,13.6-5s-12,8-18.9,17-14.6,19.6-12,42.6,18.6,27.6,18.6,27.6l-7.3-13.6,7,3s-5-3-3.3-17.3,16-23.9,16-23.9a64.1,64.1,0,0,0-4.3,7.6c-2.7,5.3-1.7,13.3-1.7,13.3l3.7-4.7s-1.7,3,2,17,27.6,20.3,27.6,20.3a29.4,29.4,0,0,1-13-20.6c-2-14.3,6-20.6,6-20.6a32.5,32.5,0,0,0,20.9,19c16.3,5,29.3,1.3,29.3,1.3s-21.6-6.3-24.3-23.9,13-25.6,13-25.6l-3.3,6.3s3.3-4.7,16-6.6,18-.7,18-.7a92.2,92.2,0,0,1-9.3,5.3c-7,3.7-9.3,8.3-9.3,8.3a77.4,77.4,0,0,1,22.9-1.7c12.6,1,15.6,9.3,15.6,9.3l-4.3,8.3a28.1,28.1,0,0,1,7,3.3,35.8,35.8,0,0,1,7.6,6.7l-5,3.3,5,7s-5.6-.3-17.3,9.3l-19.3,16s1.3.7,3.3,6.3,0,8.3,0,8.3-10,3-14.3,15.3,3.7,25.9,3.7,25.9l-3.3,2.3s-5.3-4.3-9.3-18.6-4.3-43.2-4.3-43.2-5.3,12-12.6,27.3S-141.3-144-141.3-144l-15.3-1-11.6-6.3-4.7,12s-5.7,1-11.3,8-5.3,11.3-5.3,11.3-34.9,29.6-50.2,66.8-3,51.2-7,87.8-53.5,65.2-53.5,65.2-20.6,4.3-53.2-12.6-34.2-55.2-34.2-55.2-20.9,18.3-20.3,60.2,32.6,72.8,32.6,72.8,11,2.7,30.6,10,41.6,22.9,41.6,22.9,5-.7,33.2-6,61.5-16.3,61.5-16.3l-6.3,6.6s6.3-.7,19.6,4.3,23.3,16.3,23.3,16.3,4.3-1.3,22.6-17.3S-124,153-124,153a76.8,76.8,0,0,1-3.7,28.6c-5,15-27.9,42.9-27.9,42.9H86.1L53.5,130.3l50.5,56.9s4,4.3,2,34.9-24.3,69.2-24.3,69.2,26.6-6.3,29.9-12,28.6-52.5,28.6-52.5l73.5,85.1L408,359.1ZM382,338.5l-36.5-29.6c-3-11.3-13.2-50.1-23-81.2ZM185-51C198.3.9,196.5,60.3,191.2,80.2s-7.1,27-7.1,27L169,98.9S183.2,39,170.8-26.6s-16.4-78-19.5-101.5-5.3-33.2-5.3-33.2l30.2-10.2S171.7-102.8,185-51ZM105.2-179.1c-27-12-37.2-30.1-37.2-30.1l18.6,1.8s.4,7.1,33.7,21.3,55,9.7,55,9.7l-32.8,9.8S132.2-167.1,105.2-179.1Zm6.5,217.3c12.3,9,14.6,11,14.6,11V72.5L69.8,38.6l7-28.6s3-1,9.6-.3,9,1.7,9,1.7S99.4,29.3,111.7,38.2ZM92.8-74.5l12,14.2a60.7,60.7,0,0,0-15.1,4.9c-7.1,3.5-18.2-4-18.2-4Zm-63.8-8C41.8-92.2,45.3-94,50.2-100.2A28.9,28.9,0,0,0,56-112.6s3.5,8,13.7,13.3a148.2,148.2,0,0,0,21.7,8.9s-8,1.3-14.6,9.3S64-63.8,64-63.8l-8.4-5.8L44.5-66.9,38.2-27S30.7-38.6,27.2-41.2s-6.2-2.7-6.2-2.7S16.1-72.7,28.9-82.4Zm-96.2-72.3,8.6,8.6-8.2-12.6,3.8-2.9s10.4,14.9,30.6,26.4,21.1,11.5,21.1,11.5,4.7,11.3,1.6,29C-12.2-81.4-15.5-76-17-74A50.7,50.7,0,0,0-5.2-101.3c2-17.7,1.1-22.8,1.1-22.8L22.5-145s-5.8,14.8-5.1,28.8,2.2,17.1,2.2,17.1A101.7,101.7,0,0,1-.5-74.7C-13.2-63.8-15.4-61.2-15.4-61.2s-27-23.3-39.9-39.2-15.1-21.9-15.1-21.9a65,65,0,0,0,3.5-18C-66.2-150.9-67.3-154.7-67.3-154.7Zm20.8,88.2c11.1,4.4,29.3,22.6,29.3,22.6S-61.5-22.2-74.4-21.7s-28.4-18.6-28.4-18.6A87.5,87.5,0,0,1-85.4-59.4c10.2-8,23.9-11.5,23.9-11.5S-57.5-70.9-46.4-66.5ZM-93-19.9l4,1.3s-1.3,9.8,1.8,16.8,4.9,11.5,4.9,11.5S-93.9,1.3-99.6-8.4a52,52,0,0,1-6.7-19.5S-97-21.3-93-19.9Zm-.4,28.8a86.3,86.3,0,0,0,9.3,8.9l16.8,26.2s-3.5-2.7-17.3-19.5S-103.6-4.9-103.6-4.9A102.3,102.3,0,0,0-93.4,8.9Zm23.9,6.2A192.9,192.9,0,0,0-43.8,28.4c14.6,6.2,16,6.2,16,6.2s-.4,15.1.9,23.5,3.1,12.4,3.1,12.4A300.3,300.3,0,0,1-46.9,47.4C-60.2,32.8-69.5,15.1-69.5,15.1Zm37.7,10.2s-4.9-4.9-16.8-12.9S-74.4-9.7-74.4-9.7s29.7-6.7,43-13.3,27-11.1,35-8S20.1,4.4,20.1,4.4A134.3,134.3,0,0,1-3.4,12C-17.2,15.1-31.8,25.3-31.8,25.3Zm26.6-4.9c7.1-1.8,25.7.4,25.7.4L5,32.4,1,46.1l-3.5-16-3.1,9.8-9.8-10.2S-12.3,22.2-5.2,20.4Zm31.9,1.8c7.5-7.1,16-31.5,16-31.5s0,5.3-4.4,18.6S24.1,35,20.9,35.5s-10.6-2.2-10.6-2.2A67.3,67.3,0,0,0,26.7,22.2ZM-140.6-283.5l7.8-.7-8.9,6.4s.9-.2,14.9-5.8,22-4.2,22-4.2-6.7.7-17.1,10.4-12.2,26.6-12.2,26.6-1.8,0-9.5,12.4-2.9,26.8-2.9,26.8-6.9-6.4-6-20.4,14.2-23.1,14.2-23.1-6.4.4-10.7,4.2a36.7,36.7,0,0,0-7.1,9.5s0-3.1,4.2-10.4,13.3-13.3,13.3-13.3-7.3-.7-19.7,8-17.7,23.5-17.7,23.5-.2-5.5,6.9-17.7,21.1-20.4,21.1-20.4-5.3-.2-14.2,6.9a43.1,43.1,0,0,0-12.4,16.4s1.8-12.6,15.3-27.9,40.8-26.4,40.8-26.4l-14.4,3.3c-14.4,3.3-20.8,6.2-20.8,6.2l17.9-10.4-16.4,5.5a94.3,94.3,0,0,1,35.2-18c20.8-5.3,35.9.7,35.9.7a99.6,99.6,0,0,0-18,0c-10.2.9-20.4,6.2-20.4,6.2s12.4-5.3,36.1-3.3S-56-302.1-56-302.1l-2-6.4,2.9.2-11.5-17.1s34.8,21.7,44.1,43.2,6,28.4,6,28.4-7.3-4.7-14-15.1-14.6-14.6-14.6-14.6l4,9.8s-16-19.5-44.8-22.2S-140.6-283.5-140.6-283.5ZM-40.4-252c-4.4,0-9.3-3.8-9.3-3.8l6.2.4s1.3-4.2-10.9-5.8-18.4.9-18.4.9-.4-2.4,8.6-4.4,14.4-1.1,14.4-1.1l-11.1-1.8,4.2-.7s5.8-4-8.6-5.5S-89-271.5-89-271.5s1.3-2.9,7.8-4.7A51.3,51.3,0,0,1-69-277.9s-4.2-1.3-11.5-.2-13.7,2.4-13.7,2.4,4.2-3.3,14.6-5.5c8.3-1.8,10.8-1.4,11.5-1.2l-13.3-5.7s18,2.9,29,9.7,14,12,14,12-.9-1.5-8.2-4.2-8-2.7-8-2.7,11.3,6.6,15.3,10.2a21.2,21.2,0,0,1,5.5,8.4A8.9,8.9,0,0,1-40.4-252Zm2.9,4.2a16.1,16.1,0,0,0,6.9-2.7c3.8-2.4.4-6.9.4-6.9l11.3,8.4c4.2,3.1,1.1,8.9,1.1,8.9l9-1.8c-.5.1-3.6,1-7.5,7.3s2.2,19.5,2.2,19.5l-12-.4s4-6.4,4-13.7-6.2-11.3-6.2-11.3l8-3.3s-.9.2-7.3,0A15.1,15.1,0,0,1-37.6-247.8ZM-75-165.6c3.8-6.2,12.6.4,16.8-12s-3.1-14.6-3.1-14.6,4.2-5.3,14.9-12.2,16.4-8,16.4-8,13.5,7.1,20.2,29.9.7,36.4.7,36.4A76.3,76.3,0,0,0-4.3-186C-7.6-208.3-15-212.6-15-212.6A52.8,52.8,0,0,1,7.9-194.8C17-182,18.5-176,18.5-176l-1.1-12.6,13.5,13.7a14,14,0,0,1-5.1,3.3,34,34,0,0,1-8,1.3l7.3,2.9s-2.7,8-14.6,16.2S-7.6-140.5-7.6-140.5s-20.6-5.5-35.5-15.1-16.8-12.2-16.8-12.2l-12,8,.9,16.2S-78.8-159.4-75-165.6Zm-40.6,11.8a56.5,56.5,0,0,0,14.2-23.5s-1.8,8.4,3.5,27,13.7,28.5,14.6,29.6c-.5-.6-3.5-3.6-15.9-8.8s-32.4-10.2-32.4-10.2S-126.2-143.6-115.6-153.8Zm20,31.5c23.9,11.1,40.3,35.5,40.3,35.5s-20.8-22.6-52.3-31S-149.3-137-149.3-137-119.6-133.4-95.6-122.3Zm-74-11.1a33.7,33.7,0,0,1,7.1,0l-1.8-8.9,29.3,19.5s-4.4-1.3-16.8-1.3-26.6,1.3-26.6,1.3S-172.8-133-169.7-133.4ZM-187-92.6c16.8-18.2,23.5-19.5,23.5-19.5s-4-1.8-14.6.4a60.6,60.6,0,0,0-17.3,6.2s12-12.9,23.1-13.7,33.2,3.1,33.2,3.1a221.7,221.7,0,0,0-35,19.5c-16.4,11.5-38.6,43.9-38.6,43.9S-203.8-74.5-187-92.6Zm-.4,224.3c-33.2,39.5-90.4,38.1-90.4,38.1s20.4-.9,47.9-17.7,32.4-25.3,32.4-25.3-42.6,31.9-85.6,36.8-48.8-2.7-48.8-2.7,19.1,4.4,51-4,66.5-24.4,86.9-66.5,4-97.5,4-97.5,13.8,102-52.3,138.3-122.8,5.8-139.2-11.5-10.6-65.2-10.6-65.2,11.5,30.1,35.9,42.6,41.7,10.6,41.7,10.6-5.8,4.9-19.5,4.9-17.7-1.3-17.7-1.3,28.8,19.5,74-14.2,44.3-61.2,44.3-61.2,3.1,30.6-16.4,51.9-29.2,23.1-29.2,23.1,39.4-.4,56.3-59.9,6.2-73.1,13.7-92.2S-189.2-66-189.2-66s-4.9,2.2-12,24.8a91.2,91.2,0,0,0-2.2,43.4s-1.3-22.2,7.5-41.7S-179.4-66-179.4-66l-.4,38.1s13.3,43.4,6.6,84.2S-192.7,102-192.7,102s14.2-4,20.4-21.3,10.2-48.3,10.2-48.3S-154.2,92.2-187.4,131.7Zm31.9-150.7s-1.8-4.4-9.3-19.5a48.3,48.3,0,0,1-4.4-29.3s2.2,4.9,8.4,11.1,15.5,8.9,15.5,8.9-4.4-4-12.8-17.3a59.6,59.6,0,0,1-8.9-27,77.6,77.6,0,0,1,25.7-14.6,77.3,77.3,0,0,1,28.4-3.5s2.7,1.3,8,8.9,22.6,14.2,22.6,14.2-12.9-.9-33.7,9.8-22.2,38.1-22.2,38.1-3.6,0-10.2,4.4S-155.5-19.1-155.5-19.1ZM-128-5.8c-1.8,7.1-2.7,12-2.7,12s-3.1-13.3-7.1-17.7a21,21,0,0,0-9.7-5.8c.4-1.3,1.3-9.8,5.8-14.2s7.1-4.4,7.1-4.4a35.7,35.7,0,0,1,9.7,9.8c3.5,5.8,3.5,8.4,3.5,8.4A28.6,28.6,0,0,0-128-5.8Zm-6.2-35.9s3.1-16.8,21.7-29.7,41.2-8.4,41.2-8.4-20.4,4.9-33.7,20-14.6,29.7-14.6,29.7Zm31.9,72.3C-112.9,19.5-116,8-116,8l4.4-5.8s9.8,19.1,21.7,30.6S-73.5,47-73.5,47-91.6,41.7-102.3,30.6Zm42.1,87.8c-26.2-15.5-34.1-24.8-34.1-24.8s25.3,13.3,47.9,15.5,42.1-8.9,42.1-8.9L-22.5,133S-34,133.9-60.2,118.4Zm83.8,48.3a48.1,48.1,0,0,0-16-5.8,162.9,162.9,0,0,0-18.2-2.2s26.1-54.5,29.3-83.8,1.3-35,1.3-35,15.5-6.2,23.5-27.5S55.5-59,55.5-59s1.3,8,9.3,10.6,19.5,4,19.5,4S70.2-13.7,66.6,4.4a221.2,221.2,0,0,0-4,31.5L52,29.7,25.4,56.3,36,116.2ZM32.9,55.2,52.9,41.9,294,182.6c6.6,12.8,15.7,33.1,20,53.7,5.5,26.5,9.4,47.7,10.9,55.8Zm73.6,105.5-41.7-45L126,136.3l63.4,51.1c-8.7-4-21.9-9.8-38.6-15.9C129,163.6,113.8,161.3,106.5,160.7Zm-3.1,115.9L126,213.5l6.7,6Zm29-87.9c7.1,1.4,20,4.5,42.8,11.2,27.7,8.2,55.1,23.5,70.6,33l25.1,20.3-49.1-22.7a343.2,343.2,0,0,0-72.3-23.4Zm98,105.9-61.9-66.9c8.5,1.6,28.5,6.5,68.3,21.9,32.9,12.8,54.8,23.6,67.5,30.5l69.1,55.7Z" transform="translate(408 359.1)" style="fill:#050000"/><path d="M-48.8-109c2.2,2.3,4.8,4.9,7.5,7.4l1-27.2a65,65,0,0,1-6.5-4.1Z" transform="translate(408 359.1)" style="fill:#050000"/><path d="M-59.2-120s1.5,1.4,5.3,5.3l1.8-22.7a35.4,35.4,0,0,1-4.4-5.2Z" transform="translate(408 359.1)" style="fill:#050000"/><path d="M-36.8-96.9l4.7,4.3,1.4-31-5-2.4Z" transform="translate(408 359.1)" style="fill:#050000"/><path d="M-25.8-121.3l-2.3,31.7,3.5,3.1s1.7-2.7,3.7-13a113.7,113.7,0,0,0,2-19.3A41.4,41.4,0,0,1-25.8-121.3Z" transform="translate(408 359.1)" style="fill:#050000"/><path d="M1.2-118.1,6.1-121s0,10.2-.7,16.4a91.3,91.3,0,0,1-1.5,10L-1-90s2.2-11.3,2.7-16.6A60.3,60.3,0,0,0,1.2-118.1Z" transform="translate(408 359.1)" style="fill:#050000"/><polygon points="418.5 236.1 423.2 233 423.2 255.1 417.2 261.8 418.5 236.1" style="fill:#050000"/></svg>