<svg id="logo" xmlns="http://www.w3.org/2000/svg" viewBox="0 0 815.9 718.2"><title>Knight175_5c</title><circle cx="357.1" cy="312.5" r="312.5" style="fill:#050000"/><path d="M-279.6-42.9c0-146.7,118.9-265.7,265.7-265.7S251.7-189.6,251.7-42.9,132.7,222.8-14,222.8-279.6,103.8-279.6-42.9Z" transform="translate(408 359.1)" style="fill:#fff"/><path d="M308.5,168.6,190.8,110.1a219.2,219.2,0,0,0,8.3-28.9c2.7-13.6,3.3-32.9,3.3-32.9s12.3-19,8.3-73.5-30.9-110.4-30.9-110.4-.3-8,2-22.9,6.7-20,6.7-20-19.3,1.3-53.5-8-46.6-26.6-46.6-26.6l-34.9-8s4,9,7.6,33.9-3.7,47.9-3.7,47.9,18,11,36.2,37.2S116-46.5,116-46.5l-12-6.3,5.3-5.3-14-22.3-5-1,6.7-9s-7-5.3-22.3-12.6-20.9-25.6-20.9-25.6.3,1.7-.3,11.3-7,12.3-7,12.3l-7.3-6.6s5.3-8,7.3-29.6-5-30.9-5-30.9.3,6.7-2.7,17A28.2,28.2,0,0,1,27.6-140s-.7-2.3,1-10,10.6-22.6,10.6-22.6-5-7.3-18.3-22.3S-3-216.4-3-216.4l3-3.7s-4.6-1-5.3-8.3S4-241.7,4-241.7v-9l-6,3,2.7-10a10.7,10.7,0,0,1-3.3,5,32.1,32.1,0,0,1-5.7,3s4.3-23.6-16-50.5-52.9-35.9-52.9-35.9l9.3,16.3-6-2.7,3,5.7s-12.6-11.6-43.6-5.7-51.2,25.6-51.2,25.6l8,.7-12,5,9-.7s-2.3,1.3-8.6,5.6-13.6,13-13.6,13,5.3-3.7,12.3-7.6a43.7,43.7,0,0,1,13.6-5s-12,8-18.9,17-14.6,19.6-12,42.6,18.6,27.6,18.6,27.6l-7.3-13.6,7,3s-5-3-3.3-17.3,16-23.9,16-23.9a64.1,64.1,0,0,0-4.3,7.6c-2.7,5.3-1.7,13.3-1.7,13.3l3.7-4.7s-1.7,3,2,17,27.6,20.3,27.6,20.3a29.4,29.4,0,0,1-13-20.6c-2-14.3,6-20.6,6-20.6a32.5,32.5,0,0,0,20.9,19c16.3,5,29.3,1.3,29.3,1.3s-21.6-6.3-24.3-23.9,13-25.6,13-25.6l-3.3,6.3s3.3-4.7,16-6.6,18-.7,18-.7a92.2,92.2,0,0,1-9.3,5.3c-7,3.7-9.3,8.3-9.3,8.3a77.4,77.4,0,0,1,22.9-1.7c12.6,1,15.6,9.3,15.6,9.3l-4.3,8.3a28.1,28.1,0,0,1,7,3.3,35.8,35.8,0,0,1,7.6,6.7l-5,3.3,5,7s-5.6-.3-17.3,9.3l-19.3,16s1.3.7,3.3,6.3,0,8.3,0,8.3-10,3-14.3,15.3,3.7,25.9,3.7,25.9l-3.3,2.3s-5.3-4.3-9.3-18.6-4.3-43.2-4.3-43.2-5.3,12-12.6,27.3S-141.3-144-141.3-144l-15.3-1-11.6-6.3-4.7,12s-5.7,1-11.3,8-5.3,11.3-5.3,11.3-34.9,29.6-50.2,66.8-3,51.2-7,87.8-53.5,65.2-53.5,65.2-20.6,4.3-53.2-12.6-34.2-55.2-34.2-55.2-20.9,18.3-20.3,60.2,32.6,72.8,32.6,72.8,11,2.7,30.6,10,41.6,22.9,41.6,22.9,5-.7,33.2-6,61.5-16.3,61.5-16.3l-6.3,6.6s6.3-.7,19.6,4.3,23.3,16.3,23.3,16.3,4.3-1.3,22.6-17.3S-124,153-124,153a76.8,76.8,0,0,1-3.7,28.6c-5,15-27.9,42.9-27.9,42.9H86.1L53.5,130.3l50.5,56.9s4,4.3,2,34.9-24.3,69.2-24.3,69.2,26.6-6.3,29.9-12,28.6-52.5,28.6-52.5l73.5,85.1L408,359.1ZM126.3,72.5,69.8,38.6l7-28.6s3-1,9.6-.3,9,1.7,9,1.7,4,18,16.3,26.9,14.6,11,14.6,11Z" transform="translate(408 359.1)" style="fill:#050000"/><path d="M-63.1-161.6s10.4,14.9,30.6,26.4,21.1,11.5,21.1,11.5,4.7,11.3,1.6,29-8,21.5-8,21.5A49.8,49.8,0,0,0-5.2-101.3c2-17.7,1.1-22.8,1.1-22.8L22.5-145s-5.8,14.8-5.1,28.8,2.2,17.1,2.2,17.1A101.7,101.7,0,0,1-.5-74.7C-13.2-63.8-15.4-61.2-15.4-61.2s-27-23.3-39.9-39.2-15.1-21.9-15.1-21.9a65,65,0,0,0,3.5-18c.7-10.6-.4-14.4-.4-14.4l8.6,8.6-8.2-12.6Z" transform="translate(408 359.1)" style="fill:#c3c8c8"/><path d="M189.4,187.4,126,136.3,64.8,115.7l41.7,45c7.3.6,22.5,2.8,44.3,10.8C167.5,177.7,180.7,183.4,189.4,187.4Zm114.9,92.7c-12.7-6.9-34.5-17.7-67.5-30.5-39.8-15.4-59.8-20.3-68.3-21.9l61.9,66.9,143,41.2Zm-33.4-26.9-25.1-20.3c-15.4-9.5-42.8-24.8-70.6-33-22.8-6.7-35.7-9.8-42.8-11.2l17,18.4a343.2,343.2,0,0,1,72.3,23.4Z" transform="translate(408 359.1)" style="fill:#4d4f53"/><path d="M294,182.6,52.9,41.9,32.9,55.2,324.9,292.1c-1.5-8.1-5.4-29.3-10.9-55.8C309.7,215.7,300.6,195.4,294,182.6Zm28.5,45c9.9,31.2,20.1,69.9,23,81.2L382,338.5Z" transform="translate(408 359.1)" style="fill:#c3c8c8"/><path d="M67.9-209.2s10.2,18.2,37.2,30.1,37.2,12.4,37.2,12.4l32.8-9.8s-21.7,4.4-55-9.7-33.7-21.3-33.7-21.3Z" transform="translate(408 359.1)" style="fill:#c3c8c8"/><path d="M146-161.4l30.2-10.2S171.7-102.8,185-51s11.5,111.3,6.2,131.2-7.1,27-7.1,27L169,98.9S183.2,39,170.8-26.6s-16.4-78-19.5-101.5S146-161.4,146-161.4Z" transform="translate(408 359.1)" style="fill:#4d4f53"/><path d="M56-112.6s3.5,8,13.7,13.3a148.2,148.2,0,0,0,21.7,8.9s-8,1.3-14.6,9.3S64-63.8,64-63.8l-8.4-5.8L44.5-66.9,38.2-27S30.7-38.6,27.2-41.2s-6.2-2.7-6.2-2.7-4.9-28.8,8-38.6S45.3-94,50.2-100.2A28.9,28.9,0,0,0,56-112.6Z" transform="translate(408 359.1)" style="fill:#4d4f53"/><path d="M71.5-59.4,92.8-74.5l12,14.2a60.7,60.7,0,0,0-15.1,4.9C82.6-51.9,71.5-59.4,71.5-59.4Z" transform="translate(408 359.1)" style="fill:#4d4f53"/><path d="M55.5-59s1.3,8,9.3,10.6,19.5,4,19.5,4S70.2-13.7,66.6,4.4a221.2,221.2,0,0,0-4,31.5L52,29.7,25.4,56.3,36,116.2,23.6,166.7a48.1,48.1,0,0,0-16-5.8,162.9,162.9,0,0,0-18.2-2.2s26.1-54.5,29.3-83.8,1.3-35,1.3-35,15.5-6.2,23.5-27.5S55.5-59,55.5-59Z" transform="translate(408 359.1)" style="fill:#4d4f53"/><path d="M-74.4-9.7S-60.6,4.4-48.7,12.4s16.8,12.9,16.8,12.9S-17.2,15.1-3.4,12A134.3,134.3,0,0,0,20.1,4.4S11.6-27.9,3.7-31s-21.7,1.3-35,8S-74.4-9.7-74.4-9.7Z" transform="translate(408 359.1)" style="fill:#c3c8c8"/><path d="M-69.5,15.1A192.9,192.9,0,0,0-43.8,28.4c14.6,6.2,16,6.2,16,6.2s-.4,15.1.9,23.5,3.1,12.4,3.1,12.4A300.3,300.3,0,0,1-46.9,47.4C-60.2,32.8-69.5,15.1-69.5,15.1Z" transform="translate(408 359.1)" style="fill:#4d4f53"/><path d="M10.3,33.3s7.5,2.7,10.6,2.2S33.8,22.6,38.2,9.3,42.7-9.3,42.7-9.3s-8.4,24.4-16,31.5A67.3,67.3,0,0,1,10.3,33.3Z" transform="translate(408 359.1)" style="fill:#c3c8c8"/><path d="M20.5,20.8,5,32.4,1,46.1l-3.5-16-3.1,9.8-9.8-10.2s3.1-7.5,10.2-9.3S20.5,20.8,20.5,20.8Z" transform="translate(408 359.1)" style="fill:#4d4f53"/><path d="M-102.7-40.3s15.5,19.1,28.4,18.6,57.2-22.2,57.2-22.2S-35.3-62.1-46.4-66.5s-15.1-4.4-15.1-4.4-13.7,3.5-23.9,11.5A87.5,87.5,0,0,0-102.7-40.3Z" transform="translate(408 359.1)" style="fill:#c3c8c8"/><path d="M-106.3-27.9s9.3,6.7,13.3,8l4,1.3s-1.3,9.8,1.8,16.8,4.9,11.5,4.9,11.5S-93.9,1.3-99.6-8.4A52,52,0,0,1-106.3-27.9Z" transform="translate(408 359.1)" style="fill:#4d4f53"/><path d="M-103.6-4.9s5.3,12.4,19.1,29.3,17.3,19.5,17.3,19.5L-84.1,17.7a86.3,86.3,0,0,1-9.3-8.9A102.3,102.3,0,0,1-103.6-4.9Z" transform="translate(408 359.1)" style="fill:#4d4f53"/><path d="M-111.6,2.2s9.8,19.1,21.7,30.6S-73.5,47-73.5,47s-18.2-5.3-28.8-16.4S-116,8-116,8Z" transform="translate(408 359.1)" style="fill:#4d4f53"/><path d="M-147.5-17.3c.4-1.3,1.3-9.8,5.8-14.2s7.1-4.4,7.1-4.4a35.7,35.7,0,0,1,9.7,9.8c3.5,5.8,3.5,8.4,3.5,8.4a28.6,28.6,0,0,0-6.7,12c-1.8,7.1-2.7,12-2.7,12s-3.1-13.3-7.1-17.7A21,21,0,0,0-147.5-17.3Z" transform="translate(408 359.1)" style="fill:#4d4f53"/><path d="M-134.2-41.7s3.1-16.8,21.7-29.7,41.2-8.4,41.2-8.4-20.4,4.9-33.7,20-14.6,29.7-14.6,29.7Z" transform="translate(408 359.1)" style="fill:#c3c8c8"/><path d="M-167-92.2a59.6,59.6,0,0,0,8.9,27c8.4,13.3,12.8,17.3,12.8,17.3s-9.3-2.7-15.5-8.9-8.4-11.1-8.4-11.1a48.3,48.3,0,0,0,4.4,29.3c7.5,15.1,9.3,19.5,9.3,19.5s.4-11.5,7.1-16,10.2-4.4,10.2-4.4,1.3-27.5,22.2-38.1,33.7-9.8,33.7-9.8-17.3-6.6-22.6-14.2-8-8.9-8-8.9a77.3,77.3,0,0,0-28.4,3.5A77.6,77.6,0,0,0-167-92.2Z" transform="translate(408 359.1)" style="fill:#c3c8c8"/><path d="M-149.3-137s10.2,10.6,41.7,19.1,52.3,31,52.3,31-16.4-24.4-40.3-35.5S-149.3-137-149.3-137Z" transform="translate(408 359.1)" style="fill:#284e36"/><path d="M-131.5-139.6s18.6,4.4,32.4,10.2,16,8.9,16,8.9-9.3-11.1-14.6-29.7-3.5-27-3.5-27a56.5,56.5,0,0,1-14.2,23.5C-126.2-143.6-131.5-139.6-131.5-139.6Z" transform="translate(408 359.1)" style="fill:#4d4f53"/><path d="M-94.3,93.5s25.3,13.3,47.9,15.5,42.1-8.9,42.1-8.9L-22.5,133s-11.5.9-37.7-14.6S-94.3,93.5-94.3,93.5Z" transform="translate(408 359.1)" style="fill:#4d4f53"/><path d="M-178.5-122.8s14.2-1.3,26.6-1.3,16.8,1.3,16.8,1.3l-29.3-19.5,1.8,8.9a33.7,33.7,0,0,0-7.1,0C-172.8-133-178.5-122.8-178.5-122.8Z" transform="translate(408 359.1)" style="fill:#284e36"/><path d="M-195.4-105.5s12-12.9,23.1-13.7,33.2,3.1,33.2,3.1a221.7,221.7,0,0,0-35,19.5c-16.4,11.5-38.6,43.9-38.6,43.9s8.9-21.7,25.7-39.9,23.5-19.5,23.5-19.5-4-1.8-14.6.4A60.6,60.6,0,0,0-195.4-105.5Z" transform="translate(408 359.1)" style="fill:#284e36"/><path d="M-179.4-66l-.4,38.1s13.3,43.4,6.6,84.2S-192.7,102-192.7,102s14.2-4,20.4-21.3,10.2-48.3,10.2-48.3,8,59.8-25.3,99.3-90.4,38.1-90.4,38.1,20.4-.9,47.9-17.7,32.4-25.3,32.4-25.3-42.6,31.9-85.6,36.8-48.8-2.7-48.8-2.7,19.1,4.4,51-4,66.5-24.4,86.9-66.5,4-97.5,4-97.5,13.7,102-52.3,138.3-122.8,5.8-139.2-11.5-10.6-65.2-10.6-65.2,11.5,30.1,35.9,42.6,41.7,10.6,41.7,10.6-5.8,4.9-19.5,4.9-17.7-1.3-17.7-1.3,28.8,19.5,74-14.2,44.3-61.2,44.3-61.2,3.1,30.6-16.4,51.9-29.2,23.1-29.2,23.1,39.4-.4,56.3-59.9,6.2-73.1,13.7-92.2S-189.2-66-189.2-66s-4.9,2.2-12,24.8a91.2,91.2,0,0,0-2.2,43.4s-1.3-22.2,7.5-41.7S-179.4-66-179.4-66Z" transform="translate(408 359.1)" style="fill:#284e36"/><path d="M-48.8-109c2.2,2.3,4.8,4.9,7.5,7.4l1-27.2a65,65,0,0,1-6.5-4.1Z" transform="translate(408 359.1)" style="fill:#050000"/><path d="M-59.2-120s1.5,1.4,5.3,5.3l1.8-22.7a35.4,35.4,0,0,1-4.4-5.2Z" transform="translate(408 359.1)" style="fill:#050000"/><path d="M-36.8-96.9l4.7,4.3,1.4-31-5-2.4Z" transform="translate(408 359.1)" style="fill:#050000"/><path d="M-25.8-121.3l-2.3,31.7,3.5,3.1s1.7-2.7,3.7-13a113.7,113.7,0,0,0,2-19.3A41.4,41.4,0,0,1-25.8-121.3Z" transform="translate(408 359.1)" style="fill:#050000"/><path d="M1.2-118.1,6.1-121s0,10.2-.7,16.4a91.3,91.3,0,0,1-1.5,10L-1-90s2.2-11.3,2.7-16.6A60.3,60.3,0,0,0,1.2-118.1Z" transform="translate(408 359.1)" style="fill:#050000"/><polygon points="418.5 236.1 423.2 233 423.2 255.1 417.2 261.8 418.5 236.1" style="fill:#050000"/><path d="M-71-143.6s-7.8-15.7-4-21.9,12.6.4,16.8-12-3.1-14.6-3.1-14.6,4.2-5.3,14.9-12.2,16.4-8,16.4-8,13.5,7.1,20.2,29.9.7,36.4.7,36.4A76.3,76.3,0,0,0-4.3-186C-7.6-208.3-15-212.6-15-212.6A52.8,52.8,0,0,1,7.9-194.8C17-182,18.5-176,18.5-176l-1.1-12.6,13.5,13.7a14,14,0,0,1-5.1,3.3,34,34,0,0,1-8,1.3l7.3,2.9s-2.7,8-14.6,16.2S-7.6-140.5-7.6-140.5s-20.6-5.5-35.5-15.1-16.8-12.2-16.8-12.2l-12,8Z" transform="translate(408 359.1)" style="fill:#c3c8c8"/><path d="M-37.6-247.8a15.1,15.1,0,0,0,10,4c6.4.2,7.3,0,7.3,0l-8,3.3s6.2,4,6.2,11.3-4,13.7-4,13.7l12,.4s-6.4-12.6-2.2-19.5,7.5-7.3,7.5-7.3l-9.1,1.8s3.1-5.8-1.1-8.9l-11.3-8.4s3.3,4.4-.4,6.9A16.1,16.1,0,0,1-37.6-247.8Z" transform="translate(408 359.1)" style="fill:#4d4f53"/><path d="M-140.6-283.5s25.9-15.1,54.8-12.4,44.8,22.2,44.8,22.2l-4-9.7s8,4.2,14.6,14.6,14,15.1,14,15.1,3.3-6.9-6-28.4-44.1-43.2-44.1-43.2l11.5,17.1-2.9-.2,2,6.4s-3.8-8.2-27.5-10.2-36.1,3.3-36.1,3.3,10.2-5.3,20.4-6.2a99.6,99.6,0,0,1,18,0s-15.1-6-35.9-.7a94.3,94.3,0,0,0-35.2,18l16.4-5.5L-153.9-293s6.4-2.9,20.8-6.2l14.4-3.3s-27.3,11.1-40.8,26.4-15.3,27.9-15.3,27.9a43.1,43.1,0,0,1,12.4-16.4c8.9-7.1,14.2-6.9,14.2-6.9s-14,8.2-21.1,20.4-6.9,17.7-6.9,17.7,5.3-14.9,17.7-23.5,19.7-8,19.7-8-9.1,6-13.3,13.3-4.2,10.4-4.2,10.4a36.7,36.7,0,0,1,7.1-9.5c4.2-3.8,10.7-4.2,10.7-4.2s-13.3,9.1-14.2,23.1,6,20.4,6,20.4-4.9-14.4,2.9-26.8,9.5-12.4,9.5-12.4,1.8-16.8,12.2-26.6,17.1-10.4,17.1-10.4-8-1.3-22,4.2-14.9,5.8-14.9,5.8l8.9-6.4Z" transform="translate(408 359.1)" style="fill:#284e36"/><path d="M-94.3-275.7s4.2-3.3,14.6-5.5,11.8-1.1,11.8-1.1l-13.5-5.8s18,2.9,29,9.7,14,12,14,12-.9-1.5-8.2-4.2-8-2.7-8-2.7,11.3,6.6,15.3,10.2a21.2,21.2,0,0,1,5.5,8.4,8.9,8.9,0,0,1-6.7,2.7c-4.4,0-9.3-3.8-9.3-3.8l6.2.4s1.3-4.2-10.9-5.8-18.4.9-18.4.9-.4-2.4,8.6-4.4,14.4-1.1,14.4-1.1l-11.1-1.8,4.2-.7s5.8-4-8.6-5.5S-89-271.5-89-271.5s1.3-2.9,7.8-4.7A51.3,51.3,0,0,1-69-277.9s-4.2-1.3-11.5-.2S-94.3-275.7-94.3-275.7Z" transform="translate(408 359.1)" style="fill:#284e36"/><polygon points="534 572.5 540.6 578.5 511.4 635.7 534 572.5" style="fill:#4d4f53"/><path d="M-42.8-339.1c-160.9,0-291.4,130.4-291.4,291.4A290,290,0,0,0-295.5,97.3a69.8,69.8,0,0,0,14.1-9.1,63,63,0,0,0,7.3-7,278.8,278.8,0,0,1-29-124.1c0-154.6,125.3-279.8,279.8-279.8a279.1,279.1,0,0,1,206,90.4A290.8,290.8,0,0,0-42.8-339.1Z" transform="translate(408 359.1)" style="fill:#284e36"/></svg>