<svg id="logo" xmlns="http://www.w3.org/2000/svg" viewBox="0 0 815.9 718.2"><title>Knight175_1c</title><path d="M308.5,168.6,213,121.1A311.1,311.1,0,0,0,261.7-46.5c0-172.6-139.9-312.5-312.5-312.5S-363.4-219.2-363.4-46.5A311.2,311.2,0,0,0-328.5,97.1a126.3,126.3,0,0,1-24.9-9.9c-32.6-17-34.2-55.2-34.2-55.2s-20.9,18.3-20.3,60.2,32.6,72.8,32.6,72.8,11,2.7,30.6,10,41.6,22.9,41.6,22.9,5-.7,33.2-6c4.5-.8,9.1-1.8,13.7-2.9A311.3,311.3,0,0,0-50.9,266a311.1,311.1,0,0,0,156.8-42.1c-2.7,30.3-24.1,67.4-24.1,67.4s26.6-6.3,29.9-12,28.6-52.5,28.6-52.5l73.5,85.1L408,359.1ZM382,338.5l-36.5-29.6c-3-11.3-13.2-50.1-23-81.2ZM294,182.6c6.6,12.8,15.7,33.1,20,53.7,5.5,26.5,9.4,47.7,10.9,55.8L32.9,55.2,52.9,41.9Zm-104.6,4.9c-8.7-4-21.9-9.8-38.6-15.9-21.9-8-37.1-10.2-44.3-10.8l-41.7-45L126,136.3ZM-246.7,34.6c-1.1,9.9-5.5,19.2-11.4,27.5a264.8,264.8,0,0,1-21.6-105,265,265,0,0,1,91.8-200.9,65.9,65.9,0,0,0-.1,17.4c2.7,22.9,18.6,27.6,18.6,27.6l-7.3-13.6,7,3s-5-3-3.3-17.3,16-23.9,16-23.9a64.1,64.1,0,0,0-4.3,7.6c-2.7,5.3-1.7,13.3-1.7,13.3l3.7-4.7s-1.7,3,2,17,27.6,20.3,27.6,20.3a29.4,29.4,0,0,1-13-20.6c-2-14.3,6-20.6,6-20.6a32.5,32.5,0,0,0,20.9,19c16.3,5,29.3,1.3,29.3,1.3s-21.6-6.3-24.3-23.9,13-25.6,13-25.6l-3.3,6.3s3.3-4.7,16-6.6,18-.7,18-.7a92.2,92.2,0,0,1-9.3,5.3c-7,3.7-9.3,8.3-9.3,8.3a77.4,77.4,0,0,1,22.9-1.7c12.6,1,15.6,9.3,15.6,9.3l-4.3,8.3a28.1,28.1,0,0,1,7,3.3,35.8,35.8,0,0,1,7.6,6.7l-5,3.3,5,7s-5.6-.3-17.3,9.3l-19.3,16s1.3.7,3.3,6.3,0,8.3,0,8.3-10,3-14.3,15.3,3.7,25.9,3.7,25.9l-3.3,2.3s-5.3-4.3-9.3-18.6-4.3-43.2-4.3-43.2-5.3,12-12.6,27.3S-141.3-144-141.3-144l-15.3-1-11.6-6.3-4.7,12s-5.7,1-11.3,8-5.3,11.3-5.3,11.3-34.9,29.6-50.2,66.8S-242.7-2-246.7,34.6ZM-81.5-288.1s18,2.9,29,9.7,14,12,14,12-.9-1.5-8.2-4.2-8-2.7-8-2.7,11.3,6.6,15.3,10.2a21.2,21.2,0,0,1,5.5,8.4,8.9,8.9,0,0,1-6.7,2.7c-4.4,0-9.3-3.8-9.3-3.8l6.2.4s1.3-4.2-10.9-5.8-18.4.9-18.4.9-.4-2.4,8.6-4.4,14.4-1.1,14.4-1.1l-11.1-1.8,4.2-.7s5.8-4-8.6-5.5S-89-271.5-89-271.5s1.3-2.9,7.8-4.7A51.3,51.3,0,0,1-69-277.9s-4.2-1.3-11.5-.2-13.7,2.4-13.7,2.4,4.2-3.3,14.6-5.5c8.3-1.8,10.8-1.4,11.5-1.2Zm51.2,30.8,11.3,8.4c4.2,3.1,1.1,8.9,1.1,8.9l9-1.8c-.5.1-3.6,1-7.5,7.3s2.2,19.5,2.2,19.5l-12-.4s4-6.4,4-13.7-6.2-11.3-6.2-11.3l8-3.3s-.9.2-7.3,0a15.1,15.1,0,0,1-10-4,16.1,16.1,0,0,0,6.9-2.7C-26.9-252.9-30.3-257.3-30.3-257.3Zm47.7,68.7,13.5,13.7a14,14,0,0,1-5.1,3.3,34,34,0,0,1-8,1.3l7.3,2.9s-2.7,8-14.6,16.2S-7.6-140.5-7.6-140.5s-20.6-5.5-35.5-15.1-16.8-12.2-16.8-12.2l-12,8,.9,16.2s-7.8-15.7-4-21.9,12.6.4,16.8-12-3.1-14.6-3.1-14.6,4.2-5.3,14.9-12.2,16.4-8,16.4-8,13.5,7.1,20.2,29.9.7,36.4.7,36.4A76.3,76.3,0,0,0-4.3-186C-7.6-208.3-15-212.6-15-212.6A52.8,52.8,0,0,1,7.9-194.8C17-182,18.5-176,18.5-176Zm0,72.5c.7,14,2.2,17.1,2.2,17.1A101.7,101.7,0,0,1-.5-74.7C-13.2-63.8-15.4-61.2-15.4-61.2s-27-23.3-39.9-39.2-15.1-21.9-15.1-21.9a65,65,0,0,0,3.5-18c.7-10.6-.4-14.4-.4-14.4l8.6,8.6-8.2-12.6,3.8-2.9s10.4,14.9,30.6,26.4,21.1,11.5,21.1,11.5,4.7,11.3,1.6,29C-12.2-81.4-15.5-76-17-74A50.7,50.7,0,0,0-5.2-101.3c2-17.7,1.1-22.8,1.1-22.8L22.5-145S16.7-130.1,17.4-116.1ZM-97.9-150.3c5.1,17.7,13.7,28.5,14.6,29.6-.5-.6-3.5-3.6-15.9-8.8s-32.4-10.2-32.4-10.2,5.3-4,16-14.2a56.5,56.5,0,0,0,14.2-23.5S-103.2-168.9-97.9-150.3ZM-187-92.6c16.8-18.2,23.5-19.5,23.5-19.5s-4-1.8-14.6.4a60.6,60.6,0,0,0-17.3,6.2s12-12.9,23.1-13.7,33.2,3.1,33.2,3.1a221.7,221.7,0,0,0-35,19.5c-16.4,11.5-38.6,43.9-38.6,43.9S-203.8-74.5-187-92.6Zm35-31.5c-12.4,0-26.6,1.3-26.6,1.3s5.8-10.2,8.9-10.6a33.7,33.7,0,0,1,7.1,0l-1.8-8.9,29.3,19.5S-139.5-124.1-151.9-124.1Zm2.7-12.9s29.7,3.5,53.6,14.6,40.3,35.5,40.3,35.5-20.8-22.6-52.3-31S-149.3-137-149.3-137ZM-46.4-66.5c11.1,4.4,29.3,22.6,29.3,22.6S-61.5-22.2-74.4-21.7s-28.4-18.6-28.4-18.6A87.5,87.5,0,0,1-85.4-59.4c10.2-8,23.9-11.5,23.9-11.5S-57.5-70.9-46.4-66.5ZM-93-19.9l4,1.3s-1.3,9.8,1.8,16.8,4.9,11.5,4.9,11.5S-93.9,1.3-99.6-8.4a52,52,0,0,1-6.7-19.5S-97-21.3-93-19.9Zm-.4,28.8a86.3,86.3,0,0,0,9.3,8.9l16.8,26.2s-3.5-2.7-17.3-19.5S-103.6-4.9-103.6-4.9A102.3,102.3,0,0,0-93.4,8.9Zm23.9,6.2A192.9,192.9,0,0,0-43.8,28.4c14.6,6.2,16,6.2,16,6.2s-.4,15.1.9,23.5,3.1,12.4,3.1,12.4A300.3,300.3,0,0,1-46.9,47.4C-60.2,32.8-69.5,15.1-69.5,15.1Zm37.7,10.2s-4.9-4.9-16.8-12.9S-74.4-9.7-74.4-9.7s29.7-6.7,43-13.3,27-11.1,35-8S20.1,4.4,20.1,4.4A134.3,134.3,0,0,1-3.4,12C-17.2,15.1-31.8,25.3-31.8,25.3Zm26.6-4.9c7.1-1.8,25.7.4,25.7.4L5,32.4,1,46.1l-3.5-16-3.1,9.8-9.8-10.2S-12.3,22.2-5.2,20.4Zm31.9,1.8c7.5-7.1,16-31.5,16-31.5s0,5.3-4.4,18.6S24.1,35,20.9,35.5s-10.6-2.2-10.6-2.2A67.3,67.3,0,0,0,26.7,22.2ZM38.2-27S30.7-38.6,27.2-41.2s-6.2-2.7-6.2-2.7-4.9-28.8,8-38.6S45.3-94,50.2-100.2A28.9,28.9,0,0,0,56-112.6s3.5,8,13.7,13.3a148.2,148.2,0,0,0,21.7,8.9s-8,1.3-14.6,9.3S64-63.8,64-63.8l-8.4-5.8L44.5-66.9ZM92.8-74.5l12,14.2a60.7,60.7,0,0,0-15.1,4.9c-7.1,3.5-18.2-4-18.2-4ZM86.4,9.6c6.7.7,9,1.7,9,1.7s4,18,16.3,26.9,14.6,11,14.6,11V72.5L69.8,38.6l7-28.6S79.8,9,86.4,9.6ZM185-51C198.3.9,196.5,60.3,191.2,80.2s-7.1,27-7.1,27L169,98.9S183.2,39,170.8-26.6s-16.4-78-19.5-101.5-5.3-33.2-5.3-33.2l30.2-10.2S171.7-102.8,185-51ZM142.4-166.7s-10.2-.4-37.2-12.4-37.2-30.1-37.2-30.1l18.6,1.8s.4,7.1,33.7,21.3,55,9.7,55,9.7ZM200,114.6l-9.1-4.5a219.2,219.2,0,0,0,8.3-28.9c2.7-13.6,3.3-32.9,3.3-32.9s12.3-19,8.3-73.5-30.9-110.4-30.9-110.4-.3-8,2-22.9,6.7-20,6.7-20-19.3,1.3-53.5-8-46.6-26.6-46.6-26.6l-34.9-8s4,9,7.6,33.9-3.7,47.9-3.7,47.9,18,11,36.2,37.2S116-46.5,116-46.5l-12-6.3,5.3-5.3-14-22.3-5-1,6.7-9s-7-5.3-22.3-12.6-20.9-25.6-20.9-25.6.3,1.7-.3,11.3-7,12.3-7,12.3l-7.3-6.6s5.3-8,7.3-29.6-5-30.9-5-30.9.3,6.7-2.7,17A28.2,28.2,0,0,1,27.6-140s-.7-2.3,1-10,10.6-22.6,10.6-22.6-5-7.3-18.3-22.3S-3-216.4-3-216.4l3-3.7s-4.6-1-5.3-8.3S4-241.7,4-241.7v-9l-6,3,2.7-10a10.7,10.7,0,0,1-3.3,5,32.1,32.1,0,0,1-5.7,3s4.3-23.6-16-50.5a86.1,86.1,0,0,0-6.6-7.8c5.6-.4,11.2-.6,16.9-.6,146.7,0,265.7,118.9,265.7,265.7A264.4,264.4,0,0,1,200,114.6ZM-334.1-47.8c0-160.9,130.4-291.4,291.4-291.4A290.8,290.8,0,0,1,182.7-232.3a279.1,279.1,0,0,0-206-90.4,282.5,282.5,0,0,0-36,2.3c10.7,7.6,30.2,23,36.8,38.3,9.3,21.5,6,28.4,6,28.4s-7.3-4.7-14-15.1-14.6-14.6-14.6-14.6l4,9.8s-16-19.5-44.8-22.2-54.8,12.4-54.8,12.4l7.8-.7-8.9,6.4s.9-.2,14.9-5.8,22-4.2,22-4.2-6.7.7-17.1,10.4-12.2,26.6-12.2,26.6-1.8,0-9.5,12.4-2.9,26.8-2.9,26.8-6.9-6.4-6-20.4,14.2-23.1,14.2-23.1-6.4.4-10.7,4.2a36.7,36.7,0,0,0-7.1,9.5s0-3.1,4.2-10.4,13.3-13.3,13.3-13.3-7.3-.7-19.7,8-17.7,23.5-17.7,23.5-.2-5.5,6.9-17.7,21.1-20.4,21.1-20.4-5.3-.2-14.2,6.9a43.1,43.1,0,0,0-12.4,16.4s1.8-12.6,15.3-27.9,40.8-26.4,40.8-26.4l-14.4,3.3-5.8,1.4c-96.9,44-164.2,141.6-164.2,254.9a278.8,278.8,0,0,0,29,124.1,63,63,0,0,1-7.3,7,69.8,69.8,0,0,1-14.1,9.1A290,290,0,0,1-334.1-47.8Zm146.7,179.4c-33.2,39.5-90.4,38.1-90.4,38.1s20.4-.9,47.9-17.7,32.4-25.3,32.4-25.3-42.6,31.9-85.6,36.8-48.8-2.7-48.8-2.7,19.1,4.4,51-4,66.5-24.4,86.9-66.5,4-97.5,4-97.5,13.8,102-52.3,138.3-122.8,5.8-139.2-11.5-10.6-65.2-10.6-65.2,11.5,30.1,35.9,42.6,41.7,10.6,41.7,10.6-5.8,4.9-19.5,4.9-17.7-1.3-17.7-1.3,28.8,19.5,74-14.2,44.3-61.2,44.3-61.2,3.1,30.6-16.4,51.9-29.2,23.1-29.2,23.1,39.4-.4,56.3-59.9,6.2-73.1,13.7-92.2S-189.2-66-189.2-66s-4.9,2.2-12,24.8a91.2,91.2,0,0,0-2.2,43.4s-1.3-22.2,7.5-41.7S-179.4-66-179.4-66l-.4,38.1s13.3,43.4,6.6,84.2S-192.7,102-192.7,102s14.2-4,20.4-21.3,10.2-48.3,10.2-48.3S-154.2,92.2-187.4,131.7Zm31.9-150.7s-1.8-4.4-9.3-19.5a48.3,48.3,0,0,1-4.4-29.3s2.2,4.9,8.4,11.1,15.5,8.9,15.5,8.9-4.4-4-12.8-17.3a59.6,59.6,0,0,1-8.9-27,77.6,77.6,0,0,1,25.7-14.6,77.3,77.3,0,0,1,28.4-3.5s2.7,1.3,8,8.9,22.6,14.2,22.6,14.2-12.9-.9-33.7,9.8-22.2,38.1-22.2,38.1-3.6,0-10.2,4.4S-155.5-19.1-155.5-19.1Zm27.8,200.6a69,69,0,0,1-6.3,12.7q-7.9-4-15.5-8.5h.1C-131,169.6-124,153-124,153A76.8,76.8,0,0,1-127.7,181.5ZM-128-5.8c-1.8,7.1-2.7,12-2.7,12s-3.1-13.3-7.1-17.7a21,21,0,0,0-9.7-5.8c.4-1.3,1.3-9.8,5.8-14.2s7.1-4.4,7.1-4.4a35.7,35.7,0,0,1,9.7,9.8c3.5,5.8,3.5,8.4,3.5,8.4A28.6,28.6,0,0,0-128-5.8Zm-6.2-35.9s3.1-16.8,21.7-29.7,41.2-8.4,41.2-8.4-20.4,4.9-33.7,20-14.6,29.7-14.6,29.7Zm31.9,72.3C-112.9,19.5-116,8-116,8l4.4-5.8s9.8,19.1,21.7,30.6S-73.5,47-73.5,47-91.6,41.7-102.3,30.6Zm42.1,87.8c-26.2-15.5-34.1-24.8-34.1-24.8s25.3,13.3,47.9,15.5,42.1-8.9,42.1-8.9L-22.5,133S-34,133.9-60.2,118.4Zm83.8,48.3a48.1,48.1,0,0,0-16-5.8,162.9,162.9,0,0,0-18.2-2.2s26.1-54.5,29.3-83.8,1.3-35,1.3-35,15.5-6.2,23.5-27.5S55.5-59,55.5-59s1.3,8,9.3,10.6,19.5,4,19.5,4S70.2-13.7,66.6,4.4a221.2,221.2,0,0,0-4,31.5L52,29.7,25.4,56.3,36,116.2Zm56,39.1L53.5,130.3l50.5,56.9s1.1,1.2,1.9,7A264.2,264.2,0,0,1,79.7,205.8Zm23.8,70.8L126,213.5l6.7,6Zm29-87.9c7.1,1.4,20,4.5,42.8,11.2,27.7,8.2,55.1,23.5,70.6,33l25.1,20.3-49.1-22.7a343.2,343.2,0,0,0-72.3-23.4Zm98,105.9-61.9-66.9c8.5,1.6,28.5,6.5,68.3,21.9,32.9,12.8,54.8,23.6,67.5,30.5l69.1,55.7Z" transform="translate(408 359.1)" style="fill:#050000"/></svg>