<svg id="Layer_1" data-name="Layer 1" xmlns="http://www.w3.org/2000/svg" viewBox="0 0 315.9 306.5"><title>Knights Shield_4c</title><path d="M-76.6-47.4l-7.7-16.8-1.9-1.2H-105l-2.3,2.3h0l-1.9-1.9h-17.7l-2.3,2.3v9.2l1.1,1.1L-133.5-41V-51.3h.4l2.3-2.3v-9.2l-2.3-2.3h-22.6l-2.3,2.3v9.2l2.3,2.3h.4V10.3h-.4l-2.3,2.3v9.2l2.3,2.3h22.6l2.3-2.3V12.6l-2.3-2.3h-.4V-4.6l.7-1.5,3.2,28.2,2.2,2h21.2l2.3-2.3V12.6l-2.3-2.3h-1.2L-118-40.1l6-11.2h2.7l2.3-2.3v-1l1.9,1.9h.4V-2.7h-.4l-2.3,2.3V7.8l2.3,2.3h15l2.3-2.3V-.4l-2.3-2.3h-.4V-21.8l14,30.7,1.9,1.2h10.5l2.3-2.3V-52.7h.4l1.4-1.4,1.4,1.4h.4V-2.7h-.4L-60.9-.4V7.8l2.3,2.3H-36l2.3-2.3V-.4L-36-2.7h-.4V-52.7h.4l2.3-2.3v-8.2L-36-65.4H-58.6L-60-64l-1.4-1.4H-77.1l-2.3,2.3V-55l2.3,2.3h.4v5.3ZM-12,96.8a2.6,2.6,0,0,1,2.3-1,3.2,3.2,0,0,1,1.6.6,1.7,1.7,0,0,1,.6,1l-.6,36.4a11.5,11.5,0,0,0,0,1.2v.5a15.4,15.4,0,0,0,30.4,5.3l.4-1.8a8.4,8.4,0,0,0,0-3.1q-.2-4.1-.2-8.2L22,114.5l-.2-11.7q-.1-2,0-4.1a6.6,6.6,0,0,0-.1-1.2,1.5,1.5,0,0,1,.8-1.5,1.7,1.7,0,0,1,1.6,0A12.6,12.6,0,1,0,40.4,84.1l-.5-.2H15.7l.2-1.7,2.3-.6a149.5,149.5,0,0,0,86-58.4l4.4-6.1H21.8l-.8.8-.6-.6H-7.5l-.7.8-1.2-1.1H-96.2l4.4,6.1a149.5,149.5,0,0,0,86,58.4l4.4,1.1.2,1.1H-26.8l-.6.2a12.8,12.8,0,0,0-5.8,3.8,13.1,13.1,0,0,0-3.2,6.9,12.2,12.2,0,0,0,10.6,13.7A12.2,12.2,0,0,0-12.1,97.8q.1-.5.1-1ZM2.1-64.5a15.6,15.6,0,0,0-5-2.4,22.1,22.1,0,0,0-6.1-.7c-10.1.2-17.9,7.2-22,16s-4.8,15.4-4.7,23.8q0,3.9.3,7.7a60.2,60.2,0,0,0,1.2,7.9C-32.3-3.6-28.1,5-20,9.4A23.3,23.3,0,0,0-8.6,12.1,21.1,21.1,0,0,0-.3,10.5,21.8,21.8,0,0,0,11-.1a16.9,16.9,0,0,0,1.7-7.3V-21.9h.6l2.3-2.3v-8.2l-2.3-2.3h-1V-63.2L10-65.4H3.7l-1.6.9ZM112.7-28.9a28.4,28.4,0,0,0,2,4.6l.7,1.2h-1.9l-2.3,2.3V21.8l2.3,2.3h7.1l1.6-1.6A23.9,23.9,0,0,0,136,26.6a18.1,18.1,0,0,0,11.1-3.9,26.5,26.5,0,0,0,8-10.9,38.7,38.7,0,0,0,2.4-8.9,44.9,44.9,0,0,0,.3-10.2,36.3,36.3,0,0,0-5.9-17.9h1.7l2.3-2.3V-62.7L153.6-65h-7.1l-.6.6a22.1,22.1,0,0,0-4.4-2.2,14.1,14.1,0,0,0-5.1-.9,26,26,0,0,0-5.5.6,21.8,21.8,0,0,0-14.5,10.4,48.1,48.1,0,0,0-3.4,7.7V-63.2l-2.3-2.3H65.3L63.9-64l-1.4-1.4H39.8l-.9.9-.9-.9H15.4l-2.3,2.3V-55l2.3,2.3h.4V-2.7h-.4L13.2-.4V7.8l2.3,2.3H38.1l.9-.9.9.9H62.5l2.3-2.3V-.4L62.5-2.7H62V-52.7h.4l.6-.6v23.9l2.3,2.3H76.2V-31a63.1,63.1,0,0,1,.5-7.6,34.2,34.2,0,0,1,.7-3.8V-2.7h-.4L74.6-.4V7.8l2.3,2.3H99.3l2.3-2.3V-.4L99.3-2.7h-.4V-42.5a42.2,42.2,0,0,1,1,7.2q.2,4.1.2,8.2h10.9l1.8-1.8ZM-5-98.2l1.5-16.5-3.1-2.6-9.1,2.5A203.1,203.1,0,0,1-82-114a110,110,0,0,1-24.2-7l-5.7-2.4.4,6.2a281,281,0,0,1-.7,43.2l-.4,4.2H-9.6l1.9-1.8,1.3,1.5H19.2l.6-.7,1.1,1H123.9l-.4-4.2a281,281,0,0,1-.7-43.2l.4-6.2-5.7,2.4a110,110,0,0,1-24.2,7,203.1,203.1,0,0,1-66.3-.9l-9.1-2.5-2.6,2.1L9.8-153.3H3.1L-5-98.2Z" transform="translate(158 153.3)" style="fill:#fff"/><path d="M18,98.4h0v-.2a5.3,5.3,0,0,1,2.7-5.5,5.4,5.4,0,0,1,7.4,2.1,8.7,8.7,0,1,0,11.1-6.9H11.4l7.3-66.6H-5.7L3.2,87.7H-26.2a9.5,9.5,0,0,0-6.3,7.5,8.4,8.4,0,0,0,7.2,9.4,8.4,8.4,0,0,0,9.4-7.2,7.9,7.9,0,0,0,.1-1.5,6.4,6.4,0,0,1,6.4-3.9A5.9,5.9,0,0,1-3.7,97l-.6,36.8c-.1.5,0,1.5-.1,2a11.5,11.5,0,0,0,22.7,4.1c.3-1.5.7-2.1.3-3.7s-.9-36-.7-37.8Z" transform="translate(158 153.3)" style="fill:#86754f;fill-rule:evenodd"/><path d="M-10.9,21H-88.7A145.6,145.6,0,0,0-4.9,77.8l-6-56.8Z" transform="translate(158 153.3)" style="fill:#1e4ca0;fill-rule:evenodd"/><path d="M119.7-73.7a284.9,284.9,0,0,1-.7-43.8,113.9,113.9,0,0,1-25.1,7.3,206.9,206.9,0,0,1-67.8-.9l-7.3-2,3.6,39.4Z" transform="translate(158 153.3)" style="fill:#1e4ca0;fill-rule:evenodd"/><polygon points="32 173.4 27.5 133.1 20.6 147.8 20.6 167.4 23.3 167.4 23.3 173.4 3.9 173.4 3.9 167.4 6.6 167.4 6.6 98.1 3.9 98.1 3.9 92.1 23.3 92.1 23.3 98.1 20.6 98.1 20.6 129.7 35.3 98.1 32.6 98.1 32.6 92.1 47.2 92.1 47.2 98.1 43.7 98.1 35.9 112.6 47.4 167.4 50.1 167.4 50.1 173.4 32 173.4 32 173.4" style="fill:#050000;fill-rule:evenodd"/><polygon points="92.2 96.7 92.2 159.5 84.5 159.5 63.6 113.6 63.6 154.5 66.3 154.5 66.3 159.5 54.5 159.5 54.5 154.5 57.2 154.5 57.2 96.7 54.5 96.7 54.5 91.7 70.6 91.7 85.2 123.5 85.2 96.7 82.5 96.7 82.5 91.7 94.9 91.7 94.9 96.7 92.2 96.7 92.2 96.7" style="fill:#050000;fill-rule:evenodd"/><polygon points="120.4 91.7 120.4 96.7 117.7 96.7 117.7 154.5 120.4 154.5 120.4 159.5 101 159.5 101 154.5 103.7 154.5 103.7 96.7 101 96.7 101 91.7 120.4 91.7 120.4 91.7" style="fill:#050000;fill-rule:evenodd"/><path d="M11.7-25.8H8.8V-7.5A13,13,0,0,1,7.5-1.8,17.3,17.3,0,0,1,3.8,3.3,18.5,18.5,0,0,1-1.8,6.9,17.3,17.3,0,0,1-8.6,8.3,19.7,19.7,0,0,1-18.2,6,20.6,20.6,0,0,1-25.5-.9a35.7,35.7,0,0,1-4.7-11.3,65.5,65.5,0,0,1-1.7-15.6A55.4,55.4,0,0,1-29.8-44a36,36,0,0,1,5.4-11.2,22,22,0,0,1,7.4-6.5A17.4,17.4,0,0,1-9-63.7a19.8,19.8,0,0,1,4.4.4,12.7,12.7,0,0,1,3.1,1.1A11.3,11.3,0,0,1,.9-60.5l2,2,1.8-3H8.4v26.4H1.1a30,30,0,0,0-.5-7,33.5,33.5,0,0,0-2-6.9,17.5,17.5,0,0,0-3.2-5.3,5.6,5.6,0,0,0-4.1-2.1,4.5,4.5,0,0,0-3,1.4,12.3,12.3,0,0,0-2.8,4.6,40.1,40.1,0,0,0-2.1,8.8,100,100,0,0,0-.8,13.8q0,7.7.5,13a47.8,47.8,0,0,0,1.4,8.6A13.3,13.3,0,0,0-13-1.4,7,7,0,0,0-9.8.8,4.3,4.3,0,0,0-8.1.9,4.2,4.2,0,0,0-6.5.2,4.2,4.2,0,0,0-5.2-1.2a4.3,4.3,0,0,0,.5-2.2V-25.8H-8.8v-5H11.7v5Z" transform="translate(158 153.3)" style="fill:#050000;fill-rule:evenodd"/><polygon points="218.8 159.5 199.4 159.5 199.4 154.5 202.1 154.5 202.1 126.1 191.8 126.1 191.8 154.5 194.5 154.5 194.5 159.5 175 159.5 175 154.5 177.7 154.5 177.7 96.7 175 96.7 175 91.7 194.5 91.7 194.5 96.7 191.8 96.7 191.8 116.2 202.1 116.2 202.1 96.7 199.4 96.7 199.4 91.7 218.8 91.7 218.8 96.7 216.1 96.7 216.1 154.5 218.8 154.5 218.8 159.5 218.8 159.5" style="fill:#050000;fill-rule:evenodd"/><path d="M66.9-61.6h42.4V-31h-5.4a66.9,66.9,0,0,0-.5-8.1,36.3,36.3,0,0,0-1.6-7.2,15.2,15.2,0,0,0-2.8-5.1,4.6,4.6,0,0,0-4-1.7V1.2h2.7v5H78.5v-5h2.7V-53.2a4.6,4.6,0,0,0-4,1.7,15.2,15.2,0,0,0-2.8,5.1,36.3,36.3,0,0,0-1.6,7.2,66.9,66.9,0,0,0-.5,8.1H66.9V-61.6Z" transform="translate(158 153.3)" style="fill:#050000;fill-rule:evenodd"/><path d="M154-6.9a39.9,39.9,0,0,1-.9,12.3,30.4,30.4,0,0,1-3.9,9.4,18.8,18.8,0,0,1-6,6,13.8,13.8,0,0,1-7.3,2.1,19.1,19.1,0,0,1-5.7-.8,21.7,21.7,0,0,1-4.7-2,18.9,18.9,0,0,1-3.7-2.9,29.7,29.7,0,0,1-2.8-3.2v6.3h-3.9V-19.3h4.2v2a36.4,36.4,0,0,0,1.3,9.7,52.2,52.2,0,0,0,3.3,9,37.3,37.3,0,0,0,4.2,6.9q2.2,2.8,4,3.4a7.8,7.8,0,0,0,4.9.4,4.4,4.4,0,0,0,2.6-2.3,9.2,9.2,0,0,0,.8-4.1,28.9,28.9,0,0,0-.4-4.7,19.1,19.1,0,0,0-2.6-7,27.8,27.8,0,0,0-4.2-5.2,46.7,46.7,0,0,0-4.9-4.1l-4.5-3.5a24.9,24.9,0,0,1-3.1-3.2,26.8,26.8,0,0,1-2.8-4.2,24.6,24.6,0,0,1-2-5,20.3,20.3,0,0,1-.8-5.6,35,35,0,0,1,1.1-9.8,44.2,44.2,0,0,1,3.4-8.1,17.5,17.5,0,0,1,3.3-4.1,17.5,17.5,0,0,1,4.1-2.8,19.3,19.3,0,0,1,4.5-1.6,22.2,22.2,0,0,1,4.7-.5,10.2,10.2,0,0,1,3.7.7,18.3,18.3,0,0,1,3.3,1.6,18.8,18.8,0,0,1,2.7,2.1,14.4,14.4,0,0,1,1.9,2.1v-4H152V-29h-4.4a63.6,63.6,0,0,0-1.8-9.6,38.7,38.7,0,0,0-3.1-7.9,18.7,18.7,0,0,0-4.1-5.4,7.3,7.3,0,0,0-4.9-2,4.8,4.8,0,0,0-3.5,1.5,6.5,6.5,0,0,0-1.8,3.8,10.3,10.3,0,0,0,.8,5.1,13.9,13.9,0,0,0,4.1,5.4q1.8,1.7,3.9,3.4l4.3,3.6a47.4,47.4,0,0,1,4.3,4.3,34.1,34.1,0,0,1,3.8,5.3,31.3,31.3,0,0,1,2.9,6.5,35,35,0,0,1,1.5,8Z" transform="translate(158 153.3)" style="fill:#050000;fill-rule:evenodd"/><path d="M23.3,21h77.8A145.6,145.6,0,0,1,17.3,77.8l6-56.8Z" transform="translate(158 153.3)" style="fill:#1e4ca0;fill-rule:evenodd"/><path d="M-108.4-73.7a284.9,284.9,0,0,0,.7-43.8,113.9,113.9,0,0,0,25.1,7.3,206.9,206.9,0,0,0,67.8-.9l7.3-2-3.6,39.4Z" transform="translate(158 153.3)" style="fill:#1e4ca0;fill-rule:evenodd"/><polygon points="175.4 79.3 153.4 79.3 164.4 3.9 175.4 79.3 175.4 79.3" style="fill:#86754f;fill-rule:evenodd"/></svg>