<svg id="Layer_1" data-name="Layer 1" xmlns="http://www.w3.org/2000/svg" viewBox="0 0 599.9 759.8"><title>Knight439_1c</title><path d="M265.1,69.1c-4,45.8-43,92.6-85.5,113.2l.5.3c42.5-20.5,81.6-67.4,85.5-113.2L274.4-106l-.6-.2Z" transform="translate(299.9 379.9)" style="fill:#050000;fill-rule:evenodd"/><path d="M299.9-115.7l-89.2-24.7c-4.8-10.8-9.6-20.6-14.7-29.8a13.3,13.3,0,0,0,2.4-6.9c1.7-21.8-20.1-53.4-38.3-62.5-2.6-18.7-13.6-21.6-20.2-21.6-4.5,0-9.5,1.2-15.2,3.8a96.8,96.8,0,0,1-7.1-7.6c6.1-11.2,8.4-23.5,7.1-37.9,7.8-2,13.7-8.5,15.5-17.7s-.7-19.3-8.5-24.2c-2.7-8.3-10.7-15.4-18.1-18.3-4.6-4.3-12.5-6.8-21.5-6.8a40.5,40.5,0,0,0-17.7,3.8c-9.8,3.8-18.2,5.7-25,5.7-8.2,0-13.9-2.7-17.8-8.5l-7.2-10.8-2.6,12.7c-1.5,7.4-1,13.6,1.7,18.5-5.9,2.5-11.9,5.7-17.8,8.9C-4.8-334-15.8-328-24.3-328a12.7,12.7,0,0,1-9.1-3.4l-9-8.2v12.2c0,4.5,1.6,8.9,4.8,13.2a44.5,44.5,0,0,0-10,5c-18.7,7.9-27.2,25.8-29,40s2.1,24.9,10.1,30.8L-52-227.7l-6.3-17c-1.7-4.7-.8-12.1,3.8-17.9l2.9,10.6,6.7-9.3c3.9-5.4,11.9-8.8,20.9-8.8a37.8,37.8,0,0,1,5.9.5l4.1,3.3a23.5,23.5,0,0,0,15.1,4.9,33.5,33.5,0,0,0,17.5-5,58.9,58.9,0,0,0,3.1,8.6c-5.9,2.6-9.5,7.1-12.1,11.5-15,1.7-30,11-41.4,25.8-13,16.8-19.2,37.5-15.8,52.7l1.3,5.7a307.5,307.5,0,0,1-20.3,27.3c-10.7,5.1-16.1,22.6-14.8,36.7s9.8,26.2,22.7,29.4l1.4,1.9C-93.8-23-143,4.6-186.6,25.8s-82.3,62.9-93.3,99.5c-6.4,18.8-7.8,29.9-7.8,40.4-18.3,41.8-18.6,97.3,16.4,123.7l11,8.3-2.4-13.6c-9.1-51.7,16.1-98.2,43.4-125.1h.3c17.4,0,23.1,26.4,28.6,51.9,2.4,10.9,4.6,21.2,7.8,29.9,4.9,13.4,17.7,22.1,32.6,22.1s34.9-7,59.1-40.2c10.9-3.1,19.7-4.7,27.1-4.7,13,0,19,4.7,26.6,10.7S-22.6,240.5-8.8,243l.4,36.2c-20.6,5.3-40.3,12.4-46.2,29.4l-.9,2.7,1.7,2.3c4.4,5.9,14,6.6,21.9,6.6s15.2-.7,23.2-1.4l3.4-.3c3.5,19.5,7.9,33.2,13.7,43.1l3.8,6.6,5-5.8c7.5-8.7,11.7-25.2,15.5-47.5,24.9-1.9,39.3-6.7,45.4-15l1.2-1.6v-2c-1.1-15.1-3.1-30.5-5-45.4-.8-6-1.6-12.2-2.3-18.3a25.1,25.1,0,0,1,6.9-1.2c3.2,0,4.8.8,5.5,5.6,2.3,16.2,21.6,28.5,45,28.5h2.2c6.4,0,8,3.3,10.7,16.4.6,3,1.3,6.1,2.1,9.3.3,13.5-.8,27.4-1.9,40.8-.3,4-.7,8-1,11.9-.4,5.5,2.7,12.1,8.7,18.5,7.6,8.1,21.7,17.5,36.7,17.5h1.1l.7-.2c10.1-2.9,24.6-16,28.2-28.5s-1.7-23.5-6.9-33.9c-2.8-5.7-5.8-11.7-7.4-18-.7-4.4-2.6-10-4.7-16.4a171.5,171.5,0,0,1-5.7-19.1c27.2.4,43,11.5,48.4,33.9l4.7,19.4,5.8-19.1c10.2-33.7,2.9-60.9-3.6-85-3.5-13-6.8-25.3-6.7-36.9,31.3-34.6,47.6-66.9,49.7-98.6ZM196.5-143.1c-4.3-1.5-9.6-3-17.1-4.9a117.9,117.9,0,0,0-13,3.5c-1.9-6.5-5.6-14.6-10.8-23.9h2.2A105.4,105.4,0,0,0,170-169a33.8,33.8,0,0,0,11.2-4.5C186.7-163.4,192-153.4,196.5-143.1Zm-25.2-75.9c7.5,10.3,13.2,21.5,13.1,35.9a3.8,3.8,0,0,1-1.9,3.1l-1.6.7-.8.6c-2.7-11.4-7.9-23.5-16.7-36.3a13.3,13.3,0,0,0-4.9,2.1A109,109,0,0,1,176-176.6a6.2,6.2,0,0,1-2.2,1,117.4,117.4,0,0,0-17.1-36.6,5.5,5.5,0,0,0-2.3,2.6c6.2,11.1,11.8,22.5,15.1,34.8a7.5,7.5,0,0,1-2.3-.1l-3-.3,1.6.3-2.3-.4-5-.6-1.3-.2c-2.3-8-7.1-14.9-15.7-20.1a30.7,30.7,0,0,0-3.8,6.6c6.8,2.4,11.6,6.5,13.7,13-11.1,1-15.8,7.4-24.6,11.6s-16.5,5.3-24.8-.5c20.3,3.4,30.6-23,41.5-38.4C148.6-211.2,157-220.4,171.3-219.1Zm-18.8,78.7-5.2,1.6c-2.7-6.2-5.9-12.2-9.1-18.3a12.3,12.3,0,0,1,3.3-4.8A198.5,198.5,0,0,0,152.6-140.4Zm15.9-82.3a22.5,22.5,0,0,0-9.8,1.6,71.2,71.2,0,0,0-8.1,4.6c-5.3,3.6-8.5,8.5-11.6,13.2-13.5-6.2-18.6-14.9-14.3-28.2-6.4,6-11.7,11.5-14.3,17.6s9.7,21.6,21.2,22.1a45.5,45.5,0,0,1-6.4,11.2c-7.5-.7-14.4-4.4-16.8-12.6-1-3.6-1.6-14.7-1.6-14.7-3.5,5.3-9.8,21.4-8.6,25.5s5,7.8,9.4,12.1l-1.1,2.4c-4.4.4-7.2,0-8-.9-7.5-9-4.3-23.6,3.7-39.7,6.2-12.4,20.6-33.1,41.7-31.8C151.6-240,162.5-230.9,168.5-222.7ZM118-251.8c7.4-6.9,29.3-13.8,29.1,8.5l-1.2-.4-6.2-.2c-9.2,1-18.5,4.3-25.8,13a210.8,210.8,0,0,0-15.1,21.6,55.3,55.3,0,0,0-6,16.6C92.8-205.6,102.3-237.3,118-251.8ZM43.9-79.7a64,64,0,0,1-.7-9.7c-1.3,2.4-2.1,6.2-2.9,9.8-6.8-3.6-13.7-7.8-20.5-12.2l4.2-9.2c6.1,3.9,12.2,7.9,19,9.3l29.6-6.4.3,11.6Zm28.4-1.9-.5,7.8c-6.7,2.6-14.2,5.2-22.9,7.9l3-10.6ZM-11.5-36.2a8.5,8.5,0,0,0,1.1,4.5c-5.4-2.5-9.2-4.7-11-7.7-5.2-9.3.8-31.7,11.2-34.2,0,0,6.5,3,7.3,5C-10.9-59.4-12.8-44.5-11.5-36.2ZM-29.2-72.6A127.7,127.7,0,0,1-48.3-102c2.9-5.3,13.5-11.1,22.4-10l14.3,35.3a12.6,12.6,0,0,0-7.1,4.9Zm2.5,18.3-.3,3.8C-37.8-61-47.7-71.4-56.6-81.9c-.5-2.9.2-6,1.9-9.4A253.7,253.7,0,0,0-26.7-54.3Zm63.7-44-11.1-5.3A438.6,438.6,0,0,1,9.1-153.1a98.1,98.1,0,0,0,16.5,9.6C29.1-127.6,32.6-111.5,36.9-98.3Zm-10.4-45,3.3,1.1c3.1,19.9,6.8,35,11.1,45.6l-2-1.1C35.4-106.4,31.1-123.3,26.5-143.3ZM14.8-118.4l6.2,15.8-2,2.6c-.9-6.5-8-9.1-12.5-7.7-9.4,3-8.8,15.4-2.3,18.7v12.8L-3-72.5a19.4,19.4,0,0,0-5.6-5.2,287.3,287.3,0,0,1-11-29.3A338.6,338.6,0,0,0,3.6-157.1ZM15-98.1a5.4,5.4,0,0,1-5.4,5.4,5.4,5.4,0,0,1-5.4-5.4,5.4,5.4,0,0,1,5.4-5.4A5.4,5.4,0,0,1,15-98.1ZM-.4-65.8c6-3.9,30.2,1.4,32.1,6.3-.7,5.2,2.7,9.6-2,15.7s-8.1,15.4-17,21.4C4-24.3-3.5-26.6-5.7-28.4-9.1-36.6-7.3-58-.4-65.8Zm23-11.6a31.4,31.4,0,0,1,2.6-6A178.9,178.9,0,0,0,42.8-73.1l5.3-1.5a74.7,74.7,0,0,1-3.4,8.9A172,172,0,0,1,22.6-77.4Zm9.6-68.8a419.3,419.3,0,0,1,7-49.3c-4.3,11-8.1,24.8-10.4,49l-12.5-6.1c-4.8-2.7-9.5-5.6-10.1-10.7,10.6-3.2,7.9-12.8,8.8-21.2,2.5-12,5.1-24,9.6-36.5,5.3,9.1,10.7,17.5,16.5,21.7,13-.6,25.9-4,38.9-9.1-.8,31-2.9,50.1-6.6,55.2,7.7-7.9,11.6-29.1,13.7-56.8l1.4-.6c-.2,25.3-3.1,46.4-11,59.6C61.7-146.5,46.2-143.2,32.2-146.2ZM-5-192.4a36.3,36.3,0,0,0-1.6-4.3,48.6,48.6,0,0,1,13-4,29.9,29.9,0,0,1,1.6,6.3C3.6-194.4-.8-194.2-5-192.4Zm49.2-10.3c-.2-1.4,0-4.4-.2-5.7-.6,1.1-1.7,3.7-2.3,4.8-6.6-4.7-11-13.8-15.4-22.1a114.4,114.4,0,0,1,10.3-20.4c4,4.8,8,9.6,12.7,11.9,9.3,1,32.2-8.8,39.3-23.8l2.1,12c-8,9.1-29.6,19.8-41.7,20.7a39.1,39.1,0,0,0-.6-7.4c-1,2.3-1.8,4.6-2.5,6.9a59.3,59.3,0,0,1-11.3-10.5c1.8,6,5.5,8.9,11.7,14.2,15.8-1.9,30.3-8.3,45.5-19.9l1.8,7.7c-9.4,9-34.8,21-47.1,21.5.1-2.2-.6-5-.8-7.2-.8,2.1-1.7,4.4-2.3,6.3-5-4.4-9.7-9.7-12.4-14.7,2.2,7.3,8.4,16,13,18.2,9.3,1.2,40.3-10.8,50.4-20.7l1.6,8.4C84.7-211.6,60-202.2,44.1-202.8ZM39-294.9l-7.7-5.6a109.1,109.1,0,0,1,6.2-13.4L53-319.6a79.4,79.4,0,0,0-9.2,19.9,88.6,88.6,0,0,1,15.5-21.1c15.8,8.7,24.2,17.8,29.5,27l-3,.2c-1.3-3.2-3.7-6.2-7.9-9.2,1.3,4.9-6.2,7.8-6.3,14.3l-2.2.5.5-3.5c-12,4.5-14.3,2-13.1,6.8-7.8,1.7-15.2,3-21.5,3.3-4.2-6.5-6-11.8-5.6-15.8,2.8,4.1,5.7,7.1,8.8,8.1A12,12,0,0,0,39-294.9Zm69.3,9.5-1.6-4.6.3-6c-4.4,2-7.1-2.4-8-6.4s.5-11.1,5-9.7c-3.7-9.4-9.5-16.2-18.6-18.8,6.5,5.2,9.2,10.6,10.4,15.9l-12,9a73.6,73.6,0,0,0-24.2-18.4c-4.9.5-10.9,2.4-17.8,5.1,6.6-13.1,29.7-18.5,41.1-15.2C106.4-327.7,114.3-310.1,108.3-285.4Zm-21.2-51,1.3-7.9a27.1,27.1,0,0,1,8.4,1.6L95-333.2A29.4,29.4,0,0,0,87.2-336.4Zm10.6,5.1a65.1,65.1,0,0,1,1.7-9.5c3.8,3.4,7.6,11.7,11.2,24.9C108.4-321.6,104.4-326.8,97.8-331.3Zm18.3,75.9-1.2.9c-4.8-1.9-9-6.1-13.2-10.8l3.4-3.6A83.5,83.5,0,0,0,116.1-255.4ZM32.6-279.9a22.2,22.2,0,0,1-2,6.9l5.3-5.9c9.9.6,28.5-3.6,48.1-10.3-8.1,9.1-39.2,18.9-55.6,20.1-8.7-6.3-5.7-20.1-1.8-26.8C26.8-289.2,28.4-283.8,32.6-279.9Zm57.2-11.5c-.1,6.5.8,10,2.2,11.9,2.7-15,10.5-12.9,12-8.3,4.9,15-8,27.9-12.2,13.9-1.3,1.4-1.9,3.5-1.7,6.6a15.3,15.3,0,0,0-2,3.3c-1,3.3-5,7.3-6.5,9.8C77-246.6,59-237.4,50.4-236.9c-6.9-5.7-13.9-16.9-21-29C49.9-268.1,78.6-277.4,89.8-291.4ZM6-301.3c3-.8,7.3-3.3,12-6.3C8.3-294.2-.8-290.1-9.8-289.6l-13.6.2c-21.3,1.4-38.4,9.2-44.9,24.1q-.6,1.5-1.1,3v.2l-.4,1.4-.4,1.7c-2.5-16.6,3.7-33.6,19.4-42.5a24.5,24.5,0,0,0-2.8,9.7c4.2-10.1,11.5-12.5,24.5-16.4,1.3-.4,8.8-1.6,8.4-2.7-3-.6-11.2-5.9-11.2-11.1,18.7,9.3,48.4-17.4,72.1-24.1.1,0-5-1-7-3.9-3.3-4.7-3.5-6.6-4.2-11.7,28.1,24.9,55.1-13.7,72.3,6.6-1.4-3.4-4.8-6.4-10.4-8.8,10.1.4,17.5,6.9,16.8,18.4,1.8-1.8,1.8-7.7,1-11.9,9.4,6.6,12.7,14.3,11.4,22.9l3.3-9.6c10.5,11.1,9.3,30.1-9.5,27.3l5.6-16.2v.3l-.6,1h0c-1.7,2.3-4.4,3.9-7.5,5.1l-5.2-7.5c-.7-1.3-2.6-4.5-3.4-5.9s-3.8-6-6-7.1c-14.1-7.3-21-3.4-25.2,0-7.3,5.8-16.3,8.2-24.3,6.6,6.7,2.5,13.9,1.8,21.8-2.5-15.5,21-47.7,4.7-64.2,27.7,12.6-11.9,25.7-10.8,38.7-10.1-3.6,6.2-16.1-.2-31.1,13.8,5.1-3.1,9.7-5.3,13.2-5.2C18.9-314.8,12.3-305.9,6-301.3Zm22,44.1c1.4.1,4.2,4.6,1.8,4.5-14-1.1-22.5,20.4-19,52.6C1.4-238.3,16.1-257.9,28-257.2ZM7.9-243.5a62.3,62.3,0,0,0-3.2,15.7c-8.4,2.6-16.8,8-25,18.6a9.5,9.5,0,0,1-2.3-1.3C-15.4-221-7-228.2,2.9-231.5c-8.2.8-17.5,5.4-29.6,19.1a19.2,19.2,0,0,1-4.5-4.4C-19.1-234.3-5.9-241.8,7.9-243.5Zm-40.7,29.3c2.7,7.9,17.1,2.2,24.5,20.8C-5-185-4.2-172.7,3.8-167.8l-.6,1.1c-9.2-3.8-9.1-12.5-16-17-8.9-5.8-22.2-5.5-30.5,2.3C-42-195.3-38.5-206.2-32.8-214.1Zm4.7,30.7c4.1.1,7.3.6,9,2.1l1.9,4.6c-4.1,14.5-11.2,29.7-22.2,45.6l-5.5-2.5c-3.4-2-8.2-3-14.1-3.3C-48.7-151.5-38.4-167.3-28.1-183.4ZM-71-109.5C-72.3-96.4-67.7-90-59.7-87.6a27.5,27.5,0,0,0-.7,4.4c-23.5-8.8-15.7-47.5-3.4-49.9S-36-127-28.2-115.9a9.6,9.6,0,0,0-3.8.4c-3.7-6-20.7-15-26.6-13.1,5.4.8,4.4,9.2,2.3,13.1C-59.9-108.8-65.8-104-71-109.5ZM-274.8,268c-20.6-19.8-26.7-73.4-3.8-110V147.3c.5-2.6,1.5-10.1,2.5-13.7,2.1-8,7.5-20.4,10.8-28,19.1-44.4,78.4-76.5,126-99.9C-109.5-9-71.3-43.7-49.9-68.4l22.8,23.8a23,23,0,0,0,1.6,6.2h0a16.1,16.1,0,0,0,2,3.5h.1l.7.9h.1l1.7,1.6.2.2.7.5.3.2,1,.6C-22.4-20.7-29.2-11.3-36.8-2.2a96.3,96.3,0,0,1-9.8,5.3C-49.1-1.4-57.3-.4-57.3,7.6c0,2.3.9,7,5,8.8C-95.7,72.8-283.4,120.9-274.8,268Zm145.6-27c-34.6,19.3-45.9-1-49.6-42.5-2-21.9-15.5-42.3-14.2-43.2C-144,122.6-56.4,48.5-14.1,1.5-11.6-1.3-6.6-.1-2.5-.2-5.1,5-7.9,9.7-12,12.5l1.3,1.9.7,24.9C-37,106.8-101.4,225.5-129.3,241ZM-8.4,229.5c-1,.3-10.4.6-16.8-5.1-14-12.3-20.8-15.8-29.3-18-18.5-4.7-25.9,2.2-25.7,1.7,15.8-42,64.8-127.7,70.8-140C-9,67.4-7.4,229.3-8.4,229.5ZM-7.2,291c-.7,4.5-8.1,7.4-11.2,9.4s-7.9-3.9-9.8-3.4c-6.1,3.7-12.2,7.5-18.8,8,4.6-5.9,13.2-11.9,21.5-15s13.9-4,19.5-7C-6.3,286.1-6.9,289-7.2,291Zm5-7.1-4-268.7A52.4,52.4,0,0,1,8.1,35.6c.5,103.6-.6,211.7,1.6,310.7C5.5,336.1-2.2,308.8-2.2,284ZM10.2,29.6c-3.1-5.3-6.5-10.7-14.6-16C-.5,9.7,2.3,5.5,3.4.7c4,.7,6.5,1.5,7,2.5Q10.3,16.4,10.2,29.6ZM22.5,284c0,24.8-7.7,52.2-11.8,62.4,2.2-99,1-207.1,1.6-310.7A52.4,52.4,0,0,1,26.6,15.3ZM-46.2,8.3c-.3,5.9-6.7,6.7-7.9.9s4.4-7.7,7.7-3.6C-34.6,1.3-7.7-14.1,2.4-21.5l5,1.5C.3-14.1-10.5-8.1-23.2-2.2Q5.8-10,41.4-3.6c-9.8-4.8-19.7-9.7-25.1-14.3l7.4.2A344.2,344.2,0,0,0,67.2,5.6C70.7.8,76.5,2.7,74.6,9c-2.7,9.1-8,2.5-7.6-.8C36.3-8.5-19.2-6.3-46.2,8.3ZM90.2,229.4c-2.6-12.3-11-16.2-27.9-10.1.1-34.7-1.1-65-5.9-80.1L55.1,45.7C81.5,54.5,90.8,193.3,90.2,229.4ZM93,235c1.9-56.3-3.7-99.4-10-139.6,4.9,13.3,10.6,26.7,16.5,39,8.9,89.2,27.1,85.9,35.6,118.2C121.3,249.8,96.7,252.5,93,235Zm57.4,51.6-.8-5.3c7.8-13.6,23.9-12.4,34.4-.5l2.4,7.5C179.2,273.9,157.6,270.7,150.3,286.6Zm19.6,9.2c-1.4,4.3-5.1,9.1-4.9,14.3l-2.5,4.6a26.1,26.1,0,0,0-13.1,7.7c-.7-7.6.6-20.6.9-30.9,4.8-8.5,10-11.6,15.6-11.4C167.2,285.3,170,286.1,169.9,295.8Zm-7.4-28.4q-3.8-16-6.6-31.3l2.3-2.6c1.1,12.2,4.1,26.4,8.2,34.1A10.7,10.7,0,0,0,162.6,267.4Zm-8-36.8-5-19.2,3.2-4.5,4.1,17.2A29.4,29.4,0,0,0,169,207.3l.6,3.3C167.7,217.6,163.6,224.3,154.6,230.6Zm-3.8,1.2c-10.2-4.5-18.8-9-24.2-13.5A107.5,107.5,0,0,1,115,194.5c3.3,3.3,12.5,8.5,30.7,16.7A115.8,115.8,0,0,1,150.8,231.8Zm-2.3-26.6c-2.4-8.6-4.5-16.9-6.9-25.5l3.8,3c2.4,5.8,4.6,11.5,5.5,16.3a26.8,26.8,0,0,0,8.4-7l1.6.8A39.8,39.8,0,0,1,148.5,205.2Zm-3.8,0c-13-4.8-25.2-9.9-31.8-16.7a134.6,134.6,0,0,1-5.6-30c5.6,9.6,15.5,15.3,28.8,18Zm-39.9-67.6a287.2,287.2,0,0,0,27.3,34.1C117.7,168.1,108.4,161.5,104.8,137.6Zm24.8,87.9a230.3,230.3,0,0,0,22.4,12.4l7,30.5c-7,3.4-9.1,6.5-10.3,9.4A477.4,477.4,0,0,0,129.6,225.5Zm63.2,102.4a34,34,0,0,0-23.6-6.5c6.8,4.3,8.4,10.6,8.2,16.6s-9.6,10.3-2.3,21.8a11.2,11.2,0,0,1-4.8-1.7l-7.3-2.6c-8.1-3.5-14.9-9.9-15-14.7-.9-19.8,22.4-25.6,34.8-21.3C188.5,321.3,192,324.1,192.9,327.9Zm50.5-46.3C238,260.7,205.5,251.3,193,253c-6.7-28.9-9.5-52.6-8.5-52.6,10.5,0,36.3-24.7,41.5-29.2C228.2,207,249.7,232.2,243.4,281.5Zm32-205.8c-4.1,43.6-44.8,97.2-95.4,122.3-50.6-25.2-91.3-78.7-95.4-122.3L74.9-114.8l105-29.1,105,29.1Z" transform="translate(299.9 379.9)" style="fill:#050000;fill-rule:evenodd"/><path d="M283,75l9.2-188.9-86.8-24.2a394.1,394.1,0,0,0-17.4-35.4,7.4,7.4,0,0,0,3.8-6.3c1.6-20.4-21.2-52.5-37.6-58.4-1.1-14-6.6-20.4-16-19.9,4.9,1.3,8.5,5.6,8.5,14.8l-1.2-.4-6.2-.2c-9.2,1-18.5,4.3-25.8,13a210.8,210.8,0,0,0-15.1,21.6,55.3,55.3,0,0,0-6,16.6c-.1-12.8,9.4-44.4,25-59a22.7,22.7,0,0,1,4-2.9,111.4,111.4,0,0,1-11-12c8.6-13.9,9.7-28.4,7.6-43.2,18.9.6,21.4-28.1,8.3-33.5-1.3-7.7-9.5-15.1-16.3-17.4-5.9-6.8-23.1-8.2-33.7-2.7-22.5,8.7-40,9-49.1-4.8-1.8,8.6-.4,15.5,5.9,19.8-23.2,6.3-52.1,34.9-69.6,18.9,0,5.7,3.6,11.2,10.4,16.7-6.1,0-11.7,1.4-19,4.6-28.4,14.1-32.7,52.1-17.6,63.4-3.8-10.4,1.7-26.2,16.8-32-2,3.6-3.8,7.1-2.9,10.4,8.5-12,29.7-14.9,46.1-5.5l-7.7-.5c9,7.4,26.1,3,32.2-6.4a55.2,55.2,0,0,0,7.6,22.4l-1,.2c1.3,1.3,2.6,4,.8,3.9-14-1.1-22.5,20.4-19,52.6-4.7-19.1-3.5-33.6.5-43.2l-3.8.6a61.9,61.9,0,0,0-2.9,14.9c-8.4,2.6-16.8,8-25,18.6a9.5,9.5,0,0,1-2.3-1.3c7.2-10.6,15.7-17.8,25.5-21.1-8.2.8-17.5,5.4-29.6,19.1a29.9,29.9,0,0,1-3-2.6l-1.9,3c4.4,4.9,16.6,2.1,23.2,18.7,3.3,8.3,4.2,20.6,12.1,25.5l-.6,1.1c-9.2-3.8-9.1-12.5-16-17s-20.6-5.5-29,1a38.1,38.1,0,0,0,.6,11.6,72.8,72.8,0,0,1,9-5.9l4.1-6.4c4.1.1,7.3.6,9,2.1l1.9,4.6c-4.1,14.5-11.2,29.7-22.2,45.6l-5.5-2.5c-3.3-1.9-8-3-13.6-3.3l-2.9,3.6c12.5-.4,25.9,6.9,33.2,17.4a9.6,9.6,0,0,0-3.8.4c-3.7-6-20.7-15-26.6-13.1,5.4.8,4.4,9.2,2.3,13.1-3.6,6.6-9.5,11.5-14.7,6C-72.6-96.4-68-90-60-87.6a27.5,27.5,0,0,0-.7,4.4c-8.4-3.1-12.8-10.1-14.4-17.9.9,11.9,6.8,23.1,20.4,25.4l4.9,7-2.6,3.2,2.5-2.9,22.8,23.8a23,23,0,0,0,1.6,6.2h0a16.1,16.1,0,0,0,2,3.5h.1l.7.9h.1l1.7,1.6.2.2.7.5.3.2,1,.6C-22.4-20.7-29.2-11.3-36.8-2.2a96.3,96.3,0,0,1-9.8,5.3C-49.1-1.4-57.3-.4-57.3,7.6c0,2.3.9,7,5,8.8C-95.7,72.8-283.4,120.9-274.8,268c-7-6.7-12.3-17.3-15.4-29.8,3,18.2,10.9,34.3,24.8,44.9-9.4-53.5,16.4-102.6,46-131.3,32.7-3.4,32.6,54.6,43.8,85.2,7.8,21.3,43,34.9,82.5-21,61.2-18.5,51,15.9,89.9,20.2L-6.5,15.3A52.4,52.4,0,0,1,7.8,35.6c.5,103.6-.6,211.7,1.6,310.7C5.2,336.1-2.5,308.8-2.5,284v-2.7c-19.7,4.9-37.9,10.8-44.6,23.6,4.6-5.9,13.1-11.8,21.3-14.8s13.9-4,19.5-7c-.3,3.1-.9,5.9-1.2,8-.7,4.5-8.1,7.4-11.2,9.4s-7.9-3.9-9.8-3.4c-6.1,3.7-12.1,7.5-18.7,8a23.3,23.3,0,0,0-1.3,3.1c5.3,7.1,28.1,3.9,48.2,2.4,3.1,18.6,7.2,34.9,13.7,46.1,7.3-8.6,11.4-27.8,14.8-49.1,23.2-1.4,39.7-5.3,45.3-13.1-1.6-22.4-5.1-45.2-7.7-67.8,17.5-6.7,22.3-.8,23.4,7.3,2,14.3,20.5,24.4,40.8,23.8,15.5-.4,14.5,15.4,18.7,30.3.5,18-1.5,36-2.8,53.9-.8,10.9,20.6,30.4,39.9,30.2,7.7-2.2,21.1-13.7,24.3-24.8,4.9-17-9.7-30.6-14.3-49.4-1.4-9.6-10.1-27.9-11.3-41.8,31.6-1.3,52.8,9.9,59.5,37.9,15.6-51.8-12-88.2-10.3-122.4C267.9,134.1,281.1,102.8,283,75ZM196.2-143.1c-4.3-1.5-9.6-3-17.1-4.9a117.9,117.9,0,0,0-13,3.5c-1.9-6.5-5.6-14.6-10.8-23.9h2.2a105.4,105.4,0,0,0,12.1-.6,33.8,33.8,0,0,0,11.2-4.5C186.3-163.4,191.6-153.4,196.2-143.1ZM171-219.1c7.5,10.3,13.2,21.5,13.1,35.9a3.8,3.8,0,0,1-1.9,3.1l-1.6.7-.8.6c-2.7-11.4-7.9-23.5-16.7-36.3a13.3,13.3,0,0,0-4.9,2.1,109,109,0,0,1,17.4,36.5,6.2,6.2,0,0,1-2.2,1,117.4,117.4,0,0,0-17.1-36.6,5.5,5.5,0,0,0-2.3,2.6c6.2,11.1,11.8,22.5,15.1,34.8a7.5,7.5,0,0,1-2.3-.1l-3-.3,1.6.3-2.3-.4-5-.6-1.3-.2c-2.3-8-7.1-14.9-15.7-20.1a30.7,30.7,0,0,0-3.8,6.6c6.8,2.4,11.6,6.5,13.7,13-11.1,1-15.8,7.4-24.6,11.6s-16.5,5.3-24.8-.5c20.3,3.4,30.6-23,41.5-38.4C148.3-211.2,156.7-220.4,171-219.1Zm-18.8,78.7-5.2,1.6c-2.7-6.2-5.9-12.2-9.1-18.3a12.3,12.3,0,0,1,3.3-4.8A198.5,198.5,0,0,0,152.2-140.4Zm-50.3-68.3c6.2-12.4,20.6-33.1,41.7-31.8,7.7.5,18.5,9.6,24.5,17.8a22.5,22.5,0,0,0-9.8,1.6,71.2,71.2,0,0,0-8.1,4.6c-5.3,3.6-8.5,8.5-11.6,13.2-13.5-6.2-18.6-14.9-14.3-28.2-6.4,6-11.7,11.5-14.3,17.6s9.7,21.6,21.2,22.1a45.5,45.5,0,0,1-6.4,11.2c-7.5-.7-14.4-4.4-16.8-12.6-1-3.6-1.6-14.7-1.6-14.7-3.5,5.3-9.8,21.4-8.6,25.5s5,7.8,9.4,12.1l-1.1,2.4c-4.4.4-7.2,0-8-.9C90.7-177.9,93.9-192.5,101.9-208.6Zm13.9-46.7-1.2.9c-4.8-1.9-9-6.1-13.2-10.8l3.4-3.6A83.5,83.5,0,0,0,115.8-255.4ZM85.2-330.7c6.5,5.2,9.2,10.6,10.4,15.9l-12,9a73.6,73.6,0,0,0-24.2-18.4c-4.9.5-10.9,2.4-17.8,5.1,6.6-13.1,29.7-18.5,41.1-15.2,23.3,6.7,31.2,24.2,25.2,48.9l-1.6-4.6.3-6c-4.4,2-7.1-2.4-8-6.4s.5-11.1,5-9.7C100-321.4,94.2-328.2,85.2-330.7ZM71.3-288.4l-2.2.5.5-3.5c-12,4.5-14.3,2-13.1,6.8-7.8,1.7-15.2,3-21.5,3.3-4.2-6.5-6-11.8-5.6-15.8,2.8,4.1,5.7,7.1,8.8,8.1a12,12,0,0,0,.5-5.9l-7.7-5.6a109.1,109.1,0,0,1,6.2-13.4l15.6-5.7a79.4,79.4,0,0,0-9.2,19.9A88.6,88.6,0,0,1,59-320.7c15.8,8.7,24.2,17.8,29.5,27l-3,.2c-1.3-3.2-3.7-6.2-7.9-9.2C78.9-297.9,71.4-294.9,71.3-288.4Zm15.5-48,1.3-7.9a27.1,27.1,0,0,1,8.4,1.6l-1.8,9.4A29.4,29.4,0,0,0,86.8-336.4Zm10.6,5.1a65.1,65.1,0,0,1,1.7-9.5c3.8,3.4,7.6,11.7,11.2,24.9C108.1-321.6,104.1-326.8,97.5-331.3Zm25.7-13c10.5,11.1,9.3,30.1-9.5,27.3l-1-3.9-.8-2.9C119-325.5,125-335.3,123.1-344.3ZM6-301.3c3-.8,7.3-3.3,12-6.3C8.3-294.2-.8-290.1-9.8-289.6l-13.6.2c-21.3,1.4-38.4,9.2-44.9,24.1q-.6,1.5-1.1,3v.2l-.4,1.4-.4,1.7c-2.5-16.6,3.7-33.6,19.4-42.5a24.5,24.5,0,0,0-2.8,9.7c4.2-10.1,11.5-12.5,24.5-16.4,1.3-.4,8.8-1.6,8.4-2.7-3-.6-11.2-5.9-11.2-11.1,18.7,9.3,48.4-17.4,72.1-24.1.1,0-5-1-7-3.9-3.3-4.7-3.5-6.6-4.2-11.7,28.1,24.9,55.1-13.7,72.3,6.6-1.4-3.4-4.8-6.4-10.4-8.8,10.1.4,17.5,6.9,16.8,18.4,1.8-1.8,1.8-7.7,1-11.9,9.6,6.7,12.9,14.6,11.3,23.6l-.5,1.1-.6,1h0c-1.7,2.3-4.4,3.9-7.5,5.1l-5.2-7.5c-.7-1.3-2.6-4.5-3.4-5.9s-3.8-6-6-7.1c-14.1-7.3-21-3.4-25.2,0-7.3,5.8-16.3,8.2-24.3,6.6,6.7,2.5,13.9,1.8,21.8-2.5-15.5,21-47.7,4.7-64.2,27.7,12.6-11.9,25.7-10.8,38.7-10.1-3.6,6.2-16.1-.2-31.1,13.8,5.1-3.1,9.7-5.3,13.2-5.2C18.9-314.8,12.3-305.9,6-301.3Zm20.2,5.4c.3,6.7,1.9,12.1,6,16a22.2,22.2,0,0,1-2,6.9l5.3-5.9c9.9.6,28.5-3.6,48.1-10.3-8.1,9.1-39.2,18.9-55.6,20.1C19.4-275.3,22.3-289.2,26.2-295.9Zm2.8,30c20.6-2.2,49.2-11.5,60.5-25.5-.1,6.5.8,10,2.2,11.9,2.7-15,10.5-12.9,12-8.3,4.9,15-8,27.9-12.2,13.9-1.3,1.4-1.9,3.5-1.7,6.6a15.3,15.3,0,0,0-2,3.3c-1,3.3-5,7.3-6.5,9.8-4.5,7.6-22.6,16.8-31.2,17.3C43.2-242.6,36.1-253.8,29-265.9Zm7.3,19.7c4,4.8,8,9.6,12.7,11.9,9.3,1,32.2-8.8,39.3-23.8l2.1,12c-8,9.1-29.6,19.8-41.7,20.7a39.1,39.1,0,0,0-.6-7.4c-1,2.3-1.8,4.6-2.5,6.9a59.3,59.3,0,0,1-11.3-10.5c1.8,6,5.5,8.9,11.7,14.2,15.8-1.9,30.3-8.3,45.5-19.9l1.8,7.7c-9.4,9-34.8,21-47.1,21.5.1-2.2-.6-5-.8-7.2-.8,2.1-1.7,4.4-2.3,6.3-5-4.4-9.7-9.7-12.4-14.7,2.2,7.3,8.4,16,13,18.2C53-209,84-221,94.1-230.9l1.6,8.4c-11.3,10.9-36,20.3-51.9,19.7-.2-1.4,0-4.4-.2-5.7-.6,1.1-1.7,3.7-2.3,4.8-6.6-4.7-11-13.8-15.4-22.1A114.4,114.4,0,0,1,36.3-246.2ZM14.7-184.6c2.5-12,5.1-24,9.6-36.5,5.3,9.1,10.7,17.5,16.5,21.7,13-.6,25.9-4,38.9-9.1-.8,31-2.9,50.1-6.6,55.2,7.7-7.9,11.6-29.1,13.7-56.8l1.4-.6c-.2,25.3-3.1,46.4-11,59.6-15.7,4.6-31.2,7.9-45.2,4.9a419.3,419.3,0,0,1,7-49.3c-4.3,11-8.1,24.8-10.4,49l-12.5-6.1c-4.8-2.7-9.5-5.6-10.1-10.7C16.5-166.6,13.8-176.2,14.7-184.6ZM43.5-79.7a64,64,0,0,1-.7-9.7c-1.3,2.4-2.1,6.2-2.9,9.8-6.8-3.6-13.7-7.8-20.5-12.2l4.2-9.2c6.1,3.9,12.2,7.9,19,9.3l29.6-6.4.3,11.6ZM72-81.6l-.5,7.8c-6.7,2.6-14.2,5.2-22.9,7.9l3-10.6Zm-40.6,22c-.7,5.2,2.7,9.6-2,15.7s-8.1,15.4-17,21.4C3.7-24.3-3.8-26.6-6-28.4-9.4-36.6-7.7-58-.8-65.8,5.2-69.8,29.4-64.5,31.4-59.5ZM3.9-98.1a5.4,5.4,0,0,1,5.4-5.4,5.4,5.4,0,0,1,5.4,5.4,5.4,5.4,0,0,1-5.4,5.4A5.4,5.4,0,0,1,3.9-98.1ZM22.2-77.4a31.4,31.4,0,0,1,2.6-6A178.9,178.9,0,0,0,42.5-73.1l5.3-1.5a74.6,74.6,0,0,1-3.4,8.9A172,172,0,0,1,22.2-77.4ZM36.6-98.3l-11.1-5.3A438.6,438.6,0,0,1,8.7-153.1a98.1,98.1,0,0,0,16.5,9.6C28.8-127.6,32.3-111.5,36.6-98.3Zm-10.4-45,3.3,1.1c3.1,19.9,6.8,35,11.1,45.6l-2-1.1C35-106.4,30.8-123.3,26.2-143.3ZM-5.4-192.4a36.3,36.3,0,0,0-1.6-4.3,48.6,48.6,0,0,1,13-4,29.9,29.9,0,0,1,1.6,6.3C3.3-194.4-1.2-194.2-5.4-192.4Zm1.7,53.4c2.7-6.2,5.1-12.2,7.2-18l11.3,38.6,6.2,15.8-2,2.6c-.9-6.5-8-9.1-12.5-7.7-9.4,3-8.8,15.4-2.3,18.7v12.8L-3-72.5a19.4,19.4,0,0,0-5.6-5.2,287.3,287.3,0,0,1-11-29.3l1.2-2.1a34.7,34.7,0,0,0-3.6-5.8ZM-27.3-50.6C-38.1-61-48.1-71.4-56.9-81.9c-.5-2.9.2-6,1.9-9.4A253.7,253.7,0,0,0-27-54.3Zm-2.2-22A127.7,127.7,0,0,1-48.7-102c2.9-5.3,13.5-11.1,22.4-10l14.3,35.3A12.6,12.6,0,0,0-19-71.8Zm7.8,33.2c-5.2-9.3.8-31.7,11.2-34.2,0,0,6.5,3,7.3,5-8,9.2-9.9,24-8.6,32.4a8.5,8.5,0,0,0,1.1,4.5C-16.2-34.2-19.9-36.4-21.7-39.4ZM-8.4,229.5c-1,.3-10.4.6-16.8-5.1-14-12.3-20.8-15.8-29.3-18-18.5-4.7-25.9,2.2-25.7,1.7,15.8-42,64.8-127.7,70.8-140C-9,67.4-7.4,229.3-8.4,229.5ZM-12,12.5l1.3,1.9.7,24.9C-37,106.8-101.4,225.5-129.3,241c-34.6,19.3-45.9-1-49.6-42.5-2-21.9-15.5-42.3-14.2-43.2C-144,122.6-56.4,48.5-14.1,1.5-11.6-1.3-6.6-.1-2.5-.2-5.1,5-7.9,9.7-12,12.5ZM9.9,29.6c-3.1-5.3-6.5-10.7-14.6-16C-.9,9.7,1.9,5.5,3.1.7c4,.7,6.5,1.5,7,2.5Q10,16.4,9.9,29.6ZM22.2,284c0,24.8-7.7,52.2-11.8,62.4,2.2-99,1-207.1,1.6-310.7A52.4,52.4,0,0,1,26.2,15.3ZM-46.5,8.3c-.3,5.9-6.7,6.7-7.9.9s4.4-7.7,7.7-3.6C-35,1.3-8-14.1,2-21.5l5,1.5C0-14.1-10.8-8.1-23.5-2.2Q5.5-10,41.1-3.6C31.3-8.4,21.4-13.2,16-17.8l7.4.2A344.2,344.2,0,0,0,66.9,5.6C70.4.8,76.1,2.7,74.3,9c-2.7,9.1-8,2.5-7.6-.8C36-8.5-19.6-6.3-46.5,8.3ZM90.2,229.4c-2.6-12.3-11-16.2-27.9-10.1.1-34.7-1.1-65-5.9-80.1L55.1,45.7C81.5,54.5,90.8,193.3,90.2,229.4ZM93,235c1.9-56.3-3.7-99.4-10-139.6,4.9,13.3,10.6,26.7,16.5,39,8.9,89.2,27.1,85.9,35.6,118.2C121.3,249.8,96.7,252.5,93,235Zm61.3-4.4-5-19.2,3.2-4.5,4.1,17.2a29.4,29.4,0,0,0,12.1-16.8l.6,3.3C167.4,217.6,163.2,224.3,154.3,230.6Zm11.9,37a10.7,10.7,0,0,0-3.9-.2q-3.8-16-6.6-31.3l2.3-2.6C159,245.7,162,259.9,166.2,267.5Zm-15.7-35.8c-10.2-4.5-18.8-9-24.2-13.5a107.5,107.5,0,0,1-11.6-23.9c3.3,3.3,12.5,8.5,30.7,16.7A115.8,115.8,0,0,1,150.5,231.8Zm-2.3-26.6c-2.4-8.6-4.5-16.9-6.9-25.5l3.8,3c2.4,5.8,4.6,11.5,5.5,16.3a26.8,26.8,0,0,0,8.4-7l1.6.8A39.8,39.8,0,0,1,148.2,205.2Zm-3.8,0c-13-4.8-25.2-9.9-31.8-16.7a134.6,134.6,0,0,1-5.6-30c5.6,9.6,15.5,15.3,28.8,18Zm-39.9-67.6a287.2,287.2,0,0,0,27.3,34.1C117.3,168.1,108.1,161.5,104.5,137.6Zm44,140.2a477.4,477.4,0,0,0-19.2-52.3,230.4,230.4,0,0,0,22.4,12.4l7,30.5C151.7,271.8,149.6,274.8,148.5,277.8Zm44,50.1a34,34,0,0,0-23.6-6.5c6.8,4.3,8.4,10.6,8.2,16.6s-9.6,10.3-2.3,21.8a11.2,11.2,0,0,1-4.8-1.7l-7.3-2.6c-8.1-3.5-14.9-9.9-15-14.7-.9-19.8,22.4-25.6,34.8-21.3C188.2,321.3,191.7,324.1,192.5,327.9Zm-42.6-36.4c4.8-8.5,10-11.6,15.6-11.4,1.4,5.2,4.2,6,4.1,15.7-1.4,4.3-5.1,9.1-4.9,14.3l-2.5,4.6a26.1,26.1,0,0,0-13.1,7.7C148.4,314.8,149.7,301.7,149.9,291.4Zm36-3.1c-7.1-14.5-28.7-17.7-36-1.7l-.8-5.3c7.8-13.6,23.9-12.4,34.4-.5Zm57.4-6.8C238,260.7,205.5,251.3,193,253c-6.7-28.9-9.5-52.6-8.5-52.6,10.5,0,36.3-24.7,41.5-29.2C228.2,207,249.7,232.2,243.4,281.5Zm-63.8-83.5C129,172.9,88.3,119.3,84.2,75.7L74.6-114.8l105-29.1,105,29.1L275,75.7C270.9,119.3,230.2,172.9,179.6,198.1Z" transform="translate(299.9 379.9)" style="fill-rule:evenodd"/><ellipse cx="-65" cy="-119.4" rx="9.8" ry="5.9" transform="translate(370.1 245.7) rotate(-67.7)" style="fill:#050000"/><path d="M145.1-201.6c7.2,5,13.2,14.9,17.1,23.7a95.6,95.6,0,0,0-11.5-30.4A49.9,49.9,0,0,0,145.1-201.6Z" transform="translate(299.9 379.9)" style="fill:#050000;fill-rule:evenodd"/><path d="M130.5-232.4a2.6,2.6,0,0,0-2.7,2c-.7,2.3-1.2,12.6,5.3,18.7a70.1,70.1,0,0,0,7.4,5.8,53.1,53.1,0,0,1,6.5-7.6C138.1-227,130.5-232.4,130.5-232.4Z" transform="translate(299.9 379.9)" style="fill:#050000;fill-rule:evenodd"/><path d="M-19.6-75.7A10.7,10.7,0,0,1-15.2-78l-13.3-31.3a36.5,36.5,0,0,0-12.6,3.8c6.1,11.4,10.8,19.9,10.8,19.9Z" transform="translate(299.9 379.9)" style="fill:#050000;fill-rule:evenodd"/><path d="M0-63a52.8,52.8,0,0,1,12.5,0A194.5,194.5,0,0,0,9.3-36.6S4.5-45.9,1.8-47s-5.2-4.5-5.2-4.5A33.8,33.8,0,0,1,0-63Z" transform="translate(299.9 379.9)" style="fill:#050000;fill-rule:evenodd"/><path d="M191.9-144.5l-12.3-23.4-7.2,2,.7,4.5-.7,3.2,3.6,11,3-.7C184.3-146.7,188.4-145.5,191.9-144.5Z" transform="translate(299.9 379.9)" style="fill:#050000;fill-rule:evenodd"/><ellipse cx="104.8" cy="-303.9" rx="3.1" ry="6.4" transform="translate(339.9 390.8) rotate(-7.4)" style="fill:#050000"/><path d="M110.8,168.6s6.8,7,12.5,9.5c1.7,12.2,2.4,15,2.4,15s-8.7-3.5-10.9-5.8C110.8,172.6,110.8,168.6,110.8,168.6Z" transform="translate(299.9 379.9)" style="fill:#050000;fill-rule:evenodd"/><path d="M120.8,200.8a94,94,0,0,0,8.5,6c4,10.6,5.8,14.4,5.8,14.4l-7.1-3.7A131.5,131.5,0,0,1,120.8,200.8Z" transform="translate(299.9 379.9)" style="fill:#050000;fill-rule:evenodd"/><path d="M135.1,232.8l7.5,3.5,10,31.2-3.4,4S140.4,242.6,135.1,232.8Z" transform="translate(299.9 379.9)" style="fill:#050000;fill-rule:evenodd"/><path d="M158.7,285.5s4.6,6.2,2.2,12.5-.7,15-.7,15-5.9,1.3-9.2,4c.8-21,1.7-26,1.7-26A14.3,14.3,0,0,1,158.7,285.5Z" transform="translate(299.9 379.9)" style="fill:#050000;fill-rule:evenodd"/><path d="M159.2,326.3s3.5,6.3,0,12.6a9.5,9.5,0,0,0,.8,10.9s-7.2-2.1-9.1-8S154.2,327.5,159.2,326.3Z" transform="translate(299.9 379.9)" style="fill:#050000;fill-rule:evenodd"/><path d="M106.5-336.5l.7,1.5" transform="translate(299.9 379.9)" style="fill:#b71f36;fill-rule:evenodd"/><path d="M46.3-289c-.3-2.2,1.2-4.3,2.6-6.5a42.3,42.3,0,0,0,9.3-.5,67.5,67.5,0,0,0,7.1-9.4c2.7-4,.7-7.3-4.9-12.5,7.6,4,12.3,7.9,14.7,11.2s.7,6.6-2.9,10.1l1.3.6c-4.3,3.7-19.4,7.3-27.2,7" transform="translate(299.9 379.9)" style="fill-rule:evenodd"/><path d="M95.8-271.7c-2.6-4.1.2-14.9,1.3-16.3-.3,2.6-.7,7.8.6,7.8a12.1,12.1,0,0,1,1.4-6c-.3,3.4-.2,5.7.4,6.9s1.6.6,3.2.3C102.4-271.1,97.6-268.8,95.8-271.7Z" transform="translate(299.9 379.9)" style="fill-rule:evenodd"/><path d="M-26-206c-1.8-.2-3.3-.5-3.8-1.2a39.6,39.6,0,0,0-7.8,19,24,24,0,0,1,5.1-2.8A41.9,41.9,0,0,1-26-206" transform="translate(299.9 379.9)" style="fill-rule:evenodd"/><path d="M-23.5-205.3c-3.5,4.6-6.3,9.2-6.9,13.8,6.6-1.1,10.7-.5,13.4,1.1l4.6-3.3a19.6,19.6,0,0,0-11.1-11.6" transform="translate(299.9 379.9)" style="fill-rule:evenodd"/><path d="M141.8-176.6c-2.6-1.7-6.6-2.5-11-3.1-3.2,4.2-5.7,8.9-11.4,12.5,10-.2,14.7-7,22.4-9.4" transform="translate(299.9 379.9)" style="fill-rule:evenodd"/><path d="M7.6-141.5,3.6-157.1" transform="translate(299.9 379.9)" style="fill:#b71f36;fill-rule:evenodd"/><path d="M9.7-133.8l-.8-3.5" transform="translate(299.9 379.9)" style="fill:#b71f36;fill-rule:evenodd"/><path d="M11.3-129.5l-1-2.6" transform="translate(299.9 379.9)" style="fill:#b71f36;fill-rule:evenodd"/><path d="M12.6-124.7l-.8-2.7" transform="translate(299.9 379.9)" style="fill:#b71f36;fill-rule:evenodd"/><path d="M-269.2,120.3" transform="translate(299.9 379.9)" style="fill:#b71f36;fill-rule:evenodd"/><path d="M-205,71.1" transform="translate(299.9 379.9)" style="fill-rule:evenodd"/><path d="M-163.4,45.3" transform="translate(299.9 379.9)" style="fill-rule:evenodd"/><path d="M179.6-135.7l-98,26.6L90.7,69.3c4.4,45.7,45,97.2,88.9,117.2,43.9-20,84.5-71.5,88.9-117.2l9.1-178.5ZM265.1,69.1c-4,45.8-43,92.7-85.5,113.2C137.1,161.7,98,114.8,94.1,69.1L85.4-106.3l94.2-26.2,94.2,26.2Z" transform="translate(299.9 379.9)" style="fill-rule:evenodd"/><path d="M-25.3,5l2.2-.6" transform="translate(299.9 379.9)" style="fill:#b71f36;fill-rule:evenodd"/><circle cx="344.8" cy="121.5" r="2.6"/><circle cx="355.2" cy="130.6" r="2.4"/><circle cx="355.2" cy="117.4" r="2.4"/><circle cx="364.8" cy="125.3" r="2.4"/><circle cx="365.9" cy="113.3" r="2.4"/><circle cx="374.1" cy="119.8" r="2.4"/><circle cx="376.2" cy="108.4" r="2.4"/><path d="M-25.7-319.1" transform="translate(299.9 379.9)" style="fill:#b71f36;fill-rule:evenodd"/></svg>