<svg id="Layer_1" data-name="Layer 1" xmlns="http://www.w3.org/2000/svg" viewBox="0 0 589 644.5"><title>Knigh390_1c</title><path d="M223-224.3,247.2-211C212.1-319.3,65.8-358.4,34.1-283.7-83-297.7-212.9-223.5-245.2-87a218.1,218.1,0,0,0-29.2,22.5C-286-31.1-291.8,2.3-294.5,35.7l45-19.5c6,38.3,22.1,75.1,47.4,110.5q-.1,27.7-.1,55.5c12.4,61.2,55,109.9,143,140C6.7,301.1,43.4,265.6,68.4,224.4,234.4,174,275.6,40.7,264-88.8a281.7,281.7,0,0,1,27.2,50.6C306.2-111.4,267.2-180.1,223-224.3ZM31.9-271.1c.6,11,3.1,20.2,8.2,27.1a72.7,72.7,0,0,0-9.6-.4c-8.7-9.2-18.1-18.3-27.9-27.5A109.2,109.2,0,0,1,31.9-271.1Zm53.6,82.3a18,18,0,0,0-7.4,1.3C73-203.7,61.6-222.8,38.6-229c9.5,5.4,10.2,33,5.7,42.2C15-198,13-208.2,0-217.4a133.7,133.7,0,0,0-25.8,12C-19.3-220,.4-234.3,30-236,60.8-230.8,78.4-212.5,85.6-188.8ZM53.2-239a34.4,34.4,0,0,1,8.7-9.2c9.2-2.3,21.4,4.3,23.6,13.4a44.4,44.4,0,0,1-7.8,13.3C73.1-227.8,62.6-236.6,53.2-239ZM84.7-133.7c-5,2.2-11.7.5-15.4-5.6-3,6.9-4.4,15.6-3.7,26.9-6,4.2-11.6,10.2-16.5,18.8a104.9,104.9,0,0,0-11.7-15.3l-7,4.2a156,156,0,0,1,12,21.5l-3.1,4.9a110.8,110.8,0,0,0-15-22.9,49.6,49.6,0,0,1-8.9,4.2Q24.8-83.4,33-69.2l-3.6,6.1C22.6-73.6,15.6-84.2,8-94.8a70.7,70.7,0,0,1-9.3,4l21,31.1H4.9C-2.8-70.5-11-81.3-19.5-92c18.7-7.8,36.8-15.7,53.2-23.9-15.1,4.9-31.8,9.7-49.5,14.6l1.5-11.1c17-3.6,34.2-7.9,51.6-14.9l3.2,2.4-2.6,5c7.6-5.8,23.3-28.8,14.9-27A541,541,0,0,1-16-134.5c2.2-19.4,2.5-39.3,7-57.2-6.9,18.2-11.3,39.1-14,54.6l-22-14.2,7.5-32.2c10.2-9,21.4-15,32.7-20.6,10.5,15.4,24.5,21.5,67.4,36.1a43.3,43.3,0,0,0,3.1,18.8c-.8-21,10.5-36.4,23.5-31.7C98.1-176.9,99.7-140.2,84.7-133.7Zm19.5-30a72.2,72.2,0,0,1,14.2,13.9c-7.4,10-15,19.8-23.9,24.2C101.2-137.9,103.8-150.7,104.2-163.7ZM-44.6-133c-2.1,8.5-6.3,21.1-6.3,25.6,3,9.5,22.8,31.7,37,47.8h-135L-47.6-181.1c-2.7,9.9-7.8,25.8-8.1,29.7C-53.4-146.3-48.3-138.3-44.6-133Zm2.7-112.8c-7.3,1.4-15.1,2-22.3,4.1,3.5-11,6.5-8.5,31.5-9.4A54.7,54.7,0,0,0-41.9-245.9Zm48-8.2c5.1,1.3,9.6,5.1,13.8,9.9-12.8,1.6-24.5,7.4-35.6,15.5a87.8,87.8,0,0,0-18.8-16.3C-20.5-250.6-6.6-255,6.1-254Zm-46.4,23.8,13.6,11.5c-.9.9-9.2,13.7-10.1,14.6a130.8,130.8,0,0,0-24.1-15c-14.1-.8-30.2-.1-46.1.6l15.3-8.5A318.9,318.9,0,0,1-40.2-230.2ZM7.2-259.3l-4.7.2c-2.2-2.3-4.7-4.6-7.2-6.9C1.7-267.1,1.5-264.7,7.2-259.3ZM-3.7-272.4l-4.8,2.7-3.1-2.1Zm-.6,14.2-7.6.8a74,74,0,0,0-10.8-5.5C-13.5-270-13.2-265-4.3-258.2Zm-19.5-12.1a18.9,18.9,0,0,0-4.6,4.3,13.9,13.9,0,0,0-5.1-3.2A59.6,59.6,0,0,1-23.8-270.3Zm3.8,14.6c-7.9-.4-15.7-1.2-23.7-1.3C-33.2-263.9-29.9-259.7-20-255.7ZM-40.2-268a20.7,20.7,0,0,0-11.6,10.7,50.6,50.6,0,0,0-15.6,2.5c-4.5,3.7-6.6,10.4-7.4,18.6-6.6,1-13.1,1.8-20,3.9-7.7,4.4-15.1,8.9-21.3,13.3,0,3.6,0,7.2,1.1,10.8l16.3,5L-228.3-100.3C-205.9-177.6-137.3-249.9-40.2-268ZM-202.4,104.3a218.7,218.7,0,0,1-35-94.2A199,199,0,0,0-202.1-8C-202,29.5-202.5,66.9-202.4,104.3Zm.2-132.2c-24.5,15.1-50,28.5-75.6,41.7a539.1,539.1,0,0,1,14.9-75.1c60.9-45.8,121.8-94.4,182.7-143.2l14.6-1.3c-47.4,36.3-94,79.1-140.7,120.7-14.1,2.6-39.5,13.9-50.7,21.1h0c18.8-6.3,36.6-13.5,52.3-14C-198.9-62-200-45-202.2-27.9Zm5.6-53.8c49.5-49.8,97.8-94.9,142.1-123.1a47.9,47.9,0,0,1,11.7,8.5q-62,65-123.9,136.7h-24.7C-192.8-67-194.5-74.3-196.6-81.7ZM67.9,189.1c-21,50.5-56.4,93.6-126.4,118.8-76.4-26.1-112.5-69.3-129.6-120.7q-.2-116.4-.4-232.8H67.9ZM56.6-89.3c14-27.6,64.7-31,89.8-14.7s32.8,61,10.1,93C172.8-83.9,88.2-109.2,56.6-89.3Zm68.9,87c-14.9,13.1-29,28.5-43.1,43.9V-54C107.2-44.8,120-26.3,125.5-2.3ZM81.1,198.2A74.5,74.5,0,0,0,85.6,153s70.5-42.9,96.2-161C181.8-8,178.1,130.5,81.1,198.2ZM245.7,15.4c-4.8-62.2-17.1-119.6-73.3-148.3,49.8,30.4,54.3,149.6,25,262.2-22.9,26.9-48.8,50.8-83.5,65.7C163.6,138,191.8,69.9,196.1,10.3c5-69.4-16.5-125.8-60.9-132,18.8-12.7,30.1-27.2,28.9-44.8-8.3,20.2-35,36.6-52.5,40.1,15.8-13.1,29.9-37.6,33-59.7,38.9,14.4,65.5,34.3,85.9,56.9a171.4,171.4,0,0,1,9.4,25,271.8,271.8,0,0,0-26.1-15.2C255.9-89.6,257.6-38.9,245.7,15.4ZM204.9-168.4c-22.9-52.3-67.3-87.2-101.5-90.4,12.6-5.3,28.8-7.8,50.3-6.4-35.9-33.4-99.7-28.1-107.2,7.9-12-32.3,26.6-61.1,75.6-51.4,38.2,7.6,73.7,33.2,95.1,65.1-20-6-35.5-12.1-49-7.6C217.7-223.1,271.7-154.3,283-82.5,260.8-117.4,235.3-146.8,204.9-168.4Z" transform="translate(294.5 322.2)" style="fill:#050000;fill-rule:evenodd"/><path d="M71.1-158.1c3.7,12.7,19.1,9.3,19.9-8.5,4.2,7.8,3,24-5.3,28.8s-18.8.6-14.6-20.3" transform="translate(294.5 322.2)" style="fill:#050000;fill-rule:evenodd"/><path d="M-177.4-34.6l.2,99.7.2,120.3c18.3,53.3,56,88.6,118.4,110.8,55.8-21,92.6-55.9,115.5-109.4V-34.6ZM49.2,185.3C27.5,235.1-6.8,267.8-58.7,288c-58.1-21.2-93.3-54.3-110.7-103.9l-.4-211H49.2Z" transform="translate(294.5 322.2)" style="fill:#050000;fill-rule:evenodd"/><path d="M-3.7-190.7s8.9,18.3,60.2,27c-1.8,10.4-2.1,12.2-2.1,12.2s-29.8,9.2-62.1,11.4C-4.9-186-3.7-190.7-3.7-190.7Z" transform="translate(294.5 322.2)" style="fill:#050000;fill-rule:evenodd"/><path d="M-4.6-95s39.1-17.4,46.4-24,14.7-19.8,14.7-19.8l7.5,4.2a103.5,103.5,0,0,0-1.5,20.8A66.4,66.4,0,0,0,50.3-98.7L40-112.6S17.8-97.6-2.2-92.3Z" transform="translate(294.5 322.2)" style="fill:#050000;fill-rule:evenodd"/><path d="M-9.5-105.7V-111a285.8,285.8,0,0,0,45-13C20.6-114.7-9.5-105.7-9.5-105.7Z" transform="translate(294.5 322.2)" style="fill:#050000;fill-rule:evenodd"/><path d="M72.4-162s2.3-13.3,9.4-15.6,7.9,8.5,7.9,8.5-1.3,10.2-7.9,13.6S72.4-162,72.4-162Z" transform="translate(294.5 322.2)" style="fill:#050000;fill-rule:evenodd"/><path d="M27.9-197.8l16.4,10.9s14.6,6.7,21.4,7.2a40.8,40.8,0,0,1,12.5-7.9v-10.3L60.6-220.7l-19.3-9.5-5.9-.9-3.9,15.3Z" transform="translate(294.5 322.2)" style="fill:#050000;fill-rule:evenodd"/><path d="M76.2-100.3s28.7-18.1,67.7,0c27.5,15,19.8,61.7,19.8,61.7S157.7-103.5,76.2-100.3Z" transform="translate(294.5 322.2)" style="fill:#050000;fill-rule:evenodd"/><path d="M82.4,23.3,115.1-11c-7.4-22.3-21.7-31.9-21.7-31.9L82.4-31.1Z" transform="translate(294.5 322.2)" style="fill:#050000;fill-rule:evenodd"/><path d="M-42.7-228.6l-16.7,8s-9.7-2-41.1,0l9.4-5.1S-57.7-229-42.7-228.6Z" transform="translate(294.5 322.2)" style="fill:#050000;fill-rule:evenodd"/></svg>