<svg id="Layer_1" data-name="Layer 1" xmlns="http://www.w3.org/2000/svg" viewBox="0 0 544.6 548.1"><title>Knight246_2c</title><path d="M-176.4,82.9l-1.2,15.9,1.1,2Z" transform="translate(272.3 274)" style="fill:#050000;fill-rule:evenodd"/><path d="M-153.9,27.9c-3.7,2.2-6.8,6.9-6.8,6.9s-3.1-4.8-6.8-6.9a10.4,10.4,0,0,0-4.6-1.4V28a17.4,17.4,0,0,1,4.4,3.5,49.8,49.8,0,0,1,5,6.2l.4,86.7,3.2,5.1.4-91.8a49.8,49.8,0,0,1,5-6.2,15.8,15.8,0,0,1,7.4-4.7A11.1,11.1,0,0,0-153.9,27.9Z" transform="translate(272.3 274)" style="fill:#050000;fill-rule:evenodd"/><path d="M-103.3,106.8c-3.1-1.5-8,1.1-10.1-3.3s.6-8.3,1.9-10.9c-3.3,1.2-5,4.8-6,8.5s-2.7,15,3.7,18.3c4.7,2.5,10.5,2.1,13.4-2.6a12.1,12.1,0,0,0,1.5-3.1C-99.8,111.3-101.3,107.8-103.3,106.8Z" transform="translate(272.3 274)" style="fill:#050000;fill-rule:evenodd"/><path d="M-145.1-51.3a6.6,6.6,0,0,0,1.5-2.5Z" transform="translate(272.3 274)" style="fill:#050000;fill-rule:evenodd"/><path d="M-122.5-123a99.6,99.6,0,0,0,0-23.5l-.6.2-2.2,36A75.3,75.3,0,0,0-122.5-123Z" transform="translate(272.3 274)" style="fill:#050000;fill-rule:evenodd"/><polygon points="447.3 198 436.8 209.5 425.8 222.5 416.3 240 414.3 266 414.3 289.5 411.8 317.5 405.3 331.5 396.8 336.5 377.8 334 352.3 328 345.3 335 340.3 347 337.3 367 334.3 385.5 327.8 396.5 317.8 397 297.8 393 285.3 394.5 269.3 411.5 255.8 434 236.8 448.5 208.3 455 186.8 457 184.4 448.1 186.8 439.5 185.6 426.6 186.8 422 186.3 414.5 180.3 396.5 176.8 388 175.8 380.5 173.8 373 176.8 325 171.8 294.5 176.3 297.5 177.8 291.5 174.3 273 170.3 259.5 164.3 249 159.8 242 175.3 230 184.1 226.5 184.4 211.5 188.3 183.5 196.3 186.5 198.2 165.9 196.8 163.5 219.8 171.5 277.3 195.5 344.3 198.5 403.8 196.5 447.3 198" style="fill:#b71f36;fill-rule:evenodd"/><path d="M-105.5-17.5c-1.6-8.1-2.8-14.9-3.6-20.2l-6.5,5-1.4,5.8,4-3A71.4,71.4,0,0,1-105.5-17.5Z" transform="translate(272.3 274)" style="fill:#050000;fill-rule:evenodd"/><path d="M251-82.4c-33.4-48.3-76.1-51.3-117.2-50.4S50.9-113.1,17.5-113.4s-50.1-5.3-50.1-5.3a87.6,87.6,0,0,1-24.9-17.5c-12.1-12.1-23.8-22.6-23.8-22.6l-6.1,1.8,1.8.9s5.6,13.5,9.6,25.1a88.5,88.5,0,0,1,4.6,20.7s-1.7-1.5-4.9-3.7A56.7,56.7,0,0,0-78-127.8c-2.2-9.3-9.6-25.1-9.6-25.1l-4.5-2.7-2.2.7c7.9,11.9,5,27.8,3.8,32.8l-3.5-1.5c-13.8-5.7-19.2-7.1-19.2-7.1s0-9-.5-17.5v-.9l-4.3,1.3c.4,6.7.6,17.5-1,27.3a112,112,0,0,1-7.2,26l-.8,13.1-8.4,14,1.8,2.2-2.4,2.1-1-1.6-6.4,10.8,5.3,7,1.6-2.4-4-5.2,20-17.3h.4l2.4-3.1,1.7-35.6s8.7,4,18.6,9.9l1.8,1.1a74.2,74.2,0,0,1,14.5-11l-2.2-1.5a31.2,31.2,0,0,0-7.1-3.2c-.4,8-3.3,10.9-5.3,11.9-9-5.4-20.6-12-20.6-12l1.9-11.6a111.5,111.5,0,0,1,35.4,15.4l2.7-1.1S-51.3-73-4-59.7s107.6-9,127.8-13.6,46.7-.6,46.7-.6S139.2-49.2,139.2-17s-2.9,58.9-5.7,66.7-7.4,12.4-27.5,6.8S27.1,25.2-9.4-2L-45.9-29.2S-17.2,1.1,4.8,21.2,65.4,63.9,65.4,63.9a107.5,107.5,0,0,0-5.9,28.5c-.9,15.5.9,22-7.1,26.3S33.9,119.9,5.1,97.9C-19.5,79.2-75.6-20.8-91.5-49.6v.5l-5.4,2.5a22.5,22.5,0,0,0-.6-9.9l-2.9,1.4a38.9,38.9,0,0,1,.8,9.9l-.3.3C-86.9-19.3-48.1,58-36,83.4c14.5,30.6,22.6,44.2,24.7,51.3s-9.3,29.1-21.7,33.7-19.5,3.4-19.5,3.4S-81.8,85.2-94.5,33q-2-8.3-3.7-15.8l-5-8c-1.6-2.6-5.6-7.9-10.2-14l5.1,22.3.9-.7a223.1,223.1,0,0,1,6.8,34.8c10.3,45.2,21.7,95.6,23.7,104.2,3.7,16.1,5.6,20.7,5.6,20.7s-6.7,1.1-16.6-2.4a18.3,18.3,0,0,1,1.2,6.1,23.7,23.7,0,0,1-.4,6.6c7.5,1,14,.9,17.9,0,9.9-2.5,6.2-3.7,17.3-4.9s32.2-7.4,39.6-18.6S.7,130.8,13.8,124.1s19.2.6,28,1.9,22.9,1.7,24.6-15.6.1-45.4,12.8-50.5,31.2,7.9,45.2,5.9S142,51.6,143.5,26s-1.5-48.6,5.9-64.6S176-72.4,176-72.4s22.9,4,47.6,23.5,44.9,70.2,44.9,70.2S284.4-34.2,251-82.4Z" transform="translate(272.3 274)" style="fill:#050000;fill-rule:evenodd"/><path d="M-104.1-53.3l1.2,2.4a23.8,23.8,0,0,0-.2-2.9Z" transform="translate(272.3 274)" style="fill:#050000;fill-rule:evenodd"/><path d="M-109.9-42.2c-.9-5.9-1.3-9-1.3-9l-3,12.4Z" transform="translate(272.3 274)" style="fill:#050000;fill-rule:evenodd"/><path d="M-90.8,175.2c0-.8-.1-1.6-.1-2.3a45.3,45.3,0,0,1-14.7-10.3l-3.7-39.1a15.4,15.4,0,0,1-5.5-1.7c-7.5-3.9-5.9-16.2-4.3-21.7s3.1-8.3,6.7-9.9l-.8-8.3-26.5-95.6-1.6,1.2a22.4,22.4,0,0,0-.4-4.1l.9-.7-2.2-7.8-1.7.4a13.2,13.2,0,0,0-2.5-3.5l-.5-6.3-1.4-9.3,4.7,6.5,2.8-4.3-1.7.2-4.3-5.5-3.7,6.1,1.1,4.8a3.8,3.8,0,0,1-2.7,1.8,9.6,9.6,0,0,1-2.3-.1l-2.3,3.8.7,8.4a3.6,3.6,0,0,1-2.4.8,4.2,4.2,0,0,1-2.6-.9v-1l-4.3,7.3.9,1.1h-1.6l-1.4,2.4h8.8a7.1,7.1,0,0,0-.8,3.5,7.6,7.6,0,0,0,.5,3.5l-10-.5-.2,2.3,10.8.2a6.8,6.8,0,0,0-.7,3.2,7.4,7.4,0,0,0,.5,3.3l-11-.8-1.4,18.4,4.5-6.7h12.8l9,13.3.5,123.5c7.3,10,14.6,18.6,20.5,22.6a74.1,74.1,0,0,0,9.1,5.2l.5-.9.3,1.3a95,95,0,0,0,24.9,7.7l-1.7-1.9A73.4,73.4,0,0,0-90.8,175.2ZM-155.2,3.3c-1.2,0-2.1-1.4-2-3.1s1.2-3.1,2.4-3.1,2.1,1.4,2,3.1S-154,3.3-155.2,3.3Zm.1-8.7c-1.3,0-2.2-1.5-2.1-3.4a4.5,4.5,0,0,1,.9-2.5,6.9,6.9,0,0,0,1.8.9,3.5,3.5,0,0,0,1.8,0,4.6,4.6,0,0,1,.2,1.6C-152.7-7-153.8-5.5-155.1-5.5Zm1-16.3-1.2-10.6a6.7,6.7,0,0,0,3,0,6,6,0,0,0,2.6-1.4l.4,11.4s-.2.7-1.9,1A4.4,4.4,0,0,1-154.1-21.8Zm10.6,10.2L-151,.5a10.1,10.1,0,0,0,.2-3.2,6.7,6.7,0,0,0-.7-2.2A13.1,13.1,0,0,0-150.2-8a8.2,8.2,0,0,0,.2-3.3l2.1-2.6,1.1-7v-4.2C-143.1-20.6-143.5-11.6-143.5-11.6Zm3.3,76.4-1.8-5.8.6-9.6c2.9,8.4,7.3,21.2,10.7,30.6,5.4,15,8.2,21.3,8.2,21.3l-3.7-.3S-135.9,78.1-140.3,64.8Zm16.4,94.4a23.3,23.3,0,0,1-2.4-3.6,39.7,39.7,0,0,1-2.3-6.1,135.5,135.5,0,0,1,1.4-14.4,123.9,123.9,0,0,1,3.3-15.5h1.2a98.5,98.5,0,0,0-1.7,13.2c-.2,1.2-1.2,7.4-1.5,10.7s-.5,5.3-.5,5.3a43.5,43.5,0,0,0,2.2,5,25.3,25.3,0,0,0,1.9,2.9Zm-1.2-42.2-3.6-5.3,2-7,3.9-.8-.6,6.2-3.6,1.2,2.9,4.2,1.5.2.5,1.3Zm7.3,59.3a20.8,20.8,0,0,1-2.7-5.8c-1.2-3.9-.8-9.5-.8-9.5s.5-1,1.3-2.6l.4,2.6a23.3,23.3,0,0,0,.8,6.9,22.9,22.9,0,0,0,2.5,5.9Z" transform="translate(272.3 274)" style="fill:#050000;fill-rule:evenodd"/><polygon points="149.6 377.9 149 384.1 145.3 385.2 148.3 389.4 149.8 389.6 150.3 390.9 147.3 390.9 143.6 385.7 145.7 378.7 149.6 377.9" style="fill:#fff;fill-rule:evenodd"/><circle cx="61.7" cy="118.3" r="3.8" style="fill:#050000"/><path d="M-206.8,119.4c6.3-3.3,5-13.6,3.7-18.3s-2.7-7.2-6-8.5c1.3,2.6,3.4,7.7,1.9,10.9s-7,1.8-10.1,3.3-3.5,4.5-4.3,6.8a12.1,12.1,0,0,0,1.5,3.1C-217.3,121.5-211.5,121.8-206.8,119.4Z" transform="translate(272.3 274)" style="fill:#050000;fill-rule:evenodd"/><path d="M-100.5,116.8a12.1,12.1,0,0,0,1.5-3.1c-.8-2.3-2.3-5.8-4.3-6.8s-8,1.1-10.1-3.3.6-8.3,1.9-10.9c-3.3,1.2-5,4.8-6,8.5s-2.7,15,3.7,18.3C-109.2,121.8-103.4,121.5-100.5,116.8Z" transform="translate(272.3 274)" style="fill:#050000;fill-rule:evenodd"/><path d="M-222.3,249.8a29.8,29.8,0,0,0-6.3-2.9s1.3,7-7.2,10.8-21-.6-21-.6,1.6,6.3,15.5,7.7,23.3-10,23.3-10A13.1,13.1,0,0,0-222.3,249.8Z" transform="translate(272.3 274)" style="fill:#050000;fill-rule:evenodd"/><path d="M-153.9,27.9c-3.7,2.2-6.8,6.9-6.8,6.9s-3.1-4.8-6.8-6.9a11.1,11.1,0,0,0-7.7-1.2,15.8,15.8,0,0,1,7.4,4.7,49.8,49.8,0,0,1,5,6.2l.9,189.1s1.1,7.6,1.1,7.6,1.1-7.6,1.1-7.6l.9-189.1a49.8,49.8,0,0,1,5-6.2,15.8,15.8,0,0,1,7.4-4.7A11.1,11.1,0,0,0-153.9,27.9Z" transform="translate(272.3 274)" style="fill:#050000;fill-rule:evenodd"/><path d="M-180.3-56.5l4.1,7.7a7.4,7.4,0,0,1,1.6-.5,16,16,0,0,1,2.6-.1l.2-1a7.4,7.4,0,0,1,.9-2.2l-3.2-3.9a65.1,65.1,0,0,1-4.1-5.9A25.5,25.5,0,0,0-180.3-56.5Z" transform="translate(272.3 274)" style="fill:#050000;fill-rule:evenodd"/><circle cx="140.7" cy="118.3" r="3.8" style="fill:#050000"/><path d="M-210.6-159.5a3.8,3.8,0,0,1,3.8,3.8,3.8,3.8,0,0,1-3.8,3.8,3.8,3.8,0,0,1-3.8-3.8,3.8,3.8,0,0,1,3.8-3.8" transform="translate(272.3 274)" style="fill:#050000;fill-rule:evenodd"/><path d="M-239.9-157.6a18.3,18.3,0,0,1-.6,12.1c-2.6,6.3-5.6,10.1-6.7,14.2s-1.1,4.3-1.1,4.3-5.9,2.6-9.1,4.5a22.6,22.6,0,0,0-4.2,2.8,177.7,177.7,0,0,1,5.4-19.2c3.2-9.1,5.9-14.8,5.9-14.8Zm-8.8,42.7s.5,3.4.8,6.3a19.1,19.1,0,0,0,.8,4.2s-5.3,2.8-7.4,4.3l-2.2,1.5-.5-12.5A65,65,0,0,1-248.7-114.9Zm8.7,16.4,5.3,13.6a29.8,29.8,0,0,0-2.8,2.1,7,7,0,0,0-1.2,1.2l-6-13.2A47.1,47.1,0,0,1-240.1-98.5Zm13.6,17.1a50.6,50.6,0,0,0-2.8,7.7,54.8,54.8,0,0,0-.9,6.6l-3.3,2.9-1.9-7.7S-231.5-78.7-226.5-81.4Zm8,.4a27.5,27.5,0,0,1,4.6-4l1.8-1,27.5,9.9a11.9,11.9,0,0,0-3.8,2.4c-2.4,2-2.9,3.2-2.9,3.2s-10-1.9-15.2-2.6S-217.7-78.7-218.5-81.1Zm15.8,38.9v5.1s4.7.7,7.8.9l3.1.2S-199.9-39.5-202.7-42.2Zm4.3,14.8s-11.8,16.2-16.4,24.7a89.9,89.9,0,0,0-6,12.7,135.1,135.1,0,0,1,6.6-23c4.3-10.5,9.1-15.2,9.1-15.2A20.5,20.5,0,0,0-198.4-27.3Zm-13.6,52,3.2,3.7a12.1,12.1,0,0,1,1.7,2.3s-5.1,20.1-7,32.9-1.7,19-1.7,19l-3.9,4S-221.7,51.8-212,24.7Zm-1.5,68.2a9,9,0,0,0-6,4.8,17.5,17.5,0,0,0-2.2,8s1.4-4.3,3.9-4.8S-207.8,95.6-213.5,92.9Zm65.5-242a44.9,44.9,0,0,1-8.7,5.7,63.8,63.8,0,0,1-8,3.1l.8,17.9,4.8,1.2s.9-5.4,5.1-7.6S-145.2-139.6-148-149.2Zm-16.5,39.2-.3,5.3,4.3,2.7c.7.4,1.5-2.1,3.6-2.2a10.6,10.6,0,0,1,3.6.5S-159-108.1-164.5-109.9Zm0,19.8v9.2l3.6,3a6.5,6.5,0,0,0,2.7-1.9,14.7,14.7,0,0,1,3.2-2.6S-162-89-164.5-90.1Zm51.2-14.7L-115-77l6.3,1.1s1.7-11.3.5-17.5a85.8,85.8,0,0,0-2.6-10.2Zm3.2-18-1.5,6.7,6.3,4s2.3-1.2,2.6-3.4a9.4,9.4,0,0,0-.5-4.2Zm-2-34.3a63.6,63.6,0,0,1,2,12.8c.6,8.4.8,12.2.8,12.2l9,3.1s2.5-9.6.3-16.1-7.4-13.6-7.4-13.6ZM-139.3-52.7-120.1-69s3.7,1.1,5.1,1.7l1.4.6s-4.9,10.8-12.8,15.6a58.7,58.7,0,0,1-8.3,4.2Zm-78-88.9a12.9,12.9,0,0,0,6.8,1.1h.1a230.5,230.5,0,0,0,3.5,25.2c.9,4.2,1.7,7.2,2.2,9.3l-.9.8a42.7,42.7,0,0,0-6,6.5S-220.5-122.4-217.2-141.6Z" transform="translate(272.3 274)" style="fill:#050000;fill-rule:evenodd"/><path d="M-183.5-187.1l-2.6-1.6,1.9,16.7,1.7,1.1Zm11.5,3.9-2.9-.7,1.1,18.9,2.1,1.2Zm-5.9-1.4-2.8-1.2,1.5,17.7,2,1.2Z" transform="translate(272.3 274)" style="fill:#050000;fill-rule:evenodd"/><polygon points="97.9 78.2 96.3 72.3 83.3 68.9 84.6 73.1 97.9 78.2" style="fill:#050000;fill-rule:evenodd"/><path d="M-147.3-206.8l-2.2,6.8-16.9,6.7,2.3-9.5-5.2.5v12.2a88,88,0,0,1-11.3-3.9c-6.3-2.7-13.3-8.2-13.3-8.2s-1.4-2.9-2.6-5.8-2.1-6-2.1-6a92.8,92.8,0,0,0,3.1,13.4,71.6,71.6,0,0,0,11.6,8,62.6,62.6,0,0,0,14.5,5.6,62.6,62.6,0,0,0,14.5-5.6,71.6,71.6,0,0,0,11.6-8,92.8,92.8,0,0,0,3.1-13.4l-.5,1.4-2.2,2.3A23.2,23.2,0,0,1-147.3-206.8Z" transform="translate(272.3 274)" style="fill:#050000;fill-rule:evenodd"/><polygon points="121.3 73.1 122.6 68.9 109.6 72.3 108 78.2 121.3 73.1" style="fill:#050000;fill-rule:evenodd"/><path d="M-31.4-206.2s-9.1,10.1-20,7.4-14.4-15.2-16.2-20.4a63.6,63.6,0,0,0-4.5-9.7,31,31,0,0,1,8,1.5c5.1,1.5,10.4,8.5,10.4,8.5s.8-5.1-4.8-13.5-19.2-16.1-36.3-16.4-24.7-2.2-24.7-2.2,1.7-.5,4.6-4.9,1.8-11.2,1.8-11.2-4.3,7-11.3,6.7-9.1-2.8-17.4-8.4-26.6-9-36.7,1.2c-8.4,8.5-4.7,19.1-3.2,22.4-10.3,4-14.1,12.3-16.5,22.2l-8.7,12.5c2.4,5.6,6.7,15.2,8.4,18.7l-7.5,14.8s5.1,10.7,13.5,17.9,23.3,15.2,23.3,15.2,14.9-7.9,23.3-15.2,13.5-17.9,13.5-17.9l-7.6-15.8.5-2,6.2-11.9c2.1.7,1.2.9,7.6,1.7s14.2-.9,23.4,1.1,17.2,21.3,45,23.8S-31.4-206.2-31.4-206.2Zm-142.4-45c1.6-1.9,4.4-1.5,4.4-1.5s2.8-.3,4.4,1.5a6.1,6.1,0,0,1,1.2,4.3,36.9,36.9,0,0,0-5.6-.5,36.9,36.9,0,0,0-5.6.5A6.1,6.1,0,0,1-173.8-251.2Zm-15.3,14.7c7-9,19.7-8.5,19.7-8.5s12.6-.5,19.7,8.5,7,20.1,7,20.1a10.9,10.9,0,0,1-3,3.2c.2-3.1.3-11.8-3.8-18.6a20.1,20.1,0,0,0-13.5-9.6s2.8,4.2,3.1,14.5c.3,8.5-3.3,16.8-4.5,19.5l-5.1.5c-7.7-.6-22.6-2.5-26.7-9.6C-196.1-216.4-196.1-227.5-189.1-236.5Zm19.7,88.7s-14.6-8-21.6-14.2-11.9-15.8-11.9-15.8l5.9-10.9c.7,2.9,1.5,6.2,2.1,8.3,1.2,4.3,1.6,6.5,1.6,6.5s10.5,11.6,23.9,17.2ZM-165-165l-2.1,1.2.3-19.4,2.9-.7Zm5.3-3.2-2,1.2.8-17.6,2.8-1.2Zm5-3.8-1.7,1.1,1-16.2,2.6-1.6Zm14.3-25.6-.2-5.8-4.5,17.8c-1.9,7.4-2.9,10.4-2.9,10.4l-2.1,2c2.1-7.2,4.9-17.5,6-24.4,0,0-10.1,7.1-15.6,9.4a60.6,60.6,0,0,1-9.8,3.2v25.3a89.7,89.7,0,0,1-10.6-6.3,92.1,92.1,0,0,1-11-9.2s-1-3.1-2.9-10.4l-4.5-17.8-.2,5.8-5.6-12.5,6.6-10.1-.4,4.6s1.7,4.8,9.3,7.6,19.2,3.8,19.2,3.8,11.7-1,19.2-3.8,9.3-7.6,9.3-7.6l-.4-4.6,6.6,10.1Z" transform="translate(272.3 274)" style="fill:#050000;fill-rule:evenodd"/><path d="M-80.9-153.4S-35.4-90,18.4-82.6s81.7-11.8,81.7-11.8S60.5-82.9,23.7-88.2s-48.9-23.2-48.9-23.2,24.4,9.6,74.5-.3,90.5-23.7,144.3-8.5S263.2-45.9,266-27.7s-.6,30.3-.6,30.3-22-72.4-92.2-83.5S83.8-56.8,21-63.6s-90-46.9-90-46.9Z" transform="translate(272.3 274)" style="fill:#b71f36;fill-rule:evenodd"/><path d="M-58.1,253.8c-3.4-8-14.1-11.7-14.1-11.7a69.3,69.3,0,0,0-5.1-9.4,75.6,75.6,0,0,0-6.4-8l1.8-8.2-4.3-8.4s.8-1.3,1.2-6.3a30.8,30.8,0,0,0-1-10.1,34.7,34.7,0,0,0,1.5-6.1c.9-4.7-.1-12.6-.1-12.6a37.5,37.5,0,0,0,1.1-5.4c.5-3.4-.5-14.5-.5-14.5s1.1-9.6-1.1-17.5-8.2-23.4-8.2-23.4.6-.7,0-5.6A40.5,40.5,0,0,0-95,98.5a395.9,395.9,0,0,0-1.7-43c-1.3-12.9-3.9-26.8-5.8-35.5l9.4,9.3A107.9,107.9,0,0,0-95.1,0c-3.4-16.1-13.5-32.3-13.5-32.3l10.7-9.5,9.6-5.7.3-15,6-25.4,7.4,3.2.3-23.5,6.8,2.5s-.3-10.5-6.2-30.2-7.9-23.4-7.9-23.4l-9.8-4.9s-4.9-7.4-7.7-11.1a39.2,39.2,0,0,1-2.8-3.9l-10.8-.9-.3-2.8-3.7-2.3-.6-2.5-7.7-2.6-19,.5-1,4.1c-1.9,7.4-2.9,10.4-2.9,10.4l-2.1,2c1.4-4.7,3.1-10.8,4.4-16.5h-4.6l-7.6.5-1.8.9a60.6,60.6,0,0,1-9.8,3.2v25.3a89.7,89.7,0,0,1-10.6-6.3,92.1,92.1,0,0,1-11-9.2s-1-3.1-2.9-10.4l-1.5-6.1-11.6-4.1-11.1,4-.2,5.3-9.9,2.2-.2,4.9s-7,1.5-8.7,5.6-1.5,5.4-1.5,5.4l-16.9,8.7s-8.6,15.1-12.8,29.2a105.2,105.2,0,0,0-4.2,26.8l7.6-3.4-.2,24.7,12.4-9,9.6,21.8,2.3.5,2.5,11.1,14.2,2.5,14.7,1.1,1.7,5.9-1.9,1.2-.2,12.4.9.8s-11.1,14.6-15.5,29.9-2.9,33.3-2.9,33.3l7.7-3.2c-1.6,8.5-3.5,19.4-4.6,29.7a396,396,0,0,0-1.7,43,40.5,40.5,0,0,0-1.9,8.2c-.6,4.9,0,5.6,0,5.6-5.4,13.1-11.1,26.1-9.3,40.8,0,0-.9,11.1-.5,14.5a37.5,37.5,0,0,0,1.1,5.4s-1,7.8-.1,12.6a34.6,34.6,0,0,0,1.5,6.1,30.8,30.8,0,0,0-1,10.1c.5,5,1.2,6.3,1.2,6.3l-4.3,8.4,1.8,8.2a75.7,75.7,0,0,0-6.4,8,69.3,69.3,0,0,0-5.1,9.4s-10.7,3.7-14.1,11.7.2,17.2,19.5,20,35.9-10.5,37.1-13.6,1.1-8.7,1.1-8.7l5.6-3.7s.5-3.4-2.3-11.1-2.9-7.7-2.9-7.7l3.9-7.7-3.9-9.1s.8-4.9.9-8.5-.2-7.9-.2-7.9,2.8-7.6,2.8-12.1v-4.5s3.4-4.6,4.2-8.4,1.4-7.3,1.4-7.3,6.3-6.7,6.1-19.9a123,123,0,0,0-3.2-25.4l2.9-6.2-1.5-8.8,9.5-24.2-.4,107.5c-.1,4.6.1,9.4.3,14.1a248,248,0,0,0,3.1,30.4c2,11.8,5.8,27.6,14,36.7l4,4.4,4-4.4c8.2-9.1,12-24.8,14-36.7a248.1,248.1,0,0,0,3.1-30.4c.2-4.7.4-9.5.3-14.2l-.4-109.9,10.4,26.6L-131,112l2.9,6.2a123.1,123.1,0,0,0-3.2,25.4c-.2,13.1,6.1,19.9,6.1,19.9s.6,3.6,1.4,7.3,4.2,8.4,4.2,8.4v4.5c0,4.5,2.8,12.1,2.8,12.1s-.3,4.3-.2,7.9.9,8.5.9,8.5l-3.9,9.1,3.9,7.7s-.2,0-2.9,7.7-2.3,11.1-2.3,11.1l5.6,3.7s-.2,5.6,1.1,8.7,17.8,16.4,37.1,13.6S-54.7,261.8-58.1,253.8ZM-77,240.6a14.7,14.7,0,0,0-4.8-.6l-.8-1.1a31.6,31.6,0,0,0-4.8-4.6A13.2,13.2,0,0,1-77,240.6Zm-4.1-7.2s-2.4-2.4-8.6-2.4c-.3-.9-.8-2.2-1.5-3.8a62.5,62.5,0,0,0-5.6-9.3C-88.2,218.8-81.1,233.5-81.1,233.5Zm-9.9-40.7c-.2-2.1-.4-3.7-.6-4.8a18.7,18.7,0,0,1,2.6,4.4c1.9,4.9.5,13.8.5,13.8l-2.4-2.7A66.6,66.6,0,0,0-90.9,192.7Zm-.3-8.3a73.4,73.4,0,0,0,.4-9.3,56.3,56.3,0,0,0-.6-6.8c3.1,4.3,4.4,6.4,4.6,11.8s-1,8.4-1,8.4Zm3.8-13.7a39.2,39.2,0,0,0-4.2-6.4l-.5-.6a33.8,33.8,0,0,0-1-11.2,42.8,42.8,0,0,0-1-4.9l-1.1-4.4,1,.9a74.3,74.3,0,0,1,7.4,8.5A77,77,0,0,1-87.4,170.7Zm2.1,45.6-1.2,5.1a28,28,0,0,0-3-3l.7-3.1a27,27,0,0,0-1.3-6.2l-.8-2.3c1.5,1.6,2.5,2.9,2.5,2.9Zm-9.2-100.6a221.5,221.5,0,0,1,8.5,30.2v4.5a30.5,30.5,0,0,0-6-7.6l-1.6-1.5c-.5-2.6-1.9-9.4-3.1-12.3a21.6,21.6,0,0,0-3-5.3A13.9,13.9,0,0,0-94.5,115.7Zm-3.9-21.6a22.3,22.3,0,0,0-5.7-7c.1-2.2.3-12.3-.5-28.6-.7-14.7-5.1-31.8-6.8-38.3l4-3.4C-97.3,51.8-98.3,91.2-98.4,94.1Zm2.3-73.3s-2.2-3.9-7.1-11.6c-3.1-4.8-14.2-19.3-22.3-29.8l12.4-9.3C-96.6-8.4-96.1,20.8-96.1,20.8Zm-3.5-66-41.9,32.6a22.4,22.4,0,0,0-.4-4.1l2.4-1.9h.6c2.3.3,5.3-1.5,5.3-1.5l.7-3.9,29.8-23.7a22.2,22.2,0,0,0-.6-9.1,16.4,16.4,0,0,0-5.3-8s1.2,15-12.8,27.1a76.8,76.8,0,0,1-9.8,7.2l.2-1.1-2.3-13.8-7-9.1,20-17.3C-97.5-72.9-99.5-45.2-99.5-45.2ZM-155.1-5.5c-1.3,0-2.2-1.5-2.1-3.4a4.5,4.5,0,0,1,.9-2.5,6.9,6.9,0,0,0,1.8.9,3.5,3.5,0,0,0,1.8,0,4.6,4.6,0,0,1,.2,1.6C-152.7-7-153.8-5.5-155.1-5.5Zm2.4,5.6c-.1,1.7-1.2,3.1-2.4,3.1s-2.1-1.4-2-3.1,1.2-3.1,2.4-3.1S-152.6-1.6-152.8.2Zm-6.5,2.7L-170.5,2s-.8-.2-1.2-2.5.6-3.3.6-3.3l12,.2a6.8,6.8,0,0,0-.7,3.2A7.4,7.4,0,0,0-159.3,2.8ZM-140-93.4c-3.6-3.2-7.7-6.8-7.7-6.8.3,4.9-.6,7.5-1.5,8.9a109.7,109.7,0,0,0-17.9-11.8l.2-10.3c16.5,6.6,25,14.1,37.4,26.7L-131.3-75l-3.9-3.9.8-8.9A59.5,59.5,0,0,0-140-93.4Zm-26.7-.7c16.9,8.8,28.2,23,32.9,29l-2.4,2.1a86.4,86.4,0,0,0-5.7-8.5c-2.3-2.8-10.1-10.2-10.1-10.2.2,4-3.5,7-5.7,8.4a51.4,51.4,0,0,0-9-6.7Zm19.7,37.9a2.7,2.7,0,0,1-.7,3.8,2.7,2.7,0,0,1-3.6-1.3,2.7,2.7,0,0,1,.7-3.8A2.7,2.7,0,0,1-146.9-56.2Zm-3.3,19.9a3.8,3.8,0,0,1-2.7,1.8,8,8,0,0,1-2.5-.1s-3.4-10-3.4-10a10.8,10.8,0,0,0,4-.9,4.4,4.4,0,0,0,2.2-1.7ZM-156.3-48a2.7,2.7,0,0,1-3.6-1.3,2.7,2.7,0,0,1,.7-3.8,2.7,2.7,0,0,1,3.6,1.3A2.7,2.7,0,0,1-156.3-48Zm-1.9,14.8a10.1,10.1,0,0,1-2.9,1.5,4.2,4.2,0,0,1-2.6.3l-2.8-7.7a6.4,6.4,0,0,0,3.4-1.2,5,5,0,0,0,1.9-2.2ZM-163.8-23a2.9,2.9,0,0,1-2,1.1h-1.8l-2.7-5.4a7.9,7.9,0,0,0,3.2-.5,3.8,3.8,0,0,0,1.8-1.2Zm-.7-19.7a2.7,2.7,0,0,1-3.1-2.2,2.7,2.7,0,0,1,1.6-3.5,2.7,2.7,0,0,1,3.1,2.2A2.7,2.7,0,0,1-164.5-42.7Zm-1.9,11.8a4.2,4.2,0,0,1-2,1.3,8.3,8.3,0,0,1-2.7.3l-2.9-6.6a4.3,4.3,0,0,0,3.2,0,4.9,4.9,0,0,0,2.1-1.8Zm-5.5-8.2a2.5,2.5,0,0,1-2.9-2.1,2.5,2.5,0,0,1,1.5-3.2,2.5,2.5,0,0,1,2.9,2.1A2.5,2.5,0,0,1-171.9-39Zm-2.6,8.6h.4l1.9,3.8,1.1,2.4h-2.7s-.9-.2-1.4-2.6A4,4,0,0,1-174.5-30.4Zm0,9.3,4.6-.3.5,1.2,4.1,5.2h-8.5s-.9-.2-1.4-2.6A4,4,0,0,1-174.5-21.1Zm1.6,8.6h13.3a7.1,7.1,0,0,0-.8,3.5,7.6,7.6,0,0,0,.5,3.5l-12.4-.7s-.9-.2-1.4-2.7S-172.9-12.5-172.9-12.5Zm13.7-8.9a4.2,4.2,0,0,1-2.6-.9l-1-7a6.9,6.9,0,0,0,2.8-.5,6.5,6.5,0,0,0,2.3-1.3l.7,9A3.6,3.6,0,0,1-159.2-21.4Zm5.1-.3-1.2-10.6a6.7,6.7,0,0,0,3,0,6,6,0,0,0,2.6-1.4l.4,11.4s-.2.7-1.9,1A4.4,4.4,0,0,1-154.1-21.8Zm4.7-27.7s2.9-.5,4.1-1.7a6.5,6.5,0,0,0,1.7-2.7l6.6,8.8a5.9,5.9,0,0,1-2.6,2.7,12.7,12.7,0,0,1-3.8.8Zm11.6,8.8a5,5,0,0,0,2.3-1.9l1.5,9s-.3,1.4-2.3,1.7S-139-32-139-32l-2.7-7.9A7.1,7.1,0,0,0-137.8-40.7Zm3.7,10-1,8.7-1.3.9-2.1-.5-.3-8.3a5.8,5.8,0,0,0,2.7.2A3.8,3.8,0,0,0-134.1-30.7Zm42.6-18.4-5.4,2.5s2.8-11.9-8.7-23.8c0,0,5.9.2,9,2.3a23.9,23.9,0,0,1,5.1,4.9Zm1.7-18.1a22.6,22.6,0,0,0-4-2.9l5-25.2,3.3,2.1Zm-16.4-96.8a29.3,29.3,0,0,1,4-.9l16.5,8.9s5.6,13.5,9.6,25.1a88.5,88.5,0,0,1,4.6,20.7s-1.7-1.5-4.9-3.7A56.7,56.7,0,0,0-78-127.8c-2.2-9.3-9.6-25.1-9.6-25.1l-9.7-5.7c11.5,12.1,8.1,31,6.7,36.5l-3.5-1.5c-13.8-5.7-19.2-7.1-19.2-7.1s0-9-.5-17.5a37.7,37.7,0,0,0-1.9-11A40.9,40.9,0,0,1-106.2-163.9Zm-8.5,37c22,5.4,36,15.9,36,15.9l.6,21a35,35,0,0,0-3.6-3.5l.7-16.7-2.6-1.9a31.2,31.2,0,0,0-7.1-3.2c-.4,8-3.3,10.9-5.3,11.9-9-5.4-20.6-12-20.6-12Zm-1.5,16.4s8.7,4,18.6,9.9l3.1,1.9a57,57,0,0,1-1.7,14.4A44.3,44.3,0,0,1-100.8-73a25.7,25.7,0,0,0-3.8-.7c-9.1-.9-13.3-1.1-13.3-1.1Zm-3.7-45.2h0l1.3,1.2s2,18.3-.5,34A109.2,109.2,0,0,1-126.5-94s-1.4-1.6-3.7-3.9a85.6,85.6,0,0,0,7.7-25.1,99.8,99.8,0,0,0-.2-25.2A11.6,11.6,0,0,0-119.9-155.7Zm-11.7-8.2a8.2,8.2,0,0,1,8.2,8.2,8.2,8.2,0,0,1-8.2,8.2,8.2,8.2,0,0,1-8.2-8.2A8.2,8.2,0,0,1-131.6-163.9Zm-23.7-23.2,2.6-1.6-1.9,16.7-1.7,1.1Zm-5.6,2.5,2.8-1.2-1.5,17.7-2,1.2Zm-5.9,1.4,2.9-.7L-165-165l-2.1,1.2Zm24.3,23.3a11.7,11.7,0,0,0-.8,4.2A11.7,11.7,0,0,0-131.6-144h1.5c0,4.4-.6,15.6-5.6,23.3a19,19,0,0,1-13.9,8.5,91.9,91.9,0,0,0-17.4-7.4l-.8-22.7S-155.7-146.4-142.5-159.9ZM-168-70.5a147.2,147.2,0,0,1,17.3,10.8,3.7,3.7,0,0,0-2.9.9,5.3,5.3,0,0,0-1.7,3.5,7.5,7.5,0,0,0-5.3-.7c-2.9.8-3.3,4.9-3.3,4.9a4.1,4.1,0,0,0-4.4.2,5.5,5.5,0,0,0-2.4,4.3,5.1,5.1,0,0,0-3.3-.9c-2.3,0-3.2,2.9-3.2,2.9l-4.4-10s-.5-3.4,2.8-9.9S-168-70.5-168-70.5Zm-4.4-23.6V-80l-3.5,2.2L-188.6-83A86.1,86.1,0,0,1-172.4-94.1Zm-23.7,8-10-4.2c10.6-10.6,19-17.3,33.9-23.2l.2,10.3C-180.3-98.9-188.6-92.7-196.1-86.1Zm24.6,13.9s-7.3.6-10.5,6.8-2.6,10.5-2.6,10.5-5.3-.6-4-9.1S-175.8-77.8-171.5-72.2Zm-8.7,28.9s.5,3.5,1.6,4.9a22.8,22.8,0,0,0,2.2,2.4,166.6,166.6,0,0,1-17.8.8,77.2,77.2,0,0,1-10.5-.8V-44S-198.9-42.8-180.2-43.2Zm-16.7-145.4c.7,2.9,1.5,6.2,2.1,8.3,1.2,4.3,1.6,6.5,1.6,6.5s10.5,11.6,23.9,17.2v9s-14.6-8-21.6-14.2-11.9-15.8-11.9-15.8Zm-13.7,24.8a8.2,8.2,0,0,1,8.2,8.2,8.2,8.2,0,0,1-8.2,8.2,8.2,8.2,0,0,1-8.2-8.2A8.2,8.2,0,0,1-210.6-163.9ZM-220.8-150a11.7,11.7,0,0,0,10.2,5.9,11.7,11.7,0,0,0,11.7-11.7,11.6,11.6,0,0,0-4-8.8l.8-1.7c15.2,18.6,30.8,23.8,30.8,23.8l-.8,22.7s-8,2.2-19.6,8.7-20.7,17-20.7,17a109.2,109.2,0,0,1-7.4-26.4C-221.7-131.4-221.2-143.5-220.8-150Zm4.3,54.6c1.2,3.6,1.6,4.8,1.6,4.8a33.8,33.8,0,0,0-3.8.7l-6.5-20.1,3.3-1.6Zm-51.6-14.8a88.5,88.5,0,0,1,4.6-20.7c4-11.6,9.6-25.1,9.6-25.1l17-9.2a77.3,77.3,0,0,0,6.4,5.8,40.3,40.3,0,0,0,5.5,3.6,48.6,48.6,0,0,0-.9,7.5c-.5,8.5-.5,17.5-.5,17.5l-2.4.7c-.2-2.1-.5-6.7-.5-10.5s1-14.2,1-14.2l-3.7-2.4a18.2,18.2,0,0,1-3.1-2.5c1.4,6.3.9,12.4-4.5,22-3.9,7-4.1,11.3-3.9,13.1l-2.1.9A89.5,89.5,0,0,0-268.1-110.2Zm6.6,20.2.6-21s14.1-10.5,36-15.9l1.9,11.6-3.5,2-1.8-11a55.5,55.5,0,0,0-10.2,4.3,63.9,63.9,0,0,1,.9,9.4,26.8,26.8,0,0,1-.6,4.3L-249-100C-257.6-94.6-261.5-90-261.5-90Zm21.2,15.3-9.4-19.7a77.1,77.1,0,0,1,15.3-10.9l3-1.5a63,63,0,0,1,2.7,7.7c1,3.7,2.3,9.9,2.7,11.8a35.4,35.4,0,0,0-3.9,2.1A30.8,30.8,0,0,0-240.3-74.7ZM-225-59.6l-9.8-1.3-2.9-12.1A24.9,24.9,0,0,1-223-85.2s-3.7,6.9-3.8,13.9A34,34,0,0,0-225-59.6Zm4.1,0s-3.6-5.3-2.1-16.4,12.5-12.2,12.5-12.2l31.5,12.1s-5.2.5-9.5,5.8a15.4,15.4,0,0,0-2.6,4.6c-3.3.3-12.7.9-18.9-.2s-10.2-5.7-11.1-10.6a50.1,50.1,0,0,0-.4,7.8,22.6,22.6,0,0,0,1.5,7.2l27.7,1.6a14.6,14.6,0,0,0,0,1.8Zm-3.2,80.4s.6-31.9,19.3-53.5a33.4,33.4,0,0,0,8.7.9l10.3-.2S-212.1,1.5-217,9.2-224.1,20.8-224.1,20.8Zm10.8-4s6,4.8,8.8,8.2a38.8,38.8,0,0,1,3.9,5.4s-.8,22-1.9,33.3a180,180,0,0,1-3.8,22.3,10.2,10.2,0,0,0-5.4-1c-4.1.3-8.1,4.4-10.6,9.1C-222.4,91.2-223.4,51.8-213.3,16.8Zm.9,72.7c6.5-.5,9.4,4.9,11,10.5s3.2,17.8-4.3,21.7c-5.6,2.9-12.4,2.5-15.9-3.1-1.7-2.8-2.2-4.6-2.8-9.8S-218.9,90-212.4,89.5Zm-22.2,60.9c-.8-11.5,4.6-25.3,8.5-34.7a13.9,13.9,0,0,0,5.3,7.9,21.6,21.6,0,0,0-3,5.3c-1.2,3-2.6,9.7-3.1,12.3-.6.5.8-.9-1.6,1.5A65.2,65.2,0,0,0-234.6,150.3Zm2.2,59.3a46.4,46.4,0,0,1,6.2-6.4,23.4,23.4,0,0,1,4-2.9s8.6,5.8,12.5,11.4,5,9.1,5,9.1l-2.9,4.8-1.6-1.7,2.2-4.2-3.4-6.3-2.9,6.4a35.2,35.2,0,0,0-3.5-3,10.6,10.6,0,0,0-6.7-2.2c0-.9-.1-3-.1-5.3a32.4,32.4,0,0,1,.7-6.3s-5.6,4.7-6.9,7.5-.7,5.1-.5,6.9a25.7,25.7,0,0,0-4,3.9l-1.2-5.1Zm23.9-9.8a9,9,0,0,0-3.1-5.8,11.9,11.9,0,0,1-2.5,9l-1.4-1.3a30.3,30.3,0,0,0-6.4-4.8h0v-1.9c-.2-3-.1-12.4-.1-12.4-2.6,3.2-5.7,8-6.3,11.2a55.1,55.1,0,0,0-.6,8.7l-.6.6c-2.3,2.6-2.7,3.1-2.7,3.1s-1.4-8.9.5-13.8,10.1-12.5,10.1-12.5a119.3,119.3,0,0,1,9.4,10.1c3.3,4.3,4.8,6.3,5.4,10.4s-1.5,9.3-1.5,9.3l-1.4-1.8A20.5,20.5,0,0,0-208.4,199.9Zm.4-8.8a16.5,16.5,0,0,0,1.5-4.4,26.5,26.5,0,0,0,.1-7.2l-2.5-3.9c.1,4.8-2.5,9-3.3,10.1a85.8,85.8,0,0,0-9.2-9.1c-.1-1.2-.1-3.3,0-6.2a66,66,0,0,1,.7-7.5c-7.9,5.8-8.2,12.5-8.2,12.5l.2,8c-2.4,2.7-4.3,5.1-4.3,5.1s-1.3-2.7-1-8.4,1.6-7.7,5.1-12.4a33.4,33.4,0,0,1,8.7-7.8,77.8,77.8,0,0,1,15.3,19.5s.2,3.2.2,6.8a19.5,19.5,0,0,1-1.9,7.2A26.2,26.2,0,0,0-208.1,191.1Zm5.5,55.3a7.5,7.5,0,0,1-1.9,1.2l-1.2.5-.9-5.8s-1.7,13-3.8,16.6-17.3,12.3-31.8,11-18.9-8.7-17.5-12.6,6.7-13.8,21.7-13.6,25,10.4,25,10.4a20.3,20.3,0,0,0-3.7-5.8c.5-2.3.7-8.4-8.2-11.5,0,0,.8.6.3,2.9a5.9,5.9,0,0,1-1.1,2.5l-1.9-.6c-11.1-2.9-16-1-16-1s3.7-7.3,14.2-6.3a22,22,0,0,1,15.6,9.3,20.1,20.1,0,0,0-1.5-3.4c.6-.5,1.8-2,2.9-5.7,1.5-5.4-.5-9.8-7.3-13.5,0,0,1.7,4.7-.4,8a17.7,17.7,0,0,1-2.8,3.4,13.4,13.4,0,0,0-3.6-1.1c-9.5-1.5-13.1,2-13.1,2s7.3-14.9,15.9-15.6,16.7,11.5,18.7,18.6A87.2,87.2,0,0,1-202.6,246.4Zm2.4-75.9a20.8,20.8,0,0,1-2.7,5.8l-1.5-2.5a22.9,22.9,0,0,0,2.5-5.9,23.3,23.3,0,0,0,.8-6.9l-3.2-4.9c-.2,3.9-2.8,9.2-4.1,11.6a36.7,36.7,0,0,0-3.3-4.2,98.1,98.1,0,0,0-7.6-6.9h0c-.1-1.1-.2-3.5-.1-6.1s.6-10.1.6-10.1-5.9,4.4-8.3,10.2-1.8,10.7-1.6,12.9l-.5.6a39.1,39.1,0,0,0-4.2,6.4,77,77,0,0,1-.7-18.1,74.2,74.2,0,0,1,7.4-8.5,40.7,40.7,0,0,1,8-5.7s8.4,6.7,12.6,12.1a61,61,0,0,1,6.5,10.4S-198.9,166.6-200.2,170.5Zm8.1-21.1a39.7,39.7,0,0,1-2.3,6.1,23.2,23.2,0,0,1-2.4,3.6l-1.8-2.7a25.2,25.2,0,0,0,1.9-2.9,43.5,43.5,0,0,0,2.2-5s-.1-1.5-.5-5.3-1.5-10.9-1.5-10.9l-1.6,14.6-4.4,3.9-3.9-5.2a44.5,44.5,0,0,0-10.8-10l1.4-10.1c6.5,1.2,11.6-1,13.2-2.6a10,10,0,0,0,2.3-3.8l3.5.3a123.8,123.8,0,0,1,3.3,15.5A135.5,135.5,0,0,1-192.1,149.4Zm-3.5-32.4h-3l.5-1.3,1.5-.2,2.9-4.2-3.6-1.2-.6-6.2,3.9.8,2,7Zm15.2-52.2c-4.3,13.3-13.9,36.2-13.9,36.2l-3.7.3s2.8-6.3,8.2-21.3c3.4-9.3,7.8-22.2,10.7-30.6l.6,9.6Zm2.4-78.7a6,6,0,0,1-2.4.9,38.5,38.5,0,0,0-.1-7.1c-.4-2.9-1.4-6.5-1.4-6.5s-.1-3.2,4.8-3.7a9.9,9.9,0,0,0-.5,4,4.5,4.5,0,0,0,1.5,3.6,6.6,6.6,0,0,0-1.2,3.8,7.3,7.3,0,0,0,.7,3A6.4,6.4,0,0,1-178-13.9Zm17.3,278c-16.9-18.8-16-77.6-16-77.6l.6-159.6,9-13.3h12.8l9,13.3.6,159.6S-143.8,245.3-160.8,264.1Zm17.2-275.7L-151,.5a10.1,10.1,0,0,0,.2-3.2,6.7,6.7,0,0,0-.7-2.2A13.1,13.1,0,0,0-150.2-8a8.2,8.2,0,0,0,.2-3.3l2.1-2.6,1.1-7v-4.2C-143.1-20.6-143.5-11.6-143.5-11.6Zm-1.2-13.2a13.2,13.2,0,0,0-2.5-3.5l-.5-6.3-1.4-9.3,4.8,6.7,3.2,7.1v4.4A26.8,26.8,0,0,1-144.8-24.8Zm4.5,89.6-1.8-5.8.6-9.6c2.9,8.4,7.3,21.2,10.7,30.6,5.4,15,8.2,21.3,8.2,21.3l-3.7-.3S-135.9,78.1-140.3,64.8Zm16.4,94.4a23.3,23.3,0,0,1-2.4-3.6,39.7,39.7,0,0,1-2.3-6.1,135.5,135.5,0,0,1,1.4-14.4,123.9,123.9,0,0,1,3.3-15.5h1.2a98.5,98.5,0,0,0-1.7,13.2c-.2,1.2-1.2,7.4-1.5,10.7s-.5,5.3-.5,5.3a43.5,43.5,0,0,0,2.2,5,25.3,25.3,0,0,0,1.9,2.9Zm6.1,17.1a20.8,20.8,0,0,1-2.7-5.8c-1.2-3.9-.8-9.5-.8-9.5s.5-1,1.3-2.6l.4,2.6a23.3,23.3,0,0,0,.8,6.9,22.9,22.9,0,0,0,2.5,5.9Zm-1.5-76.2c1.5-5.6,4.5-11.1,11-10.5s12.8,12.8,12,19.4-1,7-2.8,9.8c-3.5,5.6-10.3,6-15.9,3.1C-122.4,117.8-120.8,105.6-119.3,100Zm8.3,107.8-1.4,1.8s-2.1-5.1-1.5-9.3a15.1,15.1,0,0,1,2.9-7.1l-.7,2a38.3,38.3,0,0,0-.5,4.3v.4A20.5,20.5,0,0,0-111,207.8Zm-3.1-21.1a16.5,16.5,0,0,0,1.5,4.4,26.1,26.1,0,0,0-1.6,2.3,19.5,19.5,0,0,1-1.9-7.2c-.1-3.6.2-6.8.2-6.8l1.2-2.1.5,2.1A26.5,26.5,0,0,0-114.1,186.7Zm-2,34.2a35.9,35.9,0,0,1,4.4-8.3l-2.1,7.1,2.2,4.2-1.6,1.7Zm37.6,49c-14.5,1.2-29.7-7.4-31.8-11s-3.8-16.6-3.8-16.6l-.9,5.8-1.2-.5a7.5,7.5,0,0,1-1.9-1.2s.1-1,.7-3.4l1.5,1,2.3-6.9.8,5.1L-109,256s5,8,22.9,10.7,24-8.1,24-8.1l-1.3-2.4s-13.2-1-16.5-5.7a8.4,8.4,0,0,1-1.5-6.7c14.1.4,19,9.8,20.5,13.6S-63.9,268.7-78.5,269.9Z" transform="translate(272.3 274)" style="fill:#050000;fill-rule:evenodd"/><path d="M-163.8-188.7l-9.4.6,3.8,1.1C-168.2-187.3-166.2-187.9-163.8-188.7Z" transform="translate(272.3 274)" style="fill:#050000;fill-rule:evenodd"/><path d="M-194.7-209.9l4.2,2.8,1.9,7.4-4.5-3.3Zm.1,13.3,6.9,5.4,2.3,18.6-4.7-4S-194.7-196.5-194.5-196.6Zm-2.9,13.6-2.9,4.6a35.3,35.3,0,0,0,4.6,8.7,34.8,34.8,0,0,0,3.6,4.2l1.1-4.3-3.8-3.5Zm26.3-58.2s-9.1-.3-15,6.5-7.3,18.9-7.3,18.9a30,30,0,0,0,7.9,3.7l4.3,1.2S-185.7-233.8-171.1-241.2Z" transform="translate(272.3 274)" style="fill:#050000;fill-rule:evenodd"/><path d="M-207.4-166.9a53.6,53.6,0,0,1-1.5-12.5c.2-6.1,1-12.3,1-12.3l-7.3,2.9a23.1,23.1,0,0,0-.9,9.4,56.7,56.7,0,0,0,1.4,8.4,34.4,34.4,0,0,1-3.3-6.3,21.8,21.8,0,0,1-1.5-5.6l-5.6,1.7a40.4,40.4,0,0,0,2,7.5,24.5,24.5,0,0,0,1.4,3l-5.3-6a11.6,11.6,0,0,0-4.9,3.2c-2,2.3-2,6-2,6a52.4,52.4,0,0,0,6.3,6.2,30.9,30.9,0,0,0,5.6,3.5,11.6,11.6,0,0,1,.6-2.2l-2.1-2.7a16.7,16.7,0,0,1-2.1-3.7l5.3,4.4a11.7,11.7,0,0,1,8.1-5.2v-4.1l1.6,3.9h.1a11.7,11.7,0,0,1,3.2.4" transform="translate(272.3 274)" style="fill:#b71f36;fill-rule:evenodd"/><path d="M-135.8-166.6c.6-1.7,4-10.6,5.3-14.4s2.1-6.3,2.1-6.3a44.4,44.4,0,0,1,6.4,1.2,7.5,7.5,0,0,1,2.6,1.3l-.2,5.7,2.2-2.4,1.6,1.1a47.9,47.9,0,0,1-2.9,6.3l-2.3,4.2a53.4,53.4,0,0,0,6-4.6l2.4-2.4,8.4,1.5a19.6,19.6,0,0,1,5.3,5.5c2.8,4,3.2,4.9,3.2,4.9s-5.3-2.9-10.7-2.6-12,5.8-14.5,7.7a11.6,11.6,0,0,0-1.2-2.3l9.3-7.8-11.2,5.6a11.7,11.7,0,0,0-4.7-2.6l1.7-8.8-4.1,8.4h-.8a11.7,11.7,0,0,0-4.2.8" transform="translate(272.3 274)" style="fill:#b71f36;fill-rule:evenodd"/><path d="M-174.2,3.5l-24,5.8a3.5,3.5,0,0,0-3.2-2.1,3.5,3.5,0,0,0-3.5,3.5,3.5,3.5,0,0,0,3.5,3.5,3.5,3.5,0,0,0,3.3-2.3l37.2-.7,37.2.7a3.5,3.5,0,0,0,3.3,2.3,3.5,3.5,0,0,0,3.5-3.5,3.5,3.5,0,0,0-3.5-3.5,3.5,3.5,0,0,0-3.2,2.1l-26.5-6.4c-.3.5-2.4,3.5-4.6,3.5s-2.9-.4-2.9-.4l-15.1-1.4a5.5,5.5,0,0,1-1.4-1.1" transform="translate(272.3 274)" style="fill:#b71f36;fill-rule:evenodd"/><path d="M-180.3-245.6c-1.2-2.7-4.3-11.4,1.8-19,7.3-9,24-8.4,32.6-3.3s13.9,10.2,21.8,10.1,8.9-3.2,8.9-3.2-.5,4.2-3.6,6.5-4.9,2.4-4.9,2.4-4.5-.1-7.1-1.9l-2.9-2s2.5,8.1,19.4,9.2,32.1,1.1,42.2,7,11.5,10.4,11.5,10.4-7-2.9-12.7-2.8-6.5.5-6.5.5,5.3,2.4,8.4,11.8,7.7,21.2,18.9,24.7,18.7-5.3,18.7-5.3-3.4,15.5-22,12.4-24.6-17-29.5-24a27.7,27.7,0,0,0-12.8-9.4,32.4,32.4,0,0,1,9.7.5c4.2,1.1,8.5,5.1,8.5,5.1s-4.5-13.3-21.2-13.5-21.8,3.1-32.9-1.2-17.5-21-17.5-21a14.7,14.7,0,0,1,8.5,3.8,28.3,28.3,0,0,1,4.7,5.3s-.2-14.5-12.2-20.5-21.4,0-23.1,3.9-1.1,6-1.1,6-1.5-.4-2.7-2.9a12,12,0,0,1-1.2-4.5,16.9,16.9,0,0,0-1,8.8,14.9,14.9,0,0,0,1.9,5.4l-2.4.7" transform="translate(272.3 274)" style="fill:#b71f36;fill-rule:evenodd"/></svg>