<svg id="Layer_1" data-name="Layer 1" xmlns="http://www.w3.org/2000/svg" viewBox="0 0 589 644.5"><title>Knigh390_4c</title><path d="M34.1-283.7C-83-297.7-212.9-223.5-245.2-87a218.1,218.1,0,0,0-29.2,22.5C-286-31.1-291.8,2.3-294.5,35.7l45-19.5c6,38.3,22.1,75.1,47.4,110.5q-.1,27.7-.1,55.5c12.4,61.2,55,109.9,143,140C6.7,301.1,43.4,265.6,68.4,224.4,234.4,174,275.6,40.7,264-88.8a281.7,281.7,0,0,1,27.2,50.6c14.9-73.2-24-141.9-68.3-186.1L247.2-211C212.1-319.3,65.8-358.4,34.1-283.7" transform="translate(294.5 322.2)" style="fill:#050000;fill-rule:evenodd"/><path d="M46.6-257.2c-12-32.3,26.6-61.1,75.6-51.4,38.2,7.6,73.7,33.2,95.1,65.1-20-6-35.5-12.1-49-7.6C217.7-223.1,271.7-154.3,283-82.5c-22.2-34.9-47.8-64.3-78.1-85.9-22.9-52.3-67.3-87.2-101.5-90.4,12.6-5.3,28.8-7.8,50.3-6.4-35.9-33.4-99.7-28.1-107.2,7.9" transform="translate(294.5 322.2)" style="fill:#b71f36;fill-rule:evenodd"/><path d="M7.2-259.3c-5.7-5.4-5.5-7.8-11.9-6.7,2.6,2.3,5,4.6,7.2,6.9l4.7-.2" transform="translate(294.5 322.2)" style="fill:#fff;fill-rule:evenodd"/><path d="M-4.3-258.2c-8.9-6.8-9.2-11.8-18.4-4.7a74,74,0,0,1,10.8,5.5l7.6-.8" transform="translate(294.5 322.2)" style="fill:#fff;fill-rule:evenodd"/><path d="M-20-255.7c-9.8-4.1-13.2-8.2-23.7-1.3,8,.1,15.8.9,23.7,1.3" transform="translate(294.5 322.2)" style="fill:#fff;fill-rule:evenodd"/><path d="M-32.7-251.2c-25,.8-28-1.6-31.5,9.4,7.2-2,15-2.7,22.3-4.1a54.7,54.7,0,0,1,9.2-5.3" transform="translate(294.5 322.2)" style="fill:#fff;fill-rule:evenodd"/><path d="M19.9-244.1c-4.2-4.8-8.6-8.6-13.8-9.9-12.8-1-26.6,3.4-40.7,9.1a87.8,87.8,0,0,1,18.8,16.3c11.1-8.1,22.8-13.9,35.6-15.5" transform="translate(294.5 322.2)" style="fill:#fff;fill-rule:evenodd"/><path d="M77.6-221.5c-4.5-6.3-15-15.1-24.5-17.5a34.4,34.4,0,0,1,8.7-9.2c9.2-2.3,21.4,4.3,23.6,13.4a44.4,44.4,0,0,1-7.8,13.3" transform="translate(294.5 322.2)" style="fill:#fff;fill-rule:evenodd"/><path d="M-26.6-218.7l-13.6-11.5A318.9,318.9,0,0,0-91.7-227l-15.3,8.5c16-.7,32-1.4,46.1-.6a130.8,130.8,0,0,1,24.1,15c.9-.9,9.2-13.7,10.1-14.6" transform="translate(294.5 322.2)" style="fill:#fff;fill-rule:evenodd"/><path d="M-45-151.3l7.5-32.2c10.2-9,21.4-15,32.7-20.6,10.5,15.4,24.5,21.5,67.4,36.1a43.3,43.3,0,0,0,3.1,18.8c-.8-21,10.5-36.4,23.5-31.7,9,3.9,10.6,40.7-4.4,47.2-5,2.2-11.7.5-15.4-5.6-3,6.9-4.4,15.6-3.7,26.9-6,4.2-11.6,10.2-16.5,18.8a104.9,104.9,0,0,0-11.7-15.3l-7,4.2a156,156,0,0,1,12,21.5l-3.1,4.9a110.8,110.8,0,0,0-15-22.9,49.6,49.6,0,0,1-8.9,4.2Q24.8-83.4,33-69.2l-3.6,6.1C22.6-73.6,15.6-84.2,8-94.8a70.7,70.7,0,0,1-9.3,4l21,31.1H4.9C-2.8-70.5-11-81.3-19.5-92c18.7-7.8,36.8-15.7,53.2-23.9-15.1,4.9-31.8,9.7-49.5,14.6l1.5-11.1c17-3.6,34.2-7.9,51.6-14.9l3.2,2.4-2.6,5c7.6-5.8,23.3-28.8,14.9-27A541,541,0,0,1-16-134.5c2.2-19.4,2.5-39.3,7-57.2-6.9,18.2-11.3,39.1-14,54.6l-22-14.2" transform="translate(294.5 322.2)" style="fill:#fff;fill-rule:evenodd"/><path d="M71.1-158.1c3.7,12.7,19.1,9.3,19.9-8.5,4.2,7.8,3,24-5.3,28.8s-18.8.6-14.6-20.3" transform="translate(294.5 322.2)" style="fill:#050000;fill-rule:evenodd"/><path d="M-65.5-205.8l-14.6,1.3C-141-155.7-201.9-107.2-262.9-61.3a539.1,539.1,0,0,0-14.9,75.1c25.6-13.2,51.1-26.6,75.6-41.7,2.2-17.2,3.3-34.1-2.4-50.2-15.7.5-33.5,7.8-52.3,14,11.2-7.2,36.6-18.5,50.7-21.1,46.6-41.6,93.3-84.3,140.7-120.7" transform="translate(294.5 322.2)" style="fill:#fff;fill-rule:evenodd"/><path d="M-54.5-204.8c-44.3,28.2-92.6,73.3-142.1,123.1,2.1,7.3,3.8,14.7,5.2,22h24.7q62-71.7,123.9-136.7a47.9,47.9,0,0,0-11.7-8.5" transform="translate(294.5 322.2)" style="fill:#fff;fill-rule:evenodd"/><path d="M104.2-163.7c-.4,13-3,25.8-9.7,38.1,8.9-4.4,16.5-14.1,23.9-24.2a72.2,72.2,0,0,0-14.2-13.9" transform="translate(294.5 322.2)" style="fill:#fff;fill-rule:evenodd"/><path d="M111.6-126.4c15.8-13.1,29.9-37.6,33-59.7,38.9,14.4,65.5,34.3,85.9,56.9a171.4,171.4,0,0,1,9.4,25,271.8,271.8,0,0,0-26.1-15.2c42.2,29.9,43.8,80.6,31.9,134.9-4.8-62.2-17.1-119.6-73.3-148.3,49.8,30.4,54.3,149.6,25,262.2-22.9,26.9-48.8,50.8-83.5,65.7C163.6,138,191.8,69.9,196.1,10.3c5-69.4-16.5-125.8-60.9-132,18.8-12.7,30.1-27.2,28.9-44.8-8.3,20.2-35,36.6-52.5,40.1" transform="translate(294.5 322.2)" style="fill:#b71f36;fill-rule:evenodd"/><path d="M56.6-89.3c14-27.6,64.7-31,89.8-14.7s32.8,61,10.1,93c16.3-72.8-68.3-98.1-99.9-78.3" transform="translate(294.5 322.2)" style="fill:#fff;fill-rule:evenodd"/><path d="M82.4-54V41.7c14.1-15.4,28.2-30.8,43.1-43.9C120-26.3,107.2-44.8,82.4-54" transform="translate(294.5 322.2)" style="fill:#fff;fill-rule:evenodd"/><path d="M31.9-271.1A109.2,109.2,0,0,0,2.6-272c9.8,9.2,19.2,18.3,27.9,27.5a72.7,72.7,0,0,1,9.6.4C35.1-250.9,32.6-260.2,31.9-271.1Z" transform="translate(294.5 322.2)" style="fill:#1e4ca0;fill-rule:evenodd"/><path d="M-8.4-269.7l4.8-2.7-7.8.6Z" transform="translate(294.5 322.2)" style="fill:#4964ae;fill-rule:evenodd"/><path d="M-23.8-270.3a59.6,59.6,0,0,0-9.8,1.1,13.9,13.9,0,0,1,5.1,3.2A18.9,18.9,0,0,1-23.8-270.3Z" transform="translate(294.5 322.2)" style="fill:#1e4ca0;fill-rule:evenodd"/><path d="M-115-208.1c-1.1-3.6-1.1-7.2-1.1-10.8,6.2-4.4,13.6-8.9,21.3-13.3,6.9-2.1,13.5-2.9,20-3.9.8-8.2,2.9-14.9,7.4-18.6a50.6,50.6,0,0,1,15.6-2.5A20.7,20.7,0,0,1-40.2-268c-97.2,18.1-165.8,90.4-188.2,167.7L-98.7-203.1Z" transform="translate(294.5 322.2)" style="fill:#1e4ca0;fill-rule:evenodd"/><path d="M-44.6-133c-3.7-5.3-8.8-13.2-11.1-18.3.3-3.9,5.4-19.8,8.1-29.7L-148.9-59.6h135c-14.3-16.1-34-38.3-37-47.8C-50.9-111.9-46.7-124.5-44.6-133Z" transform="translate(294.5 322.2)" style="fill:#1e4ca0;fill-rule:evenodd"/><path d="M-202.4,104.3c-.1-37.4.4-74.9.3-112.3a199,199,0,0,1-35.3,18.1A218.7,218.7,0,0,0-202.4,104.3Z" transform="translate(294.5 322.2)" style="fill:#1e4ca0;fill-rule:evenodd"/><path d="M-188.4-45.6H67.9V189.1c-21,50.5-56.4,93.6-126.4,118.8-76.4-26.1-112.5-69.3-129.6-120.7q-.2-116.4-.4-232.8" transform="translate(294.5 322.2)" style="fill:#fff;fill-rule:evenodd"/><path d="M-177,185.4c18.3,53.3,56,88.6,118.4,110.8,55.8-21,92.6-55.9,115.5-109.4V-34.6H-177.4l.2,99.7Z" transform="translate(294.5 322.2)" style="fill:#050000;fill-rule:evenodd"/><path d="M-58.7,288c-58.1-21.2-93.3-54.3-110.7-103.9l-.4-211H49.2V185.3C27.5,235.1-6.8,267.8-58.7,288Z" transform="translate(294.5 322.2)" style="fill:#b71f36;fill-rule:evenodd"/><path d="M-3.7-190.7s8.9,18.3,60.2,27c-1.8,10.4-2.1,12.2-2.1,12.2s-29.8,9.2-62.1,11.4C-4.9-186-3.7-190.7-3.7-190.7Z" transform="translate(294.5 322.2)" style="fill:#fff;fill-rule:evenodd"/><path d="M-4.6-95s39.1-17.4,46.4-24,14.7-19.8,14.7-19.8l7.5,4.2a103.5,103.5,0,0,0-1.5,20.8A66.4,66.4,0,0,0,50.3-98.7L40-112.6S17.8-97.6-2.2-92.3Z" transform="translate(294.5 322.2)" style="fill:#fff;fill-rule:evenodd"/><path d="M-9.5-105.7V-111a285.8,285.8,0,0,0,45-13C20.6-114.7-9.5-105.7-9.5-105.7Z" transform="translate(294.5 322.2)" style="fill:#fff;fill-rule:evenodd"/><path d="M72.4-162s2.3-13.3,9.4-15.6,7.9,8.5,7.9,8.5-1.3,10.2-7.9,13.6S72.4-162,72.4-162Z" transform="translate(294.5 322.2)" style="fill:#fff;fill-rule:evenodd"/><path d="M27.9-197.8l16.4,10.9s14.6,6.7,21.4,7.2a40.8,40.8,0,0,1,12.5-7.9v-10.3L60.6-220.7l-19.3-9.5-5.9-.9-3.9,15.3Z" transform="translate(294.5 322.2)" style="fill:#fff;fill-rule:evenodd"/><path d="M-25.8-205.5C-19.3-220,.4-234.3,30-236c30.8,5.2,48.4,23.5,55.6,47.3a18,18,0,0,0-7.4,1.3C73-203.7,61.6-222.8,38.6-229c9.5,5.4,10.2,33,5.7,42.2C15-198,13-208.2,0-217.4a133.7,133.7,0,0,0-25.8,12" transform="translate(294.5 322.2)" style="fill:#fff;fill-rule:evenodd"/><path d="M76.2-100.3s28.7-18.1,67.7,0c27.5,15,19.8,61.7,19.8,61.7S157.7-103.5,76.2-100.3Z" transform="translate(294.5 322.2)" style="fill:#fff;fill-rule:evenodd"/><path d="M82.4,23.3,115.1-11c-7.4-22.3-21.7-31.9-21.7-31.9L82.4-31.1Z" transform="translate(294.5 322.2)" style="fill:#fff;fill-rule:evenodd"/><path d="M-256.9-64h0c11.2-7.2,36.6-18.5,50.7-21.1,46.6-41.6,93.3-84.3,140.7-120.7l-14.6,1.3C-141-155.7-201.9-107.2-262.9-61.3Z" transform="translate(294.5 322.2)" style="fill:#fff"/><path d="M-58.9-19.1H44.3l-.4,202C27.5,228.6-5.3,259.5-58.9,279.7Z" transform="translate(294.5 322.2)" style="fill:#fff;fill-rule:evenodd"/><path d="M-42.7-228.6l-16.7,8s-9.7-2-41.1,0l9.4-5.1S-57.7-229-42.7-228.6Z" transform="translate(294.5 322.2)" style="fill:#fff;fill-rule:evenodd"/><path d="M181.8-8S178.1,130.5,81.1,198.2A74.5,74.5,0,0,0,85.6,153S156.1,110.1,181.8-8Z" transform="translate(294.5 322.2)" style="fill:#b71f36;fill-rule:evenodd"/></svg>