<svg id="Layer_1" data-name="Layer 1" xmlns="http://www.w3.org/2000/svg" viewBox="0 0 558.3 649.8"><title>Lion853_1c</title><path d="M-112.3-249.7c-2.7-2-5.3-4.1-7-7.1.6-4.5-1.3-9.6-4.3-15.1,2.3,10.2,1.7,14.3-4.9,22.2l6.9-3.7C-118.3-251.4-115.3-250.7-112.3-249.7Z" transform="translate(279.1 325.3)" style="fill:#050000;fill-rule:evenodd"/><path d="M-143.3-241.9l9.8,7.9-3.7-9.7c8.5-7,1.6-11.3-8-16.6,3.1,3.5,8.1,6.7,7.7,10.3a7.6,7.6,0,0,1-5.9,1.5c-8.9-6-17.1-6.8-22.2-7.3-6,2.2-8,4.3-10,9.1,7.5-5.2,9.7-6.3,17.6-2.1a16.3,16.3,0,0,0-12.8,7.6l2.4-.5,11,2.3C-152.5-238.7-147.6-238.9-143.3-241.9Z" transform="translate(279.1 325.3)" style="fill:#050000;fill-rule:evenodd"/><path d="M-51.2,173.8c1.8-2.2,9-8.1,13.3-9.8a128.2,128.2,0,0,1,13-17.5C-37.9,154.5-43.2,159.7-51.2,173.8Z" transform="translate(279.1 325.3)" style="fill:#050000;fill-rule:evenodd"/><path d="M-97.5,165.7c2.8-2,8.6-6.2,14.1-6.6,14.1-4.9,8.2-7.7,17-14.2C-86,148-86.2,149.3-97.5,165.7Z" transform="translate(279.1 325.3)" style="fill:#050000;fill-rule:evenodd"/><path d="M-82.1-222c1,2,2,5.4,3,7.3-3.4,2.5-7.2,2.7-11.4,3.6a16.4,16.4,0,0,0,12.8,0c.6,1.7,1,3.3,0,4.6-1.6,3.4-7.9,2.5-12.2,2.2,3.5,2.3,7.8,2.4,12.5,2.6a9.7,9.7,0,0,1-.8,5.7c-3.8.5-7.5-.4-11.3-1.6a18.8,18.8,0,0,0,10.8,4.8c-.4,1.8-1.6,3.4-2.9,3.6-5.2-3.6-13.8-4-22-4.8a54.5,54.5,0,0,0,1.2-14.3c6.6-4.1,10.6-9.8,11.6-17.5-1.1-3.5-3.6-7-5.8-10.5,4.7.5,9.8-1.1,12.6-.3-.6-3.1-3.7-6.6-8.6-7.8a22,22,0,0,1,5.7-2.1,20.3,20.3,0,0,1,6.1,5.2,13.5,13.5,0,0,0-7.4-9.8c-1.6-.4-4.3.3-8.8,2.6s-4.9,2.9-8.8-1c.6-2.8,2.7-3.7,4.4-5.2-3,.4-8,2.1-7.9,7.1,6.1,5.9,11.8,12,13.6,20.4a14.8,14.8,0,0,1-9.5,4.1c-13.4-4.2-20.3-4.5-25.4-3.7,5.8,7.4,10.9,15.4,22.3,18.8,1.7,3.4,1.6,8.8,1.7,14.1-9.8-.7-21.1,1.9-32.7,5.2-4.2,1.2-3.4.6-4.9-3.4,7-1.2,14-2.3,20.1-6.1a121.7,121.7,0,0,1-21.6,1.1c-.3-1.3-.1-3.4-.4-4.7,9.2,0,17,0,22.5-3-7.8.3-15-1-23.2-2.2a8.4,8.4,0,0,1,.2-6.5c9.9,3.7,15.9,3.7,21.4,2.6-6.9-1.7-14.5-2.1-20.7-5.6-.3-1.3.7-3.5,1.7-4.8-.9.7-2.8.1-6.3,4.9-2.4-1.9-4-1.5-6.6-2.5,2.1,2.5,4.3,5,4.4,7.8-.5,6.1-2.3,9.9-4.4,15.6a82.2,82.2,0,0,0-4.6,36c1.1-5.8,2.1-11.6,3.6-17.3,4.7,19.9,11.1,38.1,14.5,58.1q1.3,7.6,3,15.1c12.3,13.5,35.7,14.9,50.6.8,2.3-27.1,4.8-54.1,10.5-81.2,1.1-1.2,3.2-4.2,5-11.1C-72.3-203.6-73.2-216.3-82.1-222Zm-44.7,34.2a120.4,120.4,0,0,0-2.9,17.8,35.4,35.4,0,0,1-5.1-15.4Zm-6.5,84.9c2.5-6.3,6.4-8.4,6.1-9.3.6,4.5,0,8.2.9,12.7C-129.9-98.5-131.5-100.9-133.3-102.9Zm33.7,1.6c.9-4.5.4-8.2.9-12.7-.3.9,3,2.3,5.4,8.6C-95.3-103.9-96.6-101.6-99.7-101.3Zm6-10a28.1,28.1,0,0,0-7.3-8,90.8,90.8,0,0,1-2.4,19.6c-6.1,3.5-12.4,2.7-18.7,1.2-.9-2.2-2.6-9.8-4.7-20.2l-9.6,10.9c4-11.5-4.2-38.2.4-46.5,3.2-5.7,12.4-8.2,17.4-2a59.7,59.7,0,0,1,8.1,26.2c2.2-6.6,2.5-17-1.4-27.1,10.4-6,14.8,5.2,16.8,11.4C-92.2-136.2-92.5-127.8-93.6-111.3Zm3.8-58.7a120.4,120.4,0,0,0-2.9-17.8l8,2.4A35.4,35.4,0,0,1-89.9-169.9Z" transform="translate(279.1 325.3)" style="fill:#050000;fill-rule:evenodd"/><path d="M278.3,258.2c-1.1-15.1-4.1-23.6-9.2-32.3-3.4-21.9-4.5-60.1-6-87.9-.4-10.3.4-16.5-1.5-20.8-6.4-14.2-23.6-16.7-31.5-31.5-9.9-18.6-7.3-58.4-11.7-95.4-3.1-9.4-8.6-20.7-11.7-30.1,23.1-12.3,44.7-19.4,56.8-39.7,24.9-41.7,3.5-88-34.9-111.4-28.3-17.3-56.6-20.2-88.2-27.2-18.1-4-69-8.6-73.1-32.3-1.7-10,.6-15.3,10.3-18.7,20.2,14.1,37.1,19.3,52.6,19.1,21.2-.2,47-20.4,63.1-17.9C174-301.2,123.2-323,88.2-305.3A66.3,66.3,0,0,0,67-288.5c-45.8,20-24.4,63.3,13.3,81.1s77.9,14.5,112.6,34.1c21.5,12.1,63.4,48.4,42,76-9.4,12.1-28.2,19.8-48.6,26.8-10.6-6.4-22.1-11.2-34.2-15.8-39.9-15.3-66.4,4.1-96.2.7-12.7-1.4-22.2-9-28.3-20.2-2-27.8-29.1-42.2-51.2-59.4-4.2-8.3-7.4-17-4.1-28.1,2.1,5.5,4.9,10.1,9.2,12.8-3.1-18.2-1.8-33.6-10.7-55.3q3.3-12.2,2.2-19.8c-2-13.3-16.1-13.5-26.8-16.5-25.1-44-73.6-55.8-106.8-52.6,5.2,2.4,10.1,4.1,14.6,12.8-16-14.2-32.7-8.9-40.5-6.7,5.9,1.4,13.2,3.3,17.4,10.4-17.6-9.1-25.5-7.9-41.1-1.1,6.3-.3,13.9,2.2,16.9,5.1-16.9-2.5-28.9,3.3-33.1,10.7,5.6-1.6,9.3-2.5,14-1-13,1.2-20.3,11.8-24.6,20-19.8,2.8-31.3,11.5-20.5,36.3-11.2,26.2-21.2,52.3-20.8,77.9l11.8-9c-16.1,35.4-16.6,70.4-3.1,105a103.9,103.9,0,0,1,6-17.3c7.8,65.5,27.9,108.7,55.1,140,20.2,23.3,46.7,37.9,62.2,65.4a147.7,147.7,0,0,1,12.7,30.4c-9.8,26.3-26.7,52.5-46.1,78.8-11.9,4.1-23.9,15.5-35.8,26.1a28.9,28.9,0,0,0-15.1-1.3c-20.7-9.4-24.1,3-26.9,16.2s-3,24.1-1.9,36.1c2.8,12,11.6,10,19.6,9.8,4.5,3.7,10.9,2.9,17.4,1.9,8.5,4.1,17.1,2,25.7,1.6,10.4,2.5,20.9,1.1,31.4-2.5,5.8-17.4,23.7-21.8,39.6-28.5a316.7,316.7,0,0,0,19-31.4c8.7,1.5,17.3.7,26-.3,6.9.6,12.5-1.6,13.3-14.2a75.4,75.4,0,0,0,10.9-12.8c6.8-10.7.9-16.6-1.1-27.3a39.2,39.2,0,0,1-.7-7.1l18.4-16.5c15-2.6,15.8-3.9,18.7-14.9C-6.6,149.2,7,129.9,15.5,107.3c4.1,13.3,10.1,23.9,19,30.4,13.6,10.2,12,22.4,7.3,37-6.9,13.6-12.7,26.2-16.2,37.7q-8.7,8.5-17.4,10.8c-6-2.2-10.6-2-14.2,0-8.1,4.3-17.2,26-12.3,34.2q3.5,5.8,16.3,3.6c12.1,0,23.5,1.3,37.2-2,4.6-6.2,10.1-13.5,16.9-16.7,13.7-6.3,10.8-7.5,17.6-25.6,10.4-19.6,24-42.7,34.4-62.3,8-10.5,7-18.8,2-26.2C93.2,114.6,93.2,101,91.6,87.4c5.6-3.3,11.2-5.4,16.8-8.6,13.7,19,26.4,31.3,38.5,39.8,18.3,13,47.1,13.3,60.9,30.3,4.6,5.7,8.7,18.6,10.1,28.7,2.7,18.4,4.8,31.1,4.2,48.1-12.5,10.8-18.4,24.6-17,36s13,18.6,30.6,20c11.5,2.1,20.9.1,29.8-3.1C278.5,274.1,280.7,271.8,278.3,258.2ZM248.8-124.3c-5-24.3-29.1-46.5-57.7-60.3s-64.8-16.9-95.7-25.1C37.8-225.1,39.3-277,71.6-281c.5-9.4,18.3-18.9,28.4-22.2,20.5-6.6,43.4-1.7,61.1,14.5-13.2-5.2-27.9-9.8-46.5-10,13.6,3.8,23,8.2,26.7,11.4-26.4,1.5-37.8-3.8-48.3-1,13.1.3,24.5,8.9,35.4,13.8-12.2,9.5-42,.5-56.5-.5-18.2,7.3-14.8,26.7-5.5,36.7,28.7,30.6,92.2,25.7,130.3,41.1,42.2,17,71.3,48.8,68.7,84.5s-32,52.1-63.4,64.7c-5.5-3.8-6-9.4-11.5-13.1C224.2-72.4,255.5-91.9,248.8-124.3ZM-24.9-145c13,9.6,22,20.5,25.3,33-7.6-10.4-18.9-18-31.1-25-18.7-10.2-26.2-23.1-30.6-36.7C-51.5-162-39.8-152-24.9-145Zm12,59.8c-4.8-11.2-12.8-20.1-21.3-28.7C-48.7-125.3-55-136.7-61-148.2c10.3,10.9,21.3,20.9,33.8,28.7C-15.8-107.3-9.7-95.7-12.9-85.1ZM-62.6-200.7c5.4,3.3,10.9,8.5,16.8,17.9s7.5,15,8,21.1A95.6,95.6,0,0,1-62.6-200.7Zm29.3-56.5c2.7,7.4-2.3,14.8-6.6,22.2l-2.6-7.9c2.1-1.4,3.9-2.8,4-4.9a25.8,25.8,0,0,1-4.7,2.6l-1.4-3.9c2.6-.8,5.4-1.4,6.8-3-3.2-1.7-6.9-1.7-10.5-1.8,4.3-.6,8.5-1,12.4-.1-4.1-3.6-9.8-4.1-15.7-4.3l-6.9-8.1C-47.6-264.7-37.9-262.3-33.3-257.2ZM-54-237.7c-4.3-.5-7.6-2.4-9.9-10C-59.2-245.9-54.2-241.2-54-237.7Zm6.3,16.4q5.5,10.5,5.7,20.3c-9.9-11.1-17.9-22.3-22.8-33.9C-59.1-234.4-53.4-229-47.7-221.3Zm1.3,109.6c10.6,15.2,11.5,25.1,8,32.4-2.4-8.4-8.7-15.5-14.4-22.9-8.6-10.4-11.2-24-13-38C-60.2-129.4-54.6-118.8-46.4-111.7ZM-65.3-103c5.3,3.8,9.8,9.9,12.5,19.9,3.7,18.7,1.7,26.8-1.9,31.9l-4.3-16.2C-58.7-78.9-61.3-90.9-65.3-103ZM-77.4-78.9c5.3,3.8,9.8,9.9,12.5,19.9,3.7,18.7,1.7,26.8-1.9,31.9L-71-43.3C-70.8-54.8-73.4-66.8-77.4-78.9ZM-205.8-250.7q2.7,3.3-.2,5.6a32.2,32.2,0,0,0-12.6-1.1Q-212.5-252.5-205.8-250.7Zm3.1,13.1c-7.4,7.3-19.5,8.6-30.2,19.4a27.7,27.7,0,0,1,6.4-12.4Q-217.2-242.4-202.8-237.6Zm-46.3-27.1c7.7-3.2,21.5-2.2,31.6-2.8l-7.1,8.1a51.7,51.7,0,0,1-15.1.1c-6.4-2.2-10.2-.6-12.5,3.4,2.6-1.3,5.1-2.8,8-1.1a34.3,34.3,0,0,0,11,3.4,26.2,26.2,0,0,1-12.7-.2,20.3,20.3,0,0,0,12.3,4,17.8,17.8,0,0,1-11.2,1.9,17.7,17.7,0,0,0,9.9,3.7l-5.1,8.5c-4.7-.5-9.8-4.9-12.8-10.3C-256.7-253-258-261.1-249.1-264.7Zm18.7,54c11.4-8.5,18.2-9.3,24.3-9.1,4.5,1.1-29.6,20.5-50,40.5C-250-190.1-244-200.8-230.4-210.8Zm-2.9,27.6c10.7-14.1,18.4-17.5,25.7-19.4,5.7-.3-28.1,34.8-45.4,65.7C-249.4-151.7-246-166.6-233.3-183.2Zm9.1,35.1c10.4-17.7,17.5-24.7,25.7-27.8,6.5-1.1-27.8,43.8-43.7,81.8C-240-111.8-236.6-127.3-224.2-148.1ZM-228-49.9c-.3-17.7,1-34.3,10.4-56.7,7.9-19,13.9-26.1,21.5-30.3C-189.7-138.9-217.5-89.7-228-49.9Zm26.6,16.1c-2.8-15.4-4-27.2.9-48.1,4.1-17.7,8.2-27.6,14.3-32.4C-179.6-114.9-195.7-66.5-201.4-33.9Zm57.3-53.2c3.9.5,7.7.7,11.3-.9a34.6,34.6,0,0,1-16.6-7.8c.2-11.6-.1-23.3-4.4-35.7a104.2,104.2,0,0,1-.4,25.5c-2.8-16.9-7.9-32.6-14-47.9,0-16,1-31.6-1.8-49l5.1.2c.5,8.9-.2,17.2-.7,25.5,1.4-7.7,3.2-16.2,4.1-22.7s.9-6.7-3.4-10.5-13.5-8-20.9-9.4c-6.5-3.8-8.7-7.6-6.6-14.4,1.2-3.9,2.7-7.6,3.6-11.5a5.8,5.8,0,0,0,4.6,3.1c-5.9-7.8-8.2-14.2-8.6-19.5,11.9-16.1,32-24.9,56.1-27.4,5.3,2.6,10.2,5.6,12.2,11.6,4.6-3.9,5.9-7.9,7.1-11.8,14.3,7,27.5,15.5,36.8,29,5.4,7.8,1.3,13.1,1.8,22.4,3.4,6.3,6.3,12.6,9.1,18.9,3.4,8,2.4,9.1,0,17.4-6.9,23.4-10.6,47.4-14.1,71.5-1.9,12.2-2.4,23.7-.9,34.1C-90-92.4-95.3-89-102.2-88c3.8,1.7,8,.7,12.4-1.6C-105.2-74.2-122-71.5-144.1-87.1Zm-98.7,398.9c-4.2,1.9-7.5.8-10.5-1.7-.8-17.2.1-33.6,6.9-46.9,3.2-.4,6.8-1.6,9.7,1.2C-244.9,279.1-245,295.9-242.8,311.8Zm17.4,2.6c-4.2,1.9-7.5.8-10.5-1.7-.8-17.2.1-33.6,6.9-46.9,3.2-.4,6.8-1.6,9.7,1.2C-227.6,281.7-227.6,298.5-225.5,314.4Zm21.2.1c-4.6,1.8-8,2.6-12.6.6-2.5-16.7-1.8-32.2,4.7-45.4q6.6-2.6,13.3,1.9C-206.3,284.2-207.2,298.7-204.3,314.5Zm473.7-47.6-10.8,4.6c-.4-15.1-1.8-26.4-6.4-33.4.1,3.9,1.4,8.2,1.5,12.1-.1,7.8.7,16.1-1.3,23l-10.8.8c-.6-6.7-2.2-14.3-2.7-21s1.6-11.3,1.9-17.4c-1.7,5.7-4,10.8-5.7,16.5s.2,14-.1,20.7l-6-.8c-2.6-15.1-3.4-20.9,3.5-33-12.3,11.9-11.2,14.8-10.8,31.5l-7.5-3.3.2-17A53,53,0,0,1,230.6,232c2.2-21.2-1.9-57.3-9.4-77.5-4.9-13.3-12.4-19.3-20.5-23-18.5-8.4-36.2-12.2-53.4-24.7-12.8-9.3-23.5-20.6-33-33,31.2-20.3,27.3-53.9,18.4-89.3,1.3,35.3,2,67-33.8,86-24,12.8-44.3,5.4-52.4-1.4,12.2-17.4,9.7-38.1,5.9-59.1.2,32.4-10.6,55.3-29,71.7C21.6,73,27.1,62,36,49.8,10.6,66.1,14,94.4-2.8,119.2c-10.6,17.6-24,36.2-30.6,52.5-18.6,7.1-33.9,20.6-47.2,36.7-19.5,23.5-35,52.5-50.5,75.5-18,5.9-33.5,14.9-43.6,30.5-7.6.5-15.3,1.2-21.6-2q-3.8-23.8,6.1-37.4c5.4-2.7,10.8,1.2,16.1,7.1-2.1-12.9-9.7-17-21-15.2-1.7-3.1-5.8-4-10-5.3,7.8-5.8,13.7-10.7,18.9-13.7,17.4-9.8,27.3-7.9,34.9,6.6.2-13.5-8.3-17.8-18.5-21.4,15.9-21.5,33-44.4,41.3-67.9,3.6-6.8,9-13,14.7-19a41.5,41.5,0,0,0,4.8,20c-.4-15.4-.3-29.7,2.9-43.2q20.3-37.1,39-76l5.7,11.9c.3-55.9,6-70,42.3-112.6l-10.5,5.2c6.9-9.6,10.2-19.7,11.9-29.9C-11-65.6-7.7-51.9-6.9-37.6,6.6-54.4,10.5-73.2,8.8-93.2l10,18.5C34.2-62.5,37.6-48.1,41.6-33.8,45.1-64.9,30.2-70,30.2-88q7,10.7,21.2,13.6c17.4,3.5,32-4,49-5.9,36.7-4.1,68.2,2.1,90.6,34.8a109.7,109.7,0,0,1,14.9,33c8.4,30,5,61.4,11.8,91.6,5.1,22.8,25.4,27.7,35.7,41.9,3.4,4.7,3.4,11.9,2.7,20.7l6.4,77.3c.8,8.5,2.3,15,5.4,17.1C271.1,243.7,273.9,258.7,269.4,266.9Z" transform="translate(279.1 325.3)" style="fill:#050000;fill-rule:evenodd"/></svg>