<svg id="Layer_1" data-name="Layer 1" xmlns="http://www.w3.org/2000/svg" viewBox="0 0 557.4 618.7"><title>Lion Face981_1c</title><path d="M140.9,78c41.1-30.3,85.9-47.2,133.3-55-45.8-52.7-122.7-19.2-150.6-79,17.6-24.9,36.8-48.2,71.6-55a156.5,156.5,0,0,1-16.5,28.7c17,11,52.2-15.1,60.8-36.8,5.6-.2,19.8-42,16-68.6,3.7-6.5,7.3-11.2,4.9-16.4-10.9-23.1-51.8-38.9-75.1-36.8-3.8-2.4-10.2-4.5-20.3-6.1A127.1,127.1,0,0,0,125-270.3c-15.4-16.3-37-28.2-71.3-31C18.1-322-72-312.2-112.5-281.4-275.3-237.2-327.5-4.8-243.6,85.4c29.5,111,101.1,168.1,175.9,221.1C-35,210.2,68.3,139.2,202,79,183.6,77.1,162.9,77.1,140.9,78Zm-5.3-180.6c9.8-20.5,8.5-47.1-1.2-59.9,13.1-2.3,26.1-3.4,39.2-.7C174.6-137.8,154.8-109.7,135.5-102.6ZM190.1-86a51.2,51.2,0,0,0,10.4-18.5c8.6-5.8,15-13,18.5-22a64.3,64.3,0,0,1-12.2,11.1,78.2,78.2,0,0,0,1-14.6c-2.9,5-6.1,9.4-10.5,11.3a112.5,112.5,0,0,0,1.3-15.6,38.2,38.2,0,0,1-11.1,9.5l1.1-13.7a61.4,61.4,0,0,1-10,7.5l.5-13.7a33.3,33.3,0,0,0,2.1-17.4c25.8,5.9,44,15.6,50,31.4C227.2-106,201.7-83.8,190.1-86Zm41.7-83c2-1.8,5.9.1,11.6-6a138.9,138.9,0,0,1-6.6,32.2,71.4,71.4,0,0,0-7.6-9.7A130.8,130.8,0,0,0,231.9-169ZM69.2-272.1A119.1,119.1,0,0,0,49-263.5C28.6-285.8-8.2-296.4-67.7-290.9,8.7-304.5,48.1-293.5,69.2-272.1ZM-182.8-154c2.7,9.6,9.3,18.7,15.2,24.3C-210.2-79.8-229.9,7.6-223.8,84.5-246-10.6-228.7-112.9-182.8-154Zm39.1-21.9c11.9,2.1,25.7,2,42.6-1.8A167.6,167.6,0,0,0-117-158.7c-7.7,3.5-15.3,5.6-23,2.8,1.9,4.7,8.1,6.4,14.5,7.9l-6.8,8.6c-17.7-4.3-33.8-10.5-32.6-37.5a26.5,26.5,0,0,0-7.8,11.6c.4-18,8.5-26.6,22.6-37.1,9.4-7.1,57.6-10,85.9-15.2-7.5,4.9-14.4,12.4-20.4,19.8-35,13.2-57.5,6.2-63,11.6-5.5,7.9-11.7,19.7-3.5,28.8C-153.1-163.8-146.5-171-143.7-175.9Zm-66.8,294.5c-4.6-37.8-1.9-75.6,3.4-113.4.6,66.8,10.3,127.2,28,182.3C-194.3,164.9-208.2,142.2-210.6,118.7Zm48.4-218.8c-18.2,56.6-17.2,110.4-6.1,151.6C-170.1-50.7-139.8-137.8-60-205.7c6.8-6.4,21.6-9.8,40.5-11.6C-147.6-138.2-194.8,79.9-120.2,231.5-199.4,139.9-207.5-17.4-162.2-100.2Zm35,156.4C-135.6-35.6-69.2-181.4-2.8-210c-9.9,14-16.2,29.1-21.6,44.4C-82.6-109.1-119.2-32.1-127.2,56.2Zm244.5,6.5c-13.1-9.2-36.2-4.4-42.2-1.7C49.1,63.9,50.6,29,41-1.2c-6.6,33.7,1.3,84.1,44.8,67.7h14.6C69,112.7,6,88.7-7.2,68.1c14.5,1,26.7-1.1,32.2-11.8-21.3-5.6-36.2-16.5-45.8-32C-9.2,30.2,2.9,32.4,15.9,28,4.3,18.1-6,7.8-10.7-4.8,2.1,5.4,12.5,6.2,22.5,5.6c.7-61.4,8.9-122.7,23-184.1-2.7,5.4-5,10.8-7.3,16.2a84,84,0,0,1-18.5-36.9A84.3,84.3,0,0,0-5-183.1C-3.1-193.4-.4-204,8.7-216.2a63.3,63.3,0,0,0-23.3,3.5c2.6-5.5,6.1-10.9,15-15.5-23.6-10.1-46.5-9-69.2-1.2C-52-240-33-249.4,6.4-248.3c-21.7-19.8-151.8-25.7-210.6,64.6,23.4-24.5,45-38.4,64.8-42.2-37.7,20.8-70.4,57.3-86.5,95.5C-250.6-71.6-263.6-11-247.8,55-277.2,17.4-275.5-51.3-263-102.6-224.5-260.8-35.7-317.5,34.3-255.8c-7,5.1-12.4,10-14.6,14.9,14.5,5.8,27.8,12,38.2,19.6a137.8,137.8,0,0,0-16.9-20.9c20.5-14.2,39.5-20.7,57.6-22.4,15.5,3.5,23.3,8,29.5,12.7-3.3,3.4-4.7,9.5-9.9,10.1-3.1-3.7-15.6-11.9-22.8-13.2-16.9,4.4-26.6,10.3-31.6,17.2,5.4-2,10.9-4,14.9-5.2a25.7,25.7,0,0,0-2.7,14.3c-3.4,2-5.9,5.2-8,8.8,12.5-7.6,38.3-13.1,60.5-17.2,15.9-2.9,29.4-4.7,39.3-1.9-10.9,2.8-19.8,4.6-24.4,8.4,20-4.3,54.4-1.5,64,3.2-12.3-.5-22.2,1.3-28.2,6.7,16,4.6,18,24.8,34.3,28.1-3.1-3.2-6.4-6.4-7.3-10.1-2.1-9.2,12.5-11.4,19.6,3,2.6,5.3,4.3,18.5-8.9,11.6,1.3,6.9,9.4,9.1,10.5,15.3.9,3.7-1,10.2-3.2,17-39.5-30.4-112-23.5-140.5,9.2a14.6,14.6,0,0,1-4.1-6.6c12.3-14.7,49.3-34.7,80.9-35-26.5-5.1-69.7,10-83.4,25.2a50.5,50.5,0,0,1,1.6-13.6c28.6-14.9,55.2-24.2,77.6-22.4-22.8-4.7-47.2-.7-72.7,10.4,2.6-5.2,5.1-10.5,12.3-14.8,20.6-7.6,39.2-9.3,55.3-3.4-5-3-13.7-5.9-26-8.4,13-1,24.8-.1,34.6,3.9-11-12.9-44.4-19.1-62.3-8.9C66.9-203.1,58-172.8,65.5-123.1,47.8-84.1,40.3-52,46.9-29.2a96,96,0,0,1,4.9-35.1C50.9-26.8,53.2,26,81.3,44.9c9.3,6.2,38.8,9.7,45.3-.7C131.6,58.6,124.7,64.4,117.3,62.7ZM111-240.6c-8.3,2.6-17.3,3.7-26.3,7.4,2.2-6.4,5.9-12,14.4-14.9C104.1-246.8,107.6-243.8,111-240.6ZM82-82.1C116.8-64.9,94.2-32,104.4-3.7,93.5,2.2,81.7,4.6,68.1.2Q57.9-52.3,65.3-87.3c21,14.8,3.3,61.5,27.2,76.3C78.7-26.6,92.1-55,82-82.1ZM110,.6C102.8,20,95.2,33.8,86.7,35.7,78.4,29,73.6,20.4,71.2,10.6,85.5,13.1,98.4,9.7,110,.6Zm2.7,18.2a61.1,61.1,0,0,1-.2,23A28.3,28.3,0,0,1,97,40.5C103.6,36.3,108.6,28.4,112.7,18.8ZM117,41.5c2-9.4,2.9-18.5,1.4-26.8,7.3.5,14.1-2.8,20.6-8.6C132.9,25.2,125.5,36.7,117,41.5Z" transform="translate(283.2 312.2)" style="fill:#050000;fill-rule:evenodd"/></svg>