<svg id="Layer_1" data-name="Layer 1" xmlns="http://www.w3.org/2000/svg" viewBox="0 0 585.8 643.8"><title>Lion Face981_4c</title><path d="M-62.8,321.9l-10.6-7.5c-77.1-54.6-148.7-112.9-179-224.2C-272.5,67.6-285.8,36.5-290.7,0s-1.6-74.5,9.2-112.6c25.6-89.6,87-155.9,164.7-177.7,30-21.9,79.5-31.6,115.8-31.6,16.9,0,40.4,2,57.6,11.2,31.1,2.9,55.3,13.4,73.8,32.1a137.4,137.4,0,0,1,38.7,22.4c7.8,1.3,13.7,3.1,18.3,5.4h2.1c28.1,0,67.7,17.5,79.5,42.5,4.2,8.9-.3,16.8-3.7,22.6,2.3,25.5-8,61.1-16.4,71.2a17,17,0,0,1-1.9,2c-9.6,19.9-36.6,42.4-58.8,42.4h0a26.9,26.9,0,0,1-14.8-4.1l-8.5-5.5,5.9-8.3,3.9-5.6c-16.6,8.9-28.6,23-39.7,38.4,13.3,22.8,36.8,27.4,63.8,32.8s58.9,11.7,82.8,39.1l11.4,13.1-17.1,2.8c-37.7,6.2-71.2,17.8-101.7,35.3,10.5.2,20,.7,28.8,1.5L239,72.9,205.9,87.8C53.6,156.5-30.4,226.9-58.6,309.6Z" transform="translate(292.9 321.9)" style="fill:#fff;fill-rule:evenodd"/><path d="M255.4-187.8c3.7-6.5,7.3-11.2,4.9-16.4-10.9-23.1-51.8-38.9-75.1-36.8-3.8-2.4-10.2-4.5-20.3-6.1A127.1,127.1,0,0,0,125-270.3c-15.4-16.3-37-28.2-71.3-31C18.1-322-72-312.2-112.5-281.4-275.3-237.2-327.5-4.8-243.6,85.4c29.5,111,101.1,168.1,175.9,221.1C-35,210.2,68.3,139.2,202,79c-18.4-1.8-39.1-1.9-61.1-1,41.1-30.3,85.9-47.2,133.3-55-45.8-52.7-122.7-19.2-150.6-79,17.6-24.9,36.8-48.2,71.6-55a156.5,156.5,0,0,1-16.5,28.7c17,11,52.2-15.1,60.8-36.8,5.6-.2,19.8-42,16-68.6" transform="translate(292.9 321.9)" style="fill:#050000;fill-rule:evenodd"/><path d="M128.2-252.1c-6.2-4.7-14.1-9.1-29.5-12.7-18,1.8-37,8.3-57.6,22.4A137.9,137.9,0,0,1,58-221.4c-10.4-7.6-23.7-13.8-38.2-19.6,2.2-4.8,7.6-9.8,14.6-14.9-70.1-61.7-258.9-5-297.4,153.2C-275.5-51.3-277.2,17.4-247.8,55-263.6-11-250.6-71.6-226-130.3c16.1-38.3,48.8-74.7,86.5-95.5-19.8,3.8-41.4,17.7-64.8,42.2,58.8-90.3,189-84.5,210.6-64.6C-33-249.4-52-240-68.7-229.4c22.7-7.9,45.6-9,69.2,1.2-9,4.6-12.4,10-15,15.5a63.3,63.3,0,0,1,23.3-3.5C-.4-204-3.1-193.4-5-183.1a84.3,84.3,0,0,1,24.8-16,84,84,0,0,0,18.5,36.9c2.2-5.4,4.6-10.8,7.3-16.2C31.4-117.1,23.2-55.7,22.5,5.6,12.5,6.2,2.1,5.4-10.7-4.8-6,7.8,4.3,18.1,15.9,28c-12.9,4.4-25,2.2-36.6-3.7,9.6,15.5,24.5,26.4,45.8,32C19.6,67,7.3,69.1-7.2,68.1,6,88.7,69,112.7,100.3,66.6H85.8C42.3,82.8,34.4,32.5,41-1.2,50.6,29,49.1,63.9,75.1,61.1c6-2.7,29.1-7.5,42.2,1.7,7.4,1.6,14.3-4.2,9.3-18.6-6.6,10.4-36,6.9-45.3.7C53.2,26,50.9-26.8,51.8-64.3a96,96,0,0,0-4.9,35.1c-6.6-22.7.9-54.9,18.6-93.8-7.5-49.7,1.4-80,32.1-97.4,17.9-10.2,51.3-4,62.3,8.9-9.8-4-21.6-4.9-34.6-3.9,12.3,2.6,20.9,5.4,26,8.4-16.1-5.9-34.7-4.2-55.3,3.4-7.2,4.3-9.7,9.6-12.3,14.8,25.5-11.1,49.9-15.1,72.7-10.4-22.3-1.8-48.9,7.6-77.6,22.4a50.5,50.5,0,0,0-1.6,13.6c13.7-15.2,56.9-30.3,83.4-25.2-31.6.3-68.6,20.3-80.9,35a14.6,14.6,0,0,0,4.1,6.6c28.4-32.6,101-39.5,140.5-9.2,2.3-6.9,4.1-13.3,3.2-17-1-6.2-9.2-8.4-10.5-15.3,13.3,6.8,11.6-6.3,8.9-11.6-7.1-14.4-21.7-12.2-19.6-3,.9,3.8,4.2,6.9,7.3,10.1-16.3-3.3-18.3-23.5-34.3-28.1,6-5.4,15.9-7.2,28.2-6.7-9.5-4.7-44-7.5-64-3.2,4.6-3.8,13.5-5.5,24.4-8.4-9.9-2.8-23.4-1-39.3,1.9-22.3,4.1-48,9.6-60.5,17.2,2.1-3.6,4.6-6.8,8-8.8a25.7,25.7,0,0,1,2.7-14.3c-4,1.3-9.5,3.3-14.9,5.2,4.9-6.9,14.7-12.8,31.6-17.2,7.1,1.2,19.7,9.4,22.8,13.2,5.3-.6,6.6-6.7,9.9-10.1" transform="translate(292.9 321.9)" style="fill:#eea620;fill-rule:evenodd"/><path d="M49-263.5a119.1,119.1,0,0,1,20.3-8.6C48.1-293.5,8.7-304.5-67.7-290.9c59.5-5.6,96.3,5,116.6,27.3" transform="translate(292.9 321.9)" style="fill:#eea620;fill-rule:evenodd"/><path d="M111-240.6c-8.3,2.6-17.3,3.7-26.3,7.4,2.2-6.4,5.9-12,14.4-14.9,5,1.4,8.5,4.3,11.9,7.5" transform="translate(292.9 321.9)" style="fill:#fff;fill-rule:evenodd"/><path d="M-64-217.6c-28.3,5.2-76.5,8.1-85.9,15.2-14.1,10.5-22.2,19.1-22.6,37.1a26.5,26.5,0,0,1,7.8-11.6c-1.3,26.9,14.8,33.2,32.6,37.5l6.8-8.6c-6.4-1.5-12.6-3.2-14.5-7.9,7.7,2.8,15.3.8,23-2.8a167.6,167.6,0,0,1,15.9-18.9c-16.9,3.8-30.7,3.9-42.6,1.8-2.7,4.8-9.3,12-7.2,18.6-8.2-9.1-1.9-20.9,3.5-28.8,5.5-5.4,28,1.5,63-11.6,6.1-7.4,13-15,20.4-19.8" transform="translate(292.9 321.9)" style="fill:#eea620;fill-rule:evenodd"/><path d="M-167.6-129.7c-5.9-5.6-12.5-14.7-15.2-24.3-45.8,41.1-63.1,143.4-41,238.5-6.1-76.9,13.7-164.3,56.2-214.2" transform="translate(292.9 321.9)" style="fill:#eea620;fill-rule:evenodd"/><path d="M-19.5-217.4c-18.9,1.9-33.7,5.3-40.5,11.6-79.8,67.9-110.1,155-108.3,257.1-11.1-41.1-12.2-95,6.1-151.6-45.2,82.7-37.2,240.1,42,331.7C-194.8,79.9-147.6-138.2-19.5-217.4" transform="translate(292.9 321.9)" style="fill:#eea620;fill-rule:evenodd"/><path d="M-2.8-210C-69.2-181.4-135.6-35.6-127.2,56.2c8-88.3,44.6-165.3,102.8-221.8C-19-180.9-12.7-196-2.8-210" transform="translate(292.9 321.9)" style="fill:#eea620;fill-rule:evenodd"/><path d="M-179.2,187.5c-17.7-55.1-27.4-115.5-28-182.3-5.3,37.8-8,75.6-3.4,113.4,2.4,23.5,16.3,46.2,31.4,68.9" transform="translate(292.9 321.9)" style="fill:#eea620;fill-rule:evenodd"/><path d="M231.9-169a130.8,130.8,0,0,1-2.6,16.5,71.4,71.4,0,0,1,7.6,9.7,138.9,138.9,0,0,0,6.6-32.2c-5.6,6-9.6,4.2-11.6,6" transform="translate(292.9 321.9)" style="fill:#eea620;fill-rule:evenodd"/><path d="M134.4-162.6c13.1-2.3,26.1-3.4,39.2-.7,1,25.5-18.8,53.5-38,60.6,9.8-20.5,8.5-47.1-1.2-59.9" transform="translate(292.9 321.9)" style="fill:#fff;fill-rule:evenodd"/><path d="M181.1-162.1c25.8,5.9,44,15.6,50,31.4C227.2-106,201.7-83.8,190.1-86a51.2,51.2,0,0,0,10.4-18.5c8.6-5.8,15-13,18.5-22a64.3,64.3,0,0,1-12.2,11.1,78.2,78.2,0,0,0,1-14.6c-2.9,5-6.1,9.4-10.5,11.3a112.5,112.5,0,0,0,1.3-15.6,38.2,38.2,0,0,1-11.1,9.5l1.1-13.7a61.4,61.4,0,0,1-10,7.5l.5-13.7a33.3,33.3,0,0,0,2.1-17.4" transform="translate(292.9 321.9)" style="fill:#fff;fill-rule:evenodd"/><path d="M65.3-87.3c21,14.8,3.3,61.5,27.2,76.3C78.7-26.6,92.1-55,82-82.1,116.8-64.9,94.2-32,104.4-3.7,93.5,2.2,81.7,4.6,68.1.2Q57.9-52.3,65.3-87.3" transform="translate(292.9 321.9)" style="fill:#b71f36;fill-rule:evenodd"/><path d="M71.2,10.6c14.3,2.6,27.2-.8,38.8-10C102.8,20,95.2,33.8,86.7,35.7,78.4,29,73.6,20.4,71.2,10.6" transform="translate(292.9 321.9)" style="fill:#fff;fill-rule:evenodd"/><path d="M97,40.5c6.6-4.2,11.6-12.1,15.7-21.7a61.1,61.1,0,0,1-.2,23A28.3,28.3,0,0,1,97,40.5" transform="translate(292.9 321.9)" style="fill:#b71f36;fill-rule:evenodd"/><path d="M118.4,14.6c7.3.5,14.1-2.8,20.6-8.6-6,19.2-13.4,30.7-21.9,35.4,2-9.4,2.9-18.5,1.4-26.8" transform="translate(292.9 321.9)" style="fill:#fff;fill-rule:evenodd"/></svg>