<svg id="Layer_1" data-name="Layer 1" xmlns="http://www.w3.org/2000/svg" viewBox="0 0 580.3 671"><title>Lion853_2c</title><path d="M-218.4,246.8c9.5-8.6,20.2-18,31.8-23,15.7-21.5,31.5-45.3,41.4-70.1a133.4,133.4,0,0,0-10.6-24.6c-5.7-10.2-13.4-18.6-21.8-26.6-13.1-12.4-27.2-23.3-39.2-37-25.2-29.1-40.4-63.2-49.4-99.6l-1.3,5-12.3-31.4c-10.3-26.3-12.8-52.7-7.8-78.8l-1.2.9-.4-21.9c-.5-26.9,9.5-53.6,19.9-78.2-8.8-24.3.6-40.6,25-46.1,16.5-30,45.9-46.2,77.7-50.1,44.5-5.3,93.9,13.6,120,52.9l3.2.7c13.5,3,25.1,8.4,27.4,23.8,1,6.8.1,14-1.5,20.8,4.9,13,6.7,24.8,8.1,38.8.5,5.1,1.1,10.2,1.9,15.3l3,17.6c19.7,14.4,39.8,29.6,42.9,55.5,4.3,6.9,10.3,11.7,18.8,12.7a59.4,59.4,0,0,0,10.6.2c12.5-.8,25.2-4.4,37.8-5.9,17.7-2.2,33.7-.7,50.5,5.7,10.7,4.1,21.3,8.5,31.4,14,13-4.6,31.1-11.6,38.7-21.5,15.5-20.1-23.9-51.3-38.7-59.6a113.5,113.5,0,0,0-20.6-8.9c-16.3-5.3-33.5-7.9-50.2-11.6-14.1-3.1-28-7-41.1-13.2s-24.7-15.1-33.3-26.4-13.5-23.5-12-37c2-17.6,14.7-29.6,30-36.8a77.6,77.6,0,0,1,23-17.6,67,67,0,0,1,9.3-3.9c39.7-13,89.9,10.4,110.5,45.6l11.7,20L191.8-257c-6.6-1-24,7.4-30.4,10-9.7,4-20.4,7.9-31,8-19.2.2-36.7-6.7-52.5-16.7a26.2,26.2,0,0,0,.4,3.4,6.6,6.6,0,0,0,.4,1.5c3.3,7.8,20.9,12.9,28.3,14.8,12,3.1,23.9,4.5,35.9,7.1,32.9,7.3,61.9,10.5,91.5,28.6,43.8,26.7,66.6,79.6,38.6,126.5-12.3,20.5-32.4,29.4-52.6,39.4,2.8,7.1,6,14.1,8.4,21.3l.3,1v1.1q.7,5.7,1.1,11.3c1.4,16.2,1.8,32.4,3,48.6.7,9,2,23.5,6.3,31.5,2.1,3.9,5.4,6.7,8.9,9.3,5.1,3.7,10.3,6.9,14.8,11.4a37.8,37.8,0,0,1,8,11.4c3.2,7.1,2.2,17,2.5,24.8.7,11.9,1.2,23.8,1.8,35.7.8,16,1.5,33.1,3.8,49,6.2,11.1,8.6,21.8,9.6,34.7,3.1,18.9-2.4,25.9-20.2,32.1-11.7,4.1-22.6,5.8-34.9,3.7-18.5-1.6-37.1-8.8-40.1-29.4h0c-1.9-15.8,6-31.2,17.1-42.2,0-14.2-2.1-27.4-4.2-41.7-.9-6-4-18.7-7.8-23.3a22.7,22.7,0,0,0-2.3-2.4c-7-6.4-19.4-10-28.3-13s-19.6-6.8-28.1-12.8C127,118,115.4,106,105.2,92.9l-1.8.9c1.1,10,2.6,18.3,10.7,26.9l.6.6.5.7c8.8,12.8,7.3,26.2-1.7,38.4-10.9,20.5-22.7,40.5-33.7,60.9-6.3,16.8-4.8,22.7-23.1,31.1-4.6,2.1-9.6,9.2-12.6,13.2l-2.4,3.3-3.9.9C23.9,273,12.5,272-1.2,272c-9.9,1.5-20.9.5-26.6-8.9-8.5-13.9,2.8-42.3,16.5-49.7,6.1-3.3,12.8-3.5,19.2-1.9a31.8,31.8,0,0,0,8-5.3c4-12.3,9.8-24.4,15.6-35.9,1.5-4.7,3.4-11.2,2.3-15.9s-3.2-6-6-8a54.3,54.3,0,0,1-12.4-13.1c-7.6,13.9-16.8,26.7-26.7,39.4-1.2,4.5-2.7,8.8-6,12.4s-11.3,6.6-17.7,7.8l-12,10.7v.6c1,5.4,3.5,10.2,4.2,15.9s-.9,13.3-4.7,19.3A76.9,76.9,0,0,1-57,251.4c-2.1,12.6-9.8,21-23.5,20.2a117.5,117.5,0,0,1-20.1,1c-5,8.9-10.3,17.5-16.1,25.9l-1.8,2.7-3,1.2-7.2,2.9c-9.6,3.8-22.6,8.1-26.2,18.9l-1.7,5.2-5.2,1.8c-11.7,4-23.7,5.7-35.8,3.2-9.6.6-17.1,2-26.3-1.4-6.6.8-13.1.9-18.9-2.1-5.1.2-9.9.2-14.7-1.9-7.1-3.1-11-9.3-12.7-16.6l-.2-.7v-.7c-1.2-13-.1-26,2-38.9v-.5c1.8-8.6,4.1-17.7,11.4-23.5s18.7-5.3,27.9-1.7a40.2,40.2,0,0,1,10.6.4" transform="translate(290.1 335.5)" style="fill:#fff;fill-rule:evenodd"/><path d="M-263.6-81.8c7.8,65.5,27.9,108.7,55.1,140,20.2,23.3,46.7,37.9,62.2,65.4a147.7,147.7,0,0,1,12.7,30.4c-9.8,26.3-26.7,52.5-46.1,78.8-11.9,4.1-23.9,15.5-35.8,26.1a28.9,28.9,0,0,0-15.1-1.3c-20.7-9.4-24.1,3-26.9,16.2s-3,24.1-1.9,36.1c2.8,12,11.6,10,19.6,9.8,4.5,3.7,10.9,2.9,17.4,1.9,8.5,4.1,17.1,2,25.7,1.6,10.4,2.5,20.9,1.1,31.4-2.5,5.8-17.4,23.7-21.8,39.6-28.5a316.7,316.7,0,0,0,19-31.4c8.7,1.5,17.3.7,26-.3,6.9.6,12.5-1.6,13.3-14.2a75.4,75.4,0,0,0,10.9-12.8c6.8-10.7.9-16.6-1.1-27.3a39.2,39.2,0,0,1-.7-7.1l18.4-16.5c15-2.6,15.8-3.9,18.7-14.9C-6.6,149.2,7,129.9,15.5,107.3c4.1,13.3,10.1,23.9,19,30.4,13.6,10.2,12,22.4,7.3,37-6.9,13.6-12.7,26.2-16.2,37.7q-8.7,8.5-17.4,10.8c-6-2.2-10.6-2-14.2,0-8.1,4.3-17.2,26-12.2,34.2q3.5,5.8,16.3,3.6c12.1,0,23.5,1.3,37.2-2,4.6-6.2,10.1-13.5,16.9-16.7,13.7-6.3,10.8-7.5,17.6-25.6,10.4-19.6,24-42.7,34.4-62.3,8-10.5,7-18.8,2-26.2C93.2,114.6,93.2,101,91.6,87.4c5.6-3.3,11.2-5.4,16.8-8.6,13.7,19,26.4,31.3,38.5,39.8,18.3,13,47.1,13.3,60.9,30.3,4.6,5.7,8.7,18.6,10.1,28.7,2.7,18.4,4.8,31.1,4.2,48.1-12.5,10.8-18.4,24.6-17,36s13,18.6,30.6,20c11.5,2.1,20.9.1,29.8-3.1,13-4.5,15.2-6.8,12.9-20.4-1.1-15.1-4.1-23.6-9.2-32.3-3.4-21.9-4.5-60.1-6-87.9-.4-10.3.4-16.5-1.5-20.8-6.4-14.2-23.6-16.7-31.5-31.5-9.9-18.6-7.3-58.4-11.7-95.4-3.1-9.4-8.6-20.7-11.7-30.1,23.1-12.3,44.7-19.4,56.8-39.7,24.9-41.7,3.5-88-34.9-111.4-28.3-17.3-56.6-20.2-88.2-27.2-18.1-4-69-8.6-73.1-32.3-1.7-10,.6-15.3,10.3-18.7,20.2,14.1,37.1,19.3,52.6,19.1,21.2-.2,47-20.4,63.1-17.9C174-301.2,123.2-323,88.2-305.3A66.3,66.3,0,0,0,67-288.5c-45.8,20-24.4,63.3,13.3,81.1s77.9,14.5,112.6,34.1c21.5,12.1,63.4,48.4,42,76-9.4,12.1-28.2,19.8-48.6,26.8-10.6-6.4-22.1-11.2-34.2-15.8-39.9-15.3-66.4,4.1-96.2.7-12.7-1.4-22.2-9-28.3-20.2-2-27.8-29.1-42.2-51.2-59.4-4.2-8.3-7.4-17-4.1-28.1,2.1,5.5,4.9,10.1,9.2,12.8-3.1-18.2-1.8-33.6-10.7-55.3q3.3-12.2,2.2-19.8c-2-13.3-16.1-13.5-26.8-16.5-25.1-44-73.6-55.8-106.8-52.6,5.2,2.4,10.1,4.1,14.6,12.8-16-14.2-32.7-8.9-40.5-6.7,5.9,1.4,13.2,3.3,17.4,10.4-17.6-9.1-25.5-7.9-41.1-1.1,6.3-.3,13.9,2.2,16.9,5.1-16.9-2.5-28.9,3.3-33.1,10.7,5.6-1.6,9.3-2.5,14-1-13,1.2-20.3,11.8-24.6,20-19.8,2.8-31.3,11.5-20.5,36.3-11.2,26.2-21.2,52.3-20.8,77.9l11.8-9c-16.1,35.4-16.6,70.4-3.1,105a103.9,103.9,0,0,1,6-17.3" transform="translate(290.1 335.5)" style="fill:#26406a;fill-rule:evenodd"/><path d="M-118.6-156.3a59.7,59.7,0,0,1,8.1,26.2c2.2-6.6,2.5-17-1.4-27.1,10.4-6,14.8,5.2,16.8,11.4,3.1,9.7,2.7,18.1,1.6,34.6a28.1,28.1,0,0,0-7.3-8,90.8,90.8,0,0,1-2.4,19.6c-6.1,3.5-12.4,2.7-18.7,1.2-.9-2.2-2.6-9.8-4.7-20.2l-9.6,10.9c4-11.5-4.2-38.2.4-46.5,3.2-5.7,12.4-8.2,17.4-2" transform="translate(290.1 335.5)" style="fill:#fff;fill-rule:evenodd"/><path d="M-51.2,173.8c8-14.1,13.3-19.3,26.3-27.3A128.2,128.2,0,0,0-38,164c-4.3,1.6-11.5,7.5-13.3,9.8m-46.3-8.1C-86.2,149.3-86,148-66.4,144.9c-8.8,6.5-3,9.3-17,14.2C-89,159.5-94.7,163.8-97.5,165.7ZM-198.9,271.6c-7.3,12.7-8.3,27.1-5.4,42.9-4.6,1.8-8,2.6-12.6.6-2.5-16.7-1.8-32.2,4.7-45.4Q-205.6,267.1-198.9,271.6Zm-30.2-5.8c3.2-.4,6.8-1.6,9.7,1.2-8.1,14.7-8.2,31.6-6,47.4-4.2,1.9-7.5.8-10.5-1.7C-236.7,295.5-235.8,279.1-229.1,265.8Zm-17.4-2.6c3.2-.4,6.8-1.6,9.7,1.2-8.1,14.7-8.2,31.6-6,47.4-4.2,1.9-7.5.8-10.5-1.7C-254.1,292.9-253.2,276.5-246.5,263.2ZM71.6-281c-32.3,4.1-33.8,55.9,23.8,71.3,30.8,8.2,66.9,11.3,95.7,25.1s52.7,35.9,57.7,60.3c6.7,32.4-24.6,51.9-58.2,63,5.5,3.8,6,9.4,11.5,13.1,31.4-12.6,60.7-27.6,63.4-64.7s-26.4-67.5-68.7-84.5c-38.1-15.4-101.6-10.5-130.3-41.1-9.4-10-12.7-29.4,5.5-36.7,14.4,1,44.3,10,56.5.5-11-4.9-22.4-13.6-35.4-13.8,10.5-2.8,21.9,2.5,48.3,1-3.7-3.2-13.1-7.6-26.7-11.4,18.5.2,33.2,4.8,46.5,10-17.7-16.2-40.6-21.1-61.1-14.5C89.8-300,72.1-290.5,71.6-281Zm-172.9,26.4c-3,.4-8,2.1-7.9,7.1,6.1,5.9,11.8,12,13.6,20.4a14.8,14.8,0,0,1-9.5,4.1c-13.4-4.2-20.3-4.5-25.4-3.7,5.8,7.4,10.9,15.4,22.3,18.8,1.7,3.4,1.6,8.8,1.7,14.1-9.8-.7-21.1,1.9-32.7,5.2-4.2,1.2-3.4.6-4.9-3.4,7-1.2,14-2.3,20.1-6.1a121.7,121.7,0,0,1-21.6,1.1c-.3-1.3-.1-3.4-.4-4.7,9.2,0,17,0,22.5-3-7.8.3-15-1-23.2-2.2a8.4,8.4,0,0,1,.2-6.5c9.9,3.7,15.9,3.7,21.4,2.6-6.9-1.7-14.5-2.1-20.7-5.6-.3-1.3.7-3.5,1.7-4.8-.9.7-2.8.1-6.3,4.9-2.4-1.9-4-1.5-6.6-2.5,2.1,2.5,4.3,5,4.4,7.8-.5,6.1-2.3,9.9-4.4,15.6a82.2,82.2,0,0,0-4.6,36c1.1-5.8,2.1-11.6,3.6-17.3,4.7,19.9,11.1,38.1,14.5,58.1q1.3,7.6,3,15.1c12.3,13.5,35.7,14.9,50.6.8,2.3-27.1,4.8-54.1,10.5-81.2,1.1-1.2,3.2-4.2,5-11.1,2.3-8.6,1.4-21.3-7.5-27,1,2,2,5.4,3,7.3-3.4,2.5-7.2,2.7-11.4,3.6a16.4,16.4,0,0,0,12.8,0c.6,1.7,1,3.3,0,4.6-1.6,3.4-7.9,2.5-12.2,2.2,3.5,2.3,7.8,2.4,12.5,2.6a9.7,9.7,0,0,1-.8,5.7c-3.8.5-7.5-.4-11.3-1.6a18.8,18.8,0,0,0,10.8,4.8c-.4,1.8-1.6,3.4-2.9,3.6-5.2-3.6-13.8-4-22-4.8a54.5,54.5,0,0,0,1.2-14.3c6.6-4.1,10.6-9.8,11.6-17.5-1.1-3.5-3.6-7-5.8-10.5,4.7.5,9.8-1.1,12.6-.3-.6-3.1-3.7-6.6-8.6-7.8a22,22,0,0,1,5.7-2.1,20.3,20.3,0,0,1,6.1,5.2,13.5,13.5,0,0,0-7.4-9.8c-1.6-.4-4.3.3-8.8,2.6s-4.9,2.9-8.8-1C-105.1-252.2-103-253.1-101.3-254.6Zm-22.3-17.3c2.3,10.2,1.7,14.3-4.9,22.2l6.9-3.7c3.4,2,6.3,2.8,9.4,3.7-2.7-2-5.3-4.1-7-7.1C-118.6-261.2-120.5-266.4-123.6-271.9Zm-52.1,25.2c2-4.8,4.1-6.9,10-9.1,5.1.5,13.2,1.3,22.2,7.3a7.6,7.6,0,0,0,5.9-1.5c.4-3.5-4.6-6.7-7.7-10.3,9.5,5.3,16.5,9.6,8,16.6l3.7,9.7-9.8-7.9c-4.3,3-9.2,3.2-14.2,2.5l-11-2.3-2.4.5a16.3,16.3,0,0,1,12.8-7.6C-165.9-252.9-168.2-251.9-175.7-246.7Zm-8.7,4.2c-5.9-7.8-8.2-14.2-8.6-19.5,11.9-16.1,32-24.9,56.1-27.4,5.3,2.6,10.2,5.6,12.2,11.6,4.6-3.9,5.9-7.9,7.1-11.8,14.3,7,27.5,15.5,36.8,29,5.4,7.8,1.3,13.1,1.8,22.4,3.4,6.3,6.3,12.6,9.1,18.9,3.4,8,2.4,9.1,0,17.4-6.9,23.4-10.6,47.4-14.1,71.5-1.9,12.2-2.4,23.7-.9,34.1C-90-92.4-95.3-89-102.2-88c3.8,1.7,8,.7,12.4-1.6-15.5,15.4-32.2,18.1-54.3,2.4,3.9.5,7.7.7,11.3-.9a34.6,34.6,0,0,1-16.6-7.8c.2-11.6-.1-23.3-4.4-35.7a104.2,104.2,0,0,1-.4,25.5c-2.8-16.9-7.9-32.6-14-47.9,0-16,1-31.6-1.8-49l5.1.2c.5,8.9-.2,17.2-.7,25.5,1.4-7.7,3.2-16.2,4.1-22.7s.9-6.7-3.4-10.5-13.5-8-20.9-9.4c-6.5-3.8-8.7-7.6-6.6-14.4,1.2-3.9,2.7-7.6,3.6-11.5A5.8,5.8,0,0,0-184.4-242.5Zm-33.1-25c-10.2.6-24-.4-31.6,2.8s-7.6,11.7-3.7,18.9c3,5.4,8.1,9.9,12.8,10.3l5.1-8.5a17.7,17.7,0,0,1-9.9-3.7,17.8,17.8,0,0,0,11.2-1.9,20.3,20.3,0,0,1-12.3-4,26.2,26.2,0,0,0,12.7.2,34.3,34.3,0,0,1-11-3.4c-2.9-1.7-5.4-.2-8,1.1,2.2-4.1,6.1-5.6,12.5-3.4a51.7,51.7,0,0,0,15.1-.1Zm158.8,1.1,6.9,8.1c6,.1,11.7.7,15.7,4.3-3.9-.9-8.1-.5-12.4.1,3.6.2,7.3.1,10.5,1.8-1.3,1.6-4.2,2.2-6.8,3l1.4,3.9a25.8,25.8,0,0,0,4.7-2.6c-.2,2.1-2,3.6-4,4.9l2.6,7.9c4.3-7.4,9.3-14.8,6.6-22.2C-37.9-262.3-47.6-264.7-58.6-266.4ZM-19.2-53.8C-55.5-11.2-61.2,2.9-61.5,58.8l-5.7-11.9q-18.6,38.9-39,76c-3.1,13.6-3.2,27.9-2.9,43.2a41.5,41.5,0,0,1-4.7-20c-5.8,6-11.1,12.2-14.7,19-8.3,23.5-25.4,46.4-41.3,67.9,10.2,3.7,18.7,8,18.5,21.4-7.6-14.4-17.5-16.4-34.9-6.6-5.3,3-11.2,7.8-18.9,13.7,4.2,1.3,8.3,2.1,10,5.3,11.3-1.8,18.9,2.3,21,15.2-5.4-5.8-10.8-9.8-16.1-7.1q-9.9,13.7-6.1,37.4c6.3,3.2,14,2.5,21.6,2,10.1-15.7,25.6-24.6,43.6-30.5,15.5-23,31-52,50.5-75.5,13.4-16.1,28.7-29.5,47.2-36.7,6.6-16.3,19.9-34.8,30.6-52.5C14,94.4,10.6,66.1,36,49.8,27.1,62,21.6,73,23.4,81.6c18.4-16.4,29.2-39.3,29-71.7,3.8,21,6.4,41.7-5.9,59.1,8,6.8,28.4,14.2,52.4,1.4,35.8-19,35.1-50.7,33.8-86,8.9,35.4,12.8,69-18.4,89.3,9.5,12.4,20.2,23.6,33,33,17.2,12.5,34.9,16.3,53.4,24.7,8.2,3.7,15.6,9.7,20.5,23,7.5,20.2,11.6,56.3,9.4,77.5A53,53,0,0,0,214.4,250l-.2,17,7.5,3.3c-.4-16.7-1.5-19.6,10.8-31.5-6.9,12.1-6.2,17.9-3.5,33l6,.8c.3-6.7-.2-14,.1-20.7s4-10.8,5.7-16.5c-.3,6.1-1.6,11.3-1.9,17.4s2.2,14.3,2.7,21l10.8-.8c2.1-6.9,1.2-15.2,1.3-23-.1-3.9-1.4-8.2-1.5-12.1,4.6,7,6,18.3,6.4,33.4l10.8-4.6c4.5-8.1,1.7-23.1-1.5-30.7-3.1-2-4.6-8.5-5.4-17.1l-6.4-77.3c.6-8.8.6-16.1-2.7-20.7-10.3-14.2-30.5-19.1-35.7-41.9C211,48.8,214.4,17.5,206-12.5a109.7,109.7,0,0,0-14.9-33c-22.4-32.7-53.9-38.8-90.6-34.8-17,1.9-31.7,9.4-49,5.9Q37.2-77.3,30.2-88c0,17.9,14.9,23.1,11.4,54.2-4-14.2-7.4-28.6-22.8-40.9L8.8-93.2c1.6,20-2.2,38.9-15.7,55.6C-7.7-51.9-11-65.6-17.8-78.5c-1.7,10.3-5,20.3-11.9,29.9Z" transform="translate(290.1 335.5)" style="fill:#fff;fill-rule:evenodd"/><path d="M-126.3-99.5c-3.6.9-5.2-1.5-7.1-3.4,2.5-6.3,6.4-8.4,6.1-9.3.6,4.5,0,8.2.9,12.7m33.5-88.3,8,2.4a35.4,35.4,0,0,1-5.1,15.4A120.4,120.4,0,0,0-92.8-187.7Zm-34,0-8,2.4a35.4,35.4,0,0,0,5.1,15.4A120.4,120.4,0,0,1-126.8-187.7Zm27.1,86.4c3.1-.3,4.4-2.6,6.4-4.1-2.5-6.3-5.7-7.7-5.4-8.6C-99.3-109.5-98.7-105.8-99.7-101.3Z" transform="translate(290.1 335.5)" style="fill:#fff;fill-rule:evenodd"/><path d="M-64.7-234.9c5.7.5,11.4,6,17.1,13.6q5.5,10.5,5.7,20.3c-9.9-11.1-17.9-22.3-22.8-33.9m2.2,34.3a95.6,95.6,0,0,0,24.7,39c-.4-6-3.3-13.2-8-21.1S-57.2-197.4-62.6-200.7Zm1.3,27c4.4,13.6,11.9,26.5,30.6,36.7,12.2,7,23.5,14.6,31.1,25-3.3-12.5-12.3-23.3-25.3-33C-39.8-152-51.5-162-61.3-173.7Zm.3,25.5c6,11.4,12.4,22.9,26.9,34.3,8.5,8.6,16.4,17.5,21.3,28.7,3.2-10.6-2.9-22.2-14.4-34.3C-39.7-127.2-50.7-137.2-61-148.2Zm-4.8,8c1.8,14.1,4.4,27.6,13,38,5.7,7.3,11.9,14.5,14.4,22.9,3.5-7.4,2.6-17.2-8-32.4C-54.6-118.8-60.2-129.4-65.8-140.2Zm.5,37.2c4,12.1,6.6,24,6.4,35.6l4.3,16.2c3.6-5.1,5.6-13.2,1.9-31.9C-55.5-93.1-59.9-99.2-65.3-103ZM-77.4-78.9c4,12.1,6.6,24,6.4,35.6L-66.8-27c3.6-5.1,5.6-13.2,1.9-31.9C-67.6-69-72-75.1-77.4-78.9Zm13.5-168.8c4.8,1.8,9.7,6.5,9.9,10C-58.3-238.3-61.6-240.1-63.9-247.7Z" transform="translate(290.1 335.5)" style="fill:#fff;fill-rule:evenodd"/><path d="M-202.8-237.6q-14.4-4.8-23.8,7a27.7,27.7,0,0,0-6.4,12.4c10.7-10.7,22.8-12.1,30.2-19.4m-53.4,58.2c6.1-10.7,12.2-21.3,25.7-31.3,11.4-8.5,18.2-9.3,24.3-9.1C-201.7-218.8-235.7-199.4-256.1-179.4Zm3.2,42.6c3.6-14.8,7-29.7,19.7-46.3,10.7-14.1,18.4-17.5,25.7-19.4C-201.9-202.8-235.7-167.8-253-136.9Zm10.8,42.7c2.2-17.6,5.6-33.1,18-53.9,10.4-17.7,17.5-24.7,25.7-27.8C-191.9-177-226.2-132.1-242.2-94.2ZM-228-49.9c-.3-17.7,1-34.3,10.4-56.7,7.9-19,13.9-26.1,21.5-30.3C-189.7-138.9-217.5-89.7-228-49.9Zm26.6,16.1c-2.8-15.4-4-27.2.9-48.1,4.1-17.7,8.2-27.6,14.3-32.4C-179.6-114.9-195.7-66.5-201.4-33.9Zm-17.2-212.5a32.2,32.2,0,0,1,12.6,1.1q2.8-2.3.2-5.6Q-212.5-252.5-218.6-246.3Z" transform="translate(290.1 335.5)" style="fill:#fff;fill-rule:evenodd"/><path d="M41.7-71.7s12.6,6.6,34,3.1,73.7-18.6,102.4,16.1S207.7,55.9,208.9,69.7s5.4,21.4,5.4,21.4a66.1,66.1,0,0,1-18-27.7c-5.4-17-.9-73.7-30.2-108.4S73.2-45.6,41.7-71.7M19.9-62.3S39.1-35.2,38.2-10s-34,36.9-34,36.9S14.6,7.3,15.5-2.7s-2.8-23.6-2.8-23.6S4.2-3.4-6.9,7-29.2,37-29.2,37l.6-28.7S-15-4.9-9.4-14.7A88.2,88.2,0,0,0-1.2-33.9S16.8-45.6,19.9-62.3Z" transform="translate(290.1 335.5)" style="fill:#fff;fill-rule:evenodd"/><path d="M71.6-281l2.9.6-3,2.1,2.2,1.3L72-275.2c14.4,1,44.3,10,56.5.5-11-4.9-22.4-13.6-35.4-13.8,10.5-2.8,21.9,2.5,48.3,1-3.7-3.2-13.1-7.6-26.7-11.4,18.5.2,33.2,4.8,46.5,10-17.7-16.2-40.6-21.1-61.1-14.5C89.8-300,72.1-290.5,71.6-281" transform="translate(290.1 335.5)" style="fill:#fff;fill-rule:evenodd"/><path d="M-60.6,78.9A51.8,51.8,0,0,0-43,78.6c8.8-1.9,9.8-2.2,9.8-2.2s-10.7,21.4-19.5,29.9S-65.7,118-65.7,118l-18.6,7.9s17-23.6,23.6-46.9" transform="translate(290.1 335.5)" style="fill:#fff;fill-rule:evenodd"/></svg>