<svg id="Layer_1" data-name="Layer 1" xmlns="http://www.w3.org/2000/svg" viewBox="0 0 490.9 429.4"><title>mustang588_1c</title><path d="M227.4,52.9c-11.8-8.7-19.2-15.4-19.2-15.4a35.7,35.7,0,0,0,8.9,2.2c5.1.6,15.1-2.3,15.1-2.3S219.7,29.7,220.6,18A58.6,58.6,0,0,1,225.1-.4c10.4-25.9,3.9-46.6-17.5-64.3C198.7-72,187-77.5,171.7-78.5c-45.5-3-67.7,18.8-73.6,25.8-34.4-22.6-71.6-5.2-81.6-1.7s-26,7.3-36.9,3.2-17.3-19-18.4-24a35.5,35.5,0,0,1-.6-10.4s1.5,2,6.4,2,7.5-6.4,7.5-6.4-6.4.4-8.4-4.8-.1-10.1-.2-12.7a25.1,25.1,0,0,1,.1-4.2s13.7.6,16.1-13.7-6.8-17.5-6.8-17.5,2.9,12.7-3.9,12.6-8.5-9.4-8.8-23.9-6.8-20.4-9.5-23-8-3.9-8-3.9.9-1.3,5-1.5a14.7,14.7,0,0,1,7.2,1.6s-1.2-14.5-19.3-17-33.9,7.6-42.4,7.6-10.8-1.2-10.8-1.2,6-4.1,7.5-11.3-2.3-10.5-2.3-10.5-6.3,16.8-28.2,7.9c-12.1-4.9-31.1-5.9-45.2,2.5l-6.2-7.7a67.4,67.4,0,0,0-.1,9.3c.1,1.2.2,2.2.2,2.9l-2.4,2.5a21.9,21.9,0,0,1-2-4,23.8,23.8,0,0,1-1.4-5.3s-2.2,7.2-1.8,11.4c.2,1.7.4,3.3.5,4.5-3.7,6.9-5.6,16-4.9,27.5,0,0-16.5,14.8-24.6,25.6S-237-118.8-237-118.8l-6.3,6s-.7,10.8-1.5,16.7a78.9,78.9,0,0,0-.7,8.6,64.6,64.6,0,0,1,6.4,7.3,23.3,23.3,0,0,1,3.7,8l3.5,1.3,6-5.6a40.9,40.9,0,0,1,7.5-1.2,25,25,0,0,1,5.9.9s9.9-8.8,13.5-10.7,4.2-2.9,4.2-2.9a41.9,41.9,0,0,0,.4-5,8.6,8.6,0,0,0-1.2-3.9s5.1-4.7,8.2-6.3a16.4,16.4,0,0,1,4.1-1.8,37.6,37.6,0,0,0,12.9,2.6c7.2.1,8.8-.4,8.8-.4s5.3,6.3,8.2,19.2.3,21.4.3,21.4l-7.2,20.5s-2.3,20.3-1.8,26.6,4.4,13.3,4.4,13.3l.6,14.3s-29,15.5-41.1,22.4-17,10.8-17,10.8-10.1.3-10.2,4.7,0,21.1,2.9,23.7,8.3,3.5,8.3,3.5,32.2,14.2,44,21.4,16.7,10.5,21.2,10.1,29-8.5,29.7-9.1,16.5-8.9,16.5-8.9-4.4-15.1-19-17.7-18.1,1-18.1,1l-2.5,12.6-2.9,2s-1.8-8.8-6.4-9.7-23.3-7-33.2-10.7L-195,62.7l-1.2-2.6s32.9-13,44.8-14.6a70.8,70.8,0,0,0,20.5-6,80.2,80.2,0,0,0,9.5,2.9,14.8,14.8,0,0,1,3.9,1S-109.6,63-104,78.5s4.7,18.7,4.7,18.7-1.8,12.9-.6,17.3,9.9,10.4,9.9,10.4,5.7,18.3,6.9,31.3,1.5,17.3,1.5,17.3l-5.3,11.7H-92a84.4,84.4,0,0,0-12.7,16.1c-5,8.6-6.4,13.9-6.4,13.9h42.3l4.4-20-1.5-2.5s.2-6.9,4.8-10.6c8.8-7.1,7.1-6.5.6-18.9-3.1-6-4.7-12.4-7.1-24-5.4-25.7-3.2-30.6-3.2-30.6a18.8,18.8,0,0,0-2.6-5.9c-2.1-3.3-2.1-4-2.1-4l-1.5-43.4,5.9-1.5s22.2,7.9,44.2,9.4S5.3,61.3,5.3,61.3s7.6,20.2,32.2,29.5,38.9,9.7,38.9,9.7L48.8,160.7,32.5,179.1l-3.2.3a42.6,42.6,0,0,0-13.5,16.1c-4.7,10.2-5.3,14.6-5.3,14.6H54.4V192.6l.9-4.7a21.2,21.2,0,0,1,9.7-12.3c7.9-4.7,11.4-5.3,12.3-10.8s3.5-22.5,12-38.6,14.6-21.9,14.6-21.9,8,1.7,17.8,3,12.2,1.2,12.2,1.2a100.2,100.2,0,0,1,29.3,38.2c10.4,24.4,7.8,30.6,7.8,30.6l-4.8,8.3-5.6-2.4a105.3,105.3,0,0,0-9.8,14.5A122.8,122.8,0,0,0,143,216h42.4V195.8s5.4-13.3,8.5-17.4,7-8.5,2.9-14.3-18.3-25.4-23.1-46.2-6.7-30.3-9.1-33.2-8.2.6-14.3-2.5-13.5-21.5-16.7-26.8l-5-8.2S140.4-1,117.1-34.5c2.6-1.8,7.8-4.6,17.2-5.3,14.8-1,20,10.4,20,10.4s1-1.9-.1-7.6a21.8,21.8,0,0,0-4.7-9.5s13.5,0,12.7,21.1S134.6,6.3,137.1,35.3s20,32.6,20,32.6a21.1,21.1,0,0,1-3.2-5.3,32.3,32.3,0,0,1-2.3-9.7s1.6,3.4,11.7,11,18.7,8.6,38.3,13.5,18.9,34.1,10.7,35.7a11.4,11.4,0,0,1-12-5s2.9,13.7,12.9,13.9,23.7-4.5,30.3-25.7S239.3,61.6,227.4,52.9ZM-174.5-202.7c25.3-9.1,29.1,1.8,46.1,2.3s17.8-6.6,17.8-6.6.7,3.9-3.5,8.9-8.2,6-8.2,6-2.5-1.8-8.8-1.3-8,2.8-8,2.8a23,23,0,0,1,11.4-.4c6.6,1.3,9.8,5.4,20.5,5.6s23.7-9.7,38.8-9.4,19.6,8.9,19.6,8.9-4.5-1.2-7.8.4-3.5,2.6-3.5,2.6a26.4,26.4,0,0,0-10.5,0c-5.9,1.2-7.5,3.1-7.5,3.1s11.6-2.5,21.6,1,15.2,13.2,15.2,23.1,2.2,28.7,10.8,28.2,8.3-7.8,8.3-7.8,2.6,13.9-4.7,16.4-8.6,2.2-8.6,2.2-.3-9.2-3.7-14a17.1,17.1,0,0,0-8-6.3A25.8,25.8,0,0,1-39.2-117c-.7,12.4-1.9,19-.1,23.1s4.1,5.1,4.1,5.1-2,1.2-6.1-1.9A15.9,15.9,0,0,1-46.6-99s-.3,4.7,1.2,7.8,2.3,3.8,2.3,3.8a24.8,24.8,0,0,0-1,9.2c.4,5-.7,7.2-.7,7.2s-1.2-6-3.5-9.1a20.7,20.7,0,0,0-3.4-3.8c.3-17.6-2.2-34.3-8.9-48.7a14.2,14.2,0,0,1,6.6,2.9c5.6,4.2,6.9,14.5,6.9,14.5s2-9.8-4.1-17.7a14.5,14.5,0,0,0-12.5-5.7,75.2,75.2,0,0,0-7.4-10.8,12.2,12.2,0,0,1,6.3.4c6.8,1.9,13.2,11.3,13.2,11.3s-2.5-13.4-13.1-16.6c-6.2-1.9-9.9-1.5-11.8-.9q-2.4-2.4-5.1-4.6a19.2,19.2,0,0,1,6.6-1.5,22.6,22.6,0,0,1,12.2,2.8s-2.4-6.4-11.9-6.7c-6.2-.2-9.7,1.1-11.3,2l-4.1-2.7c1.4-1.4,6-5.2,17.5-5.1,14.2.1,20.3,16.6,20.3,16.6s-1.2-18.4-20.8-20.9c-14.2-1.8-24.1,1.4-28.5,3.3a115.2,115.2,0,0,0-15.5-5.8c2.8-1.6,6.5-1.3,17-1.8s13.8-7,13.8-7-1.3,1.3-6.1,3.1-15.9,1.3-26.1.5c-6.4-.5-10.4.9-12.4,2.1l-4.9-.6-3.9-.3,2.5-1.5c3.9-2.2,13.2-2.4,13.2-2.4s-2.2-1.9-10.7-1.6a15.2,15.2,0,0,0-11.1,5.3,87.2,87.2,0,0,0-12.4.8,20.1,20.1,0,0,1,4.7-7.6c4.1-4.1,14.3-5.3,14.3-5.3-15.3-.6-21.5,7.6-23.7,12.2l-2.2-2.8-10.7-8.6c8.8-6,21.7-6.2,21.7-6.2-10.7-1.4-18.4.6-24,4.2-1.1-1.1-2.3-2.4-3.5-3.8A34,34,0,0,1-174.5-202.7Zm-14.1,9.7c.6,2.8,1.3,5.2,1.7,6.5-4.4,7-5.6,15-6,19l-4.5,3.5S-198.7-180.8-188.6-193Zm13,241.9c-15.1,5-24,8.9-24,8.9l-5.4-1.8a75.2,75.2,0,0,1,5.3,5.6l1.5,1.9s16.1,8.9,26.3,12.4,18.4,4.8,20,6.4,6,13.2,6,13.2l1.5-4.2,6.3-5.1a19.4,19.4,0,0,1,8.6,2.6,10.2,10.2,0,0,1,5.3,6.9s-19.6,5.3-25.6,5.1-17.4-9.2-39.1-18.9l-26-11.6s-3.8-1.8-4.5-4.1-1.5-14.6.1-17.1,13-5.1,13-5.1l-1.6-1.3s48.9-26.2,55.7-29.7l2.8,2.6a49.7,49.7,0,0,0,4.1,13.2c3.1,6.1,5,8,5,8S-160.5,44-175.6,49Zm226,40.5C30.8,83.9,22.9,74.6,22.9,74.6c12.9.6,27.5-2.3,27.5-2.3A87.7,87.7,0,0,0,60.4,81c6.4,5,21.1,12.9,21.1,12.9S70,95,50.4,89.5Zm34.2,33.8A94.8,94.8,0,0,0,72.2,162c-.7,5.7-2.3,4.8-11.1,10.1s-11,15.8-11,15.8-2.3-.7-6.1-2.3-9.5-3.5-9.5-3.5c1.3-3.4,10.1-10.5,14.8-15.2s3.4-3.2,6.7-9.8,25.4-55.6,25.4-55.6l8-2.9,9.1,3.4S95.2,104.8,84.6,123.3Zm38.6-75.4s1.3,3.4,5.4,11.1,8.8,21.8,15.1,26.3,15.1,1.9,17.6,4.2.9,7.3,8.6,31.3,18.2,40.4,21.9,44.8,1.4,5.5-2.1,10.5-8.2,18.4-8.2,18.4-.6-.6-4.4-3.5a31,31,0,0,0-8.5-4.4l6.7-10.2s0-16.4-10.2-37.2-29.3-36-29.3-36S102.2,102.1,68,79.6,32.4,17.3,32.4,17.3s-1.9,2.2-4.8,10.2a38.4,38.4,0,0,0-2.5,14.3S19.8,47.3-8.7,53.4s-44.2-9.6-44.2-9.6.5-2.1,1.3-7.2-1.8-12.9-1.8-12.9a28.1,28.1,0,0,1-7.4,17.3c-7.5,8.3-19.7,8.1-19.7,8.1A24.2,24.2,0,0,0-84,45.2a26.7,26.7,0,0,0-4.2-2.9,27,27,0,0,1,2,2.6c1.5,2.1,4.2,6.2,4.2,6.2l1.9,48.9s5.7,6.7,5.7,9.2-1,9.8,1.9,30.9c1.8,13.1,6.2,20.9,9.6,26.8s3.7,7.2-2.3,13.1c-3.8,3.8-4.1,12-4.1,12l-14.3-5.1,6.9-11.3s.6-7.2-1.8-20.8-6.6-29.1-6.6-29.1l1.6.3-1.2-8.5s-9.5-3.4-10.8-4.7-.6-17.7-.6-17.7-1.5-8.8-5.9-25.7A170.8,170.8,0,0,0-113.8,38a38.6,38.6,0,0,1,7.8-.7c4.5,0,12.1,3.1,12.1,3.1s-5.4-5.7-12.6-7.5a29.8,29.8,0,0,0-12.7-.4s-12-13.6-15.1-27.1.6-21.9.6-21.9-3.1,1.6-5,13.5,2.5,24,2.5,24S-147.3,8.3-153-6.9s-1.5-36.4-1.5-36.4,2.6-5.6,9.4-24,4.5-32.6,4.5-32.6-.4,5.6-1.6,11.8a79.6,79.6,0,0,1-4.5,14,74.8,74.8,0,0,0-.4-18.1,58.4,58.4,0,0,0-4.8-16.5s1.5-.6,4.7-4.7a31,31,0,0,0,4.7-8.8,17.8,17.8,0,0,1,1.3,4.1,101,101,0,0,1,1.3,10.2s2-11.3-1-22.2-8-15.2-8-15.2,7.6,19.2-8.6,31.2-32.8-2.8-32.8-2.8v1.3a6.2,6.2,0,0,0,1.2,2.6s-.9.3-4.2,3.4-7.6,7.6-7.6,7.6a31,31,0,0,0-6.4.6,29.6,29.6,0,0,0-8.3,2.9,20.2,20.2,0,0,1,5.9-.7,31.6,31.6,0,0,1,7.9,1.3s3.5,5.4.4,7-12.7,10.1-12.7,10.1h-3.7a38.8,38.8,0,0,0-7.5,1.3l5.1-4.7s6.9.4,10.1-1.9,6.1-6.6,3.9-7.8-9.8.6-9.8.6l-15.8,16.8-1.5-.3s-.1-1.8-2.8-5.6a43.8,43.8,0,0,0-6.6-7.2s.6-1.5,1-7.8,1.6-14.2,1.6-14.2l3.2-3.5,3.7,3.5-1.6-6.6s2-6.7,23-28.5,34.7-26.8,34.7-26.8c1,3.7-1.2,9.7-1.2,9.7a6.4,6.4,0,0,0,3.7-4.1c1-3.2-.1-10.1-.1-10.1l-7.8-9.1-4.7-15.2a46,46,0,0,0,7.5,10.5,49.8,49.8,0,0,0,13.2,9.8l8,13.2,4.8,4.4v-10.2l-4.7-3.5s16.1-2.3,29.3.6,36,8.2,52.9,27.5,19.5,56.8,19.5,56.8-4.4-1.3-14.6,3.5S-83.3-77-83.3-77s9.2-7.6,18.6-7.3,15.4,7.8,19.6,19.2,14,25.2,14,25.2A85.1,85.1,0,0,1-34-49a58,58,0,0,1-1.4-7.5,40.1,40.1,0,0,0,22.5,13c14.3,2.6,23.3-2.9,23.3-2.9l-6,5.8s4.7-3.8,18.1-9.9,55.9-19.9,83.7,10.8S123.3,47.9,123.3,47.9ZM-184.2-182.6l5.5,7a74.9,74.9,0,0,0-7.4,3.7A24,24,0,0,1-184.2-182.6Zm422.1,273c-7,27.2-20.5,24.3-20.5,24.3s12.6-9.9,4.4-29.5-39.8-29-39.8-29,12,5.9,18.7,11.7,6.7,7.3,6.7,7.3A188.8,188.8,0,0,0,180.6,67c-13.7-2.9-25.2-13.7-28.4-23.7s-2-14-2-14-3.8,5.6-3.5,14.6,1.8,12.9,1.8,12.9-10.8-15.5-6.1-34.5,20.8-24,22.8-43.6S161-51.5,148.7-53.3s-18.4,3.5-18.4,3.5,5.9-1.8,9.9-.3,6.7,6.7,6.7,6.7-6.1-3.5-16.4-2.3a34.5,34.5,0,0,0-16.7,6.4,41.8,41.8,0,0,0-3.7-4.1c3.7-3.9,16.6-15.5,38.8-14.5,26.8,1.2,29,23.4,29,23.4s1.6-25.4-29.1-27.9a56.7,56.7,0,0,0-43.1,15l-2.7-2.2s18.1-20.8,49.7-19.3,35.1,19.3,35.1,19.3S187-62.3,175-68.2a51.6,51.6,0,0,0-24.6-4.7s27.8-10.2,58.2,16.7,6.1,60,7,73.4S223,35.1,223,35.1s-10.5.9-16.4-5.3S205.2,14,205.2,14s-8.8,14.3-1.2,24.9S245,63.1,237.9,90.4Z" transform="translate(245.5 213.4)" style="fill:#050000;fill-rule:evenodd"/><path d="M-179.4-118.7s11.3,1.6,18.9-6.3,2.8-17.7,2.8-17.7,8.3,13-.3,21.6-21.4,2.3-21.4,2.3" transform="translate(245.5 213.4)" style="fill:#050000;fill-rule:evenodd"/><path d="M-238.3-110.7a13.8,13.8,0,0,0,2.6,3.2c1.4,1.1,1.5,1.5,1.5,1.5a90.8,90.8,0,0,1-.8,9.7,8.1,8.1,0,0,1-3.5,5.5l-1.2.7,1-12.7a14.6,14.6,0,0,1,1-4.5A11.9,11.9,0,0,1-238.3-110.7Z" transform="translate(245.5 213.4)" style="fill:#050000;fill-rule:evenodd"/><path d="M-211-145.1s7.3.4,10.7.4h4.2l-6.4,5s-4.2,3.7-4.7,6.6,2.3,8.6,2.3,8.6a32.1,32.1,0,0,1-4.1-6.1c-1-2.5-.9-2.9-.9-2.9l2.5-3.5-.6-5.3S-210.7-143.7-211-145.1Z" transform="translate(245.5 213.4)" style="fill:#050000;fill-rule:evenodd"/><path d="M-122.8-57.4s-8,3.1-11.5,9.1-4.2,10-4.2,10-6.5,3.3-9.1,9.6A31.3,31.3,0,0,0-150-17.7s-3-8.9-1.1-15.4a14.9,14.9,0,0,1,6.7-8.8l.3-.4c.9-4.7,2.6-12.8,5.2-17.6a108.9,108.9,0,0,0,6.7-17.3s.1,11.4-2.2,17.7a21.5,21.5,0,0,0-1.5,7.9C-132.4-54.6-127.9-57.1-122.8-57.4Z" transform="translate(245.5 213.4)" style="fill:#050000;fill-rule:evenodd"/><path d="M-211.4,52.8s3.2,7.5,2.2,10.7a6.9,6.9,0,0,1-3.4,4.2l-2.6-2.2s4.4-4.1,3.8-12.7" transform="translate(245.5 213.4)" style="fill:#050000;fill-rule:evenodd"/><path d="M162.8,188.5s5.3,2.5,10.8,5.6,6.9,5.3,6.9,5.3l-.4,11.3h-30c1.7-4.4,5.9-14.3,12.6-22.2" transform="translate(245.5 213.4)" style="fill:#050000;fill-rule:evenodd"/><path d="M-90,188.8l19.7,7.3-3.3,14.6h-32.5c1.9-3.6,8.4-15.2,16.1-21.9" transform="translate(245.5 213.4)" style="fill:#050000;fill-rule:evenodd"/><path d="M-138.2,83.5l2.7-8.4a28.6,28.6,0,0,1,16.9,2.1c8.8,4,11.2,10.6,11.2,10.6l-13,6.3s-5.2-10.8-17.8-10.6" transform="translate(245.5 213.4)" style="fill:#050000;fill-rule:evenodd"/><path d="M31,184.6l18.6,9.2v10.8H17.6s1.2-8.8,13.5-20" transform="translate(245.5 213.4)" style="fill:#050000;fill-rule:evenodd"/><path d="M163.3-49.2a35.8,35.8,0,0,1,11.3,31.9C171.5,2.9,163.1,6,161.9,25.4S178,52.3,178,52.3s-20.7-2.7-20.3-27.9,9.9-19.2,11.8-41.7-6.1-31.9-6.1-31.9" transform="translate(245.5 213.4)" style="fill:#050000;fill-rule:evenodd"/></svg>