<svg id="Layer_1" data-name="Layer 1" xmlns="http://www.w3.org/2000/svg" viewBox="0 0 719.9 574"><title>Mustang341_4c</title><path d="M351.6,81a36.6,36.6,0,0,1-8.4,7.1,41.3,41.3,0,0,1-25,6.1A38,38,0,0,1,304.7,90l.3.9c2.8,8.5,8.3,14.4,17,16.9s14.2,1,19.7-5A30.9,30.9,0,0,0,348,92.4ZM-303-242.1l-7.5,4.5a25.8,25.8,0,0,0-9.4,10.3l1.3-.9C-312.1-232.5-306.5-236.2-303-242.1ZM140-9.5a92.6,92.6,0,0,1,4.7,17.9A109.8,109.8,0,0,0,150.9,32a71.6,71.6,0,0,0,3.4,7.7l15.4,11.9,9.8,7.3a61.5,61.5,0,0,0,5.7,4A32,32,0,0,1,195.6,73a27.9,27.9,0,0,1,4.7,18.5,55,55,0,0,0-.4,7.6c.2,8.8,3.3,18.3,6,26.5,4.8,14.7,10.9,25.5,21.4,36.8a23.2,23.2,0,0,1,6.4,19.8c-.8,5.4-2.9,9.9-5.2,14.9a11.9,11.9,0,0,0-.8,7.5l17.1,11.5.3,2.5a49.9,49.9,0,0,1-.3,10.2,151,151,0,0,1-6.4,28.7c-2.5,8.1-6.6,18.2-12.7,24.4-2.4,2.4-5.9,4.9-9.4,5h-2.8l-1.7-2.2c-2.6-3.4-5.1-6.9-7.6-10.4a82.3,82.3,0,0,1-6.3-10.5c-2.8-5.5-5.5-11.2-7.8-17-3.8-5.2-5.5-14.3-5.8-20.3-.5-8.9-.8-17.7-1.5-26.6-.4-5.2-.9-10.5-1.6-15.6a53.6,53.6,0,0,0-2.3-10.7c-1.3-3.4-2.9-6.9-4.5-10.1s-4.6-9.3-7.1-13.9-5.6-10.3-8.6-15.3c-1.4-2.2-3.9-6.5-5.8-8.3s-6.5-3.3-10.5-4c-.4,2.1-1,4.1-1.4,5.5-1.1,3.7-2.7,7.5-4.2,11.1s-4.1,10-6,15-3,7.9-4.3,11.9a63.5,63.5,0,0,0-2.5,9.4,26.7,26.7,0,0,0,.6,11.4c.9,3.5,2.4,6.8,3.4,10.3a31.4,31.4,0,0,1,.9,4.5,14.2,14.2,0,0,1-2.5,9.9,21.2,21.2,0,0,1-2.6,3L122,216l15.9,12.2.2,2.4a34.8,34.8,0,0,1-.6,7.7,95.4,95.4,0,0,1-6,20.2c-2.8,6.8-6.6,13.5-11.9,18.8a27.9,27.9,0,0,1-7.2,5.4l-3.4,1.6-2.7-2.5A68.4,68.4,0,0,1,94,265.2a69.8,69.8,0,0,1-4.2-10.2,162.7,162.7,0,0,1-4.7-17,79.7,79.7,0,0,1-3.2-12.8c-1-5.6-.5-12,.2-17.6,1.1-9.3,2.9-18.8,4.6-28,1.4-7.2,2.8-14.3,4.1-21.5s3-16.4,3.8-24.5c.2-2.3.9-10,.2-12.6-2.7-1.4-13.6-2.2-16.2-2.4-11.5-.9-22.7-1.9-33.9-4.3-8.6-1.8-16.6-6.5-23.4-11.7A134.9,134.9,0,0,1,1,82.9c-2-2.3-3.9-4.7-5.8-7.1l-2.2.7c-5.5,1.6-11.1,2.9-16.7,4a246.3,246.3,0,0,1-60,3.8c-18.8-1-38.3-4.7-55.3-12.4-5.1-2.3-11.9-5.9-16.5-9.7l-2.9-.2a64.5,64.5,0,0,1-8.2,1.1,290.4,290.4,0,0,1-31.4.6A173.4,173.4,0,0,1-234.5,59a97.9,97.9,0,0,1-12.1-3.6l-8.2,1.2a62.8,62.8,0,0,0-3,11.2c-1,6.2-.6,11.2-.6,17.3a6.8,6.8,0,0,0,1.4,4c1.9,3.1,3.2,5.4,3.7,9.1a21.4,21.4,0,0,1-.9,8.6,53.9,53.9,0,0,1-3.6,8.5h17.5l1.6,2.3a37.1,37.1,0,0,1,3.2,6.3,100.8,100.8,0,0,1,5.3,18.5,76.3,76.3,0,0,1,1.3,21.2,45.4,45.4,0,0,1-1.4,8.7l-1.9,6.5L-271.6,160l-.6-1.9c-5.6-2.6-12.2-6.9-14.7-12.1a47.8,47.8,0,0,1-4-13.4l-1.8-3.6-10.2-2.9-5-8.7a31.6,31.6,0,0,1-8.3-6.7c-6.7-7.5-2.5-24.4.8-33.2a82,82,0,0,0,2.5-8.6c1.2-4.5,2.2-9.1,3.3-13.7q2.7-11.7,5.2-23.5a48.7,48.7,0,0,1,.3-10.6c1-8.7,9.3-17.2,17.3-20.3,3.9-1.5,9.2-1.3,13.3-1.3A171.3,171.3,0,0,0-255.1-1a96,96,0,0,0,16-2.7c-1.7-4-3.3-8.1-4.7-12-3-8.1-4.6-18.7-4.8-27.4v-.7l.2-.7a45.9,45.9,0,0,1,3.3-7.8,78.8,78.8,0,0,1,4.6-7.8c1.7-2.6,3.4-5.2,5.2-7.7-.1-9.4-1.3-22.5-6.3-30a15,15,0,0,0-2.9-3.2,22.3,22.3,0,0,1-2.7,2.4,34.6,34.6,0,0,1-6.9,3.8l-.7,1.3c-.7,1.4-1.4,3-2,4.4l-3.5,8.2-5.2,12.3c.1,1.8.2,3.7.3,5.4a33.3,33.3,0,0,0,.7,6.1l1.2,3.5L-280.9-38l-.6,3.9-13.2,9.4-2.6-.8a51.1,51.1,0,0,1-17.6-9.4c-5.2-4.6-10.5-11.2-14.6-16.8l-.8-1-.2-1.3a58.3,58.3,0,0,1-.2-9.7c.1-3.8.4-7.8.6-11.6q.6-9.8,1.3-19.6,1-14.6,2-29.2l-.9-1a12.9,12.9,0,0,1-2.9-6.3l-.2-2,4.2-6.5c-10.2-2.2-18.3-10.5-23.7-19.2s-9.4-18.1-9.6-28.2c-.1-3.6.5-8.5,2.2-11.7l9.2-17.5.6,8.4a86.4,86.4,0,0,1,3.4-13.1c3.4-10,9.4-19.8,19.4-24.4,3.8-1.7,9-2.8,13.1-2.1l10.8,2A27.1,27.1,0,0,0-300-251c2.7-12.7-5.3-19.2-12.7-24,11.7-.1,23.7-.6,32.3,8.7a36.7,36.7,0,0,1,3.3,4.1c3.8-6.7,8.7-13.1,14-17.1a39.9,39.9,0,0,1,18.4-7.3,38.3,38.3,0,0,1,9.1-.3l19.7,2.3h.1c21.6-3.7,36.4-1.9,45.4,18.4-11.7-4.7-25-6.3-34.7,1.7a41,41,0,0,1,12.5.4c7.4,1.5,11.1,4.5,16.8,8.9a18.7,18.7,0,0,0,7.1,3.8c4.2,1,9.2.5,13.4-.4,6.6-1.3,11.4-4.2,11.8-11.4s-3.5-15.2-5.5-21.3c17.3,3.5,40.9,16.6,51,40.5,4,9.4,4.2,19.3-1.5,28.4-2.4,3.7-7.6,11.9-13.4,17.7,4.8,1.2,10.6,1.2,15.4.9,18.4-1.1,37.8,1.5,48.4,18,4.2,6.6,5.8,14.6,5.9,22.5a57.3,57.3,0,0,1-1,11.7l-4.5,21.4-6.3-20.5c-1.7-5.4-6.2-12.6-11.7-14.6l-.5-.2a52.1,52.1,0,0,1,3.4,8.4A38.5,38.5,0,0,1-62.7-131a28.2,28.2,0,0,1-2.9,8.1l-8.5,14.3L-76-124.8a70.6,70.6,0,0,0-2.1-10.1,34.9,34.9,0,0,1-2.8,9.2c-3.7,8.1-5.3,18.2-5.4,27.1l.2.3a82.8,82.8,0,0,0,9.9,5,144.9,144.9,0,0,0,31.6,9.7,104,104,0,0,0,33.2,1.4L1.5-83.9c5.3-.7,10.5-1.3,15.8-1.6C46.8-87.4,76-82,99.8-64.6c9.5,1.8,20.4,1.3,28.1-5.8a153.7,153.7,0,0,0,12.1-13c4.4-5.2,8.8-10.3,13.6-15.2,11.6-11.8,24-20.4,40-24.8,12.6-3.5,26.3-5.1,39.1-2.9,4.4.7,10.5,2.3,14.4,4.6l15.2,9.1a121,121,0,0,1,30.9,8.4c22.4,9.5,36.3,27.6,42.3,50.9a105.9,105.9,0,0,1,3.3,23.7,79.4,79.4,0,0,1-.3,10.4L335.5-1.5,330.3-14A92.7,92.7,0,0,1,328,3.7c-2.2,10-5.6,19.6-8.1,29.5-1.4,5.5-3.4,14-1.1,19.3a13.5,13.5,0,0,0,11.7,8.4c20.7,1.7,15-21.4,7.2-30.9,27.9,2.9,22,39.2,21.3,63.9a58,58,0,0,1-1.6,10.8,59.9,59.9,0,0,1-9.4,21.5c-16.9,23.5-45.7,22.4-70,15.4-31.9-9.2-52.4-31.3-60.6-63.2a128.9,128.9,0,0,1-3.9-32.1c0-1.6,0-3.2.1-4.9a22.7,22.7,0,0,1-15.4-1c-4.6-2.1-8.6-5.4-10.4-10.2a14.2,14.2,0,0,1-.9-7l1.7-10.4,7.6,6.9a14,14,0,0,0,6.5,3.1c5.6.8,9-5.4,10.8-9.8a34.2,34.2,0,0,0,.3-26.8,30.6,30.6,0,0,0-5.4-8.8l-1.2-1.2a28.2,28.2,0,0,1,2.5,13.1A20.1,20.1,0,0,1,199.4,6.2a26.5,26.5,0,0,1-9.1,3.3l-12,1.7L185.1.9a18.4,18.4,0,0,0,2.6-6.7c.6-4.1-2-5.6-5.7-6.5s-6.9-1.4-10.7-.2-6.2,2.4-9.9,3.1c-6.3,1.2-12.9.9-19.2.1Z" transform="translate(359.9 287)" style="fill:#fff;fill-rule:evenodd"/><path d="M-229.7-66.4s-7.9,11-10.4,16.2a43.4,43.4,0,0,0-2.9,6.6s.3,14.5,4.4,25.6,7.2,17.4,7.2,17.4-8,3.6-23.4,5S-279.9,4-284.9,6s-12.7,8.3-13.6,15.6-.2,10.1-.2,10.1-8.4,39.7-11.5,47.7-6.2,22.5-1.8,27.5,8,6.1,8,6.1l4.8,8.3,10.4,3,3.2,6.6a43.6,43.6,0,0,0,3.6,12.6c2.9,6.1,14.2,10.5,14.2,10.5l.7,2.1,31.1,15s3.2-10.9,0-27.2-7.7-22.9-7.7-22.9H-261s-4.8-1.8-3.1-5.5,5.8-10.3,5.1-16.2-5.1-7.4-5.1-13.8-.5-10.8.7-18.2a78.7,78.7,0,0,1,4.6-15.5l13-1.9s17.7,7.6,48,8.3,39-1.7,39-1.7l5.6.3s20.8,19.3,70,22,80.5-9.5,80.5-9.5S21.2,103.4,46,108.7s47.9,3.3,53,8.2-2.4,40.3-6.8,63.4S86,216.2,87.4,224a75.4,75.4,0,0,0,3.1,12.3s3.8,17.2,8.5,26.2a64.9,64.9,0,0,0,11.3,15.1s9.2-4.2,16.1-21,6.2-25.3,6.2-25.3l-12.3-9.5s-6.5,2.3-6.5-3.3,10.6-7.8,9.6-16.2-6.8-14.6-4.8-27.7,14.7-40.1,17.1-48.3,1.7-10.3,1.7-10.3,13.7.6,19.5,6,23.3,38.7,27.4,49.5,5.1,41.8,5.8,54.5,5.1,17.8,5.1,17.8,7.2,18.1,13.7,27.1l7.5,10.3s8.9-.3,16.8-25.3,6.5-36.6,6.5-36.6l-16.4-11.1a16.1,16.1,0,0,1,.3-13.4c3.4-7.5,9.2-18.3-.3-28.6s-16.8-21-22.6-38.8-7.2-25.2-5.8-36.5-7.5-20.6-12.3-23.2S150,43.5,150,43.5s-7.7-13.3-10.8-34.1a99,99,0,0,0-8.5-26.7A76.4,76.4,0,0,0,143-14.8c26.7,3.3,22.9-7.5,40.5-3s6.2,21.7,6.2,21.7S203.4,2,204.1-10.7,194.5-31,194.5-31s3.6-1.5,11.3,0,22.9,22.7,12.8,46.2-26.3,8.9-26.3,8.9-1.2,7.1,8.2,11.4,19.2-2.7,19.2-2.7-11.9,82.8,59.9,103.6S353.3,94,353.3,94s-8.4,26.2-33,19.1-22.8-35.5-22.8-35.5S306,87.2,319,88.5s32.5-6.8,34.9-25.6-7.9-26.2-7.9-26.2,3.1,2.7,2.1,17.2-27,18.6-34.5.8,16.8-52.1,9.9-81.6-27.4-39.7-27.4-39.7,7.5.1,21.5,9.5,15.4,37.3,15.4,37.3,6.5-58.8-42.1-79.4-99.5-.1-99.5-.1,5.5-5.8,19.1-12.3,33.5-5.4,33.5-5.4-16.8-10-49.2-1.1-46.2,35.8-63.3,51.6c-10.5,9.6-24.8,9-34.3,7l-.9-.7c-24.6-17.9-53.7-21.5-79-19.9s-34.9,7.2-63.3,1.8S-90.2-94.2-90.2-94.2l-1.6-2.6c-.1-7.2.8-20,5.9-31.1,5.8-12.6.3-21.5.3-21.5s3.9,0,8.7,4.5,6.5,19.4,6.5,19.4,5.5-9.2,1.2-22.8-11.3-17.3-11.3-17.3,5.1-1.8,15.7,1.9,15,18,15,18,3.8-17.8-4.1-30-22-16.8-43.5-15.5-26-5.8-26-5.8,5.8-.2,19.1-21.3-15.6-44.7-15.6-44.7,9.9,22.8-2.1,33.8-29.4,3.5-29.4,3.5,11.3-2.5,19-21-8-29.4-8-29.4,11.1,25-14,30-23.4-9.1-39.5-12.2-32.1,7.1-32.1,7.1,1.4-4.6,13.3-14.8,33.7-5.4,33.7-5.4-7.7-12.3-36.1-7.4-39.7,21.5-39.7,21.5.3-5.7,5-13.1,13.3-10.7,13.3-10.7-12.7-1.5-23.4,6.5-17.5,26.1-17.5,26.1-.9-6.9-7.2-13.7-18-7.1-18-7.1,10.3,4.1,8,19.1-12.8,21.3-21.2,26.9-10.6,17.7-10.6,17.7a48,48,0,0,1,0-19.9c2.4-10.1,13-16.5,13-16.5s-17.1-3.1-26,22.6a82.9,82.9,0,0,0-1.7,48.1,21.9,21.9,0,0,1-8.5-10.5,57.2,57.2,0,0,1-3.2-14.5s-6.5,12.4,7.2,34.4c10,16.1,20.8,17.5,25.8,17.2l-.3,5.1-5,7.8a7.4,7.4,0,0,0,1.7,3.5,15.6,15.6,0,0,0,2.2,2.4s-3.8,56.2-4,62.7a56.5,56.5,0,0,0,.2,8.6s7.7,10.5,13.8,15.9,15.6,8.3,15.6,8.3l8.9-6.3.5-3.5,16.2-14.7s-.7-1.9-1-7.6-.3-6.9-.3-6.9,9.9-23.6,11.5-26.5,2.4-3.4,2.4-3.4a31.6,31.6,0,0,0,7-3.6,12.7,12.7,0,0,0,4.1-4.6s16.6.1,16.7,41.5" transform="translate(359.9 287)" style="fill:#050000;fill-rule:evenodd"/><path d="M-268.6-123.5a22.4,22.4,0,0,1-12.7,4.8c-7.8.4-10,.4-10,.4l-6.3,5.1a15.9,15.9,0,0,1-5.5-.7c-3.5-.9-4.4-1.7-4.4-1.7a19.7,19.7,0,0,0,3.7,4.7c-2.7,3.4-11.6,16.4-2.1,31.4,0,0-2.8-3.3-.3-12.5,2-7.5,7.3-14.1,9.3-16.4l1.5.3,6.3-4.9s13.6.9,20.4-10.3m12.3-24.8s5,7.5,2.4,19.2-7,15.2-7,15.2,10.1.4,12.1-14.4S-256.3-148.3-256.3-148.3ZM-312.1-128s.8-1.8,4.4-3.6,9.3-2.3,9.3-2.3a65.4,65.4,0,0,1-3.8,6,14.3,14.3,0,0,0-2.3,4.1,6.2,6.2,0,0,1-3-1.8,9.3,9.3,0,0,1-2.1-3Zm-3.8,68.7a8.6,8.6,0,0,1,2.8-3.3,12.4,12.4,0,0,1,4.5-.9s9.6,14.7,10.1,16.1-4.2.8-7.2-3.1a96.6,96.6,0,0,1-6.1-9.2A5.7,5.7,0,0,0-315.9-59.3ZM14,15.2s4.1,10.1,9.6,14.1c1.9,1.4,3.8,3,5.5,4.5C25.2,22,23.3,12.4,23.3,12.4L12.3-13.4s16.4,17.4,21.5,30,5.5,30.9,21.2,46.2S94.4,89.4,94.4,89.4,70.8,89.1,52,74.9a37.3,37.3,0,0,1-7.4-7.7C37.3,61,19.7,43.5,14,15.2ZM27.4-66.5s-16.1,14-23.3,28A101.8,101.8,0,0,0-5.1-9.9S-7.5-27.2-2.7-41.5,8.2-60.9,8.2-60.9,17.1-66.5,27.4-66.5Zm-333.8-76.4a79.1,79.1,0,0,0-7.4,7.1c-3.1,3.5-3.4,5.1-3.4,5.1a23.8,23.8,0,0,0,2.8,6.2c1.9,2.8,3.5,4.7,3.5,4.7l-5-2.5s-.7,19.7-1.4,34.9-1.2,27.4-1.2,27.4,1.4,5.8,7.2,12.1,15.9,10.2,15.9,10.2,2.2-2,2.2-2.9-.2-10.8,1.9-18.4a52.3,52.3,0,0,1,5.5-13.1V-70s4.6,3.7,4.4,6.9-7.5,9.3-7.5,9.3l.3,6.7s10.3-7.2,11.3-11.7-1-23.3-1-23.3l2.9,5A96.4,96.4,0,0,1-270.7-90a70.5,70.5,0,0,1,6.5-10.3h-2.6s-2.4,2.9-5.1,6.7a34,34,0,0,0-3.4,5.4,80.3,80.3,0,0,1,3.9-10.7c2.2-4.7,2.7-5.2,2.7-5.2s16.2-1.1,22.9-19.9-10.8-34.4-10.8-34.4,9.9,2.5,14.4,10.3,4.8,9.5,4.8,9.5,9.1,5.3,14.2,11.7a36,36,0,0,1,6.7,13,38.5,38.5,0,0,0-8.4-7,53,53,0,0,0-4.8-2.7,72.4,72.4,0,0,1,8.9,19.6,178.3,178.3,0,0,1,4.4,25.3l4.1-3.8s.3-6.4.2-12.7a58.8,58.8,0,0,0-1.2-10.7,47.4,47.4,0,0,1,6,8.4,88.5,88.5,0,0,1,4.1,9l11.2-4.7A63.6,63.6,0,0,1-175.6-97a176.4,176.4,0,0,0-34.2,22.9,88,88,0,0,0-22.7,31s.5,12.3,8.4,20,21.5,7.9,21.5,7.9l2.9-8.8a48.6,48.6,0,0,1,8.9-6.7,37.7,37.7,0,0,1,8.9-4.2s-7.2,7.5-9.4,10.4l-2.2,2.9a94.8,94.8,0,0,0-2.1,11.7,45,45,0,0,0,1,10.7l3.9-.5s-.9-1.9,1.9-7,5-6.9,5-6.9a25.4,25.4,0,0,0,1.5,8.1A47.2,47.2,0,0,0-180-.1a43.7,43.7,0,0,1,12.7,8.5,32.7,32.7,0,0,1,8,13.1s-14-13.6-22.6-15.6-18.6,3.6-30.3,7.4-33,4-43.3,3.8-14-1.8-20,.9a12.6,12.6,0,0,0-7.2,7.8s1.8,2.6,4.1,2,4.3-2.8,6.8-3.5,4.4,2.1,4.4,2.1a32.8,32.8,0,0,0-6.5,7c-2.5,3.9-2.6,4.9-3.9,6.8a10.3,10.3,0,0,1-4.1,2.9s-2.1,29.9-3.8,42.3-3.8,23.6-2.1,29,6.8,9.3,8.5,14.7,3.1,9.6,5.5,11.8a47.8,47.8,0,0,0,6.7,4.7s.5-.5,1.2-9.8.7-12.6.7-12.6a5.2,5.2,0,0,1-5-2.7c-1.9-3.1,2.4-10.5,4.1-14.8s0-8.5-2.2-12.3-2.9-17.9-2.1-25,6-19.3,6-19.3,1.2-4.6,16.8-6.9,38.1-2.7,38.1-2.7-7.4-4.2-14-3.9a44.3,44.3,0,0,0-13,2.7s5-6.9,18.1-7.3,20.9,6.5,33.3,6.8,19.5-3.8,19.5-3.8-3.2,8.4-25,11.6-36.2,3-36.2,3,22.6,3.8,38.3,2.4,24.1-1.9,28.7-6.5,6-8,6-8a11.4,11.4,0,0,1-.2,7.2c-1.4,4.3-2.7,5.6-2.7,5.6s11.8-.7,17.1-15.6,3.3-23.7,3.3-23.7l-4.5,1.1a30.4,30.4,0,0,1-2.5,10.5c-2.4,5.5-5.4,7.6-5.4,7.6a102.3,102.3,0,0,0,.9-16.5c-.4-7.2-.9-10.1-.9-10.1s17-5.7,22-17.3a43.6,43.6,0,0,0,3.7-21.4s5.5,7.9,3.9,20.5-7,19-7,19l1.3,8.9A28.7,28.7,0,0,0-109.4-4.5a69.9,69.9,0,0,0,3.9-24.2s6.3,12.5,3.8,30.6a34.1,34.1,0,0,1-16.9,25.2s17.2,4.7,23.3-11.3,5-18.8,5-18.8,5,6.9,3.7,19.2A113.1,113.1,0,0,1-92,40s7.2,1.7,13-11.1,5.8-16.4,5.8-16.4,3.3,12,.9,22.8-5,13.3-5,13.3,7.4,1.9,12.7-9.2,5.2-15.6,5.2-15.6,3.8,7,3.8,14.3-1,9.9-1,9.9,13-10.7,25.3-15.6,29.9-6.1,29.9-6.1a40.9,40.9,0,0,1-1.4-8.2,29.3,29.3,0,0,1,.1-7.6S10,70.1,60.4,91.7s98.1,18.2,98.1,18.2,8-2,14.3,6.7a58.4,58.4,0,0,1,8.7,18.8s-8.2-12.3-13.2-16.5-7.2-3.8-7.2-3.8,14.7,21.7,20.7,34.4,11.8,25.4,13.5,37-.3,27.9,1.7,35.6a43.7,43.7,0,0,0,4.8,11.8l15.4-22.1s.3-10.3-4.4-10.1-4.4,11.8-4.4,11.8a37.1,37.1,0,0,1-2.7-16.1c.7-8.5,8.2-10.2,10.9-14.9s1-12.4-3.8-17.5-21.9-26.8-27-40.7-6.2-19.9-6.2-19.9a40.9,40.9,0,0,0,1.1-12.1c-.5-6-.7-6.7-.7-6.7s4.1,2.3,4.4,9.2-.7,9.9-.7,9.9,3.1,11,5,13.4l1.9,2.4-2.6-15.6s2.9-15.8-1.7-21.3S174.6,75.2,162,66.1s-25.1-21.9-25.1-21.9a119,119,0,0,0,6.3,13.6,60.1,60.1,0,0,0,5.8,9l-19.4-18s-5.8-17.3-14.4-40.1S102.6-22,102.6-22A108,108,0,0,1,119.5,2.1c7.4,14.4,8.4,19.1,8.4,19.1l12.3,16.3S133.9,19,130.5,5,111-48.2,73.4-62.4,13.2-71.6-8.7-69.1-48-65.6-69.5-74.8-99.9-89.3-99.9-89.3l16.1,21.7s-19.1-9.1-27.3-17.9-13.8-22.7-19.1-25.8-23.3,2.7-23.3,2.7a16.5,16.5,0,0,1,6-8.5l1.3-.9c-1.7-7.2-6.3-23.8-14.9-39.2-11.5-20.4-23.8-31.8-23.8-31.8,30.4,14.7,44.7,53.6,48.6,65.9l4.5-1.8s-12.7-69.2-73.3-82S-294-185.3-294-185.3a46,46,0,0,1,5.1,0,37.9,37.9,0,0,1,9.8-6.2,38.3,38.3,0,0,1,10.8-3.1,72.8,72.8,0,0,0-10.3,7.4l-3.5,3.1a7.8,7.8,0,0,1,3,1.8c3.6,3.7,2.4,9.2,2.4,9.2s-3.2-9.2-15.5-8.5-33.9-6.4-33.9-6.4,1.5,12.7,9.3,18.6,19.1,6.9,19.1,6.9-1.4-3.5-8.1-5.6-8.9-6.2-8.9-6.2,8.3,3.4,12.9,3.7,9.6,3,9.6,3l3.7,4.6.4,7.4s4.5,3.4,7.7,6.4,3.3,5.6,3.3,5.6-6.1-4.1-11.7-3.1a21.9,21.9,0,0,0-8.5,3l-4.5.3-4.7-3.7s.7-6.5.9-9.7.2-4.1.2-4.1l-3.8-.4s-2.6,6.4-4.1,11.4a57.6,57.6,0,0,0-1.9,9.5A14.2,14.2,0,0,1-306.4-142.9Z" transform="translate(359.9 287)" style="fill:#522d24;fill-rule:evenodd"/><path d="M119.4,227.3a34.5,34.5,0,0,1-2.6,4.7l-1.6,2.4,8.7,12.1a12.4,12.4,0,0,0,3.3-6,29.6,29.6,0,0,0,.9-6.2Zm-380-102.1a34.1,34.1,0,0,1,.3,4.9,20.3,20.3,0,0,1-.4,4.5l19.4,2.2s-1.4-5.2-2.5-8.7a24.4,24.4,0,0,0-1.4-3.9Zm482.2,90.5-3.3,6.6L233,236.1s1.4-4.8,2.1-8.3l.8-3.5Z" transform="translate(359.9 287)" style="fill:#fff;fill-rule:evenodd"/><path d="M-279-221s11.1-7.6,15.6-17,14.2-21.7,23.1-26.2,12-4.1,12-4.1-15.9,8.7-21.2,17.5S-267-223.9-279-221m37.8-27.1s-12.5,15.6-18.5,19.7a63.6,63.6,0,0,1-9.1,5.4,25.6,25.6,0,0,0,15.7-5.8C-245.8-234.9-241.2-248.1-241.2-248.1Zm1.4,19.5s18.8-21.8,36.4-18.9,18,8.4,29.1,10.7,13.2,1.5,13.2,1.5-15.9,5-26,.7S-200-241-209.6-240-239.8-228.6-239.8-228.6Zm62.3,4.5s18,7.7,38.8,7.1,25.3-7.4,25.3-7.4.7,11.6-25.1,12.5S-177.5-224.1-177.5-224.1Zm-113.8-37s5.8,18.5-1.2,30.6-16.8,18.8-19.5,25.7-2.1,11.5-2.1,11.5,7.7-14.6,19.5-21.9,21-15.6,22.9-22.7,1-11,1-11a42.2,42.2,0,0,1-8.4,14.6,59.1,59.1,0,0,1-10.3,9S-278.8-241.7-291.3-261Z" transform="translate(359.9 287)" style="fill:#c3c7c7;fill-rule:evenodd"/><path d="M230.7-58.9s45.1-6.5,60.5,37.5S281,48.1,281,48.1s31.5-92.2-50.3-107m35.9,23.1s19.5,21.6,11.6,52.6S267.3,52.1,268,66.9s8.9,27.9,8.9,27.9-14.4-3.4-14-32S282,3.2,266.6-35.8ZM178.8-75.9s15.7-21.4,57.4-21.8,54.7,15.1,54.7,15.1-15.4-7.6-31.5-7-20.9,2.1-20.9,2.1,22.2-2.5,43.1,16.5,20.5,47,20.5,47-8.5-24.8-30.4-34.3-40.3-10.3-40.3-10.3,13.7-3.3,24.6-1.9,17.1,4,17.1,4,3.4-23.3-39-11.7c-24.5,6.7-41.7,11-41.7,11a64.4,64.4,0,0,1,17.8-14,96.8,96.8,0,0,1,22.9-8.9S213.3-90.8,178.8-75.9Z" transform="translate(359.9 287)" style="fill:#c3c7c7;fill-rule:evenodd"/></svg>