<svg id="Layer_1" data-name="Layer 1" xmlns="http://www.w3.org/2000/svg" viewBox="0 0 708.6 562.7"><title>Mustang341_1c</title><path d="M319,88.5c13,1.3,32.5-6.8,34.9-25.6s-7.9-26.2-7.9-26.2,3.1,2.7,2.1,17.2-27,18.6-34.5.8,16.8-52.1,9.9-81.6-27.4-39.7-27.4-39.7,7.5.1,21.5,9.5,15.4,37.3,15.4,37.3,6.5-58.8-42.1-79.4-99.5-.1-99.5-.1,5.5-5.8,19.1-12.3,33.5-5.4,33.5-5.4-16.8-10-49.2-1.1-46.2,35.8-63.3,51.6c-10.5,9.6-24.8,9-34.3,7l-.9-.7c-24.6-17.9-53.7-21.5-79-19.9s-34.9,7.2-63.3,1.8S-90.2-94.2-90.2-94.2l-1.6-2.6c-.1-7.2.8-20,5.9-31.1,5.8-12.6.3-21.5.3-21.5s3.9,0,8.7,4.5,6.5,19.4,6.5,19.4,5.5-9.2,1.2-22.8-11.3-17.3-11.3-17.3,5.1-1.8,15.7,1.9,15,18,15,18,3.8-17.8-4.1-30-22-16.8-43.5-15.5-26-5.8-26-5.8,5.8-.2,19.1-21.3-15.6-44.7-15.6-44.7,9.9,22.8-2.1,33.8-29.4,3.5-29.4,3.5,11.3-2.5,19-21-8-29.4-8-29.4,11.1,25-14,30-23.4-9.1-39.5-12.2-32.1,7.1-32.1,7.1,1.4-4.6,13.3-14.8,33.7-5.4,33.7-5.4-7.7-12.3-36.1-7.4-39.7,21.5-39.7,21.5.3-5.7,5-13.1,13.3-10.7,13.3-10.7-12.7-1.5-23.4,6.5-17.5,26.1-17.5,26.1-.9-6.9-7.2-13.7-18-7.1-18-7.1,10.3,4.1,8,19.1-12.8,21.3-21.2,26.9-10.6,17.7-10.6,17.7a48,48,0,0,1,0-19.9c2.4-10.1,13-16.5,13-16.5s-17.1-3.1-26,22.6a82.9,82.9,0,0,0-1.7,48.1,21.9,21.9,0,0,1-8.5-10.5,57.2,57.2,0,0,1-3.2-14.5s-6.5,12.4,7.2,34.4c10,16.1,20.8,17.5,25.8,17.2l-.3,5.1-5,7.8a7.4,7.4,0,0,0,1.7,3.5,15.6,15.6,0,0,0,2.2,2.4s-3.8,56.2-4,62.7a56.5,56.5,0,0,0,.2,8.6s7.7,10.5,13.8,15.9,15.6,8.3,15.6,8.3l8.9-6.3.5-3.5,16.2-14.7s-.7-1.9-1-7.6-.3-6.9-.3-6.9,9.9-23.6,11.5-26.5,2.4-3.4,2.4-3.4a31.6,31.6,0,0,0,7-3.6,12.7,12.7,0,0,0,4.1-4.6s16.6.1,16.7,41.5c0,0-7.9,11-10.4,16.2a43.4,43.4,0,0,0-2.9,6.6s.3,14.5,4.4,25.6,7.2,17.4,7.2,17.4-8,3.6-23.4,5S-279.9,4-284.9,6s-12.7,8.3-13.6,15.6-.2,10.1-.2,10.1-8.4,39.7-11.5,47.7-6.2,22.5-1.8,27.5,8,6.1,8,6.1l4.8,8.3,10.4,3,3.2,6.6a43.6,43.6,0,0,0,3.6,12.6c2.9,6.1,14.2,10.5,14.2,10.5l.7,2.1,31.1,15s3.2-10.9,0-27.2-7.7-22.9-7.7-22.9H-261s-4.8-1.8-3.1-5.5,5.8-10.3,5.1-16.2-5.1-7.4-5.1-13.8-.5-10.8.7-18.2a78.8,78.8,0,0,1,4.6-15.5l13-1.9s17.7,7.6,48,8.3,39-1.7,39-1.7l5.6.3s20.8,19.3,70,22,80.5-9.5,80.5-9.5S21.2,103.4,46,108.7s47.9,3.3,53,8.2-2.4,40.3-6.8,63.4S86,216.2,87.4,224a75.4,75.4,0,0,0,3.1,12.3s3.8,17.2,8.5,26.2a64.9,64.9,0,0,0,11.3,15.1s9.2-4.2,16.1-21,6.2-25.3,6.2-25.3l-12.3-9.5s-6.5,2.3-6.5-3.3,10.6-7.8,9.6-16.2-6.8-14.6-4.8-27.7,14.7-40.1,17.1-48.3,1.7-10.3,1.7-10.3,13.7.6,19.5,6,23.3,38.7,27.4,49.5,5.1,41.8,5.8,54.5,5.1,17.8,5.1,17.8,7.2,18.1,13.7,27.1l7.5,10.3s8.9-.3,16.8-25.3,6.5-36.6,6.5-36.6l-16.4-11.1a16.1,16.1,0,0,1,.3-13.4c3.4-7.5,9.2-18.3-.3-28.6s-16.8-21-22.6-38.8-7.2-25.2-5.8-36.5-7.5-20.6-12.3-23.2S150,43.5,150,43.5s-7.7-13.3-10.8-34.1a99,99,0,0,0-8.5-26.7A76.4,76.4,0,0,0,143-14.8c26.7,3.3,22.9-7.5,40.5-3s6.2,21.7,6.2,21.7S203.4,2,204.1-10.7,194.5-31,194.5-31s3.6-1.5,11.3,0,22.9,22.7,12.8,46.2-26.3,8.9-26.3,8.9-1.2,7.1,8.2,11.4,19.2-2.7,19.2-2.7-11.9,82.8,59.9,103.6S353.3,94,353.3,94s-8.4,26.2-33,19.1-22.8-35.5-22.8-35.5S306,87.2,319,88.5Zm-579.6,36.7,15.5-1.1a24.4,24.4,0,0,1,1.4,3.9c1.1,3.6,2.5,8.7,2.5,8.7l-19.4-2.2a20.3,20.3,0,0,0,.4-4.5A34.1,34.1,0,0,0-260.6,125.2ZM116.8,232a34.5,34.5,0,0,0,2.6-4.7l8.8,7a29.6,29.6,0,0,1-.9,6.2,12.4,12.4,0,0,1-3.3,6l-8.7-12.1ZM-138.7-216.9c20.9-.5,25.3-7.4,25.3-7.4s.7,11.6-25.1,12.5-39-12.3-39-12.3S-159.6-216.4-138.7-216.9Zm-64.7-30.5c17.6,2.9,18,8.4,29.1,10.7s12.9,1.6,13.1,1.5-16.1,4.9-26,.7S-200-241-209.6-240s-30.3,11.5-30.3,11.5S-221-250.4-203.4-247.5Zm-60,9.5c4.4-9.3,14.2-21.7,23.1-26.2s12-4.1,12-4.1-15.9,8.7-21.2,17.5S-267-223.9-279-221C-279-221-267.9-228.6-263.4-238Zm22.2-10.1s-4.6,13.2-11.8,19.3a25.6,25.6,0,0,1-15.7,5.8,63.6,63.6,0,0,0,9.1-5.4C-253.7-232.5-241.2-248.1-241.2-248.1ZM-312-204.7c2.7-7,12.5-13.7,19.5-25.7s1.2-30.6,1.2-30.6c12.5,19.3,2.1,35.9,2.1,35.9a59.1,59.1,0,0,0,10.3-9,42.2,42.2,0,0,0,8.4-14.6s.9,3.9-1,11-11.1,15.4-22.9,22.7S-314-193.2-314-193.2-314.7-197.7-312-204.7ZM221.7,215.7l14.2,8.6-.8,3.5c-.8,3.5-2.1,8.3-2.1,8.3l-14.6-13.7ZM140.2,37.6,127.9,21.3s-1-4.7-8.4-19.1A108,108,0,0,0,102.6-22s4.1,7.8,12.7,30.6,14.4,40.1,14.4,40.1l19.4,18a60.1,60.1,0,0,1-5.8-9,119,119,0,0,1-6.3-13.6S149.3,57,162,66.1s19.8,11.9,24.4,17.3,1.7,21.3,1.7,21.3l2.6,15.6-1.9-2.4c-1.9-2.4-5-13.4-5-13.4s1-3,.7-9.9-4.4-9.2-4.4-9.2.2.7.7,6.7a40.9,40.9,0,0,1-1.1,12.1s1,6,6.2,19.9,22.2,35.6,27,40.7,6.5,12.8,3.8,17.5-10.3,6.4-10.9,14.9a37.1,37.1,0,0,0,2.7,16.1s-.3-11.6,4.4-11.8,4.4,10.1,4.4,10.1l-15.4,22.1a43.7,43.7,0,0,1-4.8-11.8c-2.1-7.7,0-24-1.7-35.6s-7.5-24.3-13.5-37-20.7-34.4-20.7-34.4,2.2-.4,7.2,3.8,13.2,16.5,13.2,16.5a58.4,58.4,0,0,0-8.7-18.8c-6.3-8.6-14.3-6.7-14.3-6.7s-47.7,3.4-98.1-18.2-63.1-81-63.1-81a29.3,29.3,0,0,0-.1,7.6,40.9,40.9,0,0,0,1.4,8.2S-19,27.7-31.3,32.5-56.6,48.1-56.6,48.1s.9-2.7,1-9.9-3.8-14.3-3.8-14.3.2,4.6-5.2,15.6-12.7,9.2-12.7,9.2,2.5-2.5,5-13.3-.9-22.8-.9-22.8,0,3.5-5.8,16.4S-92,40-92,40a113.1,113.1,0,0,0,5.6-23.8C-85.2,3.9-90.2-3-90.2-3s1.1,2.8-5,18.8-23.3,11.3-23.3,11.3A34.1,34.1,0,0,0-101.7,1.9c2.5-18.1-3.8-30.6-3.8-30.6a69.9,69.9,0,0,1-3.9,24.2,28.7,28.7,0,0,1-15.2,16.9l-1.3-8.9s5.5-6.5,7-19-3.9-20.5-3.9-20.5a43.6,43.6,0,0,1-3.7,21.4c-5,11.6-22,17.3-22,17.3s.4,2.9.9,10.1a102.3,102.3,0,0,1-.9,16.5s3-2.1,5.4-7.6a30.4,30.4,0,0,0,2.5-10.5l4.5-1.1s2,8.8-3.3,23.7-17.1,15.6-17.1,15.6,1.4-1.3,2.7-5.6a11.4,11.4,0,0,0,.2-7.2s-1.4,3.4-6,8-13,5-28.7,6.5-38.3-2.4-38.3-2.4,14.5.2,36.2-3,25-11.6,25-11.6-7,4.1-19.5,3.8-20.2-7.2-33.3-6.8-18.1,7.3-18.1,7.3a44.3,44.3,0,0,1,13-2.7c6.7-.2,14,3.9,14,3.9s-22.6.4-38.1,2.7-16.8,6.9-16.8,6.9-5.1,12.2-6,19.3-.2,21.2,2.1,25,3.9,8,2.2,12.3-6,11.7-4.1,14.8a5.2,5.2,0,0,0,5,2.7s0,3.4-.7,12.6-1.2,9.8-1.2,9.8a47.8,47.8,0,0,1-6.7-4.7c-2.4-2.2-3.8-6.4-5.5-11.8s-6.8-9.3-8.5-14.7.3-16.6,2.1-29,3.8-42.3,3.8-42.3a10.3,10.3,0,0,0,4.1-2.9c1.3-1.8,1.5-2.9,3.9-6.8a32.8,32.8,0,0,1,6.5-7s-1.9-2.8-4.4-2.1-4.5,2.9-6.8,3.5-4.1-2-4.1-2a12.6,12.6,0,0,1,7.2-7.8c6-2.7,9.7-1,20-.9s31.6,0,43.3-3.8,21.7-9.4,30.3-7.4,22.6,15.6,22.6,15.6a32.7,32.7,0,0,0-8-13.1A43.7,43.7,0,0,0-180-.1a47.2,47.2,0,0,1-2.2-5.2,25.4,25.4,0,0,1-1.5-8.1s-2.2,1.8-5,6.9-1.9,7-1.9,7l-3.9.5a45,45,0,0,1-1-10.7,94.8,94.8,0,0,1,2.1-11.7l2.2-2.9c2.2-2.9,9.4-10.4,9.4-10.4a37.7,37.7,0,0,0-8.9,4.2,48.6,48.6,0,0,0-8.9,6.7l-2.9,8.8s-13.7-.2-21.5-7.9-8.4-20-8.4-20a88,88,0,0,1,22.7-31A176.4,176.4,0,0,1-175.6-97,63.6,63.6,0,0,0-192-92.9l-11.2,4.7a88.5,88.5,0,0,0-4.1-9,47.4,47.4,0,0,0-6-8.4A58.8,58.8,0,0,1-212.1-95c.2,6.4-.2,12.7-.2,12.7l-4.1,3.8a178.3,178.3,0,0,0-4.4-25.3,72.4,72.4,0,0,0-8.9-19.6,53,53,0,0,1,4.8,2.7,38.5,38.5,0,0,1,8.4,7,36,36,0,0,0-6.7-13c-5.1-6.4-14.2-11.7-14.2-11.7s-.3-1.8-4.8-9.5-14.4-10.3-14.4-10.3,17.4,15.6,10.8,34.4S-268.6-104-268.6-104s-.5.5-2.7,5.2A80.3,80.3,0,0,0-275.3-88a34,34,0,0,1,3.4-5.4c2.7-3.8,5.1-6.7,5.1-6.7h2.6A70.5,70.5,0,0,0-270.7-90a96.4,96.4,0,0,0-4.8,12.9l-2.9-5s2.1,18.8,1,23.3-11.3,11.7-11.3,11.7l-.3-6.7s7.4-6.1,7.5-9.3-4.4-6.9-4.4-6.9v-2.1a52.3,52.3,0,0,0-5.5,13.1c-2.1,7.7-1.9,17.5-1.9,18.4s-2.2,2.9-2.2,2.9-10.1-3.9-15.9-10.2-7.2-12.1-7.2-12.1.5-12.2,1.2-27.4,1.4-34.9,1.4-34.9l5,2.5s-1.6-2-3.5-4.7a23.8,23.8,0,0,1-2.8-6.2s.3-1.6,3.4-5.1a79.1,79.1,0,0,1,7.4-7.1,14.2,14.2,0,0,0-8.7,2.4,57.6,57.6,0,0,1,1.9-9.5c1.5-5,4.1-11.4,4.1-11.4l3.8.4s0,.8-.2,4.1-.9,9.7-.9,9.7l4.7,3.7,4.5-.3a21.9,21.9,0,0,1,8.5-3c5.6-1,11.7,3.1,11.7,3.1s-.1-2.6-3.3-5.6-7.7-6.4-7.7-6.4l-.4-7.4-3.7-4.6s-5-2.7-9.6-3-12.9-3.7-12.9-3.7,2.1,4.1,8.9,6.2,8.1,5.6,8.1,5.6-11.3-1.1-19.1-6.9-9.3-18.6-9.3-18.6,21.5,7.1,33.9,6.4,15.5,8.5,15.5,8.5,1.2-5.5-2.4-9.2a7.8,7.8,0,0,0-3-1.8l3.5-3.1a72.8,72.8,0,0,1,10.3-7.4,38.3,38.3,0,0,0-10.8,3.1,37.9,37.9,0,0,0-9.8,6.2,46,46,0,0,0-5.1,0s28.4-34.2,88.9-21.4,73.3,82,73.3,82l-4.5,1.8c-3.9-12.4-18.2-51.2-48.6-65.9,0,0,12.3,11.4,23.8,31.8,8.6,15.4,13.2,32,14.9,39.2l-1.3.9a16.5,16.5,0,0,0-6,8.5s18-5.9,23.3-2.7,10.9,17.1,19.1,25.8,27.3,17.9,27.3,17.9L-99.9-89.3s8.9,5.3,30.4,14.5,39,8.2,60.9,5.7,44.5-7.5,82.1,6.7S127.1-9,130.5,5,140.2,37.6,140.2,37.6ZM278.3,16.7c-7.9,31-10.9,35.3-10.3,50.1s8.9,27.9,8.9,27.9-14.4-3.4-14-32S282,3.2,266.6-35.8C266.6-35.8,286.1-14.2,278.3,16.7ZM281,48.1s31.5-92.2-50.3-107c0,0,45.1-6.5,60.5,37.5S281,48.1,281,48.1ZM271.8-58.2c-21.9-9.5-40.3-10.3-40.3-10.3s13.7-3.3,24.6-1.9,17.1,4,17.1,4,3.4-23.3-39-11.7c-24.5,6.7-41.7,11-41.7,11a64.4,64.4,0,0,1,17.8-14,96.8,96.8,0,0,1,22.9-8.9s-19.8-.7-54.4,14.2c0,0,15.7-21.4,57.4-21.8s54.7,15.1,54.7,15.1-15.4-7.6-31.5-7-20.9,2.1-20.9,2.1,22.2-2.5,43.1,16.5,20.5,47,20.5,47S293.6-48.8,271.8-58.2Z" transform="translate(354.3 281.4)" style="fill:#050000;fill-rule:evenodd"/><path d="M-268.6-123.5a22.4,22.4,0,0,1-12.7,4.8c-7.8.4-10,.4-10,.4l-6.3,5.1a15.9,15.9,0,0,1-5.5-.7c-3.5-.9-4.4-1.7-4.4-1.7a19.7,19.7,0,0,0,3.7,4.7c-2.7,3.4-11.6,16.4-2.1,31.4,0,0-2.8-3.3-.3-12.5,2-7.5,7.3-14.1,9.3-16.4l1.5.3,6.3-4.9s13.6.9,20.4-10.3" transform="translate(354.3 281.4)" style="fill:#050000;fill-rule:evenodd"/><path d="M-256.3-148.3s5,7.5,2.4,19.2-7,15.2-7,15.2,10.1.4,12.1-14.4S-256.3-148.3-256.3-148.3Z" transform="translate(354.3 281.4)" style="fill:#050000;fill-rule:evenodd"/><path d="M-312.1-128s.8-1.8,4.4-3.6,9.3-2.3,9.3-2.3a65.4,65.4,0,0,1-3.8,6,14.3,14.3,0,0,0-2.3,4.1,6.2,6.2,0,0,1-3-1.8,9.3,9.3,0,0,1-2.1-3Z" transform="translate(354.3 281.4)" style="fill:#050000;fill-rule:evenodd"/><path d="M-315.9-59.3a8.6,8.6,0,0,1,2.8-3.3,12.4,12.4,0,0,1,4.5-.9s9.6,14.7,10.1,16.1-4.2.8-7.2-3.1a96.6,96.6,0,0,1-6.1-9.2A5.7,5.7,0,0,0-315.9-59.3Z" transform="translate(354.3 281.4)" style="fill:#050000;fill-rule:evenodd"/><path d="M14,15.2s4.1,10.1,9.6,14.1c1.9,1.4,3.8,3,5.5,4.5C25.2,22,23.3,12.4,23.3,12.4L12.3-13.4s16.4,17.4,21.5,30,5.5,30.9,21.2,46.2S94.4,89.4,94.4,89.4,70.8,89.1,52,74.9a37.3,37.3,0,0,1-7.4-7.7C37.3,61,19.7,43.5,14,15.2Z" transform="translate(354.3 281.4)" style="fill:#050000;fill-rule:evenodd"/><path d="M27.4-66.5s-16.1,14-23.3,28A101.8,101.8,0,0,0-5.1-9.9S-7.5-27.2-2.7-41.5,8.2-60.9,8.2-60.9,17.1-66.5,27.4-66.5Z" transform="translate(354.3 281.4)" style="fill:#050000;fill-rule:evenodd"/></svg>