<svg id="Layer_1" data-name="Layer 1" xmlns="http://www.w3.org/2000/svg" viewBox="0 0 557.6 609.2"><title>Mustang 2c</title><path d="M237.6-13.2C235.3-8.2,231.5-2.3,227,1l-2,1.5c2.2,2.7,5,4.7,8.6,3.1s5-4.9,5.2-8.8a27.3,27.3,0,0,0-1-8.8Zm-51.2-92.9.4-2.9,1.2-9.1c-.5-1-2.4-1.9-3.3-2.2s-3.3-.3-4.2,1.7a10.2,10.2,0,0,0,1.6,11.2Zm0,310.6c-6.8,9-13.7,17.9-20.8,26.7-15.3,19.2-34.8,36.1-54.8,50.3a301.1,301.1,0,0,1-30.4,19.4l-6.7,3.6-4.3-6.3c-1.9-2.7-4.1-5.5-6.2-8.1a234.9,234.9,0,0,0-19.3-20.6,305.9,305.9,0,0,0-80.8-54.7c-27.4-12.8-54.7-31.4-71.3-57.3-5.4-8.5-11.8-21.6-12.6-32l-.3-3.6,2.4-2.7c7.1-8,14.8-17.1,20.8-25.9,4.8-7.1,9.8-13.6,14-21.1s8.3-17.4,9.3-27.1c.7-6.8.3-14-2.2-20.4A30,30,0,0,0-79,20.5l-11.6-1.8c-4.8.9-9.6,2-14.3,3a78.2,78.2,0,0,0-18.3,7.1l1.6,5.8-1,2.6c-3.3,8.6-10.4,18.9-16,26-8.1,10.3-16.4,20.5-24.8,30.5l-2.3,2.7L-190.8,98l-10.7,6.2-3.2-.7c-11.4-2.6-23.6-5.3-33-12.5l-7.5-5.8,7.9-8.1-9.8-7.6-1.2.8-7.6-10.4-12,5.8-3.3-8.6A81.5,81.5,0,0,1-274.3,45a247.3,247.3,0,0,1-4.2-35.6,186.3,186.3,0,0,1,1.8-39.3A101.1,101.1,0,0,1-273.3-45l1.2-3.6,3.4-1.5a124,124,0,0,0,14.3-7.8c8.8-5.5,17-15.1,24.2-22.6,3.5-3.7,7.3-7.2,11-10.7l15.4-14.3,26.9-24.5c.4-2.8.9-5.5,1.4-8.2,1-5.9,2.3-12,3.9-17.8l1.2-4.4,4.3-1.4c5.9-2,12.2-4.8,17.9-7.4s9.9-4.5,14.6-7.1a93,93,0,0,1,1.3-10.6A81.3,81.3,0,0,1-120-218.5a103.4,103.4,0,0,1-2-11c-1.3-9.8,0-22.7,4.4-31.7l7.3-15,7.7,14.8a63.3,63.3,0,0,0,5.8,8.5,62.8,62.8,0,0,0,7,7.4c2.7-1.7,5.6-3.3,8.4-4.8a102.4,102.4,0,0,1,3.9-21c2.5-8.7,8.2-19.5,15.4-25.4l9.6-7.9,3.8,11.9a66.5,66.5,0,0,0,6.4,14.2c2.8,4.5,8.8,10.5,13.4,14.7,12.9.9,32.7,3.6,42.5,9.9,8.2,5.3,16.5,10.4,25.4,14.5,6.4,2.9,17.1,7.1,24.3,5.4,3.5-.8,5.8-2.4,6.7-6a15.8,15.8,0,0,0,.1-6.4l-3.1-13,13.1,2.9A35.6,35.6,0,0,1,92-250.8c8.1,5.7,13.8,14,17.3,23.3a68.4,68.4,0,0,1,4.4,28.1c11.1-1,22.4-1.6,33.3-1.6,4.1,0,8.2.1,12.3.3,31,1.6,66.6,29.6,63.9,63.1-.9,11.6-4.4,24.3-13.6,32.1a28.1,28.1,0,0,1-9,5.1l4.8,2.5c16.4,9,29.5,22.6,34,41.2,2.6,10.4,3.6,21.7,1.6,32.3l7.1,1.9c5.1,1.3,10.4,5.8,13.7,9.7,9.2,10.7,13.7,26.2,16,39.8a68.4,68.4,0,0,1-10.3,49.7,77.2,77.2,0,0,1-10.4,12.6,119.7,119.7,0,0,1,7.3,21.2c5.1,21,4.2,42.6-3.8,62.8-7.3,18.4-20.3,33-40.5,36.3-7.8,1.3-18,.7-25.5-2.1Z" transform="translate(278.8 304.6)" style="fill:#fff;fill-rule:evenodd"/><path d="M-133.1,24.6s13.8-8.5,26.4-11.2,16.1-3.3,16.1-3.3l16.4,2.6s10.3,10.6,8.1,33.5S-83.3,87-90.9,98.2s-21.5,26.8-21.5,26.8,3.6,46.9,79,82.2S76.4,293.5,76.4,293.5,127.3,265.9,159,226s43.5-58.5,43.5-58.5,5.3,2.4,2.3,14.4-7.3,17.8-7.3,17.8,37.9,14.1,55.2-29.5-6.2-82.9-6.2-82.9,29.4-20.6,23-58.9S246-14.4,246-14.4s6.5,21-9,27.8S211.7-.9,210.4-9.4s-2.4-19-2.4-19a20,20,0,0,1,10.4,10c3.8,7.8,3.7,12.7,3.7,12.7s18-13.3,9.2-49-53.5-44.8-53.5-44.8-11.2-9.3-5-22.5,24.8-4.6,23.6,4.8l-1.3,9.4s17.3-.7,19.7-30.4-31.1-52.8-55.9-54-55.4,2.5-55.4,2.5,5.5-14.6-2.1-34.7-22.9-23.6-22.9-23.6,4.3,18.3-13,22.4-44.9-13.7-56.2-21-41.4-8.8-41.4-8.8S-44.7-266.8-49.2-274a81.5,81.5,0,0,1-7.3-16.1s-8.4,6.9-12.6,21.2-3.6,24-3.6,24a125.7,125.7,0,0,0-17.6,10c-4-3.5-10-9-12.9-12.8a73.2,73.2,0,0,1-6.6-9.8,51.4,51.4,0,0,0-3.6,26.9,82.3,82.3,0,0,0,2.8,13.8l-2.2,2.9c-13.3,19.3-12.6,42.5-12.6,42.5s-7.2,4.2-19.5,9.8-18.7,7.7-18.7,7.7-2.2,8.6-3.7,17-1.7,10.9-1.7,10.9-44.4,40-55.1,51.2S-241.4-56-250-50.7a141.8,141.8,0,0,1-15.3,8.3s-6.5,19.8-4.8,51.4,6.9,45.1,6.9,45.1l10-4.9,6.8,9.3s12-8.7,20.1-13.1,9.7-4.3,9.7-4.3l9.4,4.6L-233.9,69l9.2,7.1-7.9,8.1c8.1,6.3,19.9,8.7,29.7,11l9.5-5.5,23.6-1.6s13.6-16.2,24.6-30.2,14.7-23.8,14.7-23.8Z" transform="translate(278.8 304.6)" style="fill:#050000;fill-rule:evenodd"/><path d="M-149.1-109.4l7,8.7-2.3,8.9s-18.4,10.2-34.1,20.3-36,24.1-36,24.1,36-37.9,65.4-62m52.8,93.8c-.7-.2-13.9-7.4-13.9-7.4s-16.3,1.4-27.7,10.3A50,50,0,0,0-153.3,7.1S-137.2-10.3-96.3-15.6Zm-153-2.4a28.1,28.1,0,0,1,4.8-10.8c3.7-4.9,11.7-7.3,11.7-7.3s4.8,7.4,1.8,22.2-15.6,34-15.6,34-2.9-.7-4.5-5.7a13.6,13.6,0,0,1-.2-8.7,4.8,4.8,0,0,0,1.5,3.4l1.6,1.4s-1-6.9,1.6-17.6a127.2,127.2,0,0,1,5.1-16.6A13.9,13.9,0,0,0-249.3-17.9ZM-150-136.1a31.9,31.9,0,0,0,.3,15.9c2.4,8.1,10.5,11.7,10.5,11.7l1.7,8.8s-.8,11.3-1.1,18.5.3,7.6.3,7.6a51.2,51.2,0,0,0,13.9,9.4,116.2,116.2,0,0,0,16.7,5.5s-5.3-3.6-11.5-8.7a66,66,0,0,1-9.1-8.9l1-7s5-4.1,15.1-9,16.8-7.6,16.8-7.6-14.4,2.1-21.7,4.1a61.2,61.2,0,0,0-10.1,3.5l.8-4.5s10.2-3.8,22-7.7l17.2-5.7s-7-5.8-15.4-7.4a108.2,108.2,0,0,0-16.9-1.7l7.1-11.9s5.1-.4,12.4,2.3,10.3,4.9,10.3,4.9a30.2,30.2,0,0,0-10.2-14c-7.5-5.4-17.5-6.5-17.5-6.5s-7.7,9.6-11.9,16.1-7.8,12.9-7.8,12.9S-148.7-117-150-136.1Zm95-112.1s1.5,9.7,15.9,25.5,23.1,23,23.1,23a59.6,59.6,0,0,1,2.3,20.1,84,84,0,0,1-4.6,21.7s-2.3-15.6-5.6-24.1-4.3-9.8-4.3-9.8-8.9-9.5-13.5-13.1-5.6-4-5.6-4S-53.9-221.4-55-248.1ZM72.8-52s41.5,93.6,54.1,146.6,14.5,64,14.5,64,4.4-13.4,4.9-42.4a372,372,0,0,0-3.5-54.6S112.5,1,72.8-52ZM-56.1,48.1s12.3,18.8,18.5,55.2,2.8,55.2,2.8,55.2-7.8-30.1-12.6-40.1-9.2-13.2-9.2-13.2a114,114,0,0,1-9,30.9,206.9,206.9,0,0,1-12.2,22.8,108.8,108.8,0,0,1-13.9-15,63.4,63.4,0,0,1-9-17.6,153.7,153.7,0,0,0,17-22c7.4-11.9,12-21.3,12-21.3s-1.8,21.1-5.8,33.6-7.6,20.5-7.6,20.5S-62.4,119.6-56.1,48.1ZM-257.9-30.3s-2.3,20-1.8,35,3.9,32.1,3.9,32.1,33.7-24.4,57.2-18.6,25.4,20.3,25,26.1a24.2,24.2,0,0,1-3.7,10.6,24.6,24.6,0,0,0-.2-7.6l-.8-3s-5,12.8-14.4,20.4-21.7,16.6-21.7,16.6l8.2,4.5S-194.8,79.5-187,74a74,74,0,0,0,12.7-11.2,58.7,58.7,0,0,1-5.6,10.3,67.4,67.4,0,0,1-6.6,7.4l8.5-.6s14.1-12.5,22.7-26S-145.2,35-145.2,35s-11.9-14.8-24.7-21.3-27.8-9-27.8-9,18.3-2.6,29.4,2.3a88.5,88.5,0,0,1,18.5,11.1s14.5-10.4,29.4-16.6A221.5,221.5,0,0,1-91.5-8l-1.3-5.1s27,14,56.9.1S-3.7-62.6-3.5-77s-.6-18.7-.6-18.7S27.8-68.2,52.2-15.8,80.6,63.5,80.6,63.5,67.3,47.5,58.9,39,47.5,28.9,47.5,28.9a714.8,714.8,0,0,1,25,84.7c10.7,47,14.4,93.6,14.4,93.6s6.6-19.7,8.4-52.8,1.8-46.1,1.8-46.1,16.6,55.9,22.6,81.8,7.5,41.8,7.5,41.8,12.9-5.5,33.5-29.3,29.5-44.8,29.5-44.8-1.3-32.8-6.6-47.8-7.3-19.2-7.3-19.2a443.8,443.8,0,0,1-4.2,48c-3.5,22.8-11.4,36.8-11.4,36.8S175.4,81,148.8-10.4s-135-172.6-135-172.6a60.7,60.7,0,0,1-3.5,22.5L6.1-149.3s-1.7-27.4-3-36.6-2.2-13-2.2-13-38-34.3-47.4-48.5-11.4-21.2-11.4-21.2-2.8,19.1-1.3,34.7a175.2,175.2,0,0,0,4.9,27.6,55.7,55.7,0,0,1,15.5,11.4c7,7.5,9.9,21.3,9.9,21.3a141.1,141.1,0,0,0-12.6-12.7c-6.8-5.9-10.7-7.5-10.7-7.5s-33.9,13.4-56.8,26.8a279.6,279.6,0,0,1-44.3,20.8s-1.6,6.6-3.4,15.4a71.1,71.1,0,0,0-1.7,14s-28.9,25.3-46,42.1S-227.3-47.6-257.9-30.3Z" transform="translate(278.8 304.6)" style="fill:#fff;fill-rule:evenodd"/><path d="M-124.1-113.5s3.2-1.1,11.1.3,9.5,2.5,9.5,2.5l-19,6.6a17.9,17.9,0,0,1-1.5-9.4" transform="translate(278.8 304.6)" style="fill:#fff;fill-rule:evenodd"/><path d="M-246.2,38.4l5.9,7.5,17.1-12.5c7.3-5.3,11.8-8.2,11.8-8.2s-14.6-.8-34.8,13.2" transform="translate(278.8 304.6)" style="fill:#fff;fill-rule:evenodd"/><path d="M-184.3,41.7a75.5,75.5,0,0,1-11.6,17.6A71.3,71.3,0,0,1-214.3,74l-7.7-4.5s22.3-12.9,37.8-27.8" transform="translate(278.8 304.6)" style="fill:#fff;fill-rule:evenodd"/><path d="M144.9-41.9l3.7,9.6s20.5,1.7,32.2,23,18.5,40.1,27.9,44.7a42.1,42.1,0,0,0,19,4.1s-12.3,6.2-25.6-3.2S177,.2,171.5-5.9a38.9,38.9,0,0,0-13-9A135.6,135.6,0,0,1,163.6,2c1.7,7.9,1.8,9.4,1.8,9.4S188,66.1,225.8,70.5s28.9-57.2,28.9-57.2S242.5,32.7,221.9,26,197.2-7,193.8-16.3s-13.5-18.9-13.5-18.9-19.5.5-35.4-6.6M-60.3-199.1c-3.3,1.1-7.5,2.6-12.3,4.5,0-3.5,1.4-9.3,8.5-14.8A60.6,60.6,0,0,0-60.3-199.1Zm35.1-39.1c21.8,2.5,41.1,11,51.7,17.9,17.9,11.7,40.4,12.1,50.5,3.5S88-231,88-231s4.8,10.3,4.1,26.3-5.1,20.1-5.1,20.1A83.1,83.1,0,0,1,75.7-183c4.3-4.3,12.6-14.9,11.5-29.3A35.4,35.4,0,0,1,70-191.4a94.6,94.6,0,0,1-15.7,6.7l-2-.6c-15.2-5.2-25.9-18.6-25.9-18.6s4.9,21.8,26.9,30.4,67.1-15.9,112.5-4.3,33.7,48.4,33.7,48.4-4.9-15.3-26.4-10.4-15.8,31.1-15.8,31.1-8-6.7-8.4-17.5,0-12.6,0-12.6-9.6,15.4-2.1,29.7,59,23.5,69.6,47.1S223-29.3,223-29.3s-10.1-13-25.6-15.2-28.7.2-39.8-2.5a67.2,67.2,0,0,1-20.4-9.1L129.8-71a149.5,149.5,0,0,0,37.6,9.6c20.7,2.4,34.3,8.7,34.3,8.7s-6.7-10.2-29-15.5-30.7-7.7-39-10.7-12.5-4.9-12.5-4.9-7.9-10-6.1-9.9a239.8,239.8,0,0,1,29,6.3l15.9,4.7s-19.2-11.5-33.4-17.5-28.2-10.8-28.2-10.8l-11-13.4s12.9,1.5,23.5-3.1,12.5-11.1,12.5-11.1-9.3,5.1-23.5,5.4-20-.6-20-.6L76-138.6s9.4,1.6,17.9-1.9a37,37,0,0,0,13.2-9s-13.9,3.2-24.8,3.1S65-148.6,65-148.6l-5.8-6.4s17.8,3.8,33.3-.4,38.2-10.7,56.6-8.4,29,10.6,29,10.6-9.7-21.9-45.2-19.6-33.7,7.1-56.5,8.7-31.5-3.9-31.5-3.9-13.3-10.4-20.8-18.3A167.5,167.5,0,0,0,8.6-199.6c-2.8-5-8.1-13.2-15.2-18.8l-2.3-2a90.9,90.9,0,0,1,23.5,6.2s-3.3-9.9-31.1-14C-19.4-231.3-22.4-234.8-25.2-238.2Zm-83,60.9s-1-39,36.6-54.9l4.3-1.7c.2,3.2.5,6.7.8,10.3-15.9,9.2-19.6,26.4-20.5,35A207.6,207.6,0,0,0-108.2-177.3ZM179.9,56.5l1.2,10s11.7,21.8,16.2,35.2,8.6,34.2,8.6,34.2,12.5,11.1,14.8,24.9-5.5,30.3-5.5,30.3,25.3-9.2,26-52.9S227,81.8,227,81.8l-10-1.6s7.2,8.1,11.2,27a124.7,124.7,0,0,1,1.9,36S223.2,88.9,179.9,56.5Z" transform="translate(278.8 304.6)" style="fill:#fff;fill-rule:evenodd"/><path d="M-96.3-15.6c-.7-.2-13.9-7.4-13.9-7.4s-16.3,1.4-27.7,10.3A50,50,0,0,0-153.3,7.1s16.1-17.4,57-22.7m-153-2.4a28.1,28.1,0,0,1,4.8-10.8c3.7-4.9,11.7-7.3,11.7-7.3s4.8,7.4,1.8,22.2-15.6,34-15.6,34-2.9-.7-4.5-5.7a13.6,13.6,0,0,1-.2-8.7,4.8,4.8,0,0,0,1.5,3.4l1.6,1.4s-1-6.9,1.6-17.6a127.2,127.2,0,0,1,5.1-16.6A13.9,13.9,0,0,0-249.3-17.9ZM72.8-52s41.5,93.6,54.1,146.6,14.5,64,14.5,64,4.4-13.4,4.9-42.4a372,372,0,0,0-3.5-54.6S112.5,1,72.8-52ZM-56.1,48.1s12.3,18.8,18.5,55.2,2.8,55.2,2.8,55.2-7.8-30.1-12.6-40.1-9.2-13.2-9.2-13.2a114,114,0,0,1-9,30.9,206.9,206.9,0,0,1-12.2,22.8,108.8,108.8,0,0,1-13.9-15,63.4,63.4,0,0,1-9-17.6,153.7,153.7,0,0,0,17-22c7.4-11.9,12-21.3,12-21.3s-1.8,21.1-5.8,33.6-7.6,20.5-7.6,20.5S-62.4,119.6-56.1,48.1ZM-259.7-3.7c2.3-7.9,4-14,4.3-16.3l1.5-9.1s9.5-8.3,17.1-10.6l7.6-2.3s6.6,8.1,4.1,26.3S-235.8,19-235.8,19s22-10.1,34.5-5.8A31.9,31.9,0,0,1-188,22a49.2,49.2,0,0,0-10.6-3.8c-23.5-5.7-57.2,18.6-57.2,18.6s-3.4-17.1-3.9-32.1C-259.8,2-259.8-.8-259.7-3.7Zm110.7-105.7,7,8.7-2.3,8.9s-18.4,10.2-34.1,20.3-36,24.1-36,24.1S-178.5-85.2-149.1-109.4Zm-.9-26.7a31.9,31.9,0,0,0,.3,15.9c2.4,8.1,10.5,11.7,10.5,11.7l1.7,8.8s-.8,11.3-1.1,18.5.3,7.6.3,7.6a51.2,51.2,0,0,0,13.9,9.4,116.2,116.2,0,0,0,16.7,5.5s-5.3-3.6-11.5-8.7a66,66,0,0,1-9.1-8.9l1-7s5-4.1,15.1-9,16.8-7.6,16.8-7.6-14.4,2.1-21.7,4.1a61.2,61.2,0,0,0-10.1,3.5l.8-4.5s10.2-3.8,22-7.7l17.2-5.7s-7-5.8-15.4-7.4a108.2,108.2,0,0,0-16.9-1.7l7.1-11.9s5.1-.4,12.4,2.3,10.3,4.9,10.3,4.9a30.2,30.2,0,0,0-10.2-14c-7.5-5.4-17.5-6.5-17.5-6.5s-7.7,9.6-11.9,16.1-7.8,12.9-7.8,12.9S-148.7-117-150-136.1Zm-66.6,96.7s20.5-14,39.8-24.7a349.6,349.6,0,0,1,32.5-16.2l.6,9.3s6.5,9,24.2,14.1,23.2,2.3,23.2,2.3-15.7-12.7-18.2-18.5S-117-79-117-79l27.7-21.3-2.1-3.9,13.4-7.9s-.7-11.2-10.5-21.1-28.3-16.4-28.3-16.4-9.7,7.4-15.4,15.1-6.3,10.5-6.3,10.5-3.2,1.2-6.4-6.5-3.5-11.4-3.5-11.4-5,4.1-5.5,14.6.7,14.3.7,14.3-40.8,37.5-52.4,49.3S-220-45.3-220-45.3-216.9-42.8-216.6-39.4ZM-207,85.4c9.9-7.5,21.9-16.6,27.7-23,10.7-11.6,13.1-19.7,13.1-19.7s-3.7-15.8-14.4-25.5S-210.8,4.4-210.8,4.4s17.7-7.8,33.5-7.7h15.7s16.8-16.5,34.6-22.4,19.1-5.8,19.1-5.8,27.9,15.9,66.6-1.8,22.8-86.2,22.8-86.2,43.7,31.5,74.6,83S129,175.2,129,175.2,127.5,128.8,103.6,53,63.1-65.8,63.1-65.8A787.1,787.1,0,0,1,119.2,1.5c29.9,40,33,46.5,33,46.5s.8-30.9-4.1-60.6l.7,2.1c26.6,91.5,11.9,185.9,11.9,185.9s7.9-14,11.4-36.8a443.8,443.8,0,0,0,4.2-48s2,4.2,7.3,19.2,6.6,47.8,6.6,47.8-8.9,21-29.5,44.8-33.5,29.3-33.5,29.3-1.5-15.9-7.5-41.8-22.6-81.8-22.6-81.8-.1,12.9-1.8,46.1-8.4,52.8-8.4,52.8-3.7-46.6-14.4-93.6a714.8,714.8,0,0,0-25-84.7S50.5,30.4,58.9,39,80.6,63.5,80.6,63.5,76.5,36.6,52.2-15.8-4.1-95.7-4.1-95.7s.8,4.2.6,18.7S-6-26.8-35.9-13s-56.9-.1-56.9-.1L-91.5-8a221.5,221.5,0,0,0-28.9,9.6c-15,6.2-29.4,16.6-29.4,16.6A88.5,88.5,0,0,0-168.3,7.1c-11.1-5-29.4-2.3-29.4-2.3s15,2.4,27.8,9S-145.2,35-145.2,35s-1.5,5.4-10.1,18.9-22.7,26-22.7,26l-8.5.6a67.4,67.4,0,0,0,6.6-7.4,58.7,58.7,0,0,0,5.6-10.3A74,74,0,0,1-187,74c-7.8,5.5-19.2,11.8-19.2,11.8Z" transform="translate(278.8 304.6)" style="fill:#fff;fill-rule:evenodd"/></svg>