<svg id="Layer_1" data-name="Layer 1" xmlns="http://www.w3.org/2000/svg" viewBox="0 0 213.1 190.3"><title>Mustangs-Horseshoe_3c</title><polygon points="159.9 59.8 149.9 59.8 148.3 61.3 148.2 61.2 146.2 59.8 134.6 59.8 132.3 62.1 132.3 68.7 133.7 70.2 133.7 92.7 129.8 70 131.1 68.7 131.1 62.1 128.8 59.8 112.9 59.8 110.6 62.1 110.6 68.7 111.9 70.1 106.5 102.5 104.4 104.6 104.4 111.2 106.7 113.5 117.4 113.5 119.4 111.5 121.5 113.5 144.3 113.5 146.6 111.2 146.6 104.7 149.3 112.1 151.3 113.5 158.5 113.5 160.8 111.2 160.8 70.2 162.2 68.7 162.2 62.1 159.9 59.8" style="fill:#fff"/><polygon points="110.3 59.8 83.9 59.8 81.6 62.1 81.6 86 83.9 88.4 89.4 88.4 89.4 103.1 87.9 104.6 87.9 111.2 90.2 113.5 104 113.5 106.3 111.2 106.3 104.6 104.8 103.1 104.8 88.4 110.3 88.4 112.6 86 112.6 62.1 110.3 59.8" style="fill:#fff"/><path d="M-19.9-1.1a23.1,23.1,0,0,0-2.5-9.1l1.4-1.4V-33.1l-2.3-2.3h-5a11.3,11.3,0,0,0-2.9-1.1,12.7,12.7,0,0,0-5.5,0,14.4,14.4,0,0,0-5,2.2,13.4,13.4,0,0,0-4.2,4.5,21.4,21.4,0,0,0-2.4,16.1,20.8,20.8,0,0,0,.9,2.5L-49-9.4V16.1l2.3,2.3h5.4l.5-.5,1.8.9a13.5,13.5,0,0,0,5.1,1h.2a11.5,11.5,0,0,0,5.9-1.6c4.7-2.8,6.6-8.4,7.2-11.5A27.8,27.8,0,0,0-19.9-1.1Z" transform="translate(106.5 95.1)" style="fill:#fff"/><path d="M-26.6-15.3c-.5-2.6-1.1-6.2-2.9-9.2a12.6,12.6,0,0,0-2-2.5,5.3,5.3,0,0,0-2.6-1.3,3.7,3.7,0,0,0-3,.7,4.7,4.7,0,0,0-1.7,3.5,8.8,8.8,0,0,0,3,6.5l10.5,9.4Z" transform="translate(106.5 95.1)" style="fill:#fff"/><path d="M-30.1,6.2l-.2-2.6a13.6,13.6,0,0,0-4.2-7.6l-5-4.2L-43.9-13v6.4a23,23,0,0,0,.9,5.9,39.8,39.8,0,0,0,1.8,4.9,20.7,20.7,0,0,0,2.9,4.7,5.6,5.6,0,0,0,2.1,1.6l1.8.4H-33a3.7,3.7,0,0,0,2.8-3.3A7.2,7.2,0,0,0-30.1,6.2Z" transform="translate(106.5 95.1)" style="fill:#fff"/><path d="M80.6-14v-19l-2.3-2.3H73.5l-.3.2a11.7,11.7,0,0,0-4.9-1.6,11.9,11.9,0,0,0-7.8,2.1c-6.9,4.8-8.9,14.3-9.4,19.5A59.1,59.1,0,0,0,51-3,51.2,51.2,0,0,0,53,7.3a27.7,27.7,0,0,0,1.6,4.1,16.1,16.1,0,0,0,2.8,4,13.8,13.8,0,0,0,9.8,4.5h.1A11.9,11.9,0,0,0,73,18.4a15,15,0,0,0,6.9-7.9,14.5,14.5,0,0,0,1-5.3V-4l1.5-1.5v-6.6ZM67-17.7a26,26,0,0,1,.7-4.1,13.6,13.6,0,0,1,.5,1.9,34.2,34.2,0,0,1,.5,5.4H66.9Q66.9-16.1,67-17.7Z" transform="translate(106.5 95.1)" style="fill:#fff"/><path d="M106.5,5.1a29.8,29.8,0,0,0-2.8-11.3h0l1.7-1.7V-32.8l-2.3-2.3H98.3a10.1,10.1,0,0,0-8.7-1.3A18,18,0,0,0,86.1-35H86a14.1,14.1,0,0,0-3.2,2.7l-1.2,1.6a12.4,12.4,0,0,0-1.2,2.2l-2,5.9v.2a23,23,0,0,0-.8,5.8,35.4,35.4,0,0,0,.5,6.2,14.9,14.9,0,0,0,1.2,4L77.4-4.6V25.1l2.3,2.3h5.4l.4-.4,1.9,1.1a11.6,11.6,0,0,0,5,1.1,10.9,10.9,0,0,0,7-2.6,15.6,15.6,0,0,0,4-5.1,29,29,0,0,0,2.5-7.7A36,36,0,0,0,106.5,5.1Z" transform="translate(106.5 95.1)" style="fill:#fff"/><path d="M99.8-11.6q-.3-1.9-.6-3.8c-.5-2.8-1.5-6.9-4.2-10.2a4.9,4.9,0,0,0-2.7-1.6,3.4,3.4,0,0,0-2.9.6,5.9,5.9,0,0,0-1.9,4.1,8.8,8.8,0,0,0,.3,2.8,11.6,11.6,0,0,0,2.6,4.7L101-3.7Z" transform="translate(106.5 95.1)" style="fill:#fff"/><path d="M96.2,13.7,96,10.5a16.9,16.9,0,0,0-4.1-8.9l-5-5L82.5-9.1v7.4a31.4,31.4,0,0,0,.8,6.9l1.8,6h0a27,27,0,0,0,1.8,3.8c1.5,2.7,2.6,3.4,3.3,3.7l1.3.4h.9a3.2,3.2,0,0,0,2.1-.7C96.3,17.1,96.2,14.1,96.2,13.7Z" transform="translate(106.5 95.1)" style="fill:#fff"/><polygon points="35.6 69.6 35.6 62.2 33.3 59.9 22.4 59.9 20.3 61.4 18.1 68.9 15.6 61.5 13.5 60 2.3 60 0 62.4 0 69.6 1.5 71.1 1.5 111.5 0 113 0 120.3 2.3 122.6 12.6 122.6 14.9 120.3 14.9 113 13.4 111.5 13.4 107.5 13.5 107.7 18.7 107.7 18.7 111.5 17.2 113 17.2 120.3 19.5 122.6 33.3 122.6 35.6 120.3 35.6 113 34.2 111.5 34.2 71.1 35.6 69.6" style="fill:#fff"/><path d="M-46.5-35.4H-56.8L-58-34.2l-1.2-1.2h-14l-2.3,2.3v6.6l1.5,1.5V-.7a37.5,37.5,0,0,0,.5,6.5,27.3,27.3,0,0,0,.8,3.4A15.1,15.1,0,0,0-66.5,18a13.4,13.4,0,0,0,7,1.9h.3a11.9,11.9,0,0,0,5.9-1.6c4.5-2.6,6.2-7.8,7-11.8a40.7,40.7,0,0,0,.7-7.8V-24.9l1.5-1.5v-6.6ZM-58.4-24.9l.3-.3.3.3V-1.5A27.6,27.6,0,0,1-58,1.6V.9a19.6,19.6,0,0,1-.2-2.3Z" transform="translate(106.5 95.1)" style="fill:#fff"/><path d="M-17.1-73.3a12.7,12.7,0,0,0-1.5-3.4,22.4,22.4,0,0,0-4.3-5.1c-3-2.8-6.9-6-9.6-8.2l-3.8-2.9-2-1.3a9.5,9.5,0,0,0-6.3-.7H-45l-.4.3a25.5,25.5,0,0,0-4.3,3.5,55.3,55.3,0,0,0-6.4,6.5A42.8,42.8,0,0,0-63-75.7l-.2.3-.5,1.5-.2,2.7v.2a6.2,6.2,0,0,0,.9,2.8l2.6,2.9-1.2,2.1a147.7,147.7,0,0,0-7.6,13.2l-3.7,8.8,2.3,3.5h31.7l.7-1.3A128.6,128.6,0,0,1-22.9-60.4l4.5-5.8A8.3,8.3,0,0,0-17-69.4,8.5,8.5,0,0,0-17.1-73.3Z" transform="translate(106.5 95.1)" style="fill:#fff"/><path d="M85.7-41.2l-2.4-6.1c-1-2.3-2.2-5-3.2-6.9s-2.4-4.2-3.7-6.2l-3.1-5,.8-.8,1.7-1.7.2-.3a7.1,7.1,0,0,0,.9-2.2v-.3a11.1,11.1,0,0,0-2.6-7.8L65.2-88.7h-.1l-2.7-2.6-1.6-1.4c-2.4-1.8-4.7-2.6-7-2.3a7.6,7.6,0,0,0-2.5.8,10.4,10.4,0,0,0-2,1.4c-4.7,3.7-9.4,7.6-14,11.6a24.2,24.2,0,0,0-2.8,3.1l-1.2,1.7A11.3,11.3,0,0,0,30-73.9v.4a11.2,11.2,0,0,0,3.4,10c1.5,1.6,3,3.3,4.4,5.1A173.9,173.9,0,0,1,51-39l.7,1.2H86.9Z" transform="translate(106.5 95.1)" style="fill:#fff"/><path d="M86.7,26.1H53.5l-.7,1.3A67.9,67.9,0,0,1,42.7,41.6a51.5,51.5,0,0,1-21.2,13A48.8,48.8,0,0,1,7.2,56.8L.8,56.4A49.2,49.2,0,0,1-27.3,43.5a60.7,60.7,0,0,1-6.6-7.1,67.6,67.6,0,0,1-5.9-9l-.7-1.3H-76.9l1,3.2a118,118,0,0,0,6.8,17.5,88.7,88.7,0,0,0,30,34.8A79.4,79.4,0,0,0-5.6,94.4H-5l.5.2h.3l1.8.2,3.8.2,6.8.2h4l5.8-.6A81.3,81.3,0,0,0,65.3,71.1a94.1,94.1,0,0,0,7-8A87.5,87.5,0,0,0,79,53.3a96.1,96.1,0,0,0,5.3-10.6,126,126,0,0,0,4.4-12.1l.4-1.2Z" transform="translate(106.5 95.1)" style="fill:#fff"/><rect x="43.4" y="58.1" width="13.3" height="7.01" transform="translate(77.7 147.6) rotate(-44.3)" style="fill:#fff"/><rect x="59.9" y="37.1" width="13.3" height="7.01" transform="translate(103.2 170.3) rotate(-57.7)" style="fill:#fff"/><rect x="-41.7" y="55.6" width="7" height="13.25" transform="translate(62.6 84.5) rotate(-36)" style="fill:#fff"/><rect x="-56" y="34" width="7" height="13.25" transform="translate(76.7 73.3) rotate(-32.3)" style="fill:#fff"/><polygon points="31.7 118.6 21.1 118.6 21.1 114.6 22.6 114.6 22.6 83 16.3 103.8 9.5 83.2 9.5 114.6 10.9 114.6 10.9 118.6 3.9 118.6 3.9 114.6 5.4 114.6 5.4 68 3.9 68 3.9 64 12.3 64 18.2 81.8 23.7 63.8 31.7 63.8 31.7 68 30.2 68 30.2 114.6 31.7 114.6 31.7 118.6 31.7 118.6" style="fill:#1e4ca0;fill-rule:evenodd"/><path d="M-53.7-1.3V-28h-1.5v-3.4h7V-28h-1.5V-1.3a35,35,0,0,1-.8,8.2,16.7,16.7,0,0,1-2.2,5.3,8.1,8.1,0,0,1-3.1,2.9,8,8,0,0,1-3.6.9,9.9,9.9,0,0,1-4.5-1,9,9,0,0,1-3.4-3,15.3,15.3,0,0,1-2.2-5.2A31.8,31.8,0,0,1-70-.6V-28h-1.5v-3.4h10.7V-28h-1.5V-1.3a20.8,20.8,0,0,0,.2,3.1,9.2,9.2,0,0,0,.7,2.5A4.3,4.3,0,0,0-60,6a3.4,3.4,0,0,0,2,.6,3.2,3.2,0,0,0,2-.6,4.5,4.5,0,0,0,1.3-1.7,8.8,8.8,0,0,0,.7-2.5,22.7,22.7,0,0,0,.2-3.1Z" transform="translate(106.5 95.1)" style="fill:#1e4ca0;fill-rule:evenodd"/><path d="M-23.8-.8a23.3,23.3,0,0,1-.5,6.9,17.5,17.5,0,0,1-2.1,5.3,10.4,10.4,0,0,1-3.3,3.4,7.4,7.4,0,0,1-4,1.2,10.1,10.1,0,0,1-3.1-.4,11.7,11.7,0,0,1-2.5-1.1,10.4,10.4,0,0,1-2-1.6l-1.5-1.8v3.6H-45V-7.8h2.3v1.1A21.2,21.2,0,0,0-42-1.2a30.1,30.1,0,0,0,1.8,5.1,21.2,21.2,0,0,0,2.3,3.9,5.3,5.3,0,0,0,2.2,1.9,4.1,4.1,0,0,0,2.7.2,2.4,2.4,0,0,0,1.4-1.3,5.4,5.4,0,0,0,.4-2.3,16.8,16.8,0,0,0-.2-2.7,11,11,0,0,0-1.4-4,15.6,15.6,0,0,0-2.3-2.9,25.7,25.7,0,0,0-2.7-2.3l-2.4-2a13.9,13.9,0,0,1-1.7-1.8,15.2,15.2,0,0,1-1.5-2.4,14.2,14.2,0,0,1-1.1-2.8,11.8,11.8,0,0,1-.4-3.2,20.4,20.4,0,0,1,.6-5.5,25.4,25.4,0,0,1,1.9-4.6,9.8,9.8,0,0,1,1.8-2.3,9.5,9.5,0,0,1,2.2-1.6,10.3,10.3,0,0,1,2.5-.9l2.5-.3a5.4,5.4,0,0,1,2,.4l1.8.9,1.5,1.2,1.1,1.2v-2.2h2.1v18.2h-2.4a37,37,0,0,0-1-5.4A22.3,22.3,0,0,0-30-23.1a10.5,10.5,0,0,0-2.2-3,3.9,3.9,0,0,0-2.7-1.1,2.6,2.6,0,0,0-1.9.8,3.7,3.7,0,0,0-1,2.1,6,6,0,0,0,.4,2.9,7.8,7.8,0,0,0,2.2,3.1l2.1,1.9,2.4,2A26.4,26.4,0,0,1-28.3-12a19.3,19.3,0,0,1,2.1,3,17.9,17.9,0,0,1,1.6,3.7,20.3,20.3,0,0,1,.8,4.5Z" transform="translate(106.5 95.1)" style="fill:#1e4ca0;fill-rule:evenodd"/><path d="M-21-31.4H2.1v20.7H-.8q0-2.7-.3-5.5A29.7,29.7,0,0,0-2-21.1a11.2,11.2,0,0,0-1.5-3.5,2.3,2.3,0,0,0-2.2-1.2V11.1h1.5v3.4H-14.7V11.1h1.5V-25.8a2.3,2.3,0,0,0-2.2,1.2A11.2,11.2,0,0,0-17-21.1a29.7,29.7,0,0,0-.9,4.9q-.3,2.7-.3,5.5H-21V-31.4Z" transform="translate(106.5 95.1)" style="fill:#1e4ca0;fill-rule:evenodd"/><path d="M16.6,14.5V11.1H18L16.8,3.4H9L7.7,11.1H9.2v3.4H1.8V11.1H3.3L9.9-28H8v-3.4H20.6V-28H18.7l6.8,39.1H27v3.4ZM12.8-20.1,10.3-4.5h5.1L12.8-20.1Z" transform="translate(106.5 95.1)" style="fill:#1e4ca0;fill-rule:evenodd"/><polygon points="156.8 67.1 156.8 109.6 152.6 109.6 141.2 78.6 141.2 106.2 142.6 106.2 142.6 109.6 136.2 109.6 136.2 106.2 137.7 106.2 137.7 67.1 136.2 67.1 136.2 63.7 145 63.7 153 85.2 153 67.1 151.5 67.1 151.5 63.7 158.3 63.7 158.3 67.1 156.8 67.1 156.8 67.1" style="fill:#1e4ca0;fill-rule:evenodd"/><path d="M78.5-7.2H76.9V5.2A10.6,10.6,0,0,1,76.2,9a11.9,11.9,0,0,1-2,3.4,10.2,10.2,0,0,1-3,2.5,7.9,7.9,0,0,1-3.7.9,9.1,9.1,0,0,1-5.2-1.6,12.7,12.7,0,0,1-4-4.7A27.5,27.5,0,0,1,55.6,2a54.5,54.5,0,0,1-.9-10.6,46,46,0,0,1,1.1-10.9,27.2,27.2,0,0,1,2.9-7.6,13.3,13.3,0,0,1,4-4.4,8.1,8.1,0,0,1,4.4-1.4,8.8,8.8,0,0,1,2.4.3,6.2,6.2,0,0,1,1.7.8,6.4,6.4,0,0,1,1.3,1.1l1.1,1.3,1-2h2v17.9H72.7a25.1,25.1,0,0,0-.3-4.7,27,27,0,0,0-1.1-4.7,12.6,12.6,0,0,0-1.8-3.6,2.9,2.9,0,0,0-2.3-1.4,2.3,2.3,0,0,0-1.7.9,8.8,8.8,0,0,0-1.5,3.1,32.6,32.6,0,0,0-1.1,5.9,83.7,83.7,0,0,0-.4,9.3q0,5.2.3,8.8A39.4,39.4,0,0,0,63.7,6,10,10,0,0,0,65,9.3a3.9,3.9,0,0,0,1.7,1.5h.9l.9-.4a2.7,2.7,0,0,0,.7-1A3.5,3.5,0,0,0,69.6,8V-7.2H67.3v-3.4H78.5v3.4Z" transform="translate(106.5 95.1)" style="fill:#1e4ca0;fill-rule:evenodd"/><path d="M102.5,5.3a32.9,32.9,0,0,1-.5,8.2,23.3,23.3,0,0,1-2.1,6.3,11.7,11.7,0,0,1-3.3,4,6.5,6.5,0,0,1-4,1.4,8.6,8.6,0,0,1-3.1-.5A10.8,10.8,0,0,1,85,21.4a19.4,19.4,0,0,1-1.5-2.2v4.3H81.3V-3h2.3v1.4a29.8,29.8,0,0,0,.7,6.5,40.5,40.5,0,0,0,1.8,6,26.7,26.7,0,0,0,2.3,4.6,5.6,5.6,0,0,0,2.2,2.3,3.5,3.5,0,0,0,2.7.3,2.6,2.6,0,0,0,1.4-1.6,7.5,7.5,0,0,0,.4-2.7,23.8,23.8,0,0,0-.2-3.2,14.8,14.8,0,0,0-1.4-4.7,18.5,18.5,0,0,0-2.3-3.5A27.6,27.6,0,0,0,88.6-.3L86.1-2.7a15.8,15.8,0,0,1-1.7-2.2,18.8,18.8,0,0,1-1.5-2.8A18.9,18.9,0,0,1,81.8-11a16.6,16.6,0,0,1-.4-3.8,28.7,28.7,0,0,1,.6-6.6,33.8,33.8,0,0,1,1.9-5.5,11.7,11.7,0,0,1,1.8-2.8A9.8,9.8,0,0,1,88-31.5a9.3,9.3,0,0,1,2.5-1.1,9.9,9.9,0,0,1,2.5-.3,4.7,4.7,0,0,1,2,.5l1.8,1.1,1.5,1.4,1.1,1.4v-2.7h2.1V-9.5H99A51.6,51.6,0,0,0,98-16a29.9,29.9,0,0,0-1.7-5.3,12.6,12.6,0,0,0-2.2-3.6,3.6,3.6,0,0,0-2.7-1.3,2.4,2.4,0,0,0-1.9,1,4.9,4.9,0,0,0-1,2.5,8.4,8.4,0,0,0,.4,3.5,9.4,9.4,0,0,0,2.2,3.6l2.1,2.3,2.4,2.4A29.6,29.6,0,0,1,98.1-8a23.4,23.4,0,0,1,2.1,3.5,23.7,23.7,0,0,1,1.6,4.4,28.4,28.4,0,0,1,.8,5.4Z" transform="translate(106.5 95.1)" style="fill:#1e4ca0;fill-rule:evenodd"/><path d="M-68.4-41.7h27.3A128.2,128.2,0,0,1-25.9-63a47.5,47.5,0,0,0,4.3-5.5,5.4,5.4,0,0,0,0-5.7l-2.2-2.9-4.4-4.1q-5.8-5-12.1-9.6a5.3,5.3,0,0,0-3.2-.3A20.3,20.3,0,0,0-47-88.2a51.2,51.2,0,0,0-6.2,6.3,38.8,38.8,0,0,0-6.4,8.1l-.2.5a6.4,6.4,0,0,0-.2,2.2,1,1,0,0,0,.2.5l.2.2a46.8,46.8,0,0,1,3.4,3.7l.5,1h0a33,33,0,0,1-2.5,4.3,143.2,143.2,0,0,0-7.4,12.9q-1.5,3.2-2.7,6.6Z" transform="translate(106.5 95.1)" style="fill:#4d4f53;fill-rule:evenodd"/><path d="M53.9-41.7H81.2a115.6,115.6,0,0,0-5.3-11.7L68.8-64.9v-.5a.9.9,0,0,1,.1-.8,14.5,14.5,0,0,1,2.7-3.1l1.3-1.4a1,1,0,0,0,.2-.5,6.9,6.9,0,0,0-1.6-4.8q-2.4-3.1-5.1-6a39,39,0,0,1-3.9-4.2q-2.3-1.9-4.4-4a4.3,4.3,0,0,0-6,.3q-7.1,5.5-13.9,11.5a17.1,17.1,0,0,0-4.2,5.7,7.1,7.1,0,0,0,2.3,6.4l6.8,8.1A113.8,113.8,0,0,1,53.9-41.7Z" transform="translate(106.5 95.1)" style="fill:#4d4f53;fill-rule:evenodd"/><path d="M-42.8,30.1H-71.6a101.6,101.6,0,0,0,6,15.1A84.6,84.6,0,0,0-36.9,78.4,77.7,77.7,0,0,0-5,90.5l1.5.2,2.8.3a65.7,65.7,0,0,0,6.9.2h5.7a6.4,6.4,0,0,0,2.1-.2l3.4-.3A77,77,0,0,0,62.5,68.3,91,91,0,0,0,84.1,32.1l.6-2H55.9A68.6,68.6,0,0,1,45.5,44.3a55.3,55.3,0,0,1-22.8,14A52.8,52.8,0,0,1,7.2,60.7a33.4,33.4,0,0,1-6.8-.3A53.5,53.5,0,0,1-30,46.4,65.5,65.5,0,0,1-42.8,30.1ZM56.1,59.4l-8.4,7.3-3.2-3.7,8.4-7.3,3.2,3.7ZM71.6,37.2l-6,9.4L61.5,44l6-9.4,4.1,2.6ZM-42.9,59l3.5-3.4,7.8,7.9-3.5,3.4L-42.9,59ZM-57.6,37.2l4.1-2.6,6,9.4-4.1,2.6-6-9.4Zm88,38.4L19.8,79l-1.5-4.7,10.6-3.5,1.5,4.7Zm-47.7-.2,1.4-4.7,10.7,3.2-1.4,4.7-10.7-3.2Z" transform="translate(106.5 95.1)" style="fill:#4d4f53;fill-rule:evenodd"/></svg>