<svg id="Layer_1" data-name="Layer 1" xmlns="http://www.w3.org/2000/svg" viewBox="0 0 213.1 190.3"><title>Mustangs-Horseshoe_1c</title><path d="M37.7-58.4A173.9,173.9,0,0,1,51-39l.7,1.2H86.9l-1.3-3.4-2.4-6.1c-1-2.3-2.2-5-3.2-6.9s-2.4-4.2-3.7-6.2l-3.1-5,.8-.8,1.7-1.7.2-.3a7.1,7.1,0,0,0,.9-2.2v-.3a11.1,11.1,0,0,0-2.6-7.8L65.2-88.7h-.1l-2.7-2.6-1.6-1.4c-2.4-1.8-4.7-2.6-7-2.3a7.6,7.6,0,0,0-2.5.8,10.4,10.4,0,0,0-2,1.4c-4.7,3.7-9.4,7.6-14,11.6a24.2,24.2,0,0,0-2.8,3.1l-1.2,1.7A11.3,11.3,0,0,0,30-73.9v.4a11.2,11.2,0,0,0,3.4,10C34.8-61.9,36.3-60.2,37.7-58.4ZM33.8-72.7a17.1,17.1,0,0,1,4.2-5.7q6.8-6,13.9-11.5a4.3,4.3,0,0,1,6-.3q2.1,2.1,4.4,4a39,39,0,0,0,3.9,4.2q2.7,2.9,5.1,6a6.9,6.9,0,0,1,1.6,4.8,1,1,0,0,1-.2.5l-1.3,1.4a14.5,14.5,0,0,0-2.7,3.1.9.9,0,0,0-.1.8v.5l7.1,11.5a115.6,115.6,0,0,1,5.3,11.7H53.9A113.8,113.8,0,0,0,42.8-58.2l-6.8-8.1A7.1,7.1,0,0,1,33.8-72.7Z" transform="translate(106.5 95.1)" style="fill:#050000"/><polygon points="119.4 75 116.9 90.6 122 90.6 119.4 75" style="fill:#050000"/><rect x="-55" y="35" width="4.9" height="11.15" transform="translate(76.7 73.3) rotate(-32.3)" style="fill:#050000"/><path d="M-38.8-37.8l.7-1.3A128.6,128.6,0,0,1-22.9-60.4l4.5-5.8A8.3,8.3,0,0,0-17-69.4a8.5,8.5,0,0,0-.1-3.9,12.7,12.7,0,0,0-1.5-3.4,22.4,22.4,0,0,0-4.3-5.1c-3-2.8-6.9-6-9.6-8.2l-3.8-2.9-2-1.3a9.5,9.5,0,0,0-6.3-.7H-45l-.4.3a25.5,25.5,0,0,0-4.3,3.5,55.3,55.3,0,0,0-6.4,6.5A42.8,42.8,0,0,0-63-75.7l-.2.3-.5,1.5-.2,2.7v.2a6.2,6.2,0,0,0,.9,2.8l2.6,2.9-1.2,2.1a147.7,147.7,0,0,0-7.6,13.2l-3.7,8.8,2.3,3.5ZM-65.6-48.3a143.2,143.2,0,0,1,7.4-12.9,33.1,33.1,0,0,0,2.5-4.3h0l-.5-1a46.8,46.8,0,0,0-3.4-3.7l-.2-.2a1,1,0,0,1-.2-.5,6.4,6.4,0,0,1,.2-2.2l.2-.5a38.8,38.8,0,0,1,6.4-8.1A51.2,51.2,0,0,1-47-88.2a20.3,20.3,0,0,1,3.5-2.9,5.3,5.3,0,0,1,3.2.3q6.2,4.5,12.1,9.6l4.4,4.1,2.2,2.9a5.4,5.4,0,0,1,0,5.7A47.5,47.5,0,0,1-25.9-63,128.2,128.2,0,0,0-41.1-41.7H-68.4Q-67.1-45-65.6-48.3Z" transform="translate(106.5 95.1)" style="fill:#050000"/><rect x="-39.7" y="55.7" width="4.9" height="11.15" transform="translate(52.9 86.6) rotate(-44.6)" style="fill:#050000"/><rect x="18.8" y="72.5" width="11.1" height="4.9" transform="translate(84.5 106.4) rotate(-18.1)" style="fill:#050000"/><path d="M106.5,5.1a29.8,29.8,0,0,0-2.8-11.3h0l1.7-1.7V-32.8l-2.3-2.3H98.3a10.1,10.1,0,0,0-8.7-1.3A18,18,0,0,0,86.1-35H86a14.1,14.1,0,0,0-3.2,2.7l-1.2,1.6L80.6-29v-4l-2.3-2.3H73.5l-.3.2a11.7,11.7,0,0,0-4.9-1.6,11.9,11.9,0,0,0-7.8,2.1,17.8,17.8,0,0,0-4.8,5.1v-3.5l-2.3-2.3H43.3l-1.6,1.6V-34l-2-1.4H28l-2.3,2.3v6.6l1.5,1.5V-2.4L23.3-25.1l1.3-1.3v-6.6l-2.3-2.3H6.4L5.1-34.1,3.8-35.4H-22.7l-.3.3-.3-.3h-5a11.3,11.3,0,0,0-2.9-1.1,12.7,12.7,0,0,0-5.5,0,14.4,14.4,0,0,0-5,2.2A13.3,13.3,0,0,0-44.2-32v-1.1l-2.3-2.3H-56.8L-58-34.2l-1.2-1.2H-84.1l-2.1,1.6-2.3,7.4-2.4-7.3L-93-35.1h-11.2l-2.3,2.3v7.3l1.5,1.5V16.4l-1.5,1.5v7.3l2.3,2.3H-94l2.3-2.3V17.8l-1.5-1.5V12.6h5.2v3.8l-1.5,1.5v7.3l2.3,2.3h10.5l.6,1.9a118,118,0,0,0,6.8,17.5,88.7,88.7,0,0,0,30,34.8A79.4,79.4,0,0,0-5.6,94.4H-5l.5.2h.3l1.8.2,3.8.2,6.8.2h4l5.8-.6A81.3,81.3,0,0,0,65.3,71.1a94.1,94.1,0,0,0,7-8A87.5,87.5,0,0,0,79,53.3a96.1,96.1,0,0,0,5.3-10.6,126,126,0,0,0,4.4-12.1l.4-1.2-.6-.8a11.5,11.5,0,0,0,4,.7,10.9,10.9,0,0,0,7-2.6,15.6,15.6,0,0,0,4-5.1,29,29,0,0,0,2.5-7.7A36,36,0,0,0,106.5,5.1ZM55.8-19.5a27.2,27.2,0,0,1,2.9-7.6,13.2,13.2,0,0,1,4-4.4,8.1,8.1,0,0,1,4.4-1.4,8.8,8.8,0,0,1,2.4.3,6.2,6.2,0,0,1,1.7.8,6.4,6.4,0,0,1,1.3,1.1l1.1,1.3,1-2h2v17.9H72.7a25.1,25.1,0,0,0-.3-4.7,27,27,0,0,0-1.1-4.7,12.6,12.6,0,0,0-1.8-3.6,2.9,2.9,0,0,0-2.3-1.4,2.3,2.3,0,0,0-1.7.9,8.8,8.8,0,0,0-1.5,3.1,32.6,32.6,0,0,0-1.1,5.9,83.7,83.7,0,0,0-.4,9.3q0,5.2.3,8.8A39.4,39.4,0,0,0,63.7,6,10,10,0,0,0,65,9.3a3.9,3.9,0,0,0,1.7,1.5h.9l.9-.4a2.7,2.7,0,0,0,.7-1A3.5,3.5,0,0,0,69.6,8V-7.2H67.3v-3.4H78.5v3.4H76.9V5.2A10.6,10.6,0,0,1,76.2,9a11.9,11.9,0,0,1-2,3.4,10.2,10.2,0,0,1-3,2.5,7.9,7.9,0,0,1-3.7.9,9.1,9.1,0,0,1-5.2-1.6,12.7,12.7,0,0,1-4-4.7A27.5,27.5,0,0,1,55.6,2a54.5,54.5,0,0,1-.9-10.6A46,46,0,0,1,55.8-19.5ZM29.7,11.1h1.5V-28H29.7v-3.4h8.8l8,21.5V-28H45v-3.4h6.8V-28H50.3V14.5H46l-11.4-31V11.1h1.5v3.4H29.7ZM9.9-28H8v-3.4H20.6V-28H18.7l6.8,39.1H27v3.4H16.6V11.1H18L16.8,3.4H9L7.7,11.1H9.2v3.4H1.8V11.1H3.3ZM-.1,7.4-1.2,8.5-1.7,8V-6.8h4ZM-21-31.4H2.1v20.7H-.8q0-2.7-.3-5.5A29.7,29.7,0,0,0-2-21.1a11.2,11.2,0,0,0-1.5-3.5,2.3,2.3,0,0,0-2.2-1.2V11.1h1.5v3.4H-14.7V11.1h1.5V-25.8a2.3,2.3,0,0,0-2.2,1.2A11.2,11.2,0,0,0-17-21.1a29.7,29.7,0,0,0-.9,4.9q-.3,2.7-.3,5.5H-21ZM-45-7.8h2.3v1.1A21.2,21.2,0,0,0-42-1.2a30.1,30.1,0,0,0,1.8,5.1,21.2,21.2,0,0,0,2.3,3.9,5.3,5.3,0,0,0,2.2,1.9,4.1,4.1,0,0,0,2.7.2,2.4,2.4,0,0,0,1.4-1.3,5.4,5.4,0,0,0,.4-2.3,16.8,16.8,0,0,0-.2-2.7,11,11,0,0,0-1.4-4,15.6,15.6,0,0,0-2.3-2.9,25.7,25.7,0,0,0-2.7-2.3l-2.4-2a13.9,13.9,0,0,1-1.7-1.8,15.2,15.2,0,0,1-1.5-2.4,14.2,14.2,0,0,1-1.1-2.8,11.8,11.8,0,0,1-.4-3.2,20.4,20.4,0,0,1,.6-5.5,25.4,25.4,0,0,1,1.9-4.6,9.8,9.8,0,0,1,1.8-2.3,9.5,9.5,0,0,1,2.2-1.6,10.3,10.3,0,0,1,2.5-.9l2.5-.3a5.4,5.4,0,0,1,2,.4l1.8.9,1.5,1.2,1.1,1.2v-2.2h2.1v18.2h-2.4a37,37,0,0,0-1-5.4A22.3,22.3,0,0,0-30-23.1a10.5,10.5,0,0,0-2.2-3,3.9,3.9,0,0,0-2.7-1.1,2.6,2.6,0,0,0-1.9.8,3.7,3.7,0,0,0-1,2.1,6,6,0,0,0,.4,2.9,7.8,7.8,0,0,0,2.2,3.1l2.1,1.9,2.4,2A26.4,26.4,0,0,1-28.3-12a19.3,19.3,0,0,1,2.1,3,17.9,17.9,0,0,1,1.6,3.7,20.3,20.3,0,0,1,.8,4.5,23.3,23.3,0,0,1-.5,6.9,17.5,17.5,0,0,1-2.1,5.3,10.4,10.4,0,0,1-3.3,3.4,7.4,7.4,0,0,1-4,1.2,10.1,10.1,0,0,1-3.1-.4,11.7,11.7,0,0,1-2.5-1.1,10.3,10.3,0,0,1-2-1.6l-1.5-1.8v3.6H-45ZM-58.4-24.9l.3-.3.3.3V-1.5A27.6,27.6,0,0,1-58,1.6V.9a19.6,19.6,0,0,1-.2-2.3Zm-13.2-6.5h10.7V-28h-1.5V-1.3a20.8,20.8,0,0,0,.2,3.1,9.2,9.2,0,0,0,.7,2.5A4.3,4.3,0,0,0-60,6a3.4,3.4,0,0,0,2,.6,3.2,3.2,0,0,0,2-.6,4.5,4.5,0,0,0,1.3-1.7,8.8,8.8,0,0,0,.7-2.5,22.7,22.7,0,0,0,.2-3.1V-28h-1.5v-3.4h7V-28h-1.5V-1.3a35,35,0,0,1-.8,8.2,16.7,16.7,0,0,1-2.2,5.3,8.1,8.1,0,0,1-3.1,2.9,8,8,0,0,1-3.6.9,9.9,9.9,0,0,1-4.5-1,9,9,0,0,1-3.4-3,15.3,15.3,0,0,1-2.2-5.2A31.8,31.8,0,0,1-70-.6V-28h-1.5Zm-.9,41.6A14.7,14.7,0,0,0-66.5,18a13.4,13.4,0,0,0,7,1.9h.3a11.9,11.9,0,0,0,5.9-1.6A12.5,12.5,0,0,0-49,13.9v2.2l2.3,2.3h5.4l.5-.5,1.8.9a13.5,13.5,0,0,0,5.1,1h.2a11.5,11.5,0,0,0,5.9-1.6c4.7-2.8,6.6-8.4,7.2-11.5a27.8,27.8,0,0,0,.6-7.9A22.9,22.9,0,0,0-21-6.8h3.8V8l-1.5,1.5v6.6l2.3,2.3H-2.6L-1.2,17,.2,18.4H10.8l2.1-2.1,2.1,2.1H37.7L40,16.1V9.6L42.8,17l2,1.4h7.1l2.3-2.3V10.4l.4,1a16.1,16.1,0,0,0,2.8,4,13.8,13.8,0,0,0,9.8,4.5h.1A11.9,11.9,0,0,0,73,18.4a14.5,14.5,0,0,0,4.4-3.6V25.1l1,1H53.5l-.7,1.3A67.9,67.9,0,0,1,42.7,41.6a51.5,51.5,0,0,1-21.2,13A48.8,48.8,0,0,1,7.2,56.8L.8,56.4A49.2,49.2,0,0,1-27.3,43.5a60.7,60.7,0,0,1-6.6-7.1,67.6,67.6,0,0,1-5.9-9l-.7-1.3H-71.9l1-1V17.8l-1.5-1.5ZM-90.2,8.6l-6.9-20.6V19.5h1.5v4h-7v-4h1.5V-27.1h-1.5v-4h8.3l6,17.8,5.5-18h8v4.2h-1.5V19.5h1.5v4H-85.4v-4h1.5V-12.1ZM84.1,32.1A91,91,0,0,1,62.5,68.3,77,77,0,0,1,17.4,90.6l-3.4.3a6.4,6.4,0,0,1-2.1.2H6.1A65.7,65.7,0,0,1-.8,91l-2.8-.3L-5,90.5a77.7,77.7,0,0,1-31.9-12A84.6,84.6,0,0,1-65.6,45.1a101.6,101.6,0,0,1-6-15.1h28.8A65.5,65.5,0,0,0-30,46.4,53.5,53.5,0,0,0,.4,60.4a33.4,33.4,0,0,0,6.8.3,52.8,52.8,0,0,0,15.6-2.4,55.3,55.3,0,0,0,22.8-14A68.6,68.6,0,0,0,55.9,30.1H84.7ZM102,13.5a23.3,23.3,0,0,1-2.1,6.3,11.7,11.7,0,0,1-3.3,4,6.5,6.5,0,0,1-4,1.4,8.6,8.6,0,0,1-3.1-.5A10.8,10.8,0,0,1,85,21.4a19.3,19.3,0,0,1-1.5-2.2v4.3H81.3V-3h2.3v1.4a29.8,29.8,0,0,0,.7,6.5,40.5,40.5,0,0,0,1.8,6,26.7,26.7,0,0,0,2.3,4.6,5.6,5.6,0,0,0,2.2,2.3,3.5,3.5,0,0,0,2.7.3,2.6,2.6,0,0,0,1.4-1.6,7.5,7.5,0,0,0,.4-2.7,23.8,23.8,0,0,0-.2-3.2,14.8,14.8,0,0,0-1.4-4.7,18.5,18.5,0,0,0-2.3-3.5A27.6,27.6,0,0,0,88.6-.3L86.1-2.7a15.8,15.8,0,0,1-1.7-2.2,18.8,18.8,0,0,1-1.5-2.8A18.9,18.9,0,0,1,81.8-11a16.6,16.6,0,0,1-.4-3.8,28.7,28.7,0,0,1,.6-6.6,33.8,33.8,0,0,1,1.9-5.5,11.7,11.7,0,0,1,1.8-2.8A9.8,9.8,0,0,1,88-31.5a9.3,9.3,0,0,1,2.5-1.1,9.9,9.9,0,0,1,2.5-.3,4.7,4.7,0,0,1,2,.5l1.8,1.1,1.5,1.4,1.1,1.4v-2.7h2.1V-9.5H99A51.6,51.6,0,0,0,98-16a29.9,29.9,0,0,0-1.7-5.3,12.6,12.6,0,0,0-2.2-3.6,3.6,3.6,0,0,0-2.7-1.3,2.4,2.4,0,0,0-1.9,1,4.9,4.9,0,0,0-1,2.5,8.4,8.4,0,0,0,.4,3.5,9.4,9.4,0,0,0,2.2,3.6l2.1,2.3,2.4,2.4A29.7,29.7,0,0,1,98.1-8a23.4,23.4,0,0,1,2.1,3.5,23.7,23.7,0,0,1,1.6,4.4,28.4,28.4,0,0,1,.8,5.4A32.9,32.9,0,0,1,102,13.5Z" transform="translate(106.5 95.1)" style="fill:#050000"/><rect x="44.7" y="58.8" width="11.1" height="4.9" transform="translate(78.7 143.4) rotate(-41.2)" style="fill:#050000"/><rect x="61" y="38.2" width="11.1" height="4.9" transform="translate(103.2 170.3) rotate(-57.7)" style="fill:#050000"/><rect x="-13.7" y="69" width="4.9" height="11.15" transform="translate(27.1 137.6) rotate(-73.3)" style="fill:#050000"/></svg>