<svg id="Layer_1" data-name="Layer 1" xmlns="http://www.w3.org/2000/svg" viewBox="0 0 540.8 583.7"><title>Mustang 1c</title><path d="M-119.5-119.1l7.1-11.9s5.1-.4,12.4,2.3,10.3,4.9,10.3,4.9a30.2,30.2,0,0,0-10.2-14c-7.5-5.4-17.5-6.5-17.5-6.5s-7.7,9.6-11.9,16.1-7.8,12.9-7.8,12.9-11.6-1.6-12.9-20.7a31.9,31.9,0,0,0,.3,15.9c2.4,8.1,10.5,11.7,10.5,11.7l1.7,8.8s-.8,11.3-1.1,18.5.3,7.6.3,7.6a51.2,51.2,0,0,0,13.9,9.4,116.2,116.2,0,0,0,16.7,5.5s-5.3-3.6-11.5-8.7a66,66,0,0,1-9.1-8.9l1-7s5-4.1,15.1-9,16.8-7.6,16.8-7.6-14.4,2.1-21.7,4.1a61.2,61.2,0,0,0-10.1,3.5l.8-4.5s10.2-3.8,22-7.7l17.2-5.7s-7-5.8-15.4-7.4A108.1,108.1,0,0,0-119.5-119.1Zm-3.1,15a17.9,17.9,0,0,1-1.5-9.4s3.2-1.1,11.1.3,9.5,2.5,9.5,2.5Z" transform="translate(270.4 290.2)" style="fill:#050000;fill-rule:evenodd"/><path d="M-142.1-100.7l-7-8.7c-29.4,24.2-65.4,62-65.4,62s20.4-14,36-24.1,34.1-20.3,34.1-20.3Z" transform="translate(270.4 290.2)" style="fill:#050000;fill-rule:evenodd"/><path d="M-244.5-28.7a28.1,28.1,0,0,0-4.8,10.8,13.9,13.9,0,0,1,7.6-5.6,127.2,127.2,0,0,0-5.1,16.6c-2.6,10.7-1.6,17.6-1.6,17.6l-1.6-1.4a4.8,4.8,0,0,1-1.5-3.4,13.6,13.6,0,0,0,.2,8.7c1.7,4.9,4.5,5.7,4.5,5.7s12.6-19.2,15.6-34S-232.8-36-232.8-36-240.8-33.6-244.5-28.7Z" transform="translate(270.4 290.2)" style="fill:#050000;fill-rule:evenodd"/><path d="M-39.1-222.7C-53.5-238.4-55-248.1-55-248.1c1.2,26.8,7.8,39.3,7.8,39.3s1,.4,5.6,4,13.5,13.1,13.5,13.1.9,1.3,4.3,9.8,5.6,24.1,5.6,24.1a84,84,0,0,0,4.6-21.7A59.6,59.6,0,0,0-16-199.7S-24.6-206.9-39.1-222.7Z" transform="translate(270.4 290.2)" style="fill:#050000;fill-rule:evenodd"/><path d="M-137.9-12.6A50,50,0,0,0-153.3,7.1s16.1-17.4,57-22.7c-.7-.2-13.9-7.4-13.9-7.4S-126.5-21.5-137.9-12.6Z" transform="translate(270.4 290.2)" style="fill:#050000;fill-rule:evenodd"/><path d="M269.5,28.3C263.1-10,246-14.4,246-14.4s6.5,21-9,27.8S211.7-.9,210.4-9.4s-2.4-19-2.4-19a20,20,0,0,1,10.4,10c3.8,7.8,3.7,12.7,3.7,12.7s18-13.3,9.2-49-53.5-44.8-53.5-44.8-11.2-9.3-5-22.5,24.8-4.6,23.6,4.8l-1.3,9.4s17.3-.7,19.7-30.4-31.1-52.8-55.9-54-55.4,2.5-55.4,2.5,5.5-14.6-2.1-34.7-22.9-23.6-22.9-23.6,4.3,18.3-13,22.4-44.9-13.7-56.2-21-41.4-8.8-41.4-8.8S-44.7-266.8-49.2-274a81.5,81.5,0,0,1-7.3-16.1s-8.4,6.9-12.6,21.2-3.6,24-3.6,24a125.7,125.7,0,0,0-17.6,10c-4-3.5-10-9-12.9-12.8a73.2,73.2,0,0,1-6.6-9.8,51.4,51.4,0,0,0-3.6,26.9,82.3,82.3,0,0,0,2.8,13.8l-2.2,2.9c-13.3,19.3-12.6,42.5-12.6,42.5s-7.2,4.2-19.5,9.8-18.7,7.7-18.7,7.7-2.2,8.6-3.7,17-1.7,10.9-1.7,10.9-44.4,40-55.1,51.2S-241.4-56-250-50.7a141.8,141.8,0,0,1-15.3,8.3s-6.5,19.8-4.8,51.4,6.9,45.1,6.9,45.1l10-4.9,6.8,9.3s12-8.7,20.1-13.1,9.7-4.3,9.7-4.3l9.4,4.6L-233.9,69l9.2,7.1-7.9,8.1c8.1,6.3,19.9,8.7,29.7,11l9.5-5.5,23.6-1.6s13.6-16.2,24.6-30.2,14.7-23.8,14.7-23.8l-2.7-9.4s13.8-8.5,26.4-11.2,16.1-3.3,16.1-3.3l16.4,2.6s10.3,10.6,8.1,33.5S-83.3,87-90.9,98.2s-21.5,26.8-21.5,26.8,3.6,46.9,79,82.2S76.4,293.5,76.4,293.5,127.3,265.9,159,226s43.5-58.5,43.5-58.5,5.3,2.4,2.3,14.4-7.3,17.8-7.3,17.8,37.9,14.1,55.2-29.5-6.2-82.9-6.2-82.9S275.8,66.5,269.5,28.3ZM26.5-220.2c17.9,11.7,40.4,12.1,50.5,3.5S88-231,88-231s4.8,10.3,4.1,26.3-5.1,20.1-5.1,20.1A83.1,83.1,0,0,1,75.7-183c4.3-4.3,12.6-14.9,11.5-29.3A35.4,35.4,0,0,1,70-191.4a94.6,94.6,0,0,1-15.7,6.7l-2-.6c-15.2-5.2-25.9-18.6-25.9-18.6s4.9,21.8,26.9,30.4,67.1-15.9,112.5-4.3,33.7,48.4,33.7,48.4-4.9-15.3-26.4-10.4-15.8,31.1-15.8,31.1-8-6.7-8.4-17.5,0-12.6,0-12.6-9.6,15.4-2.1,29.7,59,23.5,69.6,47.1S223-29.3,223-29.3s-10.1-13-25.6-15.2-28.7.2-39.8-2.5a67.2,67.2,0,0,1-20.4-9.1L129.8-71a149.5,149.5,0,0,0,37.6,9.6c20.7,2.4,34.3,8.7,34.3,8.7s-6.7-10.2-29-15.5-30.7-7.7-39-10.7-12.5-4.9-12.5-4.9-7.9-10-6.1-9.9a239.8,239.8,0,0,1,29,6.3l15.9,4.7s-19.2-11.5-33.4-17.5-28.2-10.8-28.2-10.8l-11-13.4s12.9,1.5,23.5-3.1,12.5-11.1,12.5-11.1-9.3,5.1-23.5,5.4-20-.6-20-.6L76-138.6s9.4,1.6,17.9-1.9a37,37,0,0,0,13.2-9s-13.9,3.2-24.8,3.1S65-148.6,65-148.6l-5.8-6.4s17.8,3.8,33.3-.4,38.2-10.7,56.6-8.4,29,10.6,29,10.6-9.7-21.9-45.2-19.6-33.7,7.1-56.5,8.7-31.5-3.9-31.5-3.9-13.3-10.4-20.8-18.3A167.5,167.5,0,0,0,8.6-199.6c-2.8-5-8.1-13.2-15.2-18.8l-2.3-2a90.9,90.9,0,0,1,23.5,6.2s-3.3-9.9-31.1-14c-2.9-3.2-5.9-6.7-8.7-10.1C-3.4-235.7,15.8-227.2,26.5-220.2Zm-86.8,21.1c-3.3,1.1-7.5,2.6-12.3,4.5,0-3.5,1.4-9.3,8.5-14.8A60.6,60.6,0,0,0-60.3-199.1Zm-11.2-33.1,4.3-1.7c.2,3.2.5,6.7.8,10.3-15.9,9.2-19.6,26.4-20.5,35a207.6,207.6,0,0,0-21.3,11.2S-109.3-216.3-71.6-232.2ZM-223.2,33.5l-17.1,12.5-5.9-7.5c20.2-14,34.8-13.2,34.8-13.2S-215.9,28.2-223.2,33.5Zm38.9,8.2a75.5,75.5,0,0,1-11.6,17.6A71.3,71.3,0,0,1-214.3,74l-7.7-4.5S-199.8,56.6-184.3,41.7ZM-34.8,158.5s-7.8-30.1-12.6-40.1-9.2-13.2-9.2-13.2a114,114,0,0,1-9,30.9,206.9,206.9,0,0,1-12.2,22.8,108.8,108.8,0,0,1-13.9-15,63.4,63.4,0,0,1-9-17.6,153.7,153.7,0,0,0,17-22c7.4-11.9,12-21.3,12-21.3s-1.8,21.1-5.8,33.6-7.6,20.5-7.6,20.5,22.7-17.5,29-89c0,0,12.3,18.8,18.5,55.2S-34.8,158.5-34.8,158.5Zm195.5,44.1c-20.6,23.8-33.5,29.3-33.5,29.3s-1.5-15.9-7.5-41.8-22.6-81.8-22.6-81.8-.1,12.9-1.8,46.1-8.4,52.8-8.4,52.8-3.7-46.6-14.4-93.6a714.8,714.8,0,0,0-25-84.7S50.5,30.4,58.9,39,80.6,63.5,80.6,63.5,76.5,36.6,52.2-15.8-4.1-95.7-4.1-95.7s.8,4.2.6,18.7S-6-26.8-35.9-13s-56.9-.1-56.9-.1L-91.5-8a221.5,221.5,0,0,0-28.9,9.6c-15,6.2-29.4,16.6-29.4,16.6A88.5,88.5,0,0,0-168.3,7.1c-11.1-5-29.4-2.3-29.4-2.3s15,2.4,27.8,9S-145.2,35-145.2,35s-1.5,5.4-10.1,18.9-22.7,26-22.7,26l-8.5.6a67.4,67.4,0,0,0,6.6-7.4,58.7,58.7,0,0,0,5.6-10.3A74,74,0,0,1-187,74c-7.8,5.5-19.2,11.8-19.2,11.8l-8.2-4.5s12.3-8.9,21.7-16.6,14.4-20.4,14.4-20.4l.8,3a24.6,24.6,0,0,1,.2,7.6,24.2,24.2,0,0,0,3.7-10.6c.4-5.8-1.5-20.3-25-26.1s-57.2,18.6-57.2,18.6-3.4-17.1-3.9-32.1,1.8-35,1.8-35c30.6-17.2,36.2-27.5,53.3-44.3s46-42.1,46-42.1a71.1,71.1,0,0,1,1.7-14c1.8-8.8,3.4-15.4,3.4-15.4a279.6,279.6,0,0,0,44.3-20.8c22.9-13.4,56.8-26.8,56.8-26.8s3.8,1.6,10.7,7.5a141.1,141.1,0,0,1,12.6,12.7s-2.9-13.9-9.9-21.3a55.7,55.7,0,0,0-15.5-11.4,175.2,175.2,0,0,1-4.9-27.6c-1.5-15.6,1.3-34.7,1.3-34.7s2.1,7,11.4,21.2S.8-198.9.8-198.9s.9,3.8,2.2,13,3,36.6,3,36.6l4.2-11.3a60.7,60.7,0,0,0,3.5-22.5s108.4,81.2,135,172.6,11.9,185.9,11.9,185.9,7.9-14,11.4-36.8a443.8,443.8,0,0,0,4.2-48s2,4.2,7.3,19.2,6.6,47.8,6.6,47.8S181.3,178.7,160.7,202.6Zm80.3-64.4c-.7,43.7-26,52.9-26,52.9s7.8-16.5,5.5-30.3-14.8-24.9-14.8-24.9-4.1-20.8-8.6-34.2S181,66.4,181,66.4l-1.2-10c43.3,32.4,50.2,86.7,50.2,86.7a124.7,124.7,0,0,0-1.9-36c-4-18.9-11.2-27-11.2-27l10,1.6S241.7,94.4,241.1,138.1ZM225.8,70.5c-37.8-4.4-60.4-59.1-60.4-59.1s-.2-1.6-1.8-9.4a135.6,135.6,0,0,0-5.1-16.9,38.9,38.9,0,0,1,13,9C177,.2,188.8,27,202.1,36.3s25.6,3.2,25.6,3.2a42.1,42.1,0,0,1-19-4.1c-9.4-4.6-16.1-23.5-27.9-44.7s-32.2-23-32.2-23l-3.7-9.6c15.9,7.1,35.4,6.6,35.4,6.6s10.1,9.6,13.5,18.9,7.5,35.6,28.1,42.3,32.7-12.8,32.7-12.8S263.6,74.9,225.8,70.5Z" transform="translate(270.4 290.2)" style="fill:#050000;fill-rule:evenodd"/><path d="M72.8-52s41.5,93.6,54.1,146.6,14.5,64,14.5,64,4.4-13.4,4.9-42.4a372,372,0,0,0-3.5-54.6S112.5,1,72.8-52Z" transform="translate(270.4 290.2)" style="fill:#050000;fill-rule:evenodd"/></svg>