<svg id="Layer_1" data-name="Layer 1" xmlns="http://www.w3.org/2000/svg" viewBox="0 0 497.6 438.7"><title>mustang588_2c</title><path d="M135,20.4a55.9,55.9,0,0,1,8.2-16.8c2.7-3.9,5.7-7.7,8.4-11.6a45.1,45.1,0,0,0,6-10.8,22.8,22.8,0,0,0,1.3-6.8,31,31,0,0,0-.9-9.3c.3,2.5.3,5.3-.6,7.1l-3.2,6L151.3-28a15.5,15.5,0,0,0-3.6-4.5,17.6,17.6,0,0,0-13.1-4,35.4,35.4,0,0,0-12.7,3c9.7,15.5,13.2,34.1,13.2,52.1q0,.8,0,1.7M-109.6,72.9c-3.3-9-6.8-17.9-10.4-26.8l-2-.4a37.7,37.7,0,0,1-4.4-1.1l-4.4-1.5-4.9,1.9A76.4,76.4,0,0,1-151,48.8a63.1,63.1,0,0,0-8.7,2c-3.9,1.1-7.7,2.4-11.5,3.7q-9.2,3.1-18.3,6.6l5.8,2.1,13.6,4.7,11.7,3.8a69.7,69.7,0,0,0,7.4,2c2.8.5,5,2.6,6.4,5.2l1.7-8.4.7-.7a11,11,0,0,1,5.3-2.5c5-1.1,10.9-.4,15.8.5A25.6,25.6,0,0,1-109.6,72.9Zm113-7.7c-1.9.4-3.9.6-5.8.8a139,139,0,0,1-25,.3,168,168,0,0,1-30.9-5.3c-4.4-1.2-8.9-2.4-13.2-3.9l-2.2.6L-72.4,98a23.2,23.2,0,0,0,1.6,2.7,22.2,22.2,0,0,1,3.1,7l.2,1.1-.4.9a22.4,22.4,0,0,0-.2,4.2,84.4,84.4,0,0,0,.8,8.9c.7,5.2,1.7,10.3,2.8,15.4s1.9,9.3,3.3,13.9a48.4,48.4,0,0,0,3.6,9.3c1.4,2.7,2.9,5.2,4.3,7.9s1.9,4.2,1.5,6.5-4.5,6.5-7.2,8.7a9.8,9.8,0,0,0-3,5,15.2,15.2,0,0,0-.5,2.2l1.6,2.7-5.2,24h-49.4l1.2-4.3a36.6,36.6,0,0,1,1.5-4.1,89.9,89.9,0,0,1,5.3-10.6,76.1,76.1,0,0,1,8.6-11.8c1.5-1.7,3.1-3.5,4.7-5l1-1H-89l4-8.9c-.4-5.5-.9-10.9-1.4-16.3a95.1,95.1,0,0,0-1.4-9.6c-.9-4.9-2.1-9.7-3.4-14.5-.5-1.8-1-3.7-1.6-5.5-3.8-2.7-9.2-7.4-10.3-11.6-.7-2.7-.6-6.2-.4-9s.5-6.4.9-9.6v-.2h0a15.3,15.3,0,0,0-.3-2.6l-.2-1.1-6.2,3.3-5.4,2.9-1.8,1-.6.3c-1.2.9-4.4,1.8-5.8,2.3l-10.2,3.3-9,2.7a38.6,38.6,0,0,1-6.3,1.4c-3.5.3-6.7-1-9.7-2.6s-3.9-2.2-5.9-3.3l-7.7-4.7c-2.7-1.6-5.5-3.1-8.3-4.6l-10.7-5.3q-12-5.8-24.3-11.2c-3.2-.6-7.2-2.1-9.6-4.3s-3.5-10.4-3.8-14.1a119.6,119.6,0,0,1-.3-12.2c.2-5.8,7.5-7.5,12.4-7.9l3.3-2.3c4.3-2.9,8.7-5.6,13.2-8.1l17.8-9.8,21.5-11.6L-161-3.2a41.1,41.1,0,0,1-4.4-13.9,44.6,44.6,0,0,1,0-5.8c.1-2.4.3-4.8.4-7.2q.6-7.2,1.4-14.3v-.4l7.3-20.8a24.9,24.9,0,0,0,.8-5.1,48.7,48.7,0,0,0-1.2-14.5,55.5,55.5,0,0,0-4.9-13.6c-.5-.9-1-1.8-1.6-2.7a64.1,64.1,0,0,1-7.3.2,41.3,41.3,0,0,1-13-2.4l-2.4,1.2a21.7,21.7,0,0,0-3,2l-2.7,2.2a10.7,10.7,0,0,1,.5,3,38.7,38.7,0,0,1-.5,5.5v.8l-.5.7c-1.1,1.5-3.7,3-5.4,3.9a21.1,21.1,0,0,0-2.4,1.7l-3.5,2.8-6.9,5.8-1.4,1.2-1.8-.5a18.9,18.9,0,0,0-4.9-.7,27.1,27.1,0,0,0-5.8.9l-6.9,6.4-7.2-2.7-.4-1.8a19.4,19.4,0,0,0-3.1-6.7,53.2,53.2,0,0,0-6-6.9l-1-1v-1.4a73.5,73.5,0,0,1,.8-9c.7-5.5,1.1-11,1.4-16.5v-1.3l6.7-6.4c.7-1.5,1.5-2.9,2.3-4.4a127.8,127.8,0,0,1,8.6-13.1,115.2,115.2,0,0,1,8.5-9.9q7.3-7.8,15.3-15.1c-.4-9.1.7-18.5,4.8-26.7q-.2-1.8-.4-3.5c-.5-5.2,1-10.1,2.5-15l2.7-8.8,2.1,8.2q.1-1,.2-2.1l.8-8.3,9.6,12a53.4,53.4,0,0,1,22.1-5.3,58.5,58.5,0,0,1,23.5,4c6,2.4,13.4,3.9,19.1-.2a14.5,14.5,0,0,0,4.7-5.8l1.7-4.6,3.7,3.2a11.3,11.3,0,0,1,2.6,3.8,16.5,16.5,0,0,1,.8,10,21.1,21.1,0,0,1-3.8,8.3h3.9a25,25,0,0,0,6.7-1.4l9.9-3.2c8.6-2.6,17.3-4.2,26.3-3s14.5,4.3,18.8,10.9a21.5,21.5,0,0,1,3.4,9.2l.5,6.3-2.5-1.4a27.9,27.9,0,0,1,3.1,4.5A38,38,0,0,1-34-154.4a75,75,0,0,0,1.4,14.7c.4,1.7,1.3,4.8,2.9,5.7a2.7,2.7,0,0,0,1.2.3h.4c.6-.6.7-3,.7-3.8a22.2,22.2,0,0,0-.5-4.6l-1.4-5.9,5.7,1.9a13.9,13.9,0,0,1,5.9,4.5c3.7,4.8,4.1,11,3.1,16.7s-4.6,12-10.9,14.8a22.1,22.1,0,0,1-5.3,1.6c0,.3,0,.6,0,.9a38,38,0,0,1-.6,5.9,12.6,12.6,0,0,0,.6,5.8,3.8,3.8,0,0,0,2.7,2.3,7.5,7.5,0,0,0,2.3.3l5.4-.4-2,5c-1.8,4.3-5.7,8.5-10.6,8.5l-3.2-.3a26.3,26.3,0,0,0,.6,4.6,33.8,33.8,0,0,0,2.7,7,41,41,0,0,0,5.9,9,20.3,20.3,0,0,0,7.7,5.7c10,3.8,24.8.2,34.6-3.2l4.9-1.8L27.6-62a112.6,112.6,0,0,1,20.1-4.7c17.6-2.3,34.6.5,49.8,9.6a75,75,0,0,1,21.1-15.3c16.5-8.2,35.1-10.7,53.4-9.5,14,.9,26.9,5.6,37.8,14.6C232.1-48.7,239.3-26.5,228.2.9a56.7,56.7,0,0,0-4.3,17.4c-.3,4.4,1.8,8.4,4.6,11.5a26,26,0,0,0,5.5,4.7l6.5,4-7.3,2.2a62.4,62.4,0,0,1-13.1,2.5q4.6,3.7,9.3,7.1c7.5,5.5,14.1,12.5,17.3,21.5s2.6,17.1-.1,25.6-7.4,17.3-15.2,22.7a31.3,31.3,0,0,1-18.4,5.5c-5.9-.1-10.2-3.7-13-8.7a28.9,28.9,0,0,1-3.1-7.9l-4.4-20.7,10.6,18.3a8.2,8.2,0,0,0,2,2.1,7.9,7.9,0,0,0,6.4,1.3c.9-.2,1.8-2.5,2-3.2a22.7,22.7,0,0,0,.4-9.6c-1.2-7.6-5.4-14.4-13.2-16.3-5.9-1.5-11.9-2.8-17.8-4.3a73.4,73.4,0,0,1-13.2-4.5,49.4,49.4,0,0,1-8.5-5.2l-2.2-1.7.5.6,8,8-11-2.3c-3.8-.8-8-3.7-10.8-6.3-7.5-7.2-10.7-17.8-11.8-27.9l-.4,2.6c-.3,2.4-.7,4.8-1.2,7.1l4.3,7c1.2,2,2.2,4,3.2,6.1s2.6,5.3,4,8,5.4,10.1,8.1,11.5a12.2,12.2,0,0,0,6.2,1c2.6-.1,5.3-.4,7.6,1a6.3,6.3,0,0,1,1.6,1.4c2.1,2.6,3.4,7.9,4.2,11.2,2,7.7,3.7,15.6,5.5,23.4.4,1.9,1,3.8,1.5,5.6a119.3,119.3,0,0,0,11.2,24.4c3,5.2,6.4,10.1,9.8,15a11.5,11.5,0,0,1,2.1,9.4c-.8,3.5-3,6.1-5.1,8.9a43.1,43.1,0,0,0-3.9,7.2q-2.1,4.4-3.9,8.9v22.9H138.4l1.4-4.4a123.2,123.2,0,0,1,5.7-14.8c.7-1.4,1.4-2.9,2.1-4.3a99,99,0,0,1,6.7-10.5c1.1-1.5,2.2-3.1,3.5-4.5l1.6-1.9,5.2,2.2,3.1-5.4a20.5,20.5,0,0,0-.2-4.3,58.9,58.9,0,0,0-2.1-8.8A147.6,147.6,0,0,0,160,148a95.8,95.8,0,0,0-17.8-27.3,93.1,93.1,0,0,0-7.3-7.2l-2.1-1.8h-1.6c-3.3-.2-6.6-.7-10-1.1-5.4-.7-10.8-1.6-16.2-2.7-.9,1.1-1.8,2.2-2.6,3.3a124.9,124.9,0,0,0-10.2,16.5c-6.2,11.7-9.6,24.5-11.6,37.6a11.7,11.7,0,0,1-2.1,5.3,15.9,15.9,0,0,1-5,4.1l-6.8,3.8a18.3,18.3,0,0,0-6.6,6.7,14.5,14.5,0,0,0-1.5,3.4l-.8,4.3v20.6H6.7l.5-3.8a25.4,25.4,0,0,1,1-4,95.9,95.9,0,0,1,4.5-11.5,44,44,0,0,1,9.2-12.9,38.4,38.4,0,0,1,5.5-4.6l.7-.5,2.7-.2L46,158.9l25.3-55.5-5.9-.9a170.8,170.8,0,0,1-29.2-8.5A62.5,62.5,0,0,1,9.5,74.7a55.9,55.9,0,0,1-5.6-8.5Z" transform="translate(248.8 219.4)" style="fill:#fff;fill-rule:evenodd"/><path d="M-201.6-161.8s-16.5,14.8-24.6,25.6S-237-118.8-237-118.8l-6.3,6s-.7,10.8-1.5,16.7a78.9,78.9,0,0,0-.7,8.6,64.6,64.6,0,0,1,6.4,7.3,23.3,23.3,0,0,1,3.7,8l3.5,1.3,6-5.6a40.9,40.9,0,0,1,7.5-1.2,25,25,0,0,1,5.9.9s9.9-8.8,13.5-10.7,4.2-2.9,4.2-2.9a41.9,41.9,0,0,0,.4-5,8.6,8.6,0,0,0-1.2-3.9s5.1-4.7,8.2-6.3a16.4,16.4,0,0,1,4.1-1.8,37.6,37.6,0,0,0,12.9,2.6c7.2.1,8.8-.4,8.8-.4s5.3,6.3,8.2,19.2.3,21.4.3,21.4l-7.2,20.5s-2.3,20.3-1.8,26.6,4.4,13.3,4.4,13.3l.6,14.3s-29,15.5-41.1,22.4-17,10.8-17,10.8-10.1.3-10.2,4.7,0,21.1,2.9,23.7,8.3,3.5,8.3,3.5,32.2,14.2,44,21.4,16.7,10.5,21.2,10.1,29-8.5,29.7-9.1,16.5-8.9,16.5-8.9-4.4-15.1-19-17.7-18.1,1-18.1,1l-2.5,12.6-2.9,2s-1.8-8.8-6.4-9.7-23.3-7-33.2-10.7L-195,62.7l-1.2-2.6s32.9-13,44.8-14.6a70.8,70.8,0,0,0,20.5-6,80.2,80.2,0,0,0,9.5,2.9,14.8,14.8,0,0,1,3.9,1S-109.6,63-104,78.5s4.7,18.7,4.7,18.7-1.8,12.9-.6,17.3,9.9,10.4,9.9,10.4,5.7,18.3,6.9,31.3,1.5,17.3,1.5,17.3l-5.3,11.7H-92a84.4,84.4,0,0,0-12.7,16.1c-5,8.6-6.4,13.9-6.4,13.9h42.3l4.4-20-1.5-2.5s.2-6.9,4.8-10.6c8.8-7.1,7.1-6.5.6-18.9-3.1-6-4.7-12.4-7.1-24-5.4-25.7-3.2-30.6-3.2-30.6a18.8,18.8,0,0,0-2.6-5.9c-2.1-3.3-2.1-4-2.1-4l-1.5-43.4,5.9-1.5s22.2,7.9,44.2,9.4S5.3,61.3,5.3,61.3s7.6,20.2,32.2,29.5,38.9,9.7,38.9,9.7L48.8,160.7,32.5,179.1l-3.2.3a42.6,42.6,0,0,0-13.5,16.1c-4.7,10.2-5.3,14.6-5.3,14.6H54.4V192.6l.9-4.7a21.2,21.2,0,0,1,9.7-12.3c7.9-4.7,11.4-5.3,12.3-10.8s3.5-22.5,12-38.6,14.6-21.9,14.6-21.9,8,1.7,17.8,3,12.2,1.2,12.2,1.2a100.2,100.2,0,0,1,29.3,38.2c10.4,24.4,7.8,30.6,7.8,30.6l-4.8,8.3-5.6-2.4a105.3,105.3,0,0,0-9.8,14.5A122.8,122.8,0,0,0,143,216h42.4V195.8s5.4-13.3,8.5-17.4,7-8.5,2.9-14.3-18.3-25.4-23.1-46.2-6.7-30.3-9.1-33.2-8.2.6-14.3-2.5-13.5-21.5-16.7-26.8l-5-8.2S140.4-1,117.1-34.5c2.6-1.8,7.8-4.6,17.2-5.3,14.8-1,20,10.4,20,10.4s1-1.9-.1-7.6a21.8,21.8,0,0,0-4.7-9.5s13.5,0,12.7,21.1S134.6,6.3,137.1,35.3s20,32.6,20,32.6a21.1,21.1,0,0,1-3.2-5.3,32.3,32.3,0,0,1-2.3-9.7s1.6,3.4,11.7,11,18.7,8.6,38.3,13.5,18.9,34.1,10.7,35.7a11.4,11.4,0,0,1-12-5s2.9,13.7,12.9,13.9,23.7-4.5,30.3-25.7-4.2-34.7-16-43.4-19.2-15.4-19.2-15.4a35.7,35.7,0,0,0,8.9,2.2c5.1.6,15.1-2.3,15.1-2.3S219.7,29.7,220.6,18A58.6,58.6,0,0,1,225.1-.4c10.4-25.9,3.9-46.6-17.5-64.3C198.7-72,187-77.5,171.7-78.5c-45.5-3-67.7,18.8-73.6,25.8-34.4-22.6-71.6-5.2-81.6-1.7s-26,7.3-36.9,3.2-17.3-19-18.4-24a35.5,35.5,0,0,1-.6-10.4s1.5,2,6.4,2,7.5-6.4,7.5-6.4-6.4.4-8.4-4.8-.1-10.1-.2-12.7a25.1,25.1,0,0,1,.1-4.2s13.7.6,16.1-13.7-6.8-17.5-6.8-17.5,2.9,12.7-3.9,12.6-8.5-9.4-8.8-23.9-6.8-20.4-9.5-23-8-3.9-8-3.9.9-1.3,5-1.5a14.7,14.7,0,0,1,7.2,1.6s-1.2-14.5-19.3-17-33.9,7.6-42.4,7.6-10.8-1.2-10.8-1.2,6-4.1,7.5-11.3-2.3-10.5-2.3-10.5-6.3,16.8-28.2,7.9c-12.1-4.9-31.1-5.9-45.2,2.5l-6.2-7.7a67.4,67.4,0,0,0-.1,9.3c.1,1.2.2,2.2.2,2.9l-2.4,2.5a21.9,21.9,0,0,1-2-4,23.8,23.8,0,0,1-1.4-5.3s-2.2,7.2-1.8,11.4c.2,1.7.4,3.3.5,4.5-3.7,6.9-5.6,16-4.9,27.5" transform="translate(248.8 219.4)" style="fill:#050000;fill-rule:evenodd"/><path d="M-179.4-118.7s11.3,1.6,18.9-6.3,2.8-17.7,2.8-17.7,8.3,13-.3,21.6-21.4,2.3-21.4,2.3m-58.9,8a13.8,13.8,0,0,0,2.6,3.2c1.4,1.1,1.5,1.5,1.5,1.5a90.8,90.8,0,0,1-.8,9.7,8.1,8.1,0,0,1-3.5,5.5l-1.2.7,1-12.7a14.6,14.6,0,0,1,1-4.5A11.9,11.9,0,0,1-238.3-110.7Zm27.3-34.4s7.3.4,10.7.4h4.2l-6.4,5s-4.2,3.7-4.7,6.6,2.3,8.6,2.3,8.6a32.1,32.1,0,0,1-4.1-6.1c-1-2.5-.9-2.9-.9-2.9l2.5-3.5-.6-5.3S-210.7-143.7-211-145.1Zm88.2,87.6s-8,3.1-11.5,9.1-4.2,10-4.2,10-6.5,3.3-9.1,9.6A31.3,31.3,0,0,0-150-17.7s-3-8.9-1.1-15.4a14.9,14.9,0,0,1,6.7-8.8l.3-.4c.9-4.7,2.6-12.8,5.2-17.6a108.9,108.9,0,0,0,6.7-17.3s.1,11.4-2.2,17.7a21.5,21.5,0,0,0-1.5,7.9C-132.4-54.6-127.9-57.1-122.8-57.4Zm-54.3-115.6s-13.7,5-34.7,26.8-23,28.5-23,28.5l1.6,6.6-3.7-3.5-3.2,3.5s-1.2,7.9-1.6,14.2-1,7.8-1,7.8a43.8,43.8,0,0,1,6.6,7.2c2.6,3.8,2.8,5.6,2.8,5.6l1.5.3L-216-93.1s7.6-1.8,9.8-.6-.7,5.4-3.9,7.8S-220.3-84-220.3-84l-5.1,4.7a38.8,38.8,0,0,1,7.5-1.3h3.7s9.7-8.5,12.7-10.1-.4-7-.4-7a31.6,31.6,0,0,0-7.9-1.3,20.2,20.2,0,0,0-5.9.7,29.6,29.6,0,0,1,8.3-2.9,31,31,0,0,1,6.4-.6s4.2-4.5,7.6-7.6,4.2-3.4,4.2-3.4a6.3,6.3,0,0,1-1.2-2.6v-1.3s16.5,14.8,32.8,2.8,8.6-31.2,8.6-31.2,5,4.2,8,15.2,1,22.2,1,22.2a101,101,0,0,0-1.3-10.2,17.8,17.8,0,0,0-1.3-4.1,31,31,0,0,1-4.7,8.8c-3.2,4.1-4.7,4.7-4.7,4.7a58.4,58.4,0,0,1,4.8,16.5,74.8,74.8,0,0,1,.4,18.1,79.6,79.6,0,0,0,4.5-14c1.2-6.3,1.6-11.8,1.6-11.8s2.2,14.2-4.5,32.6-9.4,24-9.4,24-4.2,21.2,1.5,36.4,16.8,27.8,16.8,27.8-4.4-12.1-2.5-24,5-13.5,5-13.5-3.7,8.5-.6,21.9,15.1,27.1,15.1,27.1a29.8,29.8,0,0,1,12.7.4c7.2,1.8,12.6,7.5,12.6,7.5s-7.6-3.1-12.1-3.1a38.6,38.6,0,0,0-7.8.7,170.8,170.8,0,0,1,11.8,31.4c4.4,17,5.9,25.7,5.9,25.7s-.7,16.4.6,17.7,10.8,4.7,10.8,4.7l1.2,8.5-1.6-.3s4.2,15.5,6.6,29.1,1.8,20.8,1.8,20.8l-6.9,11.3,14.3,5.1s.3-8.2,4.1-12c6-5.9,6-6.7,2.3-13.1s-7.8-13.8-9.6-26.8c-2.9-21.1-1.9-28.4-1.9-30.9s-5.7-9.2-5.7-9.2L-82,51.2s-2.6-4.1-4.2-6.2a27,27,0,0,0-2-2.6A26.7,26.7,0,0,1-84,45.2a24.2,24.2,0,0,1,3.6,3.9s12.3.2,19.7-8.1a28.1,28.1,0,0,0,7.4-17.3s2.6,7.8,1.8,12.9-1.3,7.2-1.3,7.2,15.7,15.7,44.2,9.6S25.1,41.9,25.1,41.9a38.4,38.4,0,0,1,2.5-14.3c2.9-8,4.8-10.2,4.8-10.2S33.7,57.1,68,79.6s67.9,23.7,67.9,23.7,19,15.2,29.3,36,10.2,37.2,10.2,37.2l-6.7,10.2a31,31,0,0,1,8.5,4.4c3.8,2.9,4.4,3.5,4.4,3.5s4.7-13.5,8.2-18.4,5.8-6.1,2.1-10.5-14.1-20.8-21.9-44.8-6.1-29-8.6-31.3-11.3.3-17.6-4.2-11-18.6-15.1-26.3-5.4-11.1-5.4-11.1,10.8-56.9-17-87.6-70.2-17-83.7-10.8S4.5-40.6,4.5-40.6l6-5.8s-9,5.6-23.3,2.9a40.1,40.1,0,0,1-22.5-13A58,58,0,0,0-34-49a85.1,85.1,0,0,0,2.9,9s-9.8-13.8-14-25.2S-55.4-84.1-64.8-84.4-83.3-77-83.3-77s1.6-7.5,11.8-12.3,14.6-3.5,14.6-3.5-2.5-37.4-19.5-56.7-39.8-24.6-52.9-27.5-29.3-.6-29.3-.6l4.7,3.5v10.2l-4.8-4.4-8-13.2a49.8,49.8,0,0,1-13.2-9.8,46,46,0,0,1-7.5-10.5l4.7,15.2,7.8,9.1s1.2,6.9.1,10.1a6.4,6.4,0,0,1-3.7,4.1S-176.1-169.3-177.1-173.1Z" transform="translate(248.8 219.4)" style="fill:#fff;fill-rule:evenodd"/><path d="M-211.4,52.8s3.2,7.5,2.2,10.7a6.9,6.9,0,0,1-3.4,4.2l-2.6-2.2s4.4-4.1,3.8-12.7m59.2-39.6,2.8,2.6a49.7,49.7,0,0,0,4.1,13.2c3.1,6.1,5,8,5,8s-20.2,7-35.2,12-24,8.9-24,8.9l-5.4-1.8a75.2,75.2,0,0,1,5.3,5.6l1.5,1.9s16.1,8.9,26.3,12.4,18.4,4.8,20,6.4,6,13.2,6,13.2l1.5-4.2,6.3-5.1a19.4,19.4,0,0,1,8.6,2.6,10.2,10.2,0,0,1,5.3,6.9s-19.6,5.3-25.6,5.1-17.4-9.2-39.1-18.9l-26-11.6s-3.8-1.8-4.5-4.1-1.5-14.6.1-17.1,13-5.1,13-5.1l-1.6-1.3S-159,16.6-152.2,13.1Z" transform="translate(248.8 219.4)" style="fill:#fff;fill-rule:evenodd"/><path d="M22.9,74.6s7.9,9.4,27.5,14.9,31,4.4,31,4.4S66.8,86,60.4,81a87.7,87.7,0,0,1-9.9-8.8s-14.6,2.9-27.5,2.3" transform="translate(248.8 219.4)" style="fill:#fff;fill-rule:evenodd"/><path d="M34.5,182.1s5.7,1.9,9.5,3.5,6.1,2.3,6.1,2.3,2.2-10.5,11-15.8,10.4-4.4,11.1-10.1a94.8,94.8,0,0,1,12.4-38.8c10.5-18.4,13.9-21.4,13.9-21.4l-9.1-3.4-8,2.9S59.3,150.5,56,157s-2,5.1-6.7,9.8-13.5,11.8-14.8,15.2" transform="translate(248.8 219.4)" style="fill:#fff;fill-rule:evenodd"/><path d="M162.8,188.5s5.3,2.5,10.8,5.6,6.9,5.3,6.9,5.3l-.4,11.3h-30c1.7-4.4,5.9-14.3,12.6-22.2" transform="translate(248.8 219.4)" style="fill:#050000;fill-rule:evenodd"/><path d="M-90,188.8l19.7,7.3-3.3,14.6h-32.5c1.9-3.6,8.4-15.2,16.1-21.9" transform="translate(248.8 219.4)" style="fill:#050000;fill-rule:evenodd"/><path d="M-138.2,83.5l2.7-8.4a28.6,28.6,0,0,1,16.9,2.1c8.8,4,11.2,10.6,11.2,10.6l-13,6.3s-5.2-10.8-17.8-10.6" transform="translate(248.8 219.4)" style="fill:#050000;fill-rule:evenodd"/><path d="M31,184.6l18.6,9.2v10.8H17.6s1.2-8.8,13.5-20" transform="translate(248.8 219.4)" style="fill:#050000;fill-rule:evenodd"/><path d="M-178.6-175.6a75,75,0,0,0-7.4,3.7,24,24,0,0,1,1.8-10.8Zm-3-23.5a34,34,0,0,1,7.2-3.6c25.3-9.1,29.1,1.8,46.1,2.3s17.8-6.6,17.8-6.6.7,3.9-3.5,8.9-8.2,6-8.2,6-2.5-1.8-8.8-1.3-8,2.8-8,2.8a23,23,0,0,1,11.4-.4c6.6,1.3,9.8,5.4,20.5,5.6s23.7-9.7,38.8-9.4,19.6,8.9,19.6,8.9-4.5-1.2-7.8.4-3.5,2.6-3.5,2.6a26.4,26.4,0,0,0-10.5,0c-5.9,1.2-7.5,3.1-7.5,3.1s11.6-2.5,21.6,1,15.2,13.2,15.2,23.1,2.2,28.7,10.8,28.2,8.3-7.8,8.3-7.8,2.6,13.9-4.7,16.4-8.6,2.2-8.6,2.2-.3-9.2-3.7-14a17.1,17.1,0,0,0-8-6.3A25.8,25.8,0,0,1-39.2-117c-.7,12.4-1.9,19-.1,23.1s4.1,5.1,4.1,5.1-2,1.2-6.1-1.9A15.9,15.9,0,0,1-46.6-99s-.3,4.7,1.2,7.8,2.3,3.8,2.3,3.8a24.8,24.8,0,0,0-1,9.2c.4,5-.7,7.2-.7,7.2s-1.2-6-3.5-9.1a20.7,20.7,0,0,0-3.4-3.8c.3-17.6-2.2-34.3-8.9-48.7a14.2,14.2,0,0,1,6.6,2.9c5.6,4.2,6.9,14.5,6.9,14.5s2-9.8-4.1-17.7a14.5,14.5,0,0,0-12.5-5.7,75.2,75.2,0,0,0-7.4-10.8,12.2,12.2,0,0,1,6.3.4c6.8,1.9,13.2,11.3,13.2,11.3s-2.5-13.4-13.1-16.6c-6.2-1.9-9.9-1.5-11.8-.9q-2.4-2.4-5.1-4.6a19.2,19.2,0,0,1,6.6-1.5,22.6,22.6,0,0,1,12.2,2.8s-2.4-6.4-11.9-6.7c-6.2-.2-9.7,1.1-11.3,2l-4.1-2.7c1.4-1.4,6-5.2,17.5-5.1,14.2.1,20.3,16.6,20.3,16.6s-1.2-18.4-20.8-20.9c-14.2-1.8-24.1,1.4-28.5,3.3a115.2,115.2,0,0,0-15.5-5.8c2.8-1.6,6.5-1.3,17-1.8s13.8-7,13.8-7-1.3,1.3-6.1,3.1-15.9,1.3-26.1.5c-6.4-.5-10.4.9-12.4,2.1l-4.9-.6-3.9-.3,2.5-1.5c3.9-2.2,13.2-2.4,13.2-2.4s-2.2-1.9-10.7-1.6a15.2,15.2,0,0,0-11.1,5.3,87.2,87.2,0,0,0-12.4.8,20.1,20.1,0,0,1,4.7-7.6c4.1-4.1,14.3-5.3,14.3-5.3-15.3-.6-21.5,7.6-23.7,12.2l-2.2-2.8-10.7-8.6c8.8-6,21.7-6.2,21.7-6.2-10.7-1.4-18.4.6-24,4.2C-179.3-196.5-180.5-197.8-181.7-199.1Zm-15.6,35.2s-1.4-16.9,8.7-29c.6,2.8,1.3,5.2,1.7,6.5-4.4,7-5.6,15-6,19Z" transform="translate(248.8 219.4)" style="fill:#fff;fill-rule:evenodd"/><path d="M163.3-49.2a35.8,35.8,0,0,1,11.3,31.9C171.5,2.9,163.1,6,161.9,25.4S178,52.3,178,52.3s-20.7-2.7-20.3-27.9,9.9-19.2,11.8-41.7-6.1-31.9-6.1-31.9m-60.3-.3s18.1-20.8,49.7-19.3,35.1,19.3,35.1,19.3S187-62.3,175-68.2a51.6,51.6,0,0,0-24.6-4.7s27.8-10.2,58.2,16.7,6.1,60,7,73.4S223,35.1,223,35.1s-10.5.9-16.4-5.3S205.2,14,205.2,14s-8.8,14.3-1.2,24.9,41,24.3,33.9,51.5-20.5,24.3-20.5,24.3,12.6-9.9,4.4-29.5-39.8-29-39.8-29,12,5.9,18.7,11.7,6.7,7.3,6.7,7.3A188.8,188.8,0,0,0,180.6,67c-13.7-2.9-25.2-13.7-28.4-23.7s-2-14-2-14-3.8,5.6-3.5,14.6,1.8,12.9,1.8,12.9-10.8-15.5-6.1-34.5,20.8-24,22.8-43.6S161-51.5,148.7-53.3s-18.4,3.5-18.4,3.5,5.9-1.8,9.9-.3,6.7,6.7,6.7,6.7-6.1-3.5-16.4-2.3a34.5,34.5,0,0,0-16.7,6.4,41.8,41.8,0,0,0-3.7-4.1c3.7-3.9,16.6-15.5,38.8-14.5,26.8,1.2,29,23.4,29,23.4s1.6-25.4-29.1-27.9a56.7,56.7,0,0,0-43.1,15Z" transform="translate(248.8 219.4)" style="fill:#fff;fill-rule:evenodd"/></svg>