<svg id="Layer_1" data-name="Layer 1" xmlns="http://www.w3.org/2000/svg" viewBox="0 0 807.5 431.5"><title>Panther460_4c</title><path d="M-329.5-29.3l-.2-5a41.8,41.8,0,0,1-4.9-1.5Zm205.6-143.1c33.5,19.6,68.4,36.5,105.9,47.2,12.3,3.5,24.8,6.3,37.3,9s22.3,4.6,33.3,7.8A167.9,167.9,0,0,1,84.1-95.8a184.2,184.2,0,0,1,29,19.2,145,145,0,0,0,13.7-6.2c22.5-11.6,42.2-28.4,60.6-45.6,16.4-15.2,32.3-31.1,49.4-45.5s35-26.8,55.7-34.4a118.8,118.8,0,0,1,64.9-5h.7c16,4.3,32.7,12.8,41,27.8,6.2,11.3,6.5,25.5-2.4,35.5a26.5,26.5,0,0,1-16.6,8.5c-7,.8-14.1-.9-20.3-4h-.2c-16.4-8.4-34.7-14.7-53.1-9.4-11,3.2-20.9,9.9-29.7,17.1-5.6,4.5-10.9,9.4-16.1,14.4s-11.9,11.4-17.8,17.2c-14,13.6-28.2,26.9-43.4,39a365.4,365.4,0,0,1-48.1,32.6c4.4,6.1,8.4,12.6,12.3,19.1,5.5,9.1,11,18.2,18.1,26.2,8.8,9.8,19.3,17.1,31,23a20.8,20.8,0,0,1,6.7,5.3c3.5,4.2,4.8,9.1,6.1,14.3a92.2,92.2,0,0,0,4.9,15c9,20.2,28.5,38.6,45.4,52.5a55.5,55.5,0,0,1,9.8,10.4c2.1,2.8,3.8,5.8,5.7,8.8s5.1,7.1,9.3,9.7l.4.3.4.3c5.6,4.2,9.9,9.9,11.5,16.8a27,27,0,0,1-2.1,17.4c-3.2,6.8-9.5,13.3-16.9,15.9-3.8,6-9.9,9.2-17,9.9-7.4,6.5-16.5,7.2-25.5,3.4a27,27,0,0,1-18.7-2.5c-8.7-4.7-14-13.6-17-22.7a66,66,0,0,1-3.4-20.1c-8-20.9-23.6-41-41.5-54.3a99.6,99.6,0,0,0-20.2-11.7,82,82,0,0,0-16.3-5.1c5.6,9.6,12.8,17.5,21.9,25.1,5.1,4.2,10.4,8.1,15.4,12.4s9.7,9.5,11.6,16.2a24.1,24.1,0,0,1,1,7.2v.5c-.4,6.9.1,17,3.8,23l.8,1.3.4,1.5c2.1,7.8.5,15.9-5.6,21.5a23.2,23.2,0,0,1-11.2,5.6,24.9,24.9,0,0,1-16.7-2.2,34.6,34.6,0,0,1-20.5-4.7,43.6,43.6,0,0,1-15.7-16.6,52.2,52.2,0,0,1-6.5-22A217.4,217.4,0,0,1,94,147.1c-5.7-6.3-11.1-12.9-16.8-19.2a133,133,0,0,0-13.4-13.1,108.2,108.2,0,0,0-17.3-11.7C32.5,96.6,17.9,91.3,3.9,85c-27.2-12.2-52-27.7-64.1-55.5-30.5,1.2-61.1-3-89.3-15a118.7,118.7,0,0,1-18.8,10.4,169.7,169.7,0,0,1-20.9,7.4c-4.9,1.4-10,2.7-14.8,4.5-1.5.6-4.4,1.8-5.4,3.1a2.4,2.4,0,0,0-.4.7,39.1,39.1,0,0,1-19.3,23.1c-2.9,1.6-6,2.9-9,4.3a18.9,18.9,0,0,0-4.5,2.7,3.6,3.6,0,0,0-1,1.4l-.2.5-.2.4c-3.3,6.6-8.3,12.1-15,15.4a29.8,29.8,0,0,1-18.1,2.4,31.3,31.3,0,0,1-14.8-6.8,23.4,23.4,0,0,1-6.2-8.1,31.6,31.6,0,0,1-6.2-4.7l-2.8,1.4a23.3,23.3,0,0,0-4.7,3.3,21.3,21.3,0,0,1-3.9,7.5c-6.4,8-17.3,10.5-26.8,7.6S-360.7,78.5-364.2,68a27.9,27.9,0,0,1-4.5-20.6,28.7,28.7,0,0,1,5.3-12,26.3,26.3,0,0,1,3.7-10.7,20.6,20.6,0,0,1,8.6-7.8c3.6-8.3,10.9-13,20-14.5q4.2-2.9,8.5-5.6-1-1.7-2-3.5a25.6,25.6,0,0,1-4.6-13.1l-.3-8.9-23.1-1.5c-21.6-1.4-39.7-11.8-47.5-32.7A63.2,63.2,0,0,1-403.5-90l.2-1.8.8-1.7a64.7,64.7,0,0,1,10.7-16c-2.1-4.1-2.7-8.7,0-13.3s6.8-8.6,10.5-12.1,9.5-8.6,14.3-12.9l5.7-5c1.6-7.8,4.3-15.9,9-22.3s12.2-11.3,20.6-10.2a19.8,19.8,0,0,1,12.6,6.9c5.2-2.5,10.5-4.8,15.8-7,4.9-8.2,11.9-15.8,22.1-16.2a24.1,24.1,0,0,1,14.5,4.5c19.3-4.5,39.4-7.5,59.2-6.8a133.3,133.3,0,0,1,49.9,11.3A175.7,175.7,0,0,1-123.9-172.4Z" transform="translate(403.7 215.7)" style="fill:#fff;fill-rule:evenodd"/><path d="M-321.7-168.7a238.8,238.8,0,0,1,23.6-10.7c3.6-6.5,9.1-14.4,17.2-14.7,4.7-.2,9,2.2,12.5,5.2,19.7-4.8,40.4-8.2,60.7-7.4a125.4,125.4,0,0,1,47.1,10.7,168.6,168.6,0,0,1,32.4,19.6c34.2,20.1,69.7,37.2,108,48.1,12.5,3.6,25.1,6.4,37.8,9.1,11,2.3,22,4.6,32.7,7.7a159.6,159.6,0,0,1,30.2,12,181,181,0,0,1,31.1,21.1,149.5,149.5,0,0,0,18.6-8.1c23.1-11.9,43.3-29.2,62.3-46.7,16.3-15.1,32.1-31,49.1-45.3s33.7-25.8,53.5-33.1a110.9,110.9,0,0,1,60.8-4.7h.2c13.8,3.7,29.1,11.1,36.4,24.1,4.6,8.4,5.3,19.2-1.4,26.7a18.9,18.9,0,0,1-11.9,6c-5.5.7-11.1-.8-16.1-3.2h-.1c-18.3-9.5-38.2-15.8-58.7-9.9-12.1,3.5-22.8,10.6-32.4,18.5-5.7,4.7-11.2,9.7-16.6,14.7s-11.9,11.5-17.9,17.3c-13.8,13.4-27.8,26.5-42.9,38.5a353.9,353.9,0,0,1-54.8,36.2c6.6,7.9,11.9,16.5,17.2,25.4s11.4,18.9,19,27.4c9.5,10.5,20.6,18.4,33.2,24.7a13.2,13.2,0,0,1,4.3,3.4c2.6,3.1,3.6,7.5,4.6,11.3a97.8,97.8,0,0,0,5.3,16.2c9.5,21.4,29.7,40.7,47.5,55.2a47.6,47.6,0,0,1,8.4,9c2,2.7,3.6,5.6,5.4,8.4,3.3,5.2,6.4,8.8,11.7,12h.2c4.2,3.1,7.5,7.3,8.7,12.4a19.5,19.5,0,0,1-1.5,12.5c-2.6,5.6-8.6,11.7-15.2,12.6-2.6,6.4-8.1,9-15.1,9-6,6.7-13.6,6.9-21.5,2.8-5.3,1.6-10.8,1.6-15.8-1.1-6.9-3.7-11-11.3-13.4-18.4a57.9,57.9,0,0,1-3-19.1c-8.3-22.8-25.2-44.6-44.5-59a107.2,107.2,0,0,0-21.7-12.6,85.9,85.9,0,0,0-32.1-7.1c6.6,16.2,16.2,28.5,29.8,39.9,5,4.2,10.3,8,15.2,12.3s7.9,7.5,9.4,12.6a16.4,16.4,0,0,1,.7,4.9h0c-.5,8.6.3,20,4.9,27.5l.2.4v.4c1.3,5.1.6,10.3-3.4,14a15.7,15.7,0,0,1-7.5,3.7c-4.3.9-9.8.3-13.3-2.7a27.1,27.1,0,0,1-18.6-3.3,36.1,36.1,0,0,1-12.9-13.7,43.5,43.5,0,0,1-5.6-21.8,205.1,205.1,0,0,1-21-20.3c-5.7-6.3-11.1-12.9-16.8-19.2A140.2,140.2,0,0,0,68.6,109,115.6,115.6,0,0,0,49.9,96.3C35.8,89.8,21.1,84.5,7,78.1c-26.9-12-51.8-27.5-62.2-56.4-32.7,2-65.3-2.2-95.2-15.8a110.3,110.3,0,0,1-21,12.1,161.4,161.4,0,0,1-19.9,7c-5.1,1.5-10.4,2.8-15.4,4.7-3.1,1.2-6.6,2.9-8.7,5.6a9.9,9.9,0,0,0-1.5,2.9,31.6,31.6,0,0,1-15.8,18.9c-2.8,1.5-5.7,2.7-8.6,4.1a25.2,25.2,0,0,0-6.4,4,11.1,11.1,0,0,0-2.9,4.2h-.1c-2.6,5.1-6.3,9.5-11.5,12a22.2,22.2,0,0,1-13.5,1.8A23.7,23.7,0,0,1-287,78.2a14.5,14.5,0,0,1-4.9-7.6c-4.3-2.1-8.1-5-10.2-9.2l-.4.3c-2.5,1.6-5.4,2.7-8.1,4.1a30.7,30.7,0,0,0-8,6.1,13.8,13.8,0,0,1-2.9,6.6c-4.4,5.5-12.2,7-18.8,5.1-8.9-2.6-14.4-10.5-17-19a20.5,20.5,0,0,1-3.9-15.9A21.1,21.1,0,0,1-356,38.4a19.6,19.6,0,0,1,2.8-9.7,12.4,12.4,0,0,1,7.8-5.7h.3c2.2-8.2,8.3-12.3,16.9-13.2A148.7,148.7,0,0,1-311.5-.8a45.4,45.4,0,0,1-6.5-9.6,18.7,18.7,0,0,1-3.6-9.6l-.2-4.3,4.1,1.4c2.3.8,5.6.5,8.3.6a21.1,21.1,0,0,0,2.9-1.6c-2.2-4.9-4.5-9.8-6.9-14.6a33,33,0,0,0-5.2-7.9l-.8-.8a8,8,0,0,1,.1,4.2l-.7,1.9h-2.1c-9,.1-18.9-6-26-11.3l-7.6.7a70.3,70.3,0,0,0,6.2,9l4.1,5.2-6.6-.4c-18.6-1.2-34.1-9.7-40.8-27.8a55.7,55.7,0,0,1-3-23.9v-.5l.2-.5c3.2-6.9,8.1-13.1,13.6-18.4-2.6-3-5.3-6.6-3.2-10.4s6.2-7.5,9.1-10.3c4.6-4.3,9.4-8.5,14.1-12.7l7.6-6.8c1.2-7.4,3.6-15.6,8.1-21.6,3.2-4.3,8-8,13.7-7.3s8.8,4.6,10.9,9.1" transform="translate(403.7 215.7)" style="fill:#050000;fill-rule:evenodd"/><path d="M-373.9-73.4c6.1-8.7,12.6-23.6,27.7-18.9l-13.7,8.7a40.2,40.2,0,0,0,17.7-6.2,5,5,0,0,1,2.2,2.7c-5.8,4.4-13.6,7-20.4,10.5a48.7,48.7,0,0,0,23.1-6.2,6.2,6.2,0,0,1,1.3,5.2c-8.2,3.2-15.9,5.4-22.5,5,4.5,2.5,13,2.1,23,.7-.1,3-.7,5.9-2.3,6.1h-30a45.5,45.5,0,0,1-5.9-7.7" transform="translate(403.7 215.7)" style="fill:#1e4ca0;fill-rule:evenodd"/><path d="M-376.8-70.7c-4.1-1-7.7-4.7-11.1-9.4a32.6,32.6,0,0,0,10.4,23.9,56.7,56.7,0,0,1,5-6.5,50,50,0,0,1-4.4-8.1" transform="translate(403.7 215.7)" style="fill:#1e4ca0;fill-rule:evenodd"/><path d="M-373.7-54.2a42.6,42.6,0,0,1,5.8-5.8A53.1,53.1,0,0,0-362-46.5a34,34,0,0,1-11.6-7.8" transform="translate(403.7 215.7)" style="fill:#fff;fill-rule:evenodd"/><path d="M-345.7-60.5c5-.2,9.8-.6,13.3-1.6a28.9,28.9,0,0,0,3.6,12.5c-6.7-1.8-12-6-16.9-10.8" transform="translate(403.7 215.7)" style="fill:#fff;fill-rule:evenodd"/><path d="M-242-102a46.7,46.7,0,0,1,14.1,1.2,61.5,61.5,0,0,0,7,7.5,28.5,28.5,0,0,0,3.6,8.1c-5.8-3.8-13.6-6.3-22.3-8.2A27.8,27.8,0,0,0-242-102M-380-83.1l-7.4-2.4c5.8-9.3,12.6-17.4,21.4-23.4,1.8-1.5-.3-3.6-10.9-6.6,25.1-23.3,50.3-46.5,79.5-51.1a14.4,14.4,0,0,0,.8,7.2c2.8-10.1,10.5-28.1,17.1-25.6,10.9,3.3,18.1,22.7,12.7,46.1l3.1,4.4c5.7-9.3,5-30.4-.1-42.2,11.7-4.6,28.5-8.4,48.8-7.6-5.6,4.3-10.9,12-13.3,16.9-13.1,5.1-24.3,10.5-25.3,17.2,3.7-4.4,13-2.3,19.4-3.5a36.3,36.3,0,0,0-1.7,14.6c24.1-76.8,90.7-39.2,149.1,26.7a122.7,122.7,0,0,0-18.4-28.2C-14.5-90.2,41.4-107.2,99-64c49.8,43.8,60.1,98.8,100.8,113.2,15.8,5.9-4.9,26.4,58.6,83,21.1,14.4,14.1,23.3,30.9,33.3,7.6,4.7,3.4,18.5-6.8,16.4S268,173.5,263,164.4c1.4,12.2,5.3,21.4,13.7,25.4-11.9,3.5-18.3-4.9-22-19-3.1,8.6-1,20.9,6.4,25.4-9-1.6-19.1-12-20.7-25.5-2.4,7.3-1.6,14.4,3.5,24.6-21.5-13.8-1.8-28.1-28.4-62.3-67.6-87.2-94.6-31.9-164.1-83.4C31,34.8,20,12.1-9.8,5.5c8,3,14.3,8.4,19.9,14.9C-38.8-2.8-80.8,24.2-142-2.4c9.3-8.2,32-3.3,28-24.6-6.3-19.8-1.8-43.8-16.6-63.3-1.7-2.3-6.4-11-10.9-24.8-2.4-18.2-9.4-32.6-23.9-35.8-3.7-5.6-10-10.1-24.2-11.2,15.5,6.3,24.5,20.2,22.4,47.5,7-2.3,8.3-11.9,4.8-27.7,13.1,6.4,15.7,27.1,9.6,40-3.2,6.8-3.8,12.3-1.8,22.4,1.8-7.8,7.6-15,10.5-23.4,7.1,24.1,18,19.6,21.4,72.2,1.3,14.5-.2,13-9.6,16.1C-155-7.9-157.5,7.9-206.3,21c-23,6-16.5,22.8-30.1,28.6-27.6,9.3-20,25.8-34.8,25.7-16.4-.5-13.8-13.9-6.9-17.9,8.3-5.7,14.5,1.4,15.6-12-4.3,7.3-7.1,3.6-12.5,4.9s-12.4,6.3-13.5,12.4c-10.6-4-7.7-13.8,2.2-18.2s17.9,3.7,16.8-7.8c-2.8,7.6-7.3.5-14.3,1.4-8.6,1.2-13.5,7.8-16.2,13-8.2-6.7.3-18.6,7.9-20.3s13,8.9,18.2-2.5c-5.7,5.1-8.3-2.2-14.2-2.9s-13.3,2.6-17.3,8.4c-5.3-6.7,3.8-16,12.2-15.8s5.2,13.7,26.9,3.3c7.8-3.5,7.7-15.9,22.2-20.8,13.6,3.1,35-27.1,53.1-38.7,18.6-1.2,31.6,2.2,38.7,10.5-5.3-11.7-28.2-20.4-42.3-15.4-6-10.5-12.1-20.3-15-42.1,13.8.9,23.4,5.1,29.7,12-2.3-10.2-13.3-18.6-32.2-25.4q-16.6-19.1-8.5-40.4c-9.2,9.2-11.1,18-9.8,26.7-5.8-4.3-14-5.8-24.8-4.1a46.6,46.6,0,0,0-12-9.4c16.2,18.2,18.5,29.5,13.7,40-2.5,5.5-9.4,11.8-11.8,15.9.7-7.3.3-14.7,2.1-21.8-11.4,11.2-11.2,66.8,6.2,65.8,1.1,11.2-29,30-39,23.6,13.3-1.7,23.7-7.7,18.8-26.9-5.3-20.7-12.4-48.4-41.5-49.2,2.4-15.1-7.8-26-26-22.9C-354.5-99.5-366-93.1-380-83.1Z" transform="translate(403.7 215.7)" style="fill:#1e4ca0;fill-rule:evenodd"/><path d="M-92.6-123a123.8,123.8,0,0,0-12.7-17.5C-14.5-90.2,41.4-107.2,99-64c46.2,40.6,58.4,90.9,92.5,109.5-6.4-1.6-19.2-5.5-27.6-13.1-11.5-10.5-37-57-60.5-82.5S12.1-91.7-22.1-97.7c-28.3-5-60.3-20.2-70.4-25.3m-134.6-36.3c29-48.4,87.9-12.1,140.3,47l7.5,12.6s-30-31.8-43.8-41.8-39.2-21.2-39.2-21.2-7-9-26.2-10.8C-203.3-174.8-220-164.3-227.1-159.3ZM-262-171.2a41.4,41.4,0,0,0-1.9-5.5c11.7-4.6,28.5-8.4,48.8-7.6a43.3,43.3,0,0,0-7.4,7.6,140.7,140.7,0,0,0-23.8,1.7A92.3,92.3,0,0,0-262-171.2Zm-83.1,27.7c15-11.6,30.6-20.5,47.6-23.2a16.3,16.3,0,0,0-.1,3.2l-12.5,4.5a85.3,85.3,0,0,0-20,11.3s0,.2-4.7,1.7-12.2,6.8-12.2,6.8Z" transform="translate(403.7 215.7)" style="fill:#1e4ca0;fill-rule:evenodd"/><path d="M-242-102a46.7,46.7,0,0,1,14.1,1.2,61.5,61.5,0,0,0,7,7.5,28.5,28.5,0,0,0,3.6,8.1c-5.8-3.8-13.6-6.3-22.3-8.2A27.8,27.8,0,0,0-242-102M-293.4,25.7a20,20,0,0,0-12.1,8.1c-4.5-5.7,1.5-13.3,8.5-15.3a8.3,8.3,0,0,0,.8,3.2A12.1,12.1,0,0,0-293.4,25.7Zm5.2,13.5c-6,2.4-9.7,7.6-11.9,11.9-8.1-6.5-.1-18.2,7.4-20.2a7,7,0,0,0,1.2,4.7A19,19,0,0,0-288.2,39.3Zm10,12c-5.3,2.1-9.5,6.3-10.4,11.4-10.6-4-7.7-13.8,2.2-18.2l1.1-.4a9,9,0,0,0,3.1,4.4A32,32,0,0,0-278.2,51.3Zm11.5-191.4-.3,1.2,3.1,4.4a21.5,21.5,0,0,0,2.1-4.8,81.3,81.3,0,0,1,13.9-7c7.5-2.6,8-3,8-3a32.4,32.4,0,0,0-10.5-.1,47,47,0,0,0-7.4,1.7A30.1,30.1,0,0,1-242.4-164a78.3,78.3,0,0,1,15-5.3l-1,1.9c-13.1,5.1-24.3,10.5-25.3,17.2,3.7-4.4,13-2.3,19.4-3.5a36.3,36.3,0,0,0-1.7,14.6c1-3.1,2-6,3.1-8.7.4,2.9.4,9.8.4,9.8s6.3-10.4,12.6-14.9,8.4-4.5,8.4-4.5-7.6,19.2-1.6,35.1,37.6,22.9,37.6,22.9,6.3-22.8-.9-40.8S-197-163.5-197-163.5s13-3,21.2.3,11.2,8.6,11.2,8.6,18.2,1.3,25.5,16.6,6.3,22.6,6.3,22.6,11.8,16.8,17.9,31.8,9.7,38.2,35,49.7S-28-21-28-21s-3.8-14.9-6.6-32.4S-45.9-78.6-45.9-78.6s17.1,2.9,29,20.3S16.2,1.4,50.4,25.4,153.9,59.6,169.1,58.8s27.9-2.6,31.1.8S204.4,83,204.4,83l-7.9-6.8s8.9,21.6,20,34.7,41.6,31.1,49.5,40,8.9,16.8,19,20a20.4,20.4,0,0,0,8.2.8c.6,5.5-3.5,11.7-10.6,10.3-8.8-1.6-14.5-8.5-19.5-17.6,1.4,12.2,5.3,21.4,13.7,25.4-11.9,3.5-18.3-4.9-22-19-3.1,8.6-1,20.9,6.4,25.4-9-1.6-19.1-12-20.7-25.5-2.4,7.3-1.6,14.4,3.5,24.6-21.5-13.8-1.8-28.1-28.4-62.3-67.6-87.2-94.6-31.9-164.1-83.4C31,34.8,20,12.1-9.8,5.5c8,3,14.3,8.4,19.9,14.9C-38.8-2.8-80.8,24.2-142-2.4c9.3-8.2,32-3.3,28-24.6-6.3-19.8-1.8-43.8-16.6-63.3-1.7-2.3-6.4-11-10.9-24.8-2.4-18.2-9.4-32.6-23.9-35.8-3.7-5.6-10-10.1-24.2-11.2,15.5,6.3,24.5,20.2,22.4,47.5,7-2.3,8.3-11.9,4.8-27.7,13.1,6.4,15.7,27.1,9.6,40-3.2,6.8-3.8,12.3-1.8,22.4,1.8-7.8,7.6-15,10.5-23.4,7.1,24.1,18,19.6,21.4,72.2,1.3,14.5-.2,13-9.6,16.1C-155-7.9-157.5,7.9-206.3,21c-23,6-16.5,22.8-30.1,28.6-27.6,9.3-20,25.8-34.8,25.7-16.4-.5-13.8-13.9-6.9-17.9a14.9,14.9,0,0,1,2.5-1.4c.4,2.2,1.7,4.7,5,5.3,6.2,1.2,11.3-3.9,11.3-3.9s3.8-12.1,8.9-13.7,12.5-4.6,15.7-11.5,11.2-15.3,20.9-18.7S-175.4-2-166.4-11.8a45.2,45.2,0,0,0,10.7-19,23.9,23.9,0,0,1,3.3,3.2c-5.3-11.7-28.2-20.4-42.3-15.4a147.4,147.4,0,0,1-8.2-15.7A107,107,0,0,1-182-56.8l12.9,2.4a102.5,102.5,0,0,0-11.2-19.5c-2.8-9.8-13.7-18-32-24.5q-16.6-19.1-8.5-40.4c-9.2,9.2-11.1,18-9.8,26.7-5.8-4.3-14-5.8-24.8-4.1a46.6,46.6,0,0,0-12-9.4c16.2,18.2,18.5,29.5,13.7,40-2.5,5.5-9.4,11.8-11.8,15.9.7-7.3.3-14.7,2.1-21.8-11.4,11.2-11.2,66.8,6.2,65.8,1.1,11.2-29,30-39,23.6,13.3-1.7,23.7-7.7,18.8-26.9-5.3-20.7-12.4-48.4-41.5-49.2,2.4-15.1-7.8-26-26-22.9-6.4,1.1-13.5,4.2-21.7,9.1l12.7-17.7,8.2-1.8-6.3,9.5s11.6-2.9,21.3-2.1a118.1,118.1,0,0,1,12.1,1.3l3.4-11.6,2.9,3.9s8.2-6.1,8.7-8.7-10-7.9-10-7.9l9.7-.5s-11.1-9.2-11.1-14.5,19-13.4,19-13.4h10l-6.2-4.1s4.1-11.6,6.7-15.4a47.8,47.8,0,0,1,3.8-5s4.5,4.8,6.2,9,1.8,12,1.8,12l.8,7.4,1.3,5.6Z" transform="translate(403.7 215.7)" style="fill:#26406a;fill-rule:evenodd"/><path d="M-356.3-121.5a8.4,8.4,0,0,0-1.7,4.9,5.9,5.9,0,0,0,2.2,4.7,28.1,28.1,0,0,0-2.4,6.1c-1.4,4.5-1.8,6.3-1.8,6.3s5.8-7.6,18-11.3a73.5,73.5,0,0,1,24.4-2.6l-1.6-4.9,7.1,1.8s-2.4-15.2-11.8-18.3-19.9,5.1-23.6,8.4a30.4,30.4,0,0,0-6.2,7.9l-.9-4.7Z" transform="translate(403.7 215.7)" style="fill:#1e4ca0;fill-rule:evenodd"/><path d="M-267.3-125.6c16.2,18.2,18.5,29.5,13.7,40-2.5,5.5-9.4,11.8-11.8,15.9.7-7.3.3-14.7,2.1-21.8-11.4,11.2-11.2,66.8,6.2,65.8,1.1,11.2-29,30-39,23.6,13.3-1.7,23.7-7.7,18.8-26.9-5.3-20.7-12.4-48.4-41.5-49.2a25.3,25.3,0,0,0,.2-7.3c5.1-.1,11.6.1,15.2,1.1a32.8,32.8,0,0,1,11.6,6.3l15.8,26.8s-3.4-22.6,2.9-33.7,13.4-12.6,13.4-12.6a67.9,67.9,0,0,0-1.6-15.8c-1.8-7.6-12.4-15.3-12.4-15.3Z" transform="translate(403.7 215.7)" style="fill:#1e4ca0;fill-rule:evenodd"/><path d="M-328.1,45.1c-10.6,18.1-27.5-8.5-14.2-16.3,2.7,8.2,7.9,14.7,14.2,16.3m-8.8,13c-3.2,16.3-21.9-4.2-15.5-13.2C-348.7,52.7-343.3,57.3-336.8,58.1Zm8.7,15.2c-4.2-.5-6.3-2.3-7.5-4.6-2.1,1.7-5.5,2-10,1C-341.9,75.7-332.7,77.7-328.2,73.3Zm76.9-76.7c-18.5-2.5-24.9,16.2-47.1,7.4-7.4,3.7-16.7,7.4-22.1,10.7,3.9,2.8,6,5.1,6.9,7.1-10.1-8.9-25.8-2.1-22.4,6.7,2.7,7,12.3,19.4,22.3,3.1-1.4-12.2,16.9-30.9,33.1-13.5C-264.8,19.8-264.3,1.8-251.3-3.4Z" transform="translate(403.7 215.7)" style="fill:#26406a;fill-rule:evenodd"/><path d="M118.6-57C228.9-108.9,255.1-212.6,357-193.4c25.5,4.8,38.7,40.3,12.4,31.2C267.7-215.2,252.8-103.5,129-44.9c-3.3-4.3-7-8.3-10.3-12.1" transform="translate(403.7 215.7)" style="fill:#1e4ca0;fill-rule:evenodd"/><path d="M383.7-166.3c-.5,4.8-4.8,7.3-14.3,4C267.7-215.2,252.8-103.5,129-44.9c-1.7-2.3-3.6-4.4-5.4-6.6,59-16.5,123.1-105.8,168-126.9,37.7-17.7,72.1-1.8,92.2,12.1" transform="translate(403.7 215.7)" style="fill:#26406a;fill-rule:evenodd"/><path d="M-354-111.9a42.1,42.1,0,0,0-4.3,8.5c6.6-9.6,21.3-10.7,34.9-13,2.8-.3,1.4-2.6-2.5-6.7l8.9,3.6c-9.7-12.4-20.8-19.1-35,3.2-2.5.6-3.3-1.1-3.3-3.9-2.3,3.2-1.6,6.9,1.4,8.2" transform="translate(403.7 215.7)" style="fill:#050000;fill-rule:evenodd"/><path d="M-354.7-125.3c1.4-6.6,6.5-11.2,14.2-14.3-4.5,4.8-9.2,9.5-14.2,14.3" transform="translate(403.7 215.7)" style="fill:#050000;fill-rule:evenodd"/><path d="M-308.6-126.1c24.2,7.5,15.8,14.2,5.4,26.9a38.3,38.3,0,0,1,1.9,9c7.6,4.4,10,11,12.3,17.6-19.7-21.9-27.4,3-25.7-37.7l2.2,5.7c7.8-15.8,19.4-11.7,3.9-21.6" transform="translate(403.7 215.7)" style="fill:#050000;fill-rule:evenodd"/><path d="M-282-152.7a49.9,49.9,0,0,0-.3-16.2,13.6,13.6,0,0,1,5.4,3,62.9,62.9,0,0,0-4.8-14.2c9.6,5,13,18.3,11.8,38-2.7-4-7-7.5-12.2-10.7" transform="translate(403.7 215.7)" style="fill:#050000;fill-rule:evenodd"/><path d="M-300.1-18.3a12.8,12.8,0,0,1-11.2,4q3.5,4.4,10.9,7.2a22.6,22.6,0,0,0,.3-11.2" transform="translate(403.7 215.7)" style="fill:#fff;fill-rule:evenodd"/><path d="M-295.4-19.8c5,1,9.6-.3,13.5-4.9,2.7,5-.2,10.3-2.6,11.1-4.3.4-7.6-3-10.9-6.2" transform="translate(403.7 215.7)" style="fill:#fff;fill-rule:evenodd"/><path d="M-7.9-11.7C-27.7-22.8-23.6-51.9-37.4-70.8-15.2-58.8-14.7-28-7.9-11.7" transform="translate(403.7 215.7)" style="fill:#050000;fill-rule:evenodd"/><path d="M-345.4-149.9l9.3-6.2c.6-3.3,1-6.4-.7-8.3,3.4,1.8,3.8,3.9,4.3,5.9l4.6-3.1c-8.5-11.5-13.3-1.6-17.5,11.7" transform="translate(403.7 215.7)" style="fill:#1e4ca0;fill-rule:evenodd"/><path d="M-344.2-115.7c1.1-7.7,10-9.5,14.2-2.5a58.4,58.4,0,0,0-14.2,2.5" transform="translate(403.7 215.7)" style="fill:#fff;fill-rule:evenodd"/></svg>