<svg id="Layer_1" data-name="Layer 1" xmlns="http://www.w3.org/2000/svg" viewBox="0 0 805.1 479.9"><title>Panther859_4c</title><path d="M-60.2,141c-11,19.7-13,48-8.7,69.4l1.1,5.6-4,4.1c-19.1,19.8-65.4,28.1-87.1,8.7l-.6-.5-.5-.6a19.6,19.6,0,0,1-4.9-14.6,21.4,21.4,0,0,1,.4-2.8c-18.9-4.8-32.3-16.8-42.9-34.8l-9.2-15.6,18.1-.9c14.6-.7,30.5-3.4,43-11.5-1.1-29.2-3.4-57.8-10.1-86.3-29.9-17.5-80.5-6-113.1,3.5-.4,15.3,3.5,29.3,13.7,41.6l20.4,24.5-31.1-6.9c-24.5-5.4-47.5-13.7-64.7-31.7-5.5,1.3-11.4.1-17.1-3.7l-.4-.2-.3-.3c-8.8-7.1-17.7-12.8-25.9-20.8-14.1-13.8-22.5-30.6-16.6-50.6l.2-.7.3-.6c16.9-38.4,40.2-68.4,78.7-86.1,12.9-39.9,51.8-66.5,87.8-84.1,27.5-13.4,57.2-23.6,86.7-31.9,37.2-10.5,75.3-18.4,113.3-24.8,13.2-3.5,26.5-8.9,37.1-17.7a29.2,29.2,0,0,1,10.3-8.1c9.4-4.4,20.1-3.2,29.2,1.4s16,11.9,21.5,20.1c110.7,5.1,232.9,26.6,327.9,86l10.2,6.4-7.4,9.6C299.7,10,176.2,99.7,38.3,171l-7.5,3.9-5.7-6.2C17,159.6,7.7,151.1-3,145.2c-18.5-10.2-37.6-9.9-57.2-4.2" transform="translate(402.6 239.9)" style="fill:#fff;fill-rule:evenodd"/><path d="M-390.2,20c15.6-35.5,37.6-65.7,77.8-82.6,16.5-63.6,112.6-109.5,281.1-138,18.5-4.8,32.4-11.9,42.7-20.8,9.8-13.3,31.8-9.7,46.8,16.5,127.9,5.3,242.8,31.1,328.3,84.6C307.1-17.6,197.4,76.5,33.2,161.3,8.9,134.6-20,116.4-67.4,131.8c-14.1,21.9-17.4,54.8-12.2,80.8-15.3,15.9-55.1,23.2-71.9,8.1-5.8-6.9,1-12.7,1.5-19.1-24.7-1.7-38-14.9-47.8-31.5,21.3-1.1,39.8-5.8,53.6-17-1-32.3-3.2-64.9-11.7-98.6-22.9-16-61.4-19.9-133.2,2-2.5,24.9,4.1,42.9,15.8,56.9-25.4-5.6-48.7-14.3-64.6-34.8-3.5,3.5-7.6,5-13.5,1C-366,67.9-398.8,49.3-390.2,20" transform="translate(402.6 239.9)" style="fill:#050000;fill-rule:evenodd"/><path d="M-379.7,25.9c27.9-65.7,57.7-66.5,83.1-90.3,12.3-62,135.5-100,242.7-116.9-2.6,12.1-.2,13.5,1.3,15.2,3.8-32.4,46.6-19.4,76-49,11.2-9.8,41.6,31.9,19.8,69.6-8.8,16.2-24.2,22.2-32.5,31,1.3-14,31-18.8,28.5-54.6-6.7,7.8-13.3,14.6-19.3,16.3,10.8-13.3,18.3-27.8,11.4-47.3C23.3-176.1,6.7-175.8-9-172.7c-36.8,6.6-33.5,38.6-18.6,48.5-16.4-6.9-21-20-23.1-33-45.6-2.6-96,8.3-148.4,29.4,20,6.7,36.7,15.2,43.5,26.7-9.8-1.9-17.4-2.2-27.2-2.2-48.7-22.1-46.4-7.4-74.2,32-5.2.3-9.9.1-12.7-2,1.1-9.6,5.5-17.4,12.7-26.3-10.2,7.6-22.2,20.3-24,31.5,2.2,2.4,3.5,3.2,5.7,5.5-52.5,15.7-47.2,70.4-75.3,76.9-6.1,2.7-17.1,4.3-16.9,13.5,8.6-7.7,21.4-1.2,33-11.9l-8.1,15c-12.1-2.3-19.8,1.2-19.7,17.9-8.6-5.5-21.3-14.9-17.4-22.9" transform="translate(402.6 239.9)" style="fill:#1e4ca0;fill-rule:evenodd"/><path d="M-244.1-75.9c7.9-12.8,23.2-13.3,38.6-13.7-12.8,6.4-22.2,14.5-26.9,24.9a30.2,30.2,0,0,1-11.7-11.2" transform="translate(402.6 239.9)" style="fill:#fff200;fill-rule:evenodd"/><path d="M-218.4-30.7l15.1-2.5a53.2,53.2,0,0,1-6.3-15.3c4-10.3,13.4-20.5,25.5-30.4-31.9,14.2-36.4,26.1-41.1,35.7a21.2,21.2,0,0,0,6.7,12.6" transform="translate(402.6 239.9)" style="fill:#1e4ca0;fill-rule:evenodd"/><path d="M-360,59.3c53.6-31.9,19.1-52.9,71.7-86.9,4.4-4,19.6-2.1,28.2,1.3-27.2,13.5-40,24.8-48.3,35.1,21.6-22.6,122.9-46,176.9-33.8C-224.2-22.5-292.7.1-318.4,31.1-272.4-.5-202.6-3.1-149.4,4.5c-86.3,3.6-134.3,12.1-180.4,48.3,64.8-31.3,122-39.3,170.5-21.1-85.9-14.2-158.1,25-181.5,39.9,0,0-19.1-12.2-19.3-12.2" transform="translate(402.6 239.9)" style="fill:#1e4ca0;fill-rule:evenodd"/><path d="M-172.6-18.2c26.1,9.3,54,11.8,82.8,10.9,23.6-3.6,34.6,38.4,38.6,57.2-35.9-60.8-65.2-27.1-121.5-68.1" transform="translate(402.6 239.9)" style="fill:#1e4ca0;fill-rule:evenodd"/><path d="M-40.5,66.5C-31.4,50-13.4,41.6,7.8,36,9.1-12.2,2.8-54.9-5.4-96.2,22.5-58.1,32.1-6.6,30.2,53.2c-38.8-1.9-54.7-.4-70.7,13.2" transform="translate(402.6 239.9)" style="fill:#1e4ca0;fill-rule:evenodd"/><path d="M63.7-191.7c3,17.1,2.3,33.4-5.6,47.8,48.3,6.4,86.9,16,110.8,30.5-47-5-93.1-1.3-132.2,9.1C147.5-86.1,209.3-53.6,254.9-16.4a234.9,234.9,0,0,0,25.4-22.4c-16.4-22.4-35.1-44.6-69.1-65.6,51.1,5,80.4,16.9,105.7,30,12.6-11.4,24.9-23.7,36.1-39.1C285.4-153,195-182,63.7-191.7" transform="translate(402.6 239.9)" style="fill:#1e4ca0;fill-rule:evenodd"/><path d="M-140.1,64.9c20.1,47.7,23.4,114.6,0,148.9,5.7-41.5,6.5-89.8,0-148.9" transform="translate(402.6 239.9)" style="fill:#1e4ca0;fill-rule:evenodd"/><path d="M-329.8,74.6a175.3,175.3,0,0,1,27.6-12.7c.7,23.1,7,31.5,13.2,40.2-17.9-5.5-31-14.8-40.8-27.4" transform="translate(402.6 239.9)" style="fill:#fff;fill-rule:evenodd"/><path d="M-186.3,176.5c15.7.9,29.6-4.5,42.3-14.1-.4,11.6-1.2,22.1-2.9,30.6-13.6.4-34-9.1-39.4-16.5" transform="translate(402.6 239.9)" style="fill:#fff;fill-rule:evenodd"/><path d="M-55.1-172.9a633.7,633.7,0,0,0-72.8,12c-42,9.5-115.3,31.3-143.1,62.4-14.7,16.5-15.2,34-15.2,34s-35.2,21-46.5,32.5S-344.3-4-353.3,4.3s-20.2,18-21.7,22a9.4,9.4,0,0,0-.2,6.7l3.4,8.8c-5.8-4.9-10.3-10.7-7.8-15.9,27.9-65.7,57.7-66.5,83.1-90.3,12.3-62,135.5-100,242.7-116.9a43.9,43.9,0,0,0-1.2,8.5M47.5-154.7a121.7,121.7,0,0,0-.4-17c-1-8.7-2-11.8-2-11.8s-3.2,5.7-5.2,8.8a37.3,37.3,0,0,1-3.5,4.6,58.1,58.1,0,0,0,2-19.6c-.9-9.9-7.7-18.7-7.7-18.7s-8.1,10.3-25.1,16.1-38.8,8.3-46.5,12.8a42.7,42.7,0,0,0-10.9,9.3c7-26.9,47.2-16.4,75.2-44.7C33.6-224.1,60.1-189.7,47.5-154.7Z" transform="translate(402.6 239.9)" style="fill:#fff;fill-rule:evenodd"/><path d="M343.2-101.1c-23.7-12.1-80.4-39.3-143.8-56.3C132.1-175.6,82-180.1,65.1-181.1c-.3-3.5-.7-7-1.4-10.6C195-182,285.4-153,352.9-113.5c-3.2,4.3-6.4,8.5-9.7,12.4" transform="translate(402.6 239.9)" style="fill:#fff;fill-rule:evenodd"/></svg>