<svg id="Layer_1" data-name="Layer 1" xmlns="http://www.w3.org/2000/svg" viewBox="0 0 805.1 479.9"><title>Panther859_2c2</title><path d="M392.3-129.6c-95-59.4-217.2-80.9-327.9-86-5.5-8.2-12.7-15.6-21.5-20.1s-19.7-5.9-29.2-1.4a29.2,29.2,0,0,0-10.3,8.1c-10.6,8.8-23.9,14.2-37.1,17.7-38.1,6.4-76.2,14.3-113.3,24.8-29.5,8.3-59.1,18.5-86.7,31.9-36,17.6-74.9,44.2-87.8,84.1-38.5,17.7-61.8,47.7-78.7,86.1l-.3.6-.2.7c-5.9,19.9,2.5,36.8,16.6,50.6,8.2,8,17.1,13.8,25.9,20.8l.3.3.4.2c5.6,3.8,11.5,5.1,17.1,3.7,17.3,18,40.3,26.3,64.7,31.7l31.1,6.9-20.4-24.5c-10.2-12.3-14.1-26.3-13.7-41.6,32.6-9.5,83.2-21,113.1-3.5,6.7,28.5,9.1,57.2,10.1,86.3-12.5,8.1-28.5,10.8-43,11.5l-18.1.9,9.2,15.6c10.6,18,24,30,42.9,34.8a21.4,21.4,0,0,0-.4,2.8,19.6,19.6,0,0,0,4.9,14.6l.5.6.6.5c21.7,19.4,68,11.1,87.1-8.7l4-4.1-1.1-5.6c-4.3-21.5-2.3-49.7,8.7-69.4,19.6-5.7,38.7-5.9,57.2,4.2,10.7,5.9,19.9,14.4,28.1,23.4l5.7,6.2,7.5-3.9C176.2,99.7,299.7,10,395.2-113.6l7.4-9.6ZM33.2,161.3C8.9,134.6-20,116.4-67.4,131.8c-14.1,21.9-17.4,54.8-12.2,80.8-15.3,15.9-55.1,23.2-71.9,8.1-5.8-6.9,1-12.7,1.5-19.1-24.7-1.7-38-14.9-47.8-31.5,21.3-1.1,39.8-5.8,53.6-17-1-32.3-3.2-64.9-11.7-98.6-22.9-16-61.4-19.9-133.2,2-2.5,24.9,4.1,42.9,15.8,56.9-25.4-5.6-48.7-14.3-64.6-34.8-3.5,3.5-7.6,5-13.5,1C-366,67.9-398.8,49.3-390.2,20c15.6-35.5,37.6-65.7,77.8-82.6,16.5-63.6,112.6-109.5,281.1-138,18.5-4.8,32.4-11.9,42.7-20.8,9.8-13.3,31.8-9.7,46.8,16.5,127.9,5.3,242.8,31.1,328.3,84.6C307.1-17.6,197.4,76.5,33.2,161.3Z" transform="translate(402.6 239.9)" style="fill:#050000;fill-rule:evenodd"/><path d="M-379.7,25.9c27.9-65.7,57.7-66.5,83.1-90.3,12.3-62,135.5-100,242.7-116.9-2.6,12.1-.2,13.5,1.3,15.2,3.8-32.4,46.6-19.4,76-49,11.2-9.8,41.6,31.9,19.8,69.6-8.8,16.2-24.2,22.2-32.5,31,1.3-14,31-18.8,28.5-54.6-6.7,7.8-13.3,14.6-19.3,16.3,10.8-13.3,18.3-27.8,11.4-47.3C23.3-176.1,6.7-175.8-9-172.7c-36.8,6.6-33.5,38.6-18.6,48.5-16.4-6.9-21-20-23.1-33-45.6-2.6-96,8.3-148.4,29.4,20,6.7,36.7,15.2,43.5,26.7-9.8-1.9-17.4-2.2-27.2-2.2-48.7-22.1-46.4-7.4-74.2,32-5.2.3-9.9.1-12.7-2,1.1-9.6,5.5-17.4,12.7-26.3-10.2,7.6-22.2,20.3-24,31.5,2.2,2.4,3.5,3.2,5.7,5.5-52.5,15.7-47.2,70.4-75.3,76.9-6.1,2.7-17.1,4.3-16.9,13.5,8.6-7.7,21.4-1.2,33-11.9l-8.1,15c-12.1-2.3-19.8,1.2-19.7,17.9-8.6-5.5-21.3-14.9-17.4-22.9" transform="translate(402.6 239.9)" style="fill:#1e4ca0;fill-rule:evenodd"/><path d="M-244.1-75.9c7.9-12.8,23.2-13.3,38.6-13.7-12.8,6.4-22.2,14.5-26.9,24.9a30.2,30.2,0,0,1-11.7-11.2" transform="translate(402.6 239.9)" style="fill:#050000;fill-rule:evenodd"/><path d="M-218.4-30.7l15.1-2.5a53.2,53.2,0,0,1-6.3-15.3c4-10.3,13.4-20.5,25.5-30.4-31.9,14.2-36.4,26.1-41.1,35.7a21.2,21.2,0,0,0,6.7,12.6" transform="translate(402.6 239.9)" style="fill:#1e4ca0;fill-rule:evenodd"/><path d="M-360,59.3c53.6-31.9,19.1-52.9,71.7-86.9,4.4-4,19.6-2.1,28.2,1.3-27.2,13.5-40,24.8-48.3,35.1,21.6-22.6,122.9-46,176.9-33.8C-224.2-22.5-292.7.1-318.4,31.1-272.4-.5-202.6-3.1-149.4,4.5c-86.3,3.6-134.3,12.1-180.4,48.3,64.8-31.3,122-39.3,170.5-21.1-85.9-14.2-158.1,25-181.5,39.9,0,0-19.1-12.2-19.3-12.2" transform="translate(402.6 239.9)" style="fill:#1e4ca0;fill-rule:evenodd"/><path d="M-172.6-18.2c26.1,9.3,54,11.8,82.8,10.9,23.6-3.6,34.6,38.4,38.6,57.2-35.9-60.8-65.2-27.1-121.5-68.1" transform="translate(402.6 239.9)" style="fill:#1e4ca0;fill-rule:evenodd"/><path d="M-40.5,66.5C-31.4,50-13.4,41.6,7.8,36,9.1-12.2,2.8-54.9-5.4-96.2,22.5-58.1,32.1-6.6,30.2,53.2c-38.8-1.9-54.7-.4-70.7,13.2" transform="translate(402.6 239.9)" style="fill:#1e4ca0;fill-rule:evenodd"/><path d="M63.7-191.7c3,17.1,2.3,33.4-5.6,47.8,48.3,6.4,86.9,16,110.8,30.5-47-5-93.1-1.3-132.2,9.1C147.5-86.1,209.3-53.6,254.9-16.4a234.9,234.9,0,0,0,25.4-22.4c-16.4-22.4-35.1-44.6-69.1-65.6,51.1,5,80.4,16.9,105.7,30,12.6-11.4,24.9-23.7,36.1-39.1C285.4-153,195-182,63.7-191.7" transform="translate(402.6 239.9)" style="fill:#1e4ca0;fill-rule:evenodd"/><path d="M-140.1,64.9c20.1,47.7,23.4,114.6,0,148.9,5.7-41.5,6.5-89.8,0-148.9" transform="translate(402.6 239.9)" style="fill:#1e4ca0;fill-rule:evenodd"/><path d="M-329.8,74.6a175.3,175.3,0,0,1,27.6-12.7c.7,23.1,7,31.5,13.2,40.2-17.9-5.5-31-14.8-40.8-27.4" transform="translate(402.6 239.9)" style="fill:#050000;fill-rule:evenodd"/><path d="M-186.3,176.5c15.7.9,29.6-4.5,42.3-14.1-.4,11.6-1.2,22.1-2.9,30.6-13.6.4-34-9.1-39.4-16.5" transform="translate(402.6 239.9)" style="fill:#050000;fill-rule:evenodd"/></svg>