<svg id="Layer_1" data-name="Layer 1" xmlns="http://www.w3.org/2000/svg" viewBox="0 0 441.5 816"><title>Panther356_2c</title><path d="M90.1,200.9c-.3-8.9-1.5-17.8-2.6-26.6-1.7-13.6-4-29.9-2.1-44.6-4.2,2.5-8.7,4.5-12.7,6.5-8.4,4.2-17.7,9.3-19.6,19.4-.2,1-.9,4.7-.6,5.8l.9.2,3.7.6.2,3.8c.3,7.9-.8,15.9-4.4,23a35.5,35.5,0,0,1-13.3,14.4,46.8,46.8,0,0,1-19.1,6.3,60.1,60.1,0,0,1-25.4-2.5c-6.4-2.1-13.7-6-17.1-12s-4.5-8.5-2.5-13.2a26.1,26.1,0,0,1-3.9-21h0a5.9,5.9,0,0,1,.9-1.8c-1.5-.8-2.8-1.6-3.9-2.4a48.9,48.9,0,0,1-7.2-5.7c-11.4-7.2-19-15.5-22.2-27.9-5.5,1.8-11.2,1-16.8-1.5-7.4,3.1-15.8,4-22.8-.8-11.5-7.9-12.4-26-9.5-38.3a51.2,51.2,0,0,1,2.3-7.2c.5-9.9.6-20.9-2.2-30.4l-.6-2,1.1-1.8c5.8-8.9,11.2-18.7,14.2-28.9,2-6.9,2.7-13.3,3.3-20.4a107.1,107.1,0,0,1,3-19.9c2.7-13.3,13.1-49.4,30.5-47.3,9.6,1.1,19.4,1.6,29,.3,2.8-.4,5.6-.9,8.5-1.5a50.1,50.1,0,0,1,7.6-1h2.9A54.1,54.1,0,0,1-3.8-98.6,102.3,102.3,0,0,1-10.3-116a64.8,64.8,0,0,0-11.6,3.5,104.1,104.1,0,0,0-11.6,5.9,121.5,121.5,0,0,1-11.5,5.9c-19.3,24.4-43,29.6-72.4,19.1-9.8,2.1-15,5.6-22.6,12.2a86.3,86.3,0,0,1-8.8,6.9c-.1,6.2-.5,12.4-.8,18.5s-.5,11.5-.2,17.2c.1,1.5.4,6.1,1.2,8,5.9.3,10.9,1.7,15.3,6,1.8,1.7,3.2,3.6,4.8,5.4a26.1,26.1,0,0,1,6.3,21.6c-1.1,6.4-4.9,13.1-11.6,14.9a12.2,12.2,0,0,1-6,.1c-3.4,4.9-8.1,7.7-14.1,7.4a16.9,16.9,0,0,1-5.1,4.7c-6.4,3.9-14.4,3.2-21,0-6.1,4.7-13.7,6.8-21.4,4.3a23.4,23.4,0,0,1-15-15.6,21.5,21.5,0,0,1-.8-4.1h0a117.5,117.5,0,0,0-2.4-17.1c-.8-3.9-1.8-7.9-1.6-11.8a21.5,21.5,0,0,1,1.8-7.6,96.6,96.6,0,0,0,4.6-30.1c-.1-5.9-1.2-13,.3-18.8a20.4,20.4,0,0,1,2.4-5.7c6.6-12.7,13.4-25.3,19.2-38.4,5-11.4,9.5-23.8,10.7-36.2v-.5a16,16,0,0,1,2.5-5.8,23.1,23.1,0,0,1,7.6-6.4c3.3-1.9,6.8-3.7,10.2-5.5A138,138,0,0,0-131-181.9c4.6-19.8,11.6-37.7,25-52.4-28.8-1.4-62.1-7-84.8-23.9-16.8-12.6-25.9-30.4-24.4-51.5a68.7,68.7,0,0,1,2.8-15.1c5.5-18,19-36.7,36.4-44.8A155.5,155.5,0,0,1-116.2-386c18.7-1.5,37.4-.1,56,2.5s37.4,6.5,56,10.2c16.3,3.2,32.7,6.4,49.2,8.4,13.2,1.6,27.7,3.1,41.1,2.2,6.9-.5,18.1-2,22.5-8.1,2.8-3.9,2.3-9.1,1.3-13.5h-.1a17.6,17.6,0,0,1,1-9.7c3.7-9.1,13.9-13.6,23.1-14.4a41.7,41.7,0,0,1,31.5,10.2c7.4,6.5,13.9,14.4,17.8,23.5a41.8,41.8,0,0,1,2.8,24c-2.4,12.9-10.8,23.5-21.1,31.2-12.4,9.2-27.7,14.6-42.8,17h-.1a141.1,141.1,0,0,1-27.9.5c-10.7-.7-21.4-2.2-32-3.9-23.9-3.9-47.6-9.3-71.3-14.1s-46.5-9.1-69.9-11c-18.5-1.5-39.5-1.6-57.4,4.2-6.3,3.9-16.4,11.8-15.3,20.1s11.6,12.5,18,14.5c17.1,5.5,39.4,5.3,57.1,3.9,31.7-2.5,63.6-3.6,95.1,1.4s59.5,15.6,87.8,28.9c30,14.1,77.7,41.4,82.3,78.1a45.9,45.9,0,0,1,0,10.9c11.4,22.1,19.6,46.2,20.5,71.2,10.2,30,13.9,58.7,8.4,90.1,6.7,30.2,4.9,60.1-14.9,84.9-.9,10.3-.2,20.8.5,31.1,1.6,24.1,2.6,46.4-10.7,67.8-6.8,13.8-12.2,28.3-13.9,43.7-.5,4.3-.7,8.6-1,13a30.9,30.9,0,0,1-2.3,10.8c-3.6,7.9-12.8,12-20.7,14.9-6.1,23.3-21.7,36.7-43.8,45.3-8.9,3.4-18,5.8-27.1,8.5a92.2,92.2,0,0,0-13.6,4.8,55.4,55.4,0,0,1,16,35c.8,10.4-1.3,23.9-8.4,32.1-2.5,9.5-13,22.2-23,21.6l-3.5-.2-.7-3.5a82.2,82.2,0,0,0-2.4-8.1,24.1,24.1,0,0,1-7.6,0c-2.9,4.8-7.4,9.7-12.2,11.2l-1.1.3-1.2-.3c-4.5-1-8.6-5.6-11.1-10a33,33,0,0,1-9.2-.6C3,399.4-.8,404-5.3,406l-2.1.9-2-1.1c-4.4-2.5-8.9-9.4-11.4-14.8a32.1,32.1,0,0,1-7.7-1.6,85.7,85.7,0,0,0-5.4,11.4l-1.9,5.1-4.7-2.7c-17.8-10.3-20.9-32.7-16.9-51.1-.6-13.5,3.2-25,12.9-34.6a79.4,79.4,0,0,1,12.5-9.8c3.3-2.2,6.7-4.2,9.9-6.4,2.3-20.6,29.5-34.5,45.7-42.8a99,99,0,0,0,29.1-22.3c7-7.6,13.1-16.1,20.5-23.3a62.4,62.4,0,0,1,16.9-11.8" transform="translate(220.7 409)" style="fill:#050000;fill-rule:evenodd"/><path d="M-83.9,87.6c-2.1,9.4-2.1,17.5,2,23.5-3.1,1.4-7.6,1.7-10.3-.1a22.7,22.7,0,0,1-4.5-21.8c.6-4.2,9-5.7,12.8-1.7m18.2-4.7c-11.5-3.3-14.8,15.7-9.3,24.7,3.8,5.6,11.6,4.6,18.5.5a40.3,40.3,0,0,1,1.6-5.8C-62.1,98.5-65.1,91.6-65.7,82.9ZM-5.9,64.4a13.7,13.7,0,0,0,4.6,4.2c5.7-5.7,32-19.3,39.8-1.3a9.8,9.8,0,0,0-6.2-3c1.1,6.1-.2,11.4-5,15.4a10.9,10.9,0,0,0,6.1-3.9c-1.3,9-19.9,11.9-28.5,1.3A25.2,25.2,0,0,0-.8,92.2c10.3,0,22.9,6.7,30.6,19,2-23.1,36.4-9.7,31.3-36.7,6,13,7.4,40.1,2.4,46.2-18,6.8-28,21-29.9,38.5-2.3,21.8-15.7,37.9-46,24.9C-5.7,203.3,41.3,200.6,45,171c-8-6.3-4.4-24.5,5-34.6s29.1-13.8,36.2-23.9c10.3-13.2,3.7-44-1.3-54.6a24.6,24.6,0,0,1,7.9,6.1c9.2-19,24.4-21.2,14.9-65.2,7.4,9.5,11.5,23.8,11.1,44.6,6-3.4,10.3-4.4,13.5-4-24.3,11.5-46.1,43.4-11.5,84.2-7.2-.8-13.4-4.9-18.7-11.6-9.1,33.6,1.3,59.6,1.9,89.4,13.2-.7,21.7,3,28.6,8.2-48-10.2-54.1,28.6-82.1,48.1s-58.1,27.1-62.5,53.1l-3.8-2.3c-8.2,7.8-18.5,15.3-24.5,23.3,10.8-3.6,20,2.1,23.4,12.2,3.9-9.2,20.7-15.1,29.1.5,4-5.4,10.1-7.7,19.4-5.3.5-25.8-41.7-8.2-27.5-47.1,3.4,11.5,24,5.8,33-2.4,15.7-12.7,66.9-15.1,68.6-42.2,2.7,9.9,2.6,20.1-3.4,30.9,30.4-14.8,45.9-51.4,37.9-66.9,4.8.9,13.4,13.9,13.1,27.8a18.2,18.2,0,0,0,6-2.1c5.3-42.3-13.3-56.6,9.4-89.7-4.2,11-2.3,20-1.1,29.1,4.9-19.7,16.4-22.1,4.2-61.8-11.3,9.8-22.7,6.9-31.3,23.7,1.6-28.7,19.6-28.7,32.3-48.7,11.2-17.6,9.8-38.1-5-52a40.5,40.5,0,0,1,19.3,15.9C213.5,18.5,211.2-18,171.7-56c14.1,6.8,25.2,17.4,33.7,31.8,1.9-41-9-78.8-33.4-113.3a138.8,138.8,0,0,1,19.5,19c-8.6-33.6-24-63.9-50.3-89.2,13.9,8.6,23.2,18.1,32.3,27.6-6.3-36.8-67.1-68.7-135.8-91.3-61.8-20.3-177.7,13.6-199.6-21.1-14.5-23.1,4.7-53.2,67.8-51.7,113.4,2.7,182.4,50.9,249.4,14,37.4-30.2-.7-69.4-26-62.9-18,3.6,12,36.9-23.5,43-98.4,16.7-208.1-57.7-284.4.4-20.4,17.2-27.5,39.5-16,66.2,10.8,25.1,44.2,31.1,113.3,37.8A155.5,155.5,0,0,1-50-259c-86.7,46.4-54.5,109.1-89.9,112a42,42,0,0,0,7-15.6c-31,28.8-34.9,18.2-37,32.3-7.2,48-33.9,63.7-30.7,87.3,1.7,13.2-2.3,33.3-5.1,38.6,3.1,12.1-1.1,33.4,9.3,36.2,14,3.7,17.7-21.5,3.1-26.4,2.7-8,20.3,1.6,16.3,23.8,20.4,8.9,22.3-29,2.3-25.2,0-7.4,23.9-5.9,21,21.4,10.6-5,10.3-25.8-5.9-28.4,4-5.6,23.4,2.2,20.4,19.6,10.9-2.9,4.3-23.2-10.4-23.1-11.5.2-16.2-15.3-15-37.4-11.2-4-24.7-19.2-23.7-26.2a35.4,35.4,0,0,0,2.9,4.4c33.7.7,30.5-19.9,56.4-26.7-12.5-9.8-18.6-19.1-19.5-27.8,8.8,17.7,22.8,16.3,34.2,24.5,55,19.1,52.6-26.7,91.6-43.2a162.1,162.1,0,0,0-16.1,19.8A58.9,58.9,0,0,1-9.3-131.1c-2.4-31.4,2.8-56.3,17-73.6-9.7,13.3-13.8,65.3-.3,93.8,5.1-18.7,14-29.2,23.3-39.1-12.2,18.2-7.7,33.2-15.9,47.8-5.5,9.9-9,15-11.4,28.8,11.1-4.7,21.7-5.9,31.5-2.6C54.2-96.3,77.7-78,82.2-70.1c-9-2.1-26.9-11.6-36.1-4.7S27.9-62.2,20.3-53c-.4-4.7,3.3-9.9,7-14.4-19.4-1.4-47.4,13.2-58,31.2,3.1-9,8-18,18.1-27.4-40.7,7.5-32.7-1.1-51.5,4.6C-84-18.4-71.5,17.3-95.6,46.2a178.7,178.7,0,0,1,1.7,28.4,22.8,22.8,0,0,1,9.3-1.4c-5.5-35.6.4-19.7,10.7-46s2.3-58.9,19.2-80.9c-7,16.8.9,31.9,5,47.4,1.9-8.9,3.9-16.6,9.7-20.2,4.2-2,19.5,1.3,28.5,14.1,15.3-20.4,34.2-31,56.8-31.3C26.9-37.3,11.3-24.8-2.2-7.8c3-.1,4.7.7,5.9,1.9,14-7.7,28.5-7.1,43.3-.9-.6-12.8,15.5-33.4,25.5-27.8C89.3-24.5,98.7,4.6,91.9,35c-2.2-1.8-3-4.1-4.5-6.1,3.1-25.4-2.9-47.8-17.9-58.3C64.8-31.9,50.3-12.6,52.5-5.2a27.2,27.2,0,0,1,13.4,15C38.8-12,2.9-9.5-8.8,12.4Q-9.3,5.6-2.1-2.2c-20.5-.2-37.1,13.7-51,38a15.3,15.3,0,0,1,6.5-1.9c-12.9,10.7-15,18.4-6.4,33.3,2.8,4.9-3.3,7.7-4.6,14-1,4.6-.3,12.2,8.7,18.4a52.9,52.9,0,0,1,6.9-6.2,45.9,45.9,0,0,1,5.2-12.2c-8.1-2-10.1-10.8-9.9-21.8-2.1-3-1.8-1.1-3.1,5.5-1.4-8-.4-14.8,3.4-12.6,8.8,9.5,22.5,15.5,21.7,18.8-4.8,8.2-8.8,9.7-12.7,25.4a40.2,40.2,0,0,0,8.6,6.1A38.6,38.6,0,0,1-5.2,95.9c-.3-8.3-.6-16.5,2.5-23.4C-5.1,71.2-5.8,68.2-5.9,64.4Z" transform="translate(220.7 409)" style="fill:#1e4ca0;fill-rule:evenodd"/><path d="M27.2-5.3h0M87.5,28.9c3.1-25.4-2.9-47.8-17.9-58.3C64.8-31.9,50.3-12.6,52.5-5.2a32,32,0,0,1,5.2,3.4,31.1,31.1,0,0,1,2.6-10.7A25.6,25.6,0,0,1,68-21.2S73.9-14,76.3-7.1s2.8,8.8,2.8,8.8l-4.5-.3,2.1,12.3,3.6,6.4Z" transform="translate(220.7 409)" style="fill:#1e4ca0;fill-rule:evenodd"/><path d="M-194.5-283.4c10.8,24.9,44.3,30.9,113.2,37.6a178.7,178.7,0,0,1,20.2-9.4c-10.7-1.1-48.7-4.9-88.8-11-21.8-3.3-35.8-10.4-44.6-17.2m31.2-36.1c7.7-14.3,30-25.6,69.3-24.7,113.4,2.7,182.4,50.9,249.4,14,15.6-12.6,18.1-26.8,13.8-38.6-4.8,16.5-19.4,34.6-59.5,38.6C32-322.5-62.8-360.4-118.5-357.5-154.6-355.6-162.3-334.3-163.3-319.5Z" transform="translate(220.7 409)" style="fill:#1e4ca0;fill-rule:evenodd"/><path d="M-57.6,47.9c-1.6,5.4,0,11.4,4.6,19.4a4.9,4.9,0,0,1,.1,5l7.7,8.1s-.3.3-3,7.7A35.7,35.7,0,0,0-50,98.9l1,.7a52.9,52.9,0,0,1,6.9-6.2,45.9,45.9,0,0,1,5.2-12.2c-8.1-2-10.1-10.8-9.9-21.8-2.1-3-1.8-1.1-3.1,5.5-1.4-8-.4-14.8,3.4-12.6,8.8,9.5,22.5,15.5,21.7,18.8-.9,1.5-1.7,2.7-2.5,3.9a16,16,0,0,1,5.1-3.3l-3.3-6.2s-11-14.2-20.1-19.3c-5.2-2.9-9.4-.7-12,1.6m29.2,2.5s-4.5-7.5-7.3-10.5a19.6,19.6,0,0,0-5.6-4.2l9.9.7s3.6-10.6,16.5-11.1S5.5,35.7,5.5,35.7a48.5,48.5,0,0,1,15-1.8c7.7.5,9.2,1.3,9.2,1.3A71.6,71.6,0,0,0,5.5,44.1C-6,51.1-11.1,57.6-11.1,57.6s-5.7-.6-7,2.5-.7,8-.7,8-4.4-4.8-5.1-9.5-.5-4.8-.5-4.8Zm22.5,14a13.7,13.7,0,0,0,4.6,4.2c5.7-5.7,32-19.3,39.8-1.3a9.8,9.8,0,0,0-6.2-3c1.1,6.1-.2,11.4-5,15.4a10.9,10.9,0,0,0,6.1-3.9c-1.3,9-19.9,11.9-28.5,1.3A25.2,25.2,0,0,0-.8,92.2c10.3,0,22.9,6.7,30.6,19,2-23.1,36.4-9.7,31.3-36.7,6,13,7.4,40.1,2.4,46.2-18,6.8-28,21-29.9,38.5-2.3,21.8-15.7,37.9-46,24.9C-5.7,203.3,41.3,200.6,45,171c-8-6.3-4.4-24.5,5-34.6s29.1-13.8,36.2-23.9c10.3-13.2,3.7-44-1.3-54.6a24.6,24.6,0,0,1,7.9,6.1c9.2-19,24.4-21.2,14.9-65.2,7.4,9.5,11.5,23.8,11.1,44.6,6-3.4,10.2-4.4,13.4-4a108.7,108.7,0,0,1,12-3.4l-15.1-4.1-4.4-14.8c-4.4-14.8-24-29.9-24-29.9s8.6,15.7,5.3,39.4S90.7,55.7,90.7,55.7L80.3,51.9a64.6,64.6,0,0,1,5.3,21c1.2,12.7-4.7,24.3-4.7,24.3s0-.9-2.7-9.8S66.1,69.1,66.1,69.1s.6-4.7-.6-17.5S48,26.4,48,26.4a151.9,151.9,0,0,1,1.5,17.8,48.9,48.9,0,0,1-3.3,18.7s10.1,5,10.4,11.3S54.5,85,46.5,88.3,26.7,98.7,26.7,98.7s0-.9-2.4-4.4S16,88,16,88s15.1,1.5,18.4-5a19.2,19.2,0,0,0,1.5-12.7L44.2,72S39.7,53.4,22.5,53.6-3.5,63.7-3.5,63.7L-10.6,59a40.1,40.1,0,0,0,.9,4.7,20.6,20.6,0,0,0,3.9,7.7l-1.5,5.9c-1.1,4.4-1.2,14-1.2,18.5h3.4c-.3-8.3-.6-16.5,2.5-23.4C-5.1,71.2-5.8,68.2-5.9,64.4Z" transform="translate(220.7 409)" style="fill:#1e4ca0;fill-rule:evenodd"/><path d="M-83.9,87.6c-2.1,9.4-2.1,17.5,2,23.5-3.1,1.4-7.6,1.7-10.3-.1a22.7,22.7,0,0,1-4.5-21.8c.6-4.2,9-5.7,12.8-1.7m18.2-4.7c-11.5-3.3-14.8,15.7-9.3,24.7,3.8,5.6,11.6,4.6,18.5.5a40.3,40.3,0,0,1,1.6-5.8C-62.1,98.5-65.1,91.6-65.7,82.9ZM26.2-59.3A66.3,66.3,0,0,0,20.3-53a12.1,12.1,0,0,1,1.2-5.8L7.7-49.1C-.6-43.2-13-29.9-13-29.9s-.3-.3-.9-8.3c-.4-5,1.8-12.6,3.5-17.8-8.6,5.4-16,12.3-20.4,19.8A63.5,63.5,0,0,1-19.9-55.8h-.2c-8,4.1-21.6,18.5-21.6,18.5a11.8,11.8,0,0,1-8-6.4c-2.7-5.5.1-13.9.1-13.9s-3.4.4-8.1,4.3-7.7,9-14.8,36.9A72.4,72.4,0,0,1-78.4-.9c-2.4,17.2-5.4,33-17.2,47.1a178.7,178.7,0,0,1,1.7,28.4,22.8,22.8,0,0,1,9.3-1.4c-5.5-35.6.4-19.7,10.7-46s2.3-58.9,19.2-80.9c-7,16.8.9,31.9,5,47.4,1.9-8.9,3.9-16.6,9.7-20.2,4.2-2,19.5,1.3,28.5,14.1,15.3-20.4,34.2-31,56.8-31.3H45a117.4,117.4,0,0,1,25.8-2.9,39.1,39.1,0,0,0-23.7-7.4c-14.2.3-26.4,7.1-26.4,7.1ZM-196.1,31.8c13.8,3.2,17.2-21.7,2.7-26.5,2.7-8,20.3,1.6,16.3,23.8,20.4,8.9,22.3-29,2.3-25.2,0-7.4,23.9-5.9,21,21.4,10.6-5,10.3-25.8-5.9-28.4,4-5.6,23.4,2.2,20.4,19.6,10.9-2.9,4.3-23.2-10.4-23.1-11.5.2-16.2-15.3-15-37.4-11.2-4-24.7-19.2-23.7-26.2a35.4,35.4,0,0,0,2.9,4.4c33.7.7,30.5-19.9,56.4-26.7-12.5-9.8-18.6-19.1-19.5-27.8,8.8,17.7,22.8,16.3,34.2,24.5,55,19.1,52.6-26.7,91.6-43.2a162.1,162.1,0,0,0-16.1,19.8A58.9,58.9,0,0,1-9.3-131.1c-2.4-31.4,2.8-56.3,17-73.6-9.7,13.3-13.8,65.3-.3,93.8,5.1-18.7,14-29.2,23.3-39.1-12.2,18.2-7.7,33.2-15.9,47.8-5.5,9.9-9,15-11.4,28.8,11.1-4.7,21.7-5.9,31.5-2.6,13.4-14.3,28.8-9.7,38.5-3C71.2-83.9,65.9-92.7,56.3-96,42.4-100.7,24-87.7,24-87.7a78.1,78.1,0,0,0,5.3-14.5c1.8-7.4.3-13.9-.3-24.6s13-39.1,13-39.1-2.4.3-11.9,4.1S8-147.5,8-147.5s-2.1-11.3-3-32.3,9.2-33.8,9.2-33.8-22.5,13-35,27.8S-45.3-149-45.3-149l16.3-4.7a121.7,121.7,0,0,0-23.4,25.5c-9.8,14.8-34.4,17.5-34.4,17.5s-7.1-6.5-1.8-26.7,28.1-49.2,28.1-49.2l-20.7,8,2.1-5.6c2.1-5.6,11.6-22.2,11.6-22.2s-24.9,10.4-36.4,29.6a56.9,56.9,0,0,0-6.8,39.1l-2.1,4.1c-2.1,4.1-4.1,15.4-4.1,15.4a40.6,40.6,0,0,1-15.7.3c-9.2-1.5-22.2-13.9-22.2-13.9a41,41,0,0,0,1.8,15.7c2.7,8.3,12.1,20.7,12.1,20.7s-15.4,8.9-25.2,16-21.3,3.3-21.3,3.3l-5,12.7s-.3,15.4-.6,31.4-6.8,26.1-6.8,26.1l.6,8.9s5.6,7.4,5,20.7A26.8,26.8,0,0,1-196.1,31.8Z" transform="translate(220.7 409)" style="fill:#1e4ca0;fill-rule:evenodd"/><path d="M-34.8,325.7a58.5,58.5,0,0,0-5.4,6.1c10.8-3.6,20,2.1,23.4,12.2,3.9-9.2,20.7-15.1,29.1.5,4-5.4,10.1-7.7,19.4-5.3C32.1,323.7,16.7,324,7.7,318c-1.6,2.6-1.1,4.3-1.1,4.3L2.1,322c-4.4-.3-10.1,1.8-10.1,1.8l-3-7.4-5,10.4s-3.6-.9-12.1-2.4a12.3,12.3,0,0,0-6.7,1.3M103.1,78.7c-1.1,12.9,3.7,28.2,17.9,44.9-7.2-.8-13.4-4.9-18.7-11.6-9.1,33.6,1.3,59.6,1.9,89.4,13.2-.7,21.7,3,28.6,8.2,0,0,3,2.1,1.9,16.4s-19.7,25.2-19.7,25.2l-1.3-8.1c-1.3-8.1-8.6-16.7-8.6-16.7s-1.6,20.7-11,33-31.3,15-50.7,22.2-21.6-.4-21.6-.4-3.3.7-9.2,4.3-8.2,7-8.2,7c3.4,11.5,24,5.8,33-2.4,15.7-12.7,66.9-15.1,68.6-42.2,2.7,9.9,2.6,20.1-3.4,30.9,30.4-14.8,45.9-51.4,37.9-66.9,4.8.9,13.4,13.9,13.1,27.8a18.2,18.2,0,0,0,6-2.1c5.3-42.3-13.3-56.6,9.4-89.7-4.2,11-2.3,20-1.1,29.1,4.9-19.7,16.4-22.1,4.2-61.8-11.3,9.8-22.7,6.9-31.3,23.7,1.6-28.7,19.6-28.7,32.3-48.7,11.2-17.6,9.8-38.1-5-52a40.5,40.5,0,0,1,19.3,15.9C213.5,18.5,211.2-18,171.7-56c14.1,6.8,25.2,17.4,33.7,31.8,1.9-41-9-78.8-33.4-113.3a138.8,138.8,0,0,1,19.5,19c-8.6-33.6-24-63.9-50.3-89.2,13.9,8.6,23.2,18.1,32.3,27.6-2.3-13.4-11.8-26.1-26.3-38-27.7-12.3-47.7-14.1-47.7-14.1s35,31.4,36.7,70.5-25.5,79.4-25.5,79.4a83.6,83.6,0,0,0-18.1,16,21,21,0,0,0-3.9,21.9s14.8-14.8,33.2-20.1,39.7,4.4,39.7,4.4S183.1-50,188.2-14.5s-7.7,46.8-7.7,46.8-.6-.6-7.1-2.7-19-2.4-19-2.4a52.4,52.4,0,0,1,12.1,15.1,42.1,42.1,0,0,1-4.1,44.4c-12.4,16.6-30.8,26.7-30.8,26.7l-8.9-6.8C116.2,101.7,107.4,86.5,103.1,78.7Z" transform="translate(220.7 409)" style="fill:#1e4ca0;fill-rule:evenodd"/><path d="M8.2,69.4c5.1-3.8,12-5,19.3-5.5-.3,14.6-17.1,11.2-19.3,5.5" transform="translate(220.7 409)" style="fill:#1e4ca0;fill-rule:evenodd"/><path d="M-10.7,56.9C-7.1,45.5,2.4,39.2,18.4,38.4,13.4,44.4,3.5,45-10.7,56.9" transform="translate(220.7 409)" style="fill:#050000;fill-rule:evenodd"/><path d="M-27.1,54.5C-25.6,43.6-32,38.4-42.4,35c5.8,5.3,7.6,10.5,15.3,19.5" transform="translate(220.7 409)" style="fill:#050000;fill-rule:evenodd"/><path d="M48.9,61.3c3.6-9.2,4.6-17.9,2.2-26.1,5.7,5.9,7.9,17.1,6.9,33.1-2.3-3.2-4.5-6.4-9-6.9" transform="translate(220.7 409)" style="fill:#050000;fill-rule:evenodd"/><path d="M-30.7,72.8c-3.9,8.1-11.5-1.5-13-10.3,3.9,3.4,8.2,6.8,13,10.3" transform="translate(220.7 409)" style="fill:#1e4ca0;fill-rule:evenodd"/><path d="M-14.3-6.4c-9.2-12-19.5-15.9-24-13.9-4.5,4.1-6.4,21.9-6.1,33A108.3,108.3,0,0,1-26.2-2.1a112,112,0,0,0-10-14.2c3.7.5,12.2,4.8,15.6,11.6a22.4,22.4,0,0,1,6.4-1.7" transform="translate(220.7 409)" style="fill:#1e4ca0;fill-rule:evenodd"/><path d="M-14.3-6.4c-9.2-12-19.5-15.9-24-13.9-4.5,4.1-6.4,21.9-6.1,33l2.2-2.2A72.1,72.1,0,0,1-40.8-1.2a59.6,59.6,0,0,1,4.6-15c3.7.5,12.2,4.8,15.6,11.6a22.4,22.4,0,0,1,6.4-1.7" transform="translate(220.7 409)" style="fill:#1e4ca0;fill-rule:evenodd"/><path d="M-27.6,119.3c-7.7-2.8-11.8-9.1-14.9-16.1-1.5.8-3.2,1.8-3.7,3.1a43.2,43.2,0,0,0,7.8,9.3c-5.1.3-8.3-2.6-10.8-6.9-.9,1.1-2.9,3.3-1.9,4.9s6.6,4.8,12.1,5.7a10.7,10.7,0,0,1-11.4-.1c-.2,1.4.9,4.2,2.8,4.6s7,.1,11.1,0c-2.6,2.4-5.6,4.1-9.8,3.8.6,1.4,3.6,5.3,5.5,6.2,6.1-4.8,10.9-6.1,15-6a37.5,37.5,0,0,1-2-8.5" transform="translate(220.7 409)" style="fill:#1e4ca0;fill-rule:evenodd"/><path d="M-22.7,127.7c10.6-.1,21.2,2.9,31.7,7,5.4-.7,8.9-4.6,12.1-8.8-9.9,4.5-18,3.5-24.8-1.3,8.8,1.7,17,.3,24.4-5.2a9.7,9.7,0,0,0-2.5-5.9c-7.2,8-15.6,9.9-25.1,6.3,10.4.1,17-4,21.9-10.2a14.9,14.9,0,0,0-3.3-2.8c-5.2,6-14.4,10.2-20.9,8.3,7.3-1.8,12.5-6,16.8-11.1A21.6,21.6,0,0,0-1,100.7c-7.3,5.5-14.5,10.4-21.9,16.5-1.7,1.5-1.2,5.7.2,10.5" transform="translate(220.7 409)" style="fill:#1e4ca0;fill-rule:evenodd"/><path d="M-35.5,137.5c.8-1.4,5.5-4.2,11.7-1,0,4.3.4,8.5.7,12.7a33.9,33.9,0,0,1-12.5-11.7" transform="translate(220.7 409)" style="fill:#1e4ca0;fill-rule:evenodd"/><path d="M-1.6,139.4c.7,6.3,4.2,10.8,9.8,14,.1-3.8.4-7.7.7-11.6-4.1-2-7.6-2.7-10.5-2.4" transform="translate(220.7 409)" style="fill:#1e4ca0;fill-rule:evenodd"/><path d="M-.8,151.1c2.7,3.6,6.2,6.4,11.4,6.8.9-11.6,5.2-20.1,10.5-23.8-.3,14.4,4.8,22.9.2,34.7-8.3-1.6-10.3-4.3-14.1-6.5-2.9.2-5.4,9.2,2,18.5a12.8,12.8,0,0,1-6,.1c-6.7-3.3-7.1-14.4-4-29.8" transform="translate(220.7 409)" style="fill:#1e4ca0;fill-rule:evenodd"/><path d="M-11,170.5a15.6,15.6,0,0,1-8.1-1.3c-.8,2.9,3.3,10.7,10.2,10.3,3.1-2.4.3-8.3-2.1-9" transform="translate(220.7 409)" style="fill:#1e4ca0;fill-rule:evenodd"/><path d="M19.8,171.7a22.3,22.3,0,0,1-12-3.8c-.4,3.5,2,11.4,7.7,11.6,2.8,0,4.2-3.6,4.2-7.8" transform="translate(220.7 409)" style="fill:#1e4ca0;fill-rule:evenodd"/><path d="M72.1,12.6A126.4,126.4,0,0,0,67.9-8.3a41.3,41.3,0,0,1,6.9,4.5c-1.3-6.4-3.9-12-6.7-17.4C76.3-16.1,82.2-7.3,83.3,9.1A17.4,17.4,0,0,0,77,4a60.9,60.9,0,0,1,3.4,16.1,25,25,0,0,0-8.3-7.6" transform="translate(220.7 409)" style="fill:#050000;fill-rule:evenodd"/><path d="M115.4-221c36.7,34.7,29.1,108-6.2,152.8-5.6,5.3-8.6,8.2-11.5,13.6C117-71.9,137.3-71.8,158-63.7c-2.4-7.3-10.6-12.7-34.4-12.7,35.5-59.4,30.5-120-8.2-144.6" transform="translate(220.7 409)" style="fill:#050000;fill-rule:evenodd"/><path d="M-89.4-100.1c-21.4-9-2.8-51.2,13.9-71.5-8.2,6-16.1,12.1-20.6,19.6.9-16.6,8.8-31.5,19.5-45.7-15.7,6.3-36.7,40-28.6,60.1-10,31.1-3.4,42,15.9,37.4" transform="translate(220.7 409)" style="fill:#050000;fill-rule:evenodd"/><path d="M-14.8,71c-1.6-3.3-4.6-2.1-4.8-9.8-1.4.6-2.1,8.8,0,11.8a2.7,2.7,0,0,0,4.9-2" transform="translate(220.7 409)" style="fill:#050000;fill-rule:evenodd"/><path d="M-41,349.1c-8.1,5.1-9.1,25.9,1.2,39.9,2.4-12.4,8.7-19.3,7.3-28.7s-5.2-14-8.5-11.3" transform="translate(220.7 409)" style="fill:#1e4ca0;fill-rule:evenodd"/><path d="M-7.5,348.1c14.2,0,9.4,25.5,1,37.7-13.7-22-7.4-37.6-1-37.7" transform="translate(220.7 409)" style="fill:#1e4ca0;fill-rule:evenodd"/><path d="M61.1,349.1c8.1,5.1,9.1,25.9-1.2,39.9-2.4-12.4-8.7-19.3-7.3-28.7s5.2-14,8.5-11.3" transform="translate(220.7 409)" style="fill:#1e4ca0;fill-rule:evenodd"/><path d="M27.6,348.1c-14.2,0-9.4,25.5-1,37.7,13.7-22,7.4-37.6,1-37.7" transform="translate(220.7 409)" style="fill:#1e4ca0;fill-rule:evenodd"/><path d="M63.5,120.7c-18,6.8-28,21-29.9,38.5-2.3,21.8-15.7,37.9-46,24.9C-5.7,203.3,41.3,200.6,45,171c-8-6.3-4.4-24.5,5-34.6s29.1-13.8,36.2-23.9c4.4-5.6,5.7-14.5,5.4-23.6a119.1,119.1,0,0,1-6.6,15.5c-6.6,12.7-21.5,16.4-21.5,16.4" transform="translate(220.7 409)" style="fill:#1e4ca0;fill-rule:evenodd"/><path d="M19,62.8a3.8,3.8,0,1,1-3.8,3.8A3.8,3.8,0,0,1,19,62.8" transform="translate(220.7 409)" style="fill:#050000;fill-rule:evenodd"/><path d="M-34.6,65.3a3.8,3.8,0,0,1,3.8,3.8,3.8,3.8,0,0,1-3.8,3.8,3.8,3.8,0,0,1-3.8-3.8,3.8,3.8,0,0,1,3.8-3.8" transform="translate(220.7 409)" style="fill:#050000;fill-rule:evenodd"/></svg>