<svg id="Layer_1" data-name="Layer 1" xmlns="http://www.w3.org/2000/svg" viewBox="0 0 596.8 545.7"><title>Panther871_2c</title><path d="M137.2,112.2l-21.3,2.2-16-4s-4.7,7.1-.1,24.4S111.3,154,111.3,154l3.1.9s-5.5,20.3-6.8,37-1,23.1-1,23.1a74,74,0,0,0-2,14.1c-.4,8.2-.4,11.5-.4,11.5a72.3,72.3,0,0,0-8.8,23.9c-2.5,14.1-3.1,33.2-3.1,33.2a122.2,122.2,0,0,0,7.8,21,51.3,51.3,0,0,0,12.7,16.4,40.1,40.1,0,0,0,8.9,8.3c5.1,3.3,5.8,4.3,5.8,4.3s5.7,13.2,12.8,22.7a130.5,130.5,0,0,0,14.1,16,123.5,123.5,0,0,0-2.9,22.4l-.4,13s-11.4,5.9-19.6,12.7A137.9,137.9,0,0,0,115.4,451l-9.6,5.4-5.6-.3-3.5,2.4L88.6,460l-9.9-3.6-10,6.9a51.3,51.3,0,0,0-9.5-6.5,22.9,22.9,0,0,0-9.7-2.4,37.2,37.2,0,0,0-3.9,4.3,38.5,38.5,0,0,0-3,4.4,81.2,81.2,0,0,0-8.8-3.7,20.5,20.5,0,0,0-4.4-1,35.3,35.3,0,0,0-8.8,10.4,36.6,36.6,0,0,0-4.7,12.7l-8.7,2.6A71.4,71.4,0,0,0,.3,513.6a59.6,59.6,0,0,0,6.8,28.7s3.3-10.1,6.3-14.3a58.9,58.9,0,0,1,6.7-7.6,31.2,31.2,0,0,0,1.6,13.9c2.6,6.8,3.8,8.6,3.8,8.6s3.6-8.2,5.4-11.3l3.3-5.6,7.9,3.6c3.9,1.7,4.2,2.2,4.2,2.2s2.8,6.8,5,9.6a22.1,22.1,0,0,0,2.3,2.7s2.6-7.3,3.7-8.8l1.1-1.5,12,2.1L81,537.7l7.1,8.1,3.7-6.3,49.9-1.1s23.1-18.4,32.6-22.2,15.9-5.8,15.9-5.8a87.8,87.8,0,0,1,33.4-32.3c22.7-12.2,34.9-18.1,38.5-23.9s25.2-50.8,25.2-50.8,8.6-4.8,29.4-5.4,26.8-2.9,26.8-2.9l20.3-14.8s-5.3,9.3-7.1,14.6-2.4,6.2-2.4,6.2-10.6,5.6-14.8,10.5-10.1,11-10.1,11l-18.8-2.2A21.4,21.4,0,0,0,302,433c-2.2,8.7-1.6,20.4-1.6,20.4s17.6-.4,30.2.3,25.7,2.4,25.7,2.4,6.4-13.6,14.4-18.1l14.1-7.7s1.4-23.9,12.8-37.6A278.6,278.6,0,0,1,421,368l-7.5-10.3,27.8-4.1s7.6,6.8,15.6,13.4a82.2,82.2,0,0,0,17.6,10.6,130.7,130.7,0,0,0,30.5,0,112,112,0,0,0,26-6.4,90.3,90.3,0,0,1,11.5,14.2,76.5,76.5,0,0,1,8.3,15.7l-4.4,19.7-11.3.6-11.9-1s-9.3,6.6-11.7,20.7-1,22-1,22,7.9,4.3,26.5,7a196.7,196.7,0,0,0,37.4,1.2s16.7-10.6,16.9-12,.1-9.3,2.2-14.2l3.6-8.5s-3.5-12.8-3.4-20.5a191.9,191.9,0,0,1,1.7-19.3s-11.1-12.8-17.3-33.7-7.2-30.4-7.2-30.4l-14.2-18s-16.7.9-23.6-3a65.1,65.1,0,0,1-10.2-6.6,81.1,81.1,0,0,1-5.5-20.8c-1.8-12.7-3.2-22.2-3.2-22.2s-12.5-23.4-33.8-40.1c17.4-40.1-2.4-61.9-44-85.1-17.3-9.4-29.9-22.7-36.4-38.3s-6.8-32.3-.6-50.6a47.9,47.9,0,0,1,13.4-20.6,33.8,33.8,0,0,1,13.8-7.6,24.8,24.8,0,0,1,14.2.5c4.9,1.6,9.7,4.9,14.3,10.1a9.4,9.4,0,0,0,13.3.8h0a9.4,9.4,0,0,0,.8-13.3h0C462.3,10.1,454.7,5,446.8,2.4a43.4,43.4,0,0,0-24.9-.9,52.6,52.6,0,0,0-21.6,11.6,66.8,66.8,0,0,0-18.8,28.7c-7.7,22.9-6.9,44.7,1,63.9s23.7,36.2,44.9,47.7c31.3,18.9,47.3,31.4,36.9,58.6l-5.2-2.2c-34.2-13-73.7,2.4-87.1,11.1s-29.8,23.9-29.8,23.9-10,4.1-27.5-.2-25.1-10.9-25.1-10.9a34.8,34.8,0,0,0-15.3-17c-11.4-6.2-12.5-6.2-12.5-6.2l-21-15.5,1.1-10.7,14.5-24.2a45.3,45.3,0,0,0,5.3-3.1l1.8-1.5.7,1.4,3-1.4.6,1.7,2.3-.8.4,1.5H272a19.1,19.1,0,0,1-2.6,4,37.6,37.6,0,0,1-3,3.1s6,2,12.6-3.1a28.5,28.5,0,0,0,8.6-11.8l4-2.4a56.9,56.9,0,0,0,7.1-9.8,25.3,25.3,0,0,0,3.9-12.9l2.2-8.6s-8.6-5.8-23.9-10a177.7,177.7,0,0,0-24.8-5.4l-4.8-6a104.2,104.2,0,0,0-17.7-2.3c-10.2-.5-14.3-.3-14.3-.3a56.5,56.5,0,0,0-12.3-5c-6.4-1.6-6.6-1.3-6.6-1.3a27.7,27.7,0,0,0-9.8,2.2,42.4,42.4,0,0,0-5.9,2.8l-14.8,1.1a102.1,102.1,0,0,0-32.7,19.9" transform="translate(-0.3 -0.1)" style="fill:#050000"/><path d="M180.5,127.4a15.7,15.7,0,0,0,4.4,3.4,16.5,16.5,0,0,0,4.6,1.7,118,118,0,0,0,11.5-6.9l6.9-4.6-18.5,7.9s-3.2.4-8.9-1.6m49.8,1.7,12.4-11.3a20.9,20.9,0,0,1,7.3-.9l6.8.2a44.3,44.3,0,0,0-9.4-2.2,21.3,21.3,0,0,0-6.9.6,74.8,74.8,0,0,0-10.2,13.7Zm-.8-29.9,7.6,5.8,5.2-2.8,5.8-.6-2-1.7s-12.9-1.6-12.6-1.3l4.6,3.6Zm-8.7,9-5.8,2.1c-4.8-4.1-8.6-8.8-19.6-9.6-3.8,1.8-8.7,7-13.7,12.5-3.5-.7-6.3-2.4-7-6.9,5.2-7.5,16.2-13.5,24.7-16,11.9,1,27.6,12.1,29.8,15.4l-2.6.3c-6.3-5.5-16-10.4-19.6-9.4,7.5,2.9,10.7,7.3,13.8,11.7Zm76.4,22-3.4,1.7a58.1,58.1,0,0,1-3,7.1,21,21,0,0,1-2,2.8l.4,3.2A34.4,34.4,0,0,0,297.2,130.1ZM243.6,105c-1.8-.2-16.7,6.8-21.6,10a61.1,61.1,0,0,1,6.8-5.9c-13.9,3.7-26.9,8.6-38.4,15.2a22.7,22.7,0,0,1,10.1-8.2c-4,1.2-10,1.5-13.2.6a12.4,12.4,0,0,0,2.3,5.4l-4.2-1.5A136,136,0,0,0,165,134.5a17.9,17.9,0,0,0,5.4,9.5,117.5,117.5,0,0,0,12.1-1.2l13.1-7.7c-4.9,6.6-7.6,11.1-11.1,16.5l.5,5c8.9-12.9,17.4-26.1,31.4-36.3A149.9,149.9,0,0,0,199,148.4c9-12.7,24.3-30.3,35.4-37.5,7.9-2.6,15.2-.6,22.8,1.2-8.3,0-16.4.3-22.4,4.2-11.6,10.8-19.8,22.8-27.2,35.1,4.3-4.3,9.9-8.4,16.3-12.7-13.4,21-23.6,42.1-29.5,63.8a24.3,24.3,0,0,1,4.4-5c1.7,27.4,6.7,44.3,14.8,51.3a33.1,33.1,0,0,1-23.2-4.1c4.8-.7,6.9-4.6,6.6-11.1-3.2,2.4-6.9,2.5-11,.8,3.8-.5,6.5-3.4,4.8-8.9-3.1-10.4-9.5-20.5-15.2-30.9-4.2-2.7-7.9-3.4-11.7-4.2,8.3,6.1,9.7,6.9,12.7,17.4-6.8-3.8-14.4-5.2-22.2-6.1l-12.6-13c-3.6-13.9-4.4-28.9-2.7-45.1l-2.2-1.3a18.7,18.7,0,0,1-7.9,4.5c-4.1.3-8-.2-11.3-2.6a14.4,14.4,0,0,0,8.9-2.9c-3.6.4-7.3.8-11.1-.3a29.2,29.2,0,0,1-9.4-14.6,12.9,12.9,0,0,0,10.7,4.4,40.7,40.7,0,0,1,15.8-5.9c5.4,1.6,9.2,4.6,13,7.4,4.2-10.1,9.4-19.7,20-25.8a23.3,23.3,0,0,0-4.8,9,51.9,51.9,0,0,1,8-7,4.5,4.5,0,0,1-.5-2.8,49.7,49.7,0,0,1,8-7.8c-12.7,3.3-18.3,10.3-26,17.3a38,38,0,0,1,7.8-10,98.9,98.9,0,0,0-15,9.9,14.5,14.5,0,0,1,3.1,6.5c-3-3-8.4-6.4-14.8-4.7-11.6,3-19.9,4.4-29,0-1.1,9.1,6.6,28.4,12.6,32.2,1.4,1.6,17.3-.2,16.8-1.4,2.4,14.6,3.7,28.6,4.6,42.3a70,70,0,0,0,16.1,18.4c11.3,1.3,21.5,3.9,29.5,10.3,5.7,4.6,6.1,10,2.9,11.9s-5.1.6-7.7,1.4a25.2,25.2,0,0,0,14.3,5.8c-.3,3.4-3.7,5.5-8.5,7,5.6,2.8,11.2,5.8,17.2,6.9,7.8,1.4,15.3.4,22.5-1.4-6.2-2.5-12.6-7.9-17.9-26.2a93.2,93.2,0,0,1-2.7-39.3c9.1-22.5,25-46.1,41.9-63.4,4.6-2.1,9-1.6,13.3.1-3.9-.1-7.8-.1-10.3,1.3l-3.7,3.9c1.3,3.8,4,5.9,6.6,8.1a145,145,0,0,1,36.2,6,22.9,22.9,0,0,0,5.7-10c-5.9-4.9-15.3-8.5-25.5-11.9a18.1,18.1,0,0,1,6.2-8.1C272.6,110.9,256.4,102.9,243.6,105Z" transform="translate(-0.3 -0.1)" style="fill:#ff7900"/><path d="M270.7,117l5.6-6a119.2,119.2,0,0,1,13.6,4.5,43.8,43.8,0,0,1,7,3.5,15.4,15.4,0,0,1-.5,4.6l-.6,1.8a15.5,15.5,0,0,0-1-4.2l-.8-1.8s.4.6-.1,3.9a32.7,32.7,0,0,1-.6,3.5l-4.5-2.7s2.4-5.9-5.6-7.5-7.8,1.8-7.8,1.8a27.6,27.6,0,0,1-4.7-1.6" transform="translate(-0.3 -0.1)" style="fill:#ff7900"/><path d="M196.4,113.7c.3-.3,2.6-6.5,7.7-7s7.9,4.6,7.9,4.6l-5.4,2.3a46.9,46.9,0,0,0-10.2.1" transform="translate(-0.3 -0.1)" style="fill:#ff7900"/><path d="M119.6,154.9l4.7-.3c-5.2,46.8,1.6,87.3,18.6,122.3a195.6,195.6,0,0,1-2.8-54l3.8,4.5c10.2,55.1,24.2,74.9,38.6,92.6a165.4,165.4,0,0,1-29-22c-11.8-4.3-23.9-7.8-32.4-18.5a35.8,35.8,0,0,0,13.5,15.8l12.6,24.1c-30.9-18.5-37.8-50.7-36.2-87.8,3.9,19.8,10.5,38.1,23,53.1-26.8-44.3-20.5-87.1-14.3-129.9" transform="translate(-0.3 -0.1)" style="fill:#ff7900"/><path d="M105.4,249.3a192.2,192.2,0,0,0,3.7,24.3c-3.6,18.4-2.7,18-3.1,22.7a85.3,85.3,0,0,0,11,26.1c10.4,5.1,19.2,9.6,26.8,13.7l6.9,11.1-10.6-7.3c-9.7-4.7-17.8-7-27.5-11.7-5.6-6.7-11.3-19.3-14.6-31.8,0,0-.4-26.4,7.5-47.2" transform="translate(-0.3 -0.1)" style="fill:#ff7900"/><path d="M253,139.1l2.2-.2s9.2,7.4,16.5,9a20.3,20.3,0,0,0,12.9-1.3s-1.1,6.6-4.9,10.8a15.9,15.9,0,0,1-8.1,4.9,14.9,14.9,0,0,0,2.2-3.5,20.5,20.5,0,0,0,.9-2.6,5.8,5.8,0,0,0,1.9-1.9l1-1.5-4.4,2.4-.6-2.1-2.7.9-.8-1.8-2.9,1-1.7-2.1a27.7,27.7,0,0,1-6.3,5.2,26.3,26.3,0,0,1-8.1,2.6s8.2-7,3-20" transform="translate(-0.3 -0.1)" style="fill:#ff7900"/><path d="M262.1,139.4a58.9,58.9,0,0,1,13.3,1.4c7.6,1.7,8.6,2.9,8.6,2.9s-9.2,5.7-22-4.3" transform="translate(-0.3 -0.1)" style="fill:#ff7900"/><path d="M217.3,232.6a12.8,12.8,0,0,0,8.1,8.5c6.8,2.4,18.2-.1,18.2-.1a28.5,28.5,0,0,0,6.1-7.7,17.3,17.3,0,0,0,2.2-7.9s-2.3,4.6-4.9,6.8a27.9,27.9,0,0,1-5.1,3.5v-1.3l-3.3,1.9-.3-1.8-2.6,1.6-.7-1.7-2.8,1.6-.5-1.9-2.5.6a20,20,0,0,0,2.8-6.2,17.6,17.6,0,0,0-.2-7.4,19,19,0,0,1-14.5,11.5" transform="translate(-0.3 -0.1)" style="fill:#ff7900"/><path d="M214.1,228.7s6.3,1.1,10.5-3,5.2-7.1,5.2-7.1-6-9.3-5.2-18.4,1.4-9.9,1-12.5-9.4-9.7-9.4-9.7a16.9,16.9,0,0,1,2.3,7.7c.1,4.2-.7,8.9-.5,15.1a34.7,34.7,0,0,0,1.6,10s-2.6-3.2-3.6-10.3.2-12.2-.3-16.5-4.9-9.4-4.9-9.4-2.6,5.1-4.1,8.4a39.1,39.1,0,0,0-1.9,4.6s-2.3,19.4,9.3,41.1" transform="translate(-0.3 -0.1)" style="fill:#ff7900"/><path d="M251.2,161.8l-3.3.7L235,184.1s-1.4,14.4-.6,23.1a74.3,74.3,0,0,0,2.5,14.1s-.7-13.2-.4-21.6a124,124,0,0,1,1.8-16.5Z" transform="translate(-0.3 -0.1)" style="fill:#ff7900"/><path d="M240.3,376.1l-1,12.1a62.5,62.5,0,0,1-5,15.9,49.3,49.3,0,0,1-9.4,14.3s-1-7.4-1.6-10l-.5-2.5s8.5-10.9,9.7-13.2l1.2-2.3.3-5.8ZM127.4,448.2c9.8-5.6,21.1-9.7,33-13.1-13.9,9.1-29.8,17.4-46.3,25.6,3.7,1.7,6.9,3.4,9.7,5l25.5-5.3-14.2,11.5,2.7,4a93,93,0,0,0,29.4-5.4c-7.1,5.6-15.5,9.1-24.1,12.1l3.6,4a121.9,121.9,0,0,0,31.7-11.4c-7.4,9.9-17.5,17.1-29,22.7-9.7-13.5-21.7-24.7-38.3-31.3-7.8,4.5-10.2,11.3-11.8,18.5a64.6,64.6,0,0,1,15.5,1.3,37,37,0,0,0-2.3-11.4c15.1,9.6,6.1,39.1.7,46.7H122c10-7.8,12.2-19,11.8-31.4,9.1,12.4,8.5,22.4,2.6,31.1l6.6.4c7.2-4.5,13-9.7,16.9-16a13.8,13.8,0,0,1-7.9-2.6s15.2-3.8,17.6-4.9c4,.2,48.2-34.1,46.1-35.8-9.9,0-19.8,3.4-29.8,8.5,11.2-12.4,29.2-19.5,53.5-21.4a39.5,39.5,0,0,0,9-7.3c2-10.4,1.6-22.5-.1-35.5,8.6-13.6,16.4-28,18.4-47.3,5.4,10.2,4.8,18,3.6,25.5,1.6-4.4,3.2-8.8,3.2-13.7l-2.3-31.1,8.9-16.5-2.5-15c-2.5,8-6.8,14.8-11.8,21,0,4.3-.3,8.7-.7,13a180.2,180.2,0,0,1-12.5,27.2c4.3-20.1,5-42.1.7-66.6a49.2,49.2,0,0,1,6.5,13.3c5.1-3.6,8.7-10,11.4-17.9q.4-10.1.1-20.2a117.4,117.4,0,0,0-10.2-23.8l12.3,10.4a87.3,87.3,0,0,1,14.1,5.5,30.9,30.9,0,0,1,4.7,18.7,25.2,25.2,0,0,0-9.2-10.1l.8,7.9c5.2,8.3,6.9,16,8.8,23.7a136.3,136.3,0,0,0,7.2-32.9c-5.3-14.5-10.7-29-19-43.8a122.7,122.7,0,0,0-9.5-8.2,142.1,142.1,0,0,1,7.5,26.7c-8.2-16.9-22.3-33.5-39.4-49.8-.1,11.6.8,21.6,3.1,29.7,4.1-2.1,7.8-6.3,10.5-11.4,1.5,11.7-2.6,18.1-7.8,22.2l-11,7c-5,7.8-7.1,15.8-9.9,23.7,9.8-4.9,19.3-4.7,28.6-2.4a78,78,0,0,0-22.7,11.3c-9,21.4-7.5,23.3-1.7,45a47.2,47.2,0,0,1-14.9-16.5c-3,7,1.7,15,4.3,21.9a86.6,86.6,0,0,1,13.7,7c4.8,9.2,7.6,18.2,8.3,26.9-2.4-3.6-4.1-7.2-9.3-10.9-6.9-1.7-12.1-2-16-1.3-23.1,24.7-27.7,34.3-33,54.4,14.9-.2,15-2.1,39,10.5-29.5-6.1-69.8.5-93.3,28.3Z" transform="translate(-0.3 -0.1)" style="fill:#ff7900"/><path d="M434.2,219.3c6.3,2,11.9,4.4,16.1,7.6,1.9,8.4,1.3,15.8.7,23.3,0,0-5-20-16.8-30.9M397,268.4a103.6,103.6,0,0,1,22.2,2.9,83.3,83.3,0,0,1,19.4,7.6s-5.8-9.1-9.7-12.4a36.9,36.9,0,0,0-6.9-4.8S403.2,264.2,397,268.4Zm-98.9-15.6c4.9,9.3,8,18.4,10.8,27.6a67.4,67.4,0,0,0,1.5-16c9.1,17.4,5.6,40,5.8,61a181.7,181.7,0,0,0,6.4-27.5,130.4,130.4,0,0,0-2.7-28.3,66.3,66.3,0,0,1,8.7,19.3c2.2,17.6,2,33.8,1.7,50.1,2.6-6.8,5.5-13.3,7.3-21a206.2,206.2,0,0,0-6.7-38.5c6,9.8,10.6,19.4,13.2,28.7l6.5,22.5a52.5,52.5,0,0,1,13.3-14c6.3-1.1,14.3-1.3,23-1.2A59.1,59.1,0,0,0,370.8,302a104,104,0,0,0-16.9-3.7c5.2-2,18.9-3.7,25.9-2.5,13.7,5.4,25.4,13.5,36.1,23-4.6-6.1-9.3-12.1-16.9-18.3,8.2,2.2,15.4,7,22.2,12.5,8.7,12.8,17.6,25.1,27.2,35.8-4.4-7.4-8.9-14.9-11.8-24.6a222.8,222.8,0,0,1-1.3-33.4c2.1,10,4.4,19.8,7.4,27.8S453,330.4,458.8,335l-2.2-10.4,1.7-34.2,6.7,30.9A141.5,141.5,0,0,0,475,337l6.4-18.9a215.8,215.8,0,0,1-.8-33.4,112.9,112.9,0,0,1-8.5-19.3l-9.9,14.2c2.9-19.6,5.7-25.9,3.5-45.5-2.8-9.6-9.2-15.2-17.3-18.1-12.9-4.8-30-2.7-42.4.3a109.6,109.6,0,0,0-47.3,26l29.9-4.7C362.6,259.1,339.8,261.2,298.1,252.8Z" transform="translate(-0.3 -0.1)" style="fill:#ff7900"/><path d="M574.1,387.9a111.3,111.3,0,0,0,6.4,9.5,21.6,21.6,0,0,0,2.6,2.9,77,77,0,0,1-1,10.1c-.7,3.4-1.3,7.7-1.3,7.7l-2.4-4s-3.7-18.4-4.3-26.2M468.3,226.8a39.8,39.8,0,0,1,3.7,9.8c1.1,1.1,2.9,3.2,5.2,6.1a53.8,53.8,0,0,1,5.6,8.3,98.2,98.2,0,0,0-8.2-6.9l-1.3-.9a31.6,31.6,0,0,1,.8,7,137.9,137.9,0,0,1,8.1,13.8c3.1,6.4,5.6,12.6,5.6,12.6s.2,19.3,3,29.2,5.3,16.5,5.3,16.5-.1,12.3-1.9,18.7-2.5,8.4-2.5,8.4a49.4,49.4,0,0,0,8.7-15.8,63.9,63.9,0,0,0,3.2-17.5s-5.3-10.9-6.9-19.2-2.4-23.5-2.4-23.5l-4.9-12.9,10.5,12a150.4,150.4,0,0,0,7.7,29c5.9,15.9,14.2,23.4,14.2,23.4s3.1,2.5,13.5,4,14-.2,18.2,4.8,12.8,36.9,12.8,36.9l.4,16.5s-3.1-11.4-6.1-16.2S548.8,355,548.8,355s9.5,22.9,13,36.9,3,23.4,3,23.4l3.6-8.1.8-10.8s3.4,11.9,3.3,19.6a59.2,59.2,0,0,1-1.9,13.9,14,14,0,0,1,5.9,6.6c1.7,4.5,1.3,7.3,1.3,7.3s-2.2-4.5-5.9-6.6-9.8-2.5-9.8-2.5-2.1,2.8-4,12.3a105.6,105.6,0,0,0-2.1,15.3,42.1,42.1,0,0,0,12.4.7c5.7-.8,14.9-9.3,14.9-9.3s1.2-7.2,2.7-10.9,2-4.7,2-4.7-2.9-11.1-2.7-19.4a194.2,194.2,0,0,1,2.2-20.2,98.8,98.8,0,0,1-18.7-36c-6.2-22.1-6.5-28.8-6.5-28.8l-8.9-11.1s-9.2,1-16.3-1.2a70.7,70.7,0,0,1-11.7-4.9,16.6,16.6,0,0,0,4.3,4.7l2.4,1.5a22.2,22.2,0,0,1-12.5-6.1c-5.7-5.5-10.1-18.2-12.2-32.9l-2-14.8S493.5,248,468.3,226.8Z" transform="translate(-0.3 -0.1)" style="fill:#ff7900"/><path d="M42.7,476.9a58,58,0,0,1,7.4-15.8c5.9,1.9,10.3,4.9,14.5,8a38.8,38.8,0,0,0-4.7,12.7l-3.6,4.6c-.9-6.4-1.9-12.8-4.4-19.6a40.5,40.5,0,0,1-.9,10H42.7m54.1-.3-2.9,10.6a78.1,78.1,0,0,1-8.1,11.4c.2-9.1.8-18.1-6.2-28.7,0,3.9.3,8-1.5,11.4l-14.3.8c2.5-7.4,6.2-14.1,13.6-18.7.2.1,9.4,1.7,19.4,13.3Zm-56.3-8.1a25.3,25.3,0,0,0-3.8,9.5l-3.9,3.6a21.5,21.5,0,0,0-3.1-10.6,28.3,28.3,0,0,1-1.2,8.5l-8.1,1.8c2.7-6.4,5.8-12.6,10.8-17.3a24.2,24.2,0,0,1,9.3,4.6Z" transform="translate(-0.3 -0.1)" style="fill:#ff7900"/><path d="M79.9,486a60,60,0,0,1,.1,24.2,57.7,57.7,0,0,0-15.6,2.1A85.8,85.8,0,0,0,53.9,530c-.6-14.3,1.2-28.2,10-41.3,5-1.1,10.4-1.9,16-2.6m-28-4.4a189.3,189.3,0,0,1-1.1,26.8c-5.4,1.4-10.6,2.9-15.4,4.5L26,529c-.5-15.6,1.6-30.7,10.7-44.1a72.2,72.2,0,0,1,15.2-3.3Zm-25,4c-4.6,8.4-6.5,17.2-7.3,26.1C10.5,516.7,8.5,524,6.2,531.2c-1.3-13.4-2.5-26.8,6.2-41.1Zm88.1,4.9c.3,9.1-1.8,17.2-4.8,25a34.6,34.6,0,0,0-11.6-1.5c-5.8,5.2-8.3,11.1-10.1,17.2-.3-11.6,2.5-33,9.9-39.7Z" transform="translate(-0.3 -0.1)" style="fill:#ff7900"/><path d="M542.1,432.7c-4.1,9.6-5.1,19.3-6,29l-9.6-.9c.8-10.1,2.3-20.2,7.8-30.1l7.8,2m14.9,1.7a19.6,19.6,0,0,0-9.1-2c-5.8,10.1-5.9,20.3-7.2,30.5a55.3,55.3,0,0,0,10.2.4S552.5,446.2,557,434.4Zm-28.3-3.7a48.2,48.2,0,0,0-5-2c-5.4,10-6.6,19.9-7.3,29.8l6.3,1.1s.5-18,6.1-28.9Z" transform="translate(-0.3 -0.1)" style="fill:#ff7900"/><path d="M433.5,4.6s-28.7,1.6-40.7,24.2-10.1,50-10.1,50,4.9-64.7,50.8-74.2m4.4,138.8s32.2,15.2,41.3,35.9c4.6,10.5,3.2,21.9.7,30.6l-4.1-3.1c4.6-17.9-1.3-41.4-37.9-63.4Z" transform="translate(-0.3 -0.1)" style="fill:#ff7900"/><path d="M194.5,123.4s10.2-5.1,16.5-7.6a86,86,0,0,1,11.3-3.7l-5.7,5s-12.9,2.5-22.1,6.3M230.6,112l-10.5,5.8a57.4,57.4,0,0,0-5.5,7.5c-2.7,4.4-2.7,4.5-2.7,4.5S223.4,117,230.6,112Zm7.5-3.4a41.8,41.8,0,0,1,12.5.2,135.2,135.2,0,0,1,15.3,4.7l3.7-2.2a66.1,66.1,0,0,0-16-4.7c-7.9-1-9.9-.5-9.9-.5l-5.6,2.4Zm8.2,5s6.8-1,10.5-.4a73,73,0,0,1,9,2.5l-1.8,2.6s-5.1-3.4-17.8-4.8Zm3,4.3s8.5.1,12.3,1.4l3.8,1.3-5,.8s-3-1.9-11.1-3.6Zm9.7,5.6a37.8,37.8,0,0,0-7.6-.2l-2.9.4-2.6,3.7a37.5,37.5,0,0,0,2.9,3.8,6.3,6.3,0,0,0,1.9,1.6l6.4.7,6.8.5s-5.3-1.9-8.1-4.1a21.3,21.3,0,0,1-3.4-2.9s.1-3.5,6.6-3.6Zm-22.8-6a69.1,69.1,0,0,0-5,8c-2.5,4.7-3.5,7.1-3.5,7.1s6.7-6.2,9.8-8.9a34.2,34.2,0,0,1,4.1-3.2s-7.8,8.4-12.3,14.6-8.8,12.5-8.8,12.5l6.4-13L215.6,142s11.5-16.3,20.5-24.6Zm-130.6,2.7a33.1,33.1,0,0,0,12.8,1.6c6.5-.5,10.4-3.2,16.5-3s9.3,3.3,9.3,3.3l-.3,6a28.3,28.3,0,0,0-6.2-4,30.4,30.4,0,0,0-5.4-1.7s-5.6,1.2-8.9,2.2a25.7,25.7,0,0,0-4.1,1.6S110.5,125.6,105.6,120.2ZM250,238.2a22,22,0,0,1-4.7,5.1l-1.2.8,4.9,21.4a28,28,0,0,1,5,1.1c3.9,1.1,10.8,5.7,10.8,5.7s-1.8-6.8-7.7-19.7C255.2,248.4,252.6,243.3,250,238.2Zm-9.8-18.4a78.7,78.7,0,0,0,2.4,12.7,18.5,18.5,0,0,0,3.3-2.2Zm13.1,2.8a127.1,127.1,0,0,1,8,10.2c10.7,14.8,20.2,27.7,20.2,27.7s-.1-11.6-2-17.7l-1.9-6,3.2,2.1s6.4,11.4,9.5,21.7l4.9,15.9-.9,8a46.2,46.2,0,0,0-2.7-10c-2-5.1-3.7-6.7-3.7-6.7l-13.3-5.2-11.2-10.7s-4.7-10.4-10.4-21.6a30.4,30.4,0,0,0,.2-7.7Zm-9.2-8.9s3.1,2.1,8.6,8.2a35.4,35.4,0,0,1-2.2,3.4c-2.2-4.1-4.4-8.1-6.5-11.6Zm-9.9,76.4a36.2,36.2,0,0,1,10.3,6.9c4.6,4.5,5.8,6.6,5.8,6.6s2,15.8,2.3,27a92.5,92.5,0,0,1-2.6,22.2S246.1,312.5,234.2,290.1Zm-15.9,69.2s5.5-.8,8.5.1l3,.9s2.4,2.8,4.7,5.8a18.1,18.1,0,0,1,2.9,6.4l-7.2,10.3v3.8a89.1,89.1,0,0,1-6.5,10c-2.9,3.7-4.2,4.4-4.2,4.4l-.9-5.5S232.1,375.3,218.3,359.3Zm41.2-84.2,6.1,4.5,1.2,13.6a54.7,54.7,0,0,1-1.8,8,28.1,28.1,0,0,1-3.5,7.3,26.9,26.9,0,0,0-3.6-6.4,30.9,30.9,0,0,0-3.6-3.8S262.7,287.6,259.5,275.1Zm3.1,81.4s-4.1,10.4-8.9,17.6-6.1,8.6-6.1,8.6,1.4-9.5,2.1-15.5l.7-6-6.8,14.7-1.5,3.6s1.1,3.8-.9,12.6-8.3,19.1-8.3,19.1S260.5,396.1,262.6,356.5Zm-17.8,56s.9,10.7.8,17.8-1.1,9.7-1.1,9.7a46.1,46.1,0,0,0-6.4-6.8,38,38,0,0,0-8.5-4.8v-.2l-7.9,8.1s-18-2.1-64.3,10.5c0,0,20.5-11.8,38.9-15.9a227.2,227.2,0,0,1,34.1-4.8l1.1-2.9A67.8,67.8,0,0,0,244.8,412.5Zm-132-164.1a140.5,140.5,0,0,0,7.1,18.6c4,8.1,7.7,14.4,7.7,14.4l-8.6-7a52.8,52.8,0,0,0,2.1,9.7l1.6,5.2s-8-8.9-10-40.9Zm4.9-39.8a127.8,127.8,0,0,0,6.8,37c6.8,19.6,24,46.5,24,46.5l-11.2-4.8s-22.1-32.5-19.7-78.7ZM146,469.7l25.3-5.5c14.3-3.2,15.2-2.5,16.5-3.4a99,99,0,0,1,23.5-10.7c12.1-3.5,17.1-4,17.1-4a186.1,186.1,0,0,0-18.7-.4c-8.2.4-10.4,1.1-10.4,1.1s-19.3,8.5-53.4,23ZM329,261.4s15.7.4,35.9-6.2,29.3-18.6,29.3-18.6a49.9,49.9,0,0,1-23.7,24.3c-17.5,8.4-26.4,8.8-26.4,8.8Zm142.6,15.8,4.1,8.3s.1,15.3.4,21.2l.4,7.9-2.4,11.5-4.3-11.8S468.5,299.2,471.6,277.2Zm-19-14.2c-1,4.6-3.1,14-5.4,20.9a133.7,133.7,0,0,0-4.5,17.5s.9,7.7,3.9,13.3a44.4,44.4,0,0,0,6.6,9.3v-.6l.2.3-.2-1c.1-3.9,1.4-15.4,1.7-25.4s4.3-26.5,5.3-42.1c.9-13.6-.3-26.3-8-32.2a77.9,77.9,0,0,1,2.5,20c0,6.7-.3,11.8-.6,14.7l-7.8-9.3s-.9-5.7-6.6-15-15.9-14.3-15.9-14.3c-17.6-.2-27.8,4-38,8.9C412.9,226.6,436.6,240,452.6,263Zm-19.7,16.4s-.9,18.5-.3,29.4,1,13.2,1,13.2-3.3-5.9-5-9.4l-1.8-3.5A199.3,199.3,0,0,1,432.9,279.4Zm45.3-27.6a74.8,74.8,0,0,1,7,13.5c3.1,7.8,4.2,11,4.2,11s.6,9.4,1.9,17.8a38.5,38.5,0,0,0,5.9,15,94.3,94.3,0,0,1-4.4-21.8c-.9-12-.8-13.6-.8-13.6l-4.7-13.8A46.7,46.7,0,0,0,478.2,251.8Zm1.1-11.4a65.3,65.3,0,0,1,6.4,9.4c2.5,4.7,2.8,6.9,2.8,6.9s6.7,6.7,9.9,10.3,3.6,5,3.6,5,3.1,16.3,5,21.3,1.9,5.2,1.9,5.2-3-13.8-3.6-20.3l-.7-6.7s-16.6-24.3-25.3-31.2Zm98,177.5,4.4,5.9A69.3,69.3,0,0,1,583,415l.9-3.4a90.3,90.3,0,0,0,.2,11.2,135.1,135.1,0,0,0,2,13.6,79.9,79.9,0,0,0-3.4,8.6l-1.5,4.6-1.6,2.7a95.9,95.9,0,0,0-5.5-9.8,29.4,29.4,0,0,0-3-3.9,8.3,8.3,0,0,1,4.5,3.3,56.2,56.2,0,0,1,3,5.2,17,17,0,0,0,1.1-7c-.3-3.5-3.1-10.7-3.1-10.7s.6-2.6.6-11.5ZM420.7,251.8s7.8,6.1,12,11.6a80.5,80.5,0,0,1,7.7,12.8l.2-8.8S435.1,258.9,420.7,251.8Zm-244-145.7a45.2,45.2,0,0,1,9.1-8.3c5-3.2,13.8-5.8,13.8-5.8a17.3,17.3,0,0,1,6.3.8,17.1,17.1,0,0,1,5.1,2.4,21.4,21.4,0,0,0-4.5.1c-2.8.3-3.3.8-3.3.8s3.1.3,8,4.3,5.4,6,5.4,6a31.6,31.6,0,0,0-11.9-6.9c-7.4-2.4-9-2.2-9-2.2a46.9,46.9,0,0,0-19,8.9Z" transform="translate(-0.3 -0.1)" style="fill:#ff7900"/><path d="M206.4,108.3a1.9,1.9,0,0,1,1.8,2h0a1.9,1.9,0,0,1-2,1.8h0a1.9,1.9,0,0,1-1.8-2h0a1.9,1.9,0,0,1,2-1.8h0" transform="translate(-0.3 -0.1)" style="fill:#050000"/></svg>