<svg id="Layer_1" data-name="Layer 1" xmlns="http://www.w3.org/2000/svg" viewBox="0 0 550.7 520.6"><title>Paw1_o_1c</title><path d="M189,111.7a101.4,101.4,0,0,0-11.2-21.1,108.1,108.1,0,0,0-17.8-19.8L138.2,51.2q-11.7-10.7-22.5-22.3Q102.1,14,89.2-1.5,74.8-18.8,60.5-36.3A77.4,77.4,0,0,0,6.3-64.7C-18-66.6-41.7-56.9-56.3-37.6q-18.2,24-38,46.9-34.7,40.1-70.6,79.4a110.3,110.3,0,0,0-24.3,41.4c-5.5,17.2-6.6,34.7-5,52.4a117.9,117.9,0,0,0,2.3,15.1,97.5,97.5,0,0,0,5,16.1,80.5,80.5,0,0,0,7.9,14.7,71.1,71.1,0,0,0,12.2,13.7,71.7,71.7,0,0,0,32.3,16,93.1,93.1,0,0,0,18.1,2.1,117.9,117.9,0,0,0,19.3-1.2A205.2,205.2,0,0,0-55,248.2q10.6-3.9,20.9-8.5c6.9-3,15.6-7,22.4-10.4a61.4,61.4,0,0,1,15.9-5.4,38.1,38.1,0,0,1,16.7.6l29.7,8.3,32.6,9.5a134.2,134.2,0,0,0,17.4,3.8,90.6,90.6,0,0,0,14.5,1.1,77,77,0,0,0,16.1-1.8,70,70,0,0,0,15.2-5.3,71.6,71.6,0,0,0,14.8-9.6,90.1,90.1,0,0,0,19.4-22.4,110.9,110.9,0,0,0,15.2-69.7A102.9,102.9,0,0,0,189,111.7ZM154.2,222.2c-20.8,17-44,16.6-68.1,9.7C65.3,226,44.6,219.6,23.7,214c-14-3.7-27-.8-40.3,5.6-26.2,12.7-52.8,24.6-82.1,28.7-48.5,6.9-80.3-18.1-84.7-66.8-2.9-32.1,3.9-61.1,26.5-85.6,24-26.1,47.5-52.8,70.8-79.6q20-23,38.4-47.4c23-30.4,72.6-31.8,99.9,1.5C70.3-7.3,88.4,15.1,107.8,36.2c14,15.3,29.8,28.9,45.2,42.7,10.8,9.7,19.7,20.5,26,36.7C193.7,151.5,183.5,198.3,154.2,222.2Z" transform="translate(275.3 260.3)" style="fill:#050000"/><path d="M-162.1,62.7c11-7.6,19.3-17.6,25.5-29.3,12.5-23.3,15.9-48.6,11.1-74.2a165.5,165.5,0,0,0-7.4-27l-1-2-4.8-8.9a102.1,102.1,0,0,0-6.6-10.6A78.9,78.9,0,0,0-167-110.1a64,64,0,0,0-33.5-10.1,60.8,60.8,0,0,0-33.6,9.7A75.1,75.1,0,0,0-259-83.9c-12.9,22.7-19.1,47.6-15.2,73.8a117.7,117.7,0,0,0,9.8,32.4,142.6,142.6,0,0,0,8.9,16.3,88.6,88.6,0,0,0,9.7,12.7,76.3,76.3,0,0,0,13.4,11.6,65.4,65.4,0,0,0,15.6,7.8A60.9,60.9,0,0,0-198,73.9a59.8,59.8,0,0,0,17.9-2.5A63.6,63.6,0,0,0-162.1,62.7Zm-84.2-29.9c-22.7-35.8-24.4-74.1-3.2-111.4,22.4-39.4,69-41.3,95.6-4.5,4.8,6.7,8.3,14.3,11,19,12,33.2,12.4,63.4-3.1,92.4C-169.8,72.5-219.4,75.3-246.3,32.9Z" transform="translate(275.3 260.3)" style="fill:#050000"/><path d="M-144.5-100a86.7,86.7,0,0,0,10.3,12.3,78.3,78.3,0,0,0,13.9,11.1,67.8,67.8,0,0,0,15.9,7.3,60.8,60.8,0,0,0,19,2.7A62.1,62.1,0,0,0-50-78.7c10.9-8,18.7-18.1,24.7-30a112.7,112.7,0,0,0,10-73.4,156,156,0,0,0-7.6-26.6c-.2-.5-1.3-2.5-1.5-3l-3.4-6.4q-2.5-4.6-5.4-9a78.6,78.6,0,0,0-21-21.8,63.5,63.5,0,0,0-33.3-11.4,61.4,61.4,0,0,0-34.1,8.6,74.1,74.1,0,0,0-17.1,14,83.4,83.4,0,0,0-7.2,9.2,93.4,93.4,0,0,0-6.5,11.2,117.6,117.6,0,0,0-11.6,51.6,124,124,0,0,0,4.3,32.4A107.2,107.2,0,0,0-144.5-100Zm5.9-120.1c24.3-38.7,71.1-39.3,96.3-1.1,3.9,5.9,7,12.4,9.3,16.5,12.3,32.4,12.6,62.2-1.9,91.2-22.5,45-71.9,48.5-100.7,7.4C-158-138.1-159.3-187.1-138.6-220.1Z" transform="translate(275.3 260.3)" style="fill:#050000"/><path d="M2.8-126A104.5,104.5,0,0,0,19.4-95.2a84.9,84.9,0,0,0,18,17.2,69.9,69.9,0,0,0,11.2,6.4,61.3,61.3,0,0,0,40.5,3.7,60.1,60.1,0,0,0,15-6.2,69.4,69.4,0,0,0,13.2-10A83.1,83.1,0,0,0,129-98.1c15.7-23.7,21.1-50.8,16.9-78.5a162.8,162.8,0,0,0-7.3-29.4,10.8,10.8,0,0,0-.7-1.6l-4.4-8.2q-2.6-4.8-5.5-9.5a80.4,80.4,0,0,0-20.7-22.3A63.9,63.9,0,0,0,74-259.7a60.3,60.3,0,0,0-17,1.3,63.1,63.1,0,0,0-17.6,6.7C18.9-239.9,5.5-218.5-.2-196a121.2,121.2,0,0,0-3.6,35.2A123.8,123.8,0,0,0,2.8-126Zm19.1-94.1c25.3-38.7,72-38.5,97,.7,3.7,5.7,6.7,11.9,9.6,17.1,11.9,34.8,11.7,67.7-8.4,98.3C97.4-69.7,57.7-67.6,30.6-98.5S-1.1-185,21.9-220.2Z" transform="translate(275.3 260.3)" style="fill:#050000"/><path d="M270.1-69.2a107.8,107.8,0,0,0-16.9-33.9,83,83,0,0,0-10.5-11.8,71.4,71.4,0,0,0-30.1-16.8,61.2,61.2,0,0,0-18.9-1.9,62.4,62.4,0,0,0-34.5,13c-10.6,8.2-18.1,18.4-23.6,30.4a117.7,117.7,0,0,0-8.9,72.6,153.9,153.9,0,0,0,7.5,26.3l.9,1.9,4.3,8.1a105,105,0,0,0,5.8,9.4,82.3,82.3,0,0,0,20.9,21,62.8,62.8,0,0,0,32.8,11.2,58.9,58.9,0,0,0,16.6-1.6,62.5,62.5,0,0,0,17.1-6.9c14.2-8.4,25.1-21.4,32.2-36.1a98.5,98.5,0,0,0,6.5-17.6,122,122,0,0,0,4.1-31.9A126.5,126.5,0,0,0,270.1-69.2ZM249.4,20.6c-25.4,37.8-69,38.4-95.2,1.1-4.4-6.3-7.7-13.3-9.9-17.1-12.4-32.6-12-61.8,1.1-90.5,20.4-44.6,69.7-50,99.2-10.9C269.2-64.1,271.3-12.1,249.4,20.6Z" transform="translate(275.3 260.3)" style="fill:#050000"/></svg>