<svg id="Layer_1" data-name="Layer 1" xmlns="http://www.w3.org/2000/svg" viewBox="0 0 652 533.6"><title>Paw2_o_2c</title><path d="M156.5,10.7q-.1,5.5,0,10.9a95.9,95.9,0,0,0,3.7,23.6,79.9,79.9,0,0,0,12.2,24.8c11.4,15.6,28.1,25.9,46.5,31.2a61.3,61.3,0,0,0,23.2,2.2,65.6,65.6,0,0,0,24.2-7.3,82.5,82.5,0,0,0,9.4-5.8,104.3,104.3,0,0,0,26-27.6,146.9,146.9,0,0,0,11.8-21.4,141.6,141.6,0,0,0,8.6-25.8c4.3-19,4.8-38,2.6-57.2a72.3,72.3,0,0,0-11.3-31.7,74.6,74.6,0,0,0-11.6-13.7,84.1,84.1,0,0,0-16-11.6,119.6,119.6,0,0,0-23.3-10.1,57.9,57.9,0,0,0-28.7-1.9,60.9,60.9,0,0,0-14.7,4.8,71.4,71.4,0,0,0-14.4,9.1,110,110,0,0,0-15.1,14.8,148.1,148.1,0,0,0-13.5,18.5,132.9,132.9,0,0,0-11.2,22.6,132,132,0,0,0-8.4,51.8Zm25.2-208.1a187.2,187.2,0,0,0-10.4-29.1,75.1,75.1,0,0,0-16.7-23.3,62.2,62.2,0,0,0-29.8-15.7,60.2,60.2,0,0,0-15.3-1.3,62.1,62.1,0,0,0-16.8,3.2A70.1,70.1,0,0,0,77-256.1a80.5,80.5,0,0,0-14.8,12.2,164,164,0,0,0-16.4,20.1,148.8,148.8,0,0,0-14,25.1,143,143,0,0,0-8.8,27.3A149.3,149.3,0,0,0,19.9-140a182.8,182.8,0,0,0,5,42.4,90.3,90.3,0,0,0,10.8,27A63.8,63.8,0,0,0,59.8-47.2a60.8,60.8,0,0,0,16.7,6.1,64.4,64.4,0,0,0,19.5,1,89.8,89.8,0,0,0,33.7-10.6,113.9,113.9,0,0,0,25.2-17.9C172.1-85,182.2-107,186.2-130a205.4,205.4,0,0,0,3.2-35.3,14.4,14.4,0,0,0-.5-3.9q-1.3-4.5-2.3-9.1-2.2-9.6-4.8-19ZM-63.5,257.5l4.7-.3a35.7,35.7,0,0,0,4.9-.6,28.3,28.3,0,0,0,5.2-1.5q9.4-3.8,18.9-7.1t21.4-6.3a191.8,191.8,0,0,1,21.8-4.1,151,151,0,0,1,24.5-1.1,125.8,125.8,0,0,1,31.5,5.3,14.4,14.4,0,0,0,6.1.5l22.5-2.8A233.4,233.4,0,0,0,125,235a89.5,89.5,0,0,0,25.1-9.9,70.4,70.4,0,0,0,23.2-21.7c12.4-18.5,14-41.6,8.6-62.6a197.3,197.3,0,0,0-11.8-34,212.4,212.4,0,0,0-13.1-24.3,246.2,246.2,0,0,0-17.8-24.8q-9.7-11.9-20.5-22.8c-8-8.1-16.3-15.7-24.9-23.1C56.6-20.1,4.7-39.1-44.1-26.5A123.3,123.3,0,0,0-91.4-2.4a151.2,151.2,0,0,0-22.5,23,159.1,159.1,0,0,1-11.2,12.7A174.3,174.3,0,0,1-139,45.9q-7.3,5.9-15.1,11.2t-17.7,10.8q-13,7.1-26.6,13.2a270.1,270.1,0,0,0-28.9,15,163.2,163.2,0,0,0-29.9,22.7,96.1,96.1,0,0,0-22.6,34.9,90.9,90.9,0,0,0-5.3,21.8,82.6,82.6,0,0,0,.9,24.7,72.9,72.9,0,0,0,21.2,39,85.4,85.4,0,0,0,17.6,12.8,102.7,102.7,0,0,0,22.4,9,160,160,0,0,0,26.8,5,199,199,0,0,0,29.6.7q24.8-1.3,49.5-3.8l53.6-5.3ZM-205.8,75.7a65.5,65.5,0,0,0,11.7-10A127.7,127.7,0,0,0-170,27.7a121,121,0,0,0-3.4-99,138.1,138.1,0,0,0-33-43.2c-9.8-8.8-21.7-15.2-34.8-17.4a56.7,56.7,0,0,0-27.9,2.4c-14.8,5.2-26.8,16.4-34.6,29.8a154.3,154.3,0,0,0-20,55.4A196.2,196.2,0,0,0-326-13.9q0,8,.6,16.1t1.8,17.6a88.3,88.3,0,0,0,7.2,25.5c8.6,18.8,24.2,33,43.1,40.7a114.7,114.7,0,0,0,30.1,7.8,14.4,14.4,0,0,0,9.2-2l8.4-4.8,9.2-4.9q5.4-2.9,10.5-6.4ZM-9.3-197.1a153.1,153.1,0,0,0-6.5-17.8,82.6,82.6,0,0,0-14.4-22.5,63.3,63.3,0,0,0-11.1-9.8A57.8,57.8,0,0,0-56-254.6a54,54,0,0,0-34,.1A67.8,67.8,0,0,0-111-243.1a82.4,82.4,0,0,0-6.8,6.1,159.6,159.6,0,0,0-27,35.4,128.5,128.5,0,0,0-15.8,48.2,112.2,112.2,0,0,0,1.6,35.9,121.2,121.2,0,0,0,14.5,37.1,144,144,0,0,0,16.2,22.1,76.7,76.7,0,0,0,17.7,15,54.4,54.4,0,0,0,55.1,1.8,77,77,0,0,0,22-17.7A137.7,137.7,0,0,0-9.1-98.8a155.1,155.1,0,0,0,7.2-22.9A182.2,182.2,0,0,0,2.1-148a14.4,14.4,0,0,0-.4-4.9q-3.6-14.2-6.8-28.5c-1.1-4.8-2.8-11.1-4.2-15.8Z" transform="translate(326 266.8)" style="fill:#050000"/><path d="M73.6,227.9c-43.2-13.1-85.9-3.2-127.8,13.8-3.1,1.3-6.9,1.1-10.4,1.4-34.2,3.2-68.4,7.4-102.7,9.1-17.2.8-35.4-.6-51.9-5.2-65.5-18.3-62.6-84.3-28-118.1,15.1-14.8,35-26,54.5-34.7,34.6-15.6,66.2-34.7,90-64.6,55.7-70,138.3-48.9,187-6.9,38.4,33.1,70.9,70.7,83.5,121.6,9.4,37.6-8.1,67.4-46,76.6-15,3.6-30.6,4.5-48.2,7Z" transform="translate(326 266.8)" style="fill:#d6aa29;fill-rule:evenodd"/><path d="M174.9-165.3C174.4-114,158.7-82.6,123-63.5c-38.9,20.8-74,5.8-84.1-37.3-11.6-49.5-2.1-95.6,33.8-133.1,27.9-29.2,68.3-23.1,85.5,13.4,9.7,20.6,13.5,43.9,16.8,55.2Z" transform="translate(326 266.8)" style="fill:#d6aa29;fill-rule:evenodd"/><path d="M-241.5,79.5c-38.4-5-63.2-26.7-67.8-61.6-5.1-38.6-2.4-76.1,18.1-110.3,17.8-29.7,49.7-34.2,75.3-11.4,49,43.7,54.5,111.8,11.3,159.8-9.4,10.4-24.4,15.8-36.8,23.5Z" transform="translate(326 266.8)" style="fill:#d6aa29;fill-rule:evenodd"/><path d="M170.9,10.6c-1.2-31.7,9.4-59.6,29.7-83.4,14.8-17.3,33.8-29.9,57.5-22.4,26.7,8.5,48.8,25.1,52.3,55,4,33.4-1.5,65.9-20.7,94.9-18.2,27.3-43,39.5-66.8,32.6-32.2-9.4-50.7-33-52-66.2-.1-3.5,0-7.1,0-10.6Z" transform="translate(326 266.8)" style="fill:#d6aa29;fill-rule:evenodd"/><path d="M-12.2-149.2c-2.7,31.3-12.4,58-32.2,80.5-22.3,25.3-50.7,26.1-73,.9-46.3-52.3-34.3-115.1,9.8-159,27.6-27.5,62.7-18.6,78.7,17.6,8.3,18.8,11.3,39.9,16.7,60Z" transform="translate(326 266.8)" style="fill:#d6aa29;fill-rule:evenodd"/></svg>