<svg id="Layer_1" data-name="Layer 1" xmlns="http://www.w3.org/2000/svg" viewBox="0 0 619.9 532.5"><title>Paw3_o_1c</title><path d="M-171.7,40.5A116.8,116.8,0,0,0-156,9.8a92.6,92.6,0,0,0,4.2-39,191.5,191.5,0,0,0-10.5-45.7,161.7,161.7,0,0,0-25.5-45.5c-9.7-12.3-22.9-21.8-38.3-25.5a58.7,58.7,0,0,0-50.1,11.2,71.4,71.4,0,0,0-21.6,28.8,150.7,150.7,0,0,0-12.2,56.5,144.4,144.4,0,0,0,2.7,30.5A152.5,152.5,0,0,0-297,13.2a100.5,100.5,0,0,0,8.2,15.1,85.7,85.7,0,0,0,12.2,14.6,79.6,79.6,0,0,0,15.1,11.3,84.4,84.4,0,0,0,19.1,8,112.9,112.9,0,0,0,25.7,4.3,33.4,33.4,0,0,0,8,.1,36.3,36.3,0,0,0,8.7-2.1A53,53,0,0,0-182.4,53,78.8,78.8,0,0,0-171.7,40.5Zm-43.5,11.6c-36.4-1.8-57.2-19.1-68.5-44.7-15.5-35-15.6-72.3-.7-107.6,15.8-37.4,58.4-45,85.4-11.2,19.4,24.4,29.6,53.1,32.9,83.7,2.3,21.7-4.8,42.1-17.3,60C-192.4,44.9-204.2,54-215.3,52.1Z" transform="translate(309.9 266.2)" style="fill:#050000"/><path d="M-149.7-83.7a92.2,92.2,0,0,0,10.3,13A76.8,76.8,0,0,0-125.2-59,78.8,78.8,0,0,0-88.6-47.4a14.4,14.4,0,0,0,5.3-.6l13.7-4a86.4,86.4,0,0,0,18.1-7.1,95.9,95.9,0,0,0,9.3-5.7q5-3.4,9.6-7.4A101,101,0,0,0-15.2-91.4a105.1,105.1,0,0,0,12-22.7,133.2,133.2,0,0,0,7-26.3,94.3,94.3,0,0,0-.3-31.3A132.3,132.3,0,0,0-5.7-202a134.8,134.8,0,0,0-18.1-29.9,110.1,110.1,0,0,0-12.7-13.4,82.5,82.5,0,0,0-16.1-11.3,85,85,0,0,0-20.3-7.7,68.1,68.1,0,0,0-16-2,60.7,60.7,0,0,0-17.8,2.6,63.5,63.5,0,0,0-30.6,21c-21.6,26.4-34,59.9-33,94.2A123.5,123.5,0,0,0-149.7-83.7Zm23.7-149.8c17.1-20.5,40.9-23.1,65.2-11.2,30.4,14.9,56.9,63.7,50.5,102-5.3,32-20.3,55.4-47.8,70.8-8.9,5-19.5,6.8-29.4,10.1C-110.3-63.5-126-74-137.7-91.6-168.3-137.6-157.5-195.9-126.1-233.5Z" transform="translate(309.9 266.2)" style="fill:#050000"/><path d="M42.9-61.6c9,9.8,20.3,17.3,33.2,20.8a59.9,59.9,0,0,0,28.6.6c15.8-3.6,29.5-13.6,38.6-26.9a114.6,114.6,0,0,0,16-33.9,134.9,134.9,0,0,0,4.9-40.3q.1-3.6.1-7.3a50.6,50.6,0,0,0-.3-6.8q-1-10.1-3-20.1a142.8,142.8,0,0,0-4.1-16.2,110.1,110.1,0,0,0-7.1-17.1,92.8,92.8,0,0,0-10-15.4,90.9,90.9,0,0,0-14.2-14.2q-4.5-3.6-9.2-6.8a84.1,84.1,0,0,0-11-6.2,61.7,61.7,0,0,0-11.7-4.1,55.9,55.9,0,0,0-32.5,2.2A54.9,54.9,0,0,0,31.8-229a59.6,59.6,0,0,0-5.7,13.6,233.1,233.1,0,0,0-9.4,59.1A197,197,0,0,0,26-90.4,78,78,0,0,0,42.9-61.6Zm-3-149.9c3.8-13,12-23,26.3-28.2,20.3-7.4,36,1,50.6,12.7,23.2,18.5,30,45.1,33.1,73,.5,4.2.1,8.5.1,12.7.4,23.8-4.7,46.1-18.4,66-18.3,26.5-53.1,30.8-77.9,4A65.1,65.1,0,0,1,39.7-94.8C27.3-133.6,28.7-172.8,39.9-211.5Z" transform="translate(309.9 266.2)" style="fill:#050000"/><path d="M309.7-38.2a156.8,156.8,0,0,0-.9-24.2,135,135,0,0,0-5.9-26.8c-6.8-20.4-18.4-38-33.7-52.8a77.3,77.3,0,0,0-8.3-7,55,55,0,0,0-21.6-9.9,47.6,47.6,0,0,0-12.9-.8,54.4,54.4,0,0,0-17.2,4.2,54.2,54.2,0,0,0-12.4,7A45.1,45.1,0,0,0,186-136.8c-6.1,9.7-8.2,21.3-7.8,32.6.5,16.9-3.3,33.7-7.7,49.9a191.9,191.9,0,0,0-6.3,36C163-3,165.4,12.3,173.5,25.5a61.3,61.3,0,0,0,6.8,9.2,65,65,0,0,0,9.3,8.5,73.5,73.5,0,0,0,10.7,6.6A86.8,86.8,0,0,0,213,55a71.2,71.2,0,0,0,22.2,3.5,69.1,69.1,0,0,0,46.2-18.2,75.3,75.3,0,0,0,9-9.8,78.7,78.7,0,0,0,7.8-12.4,105,105,0,0,0,9.1-26A115.6,115.6,0,0,0,309.7-38.2ZM285.5,11.7c-13.3,25.9-40.8,38.5-68,29.6-24.8-8.1-41.3-26.5-38.9-58.4a177.5,177.5,0,0,1,5.8-33.3c4.9-17.8,8.8-35.6,8.2-54.2-.5-16.9,5.2-30.6,22.1-37.6s31.9-1.8,44.5,10.5c25.8,25.1,37.6,55.9,36.2,93.7C296.3-21.9,293.8-4.5,285.5,11.7Z" transform="translate(309.9 266.2)" style="fill:#050000"/><path d="M220.3,115.3c-6.8-15.1-18.8-27.4-32-37.2L144.9,45.6Q120.7,27.4,95.9,10A312.8,312.8,0,0,0,45.8-18.2C27-26.7,7.4-30.5-12.7-28a104.3,104.3,0,0,0-30.7,8.8A138.8,138.8,0,0,0-72.1-1.4,190.9,190.9,0,0,0-89.7,14.4q-8.9,9.1-17.1,18.9t-14,17.2q-8.9,11.4-18.4,22.3L-147,82c-5.8,6.8-11.3,13.8-16.4,21.1q-4.2,6.1-7.9,12.5a138.3,138.3,0,0,0-9.2,19.3q-1.6,4-3,8.1c-5.6,15.6-9.8,31.7-8.8,48.5a82.1,82.1,0,0,0,4.1,21.2c3.3,10,8.5,19.6,16.8,26.3s21.5,10.3,33.4,9.8a184.8,184.8,0,0,0,38.4-5.2,132.9,132.9,0,0,1,28.9-3.9,87.8,87.8,0,0,1,30,4.6,118.5,118.5,0,0,0,16.3,4.3,122.1,122.1,0,0,0,18.7,2,140.6,140.6,0,0,0,18.8-.7,180.7,180.7,0,0,0,20.5-3.3,106.6,106.6,0,0,1,29.2-2.3,90.9,90.9,0,0,1,30.5,7.5l10.3,4.3,11.1,4.6a60.6,60.6,0,0,0,30,5.4c11.6-1,22.4-5.3,32.1-11.5a128.8,128.8,0,0,0,15.1-11.3,111.1,111.1,0,0,0,14.4-15.1,101.2,101.2,0,0,0,18.8-38.8,122.6,122.6,0,0,0,3.5-30.5,137.7,137.7,0,0,0-1.5-20.1A87.9,87.9,0,0,0,220.3,115.3ZM169,242.4c-15,9.6-31.3,12.8-48.4,5.1-7.1-3.2-14.4-5.8-21.5-9-22.2-9.7-45.2-11.1-68.6-6.1s-44.2,5.8-66.6-1.9-44.4-6.6-66.9-1.1a170.4,170.4,0,0,1-35.5,4.8c-19.6.5-29.8-7.7-36-26.3-8-23.9-.9-46.1,7.5-68s23.4-40.2,38.8-57.7c21.4-24.4,39.1-52,65.2-72.5C-31.4-15.1,2.7-21.9,39.8-5.1A299.2,299.2,0,0,1,87.6,21.8c31.3,21.9,61.6,45.1,92.2,67.9,25.1,18.8,34.2,37.4,34.4,69.1C214.4,194.9,199.3,222.9,169,242.4Z" transform="translate(309.9 266.2)" style="fill:#050000"/></svg>