<svg id="Layer_1" data-name="Layer 1" xmlns="http://www.w3.org/2000/svg" viewBox="0 0 535.3 562.4"><title>Paw4_o_2c</title><path d="M69,14.1c28.7-1,49.2,11.3,60.4,37.5,9.6,22.5,27.2,33.9,50,38.2,28.9,5.4,38.4,26.9,39.5,50.2,2.3,48.6-28.4,78.9-66.1,91.5-27.2,9.1-53.9,20.1-81.4,27.8-24.2,6.8-49.1,12.4-74,14.5-50.9,4.3-88-34-88.6-79.9-.1-10.9,4.7-19.6,11.9-27.2,4.7-5,9.7-9.8,14.6-14.7,13-12.8,16.8-28.2,14.3-46.1A149,149,0,0,1-51.7,75c1.1-15.5,11-26,23.1-34.4,18.8-13,40.8-17,62.5-21.8,11.5-2.5,23.4-3.2,35.1-4.7Z" transform="translate(267.7 281.2)" style="fill:#4b306a;fill-rule:evenodd"/><path d="M-131.2-225.1c1.1,7.4,3.7,14.9,3.1,22.1a31.5,31.5,0,0,0,4.7,19.9c9.6-.4,18-1.8,26.1-.7,12.3,1.7,20.2,10.3,23.5,21.8,2.7,9.5,8.2,16.4,14.7,23.3,22.5,24.2,30.7,52,19.8,84.2C-51.8-18.2-98.2-10.1-125.2-30c-16-11.8-29.1-26.5-33.4-46.6-6-27.7,0-54.1,12.5-78.9a30.3,30.3,0,0,0,2.9-19.6,78.4,78.4,0,0,1,5.5-44.3,29.2,29.2,0,0,1,1.9-3.6,14.2,14.2,0,0,1,1.5-1.8c1.3-2.1,1.8-2.1,3.1-.3Z" transform="translate(267.7 281.2)" style="fill:#4b306a;fill-rule:evenodd"/><path d="M212.9-136.8c3.3-7.3,5-14.1,3.3-22.3s.4-14.8.8-22.3c1-4.4,2.1-3.1,3.9-.7,3.1,6.7,7.7,13.1,9.1,20.1,2.4,11.8,2.7,23.9,4.1,35.9.3,2.8,1,6,2.5,8.2,17.1,24.8,25.9,51.9,23.7,82.2C257.5,4.6,214.2,36,175.7,25.1c-22-6.2-33-23-37.7-44-5.6-25.4.6-48.4,16.9-68.8,5.7-7.1,9.8-14.6,11.5-24.1,3.5-20.1,21.3-30.5,41.5-25.7a48.5,48.5,0,0,0,5.1.6Z" transform="translate(267.7 281.2)" style="fill:#4b306a;fill-rule:evenodd"/><path d="M-257.1-35.3c3.9,6,9.1,11.5,11.5,18,2.9,8.1,7.7,13.6,15.3,18,7.3-7.9,15.4-13.9,26.9-13.8s17.6,4.5,25.1,10.6S-164.2,8.7-156.1,12c26.9,11.2,45.2,29.5,52.4,58.1,8.7,34.2-17.2,69-52.2,69.4-40,.4-71.1-24.4-80.9-64.8-3.7-15.4-7.1-31.1-4.2-47.2.3-2-1.5-4.5-2.8-6.6-8.3-13.7-15.8-27.7-16.7-44.2-.2-3.5,0-7,0-10.5s2.3-1,3.5-1.5Z" transform="translate(267.7 281.2)" style="fill:#4b306a;fill-rule:evenodd"/><path d="M9.7-232.2c-1.8-9.5-5.4-16.5-12.4-22.5-4.8-4.1-6.6-11.7-9.9-17.5-.7-2.2-.1-2.2,1.5-1.7,4.1,1.8,8.5,3.3,12.4,5.5,13.2,7.6,22.4,19.3,31.3,31.3a25,25,0,0,0,9.8,7.4c27.6,12.1,53.1,27.8,64.8,56.6,14.5,35.8,7.3,83-39,95.8-21.1,5.8-46.7-4.8-61.9-25.6-10.8-14.9-16.7-31.3-16.3-49.9.3-12.1-.1-23.7-4.9-35.5-6.9-16.9,1.7-34.3,18.4-41.4l6.2-2.5Z" transform="translate(267.7 281.2)" style="fill:#4b306a;fill-rule:evenodd"/><path d="M-10.3,281.2c-22.4,0-43.1-7.8-59.2-22.3A89.1,89.1,0,0,1-98.2,194c-.1-11.6,4.4-22.1,13.8-32.1,4.3-4.6,8.8-9,13.2-13.3l1.6-1.6C-58.8,136.6-55,123.8-57.3,107a155.8,155.8,0,0,1-1.4-32.5c1.4-20.3,15.6-32.3,26.1-39.6C-14.2,22.1,6.9,17.5,27.2,13.1l5.2-1.1A221.1,221.1,0,0,1,57.3,8.3L68.1,7.1h.6c31.7-1.2,54.9,13.3,67.1,41.7,8,18.8,22.7,29.9,44.9,34.1,28.1,5.3,43.7,24.9,45.2,56.7,2.1,46-24.3,82.9-70.8,98.5-9.7,3.3-19.6,6.9-29.2,10.3-17.1,6.2-34.7,12.6-52.6,17.6C44,274.3,20,279-2,280.8Q-6.2,281.2-10.3,281.2ZM69.5,21.1,58.7,22.3a207.3,207.3,0,0,0-23.3,3.3l-5.2,1.1C10.3,31.1-8.5,35.2-24.6,46.4c-13.1,9.1-19.3,18.1-20.1,29.1a141.9,141.9,0,0,0,1.3,29.6c3,21.3-2.3,38.3-16.3,52l-1.6,1.6c-4.3,4.2-8.7,8.5-12.8,12.9-6.9,7.3-10.1,14.4-10,22.3A75,75,0,0,0-60,248.5c15.1,13.7,35.3,20.2,56.8,18.4s44.2-6.3,72.7-14.3c17.4-4.9,34.8-11.2,51.6-17.3,9.6-3.5,19.6-7.1,29.5-10.4,19.3-6.5,64-27.7,61.3-84.6-1.2-25.3-12.2-39.6-33.8-43.6-26.8-5-45.3-19.3-55.2-42.3S95.5,20.2,69.5,21.1Z" transform="translate(267.7 281.2)" style="fill:#050000"/><path d="M-91.6-12.4c-13.7,0-27.2-4.1-37.8-11.9-20.1-14.8-31.9-31.4-36.1-50.8-5.8-27.1-1.5-54.4,13.1-83.5a23.5,23.5,0,0,0,2.3-15.4,85.5,85.5,0,0,1,6-48.2,35.9,35.9,0,0,1,2.4-4.4,14.3,14.3,0,0,1,1.9-2.4h0c1-1.6,3.2-4.3,7.1-4.3h.1c4.2,0,6.5,3.3,7.2,4.4l.9,1.3.2,1.6c.3,2.1.8,4.2,1.2,6.4,1.2,5.6,2.4,11.3,1.9,17.4a24.5,24.5,0,0,0,1.8,12l4.2-.3c6.4-.5,12.5-1,18.7-.1,14.2,2,24.9,11.7,29.2,26.8,2.2,7.7,6.7,13.6,13.1,20.5,25.4,27.3,32.6,58,21.3,91.2-6.1,17.8-19.7,30.9-38.3,36.8A68,68,0,0,1-91.6-12.4ZM-135-205.8a73.3,73.3,0,0,0-1.3,29.7,37.3,37.3,0,0,1-3.6,23.8c-13.1,26.2-17,50.5-11.9,74.3,3.4,15.9,13.5,29.8,30.7,42.4,12.4,9.1,30,11.7,45.7,6.7s24.7-14.4,29.3-27.9c9.6-28.3,3.7-53.6-18.3-77.2-7.6-8.2-13.3-15.7-16.3-26.1-2-6.8-6.6-15.2-17.7-16.8-4.7-.7-9.8-.3-15.7.2l-9.1.6-4.1.2-2.1-3.5a38.4,38.4,0,0,1-5.7-24.2A20.6,20.6,0,0,0-135-205.8Z" transform="translate(267.7 281.2)" style="fill:#050000"/><path d="M191.6,34.3a65.3,65.3,0,0,1-17.8-2.4C151.3,25.5,137,8.9,131.2-17.4s.2-52,18.3-74.7c5.6-7.1,8.7-13.5,10-21,1.9-11.1,7.8-20.5,16.6-26.2s20.5-7.8,32.3-5.3a24.4,24.4,0,0,0,1-13.2c-1.2-6-.6-11.9,0-17.5.2-2.3.5-4.4.6-6.5v-1.1c.4-1.7,1.5-7.1,6.7-8.3s8.1,2.8,9.6,4.7l.5.6.3.7c.9,1.9,1.9,3.8,3,5.8,2.7,4.9,5.4,10,6.6,15.9a210.7,210.7,0,0,1,3,24.2c.3,4.1.7,8.3,1.2,12.3s1,4.6,1.3,5.1c19,27.5,27.1,55.9,24.9,86.7-1.5,21.4-13.7,42.1-32.7,55.4C221.4,29.4,206.4,34.3,191.6,34.3Zm6.6-165.9a26,26,0,0,0-14.4,4.1c-5.6,3.7-9.2,9.5-10.5,17-1.7,9.7-5.8,18.4-12.9,27.3C145.1-64.1,139.8-43,144.8-20.4s15.4,33.8,32.8,38.7,33.8,1,49-9.7S252.1-19,253.3-36.2c2-27.5-5.4-53-22.5-77.8-2.6-3.7-3.3-8.3-3.7-11.4s-.9-8.6-1.2-12.7a197.2,197.2,0,0,0-2.8-22.6l-.3-1.2q.1.7.2,1.4c2.2,11-.7,19.6-3.8,26.6l-2.1,4.7-5.1-.6-1.6-.2a29.8,29.8,0,0,1-4.3-.6A34.7,34.7,0,0,0,198.2-131.6Z" transform="translate(267.7 281.2)" style="fill:#050000"/><path d="M-157,146.5c-43,0-76.1-26.8-86.6-70.2-3.9-16.2-7.2-32.2-4.5-49.1l-1-1.7-.7-1.1c-8.4-14-16.7-29.1-17.7-47.4-.1-2.6-.1-5.2-.1-7.7s0-2.1,0-3.1a8.4,8.4,0,0,1,2.9-6.9,8.2,8.2,0,0,1,6.3-1.8l3.9-1.7,3.2,4.9c1.1,1.7,2.3,3.3,3.6,5.1,3.2,4.4,6.6,8.9,8.6,14.4a25,25,0,0,0,7.9,11.4c6.7-6.2,15.5-11.9,27.8-11.8s22.1,6.2,29.5,12.2,13.2,10.5,20.4,13.5c30.5,12.7,49,33.3,56.5,62.9a62.7,62.7,0,0,1-11.4,53.9,60.7,60.7,0,0,1-47.5,24.2ZM-252.6-15.9c2.3,11.9,8.3,22.5,14.7,33.2l.5.9c1.6,2.6,3.9,6.2,3.1,10.5-2.6,14.6.5,29.3,4.1,44.4,8.9,36.8,36.9,59.5,73.1,59.5h1a46.8,46.8,0,0,0,36.6-18.7,48.8,48.8,0,0,0,8.9-41.9c-6.4-25.1-22.2-42.5-48.3-53.4-9-3.7-17.1-10-23.9-15.6s-12.7-9-20.7-9-14,3.3-21.7,11.6L-229,9.6l-4.8-2.8c-9.1-5.3-14.9-12.2-18.4-21.7Z" transform="translate(267.7 281.2)" style="fill:#050000"/><path d="M56.2-68.7C35.8-68.7,14.4-79.9.7-98.7c-12.2-16.7-18.1-35-17.6-54.2.3-12.3-.3-22.6-4.4-32.7C-29.5-205.6-20-227.3.7-236.1l.7-.3a27.3,27.3,0,0,0-8.7-13c-4.4-3.8-6.7-9.1-8.7-13.8a61.4,61.4,0,0,0-2.7-5.6l-.4-.6-.2-.7c-1.1-3.6-.7-6.5,1.5-8.8s5-2.8,8.6-1.9h.5l.5.2,4,1.7a71.3,71.3,0,0,1,9,4.1c14.3,8.2,24,20.4,33.4,33.2a18.1,18.1,0,0,0,7,5.2c26.5,11.6,55.3,27.8,68.5,60.4,9.8,24.1,9.6,50.5-.3,70.7C105-88,90-76.1,70.1-70.5A52,52,0,0,1,56.2-68.7ZM2.5-259.5c7.6,6.8,12,14.8,14,26l1.1,5.7-5.3,2.1-2.1.8-3.9,1.6c-13.7,5.9-19.9,19.5-14.7,32.4s5.8,24.2,5.5,38.3C-3.4-136.3,1.5-121.4,12-107,25.3-88.7,48.2-79,66.3-84c16.2-4.5,27.8-13.7,34.5-27.2,8.2-16.6,8.2-38.8-.1-59.2-11.3-27.9-37.2-42.4-61.1-52.9A31.9,31.9,0,0,1,27-233C19.3-243.5,12.1-252.7,2.5-259.5Z" transform="translate(267.7 281.2)" style="fill:#050000"/></svg>