<svg id="Layer_1" data-name="Layer 1" xmlns="http://www.w3.org/2000/svg" viewBox="0 0 486.5 616.8"><title>Paw5_o_2c</title><path d="M-102.6,294.1c-32.7,0-45.5-14.8-50.2-43.7-5.7-34.2,6.9-60.2,38.7-67.1,34.9-7.6,45.5-31,51.5-60.8A288.2,288.2,0,0,1-54.4,89c7.7-23.6,24.2-38.6,49-40.8s45.7,5.9,56.2,27.2c11.3,22.9,18.9,48.2,23.9,73.3,3.1,15.6,9.6,22.1,23.7,24.8,35.1,6.8,47.9,18.3,50.4,44.8,3.2,33.2-14.8,66.1-43.6,75.4-10.2,3.3-22.4.1-33.6.5-16.3.6-32.6,1.6-48.9,2.7s-35.4,4.8-52.9,3.6c-21.7-1.6-29.6-1.6-51.2-5.3-.3,1.5-21-2.6-21.4-1.1Z" transform="translate(242.5 308.5)" style="fill:#f47820;fill-rule:evenodd"/><path d="M9.8-107.5c3.6-41,10.6-77.8,35.6-110.6,7.8-10.2,2.7-30.8,2-46.5-.4-9-4.1-17.9-6.1-26.9-.7-3-.6-6.1-.8-9.2,4.5,0,9.5,6.5,11,9,10.7,17.6,18.1,31.7,29,49.1,3.8,6.1,9.7,11.1,15.3,15.9s14.3,8.7,18.9,14.9c27.8,38,45.3,113.4,10.8,165.1C101.7-11,68.8-6.4,44.3-24.9,30.4-35.3,22.2-55,14.9-71.9c-4.9-11.2-3.7-24.9-5-35.6Z" transform="translate(242.5 308.5)" style="fill:#f47820;fill-rule:evenodd"/><path d="M-56.4-252c-1.3,13.2,1.6,26.1,15.6,39.2,20.9,19.5,27.3,48.7,28.8,76.2,1.4,25.6-1.6,52-6.9,77.2-5,23.5-21.9,39.6-46.8,43.2s-41.2-10.5-54-30.3c-32.7-50.7-24.1-123.7,7.8-159.8,18-20.4,34.5-39.2,42.7-65.1,1.4-4.5,4.9-11.7,9.5-11.7,1.1,5.2,2.5,10.4,3.2,15.7s.1,8.1.1,15.5Z" transform="translate(242.5 308.5)" style="fill:#f47820;fill-rule:evenodd"/><path d="M-237,28.5c3.9-29.8,10.5-59.9,42.6-76.7,4.1-2.2,7.8-8.4,8.5-13.2,1.4-9.7.4-19.7.9-29.5.3-5.2,1.7-10.3,2.5-15.5,3.1,4.7,6.6,9.1,9.1,14.1a59.5,59.5,0,0,1,5.2,14.6c3.4,16.3,12,29.7,19.4,44.2C-137.3-10.9-128.1,2.5-99.9.2-87.5-.8-78.2,14-77.2,29c2.4,34.1-27.3,81.8-59,95.5-21.7,9.4-41.1,4-58.3-9.7-26.7-21.4-40.1-50.3-42.6-86.3Z" transform="translate(242.5 308.5)" style="fill:#f47820;fill-rule:evenodd"/><path d="M237,31.1c-1.4,42.1-19,71.8-51.5,92.3-25.7,16.3-45.8,13.4-67-8.1S88.4,67.2,91.3,37.6c1.8-18.8,8-36.6,30.9-40.7,3.3-.6,12.3-9,13.5-11.2,10.9-19.9,22.6-28.7,21.9-53.6-.3-11.5,5.2-23.3,8.6-34.8.7-2.4,3.8-4,5.7-6,.8,2.4,2,4.7,2.3,7.1,1.2,9.7,2.1,19.5,3.2,29.3,1.4,12.3,6.1,20.3,18.5,27.2,30.2,16.8,38.8,46.8,41,76.1Z" transform="translate(242.5 308.5)" style="fill:#f47820;fill-rule:evenodd"/><path d="M-22.6,308.3c-59.2,0-158-2-137.5-89.2,10.5-44.7,57-33.7,78.6-66,23.2-34.5,9.1-86.5,54.2-107.1s79.5,9.1,94.6,48.8c6.6,17.5,8.1,56.4,23.5,68.2s38.5,6.4,53.3,23.2c25.7,29,10.9,82.7-17.4,104.4-21.1,16.1-46.6,10.9-71.4,11.9S3.3,308.3-22.6,308.3ZM-86,288.5c39,1.5,67.9,4.4,103.7,1.4,38.1-3.3,92.3,10.3,114.9-28.6,18.8-32.4,10.7-65.2-23.6-77.6-23.7-8.6-32.3-7.8-41.6-33.5-7.9-21.9-9.3-45.3-20.9-66.2C29.7,53.7-11.9,43.2-36.9,72.3S-49.4,149.1-81.1,176c-29.3,24.8-69.1,16.1-65.2,66.6C-143.4,280.1-119,286.5-86,288.5Z" transform="translate(242.5 308.5)" style="fill:#050000"/><path d="M74.7-6.8c-71,0-76.9-95.8-66-145.5,6.8-31.1,30.8-58.2,33.4-88.2,2.1-23-9-45.1-9.6-67.9,30.1-4,40.3,44.3,54.5,61.6,18.5,22.7,39,32.7,51.1,61.8C160.7-130.4,159.2-6.8,74.7-6.8ZM17.4-107.6C20.9-76.2,30.4-26.4,70-22s62.7-45.9,66.4-78.7-3.8-73-22.9-99.5c-8.8-12.2-21.8-18.5-31.9-29.4-11.6-12.6-19.2-28.9-27.7-43.6,6.3,31.4,1.5,48.1-12.6,75.1-15,28.6-21,58.5-23.9,90.5C17.7-104.4,21.1-149.4,17.4-107.6Z" transform="translate(242.5 308.5)" style="fill:#050000"/><path d="M-73.5-8.2c-72.4,0-83.2-112.9-66.6-162.4,10.9-32.4,37-51.7,53.4-80.5,6.9-12,15.9-49.5,33.7-36.7,10.3,7.4,1.3,39.9,5.3,51.7,9.4,27.3,33.7,41.8,40,73.1C3.1-110.6.3-8.2-73.5-8.2Zm9.7-256c-18.4,50.2-64.7,75.3-68.7,132.7C-135.3-92-116.2-12.1-61.7-24.9c49.6-11.6,47.1-92.3,40-131.1-4.6-24.9-14-35.8-27.9-55.4s-13.5-30.1-14.2-52.8C-72.9-239.2-63.7-262.6-63.7-264.1Z" transform="translate(242.5 308.5)" style="fill:#050000"/><path d="M-157.8,136.8c-60.8,3-94.8-80.7-82-134.8,3.3-14.1,9.1-27,18.6-38.2s22.4-14.3,27.9-26.3c7.2-15.7,3.6-45.4,6.7-63.9,12.7,19.3,21.1,36.9,29.2,58.4,5.5,14.5,15.1,37.9,26.1,49.2S-111.3-12.2-96-6.7C-25.6,18.4-102.8,136.8-157.8,136.8ZM-219,75c5,11,20.5,35,41.8,42,40.8,13.5,74.6-23,86.7-56.5,5-13.8,11.9-39.2-2.6-50.5-9.6-7.4-27.2-1.9-38.8-9.3-26-16.6-35.8-57.8-45.7-84.3,0,28.7-8.2,31.8-27,51.9-16.5,17.6-26.7,36.7-24.8,60.5C-228.5,41-226.8,59.6-219,75Z" transform="translate(242.5 308.5)" style="fill:#050000"/><path d="M158-99c2.9-9.7,10.4-16.7,17.3-23.6,8.1,24.5,3.9,51.1,22.7,69.7C218.7-32.3,234.6-23.4,241.6,8c11.3,50.6-17.9,120.3-73.5,131.3C114.8,149.8,79.1,85.7,82.7,39.1,85,8.7,99,4.3,121.1-11.6,148.1-31,150.5-69.3,158-99,161-109.2,154.2-84,158-99Zm10.5,13.5C160-59.5,162-33.8,142.9-11.5,130.3,3.2,110.1,6.3,101.6,24.2c-18,38.1,17.7,110.9,64.2,100.2,44.7-10.2,68.7-67,61.8-108.3C220-29.2,173.3-39.6,168.5-85.5c-2.3,7,.1.9,0,0C162.6-67.3,168.6-84.6,168.5-85.5ZM129.2-17.9h0Z" transform="translate(242.5 308.5)" style="fill:#050000"/></svg>