<svg id="Layer_1" data-name="Layer 1" xmlns="http://www.w3.org/2000/svg" viewBox="0 0 718.5 529.5"><title>Pirate600_1c</title><path d="M138.2-103.9l-7.4,9.6,1.4,1.2,9.5-8.4Z" transform="translate(359.3 264.7)" style="fill:#050000;fill-rule:evenodd"/><path d="M127.9-96.6l-.2-12.9a109.8,109.8,0,0,0-12-4.6l-9-2.7-4.1,4.7a139.3,139.3,0,0,1,17.4,9.7C122.8-100.5,125.5-98.5,127.9-96.6Z" transform="translate(359.3 264.7)" style="fill:#050000;fill-rule:evenodd"/><path d="M149.8-119l-5.1,6.6,1.5,4.2.7,2.2,6.6-5.8C152.3-114.4,151.1-116.8,149.8-119Z" transform="translate(359.3 264.7)" style="fill:#050000;fill-rule:evenodd"/><path d="M-175.9,41.6l-7.4-2.3c.4,3.8.9,7.5,1.5,10.8l6,2.1c-.1-2.5-.1-5.1-.1-8Q-175.9,42.9-175.9,41.6Z" transform="translate(359.3 264.7)" style="fill:#050000;fill-rule:evenodd"/><path d="M-154.8,90.6c3,18.8,5.6,41.3,5.8,62l7.4-3.9a63,63,0,0,1-7.6,17.9,140,140,0,0,1-2.1,19,78.2,78.2,0,0,0,19-33c-2.6-15.6-5.7-34.3-8.2-48.3A56.9,56.9,0,0,0-154.8,90.6Z" transform="translate(359.3 264.7)" style="fill:#050000;fill-rule:evenodd"/><path d="M-189.8,87.4l2.1,1.7q-1.4-7.8-2.6-15.5a69.3,69.3,0,0,1-7.8-9c-5.3-7.4-6.1-13.8-5.4-18.6a97.7,97.7,0,0,1,9.8,1.3l-.2-2.3c-.2-2.7-.3-5.3-.4-7.9q-4.1-.7-8.4-1l-9.2-.7-1.4,9.1c-1.5,9.4,1.7,18.3,7.1,25.9A89.5,89.5,0,0,0-189.8,87.4Z" transform="translate(359.3 264.7)" style="fill:#050000;fill-rule:evenodd"/><path d="M-44.5,34.1l20.9-15.6a27.8,27.8,0,0,0,2-5S-7.5,6.5-15.1-8l-4.2,3.2C-18.6,3-26.4,9.1-35.7,7.7q-15.4,11.6-30.9,23c5.9.3,11-.3,14.1-1.5a99,99,0,0,0,14-7.1s-5.2,7.3-5.8,10.7Z" transform="translate(359.3 264.7)" style="fill:#050000;fill-rule:evenodd"/><path d="M-75.2,91.8c0-.9,0-1.8.1-2.7L-88,94.3l-.2,1.8Z" transform="translate(359.3 264.7)" style="fill:#050000;fill-rule:evenodd"/><path d="M-63.2,111.8a18.2,18.2,0,0,1-1.3-3.3l-2.8.8c0,.5,0,.8,0,.8l-1.9,2.8-1.2-2.7-2.8.8a26.4,26.4,0,0,1,2.9,4s-1.1,1.8-1.7,6.4l3.6-1c1.2-3.5,2.4-6.2,2.4-6.2l1.2,2.5,1.2,2.2,4.1-1.2A65,65,0,0,1-63.2,111.8Z" transform="translate(359.3 264.7)" style="fill:#050000;fill-rule:evenodd"/><path d="M23-38.3a70.5,70.5,0,0,0-1.8,8.7A85.4,85.4,0,0,1,28.7-43Z" transform="translate(359.3 264.7)" style="fill:#050000;fill-rule:evenodd"/><path d="M-109.5,103l6-1.9v-.6l-6.2,2.4-.3-.7a115.8,115.8,0,0,0-7.9-14.5l16.3-11.8c.1-2.5.1-5.1.1-7.8a16.7,16.7,0,0,1,6.4,3.1l15.4-11.3-4.8-1.8c-8.6-2.6-16.5-.6-23.5,2.1l-19.9,13.9a114.4,114.4,0,0,0-14.4-13.9A92,92,0,0,1-155.7,51q-3.9-2.3-7.9-4.3c.6,3.5,1.3,6.9,2.1,10.2l.6,2.6a104.2,104.2,0,0,1,42,46.9,105.8,105.8,0,0,1,7.9,25.5,155.5,155.5,0,0,0,5.3-18.9C-106.7,109.6-108,106.2-109.5,103Z" transform="translate(359.3 264.7)" style="fill:#050000;fill-rule:evenodd"/><path d="M-78.1,112.4-91,116c-.5,3.6-.9,7.3-1.1,11l12.2-3.3A53.6,53.6,0,0,1-78.1,112.4Z" transform="translate(359.3 264.7)" style="fill:#050000;fill-rule:evenodd"/><path d="M-30.3,76.3c1.1,18.9,16.3,24.1,20.8,25.2l1-.4a31.5,31.5,0,0,1-2-11.3c0-7.3,7.4-24.9,7.4-24.9S4.4,82.5,4.4,89.8a34.3,34.3,0,0,1-.7,6.9l15.8-6a27.5,27.5,0,0,0,4.7-14.4c.5-9.2-3-19.2-7.7-27.8C.4,56.1-15.4,63.3-30,69.8A35.3,35.3,0,0,0-30.3,76.3Z" transform="translate(359.3 264.7)" style="fill:#050000;fill-rule:evenodd"/><path d="M57.8-67.4l-.8.3-.7.6Z" transform="translate(359.3 264.7)" style="fill:#050000;fill-rule:evenodd"/><path d="M-115.9,185.9q-1.3,3.4-2.8,6.8c-1.8,16.7-4.4,16.1-4.4,16.1s-.4-1.9-1.2-5.6A95.3,95.3,0,0,1-166.1,240c-49.4,22.5-108.5-.8-131.8-52.2a105.4,105.4,0,0,1-8.9-32.4c0-.5,1-10.6,10.1-11.2s10.2,9.2,10.2,9.2h0a55.1,55.1,0,0,0,4.7,27c15,32.9,60,44.7,100.5,26.3l3.7-1.8q.7-5.6,1.2-12a89.7,89.7,0,0,1-9,4.8c-14,6.4-29.8,9.2-45.1,7.2a63.4,63.4,0,0,1-21.3-6.7c25.4-10.1,50.7-20.6,75.5-32.2-1.3-19.8-5.1-41.3-8.9-62.6-31.8,13.2-62.7,28.6-93.3,44.4a44.1,44.1,0,0,0-2.1-5.9,19.1,19.1,0,0,0-16.7-7.6c-11,.6-18.5,9.7-19.5,20.2v1.9a114.5,114.5,0,0,0,2.7,15.2,32.1,32.1,0,0,0-26.4.1,32.2,32.2,0,0,0-16,42.6,32.2,32.2,0,0,0,42.6,16,32.1,32.1,0,0,0,17.4-19.9C-266.6,252.7-211,271.4-162,249a105.4,105.4,0,0,0,54.5-57.3C-110.6,189.8-113.4,187.8-115.9,185.9Zm-202,35.5a22.2,22.2,0,0,1-29.5-11,22.2,22.2,0,0,1,11-29.5,22.2,22.2,0,0,1,29.5,11A22.2,22.2,0,0,1-317.9,221.4Z" transform="translate(359.3 264.7)" style="fill:#050000;fill-rule:evenodd"/><path d="M87.2-73.9l.6-.5H64.9l-.6.5Z" transform="translate(359.3 264.7)" style="fill:#050000;fill-rule:evenodd"/><path d="M-53.3,113.3c-1.2,0-2.1,1.6-2.7,3.5l5.1-1.5C-51.8,114.1-52.6,113.3-53.3,113.3Z" transform="translate(359.3 264.7)" style="fill:#050000;fill-rule:evenodd"/><path d="M108,11.6s6.8-6.3,10.2-18.3C98.3,6,75.7,18.6,52.6,30.5c9.3,1,23.7-.9,34.8-7,14-7.7,33.1-5,33.1-5l-3.2-3C114.1,12.5,108,11.6,108,11.6Z" transform="translate(359.3 264.7)" style="fill:#050000;fill-rule:evenodd"/><path d="M335.2-198.2a151.2,151.2,0,0,1-15.2,5.8c-18.1,6.2-36.9,11.3-55.5,16-4.7,1.2-9.4,2.2-14.1,3-22.2,4-45.5,5.1-68,4.5-10.5-.2-21.5-.8-32-2l-4.9-.6a153.6,153.6,0,0,1,17,56.3l74.3-6.4S214.4-78.9,152.6-31c-2.2,5.7-5.9,11.7-10.6,19.8-9.7,16.8-13.1,24.3-11.6,34.8,1,7.3,3.2,11.6,4.4,13.4l.6-.3c-.6-3.3-1.9-11.5-1.1-15.1s7.1-12.9,7.1-12.9,3.8,15.1,8.8,16.9l2.5.9Q165,19.2,177,11.3A506.1,506.1,0,0,0,310.4-117.6a430.3,430.3,0,0,0,29.5-47.7c3.3-6.3,6.8-13.1,9.5-19.7l10-24.6Z" transform="translate(359.3 264.7)" style="fill:#050000;fill-rule:evenodd"/><path d="M78.2,58.2C66.2,61.9,59,68.5,54.8,76.3Q75,67.6,94.7,58A30.1,30.1,0,0,0,78.2,58.2Z" transform="translate(359.3 264.7)" style="fill:#050000;fill-rule:evenodd"/><path d="M-60.1,86.6l2.7-1-1-3.1v-.4l-3.4,1.4Z" transform="translate(359.3 264.7)" style="fill:#050000;fill-rule:evenodd"/><path d="M22.7-23C14.6-16.5,10.2-10.9,8.2-6.2l7.2-5.9A38.3,38.3,0,0,1,22.7-23Z" transform="translate(359.3 264.7)" style="fill:#050000;fill-rule:evenodd"/><path d="M133-140.4s2.2,4.8,5,11.3l2.5-3.6A49.8,49.8,0,0,0,133-140.4Z" transform="translate(359.3 264.7)" style="fill:#050000;fill-rule:evenodd"/><path d="M-180.9,54.6a124,124,0,0,0,3.8,14l2.6.6c-.4-3.3-.8-7.5-1.1-12.6Z" transform="translate(359.3 264.7)" style="fill:#050000;fill-rule:evenodd"/><path d="M-181.2,223.9c-34.4,12.9-70,4.5-82.7.6a96.9,96.9,0,0,0,40.3,18.3,92.1,92.1,0,0,0,34.9.2C-187,240.3-183.9,234.3-181.2,223.9Z" transform="translate(359.3 264.7)" style="fill:#050000;fill-rule:evenodd"/><path d="M-191.4,66.6q-1.1-7.8-1.9-15.3l-6.4-1a24.5,24.5,0,0,0,4.8,11.9C-193.8,63.7-192.6,65.2-191.4,66.6Z" transform="translate(359.3 264.7)" style="fill:#050000;fill-rule:evenodd"/><path d="M-128.1,179.7c-7.3,13.6-19,25.5-33.9,34.8a87.1,87.1,0,0,1-24.5,28.1,91.3,91.3,0,0,0,18.8-6.2,91.5,91.5,0,0,0,41.5-37.8l.8-1.5C-126.2,192.6-127.1,186.8-128.1,179.7Z" transform="translate(359.3 264.7)" style="fill:#050000;fill-rule:evenodd"/><path d="M-316.2,189.6a9.9,9.9,0,0,0-13.2-4.9,9.9,9.9,0,0,0-4.9,13.2,9.9,9.9,0,0,0,13.2,4.9,9.9,9.9,0,0,0,4.9-13.2" transform="translate(359.3 264.7)" style="fill:#050000;fill-rule:evenodd"/><path d="M-103.9-113.6a139.5,139.5,0,0,0-19.8,5l-4.1,1.5-.2,10.8a86.5,86.5,0,0,1,14.5-7.6c4.8-1.9,9.4-3.6,13.7-5Z" transform="translate(359.3 264.7)" style="fill:#050000;fill-rule:evenodd"/><path d="M-137.5-102.9l-3.7,2,8.7,7.6,1.6-1.1Z" transform="translate(359.3 264.7)" style="fill:#050000;fill-rule:evenodd"/><path d="M-148.9-117.7l-.9-1.1a70.9,70.9,0,0,0-4.7,6.2l2.7,2.4C-150.9-112.7-150-115.1-148.9-117.7Z" transform="translate(359.3 264.7)" style="fill:#050000;fill-rule:evenodd"/><path d="M51.7,91l-.8-3.9c-2,7-2,9.9-2,9.9S50,94.5,51.7,91Z" transform="translate(359.3 264.7)" style="fill:#050000;fill-rule:evenodd"/><path d="M47.2,113.3a1.7,1.7,0,0,0-1,.4l2.7.9A2.2,2.2,0,0,0,47.2,113.3Z" transform="translate(359.3 264.7)" style="fill:#050000;fill-rule:evenodd"/><path d="M69.1,86.6q0,1.6,0,3.1L81.9,94l-.2-2.3L69.1,86.6Z" transform="translate(359.3 264.7)" style="fill:#050000;fill-rule:evenodd"/><path d="M68.5,109.7l-3.4-1a7.9,7.9,0,0,0-.7,1.3l-1.3,3-1.9-2.8a22,22,0,0,0-.2-2.7l-2.2-.7a22.4,22.4,0,0,1-1.7,5,48.6,48.6,0,0,1-2.7,4.5l3.9,1.2.3-.7,1.2-2.5s.8,1.7,1.7,4.2l4,1.2a15.4,15.4,0,0,0-1.4-4.6S66.4,111.1,68.5,109.7Z" transform="translate(359.3 264.7)" style="fill:#050000;fill-rule:evenodd"/><path d="M53.2,79.9c-.3.9-.7,1.7-1,2.6l-.4,1.2L55,84.8l2-3.3Z" transform="translate(359.3 264.7)" style="fill:#050000;fill-rule:evenodd"/><path d="M-44.6,34.6a20.5,20.5,0,0,0-.3,2l1.3-1.5Z" transform="translate(359.3 264.7)" style="fill:#050000;fill-rule:evenodd"/><path d="M-143-23.8a29.5,29.5,0,0,0-.2,3.1l1.2-2.3Z" transform="translate(359.3 264.7)" style="fill:#050000;fill-rule:evenodd"/><path d="M-38.6-48A86,86,0,0,1-27.3-29.6a67.5,67.5,0,0,0-4.1-15.6q-10.2-8.5-20.2-17.2c-6.5-3-12.2-5-12.2-5S-45.9-57-38.6-48Z" transform="translate(359.3 264.7)" style="fill:#050000;fill-rule:evenodd"/><path d="M71.3,110.5c1.1,2.3,2,7.3,2.4,11.5l4.2,1.2,8,2.2c-.3-3.7-.7-7.5-1.2-11.1Z" transform="translate(359.3 264.7)" style="fill:#050000;fill-rule:evenodd"/><path d="M-61.9-71.6l-1.6-1.5-22,.7,1.6,1.5Z" transform="translate(359.3 264.7)" style="fill:#050000;fill-rule:evenodd"/><path d="M-166.4,18.1l11.2,6.9c4.5-3.3,7.8-16.4,7.8-16.4s6.1,8.2,7.1,12.9c.6,2.8,0,8.1-.6,11.9l1.5.8a39.1,39.1,0,0,0,3-10.8c1.5-10.5-1.9-17.9-11.6-34.8-6.4-11-11-18.2-12.3-26q-6.2-5-11.8-9.9l3.4,15.8,2.6,3v.3l-10.4-4.6s-13.2-8.4-14.7-19.4c-.5-3.5.8-6.9,2.8-9.9-34.9-33.9-48.5-59.6-48.5-59.6l67.2,5.8a154.3,154.3,0,0,1,16-54.7c-9.5,1-19.3,1.4-28.7,1.6-22.5.5-45.8-.6-68-4.5-4.7-.9-9.5-1.9-14.1-3-18.6-4.7-37.4-9.8-55.5-16a151.2,151.2,0,0,1-15.2-5.8l-24-11.4,10,24.6c2.7,6.6,6.1,13.4,9.5,19.7a430.4,430.4,0,0,0,29.5,47.7A505.2,505.2,0,0,0-190.2,2.2c5.1-17.9,12.8-27.8,12.8-27.8a196.8,196.8,0,0,0-6.1,32.5l6.5,4.4,4.8,3.1a100,100,0,0,1,6.1-17.2S-166.7,6.1-166.4,18.1Z" transform="translate(359.3 264.7)" style="fill:#050000;fill-rule:evenodd"/><path d="M340.4,171.8a32.1,32.1,0,0,0-26.4-.1,114.5,114.5,0,0,0,2.7-15.2v-1.9c-.9-10.5-8.4-19.6-19.5-20.2a19.1,19.1,0,0,0-16.7,7.6,44.1,44.1,0,0,0-2.1,5.9c-36.8-19-74-37.4-112.8-52.2A63.3,63.3,0,0,1,185,89.5l2.7-.4,2.1-1.7a89.5,89.5,0,0,0,16.4-17.1c5.4-7.6,8.5-16.5,7.1-25.9l-1.4-9.1-9.2.7a111.2,111.2,0,0,0-74.9,38.2l-11.7-8.1c-9.9-2.9-22.9-12.6-37.9-8l-.8.3L92.2,69.2a14.1,14.1,0,0,1,3.1-1.1q0,1.7,0,3.4l22.5,16.3a116,116,0,0,0-7.9,14.5l-.3.7L96.9,97.9V99l12.4,3.9a115.5,115.5,0,0,0-5.9,16.3l-2.8-.7a154.8,154.8,0,0,0,8.7,25.1,105.2,105.2,0,0,1,9.3-37.3c16.2-35.5,49.3-57.6,84.6-60.4.7,4.8-.1,11.1-5.4,18.6a80.3,80.3,0,0,1-14.6,15.2c-21.7,3.3-40,15.2-48.5,34-15,32.9,5.7,74.6,46.2,93s85.5,6.7,100.5-26.2a55.1,55.1,0,0,0,4.7-27h0s.8-9.7,10.2-9.2,10.1,10.6,10.1,11.2a105.4,105.4,0,0,1-8.9,32.4c-23.4,51.3-82.4,74.7-131.8,52.2a96.4,96.4,0,0,1-51.6-58.2,69.5,69.5,0,0,1-8.2,6.6A105.5,105.5,0,0,0,162,249c49,22.3,104.7,3.7,134.3-38.5a32.2,32.2,0,1,0,44.1-38.7Zm-110,33c-15.3,2.1-31.1-.8-45.1-7.2s-26.5-16.4-35-29.3a63.7,63.7,0,0,1-8.7-19.7c35.6,18.9,72.7,34.6,110.2,49.4A63.4,63.4,0,0,1,230.5,204.9Zm116.9,5.5a22.2,22.2,0,1,1-11-29.5A22.2,22.2,0,0,1,347.3,210.3Z" transform="translate(359.3 264.7)" style="fill:#050000;fill-rule:evenodd"/><path d="M34.1,6.5h-.1c-11.8,4.7-23-3.4-20.4-13.3l.6-2L11-11.2C5.3-3,6.3,3,8.8,7.1L36.1,27.8c-1.7-2.9-3.7-5.7-3.7-5.7a99.1,99.1,0,0,0,14,7.1c4,1.6,11.4,2.1,19.5,1Q49.9,18.5,34.1,6.5Z" transform="translate(359.3 264.7)" style="fill:#050000;fill-rule:evenodd"/><path d="M-126.6,18.5s19.1-2.6,33.1,5,30.9,8.4,39.3,6.2c-23-11.9-45.4-24.5-65-37.1l-6-4c.2,1.2.4,2.4.7,3.5,3.2,12.7,10.5,19.4,10.5,19.4s-6.2.9-9.3,3.9Z" transform="translate(359.3 264.7)" style="fill:#050000;fill-rule:evenodd"/><path d="M-84.3,58.2a28.4,28.4,0,0,0-12.1-1q16.5,8.1,33.3,15.5C-67.5,66.5-74.2,61.3-84.3,58.2Z" transform="translate(359.3 264.7)" style="fill:#050000;fill-rule:evenodd"/><path d="M-30.3,76.3a28.9,28.9,0,0,0,2.9,11.3l17.2,6.6a34.7,34.7,0,0,1-.3-4.5c0-7.3,7.4-24.9,7.4-24.9S4.4,82.5,4.4,89.8a33.3,33.3,0,0,1-1.3,9.4l3.6,1.3c6.2-2.3,16.6-8.6,17.6-24.1a37.6,37.6,0,0,0-.7-9.4C9.3,60.5-5.9,53.6-21.2,46.2-26.6,55.3-30.9,66.3-30.3,76.3Z" transform="translate(359.3 264.7)" style="fill:#050000;fill-rule:evenodd"/><path d="M261.1,191.8c-41.2-16.3-82.1-33.3-121-54.5a47.2,47.2,0,0,1,.2-5.7A44.4,44.4,0,0,1,156.1,102c41.6,15.4,81.2,35.1,120.6,55.4a44.8,44.8,0,0,1-4,18.9,44.3,44.3,0,0,1-8,11.9A46.7,46.7,0,0,1,261.1,191.8Z" transform="translate(359.3 264.7)" style="fill:none;stroke:#231f20;stroke-miterlimit:2.6131300000000004;stroke-width:0.5px"/><path d="M192.7,67.5a60.2,60.2,0,0,0,4.2-5.3,24.5,24.5,0,0,0,4.8-11.9c-33.9,4.2-63,26.5-77.2,57.7-13.2,29-12.2,62.8,3.7,90.6a91.5,91.5,0,0,0,97.3,44.3,96.9,96.9,0,0,0,40.3-18.3c-13.8,4.2-54.7,13.8-91.6-4.5C129,197.8,106.7,152.7,131.9,107c21.3-38.7,51.9-40,60.8-39.5" transform="translate(359.3 264.7)" style="fill:#050000;fill-rule:evenodd"/><path d="M316.2,189.6a9.9,9.9,0,1,1,4.9,13.2,9.9,9.9,0,0,1-4.9-13.2" transform="translate(359.3 264.7)" style="fill:#050000;fill-rule:evenodd"/><path d="M-38.9-47.7A86,86,0,0,1-27.6-29.2S-29.7-46-36.9-53-64.2-67.1-64.2-67.1-46.2-56.7-38.9-47.7Z" transform="translate(359.3 264.7)" style="fill:#050000;fill-rule:evenodd"/><path d="M57.5-67.1S37.3-60,30.1-53s-9.2,23.8-9.2,23.8A86,86,0,0,1,32.2-47.7C39.5-56.7,57.5-67.1,57.5-67.1Z" transform="translate(359.3 264.7)" style="fill:#050000;fill-rule:evenodd"/><path d="M-3.4,26.7c-5.9.4-28.6,27.7-27.3,49.9s22.1,25.4,22.1,25.4a30,30,0,0,1-2.2-12c0-7.3,7.4-24.9,7.4-24.9S4.1,82.8,4.1,90.1a30,30,0,0,1-2.2,12s20.8-3.2,22.1-25.4S2.6,27.1-3.4,26.7Z" transform="translate(359.3 264.7)" style="fill:#050000;fill-rule:evenodd"/><path d="M167.6,24.2c-2.3-2-7.1-2.9-10.1-3.6s-6.7-4.8-8.5-7.8a27.3,27.3,0,0,1-3.1-7.1c-.4-1.6-.8-3.9-.1-5.3a30.4,30.4,0,0,1,1.8-3.1l2.9-4.7c2.5-4,5-8,7.2-12.2s5-9.9,6.1-15.1a39.9,39.9,0,0,0-.5-17,42.5,42.5,0,0,0-2.1-6.7l-.3-.7v-.8a195.8,195.8,0,0,0,2.2-45.1,199.5,199.5,0,0,1,0,20.6c-1.2-4.3-2.7-9.2-4.5-14.4-10.5-30.3-26-41.7-26-41.7s8.7,18.6,13.3,32.2S151-92.6,151-92.6s-8.3-13-35.6-21.6-43.3-9.3-43.3-9.3,26.3,6.8,47.6,21S151-72.2,151-72.2c-13.2-5.5-277.7-.1-312.3,4.6,0,0,24.1-26.3,47.6-35.6a254.7,254.7,0,0,1,41.4-12.7s-27.8,0-51.6,8-34,19.8-34,19.8,2.2-14.5,10.5-32.8c0,0-10.5,9.9-16.7,27.5a149.7,149.7,0,0,0-5.7,21.1,192.1,192.1,0,0,1,1.8-56.2c-5,22.4-4.8,45.9-1.2,68.6v.8l-.3.7a42.4,42.4,0,0,0-2.1,6.7,39.9,39.9,0,0,0-.5,17c1.1,5.2,3.6,10.4,6.1,15.1s4.7,8.2,7.2,12.2l2.9,4.7A30.3,30.3,0,0,1-153.9.4c.7,1.5.3,3.8-.1,5.3a27.3,27.3,0,0,1-3.1,7.1c-1.8,3-5,6.9-8.5,7.8s-7.7,1.6-10.1,3.6-2.3,3.8-2.4,6,3.1,8.9,4.8,11.6a101.2,101.2,0,0,0,12.1,15.5c4.6,4.9,10,9.8,15.9,13s14.9,5.1,22.7,4.7a55.7,55.7,0,0,0,7.1-.8l3.3-.6-.2,3.4c-.1,1.7-.2,3.4-.3,5.1-.4,6.7-1,13.4-2,20s-2.1,13.4-4.5,19.4a157.9,157.9,0,0,1-7.7,16c-2.8,5.3-5.7,10.6-8.1,16.1s-3.8,9.7-4,14.7c-.2,8.1,6.2,16.2,11.6,21.6,8.2,8.1,18.6,14.8,28.9,20a302.5,302.5,0,0,1,28.4,15.9A98.7,98.7,0,0,1-52,240c5.1,5.3,9.8,10.2,16.3,13.8,9.6,5.3,20.8,6.8,31.6,6.7h0c10.5-.7,21-2.7,30.4-7.4A62.3,62.3,0,0,0,43.9,240a98.7,98.7,0,0,1,18-14.2A302.2,302.2,0,0,1,90.3,210c10.3-5.2,20.7-11.8,28.9-20,5.5-5.4,11.9-13.5,11.6-21.6-.1-5-2-10.2-4-14.7s-5.3-10.8-8.1-16.1a157.8,157.8,0,0,1-7.7-16c-2.4-6.1-3.6-13-4.5-19.4s-1.6-13.3-2-20c-.1-1.7-.2-3.4-.3-5.1l-.2-3.4,3.3.6a55.5,55.5,0,0,0,7.1.8c7.8.4,15.8-.9,22.7-4.7s11.3-8.2,15.9-13a101.2,101.2,0,0,0,12.1-15.5c1.7-2.7,5-8.3,4.8-11.6S169.4,25.8,167.6,24.2ZM119.2,175.5c-6.9,14.4-44.7,30.1-64.1,44.1S25,250.1,14.5,250.3l-17.9.2-17.9-.2c-10.5-.2-21.1-16.6-40.6-30.7s-57.2-29.7-64.1-44.1,24.9-32.5,24.3-107.1c0,0,10.1,1.9,13.3,13.8s-9,45.8-2.2,69.6,15.5,28.6,15.5,28.6-7.9-12.5-8.4-17,0-6.2,0-6.2A7,7,0,0,0-80,161a11.4,11.4,0,0,0,3.4,1.1s3,10.7,8,12.5,6.7.9,6.7.9,3.9,4.5,7.5,4.9,4.9-1.9,4.9-1.9a13.1,13.1,0,0,0,7.1,5.6c4.7,1.3,6.2-.9,6.2-.9s2.6,8.2,7.9,9.2,7.1-2.2,7.1-2.2,4.9,7.7,9.7,8.8,8.2-3,8.2-3,3.3,4.1,8.2,3,9.7-8.8,9.7-8.8,1.9,3.2,7.1,2.2,7.9-9.2,7.9-9.2,1.5,2.2,6.2.9a13.1,13.1,0,0,0,7.1-5.6s1.3,2.2,4.9,1.9,7.5-4.9,7.5-4.9,1.7.9,6.7-.9,8-12.5,8-12.5a11.4,11.4,0,0,0,3.4-1.1,7,7,0,0,0,3.6-3.7s.6,1.7,0,6.2-8.4,17-8.4,17,8.8-4.9,15.5-28.6-5.4-57.6-2.2-69.6S94.9,68.4,94.9,68.4C94.4,143,126.2,161.1,119.2,175.5ZM-4.3,168.7h-.3a28.1,28.1,0,0,1-9-1.6c-4.7-1.7-6.3-3.9-6.3-3.9s.8-31.5,7.7-32.4h.7C-4.9,130.7-4,148.9-4.3,168.7ZM-10,196h-1c-9.6-1.4-9-28.5-9-28.5l.3.2v-.2a14,14,0,0,0,4.6,2.1,91.6,91.6,0,0,0,10.6,2S-1.2,196.2-10,196Zm-11.6-33.1h-.3a41.1,41.1,0,0,1-6.7-1.4,13.5,13.5,0,0,1-4.9-3.1s1.5-29.8,7.4-31.9l1.3-.2c5-.4,5.5,12,5.5,12S-22.5,151.8-21.5,162.9Zm.4,20.7s-1.5,5.5-5.3,5.3a5.1,5.1,0,0,1-2.9-.9c-5.7-3.5-4.9-25.7-4.9-25.7l.3.3v-.3a13,13,0,0,0,3.4,1.9,78.1,78.1,0,0,0,8.2,2.4C-23.5,174.1-21.1,183.7-21.1,183.7Zm-14.9-26.2a6.8,6.8,0,0,1-2.3.3,9.2,9.2,0,0,1-3-.4,19.3,19.3,0,0,1-5.2-2.6s-.8-1.8-.4-8.6,2.5-23.9,6.8-23.4h.6c4.4,1.1,6.6,12.3,6.6,12.3C-34.8,142.5-36.1,157.4-36.1,157.4Zm-8,1.9,7.2,2c-.7,6.5.7,15.7.7,15.7s-1,4.6-4.8,4.3a5.4,5.4,0,0,1-2.1-.5c-5.2-2.2-6-23-6-23l.3.2v-.2A20.5,20.5,0,0,0-44.1,159.3Zm-5.4-6.6h-.3l-2.8-.3c-2.8-.3-6.1-3.5-6.1-3.5a94,94,0,0,1-.6-10.4c.1-4.6,3.7-20.2,6-19.6h.3c2.2.7,5,13.1,5,13.1C-49.8,139.7-49.5,152.7-49.5,152.7Zm-2.5,3.6a144.6,144.6,0,0,0,2.3,16.3,4.8,4.8,0,0,1-4.7,3.4h-1.7c-5-.9-5.7-24.3-5.7-24.3l.3.2v-.2l1.8,1.2C-58,154.1-52,156.3-52,156.3Zm-9.1-10.5h-1.1a9.2,9.2,0,0,1-7.3-3.9,41.3,41.3,0,0,1-1.1-12.6c.6-6.3,4.4-14.7,4.4-14.7l.2.4.2-.4,1.2,2.5c1.2,2.5,4.9,7.9,4.9,7.9a49.2,49.2,0,0,0-1.4,7.9A50.8,50.8,0,0,0-61.2,145.8Zm-1.1,23.3c.1.4-.8,1.6-2.3,1.4h-.9c-1.9-.6-4.1-1.5-7.1-8.6s-1.7-18-1.7-18l.3.3v-.3l3.8,2.9a45.8,45.8,0,0,0,5.5,3.6C-65.1,155.4-62.4,168.6-62.3,169.1ZM-72,122.7c-.6,5.3-.4,15.4-.4,15.4l-1.2.2c-2.1.1-4.3-1.9-4.3-1.9a38.1,38.1,0,0,1-2.3-8.3c-.7-4.4,1.3-18.6,3.7-18.7h.3c2.4-.1,5.9,5.9,5.9,5.9S-71.4,117.4-72,122.7ZM58.2,150.4a45.8,45.8,0,0,0,5.5-3.6l3.8-2.9v.3l.3-.3s1.3,10.9-1.7,18-5.2,8-7.1,8.6h-.9c-1.5.1-2.4-1-2.3-1.4S58.7,155.4,58.2,150.4Zm8.9-12-1.2-.2s.2-10.1-.4-15.4-1.8-7.4-1.8-7.4,3.5-6,5.9-5.9H70c2.4.1,4.4,14.3,3.7,18.7a38.1,38.1,0,0,1-2.3,8.3S69.3,138.5,67.2,138.3Zm-2.9-9A41.3,41.3,0,0,1,63.1,142a9.2,9.2,0,0,1-7.3,3.9H54.8a50.8,50.8,0,0,0,.1-12.8,49.1,49.1,0,0,0-1.4-7.9s3.6-5.4,4.9-7.9l1.2-2.5.2.4.2-.4S63.7,123,64.2,129.4Zm-9.1,22.3v.2l.3-.2s-.7,23.3-5.7,24.3H48a4.8,4.8,0,0,1-4.7-3.4,144.4,144.4,0,0,0,2.3-16.3s6-2.2,7.7-3.5Zm-2.8-2.8s-3.3,3.3-6.1,3.5l-2.8.3h-.3s.3-13-1.6-20.7c0,0,2.8-12.4,5-13.1h.3c2.2-.7,5.9,15,6,19.6A94,94,0,0,1,52.3,148.9Zm-9.9,8.9v.2l.3-.2s-.7,20.8-6,23a5.4,5.4,0,0,1-2.1.5c-3.7.3-4.8-4.3-4.8-4.3s1.4-9.1.7-15.7l7.2-2A20.5,20.5,0,0,0,42.3,157.7Zm-2.1-3a19.3,19.3,0,0,1-5.2,2.6,9.2,9.2,0,0,1-3,.4,6.8,6.8,0,0,1-2.3-.3s-1.3-14.9-3-22.4c0,0,2.2-11.2,6.6-12.3h.6c4.2-.5,6.3,16.8,6.8,23.4S40.3,154.7,40.3,154.7ZM15.9,166.7a78,78,0,0,0,8.2-2.4,13,13,0,0,0,3.4-1.9v.3l.3-.3s.7,22.3-4.9,25.7a5.1,5.1,0,0,1-2.9.9c-3.8.1-5.3-5.3-5.3-5.3S17.1,174.1,15.9,166.7ZM27,158.5a13.5,13.5,0,0,1-4.9,3.1,41.1,41.1,0,0,1-6.7,1.4h-.3c.9-11.2-2.2-24.6-2.2-24.6s.5-12.3,5.5-12l1.3.2C25.5,128.7,27,158.5,27,158.5Zm-13.5,4.8s-1.6,2.2-6.2,3.9a28.1,28.1,0,0,1-9,1.6h-.3c-.3-19.8.6-38,7.2-37.9h.7C12.6,131.7,13.5,163.2,13.5,163.2Zm-15.5,8.2a91.6,91.6,0,0,0,10.6-2,14,14,0,0,0,4.6-2.1v.2l.3-.2s.7,27.1-9,28.5h-1C-5.3,196.2-2.1,171.4-2.1,171.4Zm160.4-130c-6,10.5-32.3,27.9-42.3,25.1s-23-12.7-38.1-8-22.6,13.8-26,24.3-3.4,14.6-3.4,14.6,9-21.5,17.6-25.4l8.8-4.1s-6.2,9.5-6.2,19.1.7,17.6.7,17.6-4.1,2.8-5.4,5.8l-1.3,3-1.9-2.8a24.8,24.8,0,0,0-.7-5.4l-.7-3s-.7,6.5-2.6,10.1-4.5,6.7-5.2,8.4a10.4,10.4,0,0,0-.7,1.9s-1.1-8.8-3.9-8.8S40,125.2,40,125.2s-1.5-7.9-7.5-7.9-7.9,11.8-7.9,11.8-1.1-6.9-6.2-6.4S11,131,11,131s-3-4.7-7.1-4.1-7.2,6.5-7.2,6.5-3.1-6-7.2-6.5-7.1,4.1-7.1,4.1-2.4-7.7-7.5-8.2-6.2,6.4-6.2,6.4-1.9-11.8-7.9-11.8-7.5,7.9-7.5,7.9-4.1-11.6-6.9-11.6-3.9,8.8-3.9,8.8a10.4,10.4,0,0,0-.7-1.9c-.7-1.7-3.4-4.9-5.2-8.4s-2.6-10.1-2.6-10.1l-.7,3a24.9,24.9,0,0,0-.7,5.4l-1.9,2.8-1.3-3c-1.3-3-5.4-5.8-5.4-5.8s.7-8,.7-17.6-6.2-19.1-6.2-19.1l8.8,4.1c8.6,3.9,17.6,25.4,17.6,25.4s0-4.1-3.4-14.6-10.8-19.6-26-24.3-28.2,5.2-38.1,8-36.3-14.6-42.3-25.1,3.4-13.6,8.4-15.5S-147.8,9-147.8,9s6.1,8.2,7.1,12.9-1.4,16.6-1.4,16.6,3.7-4.1,5.2-14.6S-138.7,6-148.4-10.9-163.8-35.4-160-50.5c1.3-5.4,5.4-11.2,10.5-17.1,53.4-3.9,235.9-7.7,287.8-5.1,7,7.8,13.2,15.3,14.9,22.2,3.7,15.1-1.9,22.8-11.6,39.6s-13.1,24.3-11.6,34.8,5.2,14.6,5.2,14.6-2.4-11.9-1.4-16.6S141.1,9,141.1,9s3.8,15.1,8.8,16.9S164.3,31,158.3,41.5Z" transform="translate(359.3 264.7)" style="fill:#050000;fill-rule:evenodd"/><path d="M92.5,81.6s2,33.6,9.8,53,14.6,28.1,14.2,35.7S95.6,192,84.2,197.8l-11.4,5.8s23.1-21.6,27.8-34.4-.5-21.5-4.2-32.5-7.4-38.5-4-55m-193,0s-2,33.6-9.8,53-14.6,28.1-14.2,35.7,20.9,21.6,32.3,27.4l11.4,5.8s-23.1-21.6-27.8-34.4.5-21.5,4.2-32.5S-97.2,98.1-100.6,81.6ZM68.7,57.4c19.6-8.2,31.1-1.6,36.3.8s11.5,6.2,22.7.9S143.7,48,143.7,48s-15.2,7.1-28.5,3.7S90.6,42.5,73,46.6,50.3,62.7,50.3,62.7s1.4-6.3,5-10.6l3.5-4.3c-15.9,6.4-22.5,44.4-12.9,56.4C44,85.9,49.9,65.3,68.7,57.4ZM67,73A55.9,55.9,0,0,0,56,88.1c-5,9.7-6.5,23.8-6.5,23.8l1.6,3.1s5.4-7.3,6.1-12.8S60,94.5,60,94.5a51.1,51.1,0,0,1,1.7,7.5,28.9,28.9,0,0,1,.1,4.5l.5,1.8a44.2,44.2,0,0,1,2.5-4.2c1-1.4,2-2.5,2-2.5S62,86.9,67,73ZM-75.1,73a55.9,55.9,0,0,1,11,15.1c5,9.7,6.5,23.8,6.5,23.8l-1.6,3.1s-5.4-7.3-6.1-12.8S-68,94.5-68,94.5a51,51,0,0,0-1.7,7.5,28.8,28.8,0,0,0-.1,4.5l-.5,1.8a44,44,0,0,0-2.5-4.2c-1-1.4-2-2.5-2-2.5S-70.1,86.9-75.1,73Zm-1.7-15.6c-19.6-8.2-31.1-1.6-36.3.8s-11.5,6.2-22.7.9S-151.7,48-151.7,48s15.2,7.1,28.5,3.7,24.6-9.2,42.2-5.1,22.7,16.1,22.7,16.1-1.4-6.3-5-10.6l-3.5-4.3c15.9,6.4,22.5,44.4,12.9,56.4C-52.1,85.9-58,65.3-76.8,57.4ZM44.2,221.8s-16.1,13.1-20,17.3-10.7,7.3-16.9,6.5-26,.5-30.3-1S-39,229.3-43.5,226.4l-4.4-2.9s16.9,2.7,24.6,8.5,17.4,5.4,24.7,3.7,19.5-6.8,19.5-6.8-1,3.7-3.4,5.5l-2.5,1.8s6.1-.5,9.1-4.2S38.7,223.5,44.2,221.8Z" transform="translate(359.3 264.7)" style="fill:#050000;fill-rule:evenodd"/><path d="M-15.5,201.3c-4.7-1.3-7.6-6.3-7.6-6.3s-9.4,2.4-12.7-.5a10.7,10.7,0,0,1-3.4-7.1,7.7,7.7,0,0,1-5.8.1c-3.1-1.2-3.8-2.4-3.8-2.4s-5.6,3.9-9.9,3.8a12.4,12.4,0,0,1-7.4-3.1s-3.7,1.7-9.1,0-6-4.2-6-4.2-.7,3.1,2,8,12.2,3.3,24.6,6.3A155.1,155.1,0,0,1-23.5,207c8,3.9,19.5,4.6,19.5,4.6S7.5,211,15.4,207a155.1,155.1,0,0,1,31.2-11.1c12.4-3,22-1.4,24.6-6.3s2-8,2-8-.5,2.5-6,4.2-9.1,0-9.1,0a12.4,12.4,0,0,1-7.4,3.1c-4.3.1-9.9-3.8-9.9-3.8s-.7,1.2-3.8,2.4a7.7,7.7,0,0,1-5.8-.1,10.7,10.7,0,0,1-3.4,7.1c-3.3,2.9-12.7.5-12.7.5s-2.9,5-7.6,6.3-9.2-.8-11.5-2.1c-2.3,1.2-6,3.6-11.5,2.1" transform="translate(359.3 264.7)" style="fill:#050000;fill-rule:evenodd"/><path d="M123.6-218.3C89.1-249.6,42.1-264.7-4-264.7s-93.2,15.1-127.7,46.5a163.5,163.5,0,0,0-47,73.6,165.7,165.7,0,0,0-1.9,87.2h0l5.8,26.7,8,9.2-1-30.7,2.1-.9a28.7,28.7,0,0,1,5-1.3c3.9-.8,7.8-1.3,11.7-1.8,12.4-1.5,24.9-2.4,37.4-3.1,16.8-1.1,33.7-1.8,50.6-2.4q28.6-1,57.2-1.4t55.3-.2c16.5.2,32.9.5,49.4,1.3,12.5.6,25.1,1.3,37.6,3,5.3.7,13.8,1.9,18.6,4.2l1.8.9.3,31.4,8.6-9.7,5-26.6h0C185.9-118,168.7-177.2,123.6-218.3ZM162.9-84.7c-1.2-4.3-2.7-9.2-4.5-14.4-10.5-30.3-26-41.7-26-41.7s8.7,18.6,13.3,32.2S150.7-93,150.7-93s-8.3-13-35.6-21.6-43.3-9.3-43.3-9.3,26.3,6.8,47.6,21,31.2,30.3,31.2,30.3c-13.2-5.5-277.7-.1-312.3,4.6,0,0,24.1-26.3,47.6-35.6a254.7,254.7,0,0,1,41.4-12.7s-27.8,0-51.6,8-34,19.8-34,19.8,2.2-14.5,10.5-32.8c0,0-10.5,9.9-16.7,27.5a149.7,149.7,0,0,0-5.7,21.1C-195.4-309.6,174.7-313.6,162.9-84.7Z" transform="translate(359.3 264.7)" style="fill:#050000;fill-rule:evenodd"/><path d="M-29.1-22.7A38.5,38.5,0,0,1-20-6.4c2.6,9.9-8.6,17.9-20.4,13.3S-86.9-37.1-105.2-44s-30.9.6-34.6,8.2a39,39,0,0,0-3.7,15.3s5-10.7,9.5-12.9,9.7-.7,9.7-.7-3.7,13.8-.6,26.6,10.5,19.4,10.5,19.4-6.2.9-9.3,3.9l-3.2,3s19.1-2.6,33.1,5,33.5,8.6,40.9,5.6a99,99,0,0,0,14-7.1s-5.2,7.3-5.8,10.7a38.6,38.6,0,0,0-.6,3.9s5.4-7.3,12.9-9.9S-22,13.8-22,13.8,1.9,2-29.1-22.7ZM-71.8,16.6A21.9,21.9,0,0,1-95.7-3.1,21.8,21.8,0,0,1-92-17.5c3.5,1.9,7.2,3.9,10.7,6.1a9.6,9.6,0,0,0-2.2,7.1A9.6,9.6,0,0,0-73,4.4a9.6,9.6,0,0,0,7.5-5l10,7.1A21.9,21.9,0,0,1-71.8,16.6Z" transform="translate(359.3 264.7)" style="fill:#050000;fill-rule:evenodd"/><path d="M125.3-55.1c-3.9-1.9-10.8-3.1-19.2-2-19.3,2.6-61.8,34-74.6,47.4-8,8.5-11.2,17.1-8.4,24.4,3.4,8.9,15.6,15.8,38.5,17.8,17.8,1.6,41.6-3.3,50.2-5.9C132.6,20.3,153.6-41.3,125.3-55.1ZM111.6-40.6C85.7-38.9,53.2-18.2,39.1-9.1,58-28.3,97.7-54.9,119.2-50.4s11.3,36.3,11.3,36.3S134.4-42.1,111.6-40.6Z" transform="translate(359.3 264.7)" style="fill:#050000;fill-rule:evenodd"/><path d="M27.9-65l7.8,6.4a110.9,110.9,0,0,1,12.9-6.3Z" transform="translate(359.3 264.7)" style="fill:#050000"/><path d="M109.7,7.9a26.5,26.5,0,0,1-2.7,3.1,26.2,26.2,0,0,1,5.7,1.6Z" transform="translate(359.3 264.7)" style="fill:#050000"/><path d="M65.4-30.5l.2.2c3.9-2.6,7.8-5.2,11.8-7.5l-1.5-2a233.9,233.9,0,0,0-22.8-25H51.5a142.5,142.5,0,0,0-12.6,9A286.2,286.2,0,0,1,65.4-30.5Z" transform="translate(359.3 264.7)" style="fill:#050000"/><path d="M69.1-26.3l1.1,1.2,4.7-4Z" transform="translate(359.3 264.7)" style="fill:#050000"/><path d="M115.7,17.5a73.1,73.1,0,0,0-13.5.5,358,358,0,0,1,24.7,45.6,72.2,72.2,0,0,0,10.9-5.6A421.2,421.2,0,0,0,115.7,17.5Z" transform="translate(359.3 264.7)" style="fill:#050000"/><path d="M132.8-27.5a63,63,0,0,1,4,7.1,39,39,0,0,0-3.7-15.3l-.9-1.6A36.5,36.5,0,0,1,132.8-27.5Z" transform="translate(359.3 264.7)" style="fill:#050000;fill-rule:evenodd"/><path d="M111.6-41c-9.8.7-20.6,4-30.9,8.5C62.9-18.2,42.2,3.5,33.6,6.9c-11.8,4.7-23-3.4-20.4-13.3a38.5,38.5,0,0,1,9.2-16.3C-8.7,2,15.3,13.8,15.3,13.8s2.8,10.7,10.3,13.3S38.5,37,38.5,37a38.6,38.6,0,0,0-.6-3.9c-.6-3.4-5.8-10.7-5.8-10.7a99.1,99.1,0,0,0,14,7.1c7.5,3,26.9,2.1,40.9-5.6s33.1-5,33.1-5l-3.2-3c-3.2-3-9.3-3.9-9.3-3.9s7.3-6.7,10.5-19.4-.6-26.6-.6-26.6,5.2-1.5,9.7.7l.4.2C125-37.9,120.2-41.5,111.6-41Z" transform="translate(359.3 264.7)" style="fill:#050000;fill-rule:evenodd"/><path d="M-126.6,18.5s16.2-2.2,29.7,3.4c-8.6-10.7-19.9-24.6-28.6-35.3a41.6,41.6,0,0,0,1,5.5c3.2,12.7,10.5,19.4,10.5,19.4s-6.2.9-9.3,3.9Z" transform="translate(359.3 264.7)" style="fill:#050000;fill-rule:evenodd"/><path d="M-138.5-29.9a31.2,31.2,0,0,0-2.2-3.4,39.1,39.1,0,0,0-2.5,12.5,59.7,59.7,0,0,1,5.1-8.6Z" transform="translate(359.3 264.7)" style="fill:#050000;fill-rule:evenodd"/><path d="M-118.3,183.9c-1.8,25.3-5.2,24.5-5.2,24.5s-2.4-10.2-5.4-31.8S-144.3,83.8-144.5,83c.5.9,21.3,31.1,26.1,66.7,7.5-15.6,17.4-39.7,17.1-81.6,0,0,10.1,1.9,13.3,13.8s-7.4,41.3-3.4,64.6a478.9,478.9,0,0,0,7.9-88.1l-.8-.3c-15.1-4.7-28.2,5.2-38.1,8s-36.3-14.6-42.3-25.1h0a131,131,0,0,0,2.9,15.4c6.6,25.8,19.2,99,8.4,136.2s-36.6,51.6-36.6,51.6,12-15.6,13.8-58.2-14.4-97.2-18-141.6,16.8-70.8,16.8-70.8c-18,66,4.8,106.2,4.8,106.2s-3.6-9-3.6-36A116.4,116.4,0,0,1-166.1-3.5a264.1,264.1,0,0,0,.3,35c1.9-3.3,6.4-4.8,9.4-5.9,5-1.9,8.8-16.9,8.8-16.9s6.1,8.2,7.1,12.9-1.4,16.6-1.4,16.6,3.7-4.1,5.2-14.6-1.9-17.9-11.6-34.8-15.3-24.5-11.6-39.6a24.1,24.1,0,0,1,2.1-5.3c-10.4-13.8-21-27.7-21-27.7s-24.6,14.4-22.8,30,19.2,22.8,19.2,22.8-21,21.6-21,65.4,15.6,85.2,17.4,141-22.8,89.4-22.8,89.4,43.8-15,58.8-36,15.6-27.6,15.6-27.6l10.2,28.2s5.4,9.8,20.2-35.3A115.9,115.9,0,0,1-118.3,183.9ZM-191.6-51.5c-1.3-9.4,10-18.1,13.7-20.6q1.1,7.6,3,15.2h0l5.7,26.1,2.6,3v.3l-10.4-4.6S-190.1-40.5-191.6-51.5Z" transform="translate(359.3 264.7)" style="fill:#050000;fill-rule:evenodd"/></svg>