<svg xmlns="http://www.w3.org/2000/svg" viewBox="0 0 378.36 389.52"><title>Pirate992_1c</title><path d="M372.49,152.6c5.37-16.24,5.46-24,5.46-24L357.64,52.49,317.37,96.21s-1.21,14.76-4.74,36.42l-20.19,9.81v8l-8,.69-5.9-14.22L273,139l-1.73,4.86s-10.06-12.49-12.14-13.18S246.3,141,246.3,141V131c8.43-3.72,31.45-15,45.31-33.06,17.21-22.37,21.34-38.55,21.34-38.55s-16.52-10.67-27.19-10-22.37,21.34-31.67,24.09c-2.93.87-5.38-.08-7.65-2,2.14-3.36,4.93-7.9,7-11.8,3.79-7.23,4.47-12.22,4.47-12.22l-3.79,3.61,2.41-6-5.16,2.75a18.12,18.12,0,0,0,5.51-7.92A22.33,22.33,0,0,0,258,32.87l-4.13,3.44s3.1-6.71,3.61-11.19a46.73,46.73,0,0,1,.69-5s-1.89-4.65-9.64-11.36-12-8.78-12-8.78,3.1,5.34,1.2,14.11a35.47,35.47,0,0,1-7.92,15.15l6.88,15-5.16-5.16,3.1,6.54-3.27-1.72s4,7.74,4.3,14.63v.19A25.51,25.51,0,0,0,231,54.56c-9.29-6.2-22.37-8.95-22.37-8.95s-2.32,8.69-6.88,9.29-4.73.43-8.78,0-5.08-9-5.08-9-14.89,2.5-24.18,8.69S150,76.24,140.67,73.49s-21-23.41-31.67-24.09-27.19,10-27.19,10,4.13,16.18,21.34,38.55c13.89,18.05,32.93,31,39.76,35.26h-.43s-3-1.29-5.11-.68-2.92,3.71-2.92,3.71-7.44-7.09-14.63-5.9-19,7.26-19,7.26,8.6,2.06,13.73,4,6.8,3.73,6.8,3.73a93.12,93.12,0,0,1-12.26,3,111,111,0,0,1-13.93,1.21s7.42,5.84,20.45,8.21,22.8-6.08,22.8-6.08a5.66,5.66,0,0,1,1,1.46s7.13,4,6.78,9.87a37.89,37.89,0,0,1-2.75,11.36l-12.6-4.09a12.92,12.92,0,0,1-2.13,4.1c-3.12,4.16-4.51,5.2-4.51,5.2S105.11,169.84,91.58,156c-2.59-2.66-5.17-5.47-7.51-8.15-5.61-29.67-7.41-51.61-7.41-51.61L36.38,52.49,16.07,128.56s.07,6.86,4.51,21.09L6,162.79s11.56,72.16,74,131.83a488.85,488.85,0,0,0,58.57,48c-4.29,4.25-5.31,11.88-1.26,16.43,6.2,7,21.17,3.87,21.17,3.87S156.16,386.72,183,389.3s46.73-18.07,46.73-18.07,6.07,11.36,13.68,1.29c8-10.58-7-13.94-7-13.94l3.41-7.91a479.36,479.36,0,0,0,70.51-56.06c62.44-59.67,74-131.83,74-131.83Zm-94.62-8.08s6.24,17.35-2.43,62.1-50,91.58-50,91.58l-16.3-13.88a280.53,280.53,0,0,0,41.28-56.2C269.19,194.47,277.87,144.52,277.87,144.52ZM204.7,242c0,6,3.79,11.53,3.79,11.53s-10-10.15-9.64-20,3.61-15,3.61-15l-5.51,3.1a11.1,11.1,0,0,0,3.1-9.12,30,30,0,0,0-3.1-10,14.58,14.58,0,0,0,6.37-1.38,10.49,10.49,0,0,0,4.47-3.61s.34,6.54,4.3,9.81S224,216.68,224,216.68s-7.06-2.07-8.95-1.89a30.45,30.45,0,0,0-3.44.52,7.41,7.41,0,0,1,5.68,5.85c1.2,5.16-4.3,10-3.79,15.49s3.61,7.06,3.61,7.06-5.16-1-7.57-4.47a10,10,0,0,1-1.72-7.06A16.52,16.52,0,0,0,204.7,242Zm39.41-117s-.86,1.89-18.24,8.6-27,8.61-27,8.61l.34-9.47,22.55-8.26s-5,.69-10.33,1-13.25,3.27-13.25,3.27l.34-7.4s11.88-.34,24.61-.17,21.17-.52,21.17-.52l-3.1,2.24c-3.1,2.24-12,4.3-12,4.3ZM224,139l-15.48,13.18-4.24-1Zm-21.1,16.48,2.25,1-2.08,2.6h4.51s8.15-6.42,16.83-12.84,14.92-7.81,14.92-7.81a71.18,71.18,0,0,1-10.93,17A87.69,87.69,0,0,1,214,169s8.33-4.16,13.7-9a26.86,26.86,0,0,1,8-5.19,17.61,17.61,0,0,0-1.82,4.77c-.69,2.93-.34,7.92-.69,15.49a47.52,47.52,0,0,1-3.79,15.15s-2.58,0-6.88-3.1-6.88-7.57-9.64-8.95-9.47,0-9.47,0a34.9,34.9,0,0,0,1.87-3.24c3.12-6.07,2.95-7.81,2.95-7.81s-3.82,5.55-7.29,7.63-5.38,2.26-5.38,2.26l.52-24.11S200.68,154.4,202.93,155.45Zm37.39,39.37s-2.07,5.16-12,6.71-12.91-2.07-16.18-6.54-5.51-8.61-8.26-8.78a21.23,21.23,0,0,0-4.65.17s6.88-5.34,9.64-5.68,5.85,8.78,15.66,13.25S240.32,194.82,240.32,194.82Zm-44.06-3.27a16.58,16.58,0,0,0,5.85-.17,8.29,8.29,0,0,0,3.61-1.55s1.72,3.44,1.55,4.65-9.64,3.44-11.19,2.75S196.26,191.55,196.26,191.55Zm55.59-35.45c5.34,4.47,7.57,12,2.58,15s-8.61,0-8.61,0,5.68-2.24,4.82-7.4-6.71-8.26-7.4-8.26C243.25,155.41,246.52,151.62,251.85,156.1ZM242.9,10.33l11.36,10.84S255,24,252.45,31.75a59.82,59.82,0,0,1-7,13.94l8.26-5.42-3.61,7.23L245,54l7-2.84-11.1,11.62s3.87-19.88,3.87-32.27A97.54,97.54,0,0,0,242.9,10.33ZM253.4,53.7s-2.41,5.85-4,8.61-7.74,10.33-7.74,10.33l-1-3.61Zm-51,6.2s2.32-1.29,7.23-.26,7,3.61,7,3.61a19.33,19.33,0,0,1-5.68,10.84c-5.16,5.16-9,3.1-9,3.1a23.26,23.26,0,0,0,2.32-9.81C204.18,62,202.37,59.89,202.37,59.89Zm-11,20c.83,1.07,3.84,3,14.66,1.45,14.46-2.07,15.23-23.23,15.23-23.23s2.07-.77,7,2.07,7.74,8.52,14.46,17.55A22.67,22.67,0,0,0,258.91,87s-1.81,1.29-9.81,6.45-22.46,10.84-22.46,10.84,3.1.26,27.62-9.55,44.92-34.59,44.92-34.59S292,80.54,278.27,96.55a79.18,79.18,0,0,1-31.49,21.94s-7.49-4.9-22.2-7-30.46,4.39-30.46,4.39-2.07-2.32,2.58-8.52,21.17-10.84,27.88-24.27,3.61-18.59,3.61-18.59S216.05,85.71,205.47,87a13.75,13.75,0,0,1-14.14-7.12,1.43,1.43,0,0,1-.31-.62S191.11,79.49,191.33,79.87ZM129.49,97.5a31.69,31.69,0,0,1-23.41-16.18s14.46,16.18,29.6,12.74,16.52-22,26.16-31.67a42.15,42.15,0,0,1,21.94-11.27l3.61,5.94s-17,2.93-25.9,16.35S146.35,99.91,129.49,97.5Zm40.84,170.87c36.08,29.14,52.73,35,52.73,35a80.19,80.19,0,0,1-10.75,12.84c-6.24,5.9-10.06,9-10.06,9s-23.94-17-37.81-32.61a111.19,111.19,0,0,1-19.77-31.57s2.43,15.61,13.88,35,22.76,30,22.76,30-20.68-13-41.15-50.83-21.51-69.73-21.51-69.73S134.25,239.22,170.33,268.36ZM67,227.26C35.57,179,27.09,127.45,27.09,127.45L34.31,90.7s-.34,41,24.5,101.37c27.24,66.25,72.87,112.29,72.87,112.29S98.39,275.57,67,227.26Zm18.22,7.68C46.87,171.28,40,74.34,40,74.34l30.15,30.71s2.83,56,27.33,118.37,86.94,115.45,86.94,115.45l-5.51,3.1S123.51,298.6,85.19,234.94ZM177.75,376c-19.57-8.8-11.26-25.16-11.26-25.16s-17,9.84-23.64,4,2.34-14.12,8.87-11.39,3,7.95,3,7.95,3.54,1,8.71-.89,6.3-4.28,6.3-4.28l7.5,4S171.8,365.05,188,369.6,225.48,363,225.48,363l.13,3.09S197.31,384.8,177.75,376Zm37.62-12.34C203,367.1,203,363,203,363s1.38-1.72-4.13-1.72-7.57-2.75-7.57-2.75a36.33,36.33,0,0,0-5.85-3.44c-4.13-2.07-3.79-5.51-3.79-5.51l12-7.23a18.59,18.59,0,0,0-.34-5.85,11.94,11.94,0,0,0-3.44-6.54l5.85-.34s2.41,4.47,13.42,12.39,25.13,6.54,25.13,6.54S227.76,360.21,215.37,363.65ZM232,317.47c17.47-17.21,44.94-48.72,61.24-89.9,25.29-63.9,28.21-121.24,28.21-121.24l31.12-31.46s-7.13,99.29-46.68,164.5a415.44,415.44,0,0,1-58.29,75.46Zm92.69-86c-32.42,49.48-66.78,79-66.78,79s44.74-48.17,75.21-115,23-110.1,23-110.1l9.73,43.91S357.15,182,324.73,231.5Z" transform="translate(-6)"/></svg>