<svg id="Layer_1" data-name="Layer 1" xmlns="http://www.w3.org/2000/svg" viewBox="0 0 718.5 529.5"><title>Pirate600_2c</title><path d="M138.2-103.9l-7.4,9.6,1.4,1.2,9.5-8.4Z" transform="translate(359.3 264.7)" style="fill:#050000;fill-rule:evenodd"/><path d="M127.9-96.6l-.2-12.9a109.8,109.8,0,0,0-12-4.6l-9-2.7-4.1,4.7a139.3,139.3,0,0,1,17.4,9.7C122.8-100.5,125.5-98.5,127.9-96.6Z" transform="translate(359.3 264.7)" style="fill:#050000;fill-rule:evenodd"/><path d="M149.8-119l-5.1,6.6,1.5,4.2.7,2.2,6.6-5.8C152.3-114.4,151.1-116.8,149.8-119Z" transform="translate(359.3 264.7)" style="fill:#050000;fill-rule:evenodd"/><path d="M-175.9,41.6l-7.4-2.3c.4,3.8.9,7.5,1.5,10.8l6,2.1c-.1-2.5-.1-5.1-.1-8Q-175.9,42.9-175.9,41.6Z" transform="translate(359.3 264.7)" style="fill:#050000;fill-rule:evenodd"/><path d="M-154.8,90.6c3,18.8,5.6,41.3,5.8,62l7.4-3.9a63,63,0,0,1-7.6,17.9,140,140,0,0,1-2.1,19,78.2,78.2,0,0,0,19-33c-2.6-15.6-5.7-34.3-8.2-48.3A56.9,56.9,0,0,0-154.8,90.6Z" transform="translate(359.3 264.7)" style="fill:#050000;fill-rule:evenodd"/><path d="M-189.8,87.4l2.1,1.7q-1.4-7.8-2.6-15.5a69.3,69.3,0,0,1-7.8-9c-5.3-7.4-6.1-13.8-5.4-18.6a97.7,97.7,0,0,1,9.8,1.3l-.2-2.3c-.2-2.7-.3-5.3-.4-7.9q-4.1-.7-8.4-1l-9.2-.7-1.4,9.1c-1.5,9.4,1.7,18.3,7.1,25.9A89.5,89.5,0,0,0-189.8,87.4Z" transform="translate(359.3 264.7)" style="fill:#050000;fill-rule:evenodd"/><path d="M335.2-198.2a151.2,151.2,0,0,1-15.2,5.8c-18.1,6.2-36.9,11.3-55.5,16-4.7,1.2-9.4,2.2-14.1,3-22.2,4-45.5,5.1-68,4.5-10.5-.2-21.5-.8-32-2l-4.9-.6a153.6,153.6,0,0,1,17,56.3l74.3-6.4S206.4-63.8,119.2-7.4C36.7,45.9-95.5,97.5-109.5,102.9l-.3-.7a115.8,115.8,0,0,0-7.9-14.5c25-18.1,73.9-53.7,111-82.2C25.5-19.3,63.5-52.6,87.8-74.4H64.9l-12.3,11C36.5-49.2,19.8-35.5,3-22.1-27.6,2-58.9,25.3-90.5,48c-12.3,8.8-24.8,17.6-37.3,26.3a113.2,113.2,0,0,0-35.8-27.5c.6,3.5,1.3,6.9,2.1,10.2l.6,2.6a104.2,104.2,0,0,1,42,46.9,103.4,103.4,0,0,1,.2,86.3c-1.8,16.7-4.4,16.1-4.4,16.1s-.4-1.9-1.2-5.6A95.3,95.3,0,0,1-166.1,240c-49.4,22.5-108.5-.8-131.8-52.2a105.4,105.4,0,0,1-8.9-32.4c0-.5,1-10.6,10.1-11.2s10.2,9.2,10.2,9.2h0a55.1,55.1,0,0,0,4.7,27c15,32.9,60,44.7,100.5,26.3l3.7-1.8q.7-5.6,1.2-12a89.7,89.7,0,0,1-9,4.8c-14,6.4-29.8,9.2-45.1,7.2a63.4,63.4,0,0,1-21.3-6.7c25.4-10.1,50.7-20.6,75.5-32.2-1.3-19.8-5.1-41.3-8.9-62.6-31.8,13.2-62.7,28.6-93.3,44.4a44.1,44.1,0,0,0-2.1-5.9,19.1,19.1,0,0,0-16.7-7.6c-11,.6-18.5,9.7-19.5,20.2v1.9a114.5,114.5,0,0,0,2.7,15.2,32.1,32.1,0,0,0-26.4.1,32.2,32.2,0,0,0-16,42.6,32.2,32.2,0,0,0,42.6,16,32.1,32.1,0,0,0,17.4-19.9C-266.6,252.7-211,271.4-162,249c46.8-21.3,69.4-71.6,60.6-119.7,7.8-1.9,15.7-4,23.5-6.2,22.6-6.3,45.1-13.5,67.2-21.3C54.3,78.9,119.5,49.3,177,11.3A506.1,506.1,0,0,0,310.4-117.6a430.3,430.3,0,0,0,29.5-47.7c3.3-6.3,6.8-13.1,9.5-19.7l10-24.6ZM-317.9,221.4a22.2,22.2,0,0,1-29.5-11,22.2,22.2,0,0,1,11-29.5,22.2,22.2,0,0,1,29.5,11A22.2,22.2,0,0,1-317.9,221.4ZM-49.9,82.9l-4.9,22.6c-24.1,7.5-41.6,11.9-48.8,13.7a115.4,115.4,0,0,0-5.9-16.3c5.5-1.7,28.7-8.9,59.6-20Z" transform="translate(359.3 264.7)" style="fill:#050000;fill-rule:evenodd"/><path d="M133-140.4s2.2,4.8,5,11.3l2.5-3.6A49.8,49.8,0,0,0,133-140.4Z" transform="translate(359.3 264.7)" style="fill:#050000;fill-rule:evenodd"/><path d="M-180.9,54.6a124,124,0,0,0,3.8,14l2.6.6c-.4-3.3-.8-7.5-1.1-12.6Z" transform="translate(359.3 264.7)" style="fill:#050000;fill-rule:evenodd"/><path d="M-157.2,76.7a70.2,70.2,0,0,1,14,11.6l-.9-5c.2.4,3.8,5.7,8.4,14.3a102,102,0,0,1,5.9,9.4,81.1,81.1,0,0,1,10.4,34.6,110,110,0,0,1,2.4,25.1c-.1,4.5-.3,8.4-.5,12a100.2,100.2,0,0,0-4.9-70.7,101,101,0,0,0-37.2-43.1C-158.9,68.4-158,72.4-157.2,76.7Z" transform="translate(359.3 264.7)" style="fill:#050000;fill-rule:evenodd"/><path d="M-181.2,223.9c-34.4,12.9-70,4.5-82.7.6a96.9,96.9,0,0,0,40.3,18.3,92.1,92.1,0,0,0,34.9.2C-187,240.3-183.9,234.3-181.2,223.9Z" transform="translate(359.3 264.7)" style="fill:#050000;fill-rule:evenodd"/><path d="M-191.4,66.6q-1.1-7.8-1.9-15.3l-6.4-1a24.5,24.5,0,0,0,4.8,11.9C-193.8,63.7-192.6,65.2-191.4,66.6Z" transform="translate(359.3 264.7)" style="fill:#050000;fill-rule:evenodd"/><path d="M-128.1,179.7c-7.3,13.6-19,25.5-33.9,34.8a87.1,87.1,0,0,1-24.5,28.1,91.3,91.3,0,0,0,18.8-6.2,91.5,91.5,0,0,0,41.5-37.8l.8-1.5C-126.2,192.6-127.1,186.8-128.1,179.7Z" transform="translate(359.3 264.7)" style="fill:#050000;fill-rule:evenodd"/><path d="M-316.2,189.6a9.9,9.9,0,0,0-13.2-4.9,9.9,9.9,0,0,0-4.9,13.2,9.9,9.9,0,0,0,13.2,4.9,9.9,9.9,0,0,0,4.9-13.2" transform="translate(359.3 264.7)" style="fill:#050000;fill-rule:evenodd"/><path d="M-103.9-113.6a139.5,139.5,0,0,0-19.8,5l-4.1,1.5-.2,10.8a86.5,86.5,0,0,1,14.5-7.6c4.8-1.9,9.4-3.6,13.7-5Z" transform="translate(359.3 264.7)" style="fill:#050000;fill-rule:evenodd"/><path d="M-137.5-102.9l-3.7,2,8.7,7.6,1.6-1.1Z" transform="translate(359.3 264.7)" style="fill:#050000;fill-rule:evenodd"/><path d="M-148.9-117.7l-.9-1.1a70.9,70.9,0,0,0-4.7,6.2l2.7,2.4C-150.9-112.7-150-115.1-148.9-117.7Z" transform="translate(359.3 264.7)" style="fill:#050000;fill-rule:evenodd"/><path d="M340.4,171.8a32.1,32.1,0,0,0-26.4-.1,114.5,114.5,0,0,0,2.7-15.2v-1.9c-.9-10.5-8.4-19.6-19.5-20.2a19.1,19.1,0,0,0-16.7,7.6,44.1,44.1,0,0,0-2.1,5.9c-36.8-19-74-37.4-112.8-52.2A63.3,63.3,0,0,1,185,89.5l2.7-.4,2.1-1.7a89.5,89.5,0,0,0,16.4-17.1c5.4-7.6,8.5-16.5,7.1-25.9l-1.4-9.1-9.2.7a111.2,111.2,0,0,0-74.9,38.2C115.3,65.6,102.9,56.8,90.5,48,58.9,25.3,27.6,2-3-22.1c-16.9-13.4-33.5-27-49.7-41.2l-10.9-9.8-22,.7c24.4,21.8,61,53.9,92.2,77.9,37.1,28.6,86,64.1,111,82.2a116,116,0,0,0-7.9,14.5l-.3.7C95.5,97.5-36.7,45.9-119.2-7.4a465.3,465.3,0,0,1-53.1-39.8l3.4,15.8,2.6,3v.3l-10.4-4.6s-13.2-8.4-14.7-19.4c-.5-3.5.8-6.9,2.8-9.9-34.9-33.9-48.5-59.6-48.5-59.6l67.2,5.8a154.3,154.3,0,0,1,16-54.7c-9.5,1-19.3,1.4-28.7,1.6-22.5.5-45.8-.6-68-4.5-4.7-.9-9.5-1.9-14.1-3-18.6-4.7-37.4-9.8-55.5-16a151.2,151.2,0,0,1-15.2-5.8l-24-11.4,10,24.6c2.7,6.6,6.1,13.4,9.5,19.7a430.4,430.4,0,0,0,29.5,47.7A505.2,505.2,0,0,0-190.2,2.2c5.1-17.9,12.8-27.8,12.8-27.8a196.8,196.8,0,0,0-6.1,32.5l6.5,4.4,4.8,3.1a100,100,0,0,1,6.1-17.2s-.6,8.8-.4,20.9c54.8,34.8,116.1,62.2,177.1,83.8,22.1,7.8,44.6,15,67.2,21.3,7.7,2.2,15.6,4.3,23.5,6.2C92.6,177.4,115.2,227.7,162,249c49,22.3,104.7,3.7,134.3-38.5a32.2,32.2,0,1,0,44.1-38.7Zm-88.7,26.3a63.4,63.4,0,0,1-21.3,6.7c-15.3,2.1-31.1-.8-45.1-7.2s-26.5-16.4-35-29.3a63.7,63.7,0,0,1-8.7-19.7C177.2,167.6,214.3,183.3,251.7,198.2ZM54.9,105.6,49.9,82.9h-.1C80.8,94,104,101.3,109.5,103a115.5,115.5,0,0,0-5.9,16.3C96.5,117.5,79,113,54.9,105.6Zm243,82.3c-23.4,51.3-82.4,74.7-131.8,52.2s-70.6-82.3-47.2-133.7c16.2-35.5,49.3-57.6,84.6-60.4.7,4.8-.1,11.1-5.4,18.6a80.3,80.3,0,0,1-14.6,15.2c-21.7,3.3-40,15.2-48.5,34-15,32.9,5.7,74.6,46.2,93s85.5,6.7,100.5-26.2a55.1,55.1,0,0,0,4.7-27h0s.8-9.7,10.2-9.2,10.1,10.6,10.1,11.2A105.4,105.4,0,0,1,297.9,187.8Zm49.4,22.5a22.2,22.2,0,1,1-11-29.5A22.2,22.2,0,0,1,347.3,210.3Z" transform="translate(359.3 264.7)" style="fill:#050000;fill-rule:evenodd"/><path d="M261.1,191.8c-41.2-16.3-82.1-33.3-121-54.5a47.2,47.2,0,0,1,.2-5.7A44.4,44.4,0,0,1,156.1,102c41.6,15.4,81.2,35.1,120.6,55.4a44.8,44.8,0,0,1-4,18.9,44.3,44.3,0,0,1-8,11.9A46.7,46.7,0,0,1,261.1,191.8Z" transform="translate(359.3 264.7)" style="fill:none;stroke:#231f20;stroke-miterlimit:2.6131300000000004;stroke-width:0.5px"/><path d="M190.7,67.5a60.2,60.2,0,0,0,4.2-5.3,24.5,24.5,0,0,0,4.8-11.9c-33.9,4.2-63,26.5-77.2,57.7-13.2,29-12.2,62.8,3.7,90.6a91.5,91.5,0,0,0,97.3,44.3,96.9,96.9,0,0,0,40.3-18.3c-13.8,4.2-54.7,13.8-91.6-4.5C127,197.8,104.7,152.7,129.9,107c21.3-38.7,51.9-40,60.8-39.5" transform="translate(359.3 264.7)" style="fill:#050000;fill-rule:evenodd"/><path d="M316.2,189.6a9.9,9.9,0,1,1,4.9,13.2,9.9,9.9,0,0,1-4.9-13.2" transform="translate(359.3 264.7)" style="fill:#050000;fill-rule:evenodd"/><path d="M-84.5,38.5c-1.2-4.2-52.8-65.4-54-68.4s-40.2-54-40.2-54-24.6,14.4-22.8,30,19.2,22.8,19.2,22.8-21,21.6-21,65.4,15.6,85.2,17.4,141-22.8,89.4-22.8,89.4,43.8-15,58.8-36,15.6-27.6,15.6-27.6l10.2,28.2s6.6,12,25.2-51.6S-83.3,42.7-84.5,38.5Zm-107.1-90c-1.3-9.4,10-18.1,13.7-20.6q1.1,7.6,3,15.2h0l5.7,26.1,2.6,3v.3l-10.4-4.6S-190.1-40.5-191.6-51.5Zm38.1,244.2c-10.8,37.2-36.6,51.6-36.6,51.6s12-15.6,13.8-58.2-14.4-97.2-18-141.6,16.8-70.8,16.8-70.8c-18,66,4.8,106.2,4.8,106.2s-3.6-9-3.6-36A116.4,116.4,0,0,1-166.1-3.5s-2.4,34.2,4.2,60S-142.7,155.5-153.5,192.7Zm36-26.4c-1.2,43.2-6,42-6,42s-2.4-10.2-5.4-31.8S-144.3,83.8-144.5,83C-143.9,84-116.3,124-117.5,166.3Z" transform="translate(359.3 264.7)" style="fill:#050000;fill-rule:evenodd"/><path d="M167.6,24.2c-2.3-2-7.1-2.9-10.1-3.6s-6.7-4.8-8.5-7.8a27.3,27.3,0,0,1-3.1-7.1c-.4-1.6-.8-3.9-.1-5.3a30.4,30.4,0,0,1,1.8-3.1l2.9-4.7c2.5-4,5-8,7.2-12.2s5-9.9,6.1-15.1a39.9,39.9,0,0,0-.5-17,42.5,42.5,0,0,0-2.1-6.7l-.3-.7v-.8a195.8,195.8,0,0,0,2.2-45.1,199.5,199.5,0,0,1,0,20.6c-1.2-4.3-2.7-9.2-4.5-14.4-10.5-30.3-26-41.7-26-41.7s8.7,18.6,13.3,32.2S151-92.6,151-92.6s-8.3-13-35.6-21.6-43.3-9.3-43.3-9.3,26.3,6.8,47.6,21S151-72.2,151-72.2c-13.2-5.5-277.7-.1-312.3,4.6,0,0,24.1-26.3,47.6-35.6a254.7,254.7,0,0,1,41.4-12.7s-27.8,0-51.6,8-34,19.8-34,19.8,2.2-14.5,10.5-32.8c0,0-10.5,9.9-16.7,27.5a149.7,149.7,0,0,0-5.7,21.1,192.1,192.1,0,0,1,1.8-56.2c-5,22.4-4.8,45.9-1.2,68.6v.8l-.3.7a42.4,42.4,0,0,0-2.1,6.7,39.9,39.9,0,0,0-.5,17c1.1,5.2,3.6,10.4,6.1,15.1s4.7,8.2,7.2,12.2l2.9,4.7A30.3,30.3,0,0,1-153.9.4c.7,1.5.3,3.8-.1,5.3a27.3,27.3,0,0,1-3.1,7.1c-1.8,3-5,6.9-8.5,7.8s-7.7,1.6-10.1,3.6-2.3,3.8-2.4,6,3.1,8.9,4.8,11.6a101.2,101.2,0,0,0,12.1,15.5c4.6,4.9,10,9.8,15.9,13s14.9,5.1,22.7,4.7a55.7,55.7,0,0,0,7.1-.8l3.3-.6-.2,3.4c-.1,1.7-.2,3.4-.3,5.1-.4,6.7-1,13.4-2,20s-2.1,13.4-4.5,19.4a157.9,157.9,0,0,1-7.7,16c-2.8,5.3-5.7,10.6-8.1,16.1s-3.8,9.7-4,14.7c-.2,8.1,6.2,16.2,11.6,21.6,8.2,8.1,18.6,14.8,28.9,20a302.5,302.5,0,0,1,28.4,15.9A98.7,98.7,0,0,1-52,240c5.1,5.3,9.8,10.2,16.3,13.8,9.6,5.3,20.8,6.8,31.6,6.7h0c10.5-.7,21-2.7,30.4-7.4A62.3,62.3,0,0,0,43.9,240a98.7,98.7,0,0,1,18-14.2A302.2,302.2,0,0,1,90.3,210c10.3-5.2,20.7-11.8,28.9-20,5.5-5.4,11.9-13.5,11.6-21.6-.1-5-2-10.2-4-14.7s-5.3-10.8-8.1-16.1a157.8,157.8,0,0,1-7.7-16c-2.4-6.1-3.6-13-4.5-19.4s-1.6-13.3-2-20c-.1-1.7-.2-3.4-.3-5.1l-.2-3.4,3.3.6a55.5,55.5,0,0,0,7.1.8c7.8.4,15.8-.9,22.7-4.7s11.3-8.2,15.9-13a101.2,101.2,0,0,0,12.1-15.5c1.7-2.7,5-8.3,4.8-11.6S169.4,25.8,167.6,24.2Z" transform="translate(359.3 264.7)" style="fill:#050000;fill-rule:evenodd"/><path d="M132.8-140.6s8.7,18.6,13.3,32.2S151-92.6,151-92.6s-6.1-9.5-24.8-17.6c1.7,2.2,3.5,4.3,5.4,6.4,7.5,8,22.4,37,22.4,37a181.5,181.5,0,0,0-.7-45.2C143.7-132.5,132.8-140.6,132.8-140.6Z" transform="translate(359.3 264.7)" style="fill:#fff;fill-rule:evenodd"/><path d="M-143.7-98.8c-9.8,5.8-14.2,10.8-14.2,10.8s2.2-14.5,10.5-32.8c0,0-9.5,8.9-15.7,24.9a191.9,191.9,0,0,0,.9,29S-151.5-87.6-143.7-98.8Z" transform="translate(359.3 264.7)" style="fill:#fff;fill-rule:evenodd"/><path d="M-72.2-115.8s-26.5,0-49.9,7.5a41.7,41.7,0,0,1-1.9,5.8,46.1,46.1,0,0,1-3.5,6.6,85.5,85.5,0,0,1,13.9-7.2A254.7,254.7,0,0,1-72.2-115.8Z" transform="translate(359.3 264.7)" style="fill:#fff;fill-rule:evenodd"/><path d="M112.8-115.1c-25.6-7.9-40.6-8.4-40.6-8.4s22.4,5.8,42.6,17.9A45.7,45.7,0,0,1,112.8-115.1Z" transform="translate(359.3 264.7)" style="fill:#fff;fill-rule:evenodd"/><path d="M149.2,25c-5-1.9-8.8-16.9-8.8-16.9s-6.1,8.2-7.1,12.9,1.4,16.6,1.4,16.6-3.7-4.1-5.2-14.6S131.3,5,141-11.9s15.3-24.5,11.6-39.6c-1.7-6.9-7.9-14.4-14.9-22.2-51.9-2.6-234.5,1.2-287.8,5.1-5.1,6-9.2,11.7-10.5,17.1-3.7,15.1,1.9,22.8,11.6,39.6s13.1,24.3,11.6,34.8-5.2,14.6-5.2,14.6,2.4-11.9,1.4-16.6S-148.5,8-148.5,8s-3.8,15.1-8.8,16.9-14.4,5-8.4,15.5,32.3,27.9,42.3,25.1,23-12.7,38.1-8,22.6,13.8,26,24.3S-56,96.4-56,96.4s-9-21.5-17.6-25.4l-8.8-4.1s6.2,9.5,6.2,19.1-.7,17.6-.7,17.6,4.1,2.8,5.4,5.8l1.3,3,1.9-2.8a24.9,24.9,0,0,1,.7-5.4l.7-3s.7,6.5,2.6,10.1,4.5,6.7,5.2,8.4a10.4,10.4,0,0,1,.7,1.9s1.1-8.8,3.9-8.8,6.9,11.6,6.9,11.6,1.5-7.9,7.5-7.9,7.9,11.8,7.9,11.8,1.1-6.9,6.2-6.4,7.5,8.2,7.5,8.2,3-4.7,7.1-4.1,7.2,6.5,7.2,6.5,3.1-6,7.2-6.5,7.1,4.1,7.1,4.1,2.4-7.7,7.5-8.2,6.2,6.4,6.2,6.4,1.9-11.8,7.9-11.8,7.5,7.9,7.5,7.9,4.1-11.6,6.9-11.6,3.9,8.8,3.9,8.8a10.4,10.4,0,0,1,.7-1.9c.7-1.7,3.4-4.9,5.2-8.4s2.6-10.1,2.6-10.1l.7,3a24.8,24.8,0,0,1,.7,5.4l1.9,2.8,1.3-3c1.3-3,5.4-5.8,5.4-5.8s-.7-8-.7-17.6,6.2-19.1,6.2-19.1L65.5,71c-8.6,3.9-17.6,25.4-17.6,25.4s0-4.1,3.4-14.6,10.8-19.6,26-24.3,28.2,5.2,38.1,8,36.3-14.6,42.3-25.1S154.3,26.8,149.2,25ZM29.5-54c7.2-7,27.3-14.1,27.3-14.1s-18,10.4-25.3,19.4A86,86,0,0,0,20.2-30.2S22.3-47,29.5-54Zm-67,0c7.2,7,9.2,23.8,9.2,23.8A86,86,0,0,0-39.6-48.7c-7.3-9-25.3-19.4-25.3-19.4S-44.7-61-37.5-54ZM-33,26.1C-40.5,28.7-45.9,36-45.9,36a38.6,38.6,0,0,1,.6-3.9c.6-3.4,5.8-10.7,5.8-10.7a99,99,0,0,1-14,7.1c-7.5,3-26.9,2.1-40.9-5.6s-33.1-5-33.1-5l3.2-3c3.2-3,9.3-3.9,9.3-3.9s-7.3-6.7-10.5-19.4.6-26.6.6-26.6-5.2-1.5-9.7.7-9.5,12.9-9.5,12.9a39,39,0,0,1,3.7-15.3c3.7-7.7,16.3-15.1,34.6-8.2S-52.8,1.2-41,5.9-18,2.5-20.6-7.4a38.5,38.5,0,0,0-9.2-16.3C1.2,1-22.7,12.8-22.7,12.8S-25.5,23.5-33,26.1ZM23.2,75.6C21.9,97.9,1.1,101.1,1.1,101.1a30,30,0,0,0,2.2-12C3.4,81.8-4,64.2-4,64.2s-7.4,17.6-7.4,24.9a30,30,0,0,0,2.2,12S-30,97.9-31.3,75.6-10,26.1-4,25.7,24.5,53.4,23.2,75.6ZM126.6-34.3c-4.5-2.2-9.7-.7-9.7-.7s3.7,13.8.6,26.6S107,10.9,107,10.9s6.2.9,9.3,3.9l3.2,3s-19.1-2.6-33.1,5-33.5,8.6-40.9,5.6a99.1,99.1,0,0,1-14-7.1s5.2,7.3,5.8,10.7a38.6,38.6,0,0,1,.6,3.9s-5.4-7.3-12.9-9.9S14.6,12.8,14.6,12.8-9.3,1,21.7-23.7A38.5,38.5,0,0,0,12.6-7.4C9.9,2.5,21.2,10.6,32.9,5.9S79.5-38.1,97.8-45s30.9.6,34.6,8.2a39,39,0,0,1,3.7,15.3S131.1-32.1,126.6-34.3Z" transform="translate(359.3 264.7)" style="fill:#fff;fill-rule:evenodd"/><path d="M-22.5,161.9a41.1,41.1,0,0,1-6.7-1.4,13.5,13.5,0,0,1-4.9-3.1s1.5-29.8,7.4-31.9,6.4,11.8,6.4,11.8-3.2,13.4-2.2,24.6m-11.6-27.9s-2.2-11.2-6.6-12.3-6.5,16.6-7,23.4.4,8.6.4,8.6a19.3,19.3,0,0,0,5.2,2.6,8,8,0,0,0,5,.1S-35.8,141.5-34.1,134.1ZM-48.9,131s-2.8-12.4-5-13.1-5.9,15-6,19.6a94,94,0,0,0,.6,10.4s3.3,3.3,6.1,3.5l2.8.3S-50.8,138.7-48.9,131Zm-13.2,13.8a50.8,50.8,0,0,1-.1-12.8,49.2,49.2,0,0,1,1.4-7.9s-3.6-5.4-4.9-7.9l-1.2-2.5s-3.8,8.4-4.4,14.7A41.3,41.3,0,0,0-70.2,141,9.1,9.1,0,0,0-62.2,144.8Zm-11.2-7.7s-.2-10.1.4-15.4,1.8-7.4,1.8-7.4-3.5-6-5.9-5.9-4.4,14.3-3.7,18.7a38.1,38.1,0,0,0,2.3,8.3S-75.7,138.1-73.4,137.1Zm68,33.3a91.6,91.6,0,0,1-10.6-2,14,14,0,0,1-4.6-2.1s-.7,27.1,9,28.5S-5.4,170.4-5.4,170.4Zm-18-4.8a78.1,78.1,0,0,1-8.2-2.4,13,13,0,0,1-3.4-1.9s-.7,22.3,4.9,25.7,7.8-4.5,7.8-4.5S-24.5,173.1-23.4,165.7Zm-14.6-5.4-7.2-2a20.5,20.5,0,0,1-4.7-1.6s.7,20.8,6,23,6.5-3.8,6.5-3.8S-38.7,166.8-37.9,160.3ZM-53,155.3s-6-2.2-7.7-3.5l-1.8-1.2s.7,23.3,5.7,24.3,6.2-3.3,6.2-3.3A144.6,144.6,0,0,1-53,155.3Zm-12.6-6a45.8,45.8,0,0,1-5.5-3.6l-3.8-2.9s-1.3,10.9,1.7,18,5.2,8,7.1,8.6,3-.8,2.9-1.3S-66.1,154.4-65.6,149.4Zm62.8,18.4a28.1,28.1,0,0,0,9-1.6c4.7-1.7,6.2-3.9,6.2-3.9s-.8-31.5-7.7-32.4S-3.1,147.6-2.8,167.7Zm17.3-5.8a41.1,41.1,0,0,0,6.7-1.4,13.5,13.5,0,0,0,4.9-3.1s-1.5-29.8-7.4-31.9-6.4,11.8-6.4,11.8S15.4,150.8,14.4,161.9ZM26,134.1s2.2-11.2,6.6-12.3,6.5,16.6,7,23.4-.4,8.6-.4,8.6a19.3,19.3,0,0,1-5.2,2.6,8,8,0,0,1-5,.1S27.7,141.5,26,134.1ZM40.8,131s2.8-12.4,5-13.1,5.9,15,6,19.6a94,94,0,0,1-.6,10.4s-3.3,3.3-6.1,3.5l-2.8.3S42.7,138.7,40.8,131Zm13.2,13.8a50.8,50.8,0,0,0,.1-12.8,49.1,49.1,0,0,0-1.4-7.9s3.6-5.4,4.9-7.9l1.2-2.5s3.8,8.4,4.4,14.7A41.3,41.3,0,0,1,62.1,141,9.1,9.1,0,0,1,54.1,144.8Zm11.2-7.7s.2-10.1-.4-15.4-1.8-7.4-1.8-7.4,3.5-6,5.9-5.9,4.4,14.3,3.7,18.7a38.1,38.1,0,0,1-2.3,8.3S67.6,138.1,65.3,137.1Zm-68,33.3a91.6,91.6,0,0,0,10.6-2,14,14,0,0,0,4.6-2.1s.7,27.1-9,28.5S-2.7,170.4-2.7,170.4Zm18-4.8a78,78,0,0,0,8.2-2.4,13,13,0,0,0,3.4-1.9s.7,22.3-4.9,25.7-7.8-4.5-7.8-4.5S16.4,173.1,15.3,165.7Zm14.6-5.4,7.2-2a20.5,20.5,0,0,0,4.7-1.6s-.7,20.8-6,23-6.5-3.8-6.5-3.8S30.6,166.8,29.8,160.3Zm15.1-4.9s6-2.2,7.7-3.5l1.8-1.2s-.7,23.3-5.7,24.3-6.2-3.3-6.2-3.3A144.4,144.4,0,0,0,44.9,155.3Zm12.6-6a45.8,45.8,0,0,0,5.5-3.6l3.8-2.9s1.3,10.9-1.7,18-5.2,8-7.1,8.6-3-.8-2.9-1.3S58,154.4,57.5,149.4ZM-5.3,167.7a28.1,28.1,0,0,1-9-1.6c-4.7-1.7-6.3-3.9-6.3-3.9s.8-31.5,7.7-32.4S-5,147.6-5.3,167.7Z" transform="translate(359.3 264.7)" style="fill:#fff;fill-rule:evenodd"/><path d="M-102.3,67.4s10.1,1.9,13.3,13.8-9,45.8-2.2,69.6,15.5,28.6,15.5,28.6-7.9-12.5-8.4-17,0-6.2,0-6.2a7,7,0,0,0,3.6,3.7,11.4,11.4,0,0,0,3.4,1.1s3,10.7,8,12.5,6.7.9,6.7.9,3.9,4.5,7.5,4.9,4.9-1.9,4.9-1.9a13.1,13.1,0,0,0,7.1,5.6c4.7,1.3,6.2-.9,6.2-.9s2.6,8.2,7.9,9.2,7.1-2.2,7.1-2.2,4.9,7.7,9.7,8.8,8.2-3,8.2-3,3.3,4.1,8.2,3,9.7-8.8,9.7-8.8,1.9,3.2,7.1,2.2,7.9-9.2,7.9-9.2,1.5,2.2,6.2.9a13.1,13.1,0,0,0,7.1-5.6s1.3,2.2,4.9,1.9,7.5-4.9,7.5-4.9,1.7.9,6.7-.9,8-12.5,8-12.5a11.4,11.4,0,0,0,3.4-1.1,7,7,0,0,0,3.6-3.7s.6,1.7,0,6.2-8.4,17-8.4,17,8.8-4.9,15.5-28.6S77.8,93.2,81,81.2,94.3,67.4,94.3,67.4c-.6,74.6,31.2,92.7,24.3,107.1s-44.7,30.1-64.1,44.1-30.1,30.5-40.6,30.7l-17.9.2-17.9-.2c-10.5-.2-21.1-16.6-40.6-30.7s-57.2-29.7-64.1-44.1,24.9-32.5,24.3-107.1" transform="translate(359.3 264.7)" style="fill:#fff;fill-rule:evenodd"/><path d="M92.5,81.6s2,33.6,9.8,53,14.6,28.1,14.2,35.7S95.6,192,84.2,197.8l-11.4,5.8s23.1-21.6,27.8-34.4-.5-21.5-4.2-32.5-7.4-38.5-4-55m-193,0s-2,33.6-9.8,53-14.6,28.1-14.2,35.7,20.9,21.6,32.3,27.4l11.4,5.8s-23.1-21.6-27.8-34.4.5-21.5,4.2-32.5S-97.2,98.1-100.6,81.6ZM68.7,57.4c19.6-8.2,31.1-1.6,36.3.8s11.5,6.2,22.7.9S143.7,48,143.7,48s-15.2,7.1-28.5,3.7S90.6,42.5,73,46.6,50.3,62.7,50.3,62.7s1.4-6.3,5-10.6l3.5-4.3c-15.9,6.4-22.5,44.4-12.9,56.4C44,85.9,49.9,65.3,68.7,57.4ZM67,73A55.9,55.9,0,0,0,56,88.1c-5,9.7-6.5,23.8-6.5,23.8l1.6,3.1s5.4-7.3,6.1-12.8S60,94.5,60,94.5a51.1,51.1,0,0,1,1.7,7.5,28.9,28.9,0,0,1,.1,4.5l.5,1.8a44.2,44.2,0,0,1,2.5-4.2c1-1.4,2-2.5,2-2.5S62,86.9,67,73ZM-75.1,73a55.9,55.9,0,0,1,11,15.1c5,9.7,6.5,23.8,6.5,23.8l-1.6,3.1s-5.4-7.3-6.1-12.8S-68,94.5-68,94.5a51,51,0,0,0-1.7,7.5,28.8,28.8,0,0,0-.1,4.5l-.5,1.8a44,44,0,0,0-2.5-4.2c-1-1.4-2-2.5-2-2.5S-70.1,86.9-75.1,73Zm-1.7-15.6c-19.6-8.2-31.1-1.6-36.3.8s-11.5,6.2-22.7.9S-151.7,48-151.7,48s15.2,7.1,28.5,3.7,24.6-9.2,42.2-5.1,22.7,16.1,22.7,16.1-1.4-6.3-5-10.6l-3.5-4.3c15.9,6.4,22.5,44.4,12.9,56.4C-52.1,85.9-58,65.3-76.8,57.4ZM44.2,221.8s-16.1,13.1-20,17.3-10.7,7.3-16.9,6.5-26,.5-30.3-1S-39,229.3-43.5,226.4l-4.4-2.9s16.9,2.7,24.6,8.5,17.4,5.4,24.7,3.7,19.5-6.8,19.5-6.8-1,3.7-3.4,5.5l-2.5,1.8s6.1-.5,9.1-4.2S38.7,223.5,44.2,221.8Z" transform="translate(359.3 264.7)" style="fill:#050000;fill-rule:evenodd"/><path d="M-24.6,131.5l1.7,6.5a116,116,0,0,0-1.4,12.5c-.4,6.8-.4,8.5-.4,8.5l-5.1-1s-.8-15,5.2-26.5m-14.5-2.4,2,5.6s-.8,5.7-1.3,12-.7,7.1-.7,7.1a2.7,2.7,0,0,1-2.5.1,10,10,0,0,1-2.1-.8S-45,139.5-39.1,129.2Zm-3.1,32.4,2.5.8s0,4.7.3,7.7.7,5.1.7,5.1l-1,2.1A28.1,28.1,0,0,1-42.2,161.6Zm11.5,4.4a19.3,19.3,0,0,0,3.5,1.2l1.8.4a55.4,55.4,0,0,0,.3,8.8,52.3,52.3,0,0,0,1.3,5.7,4.3,4.3,0,0,1-1.2,2.4l-1.2,1.4S-28.7,179.7-30.7,166Zm16.1,5.5a18.1,18.1,0,0,0,4.2.9l2.9.3s1,8,.4,12.2a16.4,16.4,0,0,1-2.6,6.8S-11.2,176.7-14.6,171.5Zm3.7-36.2a76.5,76.5,0,0,1,3.1,17.6c.5,9.7.5,11.4.5,11.4a34.5,34.5,0,0,1-6.1-1l-1.7-.7S-12.9,147.3-11,135.3Z" transform="translate(359.3 264.7)" style="fill:#fff;fill-rule:evenodd"/><path d="M16.6,131.5,14.9,138a115.8,115.8,0,0,1,1.4,12.5c.4,6.8.4,8.5.4,8.5l5.1-1s.8-15-5.2-26.5m14.5-2.4-2,5.6s.8,5.7,1.3,12,.7,7.1.7,7.1a2.7,2.7,0,0,0,2.5.1,10.1,10.1,0,0,0,2.1-.8S37,139.5,31.1,129.2Zm3.1,32.4-2.5.8s0,4.7-.3,7.7-.7,5.1-.7,5.1l1,2.1A28.1,28.1,0,0,0,34.2,161.6ZM22.7,166a19.3,19.3,0,0,1-3.5,1.2l-1.8.4a55.3,55.3,0,0,1-.3,8.8,52.4,52.4,0,0,1-1.3,5.7,4.3,4.3,0,0,0,1.2,2.4l1.2,1.4S20.8,179.7,22.7,166ZM6.7,171.5a18.1,18.1,0,0,1-4.2.9l-2.9.3s-1,8-.4,12.2a16.5,16.5,0,0,0,2.6,6.8S3.3,176.7,6.7,171.5ZM3,135.3A76.4,76.4,0,0,0-.1,152.9c-.5,9.7-.5,11.4-.5,11.4a34.5,34.5,0,0,0,6.1-1l1.7-.7S5,147.3,3,135.3Z" transform="translate(359.3 264.7)" style="fill:#fff;fill-rule:evenodd"/><path d="M-4,126.1c0,.8-2.6-3.9-6.8-4.8s-5.4.3-5.4.3l-1-12.2-3.9,8.9a4.1,4.1,0,0,0-3.5-.9l-3.8.3,4.3-14.9-8.1,14s-2-3.4-3.9-3.7l-3.4-.5s4.8-10.3,5.9-13.3S-35,90.1-35,90.1l3.7-1.2s4.4,9,12.7,12.3,12.2,1.7,12.2,1.7S-12.3,86.9-4,75.7c8.2,11.2,2.5,27.2,2.5,27.2s3.9,1.6,12.2-1.7S23.3,88.9,23.3,88.9l3.7,1.2s-2.4,6.1-1.3,9.1,5.9,13.3,5.9,13.3l-3.4.5c-2,.3-3.9,3.7-3.9,3.7l-8.1-14,4.3,14.9-3.8-.3a4.1,4.1,0,0,0-3.5.9l-3.9-8.9-1,12.2s-1.2-1.2-5.4-.3S-4,127-4,126.1" transform="translate(359.3 264.7)" style="fill:#fff;fill-rule:evenodd"/><path d="M-15.5,201.3c-4.7-1.3-7.6-6.3-7.6-6.3s-9.4,2.4-12.7-.5a10.7,10.7,0,0,1-3.4-7.1,7.7,7.7,0,0,1-5.8.1c-3.1-1.2-3.8-2.4-3.8-2.4s-5.6,3.9-9.9,3.8a12.4,12.4,0,0,1-7.4-3.1s-3.7,1.7-9.1,0-6-4.2-6-4.2-.7,3.1,2,8,12.2,3.3,24.6,6.3A155.1,155.1,0,0,1-23.5,207c8,3.9,19.5,4.6,19.5,4.6S7.5,211,15.4,207a155.1,155.1,0,0,1,31.2-11.1c12.4-3,22-1.4,24.6-6.3s2-8,2-8-.5,2.5-6,4.2-9.1,0-9.1,0a12.4,12.4,0,0,1-7.4,3.1c-4.3.1-9.9-3.8-9.9-3.8s-.7,1.2-3.8,2.4a7.7,7.7,0,0,1-5.8-.1,10.7,10.7,0,0,1-3.4,7.1c-3.3,2.9-12.7.5-12.7.5s-2.9,5-7.6,6.3-9.2-.8-11.5-2.1c-2.3,1.2-6,3.6-11.5,2.1" transform="translate(359.3 264.7)" style="fill:#fff;fill-rule:evenodd"/><path d="M123.6-218.3C89.1-249.6,42.1-264.7-4-264.7s-93.2,15.1-127.7,46.5a163.5,163.5,0,0,0-47,73.6,165.7,165.7,0,0,0-1.9,87.2h0l5.8,26.7,8,9.2-1-30.7,2.1-.9a28.7,28.7,0,0,1,5-1.3c3.9-.8,7.8-1.3,11.7-1.8,12.4-1.5,24.9-2.4,37.4-3.1,16.8-1.1,33.7-1.8,50.6-2.4q28.6-1,57.2-1.4t55.3-.2c16.5.2,32.9.5,49.4,1.3,12.5.6,25.1,1.3,37.6,3,5.3.7,13.8,1.9,18.6,4.2l1.8.9.3,31.4,8.6-9.7,5-26.6h0C185.9-118,168.7-177.2,123.6-218.3ZM162.9-84.7c-1.2-4.3-2.7-9.2-4.5-14.4-10.5-30.3-26-41.7-26-41.7s8.7,18.6,13.3,32.2S150.7-93,150.7-93s-8.3-13-35.6-21.6-43.3-9.3-43.3-9.3,26.3,6.8,47.6,21,31.2,30.3,31.2,30.3c-13.2-5.5-277.7-.1-312.3,4.6,0,0,24.1-26.3,47.6-35.6a254.7,254.7,0,0,1,41.4-12.7s-27.8,0-51.6,8-34,19.8-34,19.8,2.2-14.5,10.5-32.8c0,0-10.5,9.9-16.7,27.5a149.7,149.7,0,0,0-5.7,21.1C-195.4-309.6,174.7-313.6,162.9-84.7Z" transform="translate(359.3 264.7)" style="fill:#050000;fill-rule:evenodd"/><path d="M125.3-55.1c-3.9-1.9-10.8-3.1-19.2-2-19.3,2.6-61.8,34-74.6,47.4-8,8.5-11.2,17.1-8.4,24.4,3.4,8.9,15.6,15.8,38.5,17.8,17.8,1.6,41.6-3.3,50.2-5.9,20.8-6.3,41.8-67.9,13.5-81.7" transform="translate(359.3 264.7)" style="fill:#050000;fill-rule:evenodd"/><path d="M112.6,12.6l-3-4.7a26.5,26.5,0,0,1-2.7,3.1,26.2,26.2,0,0,1,5.7,1.6M38.9-55.8A286.2,286.2,0,0,1,65.4-30.5l4.7,5.4c3.5-3.1,7-6,10.3-8.7l-4.6-6a233.9,233.9,0,0,0-22.8-25H51.5A142.5,142.5,0,0,0,38.9-55.8ZM27.9-65l7.8,6.4a110.9,110.9,0,0,1,12.9-6.3Zm99,128.6a72.2,72.2,0,0,0,10.9-5.6,421.2,421.2,0,0,0-22.2-40.5,73.1,73.1,0,0,0-13.5.5A358,358,0,0,1,126.9,63.7Z" transform="translate(359.3 264.7)" style="fill:#050000;fill-rule:evenodd"/><path d="M-55.4,6.5A21.9,21.9,0,0,1-71.8,16.6,21.9,21.9,0,0,1-95.7-3.1,21.8,21.8,0,0,1-92-17.5c3.5,1.9,7.2,3.9,10.7,6.1a9.6,9.6,0,0,0-2.2,7.1A9.6,9.6,0,0,0-73,4.4a9.6,9.6,0,0,0,7.5-5l10,7.1" transform="translate(359.3 264.7)" style="fill:#fff;fill-rule:evenodd"/><path d="M39.1-9.1C58-28.3,97.7-54.9,119.2-50.4s11.3,36.3,11.3,36.3,4-28-18.9-26.5C85.7-38.9,53.2-18.2,39.1-9.1" transform="translate(359.3 264.7)" style="fill:#fff;fill-rule:evenodd"/></svg>