<svg xmlns="http://www.w3.org/2000/svg" viewBox="0 0 378.36 389.52"><defs><style>.a{fill:#fff;}.b{fill:#1e4ca0;}</style></defs><title>Pirate992_3c</title><path d="M384.34,162.87l0-.08L372.49,152.6c5.37-16.24,5.46-24,5.46-24L357.64,52.49,317.37,96.21s-1.21,14.76-4.74,36.42l-20.19,9.81v8l-8,.69-5.9-14.22L273,139l-1.73,4.86s-10.06-12.49-12.14-13.18S246.3,141,246.3,141V131c8.43-3.72,31.45-15,45.31-33.06,17.21-22.37,21.34-38.55,21.34-38.55s-16.52-10.67-27.19-10-22.37,21.34-31.67,24.09c-2.93.87-5.38-.08-7.65-2,2.14-3.36,4.93-7.9,7-11.8,3.79-7.23,4.47-12.22,4.47-12.22l-3.79,3.61,2.41-6-5.16,2.75a18.12,18.12,0,0,0,5.51-7.92A22.33,22.33,0,0,0,258,32.87l-4.13,3.44s3.1-6.71,3.61-11.19a46.74,46.74,0,0,1,.69-5s-1.89-4.65-9.64-11.36-12-8.78-12-8.78,3.1,5.34,1.2,14.11a35.47,35.47,0,0,1-7.92,15.15l6.88,15-5.16-5.16,3.1,6.54-3.27-1.72s4,7.74,4.3,14.63v.19A25.51,25.51,0,0,0,231,54.56c-9.29-6.2-22.37-8.95-22.37-8.95s-2.32,8.69-6.88,9.29-4.73.43-8.78,0-5.08-9-5.08-9-14.89,2.5-24.18,8.69S150,76.24,140.67,73.49s-21-23.41-31.67-24.09-27.19,10-27.19,10,4.13,16.18,21.34,38.55c13.89,18.05,32.93,31,39.76,35.26h-.43s-3-1.29-5.11-.68-2.92,3.71-2.92,3.71-7.44-7.09-14.63-5.9-19,7.26-19,7.26,8.6,2.06,13.73,4,6.8,3.73,6.8,3.73a93.12,93.12,0,0,1-12.26,3,111,111,0,0,1-13.93,1.21s7.42,5.84,20.45,8.21,22.8-6.08,22.8-6.08a5.66,5.66,0,0,1,1,1.46s7.13,4,6.78,9.87a37.89,37.89,0,0,1-2.75,11.36l-12.6-4.09a12.92,12.92,0,0,1-2.13,4.1c-3.12,4.16-4.51,5.2-4.51,5.2S105.11,169.84,91.58,156c-2.59-2.66-5.17-5.47-7.51-8.15-5.61-29.67-7.41-51.61-7.41-51.61L36.38,52.49,16.07,128.56s.07,6.86,4.51,21.09L6,162.79s11.56,72.16,74,131.83a488.85,488.85,0,0,0,58.57,48c-4.29,4.25-5.31,11.88-1.26,16.43,6.2,7,21.17,3.87,21.17,3.87S156.16,386.72,183,389.3s46.73-18.07,46.73-18.07,6.07,11.36,13.68,1.29c8-10.58-7-13.94-7-13.94l3.41-7.91a479.36,479.36,0,0,0,70.51-56.06c62.44-59.67,74-131.83,74-131.83l0,.08Z" transform="translate(-6)"/><path class="a" d="M257.94,310.48s44.74-48.17,75.21-115,23-110.1,23-110.1l9.73,43.91S357.15,182,324.73,231.5s-66.78,79-66.78,79Z" transform="translate(-6)"/><path class="a" d="M235.78,154.77a26.86,26.86,0,0,0-8,5.19c-5.38,4.86-13.7,9-13.7,9a87.69,87.69,0,0,0,14.4-13.53,71.18,71.18,0,0,0,10.93-17s-6.24,1.39-14.92,7.81-16.83,12.84-16.83,12.84h-4.51l2.08-2.6-2.25-1c-2.25-1-6.76-2.6-6.76-2.6L195.65,177s1.91-.17,5.38-2.26,7.29-7.63,7.29-7.63.17,1.73-2.95,7.81a34.9,34.9,0,0,1-1.87,3.24s6.71-1.37,9.47,0,5.34,5.85,9.64,8.95,6.88,3.1,6.88,3.1A47.52,47.52,0,0,0,233.27,175c.34-7.57,0-12.56.69-15.49a17.61,17.61,0,0,1,1.82-4.77Z" transform="translate(-6)"/><path class="b" d="M118.64,205.57s15.61,33.65,51.69,62.79,52.73,35,52.73,35a80.19,80.19,0,0,1-10.75,12.84c-6.24,5.9-10.06,9-10.06,9s-23.94-17-37.81-32.61a111.19,111.19,0,0,1-19.77-31.57s2.43,15.61,13.88,35,22.76,30,22.76,30-20.68-13-41.15-50.83-21.51-69.73-21.51-69.73Z" transform="translate(-6)"/><path class="b" d="M277.87,144.52s-8.67,50-27.41,83.61a280.53,280.53,0,0,1-41.28,56.2l16.3,13.88s41.28-46.83,50-91.58,2.43-62.1,2.43-62.1Z" transform="translate(-6)"/><polygon class="a" points="198.32 151.1 218.03 138.97 202.55 152.15 198.32 151.1 198.32 151.1"/><path class="a" d="M178.88,342l5.51-3.1S121.94,285.8,97.44,223.42,70.12,105.06,70.12,105.06L40,74.34s6.91,96.93,45.23,160.59,93.69,107,93.69,107Z" transform="translate(-6)"/><path class="a" d="M131.68,304.36s-45.63-46-72.87-112.29C34,131.66,34.31,90.7,34.31,90.7l-7.23,36.75S35.57,179,67,227.26s64.7,77.1,64.7,77.1Z" transform="translate(-6)"/><path class="a" d="M189.9,329.92a11.94,11.94,0,0,1,3.44,6.54,18.59,18.59,0,0,1,.34,5.85l-12,7.23s-.34,3.44,3.79,5.51a36.33,36.33,0,0,1,5.85,3.44s2.07,2.75,7.57,2.75S203,363,203,363s0,4.13,12.39.69,18.93-15.15,18.93-15.15-14.11,1.38-25.13-6.54-13.42-12.39-13.42-12.39l-5.85.34Z" transform="translate(-6)"/><path class="b" d="M169.73,346.22l7.5,4S171.8,365.05,188,369.6,225.48,363,225.48,363l.13,3.09S197.31,384.8,177.75,376s-11.26-25.16-11.26-25.16-17,9.84-23.64,4,2.34-14.12,8.87-11.39,3,7.95,3,7.95,3.54,1,8.71-.89,6.3-4.28,6.3-4.28Z" transform="translate(-6)"/><path class="a" d="M243.25,155.41c.69,0,6.54,3.1,7.4,8.26s-4.82,7.4-4.82,7.4,3.61,2.93,8.61,0,2.75-10.5-2.58-15-8.61-.69-8.61-.69Z" transform="translate(-6)"/><path class="b" d="M199.19,186.39s6.88-5.34,9.64-5.68,5.85,8.78,15.66,13.25,15.83.86,15.83.86-2.07,5.16-12,6.71-12.91-2.06-16.18-6.54-5.51-8.61-8.26-8.78a21.23,21.23,0,0,0-4.65.17Z" transform="translate(-6)"/><path class="a" d="M196.26,191.55a16.58,16.58,0,0,0,5.85-.17,8.29,8.29,0,0,0,3.61-1.55s1.72,3.44,1.55,4.65-9.64,3.44-11.19,2.75.17-5.68.17-5.68Z" transform="translate(-6)"/><path class="b" d="M197,202.57a14.58,14.58,0,0,0,6.37-1.38,10.49,10.49,0,0,0,4.47-3.61s.34,6.54,4.3,9.81S224,216.68,224,216.68s-7.06-2.07-8.95-1.89a30.45,30.45,0,0,0-3.44.52,7.41,7.41,0,0,1,5.68,5.85c1.2,5.16-4.3,10-3.79,15.49s3.61,7.06,3.61,7.06-5.16-1-7.57-4.47a10,10,0,0,1-1.72-7.06,16.52,16.52,0,0,0-3.1,9.81c0,6,3.79,11.53,3.79,11.53s-10-10.15-9.64-20,3.61-15,3.61-15l-5.51,3.1a11.1,11.1,0,0,0,3.1-9.12,30,30,0,0,0-3.1-10Z" transform="translate(-6)"/><path class="b" d="M198.5,121.33l-.34,7.4s7.92-2.93,13.25-3.27,10.33-1,10.33-1l-22.55,8.26-.34,9.47s9.64-1.89,27-8.61,18.24-8.61,18.24-8.61l-15,2.24s8.95-2.07,12-4.3l3.1-2.24s-8.43.69-21.17.52-24.61.17-24.61.17Z" transform="translate(-6)"/><path class="b" d="M191,79.25A13.83,13.83,0,0,0,205.47,87c10.58-1.29,22.72-22.46,22.72-22.46s3.1,5.16-3.61,18.59-23.23,18.07-27.88,24.27-2.58,8.52-2.58,8.52,15.75-6.45,30.46-4.39,22.2,7,22.2,7a79.18,79.18,0,0,0,31.49-21.94c13.68-16,20.91-36.4,20.91-36.4s-20.39,24.78-44.92,34.59-27.62,9.55-27.62,9.55,14.46-5.68,22.46-10.84S258.91,87,258.91,87a22.67,22.67,0,0,1-16.26-9.29c-6.71-9-9.55-14.71-14.46-17.55s-7-2.07-7-2.07S220.44,79.25,206,81.32s-15-2.07-15-2.07Z" transform="translate(-6)"/><path class="b" d="M202.37,59.89s1.81,2.07,1.81,7.49a23.26,23.26,0,0,1-2.32,9.81s3.87,2.07,9-3.1a19.33,19.33,0,0,0,5.68-10.84s-2.07-2.58-7-3.61-7.23.26-7.23.26Z" transform="translate(-6)"/><path class="a" d="M242.9,10.33l11.36,10.84S255,24,252.45,31.75a59.82,59.82,0,0,1-7,13.94l8.26-5.42-3.61,7.23L245,54l7-2.84-11.1,11.62s3.87-19.88,3.87-32.27a97.54,97.54,0,0,0-1.81-20.14Z" transform="translate(-6)"/><path class="a" d="M240.67,69,253.4,53.7s-2.41,5.85-4,8.61-7.74,10.33-7.74,10.33l-1-3.61Z" transform="translate(-6)"/><path class="b" d="M106.08,81.32A31.69,31.69,0,0,0,129.49,97.5c16.87,2.41,23.06-10.67,32-24.09s25.9-16.35,25.9-16.35l-3.61-5.94a42.15,42.15,0,0,0-21.94,11.27c-9.64,9.64-11,28.23-26.16,31.67s-29.6-12.74-29.6-12.74Z" transform="translate(-6)"/><path class="a" d="M321.49,106.33s-2.92,57.34-28.21,121.24c-16.3,41.18-43.77,72.69-61.24,89.9l15.59-2.64a415.44,415.44,0,0,0,58.29-75.46c39.55-65.21,46.68-164.5,46.68-164.5l-31.12,31.46Z" transform="translate(-6)"/></svg>