<svg id="Layer_1" data-name="Layer 1" xmlns="http://www.w3.org/2000/svg" viewBox="0 0 455.7 509.5"><title>Polarbear300_3c</title><path d="M-76.2-189.8c15.7-3.9,39.2-3,54.3-.2,20.3-7.6,44.1-10.5,65.1-3.8,8.5-13.4,23-21.9,39.8-18,20.2,4.6,30.6,24,28.4,43.8L110-153.9c38.2,8.8,77.6,30.4,104.9,57l1.4,1.4.7,1.8c12.8,31.2,20.2,65.6,22.5,99.2,3.4,50.7-4.8,107.3-33.6,150.3l-12.2,18.3-4.8-21.5-1.1-4.9A277.2,277.2,0,0,1,126,238c-24.9,24.3-57,46.2-90.1,57.5l-3.5,1.2-3.4-1.6c-63.6-29-124.5-68.7-166.3-124.3l4.3,13.7-27-26.4C-187.7,131.1-201.3,88-205.8,47l-4.1,10-4.4-35.7A155.4,155.4,0,0,1-215.4-.8,181.5,181.5,0,0,1-205.3-56c11.4-33.2,32.3-65.4,58.9-88.9-3.1-14.2-.2-28.2,10.5-38.8a46.8,46.8,0,0,1,16.1-10.2c13.5-5.2,31.8-5.3,43.6,4.1" transform="translate(215.5 212.8)" style="fill:#fff;fill-rule:evenodd"/><path d="M-21-180.2c-20.4-4.4-47.2-3.2-57.8,1.2-14.9-19.3-68.4-7-58.1,33.5,1.4-2.9,2.6-6.4,5.3-8.5a54.2,54.2,0,0,0-2.4,10.9c-44,35.3-78.8,100.8-71.1,163.4a89,89,0,0,1,7.1-14.4C-200,63-184.6,121-153.4,151.5c-4.4-13.8-7.3-27.2-7.7-39.6,31.9,73,97.4,130.8,193.9,174.8,50.6-17.3,127.9-72.7,157.2-173l8.2,36.7c43-64.2,40.6-166.7,10.2-240.6-28.2-27.3-71.2-50.3-111.7-56.7,3.7-6.5,5.4-14.6,2.8-25.8a24,24,0,0,1,2.6,3.7c3.8-35.7-39.8-49-54.4-12.9C25.8-192.2-.9-188.2-21-180.2" transform="translate(215.5 212.8)" style="fill:#26406a;fill-rule:evenodd"/><path d="M-75.8-171.4C-15.4-179.6-.5-157.8,29.4-130,24.3-146.9,9.9-161.8-10-175.5,49.9-186.7,91.2-146.7,110-103.8c20.8,47.4,26.1,27.3,55.3,72.7-6.9-3.4-14.2-5.5-22.7-3.9,12.7,19.2,16.9,40.7,17,63.4a61.8,61.8,0,0,0-11.1-11.7C146,90.2,119.4,116,89.7,136a64.1,64.1,0,0,1-2.4-13.6A71.8,71.8,0,0,0,96.9,111a7.2,7.2,0,0,1-.1,5.6c44-24.5-44.4-37.8-84.2,5a79,79,0,0,1,29.6-8.2C22.4,129,2.3,142.2-19.2,143.1c-35.4-12.9-66.5-31.2-80.8-71-3.1,12.8-1.2,27.1.7,41.5C-117.6,85.6-127.5,51.9-126,10.4a204,204,0,0,0-12.2,29c-5.5-24.3-2.9-61.5,9.2-91.4-29.6,30.9-36.7,126.2,4.8,182.4a83.3,83.3,0,0,1-1.5-29.3c12.6,39.1,30.6,73.1,51.2,104.7-46.9-38.3-76.3-84.2-92.1-136.1-3.6,9.4-4.7,19.5-5.3,29.7-24.4-70.2-17.5-109.8-2.2-141.2-9.1,6-15.9,13.7-21.6,22.1,10.5-38.9,26.2-76.6,62.9-108.9,2.7,10.9,8.3,17,17.2,16.8-5,8.8-7.9,18.6-6.7,26.4,9.4-17.4,18.8-33.7,28.5-44.3a36.4,36.4,0,0,0-10.4,1c6.7-9,13.4-17.7,37.3-34a18.9,18.9,0,0,0-8.6.7,20.2,20.2,0,0,0-.3-9.4" transform="translate(215.5 212.8)" style="fill:#fff;fill-rule:evenodd"/><path d="M29-131.3c-5.4-16.4-19.7-30.9-39-44.2a111.7,111.7,0,0,1,13.9-1.7,43.3,43.3,0,0,1,13.8,11C28.2-154.1,32.4-126,32.4-126a59,59,0,0,0-3.4-5.3" transform="translate(215.5 212.8)" style="fill:#64a0c8;fill-rule:evenodd"/><path d="M64.1-82.3s-3.2-1.6-12.7-.9S34-77.1,34-77.1a200,200,0,0,0,4.3,28.6c3.2,13,5.3,19.2,5.3,19.2S56.5-32,67.1-31.4,90-25.1,90-25.1s6.8-5.2,11.1-7.3a32.9,32.9,0,0,0,4.3-2.2S86.2-66.7,64.1-82.3M-68.2,83.8c2.4,6.9,7.7,17.8,19.7,29.7A102.8,102.8,0,0,0-9.5,137.4a77.6,77.6,0,0,0,11-3.8,86.9,86.9,0,0,0,16.9-10.4l-16,4.4,5-5.9S33.8,93.3,78.3,92.1s31.4,19.5,31.4,19.5,3.1-1,6.1-7.1,1.4-8.7,1.4-8.7.1-14.9-39.3-11S1,114.1,1,114.1s-3.4,4.5-10.2-1.5-7.4-26.3-7.4-26.3c4.7,18,14.6,18.2,14.6,18.2S-7,92.1-13.3,72.2-24.4,23.3-18,3.9C-9.9-20.8,3.8-28.6,3.8-28.6l11.8,3.6A41.3,41.3,0,0,1,34.2-13S28.6-26,19.7-32,3.2-38.2,3.2-38.2-1-36-11.2-23.9-29.7,8.3-29.7,8.3l8-6.5c-4.3,19.4-9.8,43.3-8.3,63.1,1.3,17,3.4,29.3,3.4,29.3l-4.1,4.5A50,50,0,0,1-44.7,77.2c-4.1-13.2-3.8-27.8-3.8-27.8S-53,55.9-54,69s5.4,29.2,5.4,29.2-8.7-2.4-18.7-13.2ZM163.1-34.5l2.3,3.4c-6.9-3.4-14.2-5.5-22.7-3.9,12.7,19.2,16.9,40.7,17,63.4a61.8,61.8,0,0,0-11.1-11.7C146,90.2,119.4,116,89.7,136a64.1,64.1,0,0,1-2.4-13.6A71.8,71.8,0,0,0,96.9,111a7.2,7.2,0,0,1-.1,5.6c44-24.5-44.4-37.8-84.2,5a79,79,0,0,1,29.6-8.2C22.4,129,2.3,142.2-19.2,143.1c-35.4-12.9-66.5-31.2-80.8-71-3.1,12.8-1.2,27.1.7,41.5C-117.6,85.6-127.5,51.9-126,10.4a204,204,0,0,0-12.2,29c-5.5-24.3-2.9-61.5,9.2-91.4-29.6,30.9-36.7,126.2,4.8,182.4a83.3,83.3,0,0,1-1.5-29.3c12.6,39.1,30.6,73.1,51.2,104.7-46.9-38.3-76.3-84.2-92.1-136.1-3.6,9.4-4.7,19.5-5.3,29.7q-2.7-7.8-4.9-15.1c-1-40.2,7.5-84.7,19.1-108.1,13.3-27,34.4-38.6,34.4-38.6l-4,27,14.9-17.3a86,86,0,0,0-.7,10c-.3,8,1.7,21.1,1.7,21.1s2.6-4.6,12.4-14,26-13.2,26-13.2-2.2,3.1-3.8,10.8-.8,17.9-.8,17.9l8.4-8.2c7.1-6.8,18.1-12.3,18.1-12.3-.5,14.1.7,20,3.5,31.7a62.9,62.9,0,0,1,16-16.6l-2.1,8.2c4.7-5.2,17.3-18.9,32.5-26.1C11-42.2,26.9-30.2,26.9-30.2l3.7-.9s-4.9-3.6-7.3-11.6-.3-17.7-.3-17.7L14-59.2A25.2,25.2,0,0,1,5.9-52c-10.2,6-21.3,4.4-32.4,3.3a24.4,24.4,0,0,1-13.4-9.6,24,24,0,0,1-4.2-15.4L-52.6-64s-3.2-4.8.3-14.1,12.9-13.7,12.9-13.7,4.5.6,13.7,2.3S5.1-81,5.1-81l2-2.9L-5.5-100.4,4.6-97.9A129.1,129.1,0,0,1,25-90.6a23.3,23.3,0,0,0-1.8-9.2,54.4,54.4,0,0,0-5.8-10.5A59,59,0,0,1,35-102.7c9.6,6,13.9,9.4,13.9,9.4l1.8-3.9,5.2,5.2s2.4-1.1,4.7-5.7,3.2-19.9,3.2-19.9,5.5.7,8.4,9.4,1.9,12,1.9,12l17.6-13.3s7.6,3.6,11.6,13.7,1,20.3,1,20.3l-5.8-7a44.5,44.5,0,0,1-2.4,12.4,15.8,15.8,0,0,1-7.4,8l12.3,14.3,11.5,4.6-3.2-8.1,8.3,3.1s13.9,2.8,29.5,6.7A46.4,46.4,0,0,1,163.1-34.5Z" transform="translate(215.5 212.8)" style="fill:#64a0c8;fill-rule:evenodd"/><path d="M56.8-177.9c6.1-22.1,31.3-22.9,41.8,0a24.4,24.4,0,0,0-5.5-2.4c3.9,12,2.6,21.2-1.4,29.1a98.5,98.5,0,0,0-17.9-16.6c2.1-13.6,8.7-19.8,17.3-1.9-1.5-22.9-21.6-21.1-25.7-3.3a39.4,39.4,0,0,0-8.7-4.9" transform="translate(215.5 212.8)" style="fill:#fff;fill-rule:evenodd"/><path d="M-78-161.1c-10.4-28-46.4-18.5-54.8,2.6a22.2,22.2,0,0,1,8.9-3.3c-7.8,16.3-2.3,43.8,13.2,43.5a79.5,79.5,0,0,1,6.8-7.1,46,46,0,0,0-7.7,2.5c3.3-12.9,8.8-19.4,14.2-26.1-4.4-10.6-18.8-10.6-20,5.7-6.4-25.6,21.9-26.2,24.6-9.5,3-2.6,6.6-5.3,14.8-8.2" transform="translate(215.5 212.8)" style="fill:#fff;fill-rule:evenodd"/><path d="M19.1-75.2a26.6,26.6,0,0,1-9.8,3.4c-15.5-8.2-31.5-14.6-47-16.8-7.7,4.5-11.7,11.9-13.5,19,5.9-7.9,10.3-12.1,15.5-11.8-1.5,10.7,3.6,18,10,24.5A21,21,0,0,1-36.5-60c6.9,15.5,43.8,9.6,48.3-4.1,4.8-1.1,10.6-1.3,16-10.4-2.3-5.9-9.6-12.1-22.4-18.7,5.5,5.6,11.4,10.9,13.8,18.1" transform="translate(215.5 212.8)" style="fill:#26406a;fill-rule:evenodd"/><path d="M1.8-65.7a26.2,26.2,0,0,0-5.6-2.9c-2.5,8.4-12.5,4.8-10.2-.8.7,2.7,5.5,2.6,4.5-1.6a130.1,130.1,0,0,0-15.1-6.5c-1.3,9.9,10.1,24.6,26.4,11.9" transform="translate(215.5 212.8)" style="fill:#fff;fill-rule:evenodd"/><path d="M28.4-103.5C39.8-97,44-86,40.1-84.9s-2.5-8.3-11.7-18.6" transform="translate(215.5 212.8)" style="fill:#26406a;fill-rule:evenodd"/><path d="M-3.5-36.8C-22.2-20.1-32.7,1.5-40.2,24.9l13-12.8C-36.4,34-35.9,60-35.5,85.9c-7.9-18.5-7.7-37.8-2-57.6A113.2,113.2,0,0,0-48.1,44.9C-48.6,12.5-27.3-29-3.5-36.8" transform="translate(215.5 212.8)" style="fill:#26406a;fill-rule:evenodd"/><path d="M-82.7-39.3C-87.9-29.1-93.1-18.8-93.9-6.1c3.1-3.4,7.8-5.4,13.8-6.4-3.6,13.8-3.9,26.8-4.3,39.8A32.8,32.8,0,0,1-73.7,15.3c-.2,30,5.6,51.6,13.6,70-8.2-9.9-16.8-18.1-20.9-43.5l-4.6,20.5c-7.9-13.6-10.8-32.1-6.8-57.5-6.3,5.3-9.4,11.6-13.1,17.7-5.2-35,6.5-51,22.7-61.8" transform="translate(215.5 212.8)" style="fill:#26406a;fill-rule:evenodd"/><path d="M61.9-82.8c2.8-7,4.9-15.8,5.6-28.7,3.1,10,2.7,19.6,1.7,29.2C76.7-91,84.4-99.4,92-103.4c8.6,2.8,11.4,16.7,10.4,21.9-2.3-5.3-4.7-9.8-7.8-11.6-.6,10.6.6,22.9-8,25.9C122.7-32.4,135,10.2,124.4,60.1a144.4,144.4,0,0,0-4.1-44.5c-.7,15.7-2.8,22.6-6,20.5a100.1,100.1,0,0,1-3.3,14.8c3.7,9.3,3.6,18,3.9,26.7,5.5,3.3,2.9,8.5,2.8,12.3C115.8,70,25.4,87.3-.2,109.4L10.2,96.1C-1.4,75.1-12.7,53.6-2.7-8.2c-10,17.6-13.9,44.5-9,73.4C-21.7,43.8-22.3-1,2.8-25.3,10-28.7,29.6-13.8,33.6-5.6,24.4-9.7,16.8-16.7,6-17.8c16.9,9,32.5,63.1,106.5,46,2.3-12.1,4.9-32.7,3.2-38.2a11.1,11.1,0,0,0-2.9,4.2c-1.3-22.5-14.6,18-1.6,6.6-2.3,9.5-7.4,15-13.6,19.2C84.8,17.6,69.7,9.7,70.1,4c31.6.2-21.2-24.6-4.2-2.2C49.9-3.8,42.1-16.7,44.6-21,48.7-28,77-27.6,91.2-19.5a43.8,43.8,0,0,1,16.6-9.9c-11.2-18.9-27.3-36.5-46-53.4" transform="translate(215.5 212.8)" style="fill:#26406a;fill-rule:evenodd"/><path d="M102.7-137.7c17.4.5,85.6,41.2,95.1,54.4C209.5-67,228.2,24.5,206.4,100,198.5,54.1,183.8,14,163.6-21.8A21.9,21.9,0,0,1,175-13.8c3.8-34.7-33.4-58-41.4-67.7C120.2-97.9,116-122,102.7-137.7" transform="translate(215.5 212.8)" style="fill:#fff;fill-rule:evenodd"/><path d="M208.9-50.8c8.2,37.2,12.7,98-2.6,150.9C198.5,54.1,183.8,14,163.6-21.8A21.9,21.9,0,0,1,175-13.8c3.8-34.7-33.4-58-41.4-67.7a84.2,84.2,0,0,1-10.5-17.2c5.8,5,17.4,14.2,28.7,19.7,13.9,6.7,37.7,14.8,57.1,28.3" transform="translate(215.5 212.8)" style="fill:#64a0c8;fill-rule:evenodd"/><path d="M29.8-69.7c-7.6,16.6-1,33.3,7.4,39a198.9,198.9,0,0,1-7.4-39" transform="translate(215.5 212.8)" style="fill:#26406a;fill-rule:evenodd"/><path d="M91.4-13.6C81-21.4,52.4-24.3,50.2-20c17,1.6,30.4,5.1,43.2,14.5,4.5-6.7,8.3-14,18.3-17l-1.1-2.3c-6,.9-12.4,4.8-19.2,11.2" transform="translate(215.5 212.8)" style="fill:#fff;fill-rule:evenodd"/><path d="M108,37C65.3,44.4,32.3,30.2,9.2-6.4,1.6,18.2,2.6,37.9,10.3,54.1c.5-12.6,4.8-22.5,13.2-29.7a125.7,125.7,0,0,0,6.3,27.5c1.8-4.6,4.1-9.6,7.7-13.6,3.2,5.6,6.6,10.7,10.4,14.5A17.2,17.2,0,0,1,53,42L51.7,62A32.7,32.7,0,0,1,37.4,47.7c-2.7,5.2-4.1,11.2-5.3,17.3C25.2,59.6,20.6,51.2,20,37.6,13.6,47.9,11,78.2,16.7,91.9q49.8-22.8,92.2-15.5a61.3,61.3,0,0,0-.5-19q-2.4,4.7-5.2,6.3a71.8,71.8,0,0,0-6.4-12.6,14.8,14.8,0,0,1,7.1,6.3c3.2-9.8,4.2-16,4.1-20.4" transform="translate(215.5 212.8)" style="fill:#fff;fill-rule:evenodd"/><path d="M74.8-77.5a29.9,29.9,0,0,1,5.3-6.2,2.9,2.9,0,0,1-1,5.3c3.9,2.9,7.8-4.3,4.5-9.8A12.5,12.5,0,0,1,88.1-92c1.5,9.9-.8,17.6-6.4,20.3l-6.9-5.8" transform="translate(215.5 212.8)" style="fill:#fff;fill-rule:evenodd"/></svg>