<svg id="Layer_1" data-name="Layer 1" xmlns="http://www.w3.org/2000/svg" viewBox="0 0 753.5 516.9"><title>Ram Face 1c</title><path d="M-17.6-65.3a61.3,61.3,0,0,1-8.9,9.6,77,77,0,0,0-4.6-13C-41.7-91.2-55-99.9-55-99.9S-40.9-80-37.3-56.6s3,37.4,3,37.4A101.6,101.6,0,0,0-43.5-8.4c-4.2,5.8-4.8,7.2-4.8,7.2L-61-2.8s-4.6-17.5-16.9-30.8S-99.8-46-104.7-49.6s-5.4-6.8-1.6-14.1-.2-24.9-5.7-31.4c0,0,4,13.5-.8,24.3s-8,14.7-6.2,22.3,5.6,9.2,5.6,9.2-3,24.7,6.4,38.6,20.5,15.9,20.5,15.9-11.3,3-19.9-6.2a49.3,49.3,0,0,1-11.1-19.1s-2.2,13.3,11.1,27.3,31,1.8,33.8-3.2a57.6,57.6,0,0,0,2.8-5.2l13.3,3L-71,44a77.1,77.1,0,0,0,14.3,30c11.3,14.3,19.5,18.5,19.5,18.5S-47.9,75.3-52.7,63.3s-6.2-18.9-6.2-18.9A145.2,145.2,0,0,1-41.9,11,249.7,249.7,0,0,1-22.4-13.8a161.2,161.2,0,0,0-1.5-28.7A80.9,80.9,0,0,0-15.8-53l5.4-8.4s4.2-17.5,3.4-27.1C-7.1-88.4-11.8-72.9-17.6-65.3ZM-86.9,8.2c-11.5-3-15.1-29.2-12.1-40.2a35.4,35.4,0,0,1,11,7.2,19.4,19.4,0,0,0-2.6,10.2c0,7.7,3.7,14,8.4,14,2.7,0,5.1-2.2,6.7-5.6,1.3,2.7,1.9,4.4,1.9,4.4S-75.4,11.2-86.9,8.2Z" transform="translate(376.7 258.4)" style="fill:#050000;fill-rule:evenodd"/><path d="M67.7-64.5C80.1-78.6,96.2-89.4,96.2-89.4,75.7-82.8,63.4-73.7,56.4-59.1s-7.6,24.3-7.6,24.3A124.5,124.5,0,0,1,67.7-64.5Z" transform="translate(376.7 258.4)" style="fill:#050000;fill-rule:evenodd"/><path d="M363.4-24.3A85.7,85.7,0,0,0,343.8-26s1.2-10.7,2.4-25.9.4-158.7-132.9-196.1S33.1-210.3,33.1-210.3a58.2,58.2,0,0,0-11.1-.2C16.1-210,0-201.3,0-201.3s-16.1-8.7-21.9-9.2a58.2,58.2,0,0,0-11.1.2S-80-285.4-213.3-248-347.4-67-346.2-51.8s2.4,25.9,2.4,25.9a85.7,85.7,0,0,0-19.6,1.7c-10.9,2.2-13.3,6.6-13.3,6.6s14.9,8,24.5,14.9,13.5,10.3,13.5,10.3,15.1,73.8,38.2,112,62.9,65.6,76,70.4,36.6,4,62.1-14.3,30.2-41.4,30.6-52.1-12.3-46.2-36.6-68.4S-213,23.3-213,23.3s-6-6.8-6.4-9.9l-.4-3.2a106.7,106.7,0,0,0,34.6-.8c18.7-3.6,27.9-6,35.8-2a73.4,73.4,0,0,1,13.5,8.8A121.5,121.5,0,0,0-133.4,34c2,9.2,2.4,11.9,2.4,11.9s-.8,15.9-.8,28.2a111.9,111.9,0,0,0,2,21.5l19.1,10.3s9.9,10.3,18.7,33.8,9.5,33,9.5,33l-1.3,28s2.2,9.9,11.1,20.1a152,152,0,0,0,17.5,16.9l3.6-.4s13.3,22.1,51.6,21c38.2,1,51.6-21,51.6-21l3.6.4a152,152,0,0,0,17.5-16.9c9-10.1,11.1-20.1,11.1-20.1l-1.3-28s.8-9.5,9.5-33S110.8,106,110.8,106l19.1-10.3a111.8,111.8,0,0,0,2-21.5c0-12.3-.8-28.2-.8-28.2s.4-2.8,2.4-11.9a121.5,121.5,0,0,0,2.4-17.9,73.4,73.4,0,0,1,13.5-8.8c8-4,17.1-1.6,35.8,2a106.7,106.7,0,0,0,34.6.8l-.4,3.2c-.4,3.2-6.4,9.9-6.4,9.9s-20.3,9.5-44.6,31.8-37,57.7-36.6,68.4,5.2,33.8,30.6,52.1,48.9,19.1,62.1,14.3,52.9-32.2,76-70.4,38.2-112,38.2-112,4-3.4,13.5-10.3,24.5-14.9,24.5-14.9S374.3-22.1,363.4-24.3ZM61.5-217.9c13.9,6.3,56.6,28.1,76.9,68.1-11.7-45.5-49.3-68.1-64.2-76.2a158.5,158.5,0,0,1,24.6-11.4c16.4,5.4,52.8,32.7,67.9,69.7-4.8-31.2-28-64.5-52.7-74.3a149.4,149.4,0,0,1,36.1-4.4c17.6,10.6,44.8,40.6,52.2,67.8.2-35.3-20.4-56.5-32.9-66.6a166.7,166.7,0,0,1,23.1,4.6l10.4,3.1c20.5,17.5,35,38.8,42.2,65.5,3.2-30.1-11.8-46.9-23-58.2a189.8,189.8,0,0,1,34.4,19.6c6.7,12.2,16.1,35.2,17.1,47.3,3.5-10,2.3-22.2-3.9-36.9a180.6,180.6,0,0,1,14.9,14.6c8,17.9,12.1,31.9,13.1,42.8,1.5-8.4,2.7-16.7.9-25.4A191.7,191.7,0,0,1,333.2-68a334.2,334.2,0,0,1-.6,45.3l-12.4,2.1c1.9-29.2-.9-58.1-11.2-81.6-26.7-60.9-105.8-99.9-179.4-12.7,0,0-20.3-15.5-48.9-45s-37-43-37-43A122.3,122.3,0,0,1,61.5-217.9Zm82.4,113.7-2.4-6.4s15.1-16.7,24.3-24.3,21.9-12.3,21.9-12.3a65.6,65.6,0,0,1,23.5,19.9C220.7-113.7,225-95,225-95c-27.1-.8-36.2,8.4-36.2,8.4s-11.5,2.4-21.9,4-28.2-.8-28.2-.8.8-1.6,3.2-8.4A33.7,33.7,0,0,0,143.9-104.2ZM-333.2-68a191.7,191.7,0,0,1,34.7-100.3c-1.7,8.7-.6,17.1.9,25.4,1-10.9,5.1-24.9,13.1-42.8a180.7,180.7,0,0,1,14.9-14.6c-6.2,14.6-7.4,26.9-3.9,36.9,1-12,10.4-35,17.1-47.3A189.9,189.9,0,0,1-222-230.3c-11.2,11.3-26.1,28.1-23,58.2,7.2-26.7,21.6-48,42.2-65.5l10.4-3.1a166.7,166.7,0,0,1,23.1-4.6c-12.5,10.1-33.1,31.3-32.9,66.6,7.4-27.2,34.6-57.2,52.2-67.8a149.4,149.4,0,0,1,36.1,4.4c-24.7,9.8-47.9,43.1-52.7,74.3,15.1-37,51.5-64.3,67.9-69.7a158.5,158.5,0,0,1,24.6,11.4c-14.9,8-52.5,30.7-64.2,76.2,20.3-40,63-61.8,76.9-68.1a122.3,122.3,0,0,1,17.9,15s-8.4,13.5-37,43-48.9,45-48.9,45c-73.6-87.1-152.8-48.1-179.4,12.7-10.3,23.5-13.1,52.4-11.2,81.6l-12.4-2.1A334.2,334.2,0,0,1-333.2-68Zm191.3-23.8c2.4,6.8,3.2,8.4,3.2,8.4s-17.9,2.4-28.2.8-21.9-4-21.9-4S-198-95.8-225-95c0,0,4.4-18.7,13.9-32.2a65.5,65.5,0,0,1,23.5-19.9s12.7,4.8,21.9,12.3,24.3,24.3,24.3,24.3l-2.4,6.4A33.7,33.7,0,0,0-141.9-91.8Zm-79.7,271.1s-49.3-30.6-72-70.8c-13.6-24-26.5-56.3-33.8-94,4.8,4,9.9,8.5,14.4,12.6,6.6,29.1,16.7,55.7,27.4,74.2,26.7,46.2,68.8,67.6,68.8,67.6Zm-43.3-65s13.5-3.4,21.2-6.2,8.2-3.1,8.2-3.1a17.5,17.5,0,0,1,3.3,3.9,31.6,31.6,0,0,1,2.1,4.3S-254.3,119.3-264.9,114.3Zm40.8,11.4,2.7,6.1a11.6,11.6,0,0,1,1,4.2s-17.1,3.8-29.5-2.2c0,0,12-4.1,18.2-5.8S-224.1,125.8-224.1,125.8Zm-53.7-31.6s12-1.2,19.5-3.8A62.5,62.5,0,0,0-247.8,86a16.4,16.4,0,0,1,3.5,3.5,22.1,22.1,0,0,1,2,3.2S-258.9,100.8-277.8,94.2Zm-7.2-21.6a68.1,68.1,0,0,0,13.3-1.7,57.3,57.3,0,0,0,8.9-2.7s2.1,1.5,4.8,3.9,2.7,2.6,2.7,2.6S-272.2,79-284.9,72.6Zm81-32c66,51.3,60.9,87.5,60.9,87.5s-1.2,38.6-66,52.9c0,0,2.3-7.7,1.2-21.7,26.2-5.3,52.8-16.7,55.3-53.2-10.6,23.9-32.8,36.3-57,41.2a137.3,137.3,0,0,0-6.3-22.1c21.9-6.3,43.8-22.3,41.5-48.7-6.9,21.1-25.2,32.6-45.7,38.5-2.4-5.2-5.2-10.7-8.5-16.5l-1.3-2.1A46.8,46.8,0,0,0-197,55.7C-204.6,70.6-218.9,81-236.3,87A207.6,207.6,0,0,0-250,70.5c11.7-6.6,25.9-26.2,22.3-38.4-4.8,14.6-19.8,25.6-29.9,30.4-6.3-6.4-13-12.7-19.8-18.8,8.8-7.7,14.6-16.8,13.4-29.6-1.5,8.3-10.3,16.1-20.9,23.1a781.7,781.7,0,0,0-69.7-52.9S-270-10.7-203.9,40.6ZM25,243.6c-14.3,4-25,3.4-25,3.4s-10.6.6-25-3.4-17.3-9.2-17.3-9.2,6-7.4,22.3-13.7,17.1-6.4,17.1-6.4L0,210.6l2.9,3.8s.8,0,17.1,6.4,22.3,13.7,22.3,13.7S39.3,239.7,25,243.6ZM191.2-1.8C165.2-5.2,154.4-5,154.4-5s3.2-4.3,8.4-10.1a49.7,49.7,0,0,1,6.9-1c6-.4,11.7.6,26.7,3.4s25.1-1.8,35.6-9S251.5-36,251.5-36c-5.8,4.2-31.8,13.9-43.6,15.3-9,1.1-26.3-3.8-33.9-6.1a122.5,122.5,0,0,1,12.7-10.8c16.7-12.1,21.7-14.5,21.7-14.5l22.5,4.6a149.8,149.8,0,0,0,22.7-.8C267-49.7,273-52.9,273-52.9a169.8,169.8,0,0,1-22.7.2c-10.5-.8-12.7-1.4-12.7-1.4s-18.7-7.2-27.5-8.4l-8.8-1.2s-23.7,8.4-35.6,19.5-33.2,41-33.2,41l-3-7.6s.5,16.8-2.1,28.5-6.8,28.8-11.9,36.8-5.8,8.4-5.8,8.4-12.3-2.4-18.1-4.2L85.9,57,81.3,46.8a79.4,79.4,0,0,0,.2,13.7l.8,6,17.3,6c7.8,2.6,12.1,2.6,12.1,2.6l7.6-5.4s1.6,3.6.4,11.3-1.4,8-1.4,8-15.6,6.3-24.6,14-11.1,12.5-11.1,12.5,5.4-3.6,9.5-4l4.2-.4s-6.6,6.8-9.9,13.9-9.5,25.7-9.5,25.7-1-11.7-.8-20.5.2-10.9.2-10.9L63.5,107.2s.8-16.9,3-23.5l2.2-6.6s-4.2,2.6-9.7,15.1-6.4,18.3-6.4,18.3l14.3,15.9s-2.9,19.4-1.5,27.8,3.2,11.3,4.8,22.1a166.1,166.1,0,0,1,1.4,23.1S70,207,62,215.3s-12.7,11.5-12.7,11.5-7.4-7.4-21.1-13.5-20.1-9.5-20.1-9.5-2.8-8.4-2.8-15.5.2-7.8.2-7.8,3.4-10.7,7.2-13.7a38.4,38.4,0,0,1,6.8-4.4s12.3-2.4,17.3-4.8,12.5-9.3,12.5-9.3,3.8-7.2,5.8-11.1l2-4-9.2,8.4s-6.8.4-19.1,5-16.3,8.2-20.7,12.9S0,168,0,168s-3.7-3.8-8.1-8.6-8.4-8.4-20.7-12.9-19.1-5-19.1-5l-9.2-8.4,2,4c2,4,5.8,11.1,5.8,11.1s7.6,7,12.5,9.3,17.3,4.8,17.3,4.8a38.5,38.5,0,0,1,6.8,4.4c3.8,3,7.2,13.7,7.2,13.7s.2.6.2,7.8-2.8,15.5-2.8,15.5-6.4,3.4-20.1,9.5-21.1,13.5-21.1,13.5-4.8-3.2-12.7-11.5-9.5-15.9-9.5-15.9a166.2,166.2,0,0,1,1.4-23.1c1.6-10.7,3.4-13.7,4.8-22.1s-1.5-27.8-1.5-27.8l14.3-15.9s-.8-5.8-6.4-18.3-9.7-15.1-9.7-15.1l2.2,6.6c2.2,6.6,3,23.5,3,23.5l-12.7,12.1s0,2.2.2,10.9-.8,20.5-.8,20.5-6.2-18.5-9.5-25.7-9.9-13.9-9.9-13.9l4.2.4c4.2.4,9.5,4,9.5,4s-2.2-4.8-11.1-12.5-24.6-14-24.6-14-.2-.2-1.4-8,.4-11.3.4-11.3l7.6,5.4s4.4,0,12.1-2.6l17.3-6,.8-6a79.3,79.3,0,0,0,.2-13.7L-85.9,57l-5.8,1.8c-5.8,1.8-18.1,4.2-18.1,4.2s-.6-.4-5.8-8.4-9.3-25.1-11.9-36.8-2.1-28.5-2.1-28.5l-3,7.6s-21.3-29.8-33.2-41-35.6-19.5-35.6-19.5l-8.8,1.2c-8.8,1.2-27.5,8.4-27.5,8.4s-2.2.6-12.7,1.4a169.8,169.8,0,0,1-22.7-.2s6,3.2,19.5,4.6a149.8,149.8,0,0,0,22.7.8l22.5-4.6s5,2.4,21.7,14.5a122.5,122.5,0,0,1,12.7,10.8c-7.7,2.4-25,7.2-33.9,6.1C-219.6-22-245.7-31.8-251.5-36c0,0,9,7.2,19.5,14.3s20.7,11.7,35.6,9,20.7-3.8,26.7-3.4a49.7,49.7,0,0,1,6.9,1c5.1,5.8,8.4,10.1,8.4,10.1s-10.7-.2-36.8,3.2-40.4-1.4-59.1-14.5-47.9-46.4-47.9-46.4a85.4,85.4,0,0,0,13.1-1.8c7.6-1.6,26.5-10.5,48.9-17.1s46,2.4,57.1,8.4,33.8,15.3,33.8,15.3l-5.4-3.6A98.3,98.3,0,0,1-162-70.8l11.7-.2c5.6,0,17.1-1.4,17.1-1.4s0,1.8.6,12.7a89.8,89.8,0,0,1-1.6,21.1s4-3.4,7.4-14.1,2.6-26.5,2.6-26.5a65.2,65.2,0,0,0-3.4-6.8c-3-5.6-3.7-14.6-3.7-14.6s15.5-7,48.1-40.2,50.9-56.7,50.9-56.7a39.2,39.2,0,0,1,13.3,2.1C-11-192.9,0-185.8,0-185.8s11-7.1,18.8-9.5a39.2,39.2,0,0,1,13.3-2.1S50.5-174,83.1-140.8s48.1,40.2,48.1,40.2-.7,9.1-3.7,14.6a65.1,65.1,0,0,0-3.4,6.8s-.8,15.7,2.6,26.5,7.4,14.1,7.4,14.1a89.9,89.9,0,0,1-1.6-21.1c.6-10.9.6-12.7.6-12.7S144.7-71,150.2-71l11.7.2a98.3,98.3,0,0,1-11.3,9.3l-5.4,3.6s22.7-9.4,33.8-15.3,34.6-14.9,57.1-8.4,41.4,15.5,48.9,17.1a85.4,85.4,0,0,0,13.1,1.8S269-29.5,250.3-16.3,217.3,1.6,191.2-1.8ZM293.6,108.5c-22.7,40.2-72,70.8-72,70.8l-4.8-10.3s42.2-21.5,68.8-67.6c10.7-18.5,20.8-45.1,27.4-74.2,4.5-4.1,9.5-8.5,14.4-12.6C320.1,52.2,307.2,84.4,293.6,108.5ZM258.3,90.4c7.5,2.6,19.5,3.8,19.5,3.8-18.9,6.7-35.4-1.5-35.4-1.5a22.1,22.1,0,0,1,2-3.2,16.5,16.5,0,0,1,3.5-3.5A62.6,62.6,0,0,0,258.3,90.4Zm-3-15.7s0-.2,2.7-2.6,4.8-3.9,4.8-3.9a57.4,57.4,0,0,0,8.9,2.7,68.1,68.1,0,0,0,13.3,1.7C272.2,79,255.3,74.7,255.3,74.7Zm-11.6,33.5c7.7,2.8,21.2,6.2,21.2,6.2-10.5,5-34.7-1.1-34.7-1.1a31.5,31.5,0,0,1,2.1-4.3,17.5,17.5,0,0,1,3.3-3.9S236,105.4,243.7,108.2ZM231.8,128c6.2,1.7,18.2,5.8,18.2,5.8-12.4,6-29.5,2.2-29.5,2.2a11.6,11.6,0,0,1,1-4.2l2.7-6.1S225.6,126.4,231.8,128ZM285,37c-10.6-7-19.3-14.8-20.9-23.1-1.3,12.8,4.6,22,13.4,29.6-6.9,6.1-13.6,12.4-19.8,18.8-10.2-4.8-25.2-15.8-29.9-30.4-3.6,12.2,10.6,31.8,22.3,38.4A207.6,207.6,0,0,0,236.3,87c-17.3-6-31.7-16.5-39.2-31.3a46.8,46.8,0,0,0,32.8,40.8l-1.3,2.1c-3.3,5.7-6.1,11.2-8.5,16.5-20.5-6-38.9-17.4-45.7-38.5C172.1,103,194,119,215.9,125.3a137.3,137.3,0,0,0-6.3,22.1c-24.1-5-46.4-17.3-57-41.2,2.5,36.5,29.1,48,55.3,53.2-1.1,13.9,1.2,21.7,1.2,21.7-64.9-14.3-66-52.9-66-52.9s-5.2-36.2,60.9-87.5S354.7-15.9,354.7-15.9A781.8,781.8,0,0,0,285,37Z" transform="translate(376.7 258.4)" style="fill:#050000;fill-rule:evenodd"/><path d="M-67.7-64.5A124.5,124.5,0,0,1-48.8-34.9s-.6-9.7-7.6-24.3S-75.7-82.8-96.2-89.4C-96.2-89.4-80.1-78.6-67.7-64.5Z" transform="translate(376.7 258.4)" style="fill:#050000;fill-rule:evenodd"/><path d="M112-95.1c-5.5,6.5-9.5,24-5.7,31.4s3.4,10.5-1.6,14.1S90.2-47,77.9-33.7,61-2.8,61-2.8L48.2-1.3s-.6-1.4-4.8-7.2a101.6,101.6,0,0,0-9.2-10.7s-.6-13.9,3-37.4S55-99.9,55-99.9,41.7-91.2,31.1-68.7a76.9,76.9,0,0,0-4.6,13,61.3,61.3,0,0,1-8.9-9.6C11.8-72.9,7.1-88.4,7.1-88.4c-.8,9.5,3.4,27.1,3.4,27.1L15.8-53a80.9,80.9,0,0,0,8.1,10.4,161.2,161.2,0,0,0-1.5,28.7A249.8,249.8,0,0,1,41.9,11,145.2,145.2,0,0,1,58.8,44.4s-1.4,7-6.2,18.9S37.2,92.6,37.2,92.6s8.2-4.2,19.5-18.5A77.1,77.1,0,0,0,71,44L56.5,11.7l13.3-3a57.6,57.6,0,0,0,2.8,5.2c2.8,5,20.5,17.1,33.8,3.2s11.1-27.3,11.1-27.3A49.3,49.3,0,0,1,106.5,8.9c-8.6,9.2-19.9,6.2-19.9,6.2s11.1-2,20.5-15.9,6.4-38.6,6.4-38.6,3.8-1.6,5.6-9.2-1.4-11.5-6.2-22.3S112-95.1,112-95.1ZM86.9,8.2c-11.5,3-13.1-9.9-13.1-9.9s.6-1.7,1.9-4.4c1.5,3.4,3.9,5.6,6.7,5.6,4.6,0,8.4-6.3,8.4-14a19.4,19.4,0,0,0-2.6-10.2,35.4,35.4,0,0,1,11-7.2C102.1-21.1,98.5,5.2,86.9,8.2Z" transform="translate(376.7 258.4)" style="fill:#050000;fill-rule:evenodd"/></svg>