<svg id="Layer_1" data-name="Layer 1" xmlns="http://www.w3.org/2000/svg" viewBox="0 0 781.6 537.7"><title>Ram Face 2c</title><path d="M-211.1-104.8c9.6,1,20,3.5,26.9,8.5,6.2,1.3,12.6,2.4,18.8,3.4a66,66,0,0,0,12.5.4,41.1,41.1,0,0,1-1.3-12.4v-1.5l.7-1.8c-3.2-3.4-6.4-6.7-9.7-10s-6-6-9.3-8.6a69.2,69.2,0,0,0-14.7-8.9,56.7,56.7,0,0,0-15.6,14.4,79.1,79.1,0,0,0-8.5,16.5m422.3,0a79.1,79.1,0,0,0-8.5-16.5,56.7,56.7,0,0,0-15.6-14.4,69.2,69.2,0,0,0-14.7,8.9c-3.2,2.7-6.3,5.7-9.3,8.6s-6.5,6.6-9.7,10l.7,1.8v1.5a41.1,41.1,0,0,1-1.3,12.4,66,66,0,0,0,12.5-.4c6.3-1,12.6-2.1,18.8-3.4C191.1-101.3,201.5-103.8,211.1-104.8ZM-142.2,70.3c.1-7.9.4-15.9.7-23.9-.6-3.4-1.4-7-2.1-10.3a124.4,124.4,0,0,1-2.3-14.7,66.3,66.3,0,0,0-8.2-4.9l-1-.4c-5.5-1.9-22.4,2.2-28.2,3.3a116.4,116.4,0,0,1-12.5,1.7l1.5,1a238.7,238.7,0,0,1,32.7,25.3A124.3,124.3,0,0,1-142.2,70.3Zm284.3,0a124.3,124.3,0,0,1,19.3-22.9,238.7,238.7,0,0,1,32.7-25.3l1.5-1a116.4,116.4,0,0,1-12.5-1.7c-5.8-1.1-22.7-5.2-28.2-3.3l-1,.4a66.3,66.3,0,0,0-8.2,4.9,124.5,124.5,0,0,1-2.3,14.7c-.7,3.3-1.6,6.9-2.1,10.3C141.8,54.4,142.1,62.4,142.2,70.3ZM-355.2-36c-.5-5-.9-10.1-1.3-15.1-.8-10.5.3-23.4,1.6-33.8a248.8,248.8,0,0,1,15.1-60.5c22.4-56.9,64.4-96,123.7-112.6,47.8-13.4,101.6-17.3,147.3,5.3A127.2,127.2,0,0,1-35.4-229a101.2,101.2,0,0,1,7.3,8,67.7,67.7,0,0,1,7,.2c5.6.5,14.4,4.4,21.1,7.8,6.7-3.4,15.5-7.4,21.1-7.8a67.7,67.7,0,0,1,7-.2,101.1,101.1,0,0,1,7.3-8,127.2,127.2,0,0,1,33.4-23.6c45.7-22.6,99.5-18.7,147.3-5.3,59.3,16.6,101.3,55.7,123.7,112.6a248.8,248.8,0,0,1,15.1,60.5c1.3,10.4,2.4,23.3,1.6,33.8-.4,5-.8,10-1.3,15.1,3.5.4,7,.9,10.2,1.5,7.1,1.4,16.7,4.9,20.4,11.8l5,9.1-9.2,4.9A202.9,202.9,0,0,0,358.4,5.6c-3.4,2.5-6.9,5-10.2,7.7-1.4,6.7-3.1,13.4-4.8,20-4.3,16.9-9.2,33.7-15.1,50.1-5.1,14.1-11.1,28.8-18.9,41.6-11.4,18.9-27.1,36.1-43.9,50.3-9.7,8.2-25.4,20.1-37.4,24.5-10,3.6-21.4,3.8-31.7,2-14.5-2.6-28-9.1-39.9-17.6-19.4-14-34-35.7-34.9-60.1a46.2,46.2,0,0,1,1.8-12.9l-6.1,3.3a63.1,63.1,0,0,0-3.9,5.5,122.4,122.4,0,0,0-11.6,23.7,222.9,222.9,0,0,0-7.5,23.2,60,60,0,0,0-1.4,6.5l1.3,28.5-.3,1.3c-1.9,8.5-7.8,18.3-13.5,24.7a153,153,0,0,1-18.8,18.2l-3.3,2.6-2.1-.2A59.7,59.7,0,0,1,45.8,257C32.3,265.9,16,269.2,0,268.8s-32.3-2.9-45.8-11.8a59.5,59.5,0,0,1-10.3-8.7l-2.1.2-3.3-2.6a153,153,0,0,1-18.8-18.2c-5.7-6.4-11.6-16.2-13.5-24.7l-.3-1.3,1.3-28.5a60,60,0,0,0-1.4-6.5,222.9,222.9,0,0,0-7.5-23.2c-3.1-8.4-9.2-21.8-15.5-29.2l-6.1-3.3a46.3,46.3,0,0,1,1.8,12.9c-.9,24.4-15.5,46.2-34.9,60.1-11.9,8.5-25.4,15-39.9,17.6-10.4,1.8-21.8,1.7-31.7-2-12-4.4-27.7-16.3-37.4-24.5-16.8-14.2-32.5-31.4-43.9-50.3-7.8-12.8-13.8-27.5-18.9-41.6-5.9-16.4-10.8-33.2-15.1-50.1-1.7-6.6-3.3-13.3-4.8-20-3.3-2.7-6.9-5.2-10.2-7.7A203,203,0,0,0-381.6-8.6l-9.2-4.9,5-9.1c3.7-6.8,13.3-10.4,20.4-11.8C-362.3-35.1-358.8-35.6-355.2-36Z" transform="translate(390.8 268.8)" style="fill:#fff;fill-rule:evenodd"/><path d="M-225-95s4.4-18.7,13.9-32.2a65.5,65.5,0,0,1,23.5-19.9s12.7,4.8,21.9,12.3,24.3,24.3,24.3,24.3l-2.4,6.4a33.7,33.7,0,0,0,2,12.3c2.4,6.8,3.2,8.4,3.2,8.4s-17.9,2.4-28.2.8-21.9-4-21.9-4S-198-95.8-225-95M225-95s-4.4-18.7-13.9-32.2a65.6,65.6,0,0,0-23.5-19.9s-12.7,4.8-21.9,12.3-24.3,24.3-24.3,24.3l2.4,6.4a33.7,33.7,0,0,1-2,12.3c-2.4,6.8-3.2,8.4-3.2,8.4s17.9,2.4,28.2.8,21.9-4,21.9-4S198-95.8,225-95ZM0-201.3s-16.1-8.7-21.9-9.2a58.2,58.2,0,0,0-11.1.2S-80-285.4-213.3-248-347.4-67-346.2-51.8s2.4,25.9,2.4,25.9a85.7,85.7,0,0,0-19.6,1.7c-10.9,2.2-13.3,6.6-13.3,6.6s14.9,8,24.5,14.9,13.5,10.3,13.5,10.3,15.1,73.8,38.2,112,62.9,65.6,76,70.4,36.6,4,62.1-14.3,30.2-41.4,30.6-52.1-12.3-46.2-36.6-68.4S-213,23.3-213,23.3s-6-6.8-6.4-9.9l-.4-3.2a106.7,106.7,0,0,0,34.6-.8c18.7-3.6,27.9-6,35.8-2a73.4,73.4,0,0,1,13.5,8.8A121.5,121.5,0,0,0-133.4,34c2,9.2,2.4,11.9,2.4,11.9s-.8,15.9-.8,28.2a111.9,111.9,0,0,0,2,21.5l19.1,10.3s9.9,10.3,18.7,33.8,9.5,33,9.5,33l-1.3,28s2.2,9.9,11.1,20.1a152,152,0,0,0,17.5,16.9l3.6-.4s13.3,22.1,51.6,21c38.2,1,51.6-21,51.6-21l3.6.4a152,152,0,0,0,17.5-16.9c9-10.1,11.1-20.1,11.1-20.1l-1.3-28s.8-9.5,9.5-33S110.8,106,110.8,106l19.1-10.3a111.8,111.8,0,0,0,2-21.5c0-12.3-.8-28.2-.8-28.2s.4-2.8,2.4-11.9a121.5,121.5,0,0,0,2.4-17.9,73.4,73.4,0,0,1,13.5-8.8c8-4,17.1-1.6,35.8,2a106.7,106.7,0,0,0,34.6.8l-.4,3.2c-.4,3.2-6.4,9.9-6.4,9.9s-20.3,9.5-44.6,31.8-37,57.7-36.6,68.4,5.2,33.8,30.6,52.1,48.9,19.1,62.1,14.3,52.9-32.2,76-70.4,38.2-112,38.2-112,4-3.4,13.5-10.3,24.5-14.9,24.5-14.9-2.4-4.4-13.3-6.6A85.8,85.8,0,0,0,343.8-26s1.2-10.7,2.4-25.9.4-158.7-132.9-196.1S33.1-210.3,33.1-210.3a58.2,58.2,0,0,0-11.1-.2C16.1-210,0-201.3,0-201.3Z" transform="translate(390.8 268.8)" style="fill:#050000;fill-rule:evenodd"/><path d="M-96.2-89.4s16.1,10.7,28.4,24.9A124.5,124.5,0,0,1-48.8-34.9s-.6-9.7-7.6-24.3S-75.7-82.8-96.2-89.4M-112-95.1s4,13.5-.8,24.3-8,14.7-6.2,22.3,5.6,9.2,5.6,9.2-3,24.7,6.4,38.6,20.5,15.9,20.5,15.9-11.3,3-19.9-6.2a49.3,49.3,0,0,1-11.1-19.1s-2.2,13.3,11.1,27.3,31,1.8,33.8-3.2a57.6,57.6,0,0,0,2.8-5.2l13.3,3L-71,44a77.1,77.1,0,0,0,14.3,30c11.3,14.3,19.5,18.5,19.5,18.5S-47.9,75.3-52.7,63.3s-6.2-18.9-6.2-18.9A145.2,145.2,0,0,1-41.9,11,249.7,249.7,0,0,1-22.4-13.8a161.2,161.2,0,0,0-1.5-28.7A80.8,80.8,0,0,0-15.8-53l5.4-8.4s4.2-17.5,3.4-27.1c0,0-4.8,15.5-10.5,23.1a61.3,61.3,0,0,1-8.9,9.6,77,77,0,0,0-4.6-13C-41.7-91.2-55-99.9-55-99.9S-40.9-80-37.3-56.6s3,37.4,3,37.4A101.6,101.6,0,0,0-43.5-8.4c-4.2,5.8-4.8,7.2-4.8,7.2L-61-2.8s-4.6-17.5-16.9-30.8S-99.8-46-104.7-49.6s-5.4-6.8-1.6-14.1S-106.5-88.6-112-95.1ZM96.2-89.4S80.1-78.6,67.7-64.5A124.5,124.5,0,0,0,48.8-34.9s.6-9.7,7.6-24.3S75.7-82.8,96.2-89.4ZM112-95.1s-4,13.5.8,24.3,8,14.7,6.2,22.3-5.6,9.2-5.6,9.2,3,24.7-6.4,38.6S86.6,15.1,86.6,15.1s11.3,3,19.9-6.2a49.3,49.3,0,0,0,11.1-19.1s2.2,13.3-11.1,27.3-31,1.8-33.8-3.2a57.6,57.6,0,0,1-2.8-5.2l-13.3,3L71,44a77.1,77.1,0,0,1-14.3,30C45.3,88.4,37.2,92.6,37.2,92.6S47.9,75.3,52.7,63.3s6.2-18.9,6.2-18.9A145.2,145.2,0,0,0,41.9,11,249.8,249.8,0,0,0,22.4-13.8a161.2,161.2,0,0,1,1.5-28.7A80.9,80.9,0,0,1,15.8-53l-5.4-8.4S6.3-78.8,7.1-88.4c0,0,4.8,15.5,10.5,23.1a61.3,61.3,0,0,0,8.9,9.6,76.9,76.9,0,0,1,4.6-13C41.7-91.2,55-99.9,55-99.9S40.9-80,37.3-56.6s-3,37.4-3,37.4A101.6,101.6,0,0,1,43.5-8.4c4.2,5.8,4.8,7.2,4.8,7.2L61-2.8s4.6-17.5,16.9-30.8S99.8-46,104.7-49.6s5.4-6.8,1.6-14.1S106.5-88.6,112-95.1ZM0-185.8s-11-7.1-18.8-9.5a39.2,39.2,0,0,0-13.3-2.1S-50.5-174-83.1-140.8s-48.1,40.2-48.1,40.2.7,9.1,3.7,14.6a65.2,65.2,0,0,1,3.4,6.8s.8,15.7-2.6,26.5-7.4,14.1-7.4,14.1a89.8,89.8,0,0,0,1.6-21.1c-.6-10.9-.6-12.7-.6-12.7S-144.7-71-150.2-71l-11.7.2a98.3,98.3,0,0,0,11.3,9.3l5.4,3.6s-22.7-9.4-33.8-15.3-34.6-14.9-57.1-8.4-41.4,15.5-48.9,17.1a85.4,85.4,0,0,1-13.1,1.8s29.2,33.2,47.9,46.4,33,17.9,59.1,14.5S-154.4-5-154.4-5s-3.2-4.3-8.4-10.1a49.7,49.7,0,0,0-6.9-1c-6-.4-11.7.6-26.7,3.4s-25.1-1.8-35.6-9S-251.5-36-251.5-36c5.8,4.2,31.8,13.9,43.6,15.3,9,1.1,26.3-3.8,33.9-6.1a122.5,122.5,0,0,0-12.7-10.8c-16.7-12.1-21.7-14.5-21.7-14.5l-22.5,4.6a149.8,149.8,0,0,1-22.7-.8C-267-49.7-273-52.9-273-52.9a169.8,169.8,0,0,0,22.7.2c10.5-.8,12.7-1.4,12.7-1.4s18.7-7.2,27.5-8.4l8.8-1.2s23.7,8.4,35.6,19.5,33.2,41,33.2,41l3-7.6s-.5,16.8,2.1,28.5,6.8,28.8,11.9,36.8,5.8,8.4,5.8,8.4,12.3-2.4,18.1-4.2l5.8-1.8,4.6-10.1a79.3,79.3,0,0,1-.2,13.7l-.8,6-17.3,6c-7.8,2.6-12.1,2.6-12.1,2.6l-7.6-5.4s-1.6,3.6-.4,11.3,1.4,8,1.4,8,15.6,6.3,24.6,14,11.1,12.5,11.1,12.5-5.4-3.6-9.5-4l-4.2-.4s6.6,6.8,9.9,13.9,9.5,25.7,9.5,25.7,1-11.7.8-20.5-.2-10.9-.2-10.9l12.7-12.1s-.8-16.9-3-23.5l-2.2-6.6s4.2,2.6,9.7,15.1,6.4,18.3,6.4,18.3l-14.3,15.9s2.9,19.4,1.5,27.8-3.2,11.3-4.8,22.1a166.2,166.2,0,0,0-1.4,23.1S-70,207-62,215.3s12.7,11.5,12.7,11.5,7.4-7.4,21.1-13.5,20.1-9.5,20.1-9.5,2.8-8.4,2.8-15.5-.2-7.8-.2-7.8-3.4-10.7-7.2-13.7a38.5,38.5,0,0,0-6.8-4.4s-12.3-2.4-17.3-4.8-12.5-9.3-12.5-9.3-3.8-7.2-5.8-11.1l-2-4,9.2,8.4s6.8.4,19.1,5,16.3,8.2,20.7,12.9S0,168,0,168s3.7-3.8,8.1-8.6,8.4-8.4,20.7-12.9,19.1-5,19.1-5l9.2-8.4-2,4c-2,4-5.8,11.1-5.8,11.1s-7.6,7-12.5,9.3-17.3,4.8-17.3,4.8a38.4,38.4,0,0,0-6.8,4.4c-3.8,3-7.2,13.7-7.2,13.7s-.2.6-.2,7.8,2.8,15.5,2.8,15.5,6.4,3.4,20.1,9.5,21.1,13.5,21.1,13.5,4.8-3.2,12.7-11.5,9.5-15.9,9.5-15.9a166.1,166.1,0,0,0-1.4-23.1c-1.6-10.7-3.4-13.7-4.8-22.1s1.5-27.8,1.5-27.8L52.6,110.6s.8-5.8,6.4-18.3,9.7-15.1,9.7-15.1l-2.2,6.6c-2.2,6.6-3,23.5-3,23.5l12.7,12.1s0,2.2-.2,10.9.8,20.5.8,20.5,6.2-18.5,9.5-25.7,9.9-13.9,9.9-13.9l-4.2.4c-4.2.4-9.5,4-9.5,4s2.2-4.8,11.1-12.5,24.6-14,24.6-14,.2-.2,1.4-8-.4-11.3-.4-11.3l-7.6,5.4s-4.4,0-12.1-2.6l-17.3-6-.8-6a79.4,79.4,0,0,1-.2-13.7L85.9,57l5.8,1.8c5.8,1.8,18.1,4.2,18.1,4.2s.6-.4,5.8-8.4,9.4-25.1,11.9-36.8,2.1-28.5,2.1-28.5l3,7.6s21.3-29.8,33.2-41,35.6-19.5,35.6-19.5l8.8,1.2c8.8,1.2,27.5,8.4,27.5,8.4s2.2.6,12.7,1.4a169.8,169.8,0,0,0,22.7-.2s-6,3.2-19.5,4.6a149.8,149.8,0,0,1-22.7.8l-22.5-4.6s-5,2.4-21.7,14.5a122.5,122.5,0,0,0-12.7,10.8c7.7,2.4,25,7.2,33.9,6.1C219.6-22,245.7-31.8,251.5-36c0,0-9,7.2-19.5,14.3s-20.7,11.7-35.6,9-20.7-3.8-26.7-3.4a49.7,49.7,0,0,0-6.9,1C157.7-9.3,154.4-5,154.4-5s10.7-.2,36.8,3.2,40.4-1.4,59.1-14.5,47.9-46.4,47.9-46.4a85.4,85.4,0,0,1-13.1-1.8c-7.6-1.6-26.5-10.5-48.9-17.1s-46,2.4-57.1,8.4-33.8,15.3-33.8,15.3l5.4-3.6A98.3,98.3,0,0,0,162-70.8L150.2-71c-5.6,0-17.1-1.4-17.1-1.4s0,1.8-.6,12.7a89.9,89.9,0,0,0,1.6,21.1s-4-3.4-7.4-14.1-2.6-26.5-2.6-26.5a65.1,65.1,0,0,1,3.4-6.8c3-5.6,3.7-14.6,3.7-14.6s-15.5-7-48.1-40.2-50.9-56.7-50.9-56.7a39.2,39.2,0,0,0-13.3,2.1C11-192.9,0-185.8,0-185.8Z" transform="translate(390.8 268.8)" style="fill:#fff;fill-rule:evenodd"/><path d="M-99.1-32a35.4,35.4,0,0,1,11,7.2,19.4,19.4,0,0,0-2.6,10.2c0,7.7,3.7,14,8.4,14,2.7,0,5.1-2.2,6.7-5.6,1.3,2.7,1.9,4.4,1.9,4.4s-1.6,12.9-13.1,9.9S-102.1-21.1-99.1-32" transform="translate(390.8 268.8)" style="fill:#fff;fill-rule:evenodd"/><path d="M0,247s-10.6.6-25-3.4-17.3-9.2-17.3-9.2,6-7.4,22.3-13.7,17.1-6.4,17.1-6.4L0,210.6l2.9,3.8s.8,0,17.1,6.4,22.3,13.7,22.3,13.7-3,5.2-17.3,9.2S0,247,0,247" transform="translate(390.8 268.8)" style="fill:#fff;fill-rule:evenodd"/><path d="M-327.5,14.5c7.3,37.7,20.3,69.9,33.8,94,22.7,40.2,72,70.8,72,70.8l4.8-10.3s-42.2-21.5-68.8-67.6c-10.7-18.5-20.8-45.1-27.4-74.2-4.5-4.1-9.5-8.5-14.4-12.6m198-129.4s20.3-15.5,48.9-45,37-43,37-43a122.3,122.3,0,0,0-17.9-15c-13.9,6.3-56.6,28.1-76.9,68.1,11.7-45.5,49.3-68.1,64.2-76.2a158.5,158.5,0,0,0-24.6-11.4c-16.4,5.4-52.8,32.7-67.9,69.7,4.8-31.2,28-64.5,52.7-74.3a149.4,149.4,0,0,0-36.1-4.4c-17.6,10.6-44.8,40.6-52.2,67.8-.2-35.3,20.4-56.5,32.9-66.6a166.7,166.7,0,0,0-23.1,4.6l-10.4,3.1c-20.5,17.5-35,38.8-42.2,65.5-3.1-30.1,11.8-46.9,23-58.2a189.9,189.9,0,0,0-34.4,19.6c-6.7,12.2-16.1,35.2-17.1,47.3-3.5-10-2.3-22.2,3.9-36.9a180.7,180.7,0,0,0-14.9,14.6c-8,17.9-12.1,31.9-13.1,42.8-1.5-8.4-2.7-16.7-.9-25.4A191.7,191.7,0,0,0-333.2-68a334.2,334.2,0,0,0,.6,45.3l12.4,2.1c-1.9-29.2.9-58.1,11.2-81.6C-282.3-163.1-203.1-202.1-129.5-114.9Z" transform="translate(390.8 268.8)" style="fill:#fff;fill-rule:evenodd"/><path d="M-209.1,181.1s2.3-7.7,1.2-21.7c26.2-5.3,52.8-16.7,55.3-53.2-10.6,23.9-32.8,36.3-57,41.2a137.3,137.3,0,0,0-6.3-22.1c21.9-6.3,43.8-22.3,41.5-48.7-6.9,21.1-25.2,32.6-45.7,38.5-2.4-5.2-5.2-10.7-8.5-16.5l-1.3-2.1A46.8,46.8,0,0,0-197,55.7C-204.6,70.6-218.9,81-236.3,87A207.6,207.6,0,0,0-250,70.5c11.7-6.6,25.9-26.2,22.3-38.4-4.8,14.6-19.8,25.6-29.9,30.4-6.3-6.4-13-12.7-19.8-18.8,8.8-7.7,14.6-16.8,13.4-29.6-1.5,8.3-10.3,16.1-20.9,23.1a781.7,781.7,0,0,0-69.7-52.9s84.7,5.2,150.8,56.5,60.9,87.5,60.9,87.5-1.2,38.6-66,52.9" transform="translate(390.8 268.8)" style="fill:#fff;fill-rule:evenodd"/><path d="M-277.8,94.2s12-1.2,19.5-3.8A62.6,62.6,0,0,0-247.8,86a16.4,16.4,0,0,1,3.5,3.5,22.1,22.1,0,0,1,2,3.2s-16.5,8.2-35.4,1.5m12.9,20.1s13.5-3.4,21.2-6.2,8.2-3.1,8.2-3.1a17.5,17.5,0,0,1,3.3,3.9,31.6,31.6,0,0,1,2.1,4.3S-254.3,119.3-264.9,114.3Zm14.9,19.5s12-4.1,18.2-5.8,7.7-2.3,7.7-2.3l2.7,6.1a11.6,11.6,0,0,1,1,4.2S-237.5,139.8-250,133.8Zm-35-61.2a68.1,68.1,0,0,0,13.3-1.7,57.3,57.3,0,0,0,8.9-2.7s2.1,1.5,4.8,3.9,2.7,2.6,2.7,2.6S-272.2,79-284.9,72.6Z" transform="translate(390.8 268.8)" style="fill:#fff;fill-rule:evenodd"/><path d="M99.1-32a35.4,35.4,0,0,0-11,7.2,19.4,19.4,0,0,1,2.6,10.2c0,7.7-3.7,14-8.4,14-2.7,0-5.1-2.2-6.7-5.6-1.3,2.7-1.9,4.4-1.9,4.4s1.6,12.9,13.1,9.9S102.1-21.1,99.1-32" transform="translate(390.8 268.8)" style="fill:#fff;fill-rule:evenodd"/><path d="M327.5,14.5c-7.3,37.7-20.3,69.9-33.8,94-22.7,40.2-72,70.8-72,70.8l-4.8-10.3s42.2-21.5,68.8-67.6c10.7-18.5,20.8-45.1,27.4-74.2,4.5-4.1,9.5-8.5,14.4-12.6m-198-129.4s-20.3-15.5-48.9-45-37-43-37-43a122.3,122.3,0,0,1,17.9-15c13.9,6.3,56.6,28.1,76.9,68.1-11.7-45.5-49.3-68.1-64.2-76.2a158.5,158.5,0,0,1,24.6-11.4c16.4,5.4,52.8,32.7,67.9,69.7-4.8-31.2-28-64.5-52.7-74.3a149.4,149.4,0,0,1,36.1-4.4c17.6,10.6,44.8,40.6,52.2,67.8.2-35.3-20.4-56.5-32.9-66.6a166.7,166.7,0,0,1,23.1,4.6l10.4,3.1c20.5,17.5,35,38.8,42.2,65.5,3.2-30.1-11.8-46.9-23-58.2a189.8,189.8,0,0,1,34.4,19.6c6.7,12.2,16.1,35.2,17.1,47.3,3.5-10,2.3-22.2-3.9-36.9a180.6,180.6,0,0,1,14.9,14.6c8,17.9,12.1,31.9,13.1,42.8,1.5-8.4,2.7-16.7.9-25.4A191.7,191.7,0,0,1,333.2-68a334.2,334.2,0,0,1-.6,45.3l-12.4,2.1c1.9-29.2-.9-58.1-11.2-81.6C282.3-163.1,203.1-202.1,129.5-114.9Z" transform="translate(390.8 268.8)" style="fill:#fff;fill-rule:evenodd"/><path d="M209.1,181.1s-2.3-7.7-1.2-21.7c-26.2-5.3-52.8-16.7-55.3-53.2,10.6,23.9,32.8,36.3,57,41.2a137.3,137.3,0,0,1,6.3-22.1C194,119,172.1,103,174.4,76.6c6.9,21.1,25.2,32.6,45.7,38.5,2.4-5.2,5.2-10.7,8.5-16.5l1.3-2.1A46.8,46.8,0,0,1,197,55.7C204.6,70.6,218.9,81,236.3,87A207.6,207.6,0,0,1,250,70.5c-11.7-6.6-25.9-26.2-22.3-38.4,4.8,14.6,19.8,25.6,29.9,30.4,6.3-6.4,13-12.7,19.8-18.8-8.8-7.7-14.6-16.8-13.4-29.6,1.5,8.3,10.3,16.1,20.9,23.1a781.8,781.8,0,0,1,69.7-52.9S270-10.7,203.9,40.6,143,128.1,143,128.1s1.2,38.6,66,52.9" transform="translate(390.8 268.8)" style="fill:#fff;fill-rule:evenodd"/><path d="M277.8,94.2s-12-1.2-19.5-3.8A62.6,62.6,0,0,1,247.8,86a16.5,16.5,0,0,0-3.5,3.5,22.1,22.1,0,0,0-2,3.2s16.5,8.2,35.4,1.5m-12.9,20.1s-13.5-3.4-21.2-6.2-8.2-3.1-8.2-3.1a17.5,17.5,0,0,0-3.3,3.9,31.5,31.5,0,0,0-2.1,4.3S254.3,119.3,264.9,114.3ZM250,133.8s-12-4.1-18.2-5.8-7.7-2.3-7.7-2.3l-2.7,6.1a11.6,11.6,0,0,0-1,4.2S237.5,139.8,250,133.8Zm35-61.2a68.1,68.1,0,0,1-13.3-1.7,57.4,57.4,0,0,1-8.9-2.7s-2.1,1.5-4.8,3.9-2.7,2.6-2.7,2.6S272.2,79,284.9,72.6Z" transform="translate(390.8 268.8)" style="fill:#fff;fill-rule:evenodd"/><path d="M-17.7,85.3c-10,8.1-19.7,14.5-35,24.2.2.7.2,1.1.2,1.1l-14.3,15.9s2.9,19.4,1.5,27.8-3.2,11.3-4.8,22.1a166.2,166.2,0,0,0-1.4,23.1S-70,207-62,215.3s12.7,11.5,12.7,11.5,7.4-7.4,21.1-13.5,20.1-9.5,20.1-9.5,2.8-8.4,2.8-15.5-.2-7.8-.2-7.8-3.4-10.7-7.2-13.7a38.5,38.5,0,0,0-6.8-4.4s-12.3-2.4-17.3-4.8-12.5-9.3-12.5-9.3-3.8-7.2-5.8-11.1l-2-4,9.2,8.4s6.8.4,19.1,5,16.3,8.2,20.7,12.9S0,168,0,168s3.7-3.8,8.1-8.6,8.4-8.4,20.7-12.9,19.1-5,19.1-5l9.2-8.4-2,4c-2,4-5.8,11.1-5.8,11.1s-7.6,7-12.5,9.3-17.3,4.8-17.3,4.8a38.4,38.4,0,0,0-6.8,4.4c-3.8,3-7.2,13.7-7.2,13.7s-.2.6-.2,7.8,2.8,15.5,2.8,15.5,6.4,3.4,20.1,9.5,21.1,13.5,21.1,13.5,4.8-3.2,12.7-11.5,9.5-15.9,9.5-15.9a166.1,166.1,0,0,0-1.4-23.1c-1.6-10.7-3.4-13.7-4.8-22.1s1.5-27.8,1.5-27.8L52.6,110.6s0-.4.2-1.1A357.1,357.1,0,0,1,17.8,84.9l4.6-21.4S20.4,21.7,0-10.2C-20.4,21.7-22.4,63.4-22.4,63.4Z" transform="translate(390.8 268.8)" style="fill:#fff;fill-rule:evenodd"/></svg>