<svg id="Layer_1" data-name="Layer 1" xmlns="http://www.w3.org/2000/svg" viewBox="0 0 491.4 733.7"><title>Ram894_1c</title><path d="M-82.8-146.6c-1.2,6.3-5.7,8.3-5.7,8.3s.6-10.9-3.4-17.2-8.7-8.1-8.7-8.1,10.7-10.1,23.9-13c0,0-12.4.5-21.7,5.2s-13.5,8.1-13.5,8.1l-7.3,44.9s-7.6-.9-15.2-8.3-8.8-8.9-8.8-8.9,4.7,9.8,9.5,15.8,8.2,8.1,8.2,8.1a142.7,142.7,0,0,0,2.5,19.9c2.2,11.2,5.9,16.1,5.9,16.1s-2.5-12.3-1.6-22.5,1.1-12.6,1.1-12.6a29.1,29.1,0,0,0,5.7-4.4,10.8,10.8,0,0,0,2.3-4.4S-91.5-117-83-133.1s-1.1-25.6-1.1-25.6A23,23,0,0,1-82.8-146.6ZM-108-133.1h-1.4c.3-1.1.6-2.5,1-4.2l1.4.2a4.5,4.5,0,0,0,4.6-4.5,4.5,4.5,0,0,0-4.6-4.5h0c.3-2.1.5-4.1.7-5.8a9.6,9.6,0,0,1,8.1,9.4A9.6,9.6,0,0,1-108-133.1Z" transform="translate(245.7 367.8)" style="fill:#050000;fill-rule:evenodd"/><path d="M241.1-36.1c-5.9-11-25.8-23.3-35.4-22.1s-27.9,15.3-27.9,15.3l-22.7,4.6s-.9-8.6-2.5-17.8-7.5-19-7.5-19-.3-5.2-5-31.6-18-50.2-18-50.2c19-31.1,25.4-70.9,18.3-107.5-17.8-91.8-113.1-126.5-193.7-88s-84.4,102.9-84.4,102.9l-5.9,6.4c-4.2-4.5-9.6-9.5-16.4-17.3C-175.5-278-204-281.1-204-281.1s-11.2,1.8-24.8,19a86.6,86.6,0,0,0-16.8,35.5s-2.5,20.2,23,52.7A177.1,177.1,0,0,0-174.4-131a170.4,170.4,0,0,0,2,21.5l6.2,9.2s-10.1,8.7-19.8,34.9a59.3,59.3,0,0,1-18-11c-13.7-12.3-19.9-43.5-19.9-43.5s-11.2,19,0,61.9c8.9,34.1,21.7,44.6,26.6,47.5-2.1,36.9,2.9,75.4,2.9,75.4s-3.1-.9-11.8,4.6-9.9,18.4-9.3,31.6,1.9,48.7-5.9,72.9.9,26.7.9,26.7a149.9,149.9,0,0,0-6.7,15.9,184.7,184.7,0,0,0-5.7,22.2s4.3,16.5,17.2,29.4,30.4,16.4,30.4,16.4,2.5-3.1,4.5-10.1,3.7-17.2,3.7-17.2l19.6,19.5a60.4,60.4,0,0,0,9.8-15.5c4.2-9.5,5.7-27.1,5.7-27.1s-3.7-9.2-8.4-19.9-16.1-22.1-16.1-22.1a27.9,27.9,0,0,0,0-11,16.7,16.7,0,0,0-5.9-9.2,141.7,141.7,0,0,1-3.4-23.6c-.6-12.3,3.4-24.2,3.4-24.2a100.2,100.2,0,0,0,43.1-2.8c23.3-6.7,27-21.4,27-21.4l17.7,4s-3.4,7,4,15.6,26.1,16.9,31.4,28.5,4.3,15.3,5,20.8,8.4,10.1,8.4,10.1l-4,24.5s2.8,4.6,10.2,9.8S4.9,223.4,4.9,223.4l-.9,7s-.3,0-2.8,8.6,4,16.2,4,16.2L2.1,306.7s7.4,20.5,29.5,36.2a184.1,184.1,0,0,0,45.3,23s1.6-5.8,3.1-13.2,2.5-26.3,2.5-26.3L111,342s2.2-4.9,3.1-19.9-1.6-31.9-1.6-31.9a173.1,173.1,0,0,0-14-21.4c-9-11.9-22.4-20.5-22.4-20.5a32.9,32.9,0,0,1,1.2-6.4,18.7,18.7,0,0,0-.3-9.5L62,219.1s-1.6-1.5-9.3-16.9S36.9,152,36.9,152s1.6-3.1,1.9-9.2-.6-18.1-.6-18.1-.9-1.8-5.3-7.4S14.2,103,14.2,103l-4-17.2A141.4,141.4,0,0,0,37.5,75.4c15.5-7.7,27.9-23,27.9-23s15.5-.6,36.6-10.7a170,170,0,0,0,36.6-24.2l33.2-7,3.1,3.7a203.7,203.7,0,0,1-10.6,17.5c-7.5,11.3-24.2,29.1-24.2,29.1s-1.2-1.5-5.6-1.8a5.9,5.9,0,0,0-5.9,3.1L114.5,49.4S90.2,61.9,71.6,99.6s-6.2,60.1-6.2,60.1a80.6,80.6,0,0,0,30.1-8c15.8-7.7,32.3-22.4,32.3-22.4s7.5-2.5,17.4-10.1A84.3,84.3,0,0,0,162,101.2s-.3,0,14.9-19.6,44.1-67.1,44.1-67.1,15.2-8.9,20.8-19.9S247-25.1,241.1-36.1ZM-50.3-341.8c44.1-19.9,86.8-17.6,119.1-2.8,37.7,17.3,56,46.4,61.2,86.3,4.4,33.7-1.5,68.2-9,81.9-9.9,18.3-39.5,33.1-63.1,22.4,9.5-1,16.1-6.4,21.5-13.5-10,4.5-20.7,7.4-32.7,5.9a49.4,49.4,0,0,1-7.7-9.5c9.9,1.3,17.9-1.5,24.9-6.4-9.4,2.3-18.9,3-28.8-.8-.9-1.9-1.8-4-2.5-6.2s-1.4-4-1.9-6c9.7,3.5,17.9,2.2,24.6-4.5-10.7,1.6-19.8,1.3-26.4-2.6A99.6,99.6,0,0,1,27-210.3c8,1.9,14.6,1.2,20.9-1.9-7.9,1.2-16.6-1.9-21.2-5.5-.2-41.7,24.2-74.9,24.2-74.9s-8.7,41.1,6.2,80.9,34.1,39.2,46.6,33.4S117-203.3,117-203.3s-9.9,25.7-26.1,19.3S72-203.6,72-203.6a53.9,53.9,0,0,0,8.3-17.9c7.5-1.6,16.9-.2,26.7,2.1-6.4-5.9-13.7-11.1-25-13.7a48.1,48.1,0,0,0-1.1-11.7c8.8-5.2,20.8-5.7,32.3-6.7a78.4,78.4,0,0,0-35.8-4,126.6,126.6,0,0,0-5.8-12.7c6.9-9.1,18.6-13.7,32-16.7-15.2-1-27.9,1.3-36.1,9.7-4.4-6.8-7.6-9.2-7.6-9.2s-.2-1.8-.3-4.6c3.7-9.6,10-18.4,18.5-26.5-9.4,1.8-20.3,10-26.3,17.5,0,0-4.6-2.4-7.2-2.7a69.9,69.9,0,0,1,2.7-35.6,48.9,48.9,0,0,0-11,34.7c-2.7-.2-5.8-.4-9.1-.4C20-312.4,16.8-324,16.4-336.4c-4.8,13.7-3.4,24.8.4,34.8-2.5.2-5,.5-7.6.9-12.1-7.1-21.6-17-26.7-31.4.1,16.2,6.2,26.6,15.6,33.9a66.5,66.5,0,0,0-10.6,4.2c-12.2-5.8-23.9-13.6-34.2-25.5,4.3,15,14.7,23.4,27,29.8a49.2,49.2,0,0,0-6.5,5.5c-16.3-2-32-6.4-46.2-17,9.4,14.3,23.1,21.8,40,24.4l-3.9,5c-22.4,2.9-42.6-.6-59.1-14.7,11.3,20.6,29.7,26.6,52.1,24.4-3.1,4.5-5.3,8.1-6.9,10.9-21.7,2.3-40.9-1.6-56.9-13.6,10.6,14.7,25.5,24.8,50.6,24.4L-69.9-233s-45,4-59-18.1C-128.8-251.1-120.1-310.2-50.3-341.8ZM3.6-264.2s-1.9-.3-8.4-3.1-19.6-5.8-19.6-5.8c23-27.6,64.3-16.5,64.3-16.5s-2.8,4.3-8.4,14.7a71.6,71.6,0,0,0-7.1,20.5l-10.2-5.8.3-8.3Zm-13,6.1s-18,5.8-29.2,9.8l10.2-17.5a60.8,60.8,0,0,1,11.6,3.8A78.8,78.8,0,0,1-9.4-258.1ZM57-276.2c21.7,30.6,14,56.1,14,56.1l-9.9-9.8s-.9-9.5-2.8-19.6S57-276.2,57-276.2ZM-170.1-169.8c-1.9,19.6-2,27-2,27a58.9,58.9,0,0,1-11.5-5.7c-.6-18.9.6-37.8,7.7-56.7-12.4,16.3-16.3,33.2-16.9,50.3A113.6,113.6,0,0,1-205-166c1.3-17.5,4.9-34.7,12.7-51.4a100.6,100.6,0,0,0-21.6,41.1l-1.9-2.5c-2.1-2.8-4-5.6-5.6-8.2,2.3-14.8,6.1-29.6,14.2-44.3-11.4,11.7-17,23.6-19.3,35.6a97.8,97.8,0,0,1-6.5-14.7c4.1-12.9,9.3-25.8,17.7-38.7a113.9,113.9,0,0,0-20.6,26.7,21.1,21.1,0,0,1-.2-3.1s7.9-24.5,30.6-41.4a106.2,106.2,0,0,0,15.1,32.3c11,15.6,28.6,25.9,28.6,25.9S-168.3-189.4-170.1-169.8Zm4.4,85.4c5.3-6.7,6.5-7,6.5-7l5.6,2.5s-2.5,14.7-20.8,23C-174.4-66-171-77.6-165.7-84.4Zm-54,1.5s7.9,14.2,20.6,23.1a53.4,53.4,0,0,1,.3,22.9c3.9-5.2,6.5-11.1,4.8-19.9a35.4,35.4,0,0,0,7.9,3c4.1,8.3,3.6,16.3,2.8,24.3,3.7-8.3,5.3-16.4,2.1-23.5h3.3a35.1,35.1,0,0,0,7.1-1c6.7,8.4,7.3,17.7,7.2,27.2,2.7-10.5,3.8-19.8-2.2-28.8a31.3,31.3,0,0,0,9.3-6.2c9.5,7,12.5,18,14.6,29.6.1-13,0-26-10.1-34.9a40.2,40.2,0,0,0,3.4-5.8l4,2c1.3,3.8,3,8.8,5,13.9,4,10.4,10.2,23.3,10.2,23.3S-148.6-8.7-180-17-219.7-82.8-219.7-82.8ZM-170.9,201l2.8-3.7s7.8,12.9,12,21.8a168.9,168.9,0,0,1,6.8,16.9,134.4,134.4,0,0,1-2.8,18.1c-2,8.3-4.2,10.9-4.2,10.9s-6.8-18.5-12.6-27.4a85.6,85.6,0,0,0-11.2-14.1s-1.4,20.4-2.8,31.1A160.7,160.7,0,0,1-187,275s-15.1-6.7-21.9-14.4-13.8-22.1-13.8-22.1,3.1-20.7,8.5-33.5a68.2,68.2,0,0,0,18.3,5.2c11.2,1.7,12.6.8,12.6.8S-173.7,204.7-170.9,201ZM34.3,332.6a112.6,112.6,0,0,1-21.7-21.8s-3.1-36.2-1.2-49.3c0,0,6.8,3.4,22.3,5.5l24.5,3.4s9,28.2,10.6,46.3,2.2,35.8,2.2,35.8S48.3,343.4,34.3,332.6ZM71.9,262a58.7,58.7,0,0,0,2.4-6.4S84.5,266,93.5,277.3s11.2,17.2,11.2,17.2l1.9,32.5S91,289,68.1,265.8A7.9,7.9,0,0,0,71.9,262ZM87.7,26.7c7.5-13.8,10.4-30,10.9-47.5,12.9-16.6,19.8-34.8,22.4-54.2-6.2,16.9-14.2,32.5-27,45.7-15-12.8-31.1-19.9-48.1-22.1,16.7,9.1,31.6,19.3,43.1,31.9C81.3,28.9,56.7,54.7,23.4,64.7c8.9-15.3,8.2-34.5,2.6-53-.2,20.1.9,40.4-19.6,58.1A102.8,102.8,0,0,1,4.5,54a92.3,92.3,0,0,0,2.4,57.9c7.8,5.9,16.5,10.2,20.6,15.3,2,13.7.3,25.7-1.9,37.4,2.9.3,4.9-.8,7-1.8,3.9,34.5,14.5,60,32.9,75.4-.5,7.4-1.2,16.6-6.1,22.3-21.5.2-41.7-3-49-15.4-.1-1.5.4-3.2,2.6-5.5,10.7,11,22.5,8.8,34.3,6.4-13.2-1.6-25.2-5.3-33.2-16.1,0-14.9-3.4-32-8.4-50.2l14.6,27c-3.9-18,0-34.7-41.4-52.7-3.9-10.4-2.6-20.5-1.2-31.6A294.5,294.5,0,0,0-40.5,86.1c-17.2-8.5-31.8-22-39.1-49.3-.8,17.1,4.2,30.9,13.3,42.3-38.1,3.2-76,3.1-88.5-76.9q-5.9,63.1,45.3,93.1c-16.4,26.1-63.9,30.1-83,13.6,2.7,6.4,7.9,10.5,14.3,13.6-7.7,19-8.4,38.1-1.2,57.1-5.2,10.6-16,10.4-27.8,8.3,11.4,8,22.5,9.1,33.1-.9l.5,2.8c-3.2,6.7-8.5,10.7-15.8,12.1a68.5,68.5,0,0,1-22.8-5.4c-3.3-2.7-3.7-7.1-2-12.7,4-13.8,5.4-29.9,6.1-46.6l3.4,7.7c.1-18.4,0-38-.3-59.7.8-7.5,6.7-10.7,13.7-12.9a169.2,169.2,0,0,0,9,28.8c-5.8-35.8-8.2-71.9-4-108.5,26.5,8.6,47.2-.7,64.6-19.9,5.7,9.7,14.8,17.8,27.5,24.2A31.8,31.8,0,0,0-78.3-6.5c3.8,5.1,8.4,7.4,13,9.7a69,69,0,0,0,11-3.8c4.5,4.6,9.9,5.9,15.2,7.2Q-20-9.4.9-24.6C2.2-37.1,1.7-51.1.1-66a116.6,116.6,0,0,1,18,2.9A90.9,90.9,0,0,0-1-73.6C-2-79.8-3.9-85.4-7-89.9c-1.9,4.4-2.5,7.1-6.4,11a24.2,24.2,0,0,1-9.5-4.2c7.1-19.2,18.5-36.2,33.5-51.3A266.2,266.2,0,0,1-6.7-186.6c-.5,17.6,2,32.9,7.8,45.7-21.7,9.7-33,21.3-37.2,34.3-.9-9.2,0-18.5,5.3-27.7-10.2,10.9-12.4,27.9-10.1,44,2.9,20.1,9.4,34.9,26.4,34.2-4.8-3.3-9.6-6.6-11-11.6,9.9,2.2,15.1-1.7,18.8-7.7.3,15.9.3,31.7-2.3,46.4C-20.5-20-29.9-10.4-41.2-2.1c-2.6-.1-6.4-1.2-8-2.8,10.7-6.7,18.5-13.7,22.5-24.4C-37.7-16.3-48.6-7.3-62.9-4.7A11.3,11.3,0,0,1-70-8.5,89.1,89.1,0,0,0-42.7-28.3c5.9-6.2,8-18,3.9-29.9,5.5,3.6,8.9,8.8,12.3,14.1-1.1-4.9-.9-9.5-9-17.9S-52.8-76.1-62.7-76.6c-12.8-.7-17.1,4.1-19.9,8.2a21.9,21.9,0,0,1,13.7-4.1c-13.4,11.3-8.7,24.3-.9,37.6.3,9.8-4.2,16.6-11.7,21.5a34,34,0,0,1-12.5-7.5,78.7,78.7,0,0,0-3.8-36.5c-.7,11.9-.5,22.7-4.5,33.7a38.3,38.3,0,0,1-14.3-6.9c-14.9-29.2-29.2-61.8-36.2-99.1a92.1,92.1,0,0,0,.6,31.9c-4.2-3.1-8.3-6.7-12.1-16.9-.4-28.1.3-64.8,8.4-84.3-.8,13.3-.7,21.1,2.5,34,0,0-.6-14.7,4.7-41.4s16.5-35.8,16.5-35.8c14.7,18.8,53.2,16.3,53.2,16.3l-6.5,13.2c16.2-23.3,62.9-26.3,91.6-42.6-4.7,17.9-8,33.9-26.1,57.9-11,2.2-22.4,2.8-35.1-2.5,6.9-4.6,17.1-6.9,26.5-9-11.6-1.5-18.1-1.6-28.1,1.7,7-5.7,11.4-7.5,28.9-6.4,12.2-5.6,25-17.9,27.3-31.9-6.3,12.8-24.5,25.5-28.9,23.9-14.5-1.4-24.5,1.4-32.3,6.1a85.5,85.5,0,0,0-11.5,23c18.9,4.8,38.5,7.3,57.4,2.8,14.3-15.2,21.4-38.2,28.2-61.6l10.2,7c-5.7,22.5-4.4,44.9,1.2,67.4,9.2,36.7,65.7,45.3,91.9,21.8,5.4,20.3,13.7,40.1,16.1,61C136.2-58.1,129.5,5.9,87.7,26.7ZM-108-17.6s1.4.9,5.3.8a29.2,29.2,0,0,0,4.3-.3l10.1,7.2-5.6,1.7S-99.7-9.3-108-17.6ZM-62-37.5S-69.9-49-70.2-56.6s9.8-9.8,9.8-9.8,2.8,4.3,4.5,13.9a42.5,42.5,0,0,1-.2,16.7,42.1,42.1,0,0,0,4-17.3c.2-10-.6-13.3-.6-13.3a33.7,33.7,0,0,1,7.1,7.5c2.6,4.1,2.6,4.4,2.6,4.4l.3,15.2A71.7,71.7,0,0,1-68.7-15.4s5-7.2,6.2-12.3A27.5,27.5,0,0,0-62-37.5ZM118.8,125.4s-2.5,4-14.9,11.6-30.7,13.5-30.7,13.5l-1.2-6.7,34.8-15.3-35.1,6.1s-.9-2.8,7.5-29.1,32.6-45.7,32.6-45.7l14,10.1C112.6,98.1,118.8,125.4,118.8,125.4ZM237.2-21.7C236.1-14.7,225.7-1,225.7-1l2.8-13.2a286.5,286.5,0,0,1-25.5,45.5c-16.1,23.4-42.6,55.1-42.6,55.1a38.1,38.1,0,0,1-5.7,9.8,156.9,156.9,0,0,1-10.9,11.4,14.4,14.4,0,0,1-4.1-3.8c-1.4-2.1-2.6-7.3-2.6-7.3a51.9,51.9,0,0,0-.6,9.8c.2,4.8,1.3,7,1.3,7l-10.6,5.2s0-6.1.6-20.5,4.8-28.3,7.9-30,7.4,2.3,7.4,2.3,8.4-8.3,14.4-15.5S180,21.2,183.4,10.2a41,41,0,0,0,.4-21.4s-.2,3.4-.7,7a38.5,38.5,0,0,1-1.7,7,63.9,63.9,0,0,1-3.7-12.3c-1.2-6.6-.3-10.5-.3-10.5s-1.2,1.3-3,7.4A41.5,41.5,0,0,0,172.9-.4L157.4,1.4s-2.5-3.1-3.7-12.6a66,66,0,0,1,.3-18.1s25.7-6.3,28.5-7.8,15.8-13.5,26.4-12.6S238.3-28.8,237.2-21.7Z" transform="translate(245.7 367.8)" style="fill:#050000;fill-rule:evenodd"/><path d="M-77.7-132.8c-3.6,5.1-9.9,9.3-9.9,9.3s9.8,1.2,14.7-9-.3-16.1-.3-16.1S-74.1-137.8-77.7-132.8Z" transform="translate(245.7 367.8)" style="fill:#050000;fill-rule:evenodd"/></svg>