<svg id="Layer_1" data-name="Layer 1" xmlns="http://www.w3.org/2000/svg" viewBox="0 0 505.8 749.9"><title>Ram894_4c</title><path d="M-9.7-276.6c2.7.8,5.4,1.8,7.7,2.8s3.4,1.5,5.2,2.1l18.8-7.4-.3,8.4a77.7,77.7,0,0,1,3.5-7.5l3.2-6a83.9,83.9,0,0,0-11.8-.3c-9.6.5-18.7,2.9-26.4,7.9M116.9,41.9,129,52.7a14,14,0,0,1,6.1-.9l3.2.5c4-4.4,8-9,11.8-13.5a129.5,129.5,0,0,0,8.3-11c1.7-2.6,3.5-5.3,5.2-8.1L142,24.1c-3,2.6-6.3,5.2-9.5,7.5A182.4,182.4,0,0,1,116.9,41.9Zm14.7,93.7a176.3,176.3,0,0,1-24.9,18.2c-2.6,1.6-5.3,3-8,4.4-9.3,4.5-22.6,8.5-33.1,8.7H61.2l-2.1-3.8c-2.9-5.2-4.4-13.1-4.8-18.9-1.2-16.5,3.6-33.1,10.9-47.8S82.6,66.8,95,55.2c1.7-1.6,3.6-3.3,5.6-5a124.8,124.8,0,0,1-23.3,7.6c-2.6.6-5.6,1.1-8.4,1.5C61.3,68,50.5,77,40.6,81.8a164.9,164.9,0,0,1-21.9,9l1.8,7.6c6,3.9,14.2,9.7,17.9,14.5a60.4,60.4,0,0,1,6,8.5l.6,1.3v1.4a154.5,154.5,0,0,1,.6,19,39.6,39.6,0,0,1-1.5,9.3c2.1,9.1,4.6,18.2,7.4,27,2,6.4,4.3,13.5,7.3,19.5,2.1,4.1,4.2,8.3,6.5,12.3.5.9,1.1,2,1.7,2.9l16.1,14L84,230a25.6,25.6,0,0,1,.5,13.6l-.3,1.4a101,101,0,0,1,20.2,19.5,170,170,0,0,1,14.6,22.4l.6,1.1.2,1.2a166.9,166.9,0,0,1,1.6,33.4c-.4,5.9-1.3,16.9-3.7,22.4l-3.2,7.1L88.9,338l-.3,3.6A107.6,107.6,0,0,1,87,354.2c-1,4.5-2,9.1-3.2,13.6L81.9,375l-7.1-2.2a150.3,150.3,0,0,1-15.2-5.9,185.3,185.3,0,0,1-32.1-18A96.1,96.1,0,0,1,2.6,322.9a72.3,72.3,0,0,1-7.2-13.8l-.5-1.4,3-50.4C-6,251.5-7.7,243.8-5.7,237c.8-2.6,1.5-5.3,2.5-7.9-10.3-2.1-24.3-5.7-30.4-9.9-4.1-2.9-9.6-7.5-12.3-12l-1.4-2.3,3.7-22.7c-3.9-3.3-7.2-7.7-7.7-12.5-.1-1.1-.2-2.2-.3-3.4-.4-6.1-1.5-9.7-4.1-15.3s-8.4-9.5-12.5-12.5c-5.8-4.3-13-8.8-17.7-14.2a25.1,25.1,0,0,1-6.5-14.8l-5.7-1.3a37.5,37.5,0,0,1-3.4,4.6c-6.6,7.8-16,12.6-25.7,15.4a109.5,109.5,0,0,1-32.4,4.2l-7.5-.4a63.7,63.7,0,0,0-1.5,15.9,125,125,0,0,0,2.7,20.1,24,24,0,0,1,6.5,11.6,36,36,0,0,1,.6,10.1c5.8,6.2,11.9,14.4,15.1,21.7s5.7,13.3,8.4,20.1l.7,1.6-.2,1.7c-.8,8.8-2.8,21.3-6.3,29.4a67.2,67.2,0,0,1-11.1,17.5l-5,5.4-15.4-15.3c-.4,1.6-.8,3.1-1.2,4.7-1.1,4-3.2,9.4-5.8,12.6l-2.7,3.4-4.3-.9c-11.9-2.4-25.6-9.9-34.1-18.3s-16.1-21.3-19.1-32.7l-.4-1.6.3-1.6a163.4,163.4,0,0,1,6-23.3c1.4-4,3-8.1,4.8-12.1a16.7,16.7,0,0,1-1.6-3.5c-2.7-8.1,0-19,2.5-26.8,6.6-20.5,6.6-49,5.6-70.4-.6-13.2.2-30.1,12.6-37.9a50.2,50.2,0,0,1,7.8-4.1c-.6-6-1.1-12-1.5-17.9a424.3,424.3,0,0,1-.8-48.3c-13.9-10.9-22.1-33.8-26.2-49.3s-6.6-33.4-4.4-49.7c.7-5.3,2.4-12.9,5.2-17.6l9.5-16.2,3.7,18.4c2.3,11.4,8.8,31.7,17.6,39.6a50.8,50.8,0,0,0,9.4,6.6,122.9,122.9,0,0,1,11.5-21.6c.9-1.3,2-2.8,3.1-4.3l-3.9-5.8-.3-1.5a151.5,151.5,0,0,1-1.9-18.6,186.3,186.3,0,0,1-46.9-42.6c-9.4-12-18.1-26.1-22.3-40.9-1.4-4.9-2.8-12-2.1-17.1v-.3a74.4,74.4,0,0,1,3.6-12.7,94.7,94.7,0,0,1,14.6-26.1c5.4-6.8,12-13.3,19.5-17.7a32.1,32.1,0,0,1,9.8-3.9l1-.2h1a90.9,90.9,0,0,1,17.8,4.1c11.5,3.8,22.9,9.9,30.9,19.2,3.3,3.8,6.8,7.3,10.3,10.9.4-2.7,1.1-5.5,1.7-8a126.1,126.1,0,0,1,11-28.1c16.6-31,43.8-53.6,75.2-68.6,44.9-21.4,98.8-22.7,142.2,3.1,33.4,19.8,54.2,52.1,61.6,90s1.4,76.6-17.1,109c2.1,4,4,8.3,5.7,12.3a171.5,171.5,0,0,1,11.2,36.5c1.5,8.6,3,17.2,4.3,25.8.2,1.5.5,3.2.6,4.7a66.2,66.2,0,0,1,7.5,20c.6,3.4,1.1,6.9,1.6,10.4l13.5-2.7c7.9-5.9,21.2-14.6,30.1-15.7s19.9,4.6,27,9.5,12.2,9.8,15.7,16.2c7,13,7.4,24,.7,37.3-4.3,8.4-13.7,16.8-22,21.9-7.7,12.6-15.6,25.2-23.7,37.6-6.3,9.6-12.8,19.6-19.9,28.6l-11.4,14.8-2.2,2.9-1,1.5a87.8,87.8,0,0,1-18.4,19.8C144.7,128.7,137.7,133.3,131.5,135.6Z" transform="translate(252.9 375)" style="fill:#fff;fill-rule:evenodd"/><path d="M57-276.2s-.6,16.5,1.2,26.7,2.8,19.6,2.8,19.6l9.9,9.8s7.8-25.4-14-56.1m-81.3,3.1s13,3.1,19.6,5.8,8.4,3.1,8.4,3.1l10.9-4.3-.3,8.3,10.2,5.8a71.6,71.6,0,0,1,7.1-20.5c5.6-10.4,8.4-14.7,8.4-14.7S-1.3-300.7-24.3-273.1ZM-143.5-243l5.9-6.4s5-65,84.4-102.9,175.9-3.8,193.7,88c7.1,36.6.7,76.4-18.3,107.5,0,0,13.3,23.9,18,50.2s5,31.6,5,31.6,5.9,9.8,7.5,19,2.5,17.8,2.5,17.8l22.7-4.6s18.3-14.1,27.9-15.3,29.5,11,35.4,22.1,6.2,19.6.6,30.6-20.8,19.9-20.8,19.9-28.9,47.5-44.1,67.1S162,101.2,162,101.2a84.3,84.3,0,0,1-16.8,18.1c-9.9,7.7-17.4,10.1-17.4,10.1S111.4,144,95.5,151.7a80.6,80.6,0,0,1-30.1,8S53,137.3,71.6,99.6s42.8-50.2,42.8-50.2l14.3,12.6a5.9,5.9,0,0,1,5.9-3.1c4.3.3,5.6,1.8,5.6,1.8S157,42.9,164.4,31.6A203.7,203.7,0,0,0,175,14.1l-3.1-3.7-33.2,7A170,170,0,0,1,102,41.7C80.9,51.8,65.4,52.4,65.4,52.4S53,67.8,37.5,75.4A141.4,141.4,0,0,1,10.2,85.8l4,17.2s14.3,8.9,18.6,14.4,5.3,7.4,5.3,7.4.9,11.9.6,18.1-1.9,9.2-1.9,9.2,8.1,34.9,15.8,50.2S62,219.1,62,219.1l15.2,13.2a18.7,18.7,0,0,1,.3,9.5,32.9,32.9,0,0,0-1.2,6.4s13.3,8.6,22.4,20.5a173.1,173.1,0,0,1,14,21.4s2.5,16.9,1.6,31.9S111,342,111,342L82.5,326.3s-.9,19-2.5,26.3-3.1,13.2-3.1,13.2a184.1,184.1,0,0,1-45.3-23c-22-15.6-29.5-36.2-29.5-36.2l3.1-51.5s-6.5-7.7-4-16.2,2.8-8.6,2.8-8.6l.9-7s-27-4.9-34.5-10.1-10.2-9.8-10.2-9.8l4-24.5s-7.8-4.6-8.4-10.1.3-9.2-5-20.8S-73,128.1-80.5,119.5s-4-15.6-4-15.6l-17.7-4s-3.7,14.7-27,21.4a100.2,100.2,0,0,1-43.1,2.8s-4,11.9-3.4,24.2a141.7,141.7,0,0,0,3.4,23.6,16.7,16.7,0,0,1,5.9,9.2,27.9,27.9,0,0,1,0,11s11.5,11.3,16.1,22.1,8.4,19.9,8.4,19.9-1.6,17.6-5.7,27.1a60.4,60.4,0,0,1-9.8,15.5L-177,257.3s-1.7,10.1-3.7,17.2-4.5,10.1-4.5,10.1-17.5-3.5-30.4-16.4-17.2-29.4-17.2-29.4a184.7,184.7,0,0,1,5.7-22.2,149.9,149.9,0,0,1,6.7-15.9s-8.7-2.5-.9-26.7,6.5-59.7,5.9-72.9.6-26,9.3-31.6,11.8-4.6,11.8-4.6-5-38.5-2.9-75.4c-4.9-2.8-17.7-13.3-26.6-47.5-11.2-42.9,0-61.9,0-61.9s6.2,31.3,19.9,43.5a59.3,59.3,0,0,0,18,11c9.8-26.2,19.8-34.9,19.8-34.9l-6.2-9.2a170.4,170.4,0,0,1-2-21.5,177.1,177.1,0,0,1-48.3-42.8c-25.5-32.5-23-52.7-23-52.7a86.6,86.6,0,0,1,16.8-35.5c13.7-17.2,24.8-19,24.8-19s28.6,3.1,44.1,20.8C-153.2-252.5-147.7-247.5-143.5-243Z" transform="translate(252.9 375)" style="fill:#050000;fill-rule:evenodd"/><path d="M-108-17.6s1.4.9,5.3.8a29.2,29.2,0,0,0,4.3-.3l10.1,7.2-5.6,1.7s-5.9-1.1-14.1-9.3m31.2-159s-12.4.5-21.7,5.2-13.5,8.1-13.5,8.1l-7.3,44.9s-7.6-.9-15.2-8.3-8.8-8.9-8.8-8.9,4.7,9.8,9.5,15.8,8.2,8.1,8.2,8.1a142.7,142.7,0,0,0,2.5,19.9c2.2,11.2,5.9,16.1,5.9,16.1s-2.5-12.3-1.6-22.5,1.1-12.6,1.1-12.6a29.1,29.1,0,0,0,5.7-4.4,10.8,10.8,0,0,0,2.3-4.4S-91.5-117-83-133.1s-1.1-25.6-1.1-25.6a23,23,0,0,1,1.2,12.1c-1.2,6.3-5.7,8.3-5.7,8.3s.6-10.9-3.4-17.2-8.7-8.1-8.7-8.1S-90-173.7-76.8-176.6Zm3.6,28s-.9,10.7-4.5,15.8-9.9,9.3-9.9,9.3,9.8,1.2,14.7-9S-73.2-148.6-73.2-148.6ZM-174.4-66s3.4-11.6,8.7-18.4,6.5-7,6.5-7l5.6,2.5S-156.1-74.3-174.4-66ZM-38.6-248.3l10.2-17.5a60.8,60.8,0,0,1,11.6,3.8,78.8,78.8,0,0,1,7.3,3.8S-27.4-252.3-38.6-248.3Zm-93.6,6.2s-11.2,9.2-16.5,35.8-4.7,41.4-4.7,41.4c-3.2-12.9-3.3-20.7-2.5-34-8.1,19.5-8.8,56.1-8.4,84.3,3.8,10.1,7.9,13.7,12.1,16.9a92.1,92.1,0,0,1-.6-31.9c7,37.4,21.3,69.9,36.2,99.1a38.3,38.3,0,0,0,14.3,6.9c4-11,3.8-21.8,4.5-33.7a78.7,78.7,0,0,1,3.8,36.5,34,34,0,0,0,12.5,7.5c7.6-4.9,12-11.7,11.7-21.5-7.8-13.3-12.5-26.3.9-37.6a21.9,21.9,0,0,0-13.7,4.1c2.8-4.1,7.1-8.9,19.9-8.2,9.9.5,20.1,7.4,27.1,14.6s7.9,13.1,9,17.9c-3.4-5.3-6.8-10.5-12.3-14.1,4.1,11.9,2,23.7-3.9,29.9A89.1,89.1,0,0,1-70-8.5a11.3,11.3,0,0,0,7.1,3.8c14.3-2.6,25.2-11.6,36.2-24.5-4,10.7-11.8,17.7-22.5,24.4,1.5,1.6,5.4,2.6,8,2.8,11.4-8.3,20.7-17.9,32.1-27,2.7-14.7,2.6-30.5,2.3-46.4-3.7,5.9-8.9,9.9-18.8,7.7,1.4,5,6.2,8.3,11,11.6-17,.7-23.5-14.1-26.4-34.2-2.3-16.1-.1-33.1,10.1-44-5.3,9.2-6.2,18.5-5.3,27.7,4.3-13,15.6-24.6,37.2-34.3-5.7-12.7-8.2-28-7.8-45.7a266.2,266.2,0,0,0,17.4,52.1c-15,15.1-26.4,32.1-33.5,51.3a24.2,24.2,0,0,0,9.5,4.2c3.9-3.9,4.5-6.5,6.4-11C-3.9-85.4-2-79.8-1-73.6A90.9,90.9,0,0,1,18.1-63.1,116.6,116.6,0,0,0,.1-66C1.7-51.1,2.2-37.1.9-24.6Q-19.9-9.4-39,6.5C-44.3,5.2-49.7,3.8-54.2-.7a69,69,0,0,1-11,3.8c-4.6-2.2-9.2-4.5-13-9.7A31.7,31.7,0,0,1-94.5-3c-12.7-6.4-21.8-14.5-27.5-24.2C-139.4-8-160.1,1.3-186.6-7.3c-4.2,36.6-1.7,72.7,4,108.5a169.2,169.2,0,0,1-9-28.8c-7,2.2-12.9,5.3-13.7,12.9.3,21.7.4,41.3.3,59.7l-3.4-7.7c-.6,16.7-2.1,32.7-6.1,46.6-1.7,5.6-1.3,10,2,12.7a68.5,68.5,0,0,0,22.8,5.4c7.3-1.4,12.6-5.4,15.8-12.1l-.5-2.8c-10.6,10-21.7,8.9-33.1.9,11.8,2.1,22.6,2.3,27.8-8.3-7.2-19-6.5-38.1,1.2-57.1-6.4-3.1-11.6-7.3-14.3-13.6,19.1,16.4,66.7,12.5,83-13.6q-51.2-30-45.3-93.1c12.5,80,50.4,80.1,88.5,76.9-9.2-11.4-14.1-25.2-13.3-42.3,7.3,27.3,21.9,40.8,39.1,49.3a294.5,294.5,0,0,1,18.2,36.2c-1.4,11-2.7,21.1,1.2,31.6,41.4,18,37.5,34.7,41.4,52.7l-14.6-27c5,18.2,8.3,35.3,8.4,50.2,8,10.8,20,14.5,33.2,16.1-11.8,2.4-23.6,4.6-34.3-6.4-2.2,2.3-2.7,4-2.6,5.5,7.4,12.4,27.6,15.6,49,15.4,4.8-5.7,5.5-14.9,6.1-22.3-18.4-15.3-29-40.8-32.9-75.4-2.1,1-4.1,2.1-7,1.8,2.2-11.7,3.8-23.6,1.9-37.4-4-5.1-12.8-9.4-20.6-15.3A92.3,92.3,0,0,1,4.5,54a102.8,102.8,0,0,0,2,15.8C27,52.1,25.8,31.8,26.1,11.7c5.6,18.5,6.3,37.7-2.6,53,33.3-10,57.9-35.8,65.5-84.3C77.4-32.1,62.5-42.4,45.8-51.4c17,2.2,33.1,9.3,48.1,22.1,12.8-13.2,20.8-28.8,27-45.7-2.6,19.4-9.4,37.7-22.4,54.2-.4,17.5-3.4,33.7-10.9,47.5C129.5,5.9,136.2-58.1,132.1-94c-2.4-20.9-10.8-40.6-16.1-61C89.8-131.4,33.3-140.1,24-176.7c-5.7-22.5-7-44.9-1.2-67.4l-10.2-7c-6.8,23.4-13.9,46.4-28.2,61.6-18.9,4.5-38.5,2-57.4-2.8a85.5,85.5,0,0,1,11.5-23c7.8-4.8,17.8-7.5,32.3-6.1,4.3,1.6,22.6-11.1,28.9-23.9-2.3,14-15.1,26.3-27.3,31.9-17.5-1.1-21.9.8-28.9,6.4,10-3.3,16.5-3.2,28.1-1.7-9.4,2.2-19.6,4.4-26.5,9,12.7,5.2,24.1,4.6,35.1,2.5,18.1-24,21.3-40,26.1-57.9-28.7,16.2-75.3,19.3-91.6,42.6l6.5-13.2S-117.5-223.3-132.2-242.1Z" transform="translate(252.9 375)" style="fill:#522d24;fill-rule:evenodd"/><path d="M-214.2,205a68.2,68.2,0,0,0,18.3,5.2c11.2,1.7,12.6.8,12.6.8s9.6-6.3,12.4-10l2.8-3.7s7.8,12.9,12,21.8a168.9,168.9,0,0,1,6.8,16.9,134.4,134.4,0,0,1-2.8,18.1c-2,8.3-4.2,10.9-4.2,10.9s-6.8-18.5-12.6-27.4a85.6,85.6,0,0,0-11.2-14.1s-1.4,20.4-2.8,31.1A160.7,160.7,0,0,1-187,275s-15.1-6.7-21.9-14.4-13.8-22.1-13.8-22.1,3.1-20.7,8.5-33.5" transform="translate(252.9 375)" style="fill:#c3c7c7;fill-rule:evenodd"/><path d="M11.3,261.5s6.8,3.4,22.3,5.5l24.5,3.4s9,28.2,10.6,46.3,2.2,35.8,2.2,35.8-22.7-9.2-36.6-19.9a112.6,112.6,0,0,1-21.7-21.8s-3.1-36.2-1.2-49.3" transform="translate(252.9 375)" style="fill:#c3c7c7;fill-rule:evenodd"/><path d="M68.1,265.8a7.9,7.9,0,0,0,3.8-3.8,58.7,58.7,0,0,0,2.4-6.4S84.5,266,93.5,277.3s11.2,17.2,11.2,17.2l1.9,32.5S91,289,68.1,265.8" transform="translate(252.9 375)" style="fill:#c3c7c7;fill-rule:evenodd"/><path d="M-205.5-266.9a106.2,106.2,0,0,0,15.1,32.3c11,15.6,28.6,25.9,28.6,25.9s-6.4,19.3-8.2,38.9-2,27-2,27a58.9,58.9,0,0,1-11.5-5.7c-.6-18.9.6-37.8,7.7-56.7-12.4,16.3-16.3,33.2-16.9,50.3A113.5,113.5,0,0,1-205-166c1.3-17.5,4.9-34.7,12.7-51.4a100.6,100.6,0,0,0-21.6,41.1l-1.9-2.5c-2.1-2.8-4-5.6-5.6-8.2,2.3-14.8,6.1-29.6,14.2-44.3-11.4,11.7-17,23.6-19.3,35.6a97.8,97.8,0,0,1-6.5-14.7c4.1-12.9,9.3-25.8,17.7-38.7a113.9,113.9,0,0,0-20.6,26.7,21.1,21.1,0,0,1-.2-3.1s7.9-24.5,30.6-41.4" transform="translate(252.9 375)" style="fill:#c3c7c7;fill-rule:evenodd"/><path d="M-128.8-251.1s8.7-59.1,78.5-90.7c44.1-19.9,86.8-17.6,119.1-2.8,37.7,17.3,56,46.4,61.2,86.3,4.4,33.7-1.5,68.2-9,81.9-9.9,18.3-39.5,33.1-63.1,22.4,9.5-1,16.1-6.4,21.5-13.5-10,4.5-20.7,7.4-32.7,5.9a49.4,49.4,0,0,1-7.7-9.5c9.9,1.3,17.9-1.5,24.9-6.4-9.4,2.3-18.9,3-28.8-.8-.9-1.9-1.8-4-2.5-6.2s-1.4-4-1.9-6c9.7,3.5,17.9,2.2,24.6-4.5-10.7,1.6-19.8,1.3-26.4-2.6A99.6,99.6,0,0,1,27-210.3c8,1.9,14.6,1.2,20.9-1.9-7.9,1.2-16.6-1.9-21.2-5.5-.2-41.7,24.2-74.9,24.2-74.9s-8.7,41.1,6.2,80.9,34.1,39.2,46.6,33.4S117-203.3,117-203.3s-9.9,25.7-26.1,19.3S72-203.6,72-203.6a53.9,53.9,0,0,0,8.3-17.9c7.5-1.6,16.9-.2,26.7,2.1-6.4-5.9-13.7-11.1-25-13.7a48.1,48.1,0,0,0-1.1-11.7c8.8-5.2,20.8-5.7,32.3-6.7a78.4,78.4,0,0,0-35.8-4,126.6,126.6,0,0,0-5.8-12.7c6.9-9.1,18.6-13.7,32-16.7-15.2-1-27.9,1.3-36.1,9.7-4.4-6.8-7.6-9.2-7.6-9.2s-.2-1.8-.3-4.6c3.7-9.6,10-18.4,18.5-26.5-9.4,1.8-20.3,10-26.3,17.5,0,0-4.6-2.4-7.2-2.7a69.9,69.9,0,0,1,2.7-35.6,48.9,48.9,0,0,0-11,34.7c-2.7-.2-5.8-.4-9.1-.4C20-312.4,16.8-324,16.4-336.4c-4.8,13.7-3.4,24.8.4,34.8-2.5.2-5,.5-7.6.9-12.1-7.1-21.6-17-26.7-31.4.1,16.2,6.2,26.6,15.6,33.9a66.5,66.5,0,0,0-10.6,4.2c-12.2-5.8-23.9-13.6-34.2-25.5,4.3,15,14.7,23.4,27,29.8a49.2,49.2,0,0,0-6.5,5.5c-16.3-2-32-6.4-46.2-17,9.4,14.3,23.1,21.8,40,24.4l-3.9,5c-22.4,2.9-42.6-.6-59.1-14.7,11.3,20.6,29.7,26.6,52.1,24.4-3.1,4.5-5.3,8.1-6.9,10.9-21.7,2.3-40.9-1.6-56.9-13.6,10.6,14.7,25.5,24.8,50.6,24.4L-69.9-233s-45,4-59-18.1" transform="translate(252.9 375)" style="fill:#c3c7c7;fill-rule:evenodd"/><path d="M154-29.2a66,66,0,0,0-.3,18.1c1.2,9.5,3.7,12.6,3.7,12.6L172.9-.4a41.5,41.5,0,0,1,1.5-12.2c1.8-6.1,3-7.4,3-7.4s-.9,3.9.3,10.5a63.9,63.9,0,0,0,3.7,12.3,38.5,38.5,0,0,0,1.7-7c.5-3.5.7-7,.7-7a41,41,0,0,1-.4,21.4c-3.4,11-19.7,37.5-25.8,44.7s-14.4,15.5-14.4,15.5-4.3-4-7.4-2.3-7.3,15.6-7.9,30-.6,20.5-.6,20.5l10.6-5.2s-1.1-2.1-1.3-7a51.9,51.9,0,0,1,.6-9.8s1.2,5.1,2.6,7.3a14.4,14.4,0,0,0,4.1,3.8,156.9,156.9,0,0,0,10.9-11.4,38.1,38.1,0,0,0,5.7-9.8s26.5-31.7,42.6-55.1a286.5,286.5,0,0,0,25.5-45.5L225.7-1s10.4-13.6,11.5-20.7-17.8-27-28.4-27.9-23.6,11-26.4,12.6S154-29.2,154-29.2" transform="translate(252.9 375)" style="fill:#522d24;fill-rule:evenodd"/><path d="M125.6,69.9l-14-10.1S87.4,79.1,79.1,105.4s-7.5,29.1-7.5,29.1l35.1-6.1L71.9,143.7l1.2,6.7s18.3-5.8,30.7-13.5,14.9-11.6,14.9-11.6-6.2-27.3,6.8-55.5" transform="translate(252.9 375)" style="fill:#c3c7c7;fill-rule:evenodd"/><path d="M-106.5-152.1a9.6,9.6,0,0,1,8.1,9.4,9.6,9.6,0,0,1-9.7,9.6h-1.4c.3-1.1.6-2.5,1-4.2l1.4.2a4.5,4.5,0,0,0,4.6-4.5,4.5,4.5,0,0,0-4.6-4.5h0c.3-2.1.5-4.1.7-5.8" transform="translate(252.9 375)" style="fill:#fff;fill-rule:evenodd"/><path d="M-68.7-15.4s5-7.2,6.2-12.3a27.5,27.5,0,0,0,.5-9.8S-69.9-49-70.2-56.6s9.8-9.8,9.8-9.8,2.8,4.3,4.5,13.9a42.5,42.5,0,0,1-.2,16.7,42.1,42.1,0,0,0,4-17.3c.2-10-.6-13.3-.6-13.3a33.7,33.7,0,0,1,7.1,7.5c2.6,4.1,2.6,4.4,2.6,4.4l.3,15.2A71.7,71.7,0,0,1-68.7-15.4" transform="translate(252.9 375)" style="fill:#fff;fill-rule:evenodd"/><path d="M-219.7-82.8s7.9,14.2,20.6,23.1a53.4,53.4,0,0,1,.3,22.9c3.9-5.2,6.5-11.1,4.8-19.9a35.4,35.4,0,0,0,7.9,3c4.1,8.3,3.6,16.3,2.8,24.3,3.7-8.3,5.3-16.4,2.1-23.5h3.3a35.1,35.1,0,0,0,7.1-1c6.7,8.4,7.3,17.7,7.2,27.2,2.7-10.5,3.8-19.8-2.2-28.8a31.3,31.3,0,0,0,9.3-6.2c9.5,7,12.5,18,14.6,29.6.1-13,0-26-10.1-34.9a40.2,40.2,0,0,0,3.4-5.8l4,2c1.3,3.8,3,8.8,5,13.9,4,10.4,10.2,23.3,10.2,23.3S-148.6-8.7-180-17s-39.7-65.9-39.7-65.9" transform="translate(252.9 375)" style="fill:#c3c7c7;fill-rule:evenodd"/><path d="M-108-17.6s1.4.9,5.3.8a29.2,29.2,0,0,0,4.3-.3l10.1,7.2-5.6,1.7s-5.9-1.1-14.1-9.3m-44.7-112.1c0-2.2-.1-4.2,0-5.4a42.8,42.8,0,0,1,1.6-9.5s4.1,4.7,7.9,9.3l-.2-.2s4.7,9.8,9.5,15.8,8.2,8.1,8.2,8.1a142.7,142.7,0,0,0,2.5,19.9c2.2,11.2,5.9,16.1,5.9,16.1h0a31.3,31.3,0,0,0,3.1,5.9A38.1,38.1,0,0,0-104-59.5s9.9-26,33.8-24.7c18.5.9,29.6,8.8,33.7,12.4,4.1,9.9,10.7,16.1,21.8,15.6-4.8-3.3-9.6-6.6-11-11.6,9.9,2.2,15.1-1.7,18.8-7.7.3,15.9.3,31.7-2.3,46.4C-20.5-20-29.9-10.4-41.2-2.1c-2.6-.1-6.4-1.2-8-2.8,10.7-6.7,18.5-13.7,22.5-24.4C-37.7-16.3-48.6-7.3-62.9-4.7A11.3,11.3,0,0,1-70-8.5,89.1,89.1,0,0,0-42.7-28.3c5.9-6.2,8-18,3.9-29.9,5.5,3.6,8.9,8.8,12.3,14.1-1.1-4.9-.9-9.5-9-17.9S-52.8-76.1-62.7-76.6c-12.8-.7-17.1,4.1-19.9,8.2a21.9,21.9,0,0,1,13.7-4.1c-13.4,11.3-8.7,24.3-.9,37.6.3,9.8-4.2,16.6-11.7,21.5a34,34,0,0,1-12.5-7.5,78.7,78.7,0,0,0-3.8-36.5c-.7,11.9-.5,22.7-4.5,33.7a38.3,38.3,0,0,1-14.3-6.9c-14.9-29.2-29.2-61.8-36.2-99.1Z" transform="translate(252.9 375)" style="fill:#c3c7c7;fill-rule:evenodd"/><path d="M-208-257.5a76.8,76.8,0,0,0,11.6,25.7c8.8,12.4,28.2,25.1,28.2,25.1l-7.4,25.1a66.5,66.5,0,0,1-5.7-4.6,116.2,116.2,0,0,1,5.3-19.1,81.7,81.7,0,0,0-9.2,15.4,93.3,93.3,0,0,1-12.2-14.8,130.1,130.1,0,0,1,5.2-12.9,106.1,106.1,0,0,0-7.3,9.5,71.6,71.6,0,0,1-8.6-21.6l1-1.8-1.1,1.2a64.9,64.9,0,0,1,.3-27.3m92-.5s14.9-68,104.3-86.4,114.2,41.7,114.2,41.7-23-17.8-57.3-26.1a67.4,67.4,0,0,1,2.2-7.6,52.7,52.7,0,0,0-4.8,7,145.1,145.1,0,0,0-26-3.4q-.1-1.8-.2-3.6-.6,1.8-1.1,3.5A131.3,131.3,0,0,0-16.6-330l-.8-2.2q0,1.2.1,2.4a133.7,133.7,0,0,0-29.2,10.3h0c-15.5,7.5-31.2,18.7-46.8,34.6l-2-1.6,1.3,2.3A247.1,247.1,0,0,0-116-258Z" transform="translate(252.9 375)" style="fill:#fff;fill-rule:evenodd"/></svg>