<svg id="Layer_1" data-name="Layer 1" xmlns="http://www.w3.org/2000/svg" viewBox="0 0 508.4 520.3"><title>Raven545_4c</title><path d="M-100.7,70.7V71c.7,2.1,1.4,4.2,2.2,6.3A25,25,0,0,0-93.9,76l1.6-.7-7.8-4.3Zm-30.9,34.7.3-.2-.5-.3ZM-14.1-146.5c-.7-2.4-5.3-8.1-6.7-9.8a178,178,0,0,0-15.6-16.6A127.5,127.5,0,0,0-55.2-188a102.1,102.1,0,0,0-25.9-11.4c-4.9-1.4-13.1-3.3-18.3-2.7s-7.4,7.2-8.4,10.6l-2.4,8.2-5.7-6.3a42.9,42.9,0,0,1-5.9-9.1,50.8,50.8,0,0,1-5.4-23.7c.3-15,17.5-23.7,29.6-28a163.8,163.8,0,0,1,33.2-7.4,323.6,323.6,0,0,1,45.2-2.3c25.8.3,52.4,3.1,77.4,9.8A182.3,182.3,0,0,1,78-243.8c2.3.9,4.7,1.9,6.9,3q24.7,9.9,49.1,20.4c10.8,4.6,21.6,9.3,32.2,14.3a178.1,178.1,0,0,1,36.2,22.9,162.3,162.3,0,0,1,12.4,11.1,83.7,83.7,0,0,1,7.9,8.8,76.9,76.9,0,0,1,6.9,11.7c2.8,5.7,5.5,11.8,7.7,17.7l4.4,11.5-6.6-3.3a72.5,72.5,0,0,1,3.6,6.3,82.4,82.4,0,0,1,5.2,14.3A201,201,0,0,1,249-81.7l1.9,12.3-7.4-6,.7,1.9c.8,2.2,1.5,4.4,2.2,6.7a119.8,119.8,0,0,1,2.8,12.5c1.2,6.9,2.2,14,2.9,21l1.3,12.5-5.9-5.4q1.6,4.7,2.9,9.6A99.1,99.1,0,0,1,253.2-.3a212,212,0,0,1,1,21.5c0,3.3,0,6.7-.2,10l-.6,12.4-7.9-9.6L240.7,28l.4,4.2a57.5,57.5,0,0,1,.1,6.5c-.1,3.1-.2,6.3-.4,9.4-.5,8-1.1,16-1.7,23.9q-1.7,20.3-3.8,40.6l-2,19.6L226.1,114Q212.5,79.3,198,45q-6-14.3-12.2-28.5c-3.4-7.8-7-15.7-10.7-23.4L170.5-16c-7.6-14.7-15.9-29-24.6-43.1l-.8-1.4a77.2,77.2,0,0,1,.3,12.6,130.7,130.7,0,0,1-4.3,23l-3.4,12.3L132.1-24c-1.8-3.7-3.8-7.4-5.8-11l-1.5-2.6c-.2,2.3-.5,4.5-.8,6.6a61.1,61.1,0,0,1-5.1,15.7l-4.1,8.3-4.4-8.1-6.2-11.3-.2,1a55.4,55.4,0,0,1-3.9,13.1l-4,8.3-4.5-8-6-10.5c-.5,2.3-1,4.7-1.7,7-1.5,4.9-5.3,11-8.4,15.1L70.2,6.6l-3-8.4L64-11.1a194.6,194.6,0,0,1,2.1,20c.4,7.4,1.3,14.7,2.3,22,.5,3,.9,6.1,1.5,9.1,24.2,31.1,47,63.3,67.2,97.1l.8,1.3V140c-1.2,12.8-4,25.2-9.3,36.9l-2.9,6.2-3.4-3.4a88.7,88.7,0,0,1-11.9,23l-4.2,5.6-2.6-4.1a96,96,0,0,1-14.8,17.5l-4.2,4-2-3.2c-6.2,9-13.6,16-22.4,23.1l-5.7,4.6L52.7,244c-8.7,6.9-18.5,11.5-29,15.4l-1.9.7-1.9-.9A84.7,84.7,0,0,1-6.7,238.4l-1.5,4.8-5.7-6.5a100.1,100.1,0,0,1-12.5-17.4l-1.1,2.2-4.6-6.6a107.2,107.2,0,0,1-8.8-14.9l-1.9,2.5-3.4-7a134.6,134.6,0,0,1-6.3-14.9l-1.8,1.9-3-6.5A75.1,75.1,0,0,1-64,152.3l-.2-1.7.9-1.4,4.8-7.6c-.6-7.7-1-20.1,1.1-26.5A32.1,32.1,0,0,1-54,108a17.9,17.9,0,0,0-4.6,4c-2.6,3.8-5.4,7.7-8.2,11.3l-6.8,8.8-1.7-11-.9-5.6-11.2,3.9L-94,140.3l-1.2,3.9-4-.6a52.3,52.3,0,0,0-15.7.4c-2.3.5-7.2,1.4-9.4,2.6l-1.7,1.1-2.1-.6a17,17,0,0,1-6-3.5,22.5,22.5,0,0,1-7-13.4,25.8,25.8,0,0,1,3.5-17.3,37.3,37.3,0,0,1,4.2-5.8l-8.6-4.3-.9-.5,4.4,8.8-14.7-9.5a42.5,42.5,0,0,1-14.7-17.8c-2.4-5.7-4.2-14.2-3-20.5l.3-1.4.9-1,11-11.6.7-.7.9-.4c2.4-1,6.3-2.4,9-2.2l1.6.2.8-.9,1.2-1.4,1.9-.2,6.4-.6c3-.2,7.4-.5,9.7,1.7h0a13.5,13.5,0,0,1,3.6-1.4c4.1-.8,10.3.5,13.9,2.4a15.6,15.6,0,0,1,6.7,6.7l.8,1.8-.6,1.8a18.8,18.8,0,0,0-.5,6.8l3.6-.9,7.6-2a43.8,43.8,0,0,0,6-1.9l3.1-1.5,2.2-3.5c1.5-2.3,3.6-5.1,6.4-5.7l2.3-.3,3.7-5,.9-1.2-2-1.4A28,28,0,0,1-74.3,34a40.6,40.6,0,0,1-7.3-16.8,102.9,102.9,0,0,1-2-15.6,13.4,13.4,0,0,1-5-.9l-5.1-2.3,3.1-4.7a35,35,0,0,0,3.8-8.9c-4.9-4.7-11-9.4-14.4-12.1s-8.8-6.1-12.5-5.9A138.9,138.9,0,0,1-135.5-7.8a88.1,88.1,0,0,1-16.9,12,47.8,47.8,0,0,1-7.8,3.5l-11.5,3.7,1.7-11.9c1.2-8.2,2.2-16.4,2.6-24.7a110.2,110.2,0,0,0-.4-16.2l-10.5,3.2q-14.7,4.6-29.2,9.6l-13.2,4.5,3.5-13.5a53.4,53.4,0,0,1,3.5-9.2,78.7,78.7,0,0,1,12.6-19,161.3,161.3,0,0,1,16.1-15.5c2.8-2.3,5.6-4.6,8.5-6.8l.5-1.3a32.2,32.2,0,0,1,8.5-12.7c4.6-4.2,10.5-7.6,15.9-10.7l8.4-4.7-4.3-2.8A131.5,131.5,0,0,0-172-132.9c-6.3-2.4-13.4-4.2-20.2-4.2-11,.1-28.2,1.1-36.8,9.1-3.5,3.3-7.2,8.4-9.9,12.4l-4.6,6.7-3.7-7.2a53,53,0,0,1-3-7.9,98.6,98.6,0,0,1-4-20.8c-.6-7.2,4.5-14.7,9.4-19.4,8.8-8.4,21-13.1,32.8-15.4,48.3-9.6,113.4,13.9,157,33.3,5.4-.4,10.9-.6,16.4-.6,3.5,0,7,0,10.4.3S-16.5-145.5-14.1-146.5Z" transform="translate(254.2 260.1)" style="fill:#fff;fill-rule:evenodd"/><path d="M-55.8-141.5s17.2-1.2,27.3-.4,19.3,2,19.3-4.6-25.6-34.4-43.4-45.6-38.7-15.9-47.3-14.8-12.4,14-12.4,14a45.6,45.6,0,0,1-10.1-29.5c.3-18,35.8-33.8,103.2-33S82.9-236.5,82.9-236.5s53.8,21.7,81.3,34.7,48.1,32.7,54.6,41.4,14,28.3,14,28.3l-15.4-7.7s10.8,10.4,16.9,22.6S244.2-81,244.2-81L231.4-91.4s7,14.2,10.4,25.9,5.6,32.7,5.6,32.7L235-44.1s6,11.1,10.8,28.8,3.4,46.1,3.4,46.1l-15.6-19s1.6,9.1,2.7,20.9-5.8,79.5-5.8,79.5S196.7,26.4,179.4-9s-41.8-72.1-41.8-72.1,3.8,22.5,3,32.8a143.2,143.2,0,0,1-4.1,22.2s-7-14.4-11.3-19.7-4.4-6.1-4.4-6.1-.2,12.6-1.5,20a59.9,59.9,0,0,1-4.6,14.4l-13-23.8s-.9,7.7-2.2,14.9a51.5,51.5,0,0,1-3.5,11.9L83.3-36.6s-2.1,13.7-3.9,19.5S71.8-3.4,71.8-3.4L61.9-31.2,57.4-20A187.1,187.1,0,0,1,61.3,9.1a274,274,0,0,0,4.1,32.9c24.6,31.5,47.4,63.9,67.6,97.5-1.3,14.5-4.5,25.9-8.9,35.4l-4.1-4.1c-3.4,11.9-8,21.5-13.6,29.1l-3-4.8a88.3,88.3,0,0,1-17.9,23.3l-3-4.8c-7,12.7-16,20.9-25.4,28.4l-1.8-6.7C45.6,244.9,34,250.4,22,254.9c-12.3-6-22.2-15.3-30.6-26.5l-1.6,5.2c-6.9-7.9-12.7-16.2-15.9-25.4l-2,4.1a92.9,92.9,0,0,1-11.6-21.7l-2.2,2.9a124.6,124.6,0,0,1-8.4-22.1l-2.5,2.7a69.7,69.7,0,0,1-6.4-22.4l5.7-9s-1.7-18.8.8-26.2,5.4-8.8,5.4-8.8a25.3,25.3,0,0,0,1.1,7.9,13.7,13.7,0,0,0,3.4,5.6l.4-6-7-15.5s-10.2,5-13.2,9.5-8,11.1-8,11.1l-1.8-11.3-18.9,6.6-7.3,23.2a60,60,0,0,0-17.3.4c-8.5,1.7-10.9,3.2-10.9,3.2s-7.8-2.2-9.6-13,6.9-19.8,8.5-20.9a41.4,41.4,0,0,1,6.2-2.8s-2.1,5.5-2.2,8.3a21.9,21.9,0,0,0,.4,4.6,23,23,0,0,0,5.1-7.4c1.6-4.2.9-6.7.9-6.7A72.1,72.1,0,0,1-124.6,94c-3.2-6-4.3-7.8-4.3-7.8a74.1,74.1,0,0,0,.3,9.4c.5,3.4.7,6.2.7,6.2s-8.5-4.6-10.9-11.3-2.7-9.7-2.7-9.7-1.3,6-.4,10.7a39.2,39.2,0,0,0,2,7.1s-6.3-3.2-8.5-6.5-3.6-5.8-3.6-5.8a33.9,33.9,0,0,0,.1,6.7,16.5,16.5,0,0,0,1.2,4.6A38,38,0,0,1-163.4,82c-4.2-10-2.7-17.7-2.7-17.7l11-11.6s4.7-2,6.7-1.8a5.5,5.5,0,0,1,3.2,1.3l3.1-3.7s11-1.3,12.2-.2a18.1,18.1,0,0,1,2.3,3s3.1-2.6,5.5-3.1,7.5.2,10.8,2a10.7,10.7,0,0,1,4.6,4.4,23.4,23.4,0,0,0-.6,10.1c.9,6,5.8,18,5.8,18s6.5-1.1,9.4-2.4l6.1-2.9-.9-4.5-11.1-6.1s11.3-2.8,14.4-4.3l4.5-2.1s4.3-7.8,6.3-8.2a9.6,9.6,0,0,1,3.6-.1s7.8-10.4,9.9-13.5a15.4,15.4,0,0,0,2.4-5.4s-6.2-4.6-7.5-5.8l-1.3-1.1a19.8,19.8,0,0,0-.7,6.4l.3,3S-74.3,29.9-77,16.3-78.8-3.5-78.8-3.5a21.4,21.4,0,0,1-4,.4,9.6,9.6,0,0,1-3.9-.5S-75.3-21-84.6-36.8A24.6,24.6,0,0,0-98.3-47.9c-2.6-10.2-9.8-32.8-25.9-53.6a89.5,89.5,0,0,0-12.4-13.2l2.8-1.8s-32.2-25.5-58.4-25.3-35.4,6.1-40,10.4-10.6,13.2-10.6,13.2-5-9.9-6.5-26.9c-1.3-15.3,39-65.3,193.6,3.7" transform="translate(254.2 260.1)" style="fill:#231f20;fill-rule:evenodd"/><path d="M-62.6-140.7s-87.1-30.3-121.5-30.1-50.2,9.8-56.4,17.1-1,25.8-1,25.8,4.7-8,10-11.6a34.9,34.9,0,0,1,11.8-4.9s-9.8-3.5-14.3-2a10,10,0,0,0-5.8,6.1s-2.6-10.1,15.4-12.7,46.2,1.2,66.6,11.4,32,19.6,32,19.6,32.7-18.1,63.2-18.7" transform="translate(254.2 260.1)" style="fill:#1e4ca0;fill-rule:evenodd"/><path d="M-112.7-203.8s-4.7-10.1-3.7-19.6c1.7-7.6,8.7-13.2,18.7-17.3,32.2-13.1,94.9-10.5,105.4-9.3,42.3,4.1,69.6,18,69.6,18,7.4,5.2,11.5,10.6,14.2,16-16.1-9.2-33.4-15.5-50.5-20.7a414,414,0,0,1,48.6,24.2c6,5.8,8,11.3,10,16.9a361.3,361.3,0,0,0-61.1-31.7c24.3,12.9,43.2,24.6,55.3,33.7,7.3,8.9,10.1,15.7,10.6,21.2-17.6-18.1-41.4-31-65.6-43,21.5,13.6,42.6,27.5,60.3,44.4,6.7,7.1,9.4,15.2,11.5,23.4-19.1-19.8-44.2-38.7-72.5-54.3,23.7,16.3,49.9,36.3,69.3,56.2a58.2,58.2,0,0,1,4,21.9C85.2-156.1,49-185.9,9.9-201a254,254,0,0,0-95-17.2c28.5,2.4,56.6,5.8,81.7,16.6,64,22.9,107.4,76.2,133.7,111.4,2.1,14.6,3.9,23.6,3.9,45.5-27.5-38.4-43.7-63-87.1-87.2,26.3,18.6,49.5,41.2,68.3,69.8l-2.4,28a255.1,255.1,0,0,0-59.4-78.9C69.7-94.8,85-76.1,96-54.8L94.1-28C82.8-55.1,69.3-81.8,45.5-106.4c12.7,17.3,24.1,35.1,32,54.3A107.6,107.6,0,0,1,73-16.2c-8.5-29.4-18.4-58-35.1-82.4C46.3-82.1,53.8-65.2,58.1-47A87.5,87.5,0,0,1,45.5-15.2c-1.1-25.6-5.3-50.5-13.9-74.7,6.3,28.8,8,58.3,8.5,88A39.7,39.7,0,0,0,52-14.4c2.7,21,8.9,42.8,3,61.6-1.1-4.7-2-9.4-6.5-12.8C50.9,48.1,46,52.4,38.3,61.4,26.1,75.7,17.5,90.9,13.5,107.3,12,103,10.4,98.7,7.8,94.9a22.7,22.7,0,0,0,7.3-11.1A34.4,34.4,0,0,1,.2,95.7C3.5,88.6,3.6,81-.6,72.6c-5.8,5.8-12.9,8.2-20.6,8.8l-.3-2.4C-9.7,70.8-4.2,57-4.7,38.1c8.5-12,30.3-7,36.5,4.2C25,27.7,13.5,23-3.7,30.1-5.9,23.7-6,16-5.3,7.9c-9.3,21.1-11.8,41-27,44.4-3.7-7-7-14.2-14.9-18.8s-16.7-8.9-20.3-18.9a39.9,39.9,0,0,0-.8,11.3c-5.5-12-4.7-21.2-3.5-30.2C-39.1-30.5,1.1-104.6-40-135.8h12c7.3,0,16.8,1.6,22.8-3.4s2-9.9-.6-14.7A24.3,24.3,0,0,1,.9-134.7,12.2,12.2,0,0,0,2.8-142c-.6-9.8-9-17.3-15.4-24-24.1-24-49.8-44.1-82.5-46.7-10.3-.7-15.3,3-17.7,8.9" transform="translate(254.2 260.1)" style="fill:#1e4ca0;fill-rule:evenodd"/><path d="M115.3-144.6c24.2,21.4,93.1,95.3,127.9,158C241.3-10,236.1-33,222-54.7c-40.3-47.3-76.4-81.9-111.2-112.9a79.5,79.5,0,0,1,4.5,23m-5.4-29.8c59.9,49.8,98.9,90.9,129.8,128.6-1.7-19-8.6-37.2-21-54.7-35.4-34-73.5-64.5-113.5-92.4A40.5,40.5,0,0,1,109.8-174.4Zm-6.1-24.5c47.2,32.9,92,67.7,132.9,105.4-4.6-13.9-9.5-28-29.5-51.4-25.6-19.4-66-43.7-109.6-69.1A60.2,60.2,0,0,1,103.7-198.9Zm-8.7-19.3c43.3,23.6,86.8,48.1,127.4,76.3-20.4-44-94.4-69.4-133.3-86A30.4,30.4,0,0,1,94.9-218.2Zm20.5,101.3c50.4,53.1,86,132.7,112.4,200.4-.1-35.9,1.7-66.1-3.6-82.2-25.3-54.5-91.7-126-110.1-139.8C114.6-138.6,116.6-128.1,115.4-116.9Z" transform="translate(254.2 260.1)" style="fill:#1e4ca0;fill-rule:evenodd"/><path d="M-63.1,58.3-70.9,57l-8.5,13.2a21.2,21.2,0,0,0,1.6,13c3.2,6.8,7.2,9.7,7.2,9.7s-1.3-7.2-1.3-9.9a9.1,9.1,0,0,1,2.1-5s-.2-5.2-1.6-6.9a7.8,7.8,0,0,0-4-2.2,6.9,6.9,0,0,1,3.9-.1c1.7.6,1.9.9,1.9.9a42.4,42.4,0,0,1,6.4-11.5m42.4,31.1s7.2-.6,11.5-3.1a36.6,36.6,0,0,0,6.9-5.1,23.7,23.7,0,0,1-.4,10.7,13.8,13.8,0,0,1-5.5,7.5,18.9,18.9,0,0,0,5.6.5,39.5,39.5,0,0,0,4.6-.7L-14,114.6s-7.4,12.7-9.4,18.1a39.6,39.6,0,0,0-2.3,9.1s-11-1.6-15.2-1a49.2,49.2,0,0,1-6.9.6s-1.3-6.8-1.7-12.6a18.5,18.5,0,0,1,2.1-9.9s.1,1.6,2.1,5.8,4.2,5.2,4.2,5.2,4.4-.8,7,1.9a13.2,13.2,0,0,1,3.1,4.4,9.1,9.1,0,0,0-2.1-5.8,11.3,11.3,0,0,0-4.5-3.1,9.2,9.2,0,0,1,6.5-1.2,7.1,7.1,0,0,1,4.7,3.5s-.4-4.6-3.5-5.8a10.4,10.4,0,0,0-6.4,0l.7-6.4s-8.2-18.5-11.5-21.1-8.1-9-8.1-9l1.6-6.8A23.4,23.4,0,0,0-49.5,77a7.3,7.3,0,0,0,1.3-2.2,10.8,10.8,0,0,0,1.9-4.9,10.3,10.3,0,0,0-.7-4.6,9.7,9.7,0,0,1-.5,3.3c-.7,2.4-1.2,2.7-1.2,2.7s.7-4-1.1-6.4-3-2.5-3-2.5a14.3,14.3,0,0,1,1.2,9.6,13.5,13.5,0,0,1-5.1,7.4,28.9,28.9,0,0,0-.5,7.9c.4,3.9.9,6,.9,6s-6.1-5.7-8.1-13S-66,70-66,70s5-8.6,8.2-11.7a22.2,22.2,0,0,1,5-3.9l8.3,1.7,1.6,12.2-4.4,8.8s.9,14.3,5.6,21.5,10.5,8.4,10.5,8.4-2.7-7.9-3.2-12.2a16,16,0,0,1,.4-6.6s5.1-2.9,6.3-6.9a9.9,9.9,0,0,0-.2-6.8s-.8,6.4-3.9,8.7-3.8,1.9-3.8,1.9a22.5,22.5,0,0,0-1.1,8.5,71.2,71.2,0,0,0,.9,7.3s-3.2-3-5.4-10.3a52.1,52.1,0,0,1-2.4-12.3A70.7,70.7,0,0,1-38,66.6a27.9,27.9,0,0,1,6.8-7.7s5.2-.2,7,2.1,3.5,4.8,3.5,4.8-5.4,12-4.2,20.6,4.4,12.2,4.4,12.2a8.3,8.3,0,0,1,3.3,4.9c.9,3.5.5,5.2.5,5.2s2.1-6,.7-9.1a10.7,10.7,0,0,0-2.8-4.3Z" transform="translate(254.2 260.1)" style="fill:#1e4ca0;fill-rule:evenodd"/><path d="M-146.9,55.4l-3.2-.3-3.8,1.3-8.2,9.2s-.4,8.1.8,12.7,6,9.6,6,9.6.2-10.1.1-11.7V74.7l-.5-7.8s3.9-7.3,8.8-11.5m17,.3-2.1-4.4-8.1.4s-6.5,7.8-8.4,10.7a37.3,37.3,0,0,0-2.7,4.6s-1.2,7.2.5,12.6a31,31,0,0,0,5.8,10.1s-.4-8,.3-11.9,4.7-5.5,4.7-5.5a39.7,39.7,0,0,0,.9-6.8c.1-3.4-.7-4.7-.7-4.7a7.5,7.5,0,0,1,2.1,3.6c.6,2.4.7,2.8.7,2.8l2.1-5s0-2.8,0-4.8,0-2.2,0-2.2l1.9,4.2Zm46.6,26.1a100,100,0,0,1-9.5,4l-7.8,2.4,1.3,3.2s-5-2.3-9.4-16.9-3.1-18.2-3.1-18.2-2.6-3-5.8-3.5a23.2,23.2,0,0,0-4.7-.5l-13.4,16.5s-3.4,7.9-1,16.2,5.8,11,5.8,11-1.4-8.8-1-12,.9-5.1.9-5.1,7.6-2.8,10.4-5.4a16.4,16.4,0,0,0,4-6.6,12.7,12.7,0,0,1-.2,4.7c-.6,1.8-.8,1.9-.8,1.9s2,6.1,3.6,9.8,2,5.1,2,5.1l-7.6-12.2-2.4,2.7s2.8,7,4.2,9.2l1.5,2.1-8.4-8.8-2.1.7s6.2,12.1,8.8,15.9,9.6,11,9.6,11l-5.2-1a17.1,17.1,0,0,1-1.6,7.1,24.5,24.5,0,0,1-2.7,4.6s4.1.9,5.6,4.2a14.5,14.5,0,0,1,1.5,4.6s-3.1-5.1-6.5-5.9-4.1,0-4.1,0a5.8,5.8,0,0,1,3.3,3,6,6,0,0,1,.6,4.3s-2.2-4.2-4.5-5a8,8,0,0,0-3-.7,23.2,23.2,0,0,1-1.5-6.5,23.9,23.9,0,0,1,.2-5s-4.8,5.9-5.6,11,3.9,12.8,3.9,12.8l14.4-3.2a50,50,0,0,1,11.1-1l8.2-21.1,23.8-7.9.3-4.3-1.7-1.7-15.1,1.3,7.3-10.1Z" transform="translate(254.2 260.1)" style="fill:#1e4ca0;fill-rule:evenodd"/><path d="M-15.4,123.3l-6.8,24.8c-7.1,12.3-12.1,24.2-17.6,36.2-2.7-5.4-5.5-13-5.4-17.9,2.5-6.3,6-15.1,10-21.7l10.9.3s4.2-13.7,8.8-21.6m13.3-7.4-1.1,20.6c-10.4,22-16.8,43.4-23.3,64.8-3.5-3.8-6.6-8.9-9-15.9C-25.2,159.4-14.1,136-2.1,115.9Zm8.6,2.9c.1,7.4-.1,12.7,0,20.1-7.7,26.9-12.8,56.3-18,83.6-4.1-6.3-8-12.7-10.1-21.6C-13.6,173.3-4.1,146,6.4,118.8Zm7.1.4,7.1,29-1.7,95.6A91.2,91.2,0,0,1-6,220.8C-1.8,187,3.9,153.1,13.5,119.2Zm12.9-14.5-2.6,45L26,245.8c9.3-4.8,18.6-9.7,26.3-19.8-4.8-32-10.4-63.8-19.8-95.1ZM38.7,94.5q.1,22,.2,44c9.3,29.4,15.1,59.2,19.8,89.3,6.5-5.7,12.9-11.5,18.4-24.2C67.8,166.7,53.3,130.6,38.7,94.5ZM47.8,85l8.6,46c11.4,24.6,19.2,49.7,26.8,74.8,6.3-6,12.6-11.9,15.1-22.9C84.4,149.9,67,117.3,47.8,85ZM59.7,74.6l11.5,43.2c14.4,22.5,24,45.7,32.4,69.1,5-5.8,9.9-11.7,10.8-24C99.3,132.3,82.1,102.5,59.7,74.6Zm6-21.3L81.4,97.7c14.6,21,26.1,42.9,36.2,65.3,2.3-6.2,5.9-11.5,6.6-23.4C108.5,109.7,87.3,81.7,65.7,53.3ZM-38,144.1a106.8,106.8,0,0,0-12.2,20.7,43.5,43.5,0,0,1-2.4-14.5l3.8-5.8Z" transform="translate(254.2 260.1)" style="fill:#1e4ca0;fill-rule:evenodd"/><path d="M-73.4,1a53.7,53.7,0,0,0-3.1-8.8C-79.7-15.2-92.7-25.1-99-30.1c-3.6-2.9-10.3-7-15.2-6.7h-1.7c-6.1,9.2-13.8,18.7-22.1,26.1A84.7,84.7,0,0,1-154.1.9a46,46,0,0,1-7.2,3.2L-167.1,6l.9-6c1.2-8.2,2.2-16.8,2.6-25a116.4,116.4,0,0,0-.9-21.1h-.5l-14.3,4.3c-9.8,3.1-19.6,6.3-29.3,9.6l-6.7,2.3,1.8-6.8a51.5,51.5,0,0,1,3.2-8.5,75.2,75.2,0,0,1,12-18.1,158.2,158.2,0,0,1,15.8-15.2c3-2.5,6-5,9.2-7.3l.9-2.4A28.5,28.5,0,0,1-165-99.3c4.3-3.8,10.4-7.4,15.3-10.3,10-5.8,20.5-11.1,30.9-16.1a177.1,177.1,0,0,1,38.2-12.9c4.3-1,8.6-1.8,13-2.4l5.3-.7c11.9-1,23.4,2,32.6,9.6a41.9,41.9,0,0,1,10.1,12l6.3,12.4-6.4-2.3a96,96,0,0,1,3.1,9.4A57.1,57.1,0,0,1-14.7-79a44.6,44.6,0,0,1-2,9.4l-3.3,9.4-3-3.7a42.2,42.2,0,0,1-2.8,13.7c-.8,1.9-1.6,3.8-2.5,5.7A161.5,161.5,0,0,1-43.4-19.2l-7.3,10-1.6-7.4a131.6,131.6,0,0,1-11,19.8l-8.1,11.8Z" transform="translate(254.2 260.1)" style="fill:#231f20;fill-rule:evenodd"/><path d="M-146.3-80.7s1.7,5.3,4,7.8,6.2,1.5,6.2,1.5l.4-.7a5.3,5.3,0,0,0,2.5,2c2.1.7,6.9,1.9,9.5-3.2a12.9,12.9,0,0,0,.9-9.2,24.2,24.2,0,0,1,8.2-.5,17,17,0,0,0-5.5-4l-3.3-1.3s-6.3,1.8-9.5,5.5a25.7,25.7,0,0,0-4.5,7.4s-6-.6-8.8-5.4m84.5-55.5s-28.4,2.9-54.6,15.5-40.2,21.4-44.9,25.6a23.1,23.1,0,0,0-6,9l5.2-.3c2.6-.2,5.8,3.4,9.5,7.6s7.5,8.5,11.8,10.7a62.2,62.2,0,0,0,15.2,5.1,40.2,40.2,0,0,1,6.9,2l4.4,2,.4.2v.4a29.3,29.3,0,0,0-.7,10.8,41.8,41.8,0,0,1,.2,5.5c2.2-.2,9.3.1,19,7.8,12,9.5,21,17,24.1,24.5S-67.9.1-67.9.1A135.4,135.4,0,0,0-57.2-19.4c4.9-11,4.5-17.7,4.5-17.7s3,4.3,3.4,7.5,1.3,7.2,1.3,7.2S-36.8-37.6-31-52.3s-.7-33.5-.7-33.5a33.6,33.6,0,0,1,6.5,8.5A33.1,33.1,0,0,0-22-71.5a50,50,0,0,0,.1-27.7c-4.3-15.3-9.8-21-9.8-21l7.1,2.5S-35.1-138.5-61.8-136.2Z" transform="translate(254.2 260.1)" style="fill:#1e4ca0;fill-rule:evenodd"/><path d="M-125.6-81.7a9.8,9.8,0,0,0-3.1,1.1,3.1,3.1,0,0,1,1.3,2.5,3.1,3.1,0,0,1-3.1,3.1,3.1,3.1,0,0,1-2.7-1.6,9.6,9.6,0,0,0-1.1,2.1s2.3,3.2,5.4,2.6,5.3-7.4,3.3-9.8" transform="translate(254.2 260.1)" style="fill:#fff;fill-rule:evenodd"/><path d="M-170.7-82.9a174.9,174.9,0,0,0-24.7,22.2c-11.2,12.5-14.4,25-14.4,25s40.9-14.1,55-16.7a186.8,186.8,0,0,1,30-2.5s-5.8,17.8-15.8,31.9S-158.7-4-158.7-4s2.5-19.8,2.4-28.3-.5-16-.5-16l-4,1.2a130.3,130.3,0,0,1,1,22.2c-.6,11.3-2.7,25.4-2.7,25.4s10-3.2,22-13.9,20.5-23.9,22-26.3a42.1,42.1,0,0,0-.2-5.8,31.1,31.1,0,0,1,.7-10.7l-4-1.8a39.7,39.7,0,0,0-6.7-1.9,63,63,0,0,1-15.4-5.2c-4.4-2.3-8.5-6.9-12-10.9s-6.6-7.4-8.7-7.3l-5.8.3" transform="translate(254.2 260.1)" style="fill:#1e4ca0;fill-rule:evenodd"/><path d="M-160.8-91.7a10.6,10.6,0,0,1,6.4,1.7c2.8,2,5.1,7.6,5.1,7.6l.5-5.6s2.5,2.8,5.1,5.3,4.7,2.4,4.7,2.4a13.8,13.8,0,0,1,6-7.6c5-3.3,13-4.1,13-4.1a36.7,36.7,0,0,0-4.5-3.8,20.6,20.6,0,0,0-3.7-1.9s18.7-15.5,38.8-20.4,51.5-6.4,51.5-6.4a41.8,41.8,0,0,0-15.3-6.8c-8.9-1.9-12.8-1.2-12.8-1.2s-43.1,3.2-94.8,40.9M-123-67.9l7.2,2.3s1.4-1.2,3.2-6.7a17.8,17.8,0,0,0,.6-9.7l-3.6.5S-115.9-72.2-123-67.9Zm-100.1-91.5s30.3-7.5,63.8,3.8a308.6,308.6,0,0,1,54.5,24.2c9.6-3.6,21.6-7.3,33.7-8.7C-94.6-148.3-193.9-181-223.1-159.4Zm77.8,146.8A69.5,69.5,0,0,0-130.6-32c6.6-12.5,8.5-20.8,8.5-20.8l2.3-.6a40.9,40.9,0,0,0-.4,7.8c.3,3,.3,4.5.3,4.5S-135.1-16.4-145.3-12.6Zm-33.9-41.5,23.5-14.7a26.8,26.8,0,0,0,6.5,5,79.2,79.2,0,0,0,7.9,3.5l1.6,1.9S-164.3-56.1-179.2-54.2Zm71.9-170.1s30-9.8,87.4,1.4,95.5,35.2,95.5,35.2-22.5-18.5-39.5-27.1l-17-8.7s22.8,4.3,35.8,10.4,17,7.5,17,7.5-23.7-15.9-34.6-20.8A174.8,174.8,0,0,0,20.8-233s28.9,3.5,36.4,7.2l7.5,3.8s-17.3-10.4-26.5-14.4l-9.2-4A147.6,147.6,0,0,1,58-234.1c14.4,4.9,21.9,8.1,21.9,8.1L74.8-231s-36.1-17.9-90.6-17S-109.9-237-107.3-224.3ZM98-218.9l-2.3-4.3s35.5,13.7,65.3,29.4a189.1,189.1,0,0,1,48.8,37.1S162.5-192.2,98-218.9Zm6.8,11.7,1.6,5.3s57.3,35.8,80.1,52.8,30.6,23.4,30.6,23.4l-11.5-16.4S157-177.7,104.8-207.2Zm8.1,22.6,1.7,6.3s58,44.4,78.8,64,27.4,26.5,27.4,26.5l-5.5-13S149-161.5,112.9-184.6ZM-202.8-42.3s15-16.5,25.1-23.3S-163-76-163-76l-2.3-3.1-5,.2S-198.1-60.5-202.8-42.3Z" transform="translate(254.2 260.1)" style="fill:#1e4ca0;fill-rule:evenodd"/><path d="M-143.9-47.9a13.1,13.1,0,0,1,8.4-1.6c4.8.7,5.5,2.6,5.5,2.6a159.9,159.9,0,0,0-12.1,16.3,89,89,0,0,0-6.2,11.4s-2.2-14.9,4.5-28.7" transform="translate(254.2 260.1)" style="fill:#ed1c24;fill-rule:evenodd"/><circle cx="123.7" cy="182" r="3.1" style="fill:none;stroke:#231f20;stroke-miterlimit:22.925600000000003;stroke-width:0.5669000000000001px"/></svg>