<svg id="Layer_1" data-name="Layer 1" xmlns="http://www.w3.org/2000/svg" viewBox="0 0 498.8 510.3"><title>Raven545_1c</title><path d="M-19.6-110l6.4,2.3-6.3-12.4a41.9,41.9,0,0,0-10.1-12c-9.3-7.6-20.8-10.6-32.6-9.6l-5.3.7c-4.4.7-8.7,1.5-13,2.4a177.1,177.1,0,0,0-38.2,12.9c-10.4,5-20.9,10.3-30.9,16.1-4.9,2.9-11,6.5-15.3,10.3a28.5,28.5,0,0,0-7.5,11.2l-.9,2.4c-3.1,2.3-6.2,4.8-9.2,7.3a158.2,158.2,0,0,0-15.8,15.2,75.2,75.2,0,0,0-12,18.1,51.5,51.5,0,0,0-3.2,8.5l-1.8,6.8,6.7-2.3c9.7-3.4,19.5-6.6,29.3-9.6L-165-46h.5a116.4,116.4,0,0,1,.9,21.1c-.4,8.3-1.4,16.8-2.6,25l-.9,6,5.8-1.9A45.9,45.9,0,0,0-154.1.9a84.7,84.7,0,0,0,16.2-11.5c8.3-7.4,15.9-16.9,22.1-26.1h1.7c4.9-.4,11.6,3.8,15.2,6.7,6.3,5,19.3,14.8,22.4,22.3A53.7,53.7,0,0,1-73.4,1l2,14.1,8.1-11.8a131.6,131.6,0,0,0,11-19.8l1.6,7.4,7.3-10A161.4,161.4,0,0,0-28.3-44.5c.9-1.9,1.7-3.7,2.5-5.7A42.2,42.2,0,0,0-23-63.9l3,3.7,3.3-9.4a44.6,44.6,0,0,0,2-9.4,57.1,57.1,0,0,0-1.7-21.7A96,96,0,0,0-19.6-110Zm-99,64.6a42.1,42.1,0,0,1,.2,5.8c-1.5,2.3-11,16.5-22,26.3S-162.4.5-162.4.5s2.1-14.1,2.7-25.4a130.3,130.3,0,0,0-1-22.2l4-1.2s.5,7.4.5,16S-158.7-4-158.7-4s8-5,18-19.1S-124.9-55-124.9-55a186.8,186.8,0,0,0-30,2.5c-14,2.6-55,16.7-55,16.7s3.2-12.5,14.4-25a174.9,174.9,0,0,1,24.7-22.2l5.8-.3c2.1-.1,5.2,3.3,8.7,7.3s7.6,8.6,12,10.9a63,63,0,0,0,15.4,5.2A39.7,39.7,0,0,1-122-58l4,1.8A31.1,31.1,0,0,0-118.6-45.4Zm-25.3-2.5a13.1,13.1,0,0,1,8.4-1.6c4.8.7,5.5,2.6,5.5,2.6a159.9,159.9,0,0,0-12.1,16.3,89,89,0,0,0-6.2,11.4S-150.6-34.1-143.9-47.9Zm15.2-32.7a9.8,9.8,0,0,1,3.1-1.1c2,2.3-.2,9.2-3.3,9.8s-5.4-2.6-5.4-2.6a9.6,9.6,0,0,1,1.1-2.1,3.1,3.1,0,0,0,2.7,1.6,3.1,3.1,0,0,0,3.1-3.1A3.1,3.1,0,0,0-128.7-80.6Zm16.1,8.3c-1.8,5.5-3.2,6.7-3.2,6.7l-7.2-2.3c7.2-4.3,7.4-13.7,7.4-13.7l3.6-.5A17.8,17.8,0,0,1-112.6-72.3Zm23.3-45.8c-20.1,4.9-38.8,20.4-38.8,20.4a20.6,20.6,0,0,1,3.7,1.9,36.7,36.7,0,0,1,4.5,3.8s-7.9.8-13,4.1a13.8,13.8,0,0,0-6,7.6s-2.1,0-4.7-2.4-5.1-5.3-5.1-5.3l-.5,5.6s-2.3-5.6-5.1-7.6a10.6,10.6,0,0,0-6.4-1.7c51.7-37.7,94.8-40.9,94.8-40.9s4-.7,12.8,1.2a41.8,41.8,0,0,1,15.3,6.8S-69.3-123-89.4-118.1Z" transform="translate(249.4 255.4)" style="fill:#231f20;fill-rule:evenodd"/><path d="M-223.1-159.4s30.3-7.5,63.8,3.8a308.6,308.6,0,0,1,54.5,24.2c9.6-3.6,21.6-7.3,33.7-8.7C-94.6-148.3-193.9-181-223.1-159.4Z" transform="translate(249.4 255.4)" style="fill:#050000;fill-rule:evenodd"/><path d="M-145.3-12.6A69.5,69.5,0,0,0-130.6-32c6.6-12.5,8.5-20.8,8.5-20.8l2.3-.6a40.9,40.9,0,0,0-.4,7.8c.3,3,.3,4.5.3,4.5S-135.1-16.4-145.3-12.6Z" transform="translate(249.4 255.4)" style="fill:#050000;fill-rule:evenodd"/><path d="M-179.2-54.2l23.5-14.7a26.8,26.8,0,0,0,6.5,5,79.2,79.2,0,0,0,7.9,3.5l1.6,1.9S-164.3-56.1-179.2-54.2Z" transform="translate(249.4 255.4)" style="fill:#050000;fill-rule:evenodd"/><path d="M245.8-15.3C240.9-33,235-44.1,235-44.1l12.4,11.3s-2.1-21-5.6-32.7-10.4-25.9-10.4-25.9L244.2-81s-3.7-23.9-9.9-36.2-16.9-22.6-16.9-22.6l15.4,7.7s-7.5-19.6-14-28.3-27.1-28.5-54.6-41.4-81.3-34.7-81.3-34.7S48.2-254.5-19.2-255.3s-102.9,15.1-103.2,33a45.6,45.6,0,0,0,10.1,29.5s3.8-12.9,12.4-14,29.5,3.6,47.3,14.8,43.4,39,43.4,45.6-9.2,5.4-19.3,4.6-27.3.4-27.3.4c-154.5-69-194.9-19-193.6-3.7,1.5,17,6.5,26.9,6.5,26.9s6-8.9,10.6-13.2,13.8-10.1,40-10.4,58.4,25.3,58.4,25.3l-2.8,1.8,3,2.7c5-2.6,10.8-5.5,17.2-8.6,26.2-12.6,54.6-15.5,54.6-15.5,26.7-2.3,37.3,18.6,37.3,18.6l-7.1-2.5s5.5,5.7,9.8,21A50,50,0,0,1-22-71.5a33.1,33.1,0,0,1-3.2-5.7,33.6,33.6,0,0,0-6.5-8.5s6.5,18.8.7,33.5S-47.9-22.5-47.9-22.5s-.9-4-1.3-7.2-3.4-7.5-3.4-7.5.4,6.7-4.5,17.7A135.4,135.4,0,0,1-67.9.1s-.4-2.6-3.5-10.1c-1.7-4-5-8-9.6-12.3A40,40,0,0,1-86.7-3.6a9.6,9.6,0,0,0,3.9.5,21.4,21.4,0,0,0,4-.4s-.9,6.2,1.8,19.8S-66,35.7-66,35.7l-.3-3a19.8,19.8,0,0,1,.7-6.4l1.3,1.1c1.3,1.1,7.5,5.8,7.5,5.8a15.4,15.4,0,0,1-2.4,5.4c-2,3.1-9.9,13.5-9.9,13.5a9.6,9.6,0,0,0-3.6.1c-2,.4-6.3,8.2-6.3,8.2l-4.5,2.1c-3.1,1.5-14.4,4.3-14.4,4.3l11.1,6.1.9,4.5L-92,80.4c-2.9,1.3-9.4,2.4-9.4,2.4s-4.9-12-5.8-18a23.4,23.4,0,0,1,.6-10.1,10.7,10.7,0,0,0-4.6-4.4c-3.3-1.7-8.4-2.4-10.8-2s-5.5,3.1-5.5,3.1a18.1,18.1,0,0,0-2.3-3c-1.2-1.1-12.2.2-12.2.2l-3.1,3.7a5.5,5.5,0,0,0-3.2-1.3c-2.1-.1-6.7,1.8-6.7,1.8l-11,11.6s-1.5,7.7,2.7,17.7a38,38,0,0,0,12.9,15.6,16.5,16.5,0,0,1-1.2-4.6,33.9,33.9,0,0,1-.1-6.7s1.4,2.4,3.6,5.8,8.5,6.5,8.5,6.5a39.2,39.2,0,0,1-2-7.1c-1-4.7.4-10.7.4-10.7s.3,3,2.7,9.7,10.9,11.3,10.9,11.3-.2-2.7-.7-6.2a74.1,74.1,0,0,1-.3-9.4s1.1,1.9,4.3,7.8a72.1,72.1,0,0,0,7.1,10.6s.7,2.5-.9,6.7a23,23,0,0,1-5.1,7.4,21.9,21.9,0,0,1-.4-4.6c0-2.8,2.2-8.3,2.2-8.3a41.4,41.4,0,0,0-6.2,2.8c-1.6,1.1-10.4,10.1-8.5,20.9s9.6,13,9.6,13,2.4-1.5,10.9-3.2a60,60,0,0,1,17.3-.4l7.3-23.2,18.9-6.6,1.8,11.3s5-6.6,8-11.1,13.2-9.5,13.2-9.5l7,15.5-.4,6a13.7,13.7,0,0,1-3.4-5.6,25.3,25.3,0,0,1-1.1-7.9s-3,1.5-5.4,8.8-.8,26.2-.8,26.2l-5.7,9a69.7,69.7,0,0,0,6.4,22.4l2.5-2.7a124.6,124.6,0,0,0,8.4,22.1l2.2-2.9a92.9,92.9,0,0,0,11.6,21.7l2-4.1c3.2,9.2,9,17.5,15.9,25.4l1.6-5.2C-.2,239.7,9.6,248.9,22,254.9c12-4.5,23.6-10,33.3-19.6l1.8,6.7c9.3-7.5,18.3-15.8,25.4-28.4l3,4.8a88.3,88.3,0,0,0,17.9-23.3l3,4.8c5.6-7.6,10.2-17.1,13.6-29.1l4.1,4.1c4.4-9.5,7.6-20.9,8.9-35.4-20.2-33.7-43.1-66-67.6-97.5A274,274,0,0,1,61.3,9.1,187.1,187.1,0,0,0,57.4-20l4.5-11.1L71.8-3.4s5.9-7.8,7.7-13.6,3.9-19.5,3.9-19.5L95.8-14.5a51.5,51.5,0,0,0,3.5-11.9c1.3-7.2,2.2-14.9,2.2-14.9l13,23.8a59.9,59.9,0,0,0,4.6-14.4c1.3-7.5,1.5-20,1.5-20s.1.9,4.4,6.1,11.3,19.7,11.3,19.7a143.2,143.2,0,0,0,4.1-22.2c.8-10.3-3-32.8-3-32.8S162.1-44.4,179.4-9s51.2,121.2,51.2,121.2,6.9-67.7,5.8-79.5-2.7-20.9-2.7-20.9l15.6,19S250.7,2.4,245.8-15.3ZM-125.8-122s-11.6-9.4-32-19.6-48.6-14-66.6-11.4-15.4,12.7-15.4,12.7a10,10,0,0,1,5.8-6.1c4.4-1.5,14.3,2,14.3,2a34.9,34.9,0,0,0-11.8,4.9c-5.3,3.7-10,11.6-10,11.6s-5.3-18.5,1-25.8,22.1-16.9,56.4-17.1,121.5,30.1,121.5,30.1C-93.1-140.1-125.8-122-125.8-122Zm-30,188.9.5,7.8v1.6c.1,1.6-.1,11.7-.1,11.7s-4.8-5-6-9.6-.8-12.7-.8-12.7l8.2-9.2,3.8-1.3,3.2.3C-151.8,59.6-155.8,66.9-155.8,66.9Zm16.9-1.3a39.7,39.7,0,0,1-.9,6.8s-4,1.6-4.7,5.5-.3,11.9-.3,11.9a31,31,0,0,1-5.8-10.1c-1.7-5.4-.5-12.6-.5-12.6a37.3,37.3,0,0,1,2.7-4.6c1.9-2.9,8.4-10.7,8.4-10.7l8.1-.4,2.1,4.4-2.8,3.9-1.9-4.2s0,.1,0,2.2,0,4.8,0,4.8l-2.1,5s-.1-.4-.7-2.8a7.5,7.5,0,0,0-2.1-3.6S-138.8,62.3-138.9,65.6Zm68.5,37.5-23.8,7.9-8.2,21.1a49.9,49.9,0,0,0-11.1,1l-14.4,3.2s-4.6-7.8-3.9-12.8,5.6-11,5.6-11a23.9,23.9,0,0,0-.2,5,23.2,23.2,0,0,0,1.5,6.5,8,8,0,0,1,3,.7c2.3.8,4.5,5,4.5,5a6,6,0,0,0-.6-4.3,5.8,5.8,0,0,0-3.3-3s.6-.8,4.1,0,6.5,5.9,6.5,5.9a14.5,14.5,0,0,0-1.5-4.6c-1.5-3.3-5.6-4.2-5.6-4.2a24.5,24.5,0,0,0,2.7-4.6,17.1,17.1,0,0,0,1.6-7.1l5.2,1s-7-7.2-9.6-11-8.8-15.9-8.8-15.9l2.1-.7,8.4,8.8-1.5-2.1c-1.5-2.1-4.2-9.2-4.2-9.2l2.4-2.7,7.6,12.2s-.5-1.4-2-5.1-3.6-9.8-3.6-9.8.1,0,.8-1.9a12.7,12.7,0,0,0,.2-4.7,16.4,16.4,0,0,1-4,6.6c-2.8,2.6-10.4,5.4-10.4,5.4s-.4,2-.9,5.1,1,12,1,12-3.4-2.7-5.8-11,1-16.2,1-16.2l13.4-16.5a23.2,23.2,0,0,1,4.7.5c3.1.6,5.8,3.5,5.8,3.5s-1.4,3.7,3.1,18.2,9.4,16.9,9.4,16.9l-1.3-3.2,7.8-2.4a100,100,0,0,0,9.5-4l3.7,6.6-7.3,10.1,15.1-1.3,1.7,1.7Zm-1-34.3a6.9,6.9,0,0,0-3.9.1,7.8,7.8,0,0,1,4,2.2c1.4,1.7,1.6,6.9,1.6,6.9a9.1,9.1,0,0,0-2.1,5c-.1,2.6,1.3,9.9,1.3,9.9s-4.1-2.9-7.2-9.7a21.2,21.2,0,0,1-1.6-13L-70.9,57l7.8,1.2a42.4,42.4,0,0,0-6.4,11.5S-69.7,69.5-71.4,68.9Zm24.1,49.9s.1,1.6,2.1,5.8,4.2,5.2,4.2,5.2,4.4-.8,7,1.9a13.2,13.2,0,0,1,3.1,4.4,9.1,9.1,0,0,0-2.1-5.8,11.3,11.3,0,0,0-4.5-3.1,9.2,9.2,0,0,1,6.5-1.2,7.1,7.1,0,0,1,4.7,3.5s-.4-4.6-3.5-5.8a10.4,10.4,0,0,0-6.4,0l.7-6.4s-8.2-18.5-11.5-21.1-8.1-9-8.1-9l1.6-6.8A23.4,23.4,0,0,0-49.5,77a7.3,7.3,0,0,0,1.3-2.2,10.8,10.8,0,0,0,1.9-4.9,10.3,10.3,0,0,0-.7-4.6,9.7,9.7,0,0,1-.5,3.3c-.7,2.4-1.2,2.7-1.2,2.7s.7-4-1.1-6.4-3-2.5-3-2.5a14.3,14.3,0,0,1,1.2,9.6,13.5,13.5,0,0,1-5.1,7.4,28.9,28.9,0,0,0-.5,7.9c.4,3.9.9,6,.9,6s-6.1-5.7-8.1-13S-66,70-66,70s5-8.6,8.2-11.7a22.2,22.2,0,0,1,5-3.9l8.3,1.7,1.6,12.2-4.4,8.8s.9,14.3,5.6,21.5,10.5,8.4,10.5,8.4-2.7-7.9-3.2-12.2a16,16,0,0,1,.4-6.6s5.1-2.9,6.3-6.9a9.9,9.9,0,0,0-.2-6.8s-.8,6.4-3.9,8.7-3.8,1.9-3.8,1.9a22.5,22.5,0,0,0-1.1,8.5,71.2,71.2,0,0,0,.9,7.3s-3.2-3-5.4-10.3a52.1,52.1,0,0,1-2.4-12.3A70.7,70.7,0,0,1-38,66.6a27.9,27.9,0,0,1,6.8-7.7s5.2-.2,7,2.1,3.5,4.8,3.5,4.8-5.4,12-4.2,20.6,4.4,12.2,4.4,12.2a8.3,8.3,0,0,1,3.3,4.9c.9,3.5.5,5.2.5,5.2s2.1-6,.7-9.1a10.7,10.7,0,0,0-2.8-4.3l-1.9-5.9s7.2-.6,11.5-3.1a36.6,36.6,0,0,0,6.9-5.1,23.7,23.7,0,0,1-.4,10.7,13.8,13.8,0,0,1-5.5,7.5,18.9,18.9,0,0,0,5.6.5,39.5,39.5,0,0,0,4.6-.7L-14,114.6s-7.4,12.7-9.4,18.1a39.6,39.6,0,0,0-2.3,9.1s-11-1.6-15.2-1a49.2,49.2,0,0,1-6.9.6s-1.3-6.8-1.7-12.6A18.5,18.5,0,0,1-47.3,118.8Zm-5.3,31.5,3.8-5.8,10.7-.4a106.8,106.8,0,0,0-12.2,20.7A43.5,43.5,0,0,1-52.6,150.3Zm12.8,34c-2.7-5.4-5.5-13-5.4-17.9,2.5-6.3,6-15.1,10-21.7l10.9.3s4.2-13.7,8.8-21.6l-6.8,24.8C-29.3,160.4-34.3,172.3-39.8,184.3Zm13.2,17.1c-3.5-3.8-6.6-8.9-9-15.9,10.4-26,21.4-49.5,33.5-69.5l-1.1,20.6C-13.6,158.5-20.1,179.9-26.6,201.4Zm15,21.2c-4.1-6.3-8-12.7-10.1-21.6,8.1-27.6,17.6-55,28.1-82.1.1,7.4-.1,12.7,0,20.1C-1.2,165.8-6.3,195.2-11.6,222.5Zm30.5,21.3A91.2,91.2,0,0,1-6,220.8c4.2-33.9,9.9-67.7,19.5-101.6l7.1,29Zm7.1,2-2.1-96.2,2.6-45,6.1,26.2c9.4,31.3,15,63.1,19.8,95.1C44.5,236.1,35.3,241,26,245.8Zm32.7-18.1c-4.7-30-10.5-59.9-19.8-89.3q-.1-22-.2-44c14.6,36.1,29.2,72.2,38.4,109C71.6,216.2,65.1,222,58.7,227.7Zm65.5-88.1c-.7,11.9-4.2,17.2-6.6,23.4C107.5,140.6,96,118.7,81.4,97.7L65.7,53.3C87.3,81.7,108.5,109.7,124.1,139.6Zm-9.8,23.3c-.9,12.3-5.9,18.2-10.8,24-8.3-23.4-17.9-46.6-32.4-69.1L59.7,74.6C82.1,102.5,99.3,132.3,114.4,162.9ZM98.3,183c-2.4,10.9-8.8,16.9-15.1,22.9-7.5-25.2-15.4-50.2-26.8-74.8L47.8,85C67,117.3,84.4,149.9,98.3,183ZM58-234.1a147.6,147.6,0,0,0-29.1-6.3l9.2,4c9.2,4,26.5,14.4,26.5,14.4l-7.5-3.8c-7.5-3.8-36.4-7.2-36.4-7.2a174.7,174.7,0,0,1,16.4,6.6c11,4.9,34.6,20.8,34.6,20.8s-4-1.4-17-7.5-35.8-10.4-35.8-10.4l17,8.7c17,8.7,39.5,27.1,39.5,27.1s-38.1-23.9-95.5-35.2-87.4-1.4-87.4-1.4c-2.6-12.7,36.9-22.8,91.5-23.7s90.6,17,90.6,17l5.2,4.9S72.4-229.2,58-234.1Zm36.9,15.9a30.4,30.4,0,0,0-5.9-9.6c38.9,16.6,112.9,42,133.3,86C181.7-170.1,138.3-194.6,94.9-218.2Zm2.5,4.2c43.6,25.4,84,49.7,109.6,69.1,20.1,23.4,25,37.5,29.5,51.4-40.9-37.7-85.7-72.5-132.9-105.4A60.2,60.2,0,0,0,97.4-214Zm7.7,21c40,27.9,78.1,58.4,113.5,92.4,12.4,17.5,19.3,35.7,21,54.7-30.9-37.7-69.9-78.7-129.8-128.6A40.5,40.5,0,0,0,105.1-192.9ZM227.9,83.5c-26.4-67.7-62-147.4-112.4-200.4,1.1-10.7-.6-20.7-1.3-21.6,18.6,14,84.8,85.3,110,139.8C229.5,17.4,227.7,47.6,227.9,83.5ZM115.3-144.6a79.5,79.5,0,0,0-4.5-23c34.8,30.9,70.9,65.6,111.2,112.9C236.1-33,241.3-10,243.1,13.4,208.4-49.3,139.5-123.2,115.3-144.6Z" transform="translate(249.4 255.4)" style="fill:#050000;fill-rule:evenodd"/><path d="M-202.8-42.3s15-16.5,25.1-23.3S-163-76-163-76l-2.3-3.1-5,.2S-198.1-60.5-202.8-42.3Z" transform="translate(249.4 255.4)" style="fill:#050000;fill-rule:evenodd"/><circle cx="118.9" cy="177.2" r="3.1" style="fill:#050000;stroke:#231f20;stroke-miterlimit:22.925600000000003;stroke-width:0.5669000000000001px"/></svg>