<svg id="Layer_1" data-name="Layer 1" xmlns="http://www.w3.org/2000/svg" viewBox="0 0 334.4 300.4"><title>Razorback511_3c</title><path d="M150.9-80a18.5,18.5,0,0,0,1.9-2.6,11.6,11.6,0,0,0,1.6-5.5c.1-1.3.3-1.5,1.6-1.9a11.8,11.8,0,0,1,4.6-.3l6,.6h.7l-.7-1.6a52.6,52.6,0,0,0-3.7-8,15.2,15.2,0,0,0-4.2-4.5,20.8,20.8,0,0,0-11.6-3.4h-3a36.6,36.6,0,0,0-4.4.7,22.3,22.3,0,0,0-6.9,2.9,17.1,17.1,0,0,0-5,4.7,17.8,17.8,0,0,0-3.2,10.5,4.4,4.4,0,0,1-1.1,3.5,2.4,2.4,0,0,0-.6,1,2.9,2.9,0,0,1-2.2,2l-.6.2a15.6,15.6,0,0,0-8.5,6.4c-.6,1-.7.9-1.9.6l-5.6-1.5a41.3,41.3,0,0,0-8.9-1.1h-.7L87.9-78H79.7a1.8,1.8,0,0,1-1.6-.7c-1-1.2-1.9-2.3-3-3.4a62.2,62.2,0,0,0-8.3-7.5A9.4,9.4,0,0,1,64-92.1c-1.5-2.5-3.1-5-4.8-7.3a84.5,84.5,0,0,0-6-7.4,49.1,49.1,0,0,0-7.4-6.9c-2-1.4-3.9-2.9-6.4-3.3l-6.4-1-5.5-.5-5.9-.4H17.6c-2,.1-4,0-5.5-1.6H12l-7.6-4.6a36.6,36.6,0,0,0-4.9-2.4c-2.4-.9-4.9-1.7-7.3-2.5A1.5,1.5,0,0,1-9-131.3a32.5,32.5,0,0,0-3.1-6.7c-2.2-3.8-4.4-7.5-6.7-11.2l-.8-1L-20-148c-.5,2.6-.9,5.1-1.4,7.7a9.6,9.6,0,0,1-1,3.5l-4.5-2c-2.5-1-5.1-2-7.7-2.8s-5.4-1.3-8.1-2a40.4,40.4,0,0,0-8.3-1.1,60.9,60.9,0,0,0-9,.1,41.1,41.1,0,0,0-6.8,1.4,28.4,28.4,0,0,0-6.8,2.8,33.8,33.8,0,0,0-6.2,4.5c-2.1,2-3.5,4.5-5.1,6.8a36.8,36.8,0,0,1-2.4,3.5c-3.1,3.4-4.5,7.5-5.1,11.9-.1.4-.2.9-.3,1.6l-1.2-1.4a52.1,52.1,0,0,1-5.8-10.9l-2.6-6.9-.8-1.6-.4.4-4.2,7.3a36.9,36.9,0,0,0-3.4,8.9,39.6,39.6,0,0,0-1.5,8.6,85.6,85.6,0,0,0,.1,11.3,74.1,74.1,0,0,0,1.2,7.6,11.4,11.4,0,0,0,4.8,7.1l2.5,1.9-1.3,1.7c-1.2,1.7-2.6,3.4-3.7,5.2a4.3,4.3,0,0,0-.5,4.1,7.6,7.6,0,0,1,.3,1.3,1,1,0,0,1-.4,1L-113-63a20.8,20.8,0,0,0-5.5,10.6c-.1.7-.3,1.3-.5,2l-4.6-.8a25.8,25.8,0,0,0-9.1-.3,35.6,35.6,0,0,0-7.4,1.9,35.3,35.3,0,0,0-5.7,2.7,39.7,39.7,0,0,0-5.1,3.7,47.7,47.7,0,0,0-6,6.2,52.2,52.2,0,0,0-3.2,4.7,43,43,0,0,0-4.4,9.4,47.8,47.8,0,0,0-2,7.8,51.2,51.2,0,0,0-.8,6.5A63.8,63.8,0,0,0-167-.3a59.6,59.6,0,0,0,1.2,7.1,48.9,48.9,0,0,0,5.2,13.5,43.8,43.8,0,0,0,9.2,11.6,34.8,34.8,0,0,0,11.1,6.7c.9.3.9.4.7,1.3l-1.5,5.1a3.5,3.5,0,0,0-.1,2.1,25,25,0,0,0,5.2,9.1,45.6,45.6,0,0,0,4.9,4.9,40,40,0,0,0,4.8,3.7,59.9,59.9,0,0,0,11.3,6c4.8,1.8,9.6,3.7,14.4,5.3A144.8,144.8,0,0,0-86,80.3a63.3,63.3,0,0,0,11.2,1.8c.7-.8,1.3-1.6,2.1-2.4s3.1-3.1,4.8-4.5a36.3,36.3,0,0,1,6.4-4.3l6.2-3.3,5.2-3.3,7.1-4.8c1.8-1.3,3.4-2.7,5.2-3.9a43.3,43.3,0,0,0,5.4-4.4l2.6-2.6.7-.5.4.5c.7,1.3,1.4,2.6,2.2,3.8a6.6,6.6,0,0,1,1.1,4.5c-.1.5,0,1,0,1.6a5.7,5.7,0,0,1-.8,2.8l-2.4,3.6a42.7,42.7,0,0,1-5.8,7c-2.3,2.1-4.8,4-7.2,5.9l-6.9,5.4a7.2,7.2,0,0,1-2.2,1.4c-2.2.6-4.4,1.1-6.6,1.5a3.2,3.2,0,0,0-1.7.9l-3.1,3.1c-3.7,3.7-7.4,7.5-11.2,11.2a12.9,12.9,0,0,0-3,4.8c-.9,2.3-1.9,4.6-2.9,6.9l-3.3,7.8c-.9,2.1-1.6,4.2-2.7,6.2a3.8,3.8,0,0,0,.1,4.1c1.9,3.3,3.5,6.8,5.2,10.2l1,1.9,15.2-5.5,1.4,12.5,2.1-.2,3.4-.3a46.2,46.2,0,0,0,11.7-3.6A64.5,64.5,0,0,0-34,139.5a98.1,98.1,0,0,0,11.5-9.7,103.2,103.2,0,0,0,10.7-11.9,3,3,0,0,0,.5-2.4c-.2-1.3-.3-2.6-.5-4.1l3.4,1.8,2.7-13.2,3.1.8c1,.2,1.9.9,2.9.5.2-2,.4-4,.6-6s.3-4.5.5-6.7.2-2.1.3-3.1.4-2.8.4-4.2a2.3,2.3,0,0,1,1.1-2L9,75.2c1-.7,1.1-1,.7-2.2s-1.5-4.2-2.4-6.2a1.8,1.8,0,0,1,.2-2.1l1.2-1.2L11,62a50.7,50.7,0,0,0,7-6.1,9.4,9.4,0,0,0,1.8-2.5,21.5,21.5,0,0,0,1-3.4c.6-2.3,1.2-4.5,2.8-6.4s2.2-2.8,3.3-4.2a38.8,38.8,0,0,1,7.3-6.1,3.3,3.3,0,0,1,2-.6H55.9l2.4-.2h1.9c-.1.5-.1.9-.2,1.2l-1.1,4.1a48.8,48.8,0,0,1-4.1,11.2,3.8,3.8,0,0,1-1.3,1.5l-9,6a3.8,3.8,0,0,0-1,1l-6,9L27.7,81a7.8,7.8,0,0,0-.5,1.2h7.7l3.9.3v3.2c2.1.2,4.1.4,6,.5a35.4,35.4,0,0,0,7.7-.6l6.4-1.3c1.8-.4,3.5-1.1,5.2-1.6a17.2,17.2,0,0,0,7.8-4.6,6.1,6.1,0,0,0,1.7-3.4,47.1,47.1,0,0,0,.5-5.6,3.4,3.4,0,0,1,1.2-2.8c.9-.8,1.8-1.7,2.6-2.6s1-1,2.1,0h.3a5.3,5.3,0,0,0,.3-.9c.4-2.5.8-5,1.2-7.5s.9-5.5,1.5-8.2a87.6,87.6,0,0,1,2.3-8.5,89.8,89.8,0,0,1,6-13,2.9,2.9,0,0,1,1.3-1.6l2,1.2a44.5,44.5,0,0,0,11.8,5.1,41,41,0,0,0,5.5.9,63.1,63.1,0,0,0,7.6.4h5.6l.2.4a54,54,0,0,1,2.4,8.6c.5,2.1.8,4.2,1.2,6.3s.3,1.8-.5,3.5l-1.7,3.3a3.2,3.2,0,0,0-.4,1.8A1.7,1.7,0,0,1,126,57l-2,2.9-1.9,2.5a8.4,8.4,0,0,0-1.3,2.1c-.7,2-1.2,4-1.7,6.1l-2.5,9.3-2.3,8.5,1.9,1.6,4.2,3.4a2,2,0,0,0,2,.4l5.2-1.3,1.3-.5L135,88c.7-.5.7-.5,1.2.2l5,6.6,4.1,5.5a.9.9,0,0,0,1,.4l6.2-1.4a1.4,1.4,0,0,0,.8-.6c2-3.4,4.1-6.8,6.1-10.2a51,51,0,0,0,4.4-9.8,4.6,4.6,0,0,0,.2-2,44.5,44.5,0,0,0-.9-4.8c-.6-2.3-1.3-4.6-2-7a.9.9,0,0,1,.3-1.1l2.2-2.2c.7-.7.6-.7,0-1.5L160.9,57l2.5-1.6c.8-.5,1.9-.7,2.6-1.8l-6.7-6.4,2.8-.8-1.5-1.9c-1.3-1.9-2.8-3.7-3.9-5.7a25.9,25.9,0,0,1-2.9-10.2c-.3-2.4-.4-4.9-.5-7.3-.1-4.2-.2-8.5-.3-12.7,0-1,0-1.9,0-2.9s-.1-.6-.1-1l-2.9-.3a8.4,8.4,0,0,1-2.7-.9,7.7,7.7,0,0,1-3.4-5.2c-.6-2.5-.4-5.1-.7-7.7s-.2-2.8-.3-4.1-.2-1.9-.3-2.8-.4-3.5-.7-5.3-.6-4.4-1-6.6-1.1-6-1.8-8.9a77.5,77.5,0,0,0-3.9-11.9,7.9,7.9,0,0,1-.3-.9h1.1a12.5,12.5,0,0,0,8.9-3.7A13.5,13.5,0,0,0,149-66.5a15.5,15.5,0,0,0-2.4-5.5l-1.8-2.7.2-.3A27.8,27.8,0,0,0,150.9-80Zm-9,94.8h0l-.3.9ZM27.6,16.6l-.3-.3-2,2,2-2,.7-.7-.7.7.3.3.3-.2-.3.2ZM-129.9,39.7l.2-.2h0Zm18.3-90h0a3,3,0,0,1-.2.7A3,3,0,0,0-111.6-50.3ZM-95.8,55.2h0l.6.5Zm75-156.9v0ZM-99.8-11h0Zm76.5-30.3h0Zm-.2-.2h-.1v0h.1ZM-55.9-31.5h0l.3,1.3-.3-1.3-.9-1.5Zm20.4-41.3v0Zm-.1,5.5-.2-.2.2.2Zm-.3-.2-.2-.2Zm-43.7,4.3A3,3,0,0,0-81.5-62a3,3,0,0,1,1.9-1.2ZM-92.9-47l1.7.7-1.7-.7a7,7,0,0,1-1.4-1.6A7,7,0,0,0-92.9-47Zm-6.7,35.8a3,3,0,0,1,.9-1.3,3.1,3.1,0,0,0-.9,1.3Zm79.5-33.9.3-.5h0Zm-93.3,53h0Zm0,0h0l-.6.9Zm.3,0,.9-1.2,2-2.1-2,2.1-.9,1.2Zm53.6-9.2.2-.5a24.7,24.7,0,0,1,1.1-3.6,24.7,24.7,0,0,0-1.1,3.6Zm58-58.8h0Zm-.3,0h0Zm5.1-1.7Zm28,46.2-.3.4a.2.2,0,0,1,0,.2.2.2,0,0,0,0-.2Zm-19-30.7v0l-.8-1.4ZM9.5-74.9ZM6.8-56.5h0ZM-7.5-45.8l.2,1.5-.2-1.5a21.9,21.9,0,0,0-1.1-4.1A21.9,21.9,0,0,1-7.5-45.8Zm13.3,68,1.8-2.3L5.8,22.2l-.8.9ZM-60.5-128a6.5,6.5,0,0,0-2.7-3.1,6.5,6.5,0,0,1,2.7,3.1ZM-111-4.8l.2.3-.2-.3-.7-1.3Zm-18.7,44.2v0Zm69.4,12.4Zm12.9-18.1V34h0Zm-76.1-77.1,4.5-2.6a12.8,12.8,0,0,1-.2,1.6,38,38,0,0,0-1.5,8.4c-.1,1.5-.2,3-.2,4.5a19.1,19.1,0,0,0,.9,6.8l-3.1,2a60.3,60.3,0,0,0-7.9,5.5l-2.4,2.2a7.5,7.5,0,0,1-1-.9,8.1,8.1,0,0,1-1.6-4c-.6-4.1.5-7.8,2.1-11.5a24,24,0,0,1,4-6.4A24,24,0,0,1-123.5-43.3Z" transform="translate(167.2 150.2)" style="fill:#fff"/><path d="M155.7,63.5l2.6-2.6-4.3-5.2,4.9-2.6c-2.7-2.8-5.7-5.3-6.9-9.1l2.2-.5a1,1,0,0,0,0-.3l-.2-.4a29,29,0,0,1-4.3-13.4c-.4-5.9-.5-11.8-.7-17.6,0-1,0-2,0-2.9l-.2-.2h-.5a10.6,10.6,0,0,1-6.7-5A16.7,16.7,0,0,1,139.3-4c-.4-4.8-.7-9.5-1.2-14.3a120.7,120.7,0,0,0-3.6-19.9A55.5,55.5,0,0,0,126-56.8a4.1,4.1,0,0,1-.9-2.9,4.7,4.7,0,0,1,.3-1.9,29.6,29.6,0,0,0,1.9,2.4,20,20,0,0,0,5.9,4,7.4,7.4,0,0,0,6.2,0,9,9,0,0,0,4.5-12,17,17,0,0,0-9.9-9.6l-.7-.4c.5-.4.9-.2,1.3-.1a8.7,8.7,0,0,0,7-1,37.6,37.6,0,0,0,3.7-2.5,10.7,10.7,0,0,0,4.6-8.4,5.1,5.1,0,0,1,3.6-4.7,16.6,16.6,0,0,1,5.5-.9h1c-1.4-2.9-3.2-5.2-6.1-6.4a20.2,20.2,0,0,0-7.1-1.6,19.9,19.9,0,0,0-12.5,3.3,12.2,12.2,0,0,0-4.5,5.6,16,16,0,0,0-1,8.1,1.6,1.6,0,0,1-.4,1.4,14.7,14.7,0,0,0-2.9,5l-.4.9c-6.6,1.3-9.2,3.1-12.2,9.9h-.1l-.5-.2a38.3,38.3,0,0,0-13.3-3.8,198.9,198.9,0,0,0-21.5-.9,2.1,2.1,0,0,1-1.7-.7c-2.4-2.6-4.7-5.2-7.2-7.7a33.7,33.7,0,0,0-6.9-5.4,2.6,2.6,0,0,1-.9-.9,105.5,105.5,0,0,0-7.8-11.4,55.8,55.8,0,0,0-10-10.3,13.4,13.4,0,0,0-6.4-2.9,135.5,135.5,0,0,0-21.3-1.6,7.3,7.3,0,0,1-4.6-1.4,82.9,82.9,0,0,0-11-6.6,54,54,0,0,0-11.3-3.8,1.3,1.3,0,0,1-1.1-1c-.3-1-.6-2.1-1-3.1a32.1,32.1,0,0,0-3.8-7.3,20.4,20.4,0,0,1-3,7.1l-1.6-.8c-9.7-5.1-19.8-8.4-30.8-8.9a36.5,36.5,0,0,0-15.9,2.5,24.9,24.9,0,0,0-9,6.1c-.3.3-.7.5-.6,1.1a13,13,0,0,1,6.2.9h-.2l-1,.4a33.6,33.6,0,0,0-9.7,5.5,13.6,13.6,0,0,0-3.7,4.8,22.2,22.2,0,0,0-1.6,11.8c0,.3.1.5.2,1a9.5,9.5,0,0,1,3.7-3.6l-1.7,5.7a10.4,10.4,0,0,1-3.5-.6,16.8,16.8,0,0,1-9-7.1,60.2,60.2,0,0,1-5.2-9.7l-.6-1.3-.6,1.1a41.8,41.8,0,0,0-2.9,8.8,53.3,53.3,0,0,0-.6,16,38.9,38.9,0,0,0,1.5,8.2,5.4,5.4,0,0,0,1,1.8,12.3,12.3,0,0,0,5.9,3.9l3.9,1.2c-.1.2-.1.3-.1.3l-.9.8a45.2,45.2,0,0,0-7.8,8.8,3.1,3.1,0,0,0-.5,2.9c.4,1.4.6,2.8,1,4.1-7.3,4.1-10.6,10.7-10.3,16.2l2.8-1.9a3.1,3.1,0,0,1-.2.7c-.6,1.1-1.2,2.1-1.7,3.1a34.4,34.4,0,0,0-2.9,15.6,33.1,33.1,0,0,0,.6,4.5,9.3,9.3,0,0,0,.7,1.7l1-2.6a4.5,4.5,0,0,1,1.4-2.2l.3,10.3-2.9,1.6-3-1.9a1,1,0,0,0-1.3,0l-6.9,4.6a29.2,29.2,0,0,0-2.6,2.3,1.5,1.5,0,0,0-.5,1.5c.1.5.1.9.2,1.4h-.8a9.2,9.2,0,0,1-9-5.9,16.7,16.7,0,0,1-1.1-9.5,31.4,31.4,0,0,1,13.2-21.3l.8-.6a3.5,3.5,0,0,0-1.5-.3,28.8,28.8,0,0,0-16.5,4.7A37,37,0,0,0-158-26.6a48.6,48.6,0,0,0-3,34.1,43.6,43.6,0,0,0,10.1,18.8,30.3,30.3,0,0,0,16.5,9.5l.7.2L-134,37c-.8,2.7-1.7,5.5-2.6,8.2a2.9,2.9,0,0,0,.2,2.3,27.8,27.8,0,0,0,4.4,6.6,48.2,48.2,0,0,0,15.4,11.3,116,116,0,0,0,13.3,5.2,150.2,150.2,0,0,0,25.2,6.7,2.2,2.2,0,0,0,2.3-.7A45.1,45.1,0,0,1-61.7,65.9l2.7-1.5a146.8,146.8,0,0,0,13.6-9c2.9-2.1,5.9-4.3,8.6-6.6a70.7,70.7,0,0,0,9.2-9.7l.7-.7.2.8c.3,1.7.6,3.4,1,5.2a6,6,0,0,0,.6,1.7l3.6,6.2a3.5,3.5,0,0,1,.5,2c-.1,1.9-.1,3.9-.1,5.8a3.8,3.8,0,0,1-.7,2.2c-1.6,2.3-3,4.7-4.7,6.9a39,39,0,0,1-7.4,8.1l-14,10.9a3.4,3.4,0,0,1-1.3.6l-6.3,1.4a2.9,2.9,0,0,0-1.5.8l-14,14a3.8,3.8,0,0,0-.8,1.2l-9.4,22.1a1.5,1.5,0,0,0,0,1.5l3.7,7.2.5.7,16.8-6.1,1.5,13.6h.4l1.6-.3A47.8,47.8,0,0,0-43,139.8a82,82,0,0,0,15.7-11.6,104.7,104.7,0,0,0,11.1-11.8,2.1,2.1,0,0,0,.5-1.7c-.5-3.5-.8-7-1.2-10.5,0-.3,0-.6,0-1l5.6,3.1L-9,94.3l5.5,1.4v-.8c.4-5.2,1-10.3,1.3-15.5A3.6,3.6,0,0,1-.3,76.3c1.7-1.1,3.4-2.4,5.1-3.6l-.5-1.3-2-5.5a1.3,1.3,0,0,1,.1-1.3L4.7,61a2,2,0,0,1,.7-.6c3.7-2,6.6-4.8,9.5-7.7a4.1,4.1,0,0,0,.9-1.6c.6-2,1.2-4,1.8-6.1a5.7,5.7,0,0,1,.6-1.3A43.4,43.4,0,0,1,32.6,29a4,4,0,0,1,2.1-.7h9.5c7,0,14.1.2,21.1-.5H66v.6L62.4,41.6a46.5,46.5,0,0,1-4.3,10.7,3.9,3.9,0,0,1-1.4,1.5l-8.9,5.9a4.1,4.1,0,0,0-1.1,1.1l-11,16.5-.4.8h8v3.7h1.2c2.4-.1,4.8-.2,7.1-.5a47.5,47.5,0,0,0,13.1-3.6A19.3,19.3,0,0,0,67.6,76a3.8,3.8,0,0,0,1.8-3.3c0-2.1.2-4.2.3-6.3a2.2,2.2,0,0,1,.8-1.6l4.3-4.1a1.4,1.4,0,0,0,.4-1.7A24.4,24.4,0,0,1,74,52.8a36,36,0,0,1,.3-4.9h.2l3.1,4.6C78.9,46,80.1,39.8,82.6,34a163.4,163.4,0,0,1,8.6-16.8l.8.6c1.9,1.3,3.8,2.8,5.8,4a32.8,32.8,0,0,0,12.7,4.9,81.4,81.4,0,0,0,12.3.7l5.6-.2.2.2.3.7a88.7,88.7,0,0,1,5,21,2.9,2.9,0,0,1-.3,1.5c-.7,1.5-1.4,3-2.1,4.4a2.9,2.9,0,0,0-.4,1.9,2.1,2.1,0,0,1-.5,1.7l-4.9,6.6a5.8,5.8,0,0,0-1,2l-3.5,13-1.7,6.4,2.6,2.2a1.1,1.1,0,0,0,1.1.2,13.6,13.6,0,0,0,5.6-2.3l1.5-1,6.8-4.2,10.7,14.4,1.5-.3a2.1,2.1,0,0,0,1.8-1.3l3.3-5.5a54.9,54.9,0,0,0,4.2-8.2c1.6-3.9,1.5-2.8.6-7.1A56.1,56.1,0,0,0,155.7,63.5ZM31.3-15.6l-.3.4a.2.2,0,0,1,0,.2.2.2,0,0,0,0-.2ZM-23.2-41.4h0Zm-.2-.2h-.1c0-.1,0-.3-.1-.3s.1.2.1.3h.1Zm-32,12.7c-.2-.8-.4-1.7-.6-2.5l-.5-.7.5.7h0C-55.7-30.6-55.6-29.8-55.3-28.9Zm19.8-43.8v0Zm-.1,5.5h0Zm15.5,22.1.3-.5h0ZM-79.6-63.2h0Zm-1.4.6.6-.4Zm.9-.5h0ZM-59.6-1.3l.2-.5a26.1,26.1,0,0,1,2.2-5.9,26.1,26.1,0,0,0-2.2,5.9Zm58-58.8h0Zm-.3,0h0ZM12.3-46.2l.3,1-.3-1-.8-1.4ZM6.8-56.5h0ZM9.5-74.9l.2.3-.2-.3h0ZM-93.7-47.8a8.2,8.2,0,0,1-1.1-1.8,8.2,8.2,0,0,0,1.1,1.8l.7.8,1.7.7-1.7-.7ZM-99.8-11h0Zm.1-.1a2.8,2.8,0,0,1,.6-1,2.8,2.8,0,0,0-.6,1Zm78.8-90.5v0ZM-97.8-50.3ZM-113.5,7.9h0Zm0,0h0l-.6.9Zm.3,0A13.4,13.4,0,0,1-111.7,6,13.4,13.4,0,0,0-113.2,8Zm2.9-3.3,1.3-1.1Zm62.9,29.2h0V34h0ZM5.8,22.2l1.8-2.3L5.8,22.2l-.8.9ZM-60.5-128a6.5,6.5,0,0,0-2.7-3.1,6.5,6.5,0,0,1,2.7,3.1ZM-111-4.8l.2.3-.2-.3-.7-1.3Zm-18.7,43.6a3,3,0,0,0-.1.7h0A3,3,0,0,1-129.6,38.8Zm33.8,16.5.6.5-.6-.5ZM27.3,16.3l1-.9h0l-1,.9h0c-1.4,1.3-2.8,2.6-4,4C24.6,18.9,26,17.6,27.3,16.3Zm.3.3h0l.3-.2Zm114.3-1.7-.3.9.3-.9Z" transform="translate(167.2 150.2)" style="fill:#050000;stroke:#050000;stroke-miterlimit:10"/><path d="M-129.7,39.5a3.4,3.4,0,0,1,.1-.7,103.8,103.8,0,0,1,15-29l1.2-1.9h.3a20.1,20.1,0,0,1,4.6-4.8l2.2,3.8a4,4,0,0,0,.5-.8,28.8,28.8,0,0,0,1-6.3c0-1.3,0-2.5,0-3.8a1.7,1.7,0,0,1,.5-1.4,22.8,22.8,0,0,1,7.6-5.1l8.9-3.3a2.7,2.7,0,0,1,2.1,0,76.1,76.1,0,0,0,10,3.1A50.2,50.2,0,0,0-63-9.3l1-.2a10.5,10.5,0,0,0-1.3-1.3c-1.5-1-2.9-2-4.5-2.9s-3.3-1.6-4.9-2.4a102.5,102.5,0,0,1-12.5-7.2,3,3,0,0,0-2.6-.5l-3,.6A24.4,24.4,0,0,0-99.5-20a15.5,15.5,0,0,1,2.3-4.8c1.3-1.9,2.6-3.7,3.9-5.5a60.1,60.1,0,0,0,7.7-14.3l1.5-3.8h.4c3.4-1.4,6.9-.9,10.3-.9,1.9,0,3.7.4,5.7.6a3.5,3.5,0,0,0-.3-.8,19.5,19.5,0,0,0-2.7-3.1,12,12,0,0,0-7.4-2.7h-3.7c.2-1.2.4-2.4.7-3.6s1-2.9,1.5-4.3l1.2-1.9a11.1,11.1,0,0,0-5.5,2.7l-.5-.4a30.1,30.1,0,0,0-3.2-4.3A14.4,14.4,0,0,0-93-71.3a7.4,7.4,0,0,0-4.8-.3c-.4.1-.7.3-.7.7a15,15,0,0,0-.2,1.8c0,4-.2,8,.4,12A15.4,15.4,0,0,0-95.8-51a2.6,2.6,0,0,0,.6.5A8.3,8.3,0,0,0-92.9-47a5.7,5.7,0,0,1-1.3.8c-2.2.6-3.6.9-5.6-1.2l-1-1.2-3.1,1.6a22.4,22.4,0,0,0-5.3,4.2,27.9,27.9,0,0,0-2.4,3.2l-.9.9a28.7,28.7,0,0,1,5-12.4c.8-1.1,1.8-2.1,2.7-3.1-.9-.6-1-.6-4.2-.3.3-1.5,4.1-4.7,6.4-5.4l.8,2.2a24.1,24.1,0,0,0,3.2,6.6l.5.5.4.5h.2v-.5a19.6,19.6,0,0,1-2.1-7.3c-.4-3.4-.5-6.7-.8-10.1a5.4,5.4,0,0,1,.9-3.5,30.3,30.3,0,0,1,5-5.9l2.9-2.6a20.9,20.9,0,0,1,2.1,1.5l7.1,6.6a3.5,3.5,0,0,0,1.2.8,5.2,5.2,0,0,0-.2-.8A23,23,0,0,0-87-80l-1.1-1.2c2.5-1,4.8-2.2,6-4.8,2.1,1.9,3.9,4.1,6.8,4.7,0-.4,0-.7,0-1-.1-1.9-.2-3.9-.2-5.8a4.6,4.6,0,0,1,1.4-3.4l.6-.4c2,3.9,4.7,7,8.9,8.7a36.1,36.1,0,0,1-4.2-7.2,37.2,37.2,0,0,1-1.8-8.2c-5.1,1.5-7,5.5-8.4,10-.5-.2-.5-.7-.6-1A58.6,58.6,0,0,1-80.7-96a30.5,30.5,0,0,1,.6-11,15.7,15.7,0,0,1,3.8-6.8,4.8,4.8,0,0,1,2.5-1.4l4.3-1.1-.8-.4a11.5,11.5,0,0,0-6.2.1,28.7,28.7,0,0,0-6.7,3.1l-1.2.7a7.3,7.3,0,0,1,.2-.9,21.3,21.3,0,0,1,7.4-8.7,28.9,28.9,0,0,1,16-5.5h.2a6.8,6.8,0,0,0-4-3.7c-1.8-.5-3.6-.8-5.6-1.2l1.4-.7a23,23,0,0,1,7-1.4,84.8,84.8,0,0,1,20.3.9,41.3,41.3,0,0,1,14.6,5c1.1.6,2.1,1.4,3.1,2.2l.9.9-2.6,2.6a40,40,0,0,1-9.3,6.2l-5.4,2.6a2.4,2.4,0,0,0-1.5,1.7c-.4,1.8-1,3.5-1.2,5.3a35,35,0,0,0-.3,9.6,14.3,14.3,0,0,0,1.2,4.6,2.2,2.2,0,0,0,.2-1.3,46.9,46.9,0,0,1,2.1-11.9c.3-.9.7-1.8,1.1-2.8a3.1,3.1,0,0,1,1.6-1.7c2.8-1.5,5.7-3.1,8.4-4.8s7-5.9,9.6-9.6l1.2-1.8.3-.2.7,3.2a105.3,105.3,0,0,1,1.8,22.7,1.6,1.6,0,0,1-1.1,1.6,69.9,69.9,0,0,1-13.8,4.7l-3.2.8a5.8,5.8,0,0,1,.1-.9l.6-2.1a4.8,4.8,0,0,1,2.2-2.9l2.3-1.5a21.1,21.1,0,0,0,6.3-6.1l.7-.9a9.8,9.8,0,0,1,.2,1.5c0,1.3-.1,2.7-.1,4v1.5h0a7.2,7.2,0,0,0,1.9-3.5,27.1,27.1,0,0,0,.9-5.3c.1-2.5,0-5.1,0-7.6a3.8,3.8,0,0,0-.1-.6h-.3a22.5,22.5,0,0,1-6.3,5.9l-8.7,5.6a4.9,4.9,0,0,0-2,2.1,23.1,23.1,0,0,0-2,7.1,32.4,32.4,0,0,0,.7,11.8,14.8,14.8,0,0,0,1.1,2.8A2.4,2.4,0,0,0-34.2-82c0-.6-.1-1.1-.1-1.6s.1-3.2.1-4.8.4-1,1.1-1.1L-19.3-93c1.3-.4,2.6-.9,3.9-1.4a14.5,14.5,0,0,0,4.3-2.8,3.4,3.4,0,0,0,1.2-2.5,65.8,65.8,0,0,0-.6-11.9l-1.2-8.8h.8a58.4,58.4,0,0,1,24.2,12.7,104.3,104.3,0,0,1,13.8,15l.6.7c-.1-.5-.1-.7-.1-1a18.6,18.6,0,0,0-3.7-8.6c-1.6-2-3.4-4-5.1-6l-.6-.7h4.4l6.8.4,6.2.5a5.2,5.2,0,0,1,2.5.9,37.3,37.3,0,0,1,5.8,5.3A64.4,64.4,0,0,1,57.6-80a70.1,70.1,0,0,1,3.7,14.2,94.7,94.7,0,0,1,1.2,17.2c0,.2,0,.5,0,1l.5-.9a40.3,40.3,0,0,0,2.4-11.6A65.5,65.5,0,0,0,63.5-78l-.2-1.3a7.7,7.7,0,0,1,2.8,1.9l6.7,7,3.8,4.1a14.4,14.4,0,0,0,8.6,4,22.5,22.5,0,0,0,7-.2l1.3-.3c-1.7-.4-3.2-.7-4.6-1.2a29.1,29.1,0,0,1-4.1-1.8c-1.4-.7-2.6-1.6-3.9-2.4v-.3H82c4.7-.1,9.3-.3,14-.3a31.6,31.6,0,0,1,18.9,6.7,31.6,31.6,0,0,1,8.1,8.8,45,45,0,0,1,4.3,9.9A132.8,132.8,0,0,1,132.2-22c.7,4.7,1.2,9.4,1.9,14.1a35.4,35.4,0,0,0,6.2,16.1,18.3,18.3,0,0,0,4,4.1,1.4,1.4,0,0,1,.7,1.3c0,.7,0,1.4.1,2,.2,4.4.4,8.9.7,13.3a27.8,27.8,0,0,0,3.5,11.1l.3.6c-1.1,0-1.8-.7-2.8-.9a6.2,6.2,0,0,0,.1.8,18.4,18.4,0,0,0,4.5,7.2l3.2,3.2.5.6c-2.1,1.2-4.2.8-6.4.6a60.8,60.8,0,0,0,2.4,7.3,55.1,55.1,0,0,0-6.1.5,53.4,53.4,0,0,0-5.8,1.8l-4.6-3,1.2-1.9a4,4,0,0,0,1.1-.6c1-1,1.9-2,2.8-3a8.4,8.4,0,0,0,2-5.3,74.8,74.8,0,0,0-.7-12.3c-.4-2.5-.6-5.1-1-7.6a4.7,4.7,0,0,1,.5-3,17.5,17.5,0,0,0,1.5-3.6c.6-2.3.9-4.6,1.3-6.9a6.8,6.8,0,0,0,0-1.3l-3.8.7-6.7.8a50.9,50.9,0,0,1-7.5.5,22.8,22.8,0,0,1-5.8-.9,28.8,28.8,0,0,1-9.3-4.7c-.9-.6-1.6-1.4-2.3-2s.3-3.4.4-5,.4-4.9.4-7.3a118.9,118.9,0,0,0-.2-12.9c-.1-.9-.1-1.8-.3-2.7s-.7-3.6-1.1-5.3-1.3-4.6-2-6.8a3.5,3.5,0,0,0-.5-.7c-.1.6-.2.9-.3,1.3-.3,2.4-.6,4.9-1,7.3A73.1,73.1,0,0,1,100-13.1,42.1,42.1,0,0,1,93-1a44.9,44.9,0,0,1-8.7,7.9l-1.1.5c.1-3.6,0-7-1.5-10.5l-3,6c-.3-1.4-.4-2.5-.7-3.7a21.4,21.4,0,0,0-1.3-3.5,11.9,11.9,0,0,0-1.6-3.2c-.5,1-.9,1.9-1.4,2.7A12.2,12.2,0,0,1,72.4-2c-.1-1.9-.2-3.7-.4-5.4a13.6,13.6,0,0,0-1.6-5.1l-4,4a2.2,2.2,0,0,1,0-.5,45.1,45.1,0,0,0,1.6-9c.3-2.4.2-4.9.3-7.4a38.5,38.5,0,0,0-1.3-10.7c-.5-2.3-1.4-4.6-2.1-6.8a3.9,3.9,0,0,0-.5-.8c-.4,1.5-.6,2.9-1.1,4.2q-1.5,4.8-3.1,9.6a61.3,61.3,0,0,1-6.2,13.2A62.7,62.7,0,0,1,45.6-6.1l-.5.6L40.6.9,36.1,7.4a4,4,0,0,1-.9.9l-3.4,2.3a73.4,73.4,0,0,0-9,6.8l-3.7,3.2-4.8,4.3a3.2,3.2,0,0,0-.9,1.5c-1.2,3.7-2.3,7.4-3.8,11a7.2,7.2,0,0,1-3.5,3.7A23.5,23.5,0,0,1,.8,42.9,1.4,1.4,0,0,0-.4,44c-.8,2.6-1.7,5.1-2.6,7.6S-4.8,58-6.8,60.8a95.8,95.8,0,0,0-7.3,13.3c-1.3,2.7-2.5,5.4-3.8,8-2.2,4.2-4.5,8.4-6.7,12.6a10.2,10.2,0,0,0-.5,1.4,16,16,0,0,1-10-2.5l-.8-.5a7.8,7.8,0,0,0-4.8-1.5l-2.7-.3,1.1-.9A119.6,119.6,0,0,0-27.2,77.9a61.7,61.7,0,0,0,8.3-10.7,156.3,156.3,0,0,0,7.9-14,7,7,0,0,0,.8-2.7c.3-3.7.6-7.4.8-11.1a3.5,3.5,0,0,1,1.2-2.6c2.5-2.3,5-4.6,7.4-7.1S3.1,25.3,5,23.1l.8-.9a21.4,21.4,0,0,0,2.4-1l8.6-5.1a44.3,44.3,0,0,0,6.8-5,36.7,36.7,0,0,0,6.8-8.5L31.9.2c.4,2.9-.1,5.6-.2,8.7L33,7.9,35,5.6A52.6,52.6,0,0,0,43.3-8.2a78.3,78.3,0,0,0,3.8-11.1,42.2,42.2,0,0,0,1.2-8.3c.1-2.1-.1-4.2-.2-6.3a32,32,0,0,0-1.3-7,5.2,5.2,0,0,0-1.2-2.8c-.7-2.9-1.2-5.7-2-8.6a27.9,27.9,0,0,0-4-8.5,3.5,3.5,0,0,0-.9-1,2.9,2.9,0,0,0,.1.6,76.6,76.6,0,0,1,3,16,106.6,106.6,0,0,1,.6,13.4,48.3,48.3,0,0,1-2.1,14c-.4,1.1-.8,2.1-1.3,3.1a2.9,2.9,0,0,1-.9,1.1c-.1-.5-.1-1.1-.2-1.6-.3-2.1-.6-4.2-.9-6.2a11.1,11.1,0,0,0-1.8-4.1l-.4-.5c-.5,1.7-.9,3.3-1.4,4.9s-1.2,3.4-1.8,5a4.2,4.2,0,0,1-.6.9c.1-1.1.1-2.2.3-3.3a49.2,49.2,0,0,0,.9-8.4c0-1.6-.1-3.2-.2-4.9s-.4-3.4-.6-5.2a5,5,0,0,1,.1-.8c1.8,1.9,3.5,3.4,5.5,5.1,0-.6.1-1,.1-1.4-.1-2.3-.2-4.7-.2-7l1.9,1.4c.1-.2.2-.3.2-.4a33.1,33.1,0,0,0-3.3-15,40.5,40.5,0,0,0-6.2-8.4c-2-2.2-4.1-4.3-6.2-6.4l-.6-.7a19.2,19.2,0,0,1,6.9.8,7.4,7.4,0,0,0-.2-1,18.3,18.3,0,0,0-3.6-6,31.3,31.3,0,0,0-10.6-7.5A37.7,37.7,0,0,0,4.4-87.4L.3-87.7l-.8.2c8.4,2.7,16.2,6.3,22.4,12.9h-.8l-4.6.2H15.4a15.1,15.1,0,0,0-5.9-.6L7-75.2c1.8,1.4,3.5,2.7,5.1,4.1s3.2,2.9,4.7,4.5,3,3.3,4.5,4.9,3.7,4.4,3.9,5.1c-3.1-1.8-6.1-3.5-9.7-3.9v.3l.3,1A49.3,49.3,0,0,1,18-49.6c.3,1.9.5,3.8.7,5.6s.5,3.4.7,5,.3,4.2.5,6.3.3,2.6.4,3.9.2.9-.2,1.4l-.6-.4-2.7-2-2.5-1.4c0-1.3,0-2.5.1-3.8a26.6,26.6,0,0,0-1.9-10.2l-.3-1,.8-2.1c1,.9,1.5,2.2,2.7,3.1a2.8,2.8,0,0,0,.2-.6,58.5,58.5,0,0,0-.2-7.1,26.9,26.9,0,0,0-2.2-7.6,24.6,24.6,0,0,0-5.7-7.7,16.8,16.8,0,0,0-4.5-2.9c-3.5-1.6-7.2-1.9-11-2.2a49.5,49.5,0,0,0-5,0l-2.4.3,5.4,3.3c2.6,1.7,4.1,3.1,4.4,4.1l-4.2-.8v.2l1.3,1.6L-6-61.4l-3.3-.6a18.4,18.4,0,0,0-7.8,1.2l-.3.3,1.3.8A21.4,21.4,0,0,1-7.5-45.8l-1.6-.7a13.6,13.6,0,0,0-3.9-1.7,4.4,4.4,0,0,0-2.2,0l.9,1.9.8,1.7c.2.6.8,1.1.7,2l-1.3-1.3c-2.2-2.1-4.4-4.4-6.7-6.4a90.9,90.9,0,0,0-9.6-7.2l-.8-.7v-.2c4.2.7,7.9,2.8,12.2,3.9a4.4,4.4,0,0,0-.2-1,19.2,19.2,0,0,0-3-4.7A33,33,0,0,0-30-66.6a6.5,6.5,0,0,1-2.3-2.2l-1.8-2.9-.8-.8-.3-.9v6.2l-.5-.5a43.9,43.9,0,0,0-4.2-4.6,12.4,12.4,0,0,0-5.4-3.3,21.9,21.9,0,0,0-5.2-1.2,3,3,0,0,0-1.9.2,20.6,20.6,0,0,0-6.6,5.8,40.7,40.7,0,0,0-5.3,10.1l-.3.6-1.5-.3-1.1-2.8-.3-.7a12.1,12.1,0,0,0,3.7,12.1,3,3,0,0,1,1,1.8A32.2,32.2,0,0,0-60-40.3l1.8,3.5a4.1,4.1,0,0,0,.1,1l1.3,2.9.9,1.5c.2.8.4,1.7.6,2.5a19,19,0,0,0,3.3,6.7l.6.9C-56.1-15.9-59.8-10-61-2.8a4.5,4.5,0,0,0-.6.9,35.3,35.3,0,0,0-2.4,12.7q0,4.1,0,8.2c0,1.7,0,3.3.1,5-3.1,1.4-6.2,2.7-9.2,4.2L-91.1,37l-6.5,3.4a2,2,0,0,1-2,.1l-9.1-4.4-8.5-4.5a2.7,2.7,0,0,0-2.3-.2,18,18,0,0,0-9,6.8l-1.2,1.4ZM-37.3-77.3h0a8.8,8.8,0,0,0-.5-1.3c-3.1-5.6-8.1-8.6-14-10.4a1.4,1.4,0,0,0-1.3.3,42.4,42.4,0,0,0-9.3,8.1A17.1,17.1,0,0,0-66-74c-.1.4-.1.8-.2,1.3h.3l1.7-2.1a31.6,31.6,0,0,1,11.7-9.2,3,3,0,0,1,2.3-.2l3.3,1.3A67.1,67.1,0,0,1-37.3-77.3ZM-23.9,96.5a10.8,10.8,0,0,1,1.8.1,2,2,0,0,0,2.2-.8l.6-.5,4.2,3.9,1.1,1,2.8-16.1c1.7,1.6,2.9,3.4,4.7,4.9.1-.4.1-.6.1-.8.2-3.2.3-6.3.5-9.5a32.2,32.2,0,0,1,1.6-8A112.2,112.2,0,0,1,1.5,57a3.6,3.6,0,0,1,1.6-1.6,28.3,28.3,0,0,0,6.8-4.8,5,5,0,0,0,1.5-2.9c.4-2.9.7-5.7,1.1-8.6a24.4,24.4,0,0,1,5.1-12.3q2.7-3.3,5.6-6.5c1.3-1.4,2.7-2.7,4-4l1-.9.2-.2h0l-.2.2a1.4,1.4,0,0,1-.7,1.2l-3.7,5.7A30.3,30.3,0,0,0,19.3,33l-.3,1.5a1,1,0,0,0,.6-.3L32.9,19.7,43.2,8.5l6.4-7.2a15.3,15.3,0,0,0,3.4-6.1,12.7,12.7,0,0,0,.2-1.4c-1.8,1.4-3.4,2.6-5.9,2.8A122.9,122.9,0,0,0,57.3-19.1a82.5,82.5,0,0,0,6.4-17.3,6.7,6.7,0,0,1,.3,1.8c0,2.7,0,5.4-.2,8.1a37.1,37.1,0,0,1-4.2,14.1,2.5,2.5,0,0,0-.3,1.1c0,1.5,0,2.9.1,4.4.3,4.5.5,8.9-1,13.2a3.8,3.8,0,0,0,0,.8,12.6,12.6,0,0,0,3.2-3.5c.7-1.4,1.2-2.8,1.9-4.4a20.3,20.3,0,0,1,1.4,6.2c.1,2-.1,4.1-.2,6.2l.6-.2a8.8,8.8,0,0,0,3.1-2.7L70,6l.6-.7c0,2.1,0,3.8,0,5.6a18.2,18.2,0,0,1-1.1,5.3l2.9-1.3a13,13,0,0,0,5.2-5.1,19.2,19.2,0,0,1,.3,3.7c0,1.2-.2,2.5-.4,3.9l1.2-.2c1.4-.5,2.8-1,4.1-1.6A30.5,30.5,0,0,0,96,3.1a65.6,65.6,0,0,0,7-17.8c.8-3.1,1.3-6.3,1.9-9.7.1,1.6.4,3.2.4,4.7a49.5,49.5,0,0,1-1,12.1,94.9,94.9,0,0,1-5.9,18.7,1.7,1.7,0,0,0,.4,2.1,21.8,21.8,0,0,0,6.4,4.9,34.7,34.7,0,0,0,17.6,3.5,34.4,34.4,0,0,0,14.3-3.9c1.7-.9,3.2-1.9,4.8-2.9h0a14.7,14.7,0,0,1-.6,1.9,24.6,24.6,0,0,1-7.6,9l-.8.6,1.3,2.9a70.2,70.2,0,0,1,3.6,10.1,37.6,37.6,0,0,1,.7,11.5,3,3,0,0,1-.4,1.1l-1.4,2.6-1,2.3a4,4,0,0,0,1.1-.6c1-1,1.9-2,2.8-3a8.4,8.4,0,0,0,2-5.3,74.8,74.8,0,0,0-.7-12.3c-.4-2.5-.6-5.1-1-7.6a4.7,4.7,0,0,1,.5-3,17.5,17.5,0,0,0,1.5-3.6c.6-2.3.9-4.6,1.3-6.9a6.8,6.8,0,0,0,0-1.3l-3.8.7-6.7.8a50.9,50.9,0,0,1-7.5.5,22.8,22.8,0,0,1-5.8-.9,28.8,28.8,0,0,1-9.3-4.7c-.9-.6-1.6-1.4-2.3-2s.3-3.4.4-5,.4-4.9.4-7.3a118.9,118.9,0,0,0-.2-12.9c-.1-.9-.1-1.8-.3-2.7s-.7-3.6-1.1-5.3-1.3-4.6-2-6.8a3.5,3.5,0,0,0-.5-.7c-.1.6-.2.9-.3,1.3-.3,2.4-.6,4.9-1,7.3A73.1,73.1,0,0,1,100-13.1,42.1,42.1,0,0,1,93-1a44.9,44.9,0,0,1-8.7,7.9l-1.1.5c.1-3.6,0-7-1.5-10.5l-3,6c-.3-1.4-.4-2.5-.7-3.7a21.4,21.4,0,0,0-1.3-3.5,11.9,11.9,0,0,0-1.6-3.2c-.5,1-.9,1.9-1.4,2.7A12.2,12.2,0,0,1,72.4-2c-.1-1.9-.2-3.7-.4-5.4a13.6,13.6,0,0,0-1.6-5.1l-4,4a2.2,2.2,0,0,1,0-.5,45.1,45.1,0,0,0,1.6-9c.3-2.4.2-4.9.3-7.4a38.5,38.5,0,0,0-1.3-10.7c-.5-2.3-1.4-4.6-2.1-6.8a3.9,3.9,0,0,0-.5-.8c-.4,1.5-.6,2.9-1.1,4.2q-1.5,4.8-3.1,9.6a61.3,61.3,0,0,1-6.2,13.2A62.7,62.7,0,0,1,45.6-6.1l-.5.6L40.6.9,36.1,7.4a4,4,0,0,1-.9.9l-3.4,2.3a73.4,73.4,0,0,0-9,6.8l-3.7,3.2-4.8,4.3a3.2,3.2,0,0,0-.9,1.5c-1.2,3.7-2.3,7.4-3.8,11a7.2,7.2,0,0,1-3.5,3.7A23.5,23.5,0,0,1,.8,42.9,1.4,1.4,0,0,0-.4,44c-.8,2.6-1.7,5.1-2.6,7.6S-4.8,58-6.8,60.8a95.8,95.8,0,0,0-7.3,13.3c-1.3,2.7-2.5,5.4-3.8,8-2.2,4.2-4.5,8.4-6.7,12.6a10.2,10.2,0,0,0-.5,1.4Z" transform="translate(167.2 150.2)" style="fill:#b71f37;stroke:#b71f36;stroke-miterlimit:10"/><path d="M-64,24c0-1.7-.1-3.3-.1-5s0-5.5,0-8.2A35.3,35.3,0,0,1-61.7-1.9a4.5,4.5,0,0,1,.6-.9c0,.5-.1,1-.1,1.5a63.9,63.9,0,0,0-.5,10,3.4,3.4,0,0,0,.1.7A62.4,62.4,0,0,1-59.8-.6c.1-.4.3-.8.4-1.2l6.5-.7.5-1c1.3-2.5,2.5-5.1,3.8-7.5a19.4,19.4,0,0,1,2.3-3.2,15.5,15.5,0,0,1,4.9-3.6l.9-.7a9.5,9.5,0,0,1,3.2,2.1l-.8.8C-44.3-9.8-48.5-2.7-49.9,5.8A30.7,30.7,0,0,0-50,14a34.1,34.1,0,0,0,1.5,7.6,15.6,15.6,0,0,0,3.9,6.4,10.1,10.1,0,0,0,3.1,2,3.4,3.4,0,0,1,1.1.7l6,6,.7.9-3.5,3.2-6.2,5.4A109.3,109.3,0,0,1-56.9,56.2l-7.2,4.1c-4.9,3-9.6,6.3-14.3,9.8l-1.3.9a40.6,40.6,0,0,1-5.9-4.3,56.8,56.8,0,0,1-6.4-7l-3.2-4-.6-.5h0a13.9,13.9,0,0,0,.5,1.6,57.7,57.7,0,0,0,7,12.5l.5.9h-.9a112.6,112.6,0,0,1-14.5-4.6c-3.2-1.3-6.3-2.6-9.4-4.1a54.8,54.8,0,0,1-14-9.7c-.9-.9-1.6-1.9-2.4-2.8a1.4,1.4,0,0,1-.1-1.9c1.4-2,2.8-4,4.3-6a26,26,0,0,1,5-4.8,1.4,1.4,0,0,1,1.8-.1c2.5,1.4,5,2.8,7.6,4s7.7,3.2,11.6,4.8a2,2,0,0,0,1.8-.1l11.2-5.6c6.7-3.4,13.3-6.9,20.3-9.7a7.8,7.8,0,0,1,2.7-1c.9,0,1.7.7,2.6,1l9.2,3.2,3.6,1.1a1.5,1.5,0,0,0,1.5.4l-1.5-.7c-1.9-1.1-3.8-2.2-5.6-3.4l-8.7-6A2,2,0,0,0-64,24Zm3.8,27.9,1.1-.4,4.1-2.6a18.3,18.3,0,0,0,4.9-5.3c.6-.9.5-1.1-.2-1.9a19.7,19.7,0,0,0-8.4-5.2,2,2,0,0,0-1.7.2,68.7,68.7,0,0,0-8.7,5.8,40.2,40.2,0,0,0-6.3,6c-4,4.8-6,10.3-7,16.3a4.2,4.2,0,0,0,0,.7,12.1,12.1,0,0,0,1.3-1.8,12.3,12.3,0,0,1,1.7-2.4c2.3-2,4.6-4,7.1-5.8,5-3.7,10.5-6.7,15.9-9.8l1-.4-.6,1.1-2.2,2.8-2.1,2.6h.1Zm-58.5-.9.2-.2h.4l14.7,7.5a13.1,13.1,0,0,1,4.9,4.1,25.3,25.3,0,0,0,1.8,2.1l.7.5c-3.1-9.8-12.3-19.8-21.4-22.9l-3.7,3.8c-.7.8-1.3,1.6-1.9,2.4a.9.9,0,0,0,.1,1.4c2,1.9,4.1,3.8,6.9,4.6l1.4.5v-.2Z" transform="translate(167.2 150.2)" style="fill:#b71f37;stroke:#b71f37;stroke-miterlimit:10"/><path d="M-34.9-72.5l.8.8,1.8,2.9A6.5,6.5,0,0,0-30-66.6a33,33,0,0,1,7.9,6.3,19.2,19.2,0,0,1,3,4.7,4.4,4.4,0,0,1,.2,1c-4.3-1-8-3.1-12.2-3.9v.2l.8.7a90.9,90.9,0,0,1,9.6,7.2c2.4,2,4.5,4.3,6.7,6.4l1.3,1.3c.1-.9-.4-1.4-.7-2l-.8-1.7-.9-1.9a4.4,4.4,0,0,1,2.2,0,13.6,13.6,0,0,1,3.9,1.7l1.6.7.4,3.1a5,5,0,0,1-2.3-1l-2.2-1.2,3.4,5a2.8,2.8,0,0,1,.5,2,12.1,12.1,0,0,1-.8,3.6l-1.5-2a53.4,53.4,0,0,0-8.7-8.6l-1.1-.7-1.2-.9h0l1,1.4a61.1,61.1,0,0,1,6,9.2l2.8,5.8a1.7,1.7,0,0,1-.2,1.9,17.8,17.8,0,0,1-3.6,3.8c-2.3-5.6-6.2-9.9-10.2-14.1a22.4,22.4,0,0,1,5.5,2.2,5.6,5.6,0,0,0-2.2-2.6c-3-2.5-6.3-4.5-10.5-4.2-3.1,7.6-4,15.6-3.9,23.9l-2.8-1.6a15.9,15.9,0,0,0-7.6-1.7,3.3,3.3,0,0,1-2.6-1.1,47.8,47.8,0,0,1-5.6-6.8c-.2-.4-.4-.9-1-.9l-.9-1.5-1.3-2.9a4.1,4.1,0,0,1-.1-1c.7-.1.3-.6.3-.8-.3-2.4-.7-4.9-1-7.3a28,28,0,0,1,0-3.2l2.4.9a16.9,16.9,0,0,0,7.4.1A8.2,8.2,0,0,0-42-53.6a4.3,4.3,0,0,0,.2-2.4c-3.3,6.6-11.6,7.1-15.2,3.4l1.8-.3A10.3,10.3,0,0,0-49.4-56a13.4,13.4,0,0,0,2.8-4.7A1.7,1.7,0,0,1-45.2-62l1.7-.6-1.1-.4a16.2,16.2,0,0,0-6.9-.1,1.4,1.4,0,0,1-1.2-.1l2.9-3.1a1.4,1.4,0,0,1,1.3-.5l5.7,1c1.2.3,2.3.7,3.6,1.1a6,6,0,0,0-.2-.8,13.6,13.6,0,0,0-9.6-8.2,5.5,5.5,0,0,0-5.6,1.4A23.5,23.5,0,0,0-58.1-68a47.7,47.7,0,0,0-4.8,10.3l-.6,1.6a10.1,10.1,0,0,1-3-4.4l1.5.3.3-.6a40.7,40.7,0,0,1,5.3-10.1,20.6,20.6,0,0,1,6.6-5.8,3,3,0,0,1,1.9-.2,21.9,21.9,0,0,1,5.2,1.2,12.4,12.4,0,0,1,5.4,3.3,43.9,43.9,0,0,1,4.2,4.6l.5.5a4.9,4.9,0,0,1,0,1,2.4,2.4,0,0,0,1.6,2.9c2.3,1.2,4.6,2.4,7.3,2.7h1a4.2,4.2,0,0,0-1.1-.8l-5.3-3.4a3.5,3.5,0,0,1-1.6-2.5c-.2-1.3-.6-2.5-.9-3.8S-34.8-72.1-34.9-72.5Zm11.7,31h0l-.2-.3c0-.1,0-.3-.1-.3-1.8-1.9-3.5-3.8-5.4-5.6a16.5,16.5,0,0,0-6.5-3.3c-1.3-.4-2.7-.7-4.2-1-3.9,6.6-4.3,13.7-3.6,21a2.2,2.2,0,0,0,.3-.7c.5-1.9,1-3.8,1.5-5.8a34,34,0,0,1,4-9.4c.6-1,.6-1,1.7-.7a38.9,38.9,0,0,1,11.1,5.3l1,.5Z" transform="translate(167.2 150.2)" style="fill:#b71f37;stroke:#b71f37;stroke-miterlimit:10"/><path d="M-46,10.4c.1-1.5.1-3.1.3-4.6A30.6,30.6,0,0,1-41.5-6.5a19.5,19.5,0,0,1,3.7-4.4,3.3,3.3,0,0,1,2-.8,42.7,42.7,0,0,0,18.9-6.1A25.3,25.3,0,0,0-7.3-28.4,29.9,29.9,0,0,0-3.7-42.7,24.3,24.3,0,0,0-9.2-57.6l-.7-.8c2.4-.8,8.5,1.9,11.5,5.1A9.5,9.5,0,0,0,2-52.2,38.6,38.6,0,0,1,5.7-39.7a28.2,28.2,0,0,1-.2,7.6A31.4,31.4,0,0,1,.4-19.4,97.3,97.3,0,0,1-9.8-7.1,74.9,74.9,0,0,1-18.3.5a56.4,56.4,0,0,1-9.7,6.1,37.2,37.2,0,0,1-12,3.7l-3.9.2Z" transform="translate(167.2 150.2)" style="fill:#fff"/><path d="M-153.5-25.6c3.5-7,8.2-12.9,15.5-16.4l2.8-1v.2l-.5.6a28.3,28.3,0,0,0-8.9,24.1,16.7,16.7,0,0,0,3.1,8.7,12,12,0,0,0,10,5.1c1.6,0,3.2-.3,4.9-.4h.5a21.2,21.2,0,0,1,2,6.5,47.8,47.8,0,0,1,.1,10c-.1,1.4-.2,2.8-.4,4.3l-4.6.2-2.3-.2a28.8,28.8,0,0,1-9.2-1.9A18.6,18.6,0,0,1-147,9.5,25.2,25.2,0,0,1-152.6,0,33.3,33.3,0,0,1-154.5-9a56.9,56.9,0,0,1,.5-13.2C-153.7-23.3-153.6-24.5-153.5-25.6Z" transform="translate(167.2 150.2)" style="fill:#fff"/><path d="M-46,10.4h2.1l3.9-.2a37.2,37.2,0,0,0,12-3.7A56.4,56.4,0,0,0-18.3.5,74.9,74.9,0,0,0-9.8-7.1,97.3,97.3,0,0,0,.4-19.4,31.4,31.4,0,0,0,5.5-32.1a28.2,28.2,0,0,0,.2-7.6A38.6,38.6,0,0,0,2-52.2a9.5,9.5,0,0,1-.4-1.2,16.4,16.4,0,0,1,4.7,5A24.6,24.6,0,0,1,9.7-38.1c.9,7.4-.5,14.4-3,21.3a62.3,62.3,0,0,1-20.9,28A109.3,109.3,0,0,1-38.9,25.5l-1.1.4-1.4-1.5A21.8,21.8,0,0,1-46,10.6Z" transform="translate(167.2 150.2)" style="fill:#fff;stroke:#fff;stroke-miterlimit:10"/><path d="M-153.5-25.6c-.1,1.1-.2,2.3-.4,3.4A56.9,56.9,0,0,0-154.5-9,33.3,33.3,0,0,0-152.6,0,25.2,25.2,0,0,0-147,9.5a18.6,18.6,0,0,0,6.7,4.4,28.8,28.8,0,0,0,9.2,1.9l2.3.2,4.6-.2a3.1,3.1,0,0,1-.6,2.1c-1.8,3.2-3.6,6.4-5.2,9.6a3.1,3.1,0,0,1-3,2,16.7,16.7,0,0,1-9.3-2.2,24.4,24.4,0,0,1-7.9-7.4A43.6,43.6,0,0,1-158.3-.5a44,44,0,0,1,2.9-21.2C-154.8-23-154.1-24.3-153.5-25.6Z" transform="translate(167.2 150.2)" style="fill:#fff;stroke:#fff;stroke-miterlimit:10"/><path d="M-99.5-20a24.4,24.4,0,0,1,8.7-3.1l3-.6a3,3,0,0,1,2.6.5A102.5,102.5,0,0,0-72.7-16c1.7.8,3.3,1.5,4.9,2.4s3,1.9,4.5,2.9A10.5,10.5,0,0,1-62-9.4l-1,.2a50.2,50.2,0,0,1-12.8-1.3,76.1,76.1,0,0,1-10-3.1,2.7,2.7,0,0,0-2.1,0l-8.9,3.3a22.8,22.8,0,0,0-7.6,5.1,1.7,1.7,0,0,0-.5,1.4c0,1.3,0,2.5,0,3.8a28.8,28.8,0,0,1-1,6.3,4,4,0,0,1-.5.8l-2.2-3.8A20.1,20.1,0,0,0-113.2,8h-.3l-3.4,2.1-2,1.6c0-.4-.1-.7-.1-1a44.6,44.6,0,0,0-1.9-13.6,16.9,16.9,0,0,0-2.9-5.8l-1.8-2.1c.4-.6,1.3-.9,2-1.5a5.1,5.1,0,0,0,.4.8l2.5,3a19.7,19.7,0,0,1,4.2,9.7c.1.7.3,1.3.4,2.2l1.3-.9c1.5-1.4,3.2-2.6,3.4-4.8,0-.4,0-.8.1-1.2a2.7,2.7,0,0,1,.4-.7,18,18,0,0,1,1.2,1.8l2.9,5.9a1,1,0,0,0,.4.4A24.2,24.2,0,0,0-108-5.6a26.9,26.9,0,0,0-5-8.6c4.1-1.7,8-3.5,11.4-6.8.1,1.1.1,1.9.1,2.8s.2,1.6.3,2.6.5-.8.6-1.2Zm-.2,8.8,1.1-.4a53.1,53.1,0,0,1,11.2-4,2.8,2.8,0,0,1,2,.1l3.8,1.7a29,29,0,0,0,6.6,2.3l5.3.8,3.6.3c-6.8-2.5-13.8-4.5-19.7-9.1l-3.1,1.2a35.4,35.4,0,0,0-8.6,4.8,5,5,0,0,0-2.1,2.3h0Z" transform="translate(167.2 150.2)" style="fill:#b71f37;stroke:#b71f37;stroke-miterlimit:10"/><path d="M148.3,89l-.5-1.3L144.1,77a30.4,30.4,0,0,0-4.7-8.2l-.6-.8-3.6,2.8A40.2,40.2,0,0,0,126,81L124.8,83c-.5.7-.6.8-1.7.6l.6-1.9c1.3-4,2.7-8,3.9-12a11,11,0,0,1,2-3.2l3.1-4.1c.8-1,.8-1,1.9-.4l3.4,2a2.1,2.1,0,0,0,2.1.2,28.2,28.2,0,0,1,9.8-1.9c1.1,0,1.1,0,1.4,1L154.8,74a6.9,6.9,0,0,1-.1,3.4,14.7,14.7,0,0,1-2.2,5.1l-3.7,5.8Z" transform="translate(167.2 150.2)" style="fill:#b71f37;stroke:#b71f37;stroke-miterlimit:10"/><path d="M14.4-31.2l2.5,1.4,2.7,2,.6.4c.4-.4.3-.9.2-1.4s-.3-2.6-.4-3.9-.3-4.2-.5-6.3-.4-3.4-.7-5-.5-3.8-.7-5.6a49.3,49.3,0,0,0-2.3-9.6l-.3-1v-.3c3.6.4,6.6,2.1,9.7,3.9-.1-.8-2.1-3.2-3.9-5.1s-2.9-3.3-4.5-4.9-3.1-3.1-4.7-4.5S8.8-73.8,7-75.2l2.5.3c.1.2.2.5.4.6a99,99,0,0,1,9.7,7.3A45.7,45.7,0,0,1,30-54.5c.9,1.5,1.6,3.1,2.4,4.6a8.1,8.1,0,0,1,.4,1.2h0l-1.8-.9a22.5,22.5,0,0,0-6.9-3h-.6c-1.2.2-1.8-.6-2.4-1.5a5.4,5.4,0,0,0-3.2-2.4h-.2v.2l.8,2.2A98.7,98.7,0,0,1,22.4-40a74,74,0,0,1,1.4,18c-.1,1.6-.3,3.2-.4,4.9-1.2-1.6-2.1-3.1-3.2-4.5a11.9,11.9,0,0,0-4.3-3.2c-.8,4.6-1.4,9.1-3.1,13.3A50.7,50.7,0,0,1,5.9.2a5.5,5.5,0,0,1-.3-.8L5.2-3.3a3.6,3.6,0,0,1,.6-2.6,61,61,0,0,0,6.4-14.3,56,56,0,0,0,2.1-10.5A3,3,0,0,1,14.4-31.2Z" transform="translate(167.2 150.2)" style="fill:#b71f37;stroke:#b71f37;stroke-miterlimit:10"/><path d="M-112.5-38.9l.9-.9a27.9,27.9,0,0,1,2.4-3.2,22.4,22.4,0,0,1,5.3-4.2l3.1-1.6,1,1.2c2,2.1,3.4,1.8,5.6,1.2a5.7,5.7,0,0,0,1.3-.8l3.5,1.5a3.6,3.6,0,0,1-.2.6,100.1,100.1,0,0,1-12.1,18.3,36.5,36.5,0,0,1-4.2,4,2.8,2.8,0,0,1-2.5.9,60.5,60.5,0,0,1-.1-15.9l-2.1,1.3-1.8,1.4A7.7,7.7,0,0,1-112.5-38.9Z" transform="translate(167.2 150.2)" style="fill:#b71f37;stroke:#b71f37;stroke-miterlimit:10"/><path d="M36.7-40.9c.1,2.3.2,4.7.2,7,0,.4,0,.8-.1,1.4-2-1.7-3.7-3.2-5.5-5.1a5,5,0,0,0-.1.8c.2,1.7.5,3.4.6,5.2s.2,3.2.2,4.9a49.2,49.2,0,0,1-.9,8.4c-.2,1.1-.2,2.2-.3,3.3a.2.2,0,0,1,0,.2h-.1v.2c-.6,1.3-1.2,2.7-1.8,4A56,56,0,0,1,18.4,3.8c-.8.7-1.7,1.3-2.7,2.1a11.7,11.7,0,0,1,0-1.4,48.7,48.7,0,0,0,.7-8.2,11,11,0,0,1,.7-3.1,36.3,36.3,0,0,0,1.2-6.9v-.6l.8.6a30.6,30.6,0,0,1,4.7,6.3l.8,1.2c.6-1.4,1.1-2.5,1.5-3.7A49.2,49.2,0,0,0,29-21.1a28.5,28.5,0,0,0-.1-8.2c-.7-3.9-1.3-7.8-2-11.7-.3-1.8-.8-3.6-1.3-5.4v-.8A36.7,36.7,0,0,1,36.7-40.9Z" transform="translate(167.2 150.2)" style="fill:#b71f37;stroke:#b71f37;stroke-miterlimit:10"/><path d="M45.6-43.6a5.2,5.2,0,0,1,1.2,2.8,32,32,0,0,1,1.3,7c0,2.1.3,4.2.2,6.3a42.2,42.2,0,0,1-1.2,8.3A78.3,78.3,0,0,1,43.3-8.2,52.6,52.6,0,0,1,35,5.6L33,7.9l-1.3.9c.2-3,.6-5.8.2-8.7L30.4,2.6a36.7,36.7,0,0,1-6.8,8.5,44.3,44.3,0,0,1-6.8,5L8.2,21.2a21.4,21.4,0,0,1-2.4,1c1.2-1.6,2.4-3.1,3.5-4.7a6.8,6.8,0,0,1,3.2-2.6,22.4,22.4,0,0,0,6.2-4.2A58.7,58.7,0,0,0,27.3.8c2-2.8,3.9-5.7,5.8-8.5.4.7.7,3.1.6,6.1s-.3,4.2-.5,6.3a11.9,11.9,0,0,0,1.9-2A46.7,46.7,0,0,0,43.1-12,53.2,53.2,0,0,0,46-26.7q.2-5.2.2-10.5c0-2-.4-3.9-.6-5.9A4.6,4.6,0,0,1,45.6-43.6Z" transform="translate(167.2 150.2)" style="fill:#b71f37;stroke:#b71f37;stroke-miterlimit:10"/><path d="M129.6-66.3a7.1,7.1,0,0,0,5.6,5.6,2.8,2.8,0,0,0,2.9-1.1,2.7,2.7,0,0,0,.1-3,8.3,8.3,0,0,0-3.6-3.4,9.2,9.2,0,0,0-6.4-1.2,6.6,6.6,0,0,0-5,3.9l-.4.9-5.7-2.7a10.7,10.7,0,0,1,3.3-4.5,12.1,12.1,0,0,1,5.6-2.5,15.1,15.1,0,0,1,7.9.3c4.4,1.6,7.6,4.5,8.8,9.2a5.6,5.6,0,0,1-1.5,5.4,7.1,7.1,0,0,1-9,1.6,9.4,9.4,0,0,1-5.2-6.6,1.4,1.4,0,0,1,1.3-1.9Z" transform="translate(167.2 150.2)" style="fill:#b71f37;stroke:#b71f37;stroke-miterlimit:10"/><path d="M-92.7-87.1a5.1,5.1,0,0,1-2.9.2,20.5,20.5,0,0,1-6.7-2.4,1.7,1.7,0,0,1-.8-1.4c-.3-1.9-.7-3.8-.9-5.8s-.5-5.5-.5-8.2a26.7,26.7,0,0,1,1.1-8.1l.3-.9c3.6,8,9.1,13.4,18.1,14l.4,6.6-2-.3a22.1,22.1,0,0,1-7.9-3.1,13.7,13.7,0,0,1-4.5-5c-1-1.8-1.8-3.8-2.7-5.7l-.3-.8c-.7,2.8.1,9.6,1.6,12.1l.4-3.6c1.1,2.3,2,4.5,3.1,6.6A23.2,23.2,0,0,0-92.7-87.1Z" transform="translate(167.2 150.2)" style="fill:#b71f37;stroke:#b71f37;stroke-miterlimit:10"/><path d="M-6-61.4l-2.3-3.3-1.3-1.6v-.2l4.2.8c-.3-.9-1.8-2.4-4.4-4.1l-5.4-3.3,2.4-.3a49.5,49.5,0,0,1,5,0c3.8.3,7.5.6,11,2.2a16.8,16.8,0,0,1,4.5,2.9,24.6,24.6,0,0,1,5.7,7.7A26.9,26.9,0,0,1,15.7-53a58.5,58.5,0,0,1,.2,7.1,2.8,2.8,0,0,1-.2.6c-1.1-.9-1.7-2.2-2.7-3.1l-.8,2.1A21.7,21.7,0,0,0,10.5-49,10.5,10.5,0,0,1,8-53.9a12.5,12.5,0,0,0-1.2-2.7h0a12.8,12.8,0,0,1,4.4,1.7l2.4,1.4a7.6,7.6,0,0,0-.1-.8,30.5,30.5,0,0,0-4.2-9.1A15,15,0,0,0,2-69.1a32.2,32.2,0,0,0-11.5-2l.8.5A36.8,36.8,0,0,1-.1-65.8,33,33,0,0,1,3-62.5c.2.2.2.5.2.8h0l-4.1-.6H-2.7c0,1,.9,1.5,1.1,2.4h-.6Z" transform="translate(167.2 150.2)" style="fill:#b71f37;stroke:#b71f37;stroke-miterlimit:10"/><path d="M-34-15.8c.1-.9.1-1.8.2-2.7.5-4.5.9-9,1.5-13.5a25.8,25.8,0,0,1,1.3-4.6,10.1,10.1,0,0,1,.7-1.5c2.8,1,5.5,6,5.2,9.6l-3.6-1.4a28.8,28.8,0,0,1-.2,9.8A7.3,7.3,0,0,0-27-22.6c.5-.9.8-1.9,1.3-2.9,1.6.6,2,2.2,2.9,3.5a23.4,23.4,0,0,0,1-7l.6.8a15.9,15.9,0,0,1,2.2,5.6.8.8,0,0,1-.4,1c-3.5,2.3-7.1,4.5-11.2,5.5A7.4,7.4,0,0,1-34-15.8Z" transform="translate(167.2 150.2)" style="fill:#fff"/><path d="M-95.2-50.5a2.6,2.6,0,0,1-.6-.5,15.4,15.4,0,0,1-2.4-6.1c-.7-4-.4-8-.4-12a15,15,0,0,1,.2-1.8c0-.4.3-.6.7-.7a7.4,7.4,0,0,1,4.8.3,14.4,14.4,0,0,1,5.4,4.2,30.1,30.1,0,0,1,3.2,4.3l.5.4a11.1,11.1,0,0,1,5.5-2.7l-1.2,1.9A3.4,3.4,0,0,0-82-61.4c-.7,1.1-1.2,2.2-1.9,3.4l-.7-1.2a35.8,35.8,0,0,0-5.5-7.6,19.7,19.7,0,0,0-4.7-3.4l-.9-.3a5.3,5.3,0,0,0-1,2.8A22,22,0,0,0-95-56.2l.3.4c.4-1.5.3-3.1,1.5-4.3a10.5,10.5,0,0,1,2.8,2.5c-1.2,1.2-2.7,2.1-2.8,4h.7c1.1,1.9.4,2.2,4.3,4.5-.2.2-.4.4-.6.5a4.9,4.9,0,0,1-5.1-1l-.9-.8Z" transform="translate(167.2 150.2)" style="fill:#b71f37;stroke:#b71f37;stroke-miterlimit:10"/><path d="M132.9-85.6H132a10.3,10.3,0,0,1,.3-4.5c1.2-4.8,4.4-7.5,9.1-8.7a19.3,19.3,0,0,1,10.9.7l.2.2c-.4.3-.8.2-1.2.2a20.5,20.5,0,0,0-8.7,2.2,10.6,10.6,0,0,0-4.4,4,3,3,0,0,0-.6,2,17.9,17.9,0,0,1,5.5-3.6l-.5,1L140-88.1a8.7,8.7,0,0,1-4.4,3.5,7,7,0,0,0-3.8,3.6c-.4.8-.9,1.6-1.3,2.4a1.3,1.3,0,0,1-1.7.9h-.7a6.1,6.1,0,0,1,.2-.8,22.5,22.5,0,0,1,4.1-6.5l.3-.5h0Z" transform="translate(167.2 150.2)" style="fill:#b71f37;stroke:#b71f37;stroke-miterlimit:10"/><path d="M-40.4-18.5l-.9.7a15.5,15.5,0,0,0-4.9,3.6,19.4,19.4,0,0,0-2.3,3.2c-1.3,2.5-2.5,5-3.8,7.5l-.5,1-6.5.7a27.5,27.5,0,0,1,3.2-7.8,40.7,40.7,0,0,1,8.2-9.7,1.9,1.9,0,0,1,1.9-.5l3.3.6Z" transform="translate(167.2 150.2)" style="fill:#b71f37;stroke:#b71f37;stroke-miterlimit:10"/><path d="M-110.7-4.3a2.7,2.7,0,0,0-.4.7c-.1.4-.1.8-.1,1.2-.3,2.2-1.9,3.5-3.4,4.8l-1.3.9c-.2-.8-.3-1.5-.4-2.2a19.7,19.7,0,0,0-4.2-9.7l-2.5-3a5.1,5.1,0,0,1-.4-.8l3.5-2.5.5.3a49.3,49.3,0,0,1,7.8,8.4l.7,1.3.2.3Z" transform="translate(167.2 150.2)" style="fill:#b71f37;stroke:#b71f37;stroke-miterlimit:10"/><path d="M-81.8-55.3h3.7a12,12,0,0,1,7.4,2.7A19.5,19.5,0,0,1-68-49.5a3.5,3.5,0,0,1,.3.8c-2-.2-3.9-.6-5.7-.6-3.5,0-7-.5-10.3.9h-.4a2,2,0,0,1,1.9-1.9c2.4-.5,4.8-1.2,7.3-.9l2.5.3a7.4,7.4,0,0,0-4.5-2.6,11,11,0,0,0-5,.2A2.8,2.8,0,0,1-81.8-55.3Z" transform="translate(167.2 150.2)" style="fill:#b71f37;stroke:#b71f37;stroke-miterlimit:10"/><path d="M132.1-66.6a17.8,17.8,0,0,1,2.6,1.1A4.3,4.3,0,0,1,136-64a1.1,1.1,0,0,1-.1,1.1,1.2,1.2,0,0,1-1,.2,4.2,4.2,0,0,1-1.4-.8,5.4,5.4,0,0,1-1.6-2.7Z" transform="translate(167.2 150.2)" style="fill:#cfd0d0"/><path d="M-86.2-53.2a1.2,1.2,0,0,1-1,1.8c-1.9-.1-3.2-1.2-3.8-3.3l.9-.7c0,1.2.1,2.2,1.1,2.8S-87-52.5-86.2-53.2Z" transform="translate(167.2 150.2)" style="fill:#fff"/><path d="M-97.7-50.7v.3h-.1l-.4-.5Z" transform="translate(167.2 150.2)" style="fill:#b71f37;stroke:#b71f37;stroke-miterlimit:10"/><path d="M-129.7,39.4v.4h-.1l.2-.3Z" transform="translate(167.2 150.2)" style="fill:#b71f37;stroke:#b71f37;stroke-miterlimit:10"/><path d="M30.9-14.7v-.2h.1A.3.3,0,0,1,30.9-14.7Z" transform="translate(167.2 150.2)" style="fill:#b71f37;stroke:#b71f37;stroke-miterlimit:10"/><path d="M3.3-61.8h0Z" transform="translate(167.2 150.2)" style="fill:#b71f37;stroke:#b71f37;stroke-miterlimit:10"/><path d="M32.9-48.6h0Z" transform="translate(167.2 150.2)" style="fill:#b71f37;stroke:#b71f37;stroke-miterlimit:10"/><path d="M6.8-56.5h0Z" transform="translate(167.2 150.2)" style="fill:#b71f37;stroke:#b71f37;stroke-miterlimit:10"/><path d="M-1.5-60.1h0Z" transform="translate(167.2 150.2)" style="fill:#b71f37;stroke:#b71f37;stroke-miterlimit:10"/><path d="M-35.2-73.4h-.2v0Z" transform="translate(167.2 150.2)" style="fill:#b71f37;stroke:#b71f37;stroke-miterlimit:10"/><path d="M-97.7-50.4v.2h-.1Z" transform="translate(167.2 150.2)" style="fill:#b71f37;stroke:#b71f37;stroke-miterlimit:10"/><path d="M-59.2-55.7l1.9-2.8c.7,1,1.2,1.9,2.4,1.9a3.4,3.4,0,0,0,1.6-.3c1.2-.6,1.5-1.7,1-3.5a7.7,7.7,0,0,1,3.8-.3A9.1,9.1,0,0,1-59.2-55.7Z" transform="translate(167.2 150.2)" style="fill:#fff"/></svg>