<svg id="Layer_1" data-name="Layer 1" xmlns="http://www.w3.org/2000/svg" viewBox="0 0 619.3 585.1"><title>Spartan051_2c</title><path d="M154,287.9a172.6,172.6,0,0,1-41-5.2c-24.3-5.9-48.8-16.1-74.8-31.2-6.5-3.8-12.9-7.8-19-11.8l-9.5-6a6.3,6.3,0,0,1-3.2-5,27.8,27.8,0,0,0-.8-3.7v-.4a157.2,157.2,0,0,1-27.3,5.8A196.2,196.2,0,0,1-46.1,232c-5.3,0-10.7-.2-16-.7a160.6,160.6,0,0,1-44.8-9.9c-16.8-6.5-30-15.2-40.2-26.8a78.6,78.6,0,0,1-16.8-30.7c-5-17.5-12.5-31.8-23-43.7-7.9-9-15.9-15.3-24.4-19.3a131.8,131.8,0,0,0-13.3-5l-6-2.1-.6-.2a25.8,25.8,0,0,1-4.7-2.1l-6.3-3.7,7.7-1.9,1.3-.3,1-.2c7-1.6,14.3-3.3,21.8-3.6h2.1a52.1,52.1,0,0,1,23,5.5,93.8,93.8,0,0,1,23.5,16.6,93.3,93.3,0,0,0-8-12.4c-8.7-11.3-20.2-17.2-35.2-18l-8.6-.2c-14,0-28.5,1.7-45.9,5.3-8.9,1.8-18,4-26.7,6.1l-12.3,2.9-1.3.2a6,6,0,0,1-2.3-.5l-4.2-1.7,3.2-3.2,2.3-2.3c1.7-1.7,3.4-3.5,5.2-5.1,11.4-10.5,25.2-18.8,43.1-26.2a259.4,259.4,0,0,1,65.8-17.2,145.6,145.6,0,0,1,18.6-1.2A107.3,107.3,0,0,1-140,33.9c10.7,2.9,20.8,8.1,32.9,17s23.9,19.8,37.3,34.3l5.4,5.9a206,206,0,0,1-9-21.6c-5.1-14.6-7.4-27.8-7-40.4a74.4,74.4,0,0,1,1.3-12l1.4-7.3,4.1,6.2.3.4.9,1.4,5,9.6c3.4,6.6,7,13.5,10.7,20.1,12.2,21.4,28.2,42.3,48.9,63.7A209.8,209.8,0,0,0-3,81.7c.7-7.4,1.1-14.9,1.5-22.2l.4-6.2L-3.1,53l-2.8-1.2-1.5-.7c.2,1.7.4,3.5.6,5.2l.4,3.2a4.2,4.2,0,0,1-3.5,5L-24,68.2l-1.6.2c-.8,0-3.6-.3-4.1-4s-1.3-8.5-2-12.8c-1.1-6.6-2.1-13.4-3.1-20.1C-36.5,19.1-38,6.2-39.4-6.6c-2.2-21.5-2.9-38.9-2.1-54.8.4-7.8,2.1-15.4,3.8-22.8.7-3,2.7-3.3,3.5-3.3a4.1,4.1,0,0,1,2.8,1.3h.1l3.3,3,6.1,5.5c1.6-2.8,3.4-5.4,5.1-7.9l-4.6-5.3-5.7-6.6a4.9,4.9,0,0,1-1.5-4,4.8,4.8,0,0,1,2.6-3.3l1.3-.9.4-.3-.8-.8-.7.5a4.5,4.5,0,0,1-2.5.9,4.1,4.1,0,0,1-3.3-1.8v-.2l-3.8-4.3a105.4,105.4,0,0,0-8.4-9c-11.7-10.7-24.6-19.7-37.9-28.8-23.3-15.9-48.6-31.7-82-51.3l-8.6-5.3-6.5-4.1a4.6,4.6,0,0,1-2.3-2.9,4.7,4.7,0,0,1,.9-3.7c2.6-3.9,5.4-8,8.3-12.7l-7.6-4.3-5.8-3.2-1.2-.9-.2-.2-3-2.4,3.1-2.3.2-.2a6.2,6.2,0,0,1,1.4-1l4.5-2.1,21.2-9.9a10.7,10.7,0,0,1,4.5-.8h1.2a1.6,1.6,0,0,0,1.4-.7l4.4-4.7,3.6-3.8a4.9,4.9,0,0,1,3.6-1.8,4.5,4.5,0,0,1,3.1,1.3l.5.5c1.7,1.9,3,2.1,3.9,2.1a7.9,7.9,0,0,0,3.6-1.1,31.1,31.1,0,0,1,5.1-2l3.1-1.1a2.1,2.1,0,0,0,.8-.8,78.2,78.2,0,0,0,3.5-7.2c1-2.4,2.6-2.9,3.7-2.9a4.7,4.7,0,0,1,3.2,1.5l8.9,8.2a4.7,4.7,0,0,1,3.1-1.9l18.1-4.8,1.8-.3a5.8,5.8,0,0,1,4,1.7l1.3,1.1a4.1,4.1,0,0,1,.2-2.2c.7-1.8,2.3-2.5,4.5-3.4l3.2-1.3,7.4-3.1a5.5,5.5,0,0,1,2.2-.5,4.6,4.6,0,0,1,3.7,2h.1a5.8,5.8,0,0,1,2.7-1.2l5.3-1.1c2.9-.6,5.9-1.3,9-1.7a77.9,77.9,0,0,1,9.5-.6h11.7a5.7,5.7,0,0,1,5.2,3.1l5,8.4V-277q.1-3.3.3-6.5a8.2,8.2,0,0,1,.3-1.7v-.4l.8-4.1,3.6,2.1.4.2a7.5,7.5,0,0,1,1.6,1.1l.6.5,6,5.4a7.9,7.9,0,0,1,5.8-2.3l2.6.2c7.2,1.1,14.7,2,21.3,2.8,3.2.4,4.8,2.1,5,5.2s.2,4.6.4,6.9l.7-5.2c.4-3.4,2.4-4.1,3.9-4.1a5.6,5.6,0,0,1,2,.4l9.3,3.4c14,5.1,28.4,10.5,42.1,17.2,10.2,5,23.3,12.2,33.9,23.1,1.4,1.4,2.6,2.9,3.9,4.3l1.3,1.5h.1a4.8,4.8,0,0,1,1.4,2.6h.2l5.5,2.2,11.5,4.6a27.1,27.1,0,0,1,11.4,9c1.8,2.4,1.6,4.6-.7,6.7l-9.2,8.3-8.5,7.6.9.9h.2l1.4-1.4,3.2-2.9c2.7-2.5,5.5-5,8.5-7.4a39.8,39.8,0,0,1,5.7-3.6l2.5-1.4a4.8,4.8,0,0,1,2.5-.8,5,5,0,0,1,3.3,1.4l10.3,9.2c7.2,6.4,14.7,13,21.9,19.7a49,49,0,0,1,6.2,7.5l2.6,3.5a3.9,3.9,0,0,1,.9,3.3,3.9,3.9,0,0,1-2.2,2.7h-.1l-4.4,2.3-6.1,3.5h.4a46.8,46.8,0,0,1,4.7-.6l3.2-.4h1c.9,0,3.9.3,4.2,4.2h1.3c3.7,0,9,.7,12.2,6.8a43.9,43.9,0,0,0,3.8,5.5c1,1.3,2,2.6,2.9,4a29.7,29.7,0,0,1,4.8,12c7.9,1.3,8.9,2.5,10.6,10.7h0a37.3,37.3,0,0,0,1.4,5.7,9.1,9.1,0,0,0,1.7,3.1c3,2.4,3.7,5.5,4.2,7.8s1.3,5.3,1.9,7.9l.8,3.1a4.5,4.5,0,0,1-.6,4,3.7,3.7,0,0,1-1.7,1.2v2.5c.1,3.6.2,7.3.4,11a5.5,5.5,0,0,1-1.2,4.2,5,5,0,0,1-3.7,1.4h-4.4c.4.9.8,1.8,1.1,2.6l.6,1.5,2.7,6.2,2.6,6a4.3,4.3,0,0,1,0,4.2,4,4,0,0,1-3.6,1.7h-.3L240-33.9l5.5,9.9L235.8-26l-7-1.5-1.9-.5-1.9-.5-.8,1.5a20.8,20.8,0,0,1-1,1.9l-1,1.7c-.9,1.5-1.8,3-2.6,4.5a4.6,4.6,0,0,1-4.2,2.8,6.5,6.5,0,0,1-2.3-.5l-25.1-9.2a29,29,0,0,0-9.9-1.9h-2.4c-1.8.2-3.7.2-5.4.2h-5l1,1.4a5.2,5.2,0,0,1,1.1,4.2,5.3,5.3,0,0,1-3.1,3.3c-5.8,3-13.4,6.9-21,11A31.6,31.6,0,0,0,137.3-3c-1,.9-1.3,1.6-1.3,2s.5,1.1,1.7,1.8c3.8,2.4,8.3,3.3,12.5,4a89.8,89.8,0,0,0,14,1.1,117.5,117.5,0,0,0,23.9-2.6C204.4-.1,222-3.7,240-6.8a44.7,44.7,0,0,1,7.7-.7C258.9-7.5,269.2-3,278.1,6c7.4,7.4,12.9,16.9,17.5,29.8a156.3,156.3,0,0,1,8.3,40.7,248.5,248.5,0,0,1-17.4,112.9c-9.4,23.5-21.7,42.7-37.6,58.9-21.3,21.6-46.9,34.6-76.3,38.4A143.9,143.9,0,0,1,154,287.9ZM-6,14a19.3,19.3,0,0,0-2.3,8.6c-.1,3.5-.1,7.1-.1,10.8L-5,18.9A5.1,5.1,0,0,0-6,14Z" transform="translate(311.6 294.2)" style="fill:#fff"/><path d="M.4-284.9a9,9,0,0,1,1.5.9c2.5,2.2,5,4.4,7.4,6.7a2.2,2.2,0,0,0,1.3.8c.4,0,.7-.2,1.1-.8a4.8,4.8,0,0,1,4.4-2.3l2.2.2c7.1,1.1,14.3,1.9,21.5,2.8,1.6.2,2.2.6,2.3,2.4.5,9.8,1.1,19.6,1.7,29.5.1,2,.3,3.9.4,5.9h.5l2-14.5,2.5-18.9c.1-.8.2-1.5.9-1.5l.9.2c17.2,6.4,34.6,12.4,51.1,20.5,12.1,5.9,23.6,12.8,33.1,22.5,1.8,1.8,3.4,3.8,5,5.7.3.4.8.9.7,1.1-.8,2.1,1,2,2.1,2.5l17,6.8a24,24,0,0,1,10.1,8c.9,1.2.7,1.7-.3,2.6l-18.4,16.5c-1.4,1.2-1.6,2,0,3.2s2.4,2.9,3.7,3h.1c1.1,0,2.3-1.9,3.4-3,3.8-3.4,7.6-7,11.6-10.2,2.4-1.9,5.2-3.2,7.9-4.8l1-.3a2,2,0,0,1,1.3.6c10.8,9.6,21.7,19.1,32.2,28.9,3.3,3,5.6,7,8.4,10.6.6.7.4,1.1-.3,1.4l-4.6,2.4-29.6,16.7-1.9,1,.2.5,1.7-.7c8.5-3.3,16.9-6.8,25.9-8.6,2.6-.5,5.2-.5,7.8-.9h.5c1,0,1.2.6,1.2,1.7s0,2.6,1.2,2.6h3.1c4,0,7.3,1.1,9.6,5.2s4.6,6.4,6.8,9.7a26.2,26.2,0,0,1,4.4,11.7c.1,1.2.6,1.3,1.6,1.5,7.5,1.2,7.4,1.2,8.9,8.6a40,40,0,0,0,1.6,6.2,10.4,10.4,0,0,0,2.6,4.4c2.1,1.7,2.6,3.8,3.1,6.1s1.8,7.4,2.7,11.1c.2.9.3,1.7-.8,1.7H266c-1.1,0-.9,1-.9,1.8.2,4.9.3,9.8.6,14.7.1,1.7-.2,2.4-1.9,2.4h-3.7c-2.6,0-5.2.1-7.9.4,4.1,1.2,4.8,4.9,6.2,8s3.5,8.1,5.3,12.2c.6,1.3.5,1.7-.9,1.7h-.3L237.1-37h-.8c-1.4,0-1.3.2-.4,1.9l3.8,6.8-10.3-2.2c-1.5-.3-3.2-1-4.6-1l-1.1.2c-1.4.6-2.1,3-3.1,4.6s-2.6,4.2-3.8,6.3-.9,1.2-1.6,1.2l-1.2-.3-25.2-9.2a32.1,32.1,0,0,0-10.9-2h-2.7c-3.2.3-6.5.1-9.7.4h-1.2a6.6,6.6,0,0,1-4.7-1.7l-.7-.5-.4-.4v.6l.6.9c1.5,2.4,2.9,4.9,4.5,7.2s.6,2.3-.9,3.1c-7,3.6-14.1,7.3-21,11.1a34.9,34.9,0,0,0-6.6,4.5c-3.4,3-3,6.1.8,8.6s8.9,3.6,13.7,4.4a92.3,92.3,0,0,0,14.5,1.1,121.2,121.2,0,0,0,24.5-2.7c17.2-3.6,34.5-7,51.8-10a41.5,41.5,0,0,1,7.1-.6c10.8,0,20.2,4.5,28.3,12.6s13,18,16.8,28.7a154.2,154.2,0,0,1,8.2,39.9,244.5,244.5,0,0,1-17.2,111.5c-8.7,21.6-20.6,41.2-37,57.9-20.6,21-45.4,33.7-74.6,37.5a140.2,140.2,0,0,1-18.2,1.2,171,171,0,0,1-40.3-5.1c-26.3-6.4-50.7-17.4-74.1-30.9-9.7-5.6-19-11.8-28.4-17.7a3.4,3.4,0,0,1-1.8-2.8,56.4,56.4,0,0,0-1.3-6c-.2-.8-.5-1.2-1.1-1.2l-.9.2a152.1,152.1,0,0,1-28.3,6.2A192.3,192.3,0,0,1-46.1,229q-7.9,0-15.8-.7a158.5,158.5,0,0,1-43.9-9.7c-14.9-5.8-28.3-13.9-39-25.9a75.2,75.2,0,0,1-16.2-29.6c-4.8-16.6-12.2-31.8-23.6-44.8-7.2-8.2-15.4-15.4-25.4-20-6.3-2.9-13-4.8-19.6-7.2a26.4,26.4,0,0,1-4.8-2l1.8-.4c7.3-1.7,14.7-3.4,22.2-3.7h2A48.8,48.8,0,0,1-186.6,90c12.6,6.2,22.9,15.3,32,25.8l1.4,1.6.8.9.4.3V118l-.4-1.2a107.1,107.1,0,0,0-14.9-27.2c-9.5-12.3-22-18.3-37.4-19.1l-8.7-.2c-15.7,0-31.2,2.1-46.5,5.3-13.1,2.7-26.1,6-39.1,9h-.6l-1.2-.3c2.4-2.4,4.8-5,7.3-7.3,12.4-11.3,26.8-19.3,42.3-25.6a255.2,255.2,0,0,1,65.1-17,143.8,143.8,0,0,1,18.2-1.2,105.1,105.1,0,0,1,27.4,3.4c11.8,3.2,22.1,9.3,31.9,16.5,13.5,10,25.5,21.6,36.9,33.9,6.5,7,12.7,14.2,19,21.3l1.1,1a10.4,10.4,0,0,0-.7-2.1c-6.9-12.6-13.3-25.4-18-39s-7.2-25.8-6.9-39.3a71.6,71.6,0,0,1,1.3-11.5c.3.5.7,1,1,1.6C-70,29.2-65,39.2-59.4,49c14.1,24.7,31.9,46.5,51.7,66.8.5.6.9.8,1.1.8s.5-.6.7-1.4A212.9,212.9,0,0,0-.1,81.9c.9-10,1.4-20.1,2-30.1.1-1.4.1-1.8-.6-1.8l-1.5.3H-.9l-1.2-.2c-1.2-.4-2.3-1-3.5-1.5-3.1-1.4-3.1-1.4-2.3-4.8l5.8-24.3a8.2,8.2,0,0,0-3.4-9.2A2,2,0,0,0-6.6,10c-.4,0-.7.3-1.1.9a22.8,22.8,0,0,0-3.7,11.7c-.2,7-.1,13.9.3,20.9s1.1,11,1.8,16.5c.1,1.1-.1,1.5-1.2,1.8l-14.3,3.6h-.8c-.7,0-1-.4-1.2-1.5-1.6-11-3.6-21.9-5.1-32.9q-2.6-19-4.5-38c-1.9-18.1-3-36.2-2.1-54.4.4-7.6,2-14.9,3.7-22.2.2-.7.4-1,.6-1s.5.3.9.6c3.5,3.2,7.1,6.4,10.5,9.6.6.5,1,.8,1.3.8s.8-.4,1.3-1.3c1.9-3.4,4.1-6.6,6.3-9.8.6-.9.7-1.4-.1-2.3-3.7-4.1-7.2-8.4-10.9-12.6-1.1-1.3-.9-1.9.4-2.6s2.2-1.6,3.4-2.2,1.4-1.6.2-2.6a11.5,11.5,0,0,1-1.2-1.2c-1.3-1.3-1.9-2-2.6-2s-1.3.5-2.7,1.4a1.5,1.5,0,0,1-.8.3c-.5,0-.8-.5-1.2-1-4.1-4.5-7.9-9.4-12.3-13.5-11.8-10.8-25-20-38.2-29-26.7-18.2-54.3-35.1-82.2-51.4-5.1-3-10.1-6.3-15.1-9.4-1.2-.7-1.2-1.2-.5-2.3q4.5-6.6,8.7-13.3c1.5-2.3,1.8-1.8-.9-3.3l-13.9-7.8-1.1-.8a6.7,6.7,0,0,1,1.1-.8c8.5-4,17-8.1,25.6-12a7.9,7.9,0,0,1,3.2-.5h1.2a4.5,4.5,0,0,0,3.7-1.7c2.6-2.9,5.4-5.6,8-8.5a1.9,1.9,0,0,1,1.3-.8,1.7,1.7,0,0,1,1.2.6h.2a8,8,0,0,0,6.1,3.1,10.7,10.7,0,0,0,5-1.4c2.5-1.3,5.4-1.9,8-3a5,5,0,0,0,2.3-2.1,80.8,80.8,0,0,0,3.6-7.5c.3-.8.6-1.1,1-1.1s.7.3,1.1.7L-91-255.2l.9.7a24.9,24.9,0,0,0,2.2,2.2l2.5,1.5h0l-.6-.6-3.4-3.7L-98.3-266c-1-1.2-.9-1.6.6-1.9l18.1-4.8h1a2.8,2.8,0,0,1,2,.9c2.6,2.4,5.4,4.7,8.1,7l1.6,1.3.5-.3-3-6.8c-1.6-3.5-1.6-3.5,1.9-5l10.7-4.5,1-.3a1.7,1.7,0,0,1,1.4.8c1.4,1.9,3,3.6,4.5,5.4l.4-.2a17.6,17.6,0,0,0-.6-2.7c-.6-1.5-.2-2.2,1.4-2.5,4.7-.9,9.4-2.2,14.2-2.9a106.6,106.6,0,0,1,11.8-.6h9a2.7,2.7,0,0,1,2.7,1.6c2.9,5,5.9,9.9,8.8,14.9a3.1,3.1,0,0,0,1.2,1.3c.1-1.9.3-3.7.4-5.6.2-4.1.4-8.2.6-12.4a10.4,10.4,0,0,1,.3-1.6m-4.2-9.3-1.7,8.1v.3l-.2,1.1a8.6,8.6,0,0,0-7.8-4.4H-25.3a80.3,80.3,0,0,0-9.9.6c-3.2.4-6.3,1.1-9.2,1.8l-5.2,1.1-1.7.4a7.2,7.2,0,0,0-4.3-1.4,8.5,8.5,0,0,0-3.5.8l-7.4,3.1-3.2,1.3c-1.9.8-3.9,1.6-5.2,3.3a8.3,8.3,0,0,0-3.7-.8,9.6,9.6,0,0,0-2.6.4l-18,4.7a10,10,0,0,0-2.3.8l-6.9-6.4a7.7,7.7,0,0,0-5.2-2.3c-1.3,0-4.7.5-6.5,4.7-1,2.3-2,4.5-3.1,6.5l-2.4.8a33.9,33.9,0,0,0-5.6,2.2,5,5,0,0,1-2.2.7c-.2,0-.6,0-1.6-1.1l-.8-.8a7.4,7.4,0,0,0-5-2,7.7,7.7,0,0,0-5.8,2.8l-3.6,3.7-4.2,4.4h-.7a13.7,13.7,0,0,0-5.7,1.1l-21.3,10-4.4,2.1a9.1,9.1,0,0,0-2.1,1.4h-.1l-6.1,4.6,6,4.8h.1a10.1,10.1,0,0,0,1.7,1.3l5.8,3.3,4.8,2.7-6.6,9.9a7.6,7.6,0,0,0-1.4,6,7.5,7.5,0,0,0,3.7,4.8l6.5,4,8.7,5.4c33.4,19.6,58.6,35.4,81.8,51.2,13.2,9,26,18,37.5,28.5a103.2,103.2,0,0,1,8.1,8.7l3.8,4.3h0a8,8,0,0,0,2.6,2.2,7,7,0,0,0-.3,1.1,7.6,7.6,0,0,0,2.2,6.4l5.7,6.5,3.1,3.6-2,3L-26-85.4l-3.2-2.9h-.1a7,7,0,0,0-4.9-2.1h0c-.9,0-5.2.3-6.4,5.6-1.7,7.5-3.5,15.2-3.8,23.3-.8,16.1-.1,33.7,2.1,55.3,1.3,12.9,2.9,25.7,4.6,38.2.9,6.8,2,13.6,3.1,20.2.7,4.2,1.4,8.5,2,12.8s4.3,6.6,7.1,6.6a9.2,9.2,0,0,0,2.3-.3l14.2-3.6A7.7,7.7,0,0,0-4.8,65c-.3,5.5-.7,11-1.2,16.4a204.4,204.4,0,0,1-3.6,23.7C-28.2,85.2-42.9,65.9-54.2,46c-3.7-6.5-7.3-13.3-10.7-20l-5-9.7A15.8,15.8,0,0,0-71,14.7l-.2-.4L-79.4,2l-2.7,14.6A77.4,77.4,0,0,0-83.5,29c-.3,13,2,26.5,7.2,41.5q1,2.9,2.1,5.7a250.8,250.8,0,0,0-31.1-27.7c-12.4-9.1-22.8-14.5-33.9-17.5a110.2,110.2,0,0,0-28.9-3.6,148.5,148.5,0,0,0-19,1.3A262.4,262.4,0,0,0-253.7,46c-18.3,7.5-32.3,16-44,26.7-1.9,1.7-3.6,3.5-5.3,5.2l-2.2,2.3-6.4,6.4,8.3,3.4a8.9,8.9,0,0,0,3.5.7l2-.2,12.4-2.9c8.7-2.1,17.7-4.2,26.6-6.1,17.2-3.5,31.6-5.2,45.3-5.2l8.4.2c12,.6,21.6,4.7,29.2,12.5a88.5,88.5,0,0,0-8-4.4,55.1,55.1,0,0,0-24.3-5.8h-2.2c-7.8.3-15.2,2-22.3,3.6l-1,.2-1.4.3h-.5L-250,86.7l12.7,7.5a28.4,28.4,0,0,0,5.2,2.3l.6.2,6.1,2.1a127.6,127.6,0,0,1,13,4.9c8.1,3.8,15.8,9.8,23.4,18.6,10.2,11.6,17.5,25.5,22.4,42.5a81.6,81.6,0,0,0,17.4,31.9c10.5,11.9,24.1,20.9,41.3,27.6a163.5,163.5,0,0,0,45.6,10.1c5.4.5,10.9.7,16.3.7a199.2,199.2,0,0,0,24.6-1.6,162.7,162.7,0,0,0,24.8-5v.6A9.4,9.4,0,0,0,8,236.3l9.4,6c6.2,4,12.6,8.1,19.2,11.8,26.3,15.2,51,25.5,75.6,31.5a175.6,175.6,0,0,0,41.8,5.3,147,147,0,0,0,19-1.2c30.1-3.9,56.3-17.1,78.1-39.3,16.2-16.5,28.7-36.1,38.3-59.9A251.5,251.5,0,0,0,306.9,76.3a159.2,159.2,0,0,0-8.5-41.5c-4.8-13.3-10.5-23.1-18.2-30.9-9.5-9.6-20.5-14.4-32.6-14.4a47.7,47.7,0,0,0-8.2.7c-18,3.1-35.6,6.7-52,10.1a114.6,114.6,0,0,1-23.3,2.6,86.8,86.8,0,0,1-13.5-1c-3.7-.6-7.6-1.3-10.8-3.1a30.6,30.6,0,0,1,4.8-3.2c7.5-4.1,15.1-8,20.9-11a8.2,8.2,0,0,0,4.7-5.3,7,7,0,0,0-.1-3.5h.1c1.8,0,3.7,0,5.7-.2h2.1a26.1,26.1,0,0,1,8.8,1.7L212-13.7a9.5,9.5,0,0,0,3.3.7,7.6,7.6,0,0,0,6.8-4.4c.8-1.4,1.6-2.8,2.6-4.3l1.1-1.7.8-1.4,1.6.4,7,1.5,3.3.7,12.9,2.7-6.2-11.1,17.2.5h.4a6.8,6.8,0,0,0,6.1-3.1c1.3-2,1.4-4.4.2-7.1l-2.6-5.9-2.6-6a7.7,7.7,0,0,0,5.7-2.3,8.4,8.4,0,0,0,2-6.4c-.2-3.6-.3-7.3-.4-10.9v-.8l1-1a7.5,7.5,0,0,0,1.1-6.6l-.8-3.1c-.6-2.6-1.3-5.2-1.9-7.8s-1.4-6.4-5.1-9.4a9.2,9.2,0,0,1-.9-2,35,35,0,0,1-1.3-5.2h0c-.9-4.4-1.5-7.3-3.9-9.7s-4.1-2.5-7-3.1a33.7,33.7,0,0,0-4.8-11c-1-1.5-2-2.8-3-4.1a41.8,41.8,0,0,1-3.5-5.1,15.3,15.3,0,0,0-13.8-8.3,6.6,6.6,0,0,0-3.4-3.5,6.7,6.7,0,0,0,3.3-4.4,6.9,6.9,0,0,0-1.5-5.8l-2.5-3.3a51.3,51.3,0,0,0-6.6-7.9c-7.2-6.7-14.7-13.4-22-19.8l-10.3-9.2a7.8,7.8,0,0,0-5.3-2.2h0a7.4,7.4,0,0,0-2.2.3,8.1,8.1,0,0,0-1.8-4.9,30.1,30.1,0,0,0-12.6-9.9l-11.6-4.6-4.4-1.7a9.3,9.3,0,0,0-1.6-2.4h-.1l-1.3-1.5c-1.3-1.5-2.6-3-4-4.5-10.9-11.2-24.3-18.5-34.7-23.7-13.8-6.8-28.3-12.2-42.3-17.3l-9.3-3.4a8.5,8.5,0,0,0-3-.6,7.2,7.2,0,0,0-3.2.8,8.2,8.2,0,0,0-6.3-3.6c-6.9-.8-14.1-1.6-21.2-2.7l-3.1-.3a11.2,11.2,0,0,0-5.6,1.4L6.5-288l-.6-.5A10.4,10.4,0,0,0,3.6-290H3.4l-7.2-4.1Z" transform="translate(311.6 294.2)" style="fill:#fff"/><path d="M300.3,76.7a154.3,154.3,0,0,0-8.2-39.9c-3.8-10.6-8.8-20.6-16.8-28.7-9.8-9.9-21.6-14.4-35.4-12-17.3,3-34.6,6.5-51.8,10-12.9,2.7-25.9,3.7-39,1.6-4.8-.8-9.5-1.7-13.7-4.4s-4.1-5.6-.8-8.6a34.9,34.9,0,0,1,6.6-4.5c7-3.8,14-7.4,21-11,1.6-.8,2.1-1.4.9-3.1s-3-4.8-4.5-7.2L158-32v-.6l.4.4.7.5c1.7,1.6,3.7,1.8,5.9,1.6s6.5,0,9.7-.4a30.5,30.5,0,0,1,13.5,1.9l25.2,9.2c1.4.5,2.1.4,2.8-.9s2.5-4.2,3.8-6.3,1.6-4.1,3.1-4.6,3.8.4,5.7.8L239-28.3l-3.8-6.8c-1-1.9-1-1.9,1.2-1.9l25.4.7c1.5.1,1.7-.3,1.1-1.7-1.8-4-3.5-8.1-5.3-12.2s-2.1-6.8-6.2-8a84.3,84.3,0,0,1,11.3-.3c2,.1,2.3-.6,2.2-2.4-.3-4.9-.4-9.8-.6-14.7,0-.8-.3-1.9,1.2-1.7s1.5-.7,1.2-1.7c-.9-3.7-1.9-7.4-2.7-11.1s-1.1-4.4-3.1-6.1a10.4,10.4,0,0,1-2.6-4.4,40,40,0,0,1-1.6-6.2c-1.5-7.4-1.4-7.4-8.9-8.6-1-.2-1.5-.3-1.6-1.5a26.2,26.2,0,0,0-4.4-11.7c-2.2-3.3-4.9-6.3-6.8-9.7s-6.1-5.3-10.5-5.2h-.7c-2.7.1-2.6.4-2.6-2.5,0-1.3-.3-1.9-1.8-1.6s-5.2.4-7.8.9c-9,1.8-17.4,5.3-25.9,8.6l-1.7.7-.2-.5,1.9-1,29.6-16.7,4.6-2.4c.7-.4.9-.7.3-1.4-2.8-3.5-5.2-7.5-8.4-10.6-10.6-9.8-21.5-19.3-32.2-28.9a1.7,1.7,0,0,0-2.3-.3c-2.6,1.6-5.5,2.9-7.9,4.8-4,3.2-7.7,6.8-11.6,10.2-1.2,1.1-2.4,3-3.5,3s-2.4-2.1-3.7-3-1.4-2,0-3.2l18.4-16.5c1-.9,1.2-1.4.3-2.6a24,24,0,0,0-10.1-8l-17-6.8c-1.1-.4-2.9-.4-2.1-2.5.1-.3-.4-.8-.7-1.1-1.7-1.9-3.3-3.9-5-5.7-9.5-9.7-21-16.5-33.1-22.5-16.5-8.1-33.9-14.1-51.1-20.5-1.6-.6-1.7.2-1.8,1.3L46-253.5,44-239h-.5c-.1-2-.3-3.9-.4-5.9-.6-9.8-1.2-19.6-1.7-29.5-.1-1.8-.7-2.2-2.3-2.4-7.2-.8-14.3-1.6-21.5-2.8-2.8-.4-5-.4-6.6,2.1s-1.5.9-2.4,0-4.9-4.5-7.4-6.7a9,9,0,0,0-1.5-.9,10.4,10.4,0,0,0-.3,1.6c-.2,4.1-.4,8.2-.6,12.4-.1,1.9-.2,3.7-.4,5.6a3.1,3.1,0,0,1-1.2-1.3c-3-5-6-9.9-8.8-14.9a2.8,2.8,0,0,0-2.8-1.6h-8.8a106.6,106.6,0,0,0-11.8.6c-4.8.7-9.5,1.9-14.2,2.9-1.6.3-2.1.9-1.4,2.5a17.6,17.6,0,0,1,.6,2.7l-.4.2c-1.5-1.8-3.1-3.5-4.5-5.4a1.7,1.7,0,0,0-2.4-.6L-68-275.8c-3.5,1.5-3.5,1.5-1.9,5l3,6.8-.5.3-1.6-1.3c-2.7-2.3-5.5-4.6-8.1-7a2.8,2.8,0,0,0-3-.7l-18.1,4.8c-1.5.4-1.6.8-.6,1.9l8.8,10.9,3.4,3.7.7.6-2.5-1.6a24.9,24.9,0,0,1-2.2-2.2l-.9-.7L-113-274.9c-1-.9-1.5-1.1-2.1.4a80.8,80.8,0,0,1-3.6,7.5,5,5,0,0,1-2.3,2.1c-2.6,1.1-5.5,1.7-8,3-4.3,2.3-7.9,1.9-11.1-1.7h-.2c-.9-.9-1.6-.8-2.5.2-2.6,2.9-5.4,5.6-8,8.5a4.6,4.6,0,0,1-3.9,1.7,9.7,9.7,0,0,0-4.2.5c-8.6,3.9-17.1,8-25.6,12a6.7,6.7,0,0,0-1.1.8l1.1.8,13.9,7.8c2.7,1.6,2.4,1.1.9,3.3q-4.3,6.7-8.7,13.3c-.7,1.1-.7,1.6.5,2.3,5.1,3.1,10,6.4,15.1,9.4,27.9,16.4,55.5,33.2,82.2,51.4,13.2,9,26.4,18.2,38.2,29,4.5,4.1,8.3,9,12.3,13.5.6.6.8,1.4,2,.6,2.8-2,2.9-1.9,5.3.6a11.5,11.5,0,0,0,1.2,1.2c1.2.9,1.4,1.7-.2,2.6s-2.2,1.6-3.4,2.2-1.5,1.4-.4,2.6c3.7,4.1,7.2,8.4,10.9,12.6.8.9.7,1.4.1,2.3-2.2,3.2-4.3,6.4-6.3,9.8-.9,1.5-1.3,1.7-2.6.5-3.4-3.3-7-6.4-10.5-9.6-.7-.6-1.1-1.1-1.5.3-1.7,7.3-3.3,14.7-3.7,22.2C-40-43.1-38.9-25-37-6.9q2,19,4.5,38C-31,42.1-29.1,53-27.4,64c.2,1.4.7,1.7,2,1.3l14.3-3.6c1.1-.3,1.4-.6,1.2-1.8-.7-5.5-1.5-11-1.8-16.5s-.5-13.9-.3-20.9A22.8,22.8,0,0,1-8.3,10.8c.6-1,1.1-1.2,2.2-.4a8.2,8.2,0,0,1,3.4,9.2L-8.5,43.9c-.8,3.4-.9,3.4,2.3,4.8,1.2.5,2.3,1.1,3.5,1.5a3.8,3.8,0,0,0,2,.1c2.1-.5,2.2-.5,2.1,1.6C.7,61.8.2,71.9-.7,81.9a212.9,212.9,0,0,1-5.8,33.2c-.3,1.3-.5,2.1-1.9.6C-28.2,95.5-46,73.6-60.1,49c-5.6-9.8-10.6-19.8-15.8-29.8-.3-.6-.7-1-1-1.6a71.6,71.6,0,0,0-1.3,11.5c-.3,13.6,2.5,26.6,6.9,39.3s11.2,26.4,18,39a10.4,10.4,0,0,1,.7,2.1l-1.1-1c-6.3-7.1-12.5-14.3-19-21.3-11.4-12.3-23.4-23.9-36.9-33.9-9.7-7.2-20-13.4-31.9-16.5-15-4-30.3-4.2-45.6-2.2a255.2,255.2,0,0,0-65.1,17c-15.4,6.3-29.9,14.3-42.3,25.6-2.5,2.3-4.9,4.9-7.3,7.3a2.7,2.7,0,0,0,1.8.2c13-3,26-6.3,39.1-9,18.2-3.8,36.6-6.1,55.2-5.1,15.4.8,27.9,6.8,37.4,19.1a107.1,107.1,0,0,1,14.9,27.2l.4,1.2v.6l-.4-.3-.8-.9-1.4-1.6c-9.1-10.5-19.4-19.6-32-25.8a48.6,48.6,0,0,0-23.7-5.2c-7.6.3-14.9,2.1-22.2,3.7l-1.8.4a26.4,26.4,0,0,0,4.8,2c6.5,2.4,13.3,4.3,19.6,7.2,10,4.6,18.2,11.8,25.4,20,11.4,13.1,18.9,28.3,23.6,44.8a75.2,75.2,0,0,0,16.2,29.6c10.7,12.1,24.1,20.2,39,25.9a158.5,158.5,0,0,0,43.9,9.7,189,189,0,0,0,39.7-.8,152.1,152.1,0,0,0,28.3-6.2c1.3-.4,1.7-.1,2,1a56.4,56.4,0,0,1,1.3,6,3.4,3.4,0,0,0,1.8,2.8c9.5,5.9,18.8,12.1,28.4,17.7,23.3,13.5,47.7,24.5,74.1,30.9,19.3,4.7,38.8,6.5,58.5,3.9,29.2-3.8,54-16.6,74.6-37.5,16.4-16.7,28.3-36.3,37-57.9A244.5,244.5,0,0,0,300.3,76.7Z" transform="translate(311.6 294.2)" style="fill:#110e0f"/><path d="M123.6-140.8c2.2-2.1,4.4-4.2,6.5-6.4s6.2-6.9,9.5-10.3c8.3-8.4,16.6-16.8,25-25,3.4-3.3,7.4-6.2,11.1-9.3a2.2,2.2,0,0,1,3.3.1l11.2,9.8c1.1.9.6,1.5-.2,2.3l-7.1,7.3-.2.3.3-.2,7.6-3.7,1.2-.7c2.8-1.5,2.8-1.5,5.1.5s3.5,3,5.4,4.3,1,1.5-.1,2.3l-2.8,2.1.2.5a39.9,39.9,0,0,0,4.4-1,2.3,2.3,0,0,1,3,1.1,51.7,51.7,0,0,0,3.6,4.7c1.1,1.3.9,1.8-.5,2.6L188-147a358.2,358.2,0,0,0-36.3,23.5c-4.5,3.4-8.5,7.3-12.7,11a5.7,5.7,0,0,0-1.5,2.6c3.6-1.7,7.2-3.5,10.9-5.1,16.2-7,32.4-14.1,48.7-20.9,5.3-2.2,11-3.4,16.5-5.1,1.3-.4,1.8-.1,2,1.3s.5,2.7,3.5,2.4a60.1,60.1,0,0,1,8.1-.1,2.9,2.9,0,0,1,1.8,1.2c2.4,3.3,4.6,6.6,7,9.9,1,1.4.5,1.6-.9,1.7a135.4,135.4,0,0,0-24,2.4,6.2,6.2,0,0,0-2.6,1.2h30.1c1.4,0,2,.7,1.8,2.1a5,5,0,0,0,0,.7c0,1.5.7,3.6-.1,4.5s-2.9,1-4.4,1.3a333,333,0,0,0-45.3,12.2c-6.2,2.2-12.2,5.2-18.3,7.9a10.8,10.8,0,0,0-1.9,1.4l-.6.2v.2l.5-.3c2.9-.9,5.9-1.8,8.8-2.8,16.8-5.9,33.8-11.3,51.3-14.7a114.2,114.2,0,0,1,12.9-1.5,20.7,20.7,0,0,1,5.6.5,3.6,3.6,0,0,1,1.9,1.7,10.2,10.2,0,0,1,.8,2.7c.7,2.7.5,2.9-2.3,3.1-8.7.7-17.3,1.7-25.6,4.6a2.3,2.3,0,0,0-1.2.9h2.2c9.8.4,19.6.9,29.1,3.8a8.1,8.1,0,0,1,5.7,8.3,1.1,1.1,0,0,1-.7.7,8.4,8.4,0,0,1-1.7.1c-8.2.2-16.5.1-24.7.6s-17.4.8-25.8,3.2l-1.8.6c-.2.1-.3.3-.6.7l17.1-1.2h1.4l29.5.5c5.6.1,6.5,1.2,6.5,6.7,0,1.7,0,3.3.1,5s0,3-2.9,3h-4.8c-9.3.5-18.7.8-28,1.5-5.3.4-10.5,1.4-15.7,2.3a32.2,32.2,0,0,0-4.1,1.2v.5l7.3,1.3v.4l-11.1,3.4v.4c3.2-.2,6.4-.5,9.7-.6,10.2-.1,20.5-.1,30.7,0a62.4,62.4,0,0,1,8.2,1,3.3,3.3,0,0,1,2.8,2.3c.9,2.2,1.8,4.4,2.8,6.5s.1,1.5-1.1,1.5l-9.7-.4-17.1-.5c-2.1,0-2.1,0-1.1,1.9l1.6,2.9a5.9,5.9,0,0,1,.3,1.1,5.1,5.1,0,0,1-1.3.1L211.8-40l-22.9-4a12,12,0,0,0-4.4.3l3.4,1.1c7.9,2.9,16,5.6,23.8,8.9,5.6,2.5,4.3,1.9,1.9,6.3-.6,1.2-1.2,1.2-2.4.8l-27-9.1a50.5,50.5,0,0,0-5-1.1l3.9-2.2v-.5l-11.2.8c-2.9.3-5.8.8-8.7,1.2-1.2.2-5.2-2.6-5.4-3.8s.5-1,1-1.4c5.9-4,11.7-8.1,18.6-10.4a26,26,0,0,0-12.7,3,82.1,82.1,0,0,0-8.1,4.9c-.9.6-1.4,1-2.2-.2Q148.8-53.3,143-61c-1.1-1.4-.8-2.1.7-2.8l15.4-7.9a8.1,8.1,0,0,0,2.6-2l-4.7-.4-1.1-.2a4,4,0,0,1,.5-1l7.3-7.8a5.6,5.6,0,0,0,1.4-2.2l-25.9,6.5-.3-.5,2.8-2.3,9.3-7a14.4,14.4,0,0,0,1.6-1.7l.6-.3v-.2l-.5.3-13.7,6.6-5.7,2.9c-1.3.7-2,.6-2.6-1A53.9,53.9,0,0,0,115.3-103a84.2,84.2,0,0,0-25.2-14.9c-3.9-1.5-3.4-.6-3.1-4.7a151.3,151.3,0,0,1,5.9-32.8c1-3.3,2.2-6.4,3.3-9.6a12.4,12.4,0,0,0,.3-1.9l.5-1.3c0-.2,0,0-.1.1h.2l.2-.4s-.1-.1-.3.2l-.6,1.2c-1.4,2.4-3,4.6-4.3,7.1C87.5-151,83-142,78.5-133a29.7,29.7,0,0,0-1.3,3.8c-1.8-2.9-2-4.4-2.6-12.7l-3.9,6.6-.5-.2c1.1-13.2,2.6-26.4,4.9-39.5l-.7-.2c-2.2,6.7-4.5,13.4-6.5,20.2s-3.4,13.8-2.8,21h-.5l-4.1-7a10.7,10.7,0,0,0-1.1-1.3,12.3,12.3,0,0,0-.5,1.8c-.5,4.5-1,8.9-1.5,13.4a2.7,2.7,0,0,1-.4.8,3,3,0,0,1-.7-.5c-1.2-1.6-2.5-3.3-3.6-5s-1.3-1.2-2.3-.2-2.1,2.1-3.4-.7l-7.4-16.2-.8-1.4c-.1.9-.3,1.4-.3,1.8-.2,3-.3,6-.5,9a4.9,4.9,0,0,1-.6,1.4,5.3,5.3,0,0,1-.9-1c-1.7-3.2-3.2-6.6-4.9-9.8s-4.8-8.4-7.2-12.5c-.3-.5-1-.8-1.6-1.2h0c3.3,9.3,4.6,18.9,6,28.5l-.6.2-7.3-10.2v-.2h-.1l.2.2c.9,3.1,1.7,6.2,2.6,9.3s1.2,3.9,1.9,5.9.2,1.6-1.1,2c-4.2,1.3-4.2,1.4-6.7-2.2a10.1,10.1,0,0,0-2.5-2.7c0,2-.1,4,0,6a1.7,1.7,0,0,1-1.7,2.1l-5.7.6c-1.4.2-2.1-.4-2.7-1.7-3.2-6.2-6.3-12.5-9.7-18.5-9.2-16.2-18.4-32.4-28.1-48.2-5.8-9.5-12.3-18.7-18.8-27.7-4.5-6.1-9.5-11.9-14.4-17.6-7.4-8.7-14.9-17.2-22.5-25.8-1.2-1.3-.6-1.6.7-1.9a18,18,0,0,0,4.1-1.1c2.6-1.3,4.5-.4,6.5,1.4,7.2,6.4,14.6,12.7,21.9,19a25.2,25.2,0,0,0,4.5,3.3l-3.8-8.8c-2.7-6.2-5.4-12.5-8.2-18.7-.6-1.4-.3-1.9,1-2.5,4.3-1.8,4.3-1.9,7.5,2l15.8,19a12.1,12.1,0,0,0,1.4,1.2v.2h.1l-.2-.2c-.9-3.7-1.7-7.4-2.7-11s-2.2-7.9-3.3-11.9c-.4-1.4-.3-2.2,1.4-2.4a51.3,51.3,0,0,0,5.5-1.2,2.5,2.5,0,0,1,3.2,1.3c.8,1.6,1.9,3.1,2.9,4.6l.6.7a4.2,4.2,0,0,0,.6-.9,45.1,45.1,0,0,0,1.4-4.5c.4-1.8,1.4-2.4,3.2-2.3a64.8,64.8,0,0,0,6.7,0,3,3,0,0,1,3.1,1.7c11.3,18.8,21.3,38.2,28.9,58.8l.5,1h.5l-13-59.1,6,5.3c2.1,1.8,2.1,1.8,4-.2,4-3.9,4-3.9,9.5-3.1l10.6,1.4c4,.5,3.6.7,3.8,4q.7,14.6,1.5,29.1c.3,5.1.6,10.3.9,15.4.6,9.2,1.2,18.5,1.8,27.7.2,3.7.3,7.4.6,11.1a58.6,58.6,0,0,0,.8,7.8l2-14.4,2.1-16,2.2-16.4,2.6-19.2,2.6-20c0-.2,0-.3,0-.5.3-3,.3-3,3.2-2l12,4.5a1.8,1.8,0,0,1,1.3,2.3q-2.3,16.9-4.6,33.8c-1,7.4-1.9,14.9-2.9,22.3a1.8,1.8,0,0,0,.4,1.4l5-15,11.1-34.1.4-1.4c1.1-3.6,1.1-3.7,4.4-2.2,13.6,6.3,27.1,12.8,39.4,21.4,3.3,2.3,6.2,5.1,9.3,7.7a2.4,2.4,0,0,1,.7,3.3l-10.1,23.1-7.2,16.3a1.2,1.2,0,0,0,.2,1.1l2.9-3.5,22.6-29.7c.8-1.1,1.4-1.4,2.7-.8l15.1,6.4,1.7.9c1.1.7,1.2,1.4.1,2.4-7.6,7.2-15.4,14.2-22.7,21.6s-14.7,16-20.3,25.4c-2,3.4-3.8,6.9-4.4,10.9l5.8-8c6.4-8.5,12.9-16.9,20.6-24.2,3.9-3.7,3.8-3.7,7.6-.1s3.4,3.2.1,7.1c-6.6,7.9-13.1,15.9-19.5,23.9a80.6,80.6,0,0,0-4.6,7.1l-.3.5h.2Z" transform="translate(311.6 294.2)" style="fill:#fff"/><path d="M-24.5,154.1c-11.7-14.1-23.3-28.4-35.2-42.4C-68,102-76.5,92.5-85.4,83.4-92.9,75.9-101,68.9-109,62.1a110.4,110.4,0,0,0-21.2-13.9c-10.7-5.5-22.3-7.4-34.2-8a130.3,130.3,0,0,0-25.3,1.5,223.6,223.6,0,0,0-36.5,8.5,337.3,337.3,0,0,0-57.2,24.5l-1.1.8c6.5-1.3,12.9-3,19.3-4.2,11.6-2,23.2-4,34.9-5.4a138.7,138.7,0,0,1,21.1-.5,100.2,100.2,0,0,1,17.1,2.1c13.1,2.8,22.5,11.1,30.3,21.5a99.4,99.4,0,0,1,12,21.3,129.3,129.3,0,0,1,8.1,25.5A7.9,7.9,0,0,0-139,141c3.1,2.4,6.2,5,9.7,6.8,14.1,7.1,29.4,10.8,44.7,14.2,10.6,2.3,21.2,4.3,31.7,6.9,4.4,1.1,7.8-.6,11.3-2.3l-1.7-.8,1.7.8h.8l.6-.2,12.8-5.8,1.5-.8C-21.6,157.6-21.6,157.6-24.5,154.1Z" transform="translate(311.6 294.2)" style="fill:#fff"/><path d="M204.3,102.5c-1.4,7-2.7,14.8-4.5,22.4-3.7,15.8-9.4,30.9-18.8,44.4a67.3,67.3,0,0,1-23.8,21.4c-13.9,7.3-28.7,8.5-43.9,6.4a130.7,130.7,0,0,1-41-13.2c-7.6-3.8-14.9-8.1-22.3-12.2-.8-.4-1.9-1.2-2.5-1a34.5,34.5,0,0,0-4.8,2.8,5.7,5.7,0,0,0-1.5.3L24.7,182a22.3,22.3,0,0,0-2.1,1.4L18,185c-1,.4-1,.8-.2,1.5l5,4c18.9,14.8,39.5,26.6,62.6,33.7a123.6,123.6,0,0,0,29.7,5.7,110.4,110.4,0,0,0,22.7-.7,93.2,93.2,0,0,0,23.9-6.8A87.2,87.2,0,0,0,185.3,207c3.3-3,6.2-6.4,9.2-9.6a4.8,4.8,0,0,0,.6-1.4h-1.6c-1.9.4-3.8,1-5.8,1.4l-14.1,2.6.7-.9a85,85,0,0,0,15-21.6c8.5-17.3,12.7-35.7,14.3-54.8.3-3.1.5-6.1.6-9.2S204.3,105.7,204.3,102.5Z" transform="translate(311.6 294.2)" style="fill:#fff"/><path d="M3.1,216.1c-2.7.2-5.3.6-8,.6-7.3,0-14.6,0-21.9-.4s-14-1.3-20.9-2.4c-17.6-2.8-34.3-8.4-49.6-17.6-11.5-6.9-21.6-15.4-29.3-26.3-4.8-6.8-9-14.2-13.3-21.4-9.3-15.6-19.9-30.2-33.9-41.9a70.1,70.1,0,0,0-26.3-14.4,34.8,34.8,0,0,0-13.2-1.1l1.9.9c14.2,6.3,25.5,16.1,34.9,28.3A121,121,0,0,1-156,161.9c4.7,16.7,14.4,29.8,28.5,39.8A111.5,111.5,0,0,0-94,217.5a162.3,162.3,0,0,0,39.5,6.4,171.1,171.1,0,0,0,37.8-2.4c6.7-1.2,13.2-2.9,19.8-4.4Z" transform="translate(311.6 294.2)" style="fill:#fff"/><path d="M173.3,114c-1.2-5.2-4.8-8-10.2-8.2s-9.2,1.2-13.6,2.8c-12.8,4.7-24.3,12-35.5,19.6a411.7,411.7,0,0,0-44,34.3,31.6,31.6,0,0,0-2.2,2.4h.1l1.5-.7c7.9-5.1,15.7-10.4,23.8-15.3s18.3-10.7,27.7-15.7,16.4-2.8,23.8,3.4a54.4,54.4,0,0,1,10.4,12.2c1.2,1.9,1.3,1.9,2.2-.1l4.2-8.8,11.3-23.3A4.5,4.5,0,0,0,173.3,114Z" transform="translate(311.6 294.2)" style="fill:#fff"/><path d="M226.9,73c-3.4-16.6-11.5-30-25.8-39.4-2.6-1.7-8.1-2.8-10.6-2.1a25.9,25.9,0,0,0,2,3.6,22.9,22.9,0,0,0,2.9,2.7c1.3,3.9.1,7.3-2.1,10.4l-1.2,2c-1.9.4-1.3,1.8-1.3,3,.2,4.2.6,8.4.7,12.5s-.3,6.2-.4,9.2c-.3,8.1-.5,16.1-.9,24.2a104,104,0,0,1-6.2,29.6A66.2,66.2,0,0,1,169.4,153a57.6,57.6,0,0,1-28.8,16.2,85.5,85.5,0,0,1-25.9,2.1,131.1,131.1,0,0,1-24.3-4.1,5.9,5.9,0,0,0-2.8-.2l-21.1,5.4,1,.7c12.8,6.5,25.9,11.9,40.2,13.9,9.7,1.4,19.3,1.4,28.8-.9,15.9-3.9,28.3-13.1,38.1-26s16.9-29.2,21.3-45.6c3.4-12.6,5-25.6,6.3-38.5.2-1.8.4-3.6.7-5.4a5.2,5.2,0,0,1,1.2,2.2c2.2,8.2,4.6,16.3,6.4,24.6a160.6,160.6,0,0,1,4.1,36.5,77.9,77.9,0,0,1-.4,8c-.5,4.5-1.1,8.9-1.8,13.4-.2,1.7-.7,3.3-1.1,5a8.3,8.3,0,0,0,1.9-3c1.6-4,3.2-7.9,4.7-11.9,5.5-14.8,9.4-30.1,10.5-45.9A95.7,95.7,0,0,0,226.9,73Z" transform="translate(311.6 294.2)" style="fill:#fff"/><path d="M293.5,69c-1.8-12.2-4.4-24.3-9.4-35.7-4-9.1-9.1-17.4-17-23.7a32.7,32.7,0,0,0-25.9-6.9c-8.3,1.2-16.5,3.1-24.7,4.7l-41.4,8.1-6.3,1.4.9.4c5.4.5,10.3,2.2,14.1,6.4a2.5,2.5,0,0,0,1.9.3c7.7-1,15.4-1.5,23.1-.1a42.4,42.4,0,0,1,21.9,10.7c7.5,7,11.8,15.8,14.3,25.6a99.1,99.1,0,0,1,2.5,32.5,160.1,160.1,0,0,1-3.8,24.8,192.2,192.2,0,0,1-17.5,46.1A178.4,178.4,0,0,1,200.9,200c-13,14.3-27.9,26.2-45.8,34.1a109.5,109.5,0,0,1-42.4,9.2c-4.1.1-8.2-.5-12.3-.8a108.4,108.4,0,0,1-26.8-6,153.1,153.1,0,0,1-25.9-11.9c-11.3-6.4-21.9-13.7-31-23q-4.9-5-9.7-10.1a2.8,2.8,0,0,0-3.5-.9c-1.9.8-3.9,1.3-5.9,1.9s-3.3,1-.8,3.5c8.5,8.5,14.7,18.2,17.4,30a5.4,5.4,0,0,0,2.1,2.9,386.8,386.8,0,0,0,38.3,22.9,275.3,275.3,0,0,0,51,20.8,170.3,170.3,0,0,0,37.9,6.9,141.8,141.8,0,0,0,30.3-1.2,120.9,120.9,0,0,0,33-10.2c17.3-8.2,31.7-20.2,43.8-35.1,13.5-16.7,23.3-35.4,30.5-55.6a242.2,242.2,0,0,0,13.6-68.6A202.4,202.4,0,0,0,293.5,69Z" transform="translate(311.6 294.2)" style="fill:#fff"/><path d="M-3.5,138.1l-12.8,4.4-2.7.9.8-2.3-2.2-3.1-4.4-6.2,4.4,6.2,2.2,3.1,6.4-11.1c.1-.2,0-.6,0-.9,2.7-2.5,2.8-4.8.3-7.4s-5-5.1-7.4-7.8c-7.9-9.1-15.9-18-23.5-27.4A249,249,0,0,1-68.6,46.5l-4.6-8.7c-.1.5-.2.7-.2.8l1.8,6.9a267.5,267.5,0,0,0,18.5,50,265.5,265.5,0,0,0,23.9,40.2c4.1,5.7,8.5,11.2,12.9,16.7a2.4,2.4,0,0,0,2.1.6,23,23,0,0,0,3.5-2.4l12.5-8.2Z" transform="translate(311.6 294.2)" style="fill:#fff"/><path d="M174.8,38.2c-5.3-.1-9.9-1.8-13.5-5.8s-2.4-9.7,3.2-11.5,14.9,1.4,18.1,5.6c1.6,2.2,2.6,4.6,1.3,7.3s-4.2,3.8-7.2,4.4A10.6,10.6,0,0,1,174.8,38.2Z" transform="translate(311.6 294.2)" style="fill:#fff"/><path d="M-4.5-118.2c-1.3-5.8-2.2-11.7-4.1-17.3-4.7-14.2-12.1-27.1-20.4-39.6A351.4,351.4,0,0,0-56.3-211c-8.4-9.7-16.8-19.4-26.4-27.9s-18.1-16.6-27.1-25c-2.7-2.5-2.6-2.5-4.2.7s-1.5,3.2.8,5.3c7.9,7.1,15.9,14,23.6,21.4,11,10.6,21.9,21.3,31.7,33.1l7.6,10.3a34,34,0,0,1-3.5-2.7L-98-238.8c-5.4-5.2-10.9-10.3-16.4-15.4a54.8,54.8,0,0,0-4.8-3.9,2.4,2.4,0,0,0-1.9-.4l-8.1,2.8c-2.2.8-2.1.9-.5,2.4s3.7,3.8,5.7,5.7h-.1c-5.2-2.7-10.3-5.3-15.4-8.1-3-1.7-3-1.8-5.6.3l-1.8,1.5c-1.3.9-1.3,1.7,0,2.7l10.4,8.6a6.6,6.6,0,0,1,.9,1.3,5,5,0,0,1-1.7-.1l-12.2-5.3a4.9,4.9,0,0,0-4.3-.1l-14.5,5.8-3.9,1.5,1.2.8,25.8,14.6c2.5,1.4,4.9,3.1,7.4,4.6l.7.4-.8-.4-6.4-2.5-5.5-2.4c0,.5.1.7.3.9l32.4,24.7c3.1,2.4,5.9,4.8,9,7.2h.2c.1.1,0,0,0,0h-.4a12.5,12.5,0,0,1-1.9-.9l-22.7-15.2-28.4-19.1c-1.2-.8-2-1-2.8.4s-2.1,3.3-3.2,5-1,2.1.8,3c7.1,3.5,14.2,7.1,21.2,10.7l2,1.1v.4l-15.6-2.6-.3.6.7.3,5.3,3.1c27,16.1,53.9,32.4,79.7,50.5,10.6,7.4,20.7,15.4,31,23.2l6.9,5.4h.1L-44-136.3l-5.6-7.5-.5-.6v-.2l.2.2.4.4c1.3,1.2,2.1,1.8,3.3,3.1l19.8,20.7c2.8,2.9,5.7,5.7,8.6,8.5h.1c-1-2.5-2-5-3.1-7.4l-4.6-10.2-.2-.2h.1v.2a19.1,19.1,0,0,1,2.2,1.6l10.6,10.2c-.8-2.2-1.5-4.4-2.4-6.6l-4.8-12.3-.4-.9.5.8a8.1,8.1,0,0,1,1.2,1.1l7.2,9.8,6.5,8.9A6,6,0,0,0-4.5-118.2Z" transform="translate(311.6 294.2)" style="fill:#fff"/><path d="M95.8,14.7A223.5,223.5,0,0,0,68.6-9.7,129.9,129.9,0,0,0,38.9-27a170.7,170.7,0,0,1-20-9.3C1.3-46.2-14.4-58.6-29.6-71.8a18,18,0,0,0-1.9-1.3,13,13,0,0,0-.6,2.3c-.5,5.6-1.2,11.2-1.4,16.8A338.1,338.1,0,0,0-30.9-5.2c2.3,19.8,5.2,39.4,7.8,59.1.6,4.6.7,4.6,5.3,3.3,1.2-.3,1.5-.8,1.4-2-.4-3.5-.9-7.1-1.1-10.6-.6-8-1.3-16-.2-24,.7-4.7,1.9-9.3,4.7-13.3s4-4.7,7.2-4.9A31.3,31.3,0,0,0,5.8-.7q13-6.4,25.8-13.2c1.8-.9,2.7-.9,4,.6a49.5,49.5,0,0,0,5.2,4.9c1.5,1.2,1.4,1.8-.2,2.9L9,16.8a3.5,3.5,0,0,0-1.7,3.3c.5,22.4.2,44.7-2.7,67C2.7,102.1.1,116.9-5.6,131a7.1,7.1,0,0,0-.3,1.3,4.5,4.5,0,0,0,1.3-.2c3.7-1.6,7.4-3.2,11-5,17.2-9,32.8-20.4,47.9-32.7A206.5,206.5,0,0,0,78.9,71.3c3.9-4.4,5-9.3,4.4-15-.8-7.4-2.9-14.4-5.2-21.4-1.4-4.4-3-8.7-4.3-13.1-.8-2.4-.2-3.4,2.2-4.1a25.3,25.3,0,0,1,5.8-.9c5.2-.1,10.4,0,15.8,0Z" transform="translate(311.6 294.2)" style="fill:#fff"/><path d="M185.4,58.3c-.2-4.1-.2-4.1-4.1-3.1l-2,.6-3.3.3c-13.1.8-24.5-2.2-31.9-14.2a20.6,20.6,0,0,1-1.1-3.4c-.3-2.1-1.4-2-3-1.4-10.5,3.8-20.6,8.6-29,15.9Q93.9,68,77.5,83.8c-18.7,18-37.3,36.3-57.6,52.6-16.1,12.9-33,24.5-51.9,33s-37.9,12.9-58.5,10.3l-4.3-.6a3.8,3.8,0,0,0,1.6,1.9c2.9,1.7,5.7,3.5,8.7,4.9,16.6,7.7,34.1,8.9,51.9,7s33.2-6.8,48.9-13.5c24.2-10.2,46.3-24,67.4-39.5,17.6-12.9,35.5-25.4,54.7-35.7,8.4-4.5,17-8.6,26.3-10.8,4.4-1,8.9-1.6,13.4-.1,2.3.8,2.3.8,3.1-1.5A88.2,88.2,0,0,0,185.4,58.3Z" transform="translate(311.6 294.2)" style="fill:#fff"/><path d="M157.2,16.3a113.6,113.6,0,0,1-11.4-.7c-15.7-2.5-30.4-8.3-44.7-15A2,2,0,0,1,99.8-2a28.8,28.8,0,0,0-.9-12.7C96-25.7,90.3-35.4,83.7-44.6c-1.1-1.5-1.2-2.4,0-4,8.4-11.2,8.1-23.5-.7-34.3-5.8-7.1-13.3-12-21.3-16.1-16.7-8.5-32.7-7.3-47.9,3.7C4.2-88.5-2.9-79.6-8.8-69.7c-.9,1.6-.8,2.5.4,3.8A140.8,140.8,0,0,0,15.9-45.6c11.4,7.6,23.6,13.9,35.9,20a159.2,159.2,0,0,1,29.5,19c12.3,9.9,23.4,21.2,34.1,32.8a14,14,0,0,0,13.8,4.6,107.8,107.8,0,0,0,13.1-4,8.5,8.5,0,0,0,3-2.2,16.3,16.3,0,0,1,8.3-4.9c2.3-.5,3.9-1.8,6.1-3.4Z" transform="translate(311.6 294.2)" style="fill:#fff"/><path d="M32.1-118.9c-17.8,1.9-33.8,8.6-48.7,18.2-1.3.8-1,1.4-.2,2.4l5,5.7c1.6,1.9,1.6,1.9,3.6.4a87.4,87.4,0,0,1,47.9-18.5c13.8-1,26.8,2,39.2,7.9C88-98,101.1-88.6,118.3-64.3a143.7,143.7,0,0,1,7.6,13.2c2.5,4.5,4.9,12.6,5.5,14.4,1.6,4.4,1.8,8.1,3.6,11.4.1.7,3.5,1.8,4,1.9a17.4,17.4,0,0,0,10.3-1.3c2.6-1.1,3.1-2.5,1.8-5-3.9-7.7-7.7-15.5-12-23C129.1-70.2,116.9-86,100.9-98.4s-36.6-21.1-58.6-21.2C38.9-119.4,35.5-119.3,32.1-118.9Z" transform="translate(311.6 294.2)" style="fill:#fff"/><path d="M154.1,23a10.6,10.6,0,0,0-8.9,12,19.5,19.5,0,0,0,10,14,33.8,33.8,0,0,0,23.7,3.7c4.4-.8,8.4-2.4,11.5-5.7a8.7,8.7,0,0,0,2.6-6.9,3.1,3.1,0,0,0-1.7-1.9c-1-.5-1.7.1-2.2,1.2-1.7,3.7-4.7,5.8-8.5,7a25.7,25.7,0,0,1-12.2.4c-6.1-1.1-11.3-3.7-14.9-8.9-1.9-2.8-3.1-5.9-2.2-9.2s1.8-3.8,2.8-5.7Z" transform="translate(311.6 294.2)" style="fill:#fff"/><path d="M153,31.5a14.7,14.7,0,0,0,4.2,7.8c6.2,6.1,18.3,8,25.9,3.7a12.4,12.4,0,0,0,4.3-3.9,12.3,12.3,0,0,0,1.3-5.2c.1-.4-1-1.2-1.7-1.5s-1.4,0-1.6,1.2-1.9,3.4-3.6,4.5c-7,4.2-15.3,2.9-21.2-3.3-3.9-4.1-4.3-7.7-1.3-12.6C154.6,23.2,152.1,27,153,31.5Z" transform="translate(311.6 294.2)" style="fill:#fff"/><path d="M69.4-78.8C61.7-86.7,52-91,41.3-93.1c-3.4-.7-7-.8-10.9-1.1,2.3-.4,4.5-1.2,6.6-1.2,14.4-.1,26.4,5.3,35.8,16.2,3.6,4.2,5.5,9.2,4.6,15-.1.7-.3,1.3-.5,2A24.6,24.6,0,0,0,69.4-78.8Z" transform="translate(311.6 294.2)" style="fill:#050000"/><path d="M47.9-54.4,75.3-41.6a6.9,6.9,0,0,1,2.5,2.3c1.4,2,2.5,4.2,3.8,6.2l-.3.4L39.9-57.5l.2-.4Z" transform="translate(311.6 294.2)" style="fill:#050000"/><path d="M-18.1,1.6l.5-1c2.1-5.6,6.4-8.2,12.1-9L4.9-9.9a45.2,45.2,0,0,0,20.8-8.7c1.1-.8,1.1-1.2-.1-1.9s-3.3-2.2-5-3.3c-13.2-9.1-26.8-17.5-39-28L-21-54.1c-1-.8-1.4-.5-1.4.6s-.1,1-.1,1.4c-.3,13.1-.7,26.2.9,39.2C-20.9-8-19.8-3.2-19,1.6Z" transform="translate(311.6 294.2)" style="fill:#050000"/><path d="M-19.7-47.4a4.6,4.6,0,0,1,.4-1.2l1.2.6c2.8,2.2,5.5,4.6,8.4,6.6l28.9,20,.8.5c2.1,1.4,2.2,1.7-.2,2.8A62.8,62.8,0,0,1,9-13.7C4.3-12.5-.6-12.1-5.4-11.3s-7.9,1.7-10.9,4.9c-.8.9-1.4,1-1.6-.5-.6-5.3-1.4-10.5-1.7-15.8s-.1-9.8-.1-14.7h-.1C-19.8-40.7-19.8-44-19.7-47.4Z" transform="translate(311.6 294.2)" style="fill:#fff"/><path d="M15.5,104.2C27.9,94.5,40.3,84.8,52.6,75c4.7-3.8,8.7-8.2,9.8-14.5a33.2,33.2,0,0,0-1.3-15.3c-2.2-7-6-13.1-9.6-19.3A19.1,19.1,0,0,1,49,18.7c-.5-4.8-.4-9.6-.6-14.5a13.7,13.7,0,0,0-.4-2,9.7,9.7,0,0,0-1.6.8L20.2,22.8a3.1,3.1,0,0,0-1.4,3c.2,3.4.4,6.8.4,10.2a342.7,342.7,0,0,1-1.8,37.7q-1.1,9.4-2.3,18.8c-.6,4.3-1.3,8.6-2,13.3Z" transform="translate(311.6 294.2)" style="fill:#050000"/><path d="M42.5,12.6l-.2.4a81.4,81.4,0,0,1-5.7,6.9c-2.7,2.7-5.8,5.2-8.8,7.6a3.3,3.3,0,0,0-1.3,3.3,144.8,144.8,0,0,1,.5,30.4,154.9,154.9,0,0,1-4.4,26,4.1,4.1,0,0,1-.7,1.5c.3-3.8.8-7.7.9-11.5.2-13,.4-26,.5-39,0-3.5-.2-7-.2-10.5a2.6,2.6,0,0,1,.6-1.9L42,12.7Z" transform="translate(311.6 294.2)" style="fill:#fff"/></svg>