<svg id="Layer_1" data-name="Layer 1" xmlns="http://www.w3.org/2000/svg" viewBox="0 0 602.7 569.8"><title>Spartan051_1c</title><path d="M97.3-168.4s-.1-.1-.3.2h.1Z" transform="translate(301.7 284.9)" style="fill:#110e0f"/><path d="M20.7-144.3h-.1l.2.2Z" transform="translate(301.7 284.9)" style="fill:#110e0f"/><path d="M97-168.1H97C97.1-168.4,97-168.3,97-168.1Z" transform="translate(301.7 284.9)" style="fill:#110e0f"/><path d="M300.3,76.7a154.3,154.3,0,0,0-8.2-39.9c-3.8-10.6-8.8-20.6-16.8-28.7-9.8-9.9-21.6-14.4-35.4-12-17.3,3-34.6,6.5-51.8,10-12.9,2.7-25.9,3.7-39,1.6-4.8-.8-9.5-1.7-13.7-4.4s-4.1-5.6-.8-8.6a34.9,34.9,0,0,1,6.6-4.5c7-3.8,14-7.4,21-11,1.6-.8,2.1-1.4.9-3.1s-3-4.8-4.5-7.2L158-32v-.6l.4.4.7.5c1.7,1.6,3.7,1.8,5.9,1.6s6.5,0,9.7-.4a30.5,30.5,0,0,1,13.5,1.9l25.2,9.2c1.4.5,2.1.4,2.8-.9s2.5-4.2,3.8-6.3,1.6-4.1,3.1-4.6,3.8.4,5.7.8L239-28.3l-3.8-6.8c-1-1.9-1-1.9,1.2-1.9l25.4.7c1.5.1,1.7-.3,1.1-1.7-1.8-4-3.5-8.1-5.3-12.2s-2.1-6.8-6.2-8a84.3,84.3,0,0,1,11.3-.3c2,.1,2.3-.6,2.2-2.4-.3-4.9-.4-9.8-.6-14.7,0-.8-.3-1.9,1.2-1.7s1.5-.7,1.2-1.7c-.9-3.7-1.9-7.4-2.7-11.1s-1.1-4.4-3.1-6.1a10.4,10.4,0,0,1-2.6-4.4,40,40,0,0,1-1.6-6.2c-1.5-7.4-1.4-7.4-8.9-8.6-1-.2-1.5-.3-1.6-1.5a26.2,26.2,0,0,0-4.4-11.7c-2.2-3.3-4.9-6.3-6.8-9.7s-6.1-5.3-10.5-5.2h-.7c-2.7.1-2.6.4-2.6-2.5,0-1.3-.3-1.9-1.8-1.6s-5.2.4-7.8.9c-9,1.8-17.4,5.3-25.9,8.6l-1.7.7-.2-.5,1.9-1,29.6-16.7,4.6-2.4c.7-.4.9-.7.3-1.4-2.8-3.5-5.2-7.5-8.4-10.6-10.6-9.8-21.5-19.3-32.2-28.9a1.7,1.7,0,0,0-2.3-.3c-2.6,1.6-5.5,2.9-7.9,4.8-4,3.2-7.7,6.8-11.6,10.2-1.2,1.1-2.4,3-3.5,3s-2.4-2.1-3.7-3-1.4-2,0-3.2l18.4-16.5c1-.9,1.2-1.4.3-2.6a24,24,0,0,0-10.1-8l-17-6.8c-1.1-.4-2.9-.4-2.1-2.5.1-.3-.4-.8-.7-1.1-1.7-1.9-3.3-3.9-5-5.7-9.5-9.7-21-16.5-33.1-22.5-16.5-8.1-33.9-14.1-51.1-20.5-1.6-.6-1.7.2-1.8,1.3L46-253.5,44-239h-.5c-.1-2-.3-3.9-.4-5.9-.6-9.8-1.2-19.6-1.7-29.5-.1-1.8-.7-2.2-2.3-2.4-7.2-.8-14.3-1.6-21.5-2.8-2.8-.4-5-.4-6.6,2.1s-1.5.9-2.4,0-4.9-4.5-7.4-6.7a9,9,0,0,0-1.5-.9,10.4,10.4,0,0,0-.3,1.6c-.2,4.1-.4,8.2-.6,12.4-.1,1.9-.2,3.7-.4,5.6a3.1,3.1,0,0,1-1.2-1.3c-3-5-6-9.9-8.8-14.9a2.8,2.8,0,0,0-2.8-1.6h-8.8a106.6,106.6,0,0,0-11.8.6c-4.8.7-9.5,1.9-14.2,2.9-1.6.3-2.1.9-1.4,2.5a17.6,17.6,0,0,1,.6,2.7l-.4.2c-1.5-1.8-3.1-3.5-4.5-5.4a1.7,1.7,0,0,0-2.4-.6L-68-275.8c-3.5,1.5-3.5,1.5-1.9,5l3,6.8-.5.3-1.6-1.3c-2.7-2.3-5.5-4.6-8.1-7a2.8,2.8,0,0,0-3-.7l-18.1,4.8c-1.5.4-1.6.8-.6,1.9l8.8,10.9,3.4,3.7.7.6-2.5-1.6a24.9,24.9,0,0,1-2.2-2.2l-.9-.7L-113-274.9c-1-.9-1.5-1.1-2.1.4a80.8,80.8,0,0,1-3.6,7.5,5,5,0,0,1-2.3,2.1c-2.6,1.1-5.5,1.7-8,3-4.3,2.3-7.9,1.9-11.1-1.7h-.2c-.9-.9-1.6-.8-2.5.2-2.6,2.9-5.4,5.6-8,8.5a4.6,4.6,0,0,1-3.9,1.7,9.7,9.7,0,0,0-4.2.5c-8.6,3.9-17.1,8-25.6,12a6.7,6.7,0,0,0-1.1.8l1.1.8,13.9,7.8c2.7,1.6,2.4,1.1.9,3.3q-4.3,6.7-8.7,13.3c-.7,1.1-.7,1.6.5,2.3,5.1,3.1,10,6.4,15.1,9.4,27.9,16.4,55.5,33.2,82.2,51.4,13.2,9,26.4,18.2,38.2,29,4.5,4.1,8.3,9,12.3,13.5.6.6.8,1.4,2,.6,2.8-2,2.9-1.9,5.3.6a11.5,11.5,0,0,0,1.2,1.2c1.2.9,1.4,1.7-.2,2.6s-2.2,1.6-3.4,2.2-1.5,1.4-.4,2.6c3.7,4.1,7.2,8.4,10.9,12.6.8.9.7,1.4.1,2.3-2.2,3.2-4.3,6.4-6.3,9.8-.9,1.5-1.3,1.7-2.6.5-3.4-3.3-7-6.4-10.5-9.6-.7-.6-1.1-1.1-1.5.3-1.7,7.3-3.3,14.7-3.7,22.2C-40-43.1-38.9-25-37-6.9q2,19,4.5,38C-31,42.1-29.1,53-27.4,64c.2,1.4.7,1.7,2,1.3l14.3-3.6c1.1-.3,1.4-.6,1.2-1.8-.7-5.5-1.5-11-1.8-16.5s-.5-13.9-.3-20.9A22.8,22.8,0,0,1-8.3,10.8c.6-1,1.1-1.2,2.2-.4a8.2,8.2,0,0,1,3.4,9.2L-8.5,43.9c-.8,3.4-.9,3.4,2.3,4.8,1.2.5,2.3,1.1,3.5,1.5a3.8,3.8,0,0,0,2,.1c2.1-.5,2.2-.5,2.1,1.6C.7,61.8.2,71.9-.7,81.9a212.9,212.9,0,0,1-5.8,33.2c-.3,1.3-.5,2.1-1.9.6C-28.2,95.5-46,73.6-60.1,49c-5.6-9.8-10.6-19.8-15.8-29.8-.3-.6-.7-1-1-1.6a71.6,71.6,0,0,0-1.3,11.5c-.3,13.6,2.5,26.6,6.9,39.3s11.2,26.4,18,39a10.4,10.4,0,0,1,.7,2.1l-1.1-1c-6.3-7.1-12.5-14.3-19-21.3-11.4-12.3-23.4-23.9-36.9-33.9-9.7-7.2-20-13.4-31.9-16.5-15-4-30.3-4.2-45.6-2.2a255.2,255.2,0,0,0-65.1,17c-15.4,6.3-29.9,14.3-42.3,25.6-2.5,2.3-4.9,4.9-7.3,7.3a2.7,2.7,0,0,0,1.8.2c13-3,26-6.3,39.1-9,18.2-3.8,36.6-6.1,55.2-5.1,15.4.8,27.9,6.8,37.4,19.1a107.1,107.1,0,0,1,14.9,27.2l.4,1.2v.6l-.4-.3-.8-.9-1.4-1.6c-9.1-10.5-19.4-19.6-32-25.8a48.6,48.6,0,0,0-23.7-5.2c-7.6.3-14.9,2.1-22.2,3.7l-1.8.4a26.4,26.4,0,0,0,4.8,2c6.5,2.4,13.3,4.3,19.6,7.2,10,4.6,18.2,11.8,25.4,20,11.4,13.1,18.9,28.3,23.6,44.8a75.2,75.2,0,0,0,16.2,29.6c10.7,12.1,24.1,20.2,39,25.9a158.5,158.5,0,0,0,43.9,9.7,189,189,0,0,0,39.7-.8,152.1,152.1,0,0,0,28.3-6.2c1.3-.4,1.7-.1,2,1a56.4,56.4,0,0,1,1.3,6,3.4,3.4,0,0,0,1.8,2.8c9.5,5.9,18.8,12.1,28.4,17.7,23.3,13.5,47.7,24.5,74.1,30.9,19.3,4.7,38.8,6.5,58.5,3.9,29.2-3.8,54-16.6,74.6-37.5,16.4-16.7,28.3-36.3,37-57.9A244.5,244.5,0,0,0,300.3,76.7ZM164.4,20.9c6.4-2.1,14.9,1.4,18.1,5.6,1.6,2.2,2.6,4.6,1.3,7.3s-4.2,3.8-7.2,4.4a10.6,10.6,0,0,1-1.9,0c-5.3-.1-9.9-1.8-13.5-5.8S158.8,22.7,164.4,20.9Zm46,76.4c-1.9-8.2-4.2-16.4-6.4-24.6a5.2,5.2,0,0,0-1.2-2.2c-.2,1.8-.5,3.6-.7,5.4-1.3,13-2.9,25.9-6.3,38.5-4.4,16.4-10.9,31.9-21.3,45.6s-22.2,22.1-38.1,26c-9.5,2.3-19.1,2.2-28.8.9-14.3-2-27.4-7.4-40.2-13.9l-1-.7,21.1-5.4a5.9,5.9,0,0,1,2.8.2,131.1,131.1,0,0,0,24.3,4.1,85.5,85.5,0,0,0,25.9-2.1A57.6,57.6,0,0,0,169.4,153a66.2,66.2,0,0,0,14.7-24.2,104,104,0,0,0,6.2-29.6c.4-8.1.6-16.1.9-24.2.1-3.1.5-6.2.4-9.2s-.5-8.4-.7-12.5c-.1-1.2-.7-2.6,1.3-3l1.2-2c2.3-3.2,3.4-6.5,2.1-10.4a22.9,22.9,0,0,1-2.9-2.7,25.9,25.9,0,0,1-2-3.6c2.5-.7,8,.4,10.6,2.1C215.4,43,223.5,56.4,226.9,73a95.7,95.7,0,0,1,1.3,26.3c-1.1,15.8-5,31-10.5,45.9-1.5,4-3.1,8-4.7,11.9a8.3,8.3,0,0,1-1.9,3c.4-1.7.9-3.3,1.1-5,.7-4.4,1.3-8.9,1.8-13.4a77.9,77.9,0,0,0,.4-8A160.6,160.6,0,0,0,210.4,97.3ZM187.8,197.5c1.9-.4,3.8-1,5.8-1.4h1.6a4.8,4.8,0,0,1-.6,1.4c-3,3.2-5.9,6.6-9.2,9.6a87.2,87.2,0,0,1-23.6,15.4,93.2,93.2,0,0,1-23.9,6.8,110.4,110.4,0,0,1-22.7.7,123.6,123.6,0,0,1-29.7-5.7c-23.1-7.2-43.7-18.9-62.6-33.7l-5-4c-.9-.7-.8-1.1.2-1.5l4.7-1.6a22.3,22.3,0,0,1,2.1-1.4l16.4-8.2a5.7,5.7,0,0,1,1.5-.3,34.5,34.5,0,0,1,4.8-2.8c.6-.3,1.7.5,2.5,1,7.4,4.1,14.7,8.4,22.3,12.2a130.7,130.7,0,0,0,41,13.2c15.2,2.1,30,.9,43.9-6.4a67.3,67.3,0,0,0,23.8-21.4c9.4-13.4,15.1-28.5,18.8-44.4,1.8-7.7,3.1-15.4,4.5-22.4,0,3.2.1,7.1,0,11.1s-.4,6.2-.6,9.2c-1.6,19.1-5.8,37.5-14.3,54.8a85,85,0,0,1-15,21.6l-.7.9ZM164.6,93.2c-9.3,2.2-17.9,6.3-26.3,10.8-19.2,10.4-37.1,22.9-54.7,35.7C62.5,155.3,40.4,169,16.3,179.3c-15.7,6.6-31.9,11.6-48.9,13.5s-35.3.7-51.9-7c-3-1.4-5.8-3.2-8.7-4.9a3.8,3.8,0,0,1-1.6-1.9l4.3.6c20.6,2.6,39.9-1.9,58.5-10.3s35.8-20.1,51.9-33c20.4-16.3,38.9-34.6,57.6-52.6Q93.9,68,111,53.1c8.4-7.4,18.5-12.1,29-15.9,1.6-.6,2.7-.7,3,1.4a20.6,20.6,0,0,0,1.1,3.4c7.4,12,18.8,15,31.9,14.2l3.3-.3,2-.6c3.9-1,3.9-1,4.1,3.1a88.2,88.2,0,0,1-4.3,33.3c-.8,2.4-.8,2.3-3.1,1.5C173.5,91.6,169.1,92.2,164.6,93.2Zm8.3,23.4-11.3,23.3-4.2,8.8c-1,2-1,1.9-2.2.1a54.4,54.4,0,0,0-10.4-12.2c-7.4-6.2-14.4-8.4-23.8-3.4s-18.6,10.2-27.7,15.7-15.9,10.2-23.8,15.3l-1.5.7h-.1a31.6,31.6,0,0,1,2.2-2.4,411.7,411.7,0,0,1,44-34.3c11.2-7.6,22.7-14.8,35.5-19.6,4.4-1.6,8.9-2.9,13.6-2.8s9,2.9,10.2,8.2A4.5,4.5,0,0,1,172.9,116.6Zm18.4-78.5a3.1,3.1,0,0,1,1.7,1.9,8.7,8.7,0,0,1-2.6,6.9c-3.1,3.4-7.1,4.9-11.5,5.7A33.8,33.8,0,0,1,155.2,49a19.5,19.5,0,0,1-10-14A10.6,10.6,0,0,1,154,23h0c-.9,1.9-2.2,3.6-2.8,5.6s.3,6.4,2.2,9.2c3.6,5.2,8.8,7.8,14.9,8.9a25.7,25.7,0,0,0,12.2-.4c3.8-1.1,6.9-3.3,8.5-7C189.6,38.2,190.3,37.7,191.3,38.1Zm-3.9.9a12.4,12.4,0,0,1-4.3,3.9c-7.6,4.2-19.7,2.4-25.9-3.7a14.7,14.7,0,0,1-4.2-7.8c-.9-4.5,1.6-8.3,6.4-9.4-3,5-2.6,8.6,1.3,12.6,5.9,6.2,14.2,7.5,21.2,3.3,1.7-1,3.3-2.3,3.6-4.5s.8-1.4,1.6-1.2,1.8,1,1.7,1.5A12.3,12.3,0,0,1,187.4,39.1ZM145.8,15.6a113.6,113.6,0,0,0,11.4.7h2.6c-2.2,1.6-3.8,2.9-6.1,3.4a16.3,16.3,0,0,0-8.3,4.9,8.5,8.5,0,0,1-3,2.2,107.8,107.8,0,0,1-13.1,4,14,14,0,0,1-13.8-4.6C104.8,14.5,93.7,3.3,81.4-6.6a159.2,159.2,0,0,0-29.5-19c-12.3-6-24.5-12.4-35.9-20A140.8,140.8,0,0,1-8.4-65.8c-1.3-1.3-1.4-2.3-.4-3.8,5.9-9.9,13-18.8,22.4-25.6,15.2-11,31.2-12.1,47.9-3.7,8,4.1,15.5,9,21.3,16.1,8.8,10.8,9.1,23.1.7,34.3-1.2,1.6-1.1,2.5,0,4C90.3-35.4,96-25.7,98.9-14.7A28.8,28.8,0,0,1,99.8-2,2,2,0,0,0,101.1.6C115.5,7.4,130.1,13.1,145.8,15.6ZM-88.5-262.6c-1.2-1.3-.6-1.6.7-1.9a18,18,0,0,0,4.1-1.1c2.6-1.3,4.5-.4,6.5,1.4,7.2,6.4,14.6,12.7,21.9,19a25.2,25.2,0,0,0,4.5,3.3l-3.8-8.8c-2.7-6.2-5.4-12.5-8.2-18.7-.6-1.4-.3-1.9,1-2.5,4.3-1.8,4.3-1.9,7.5,2l15.8,19a12.1,12.1,0,0,0,1.4,1.2v.2h.1l-.2-.2c-.9-3.7-1.7-7.4-2.7-11s-2.2-7.9-3.3-11.9c-.4-1.4-.3-2.2,1.4-2.4a51.3,51.3,0,0,0,5.5-1.2,2.5,2.5,0,0,1,3.2,1.3c.8,1.6,1.9,3.1,2.9,4.6l.6.7a4.2,4.2,0,0,0,.6-.9,45.1,45.1,0,0,0,1.4-4.5c.4-1.8,1.4-2.4,3.2-2.3a64.7,64.7,0,0,0,6.7,0,3,3,0,0,1,3.1,1.7c11.3,18.8,21.3,38.2,28.9,58.8l.5,1h.5l-13-59.1,6,5.3c2.1,1.8,2.1,1.8,4-.2,4-3.9,4-3.9,9.5-3.1l10.6,1.4c4,.5,3.6.7,3.8,4q.7,14.6,1.5,29.1c.3,5.1.6,10.3.9,15.4.6,9.2,1.2,18.5,1.8,27.7.2,3.7.3,7.4.6,11.1a58.6,58.6,0,0,0,.8,7.8l2-14.4,2.1-16,2.2-16.4,2.6-19.2,2.6-20c0-.2,0-.3,0-.5.3-3,.3-3,3.2-2l12,4.5a1.8,1.8,0,0,1,1.3,2.3q-2.3,16.9-4.6,33.8c-1,7.4-1.9,14.9-2.9,22.3a1.8,1.8,0,0,0,.4,1.4l5-15,11.1-34.1.4-1.4c1.1-3.6,1.1-3.7,4.4-2.2,13.6,6.3,27.1,12.8,39.4,21.4,3.3,2.3,6.2,5.1,9.3,7.7a2.4,2.4,0,0,1,.7,3.3l-10.1,23.1-7.2,16.3a1.2,1.2,0,0,0,.2,1.1l2.9-3.5,22.6-29.7c.8-1.1,1.4-1.4,2.7-.8l15.1,6.4,1.7.9c1.1.7,1.2,1.4.1,2.4-7.6,7.2-15.4,14.2-22.7,21.6s-14.7,16-20.3,25.4c-2,3.4-3.8,6.9-4.4,10.9l5.8-8c6.4-8.5,12.9-16.9,20.6-24.2,3.9-3.7,3.8-3.7,7.6-.1s3.4,3.2.1,7.1c-6.6,7.9-13.1,15.9-19.5,23.9a80.6,80.6,0,0,0-4.6,7.1l-.3.5h.2l.2-.6c2.2-2.1,4.4-4.2,6.5-6.4s6.2-6.9,9.5-10.3c8.3-8.4,16.6-16.8,25-25,3.4-3.3,7.4-6.2,11.1-9.3a2.2,2.2,0,0,1,3.3.1l11.2,9.8c1.1.9.6,1.5-.2,2.3l-7.1,7.3-.2.3.3-.2,7.6-3.7,1.2-.7c2.8-1.5,2.8-1.5,5.1.5s3.5,3,5.4,4.3,1,1.5-.1,2.3l-2.8,2.1.2.5a39.9,39.9,0,0,0,4.4-1,2.3,2.3,0,0,1,3,1.1,51.7,51.7,0,0,0,3.6,4.7c1.1,1.3.9,1.8-.5,2.6L188-147a358.2,358.2,0,0,0-36.3,23.5c-4.5,3.4-8.5,7.3-12.7,11a5.7,5.7,0,0,0-1.5,2.6c3.6-1.7,7.2-3.5,10.9-5.1,16.2-7,32.4-14.1,48.7-20.9,5.3-2.2,11-3.4,16.5-5.1,1.3-.4,1.8-.1,2,1.3s.5,2.7,3.5,2.4a60.1,60.1,0,0,1,8.1-.1,2.9,2.9,0,0,1,1.8,1.2c2.4,3.3,4.6,6.6,7,9.9,1,1.4.5,1.6-.9,1.7a135.4,135.4,0,0,0-24,2.4,6.2,6.2,0,0,0-2.6,1.2h30.1c1.4,0,2,.7,1.8,2.1a5,5,0,0,0,0,.7c0,1.5.7,3.6-.1,4.5s-2.9,1-4.4,1.3a333,333,0,0,0-45.3,12.2c-6.2,2.2-12.2,5.2-18.3,7.9a10.8,10.8,0,0,0-1.9,1.4l-.6.2v.2l.5-.3c2.9-.9,5.9-1.8,8.8-2.8,16.8-5.9,33.8-11.3,51.3-14.7a114.2,114.2,0,0,1,12.9-1.5,20.7,20.7,0,0,1,5.6.5,3.6,3.6,0,0,1,1.9,1.7,10.2,10.2,0,0,1,.8,2.7c.7,2.7.5,2.9-2.3,3.1-8.7.7-17.3,1.7-25.6,4.6a2.3,2.3,0,0,0-1.2.9h2.2c9.8.4,19.6.9,29.1,3.8a8.1,8.1,0,0,1,5.7,8.3,1.1,1.1,0,0,1-.7.7,8.4,8.4,0,0,1-1.7.1c-8.2.2-16.5.1-24.7.6s-17.4.8-25.8,3.2l-1.8.6c-.2.1-.3.3-.6.7l17.1-1.2h1.4l29.5.5c5.6.1,6.5,1.2,6.5,6.7,0,1.7,0,3.3.1,5s0,3-2.9,3h-4.8c-9.3.5-18.7.8-28,1.5-5.3.4-10.5,1.4-15.7,2.3a32.2,32.2,0,0,0-4.1,1.2v.5l7.3,1.3v.4l-11.1,3.4v.4c3.2-.2,6.4-.5,9.7-.6,10.2-.1,20.5-.1,30.7,0a62.3,62.3,0,0,1,8.2,1,3.3,3.3,0,0,1,2.8,2.3c.9,2.2,1.8,4.4,2.8,6.5s.1,1.5-1.1,1.5l-9.7-.4-17.1-.5c-2.1,0-2.1,0-1.1,1.9l1.6,2.9a5.9,5.9,0,0,1,.3,1.1,5.1,5.1,0,0,1-1.3.1L211.8-40l-22.9-4a12,12,0,0,0-4.4.3l3.4,1.1c7.9,2.9,16,5.6,23.8,8.9,5.6,2.5,4.3,1.9,1.9,6.3-.6,1.2-1.2,1.2-2.4.8l-27-9.1a50.5,50.5,0,0,0-5-1.1l3.9-2.2v-.5l-11.2.8c-2.9.3-5.8.8-8.7,1.2-1.2.2-5.2-2.6-5.4-3.8s.5-1,1-1.4c5.9-4,11.7-8.1,18.6-10.4a26,26,0,0,0-12.7,3,82.1,82.1,0,0,0-8.1,4.9c-.9.6-1.4,1-2.2-.2Q148.8-53.3,143-61c-1.1-1.4-.8-2.1.7-2.8l15.4-7.9a8.1,8.1,0,0,0,2.6-2l-4.7-.4-1.1-.2a4,4,0,0,1,.5-1l7.3-7.8a5.6,5.6,0,0,0,1.4-2.2l-25.9,6.5-.3-.5,2.8-2.3,9.3-7a14.4,14.4,0,0,0,1.6-1.7l.6-.3v-.2l-.5.3-13.7,6.6-5.7,2.9c-1.3.7-2,.6-2.6-1A53.9,53.9,0,0,0,115.3-103a84.2,84.2,0,0,0-25.2-14.9c-3.9-1.5-3.4-.6-3.1-4.7a151.3,151.3,0,0,1,5.9-32.8c1-3.3,2.2-6.4,3.3-9.6a12.4,12.4,0,0,0,.3-1.9l.5-1.2h0l-.6,1.1c-1.4,2.4-3,4.6-4.3,7.1C87.5-151,83-142,78.5-133a29.7,29.7,0,0,0-1.3,3.8c-1.8-2.9-2-4.4-2.6-12.7l-3.9,6.6-.5-.2c1.1-13.2,2.6-26.4,4.9-39.5l-.7-.2c-2.2,6.7-4.5,13.4-6.5,20.2s-3.4,13.8-2.8,21h-.5l-4.1-7a10.7,10.7,0,0,0-1.1-1.3,12.3,12.3,0,0,0-.5,1.8c-.5,4.5-1,8.9-1.5,13.4a2.7,2.7,0,0,1-.4.8,3,3,0,0,1-.7-.5c-1.2-1.6-2.5-3.3-3.6-5s-1.3-1.2-2.3-.2-2.1,2.1-3.4-.7l-7.4-16.2-.8-1.4c-.1.9-.3,1.4-.3,1.8-.2,3-.3,6-.5,9a4.9,4.9,0,0,1-.6,1.4,5.3,5.3,0,0,1-.9-1c-1.7-3.2-3.2-6.6-4.9-9.8s-4.8-8.4-7.2-12.5c-.3-.5-1-.8-1.6-1.2,3.3,9.2,4.6,18.9,6,28.5l-.6.2-7.3-10.2c.8,3.1,1.7,6.2,2.6,9.3s1.2,3.9,1.9,5.9.2,1.6-1.1,2c-4.2,1.3-4.2,1.4-6.7-2.2a10.1,10.1,0,0,0-2.5-2.7c0,2-.1,4,0,6a1.7,1.7,0,0,1-1.7,2.1l-5.7.6c-1.4.2-2.1-.4-2.7-1.7-3.2-6.2-6.3-12.5-9.7-18.5-9.2-16.2-18.4-32.4-28.1-48.2-5.8-9.5-12.3-18.7-18.8-27.7-4.5-6.1-9.5-11.9-14.4-17.6C-73.5-245.5-81-254.1-88.5-262.6Zm70.7,150.9c-2.9-2.8-5.8-5.6-8.6-8.5l-19.8-20.7c-1.2-1.3-2-1.9-3.3-3.1l-.4-.4-.2-.2v.2l.5.6,5.6,7.5,8.1,10.7h-.1l-6.9-5.4c-10.3-7.8-20.4-15.8-31-23.2-25.8-18.1-52.7-34.3-79.7-50.5l-5.3-3.1-.7-.3.3-.6,15.6,2.6v-.4l-2-1.1c-7.1-3.6-14.1-7.3-21.2-10.7-1.8-.9-1.7-1.7-.8-3s2.3-3.3,3.2-5,1.6-1.3,2.8-.4l28.4,19.1,22.7,15.2a12.5,12.5,0,0,0,1.9.9h.4s.1,0,0,0h-.2c-3.1-2.5-5.9-4.8-9-7.2l-32.4-24.7c-.2-.1-.3-.4-.3-.9l5.5,2.4,6.4,2.5.8.4-.7-.4c-2.5-1.5-4.9-3.2-7.4-4.6L-171-238.5l-1.2-.8,3.9-1.5,14.5-5.8a4.9,4.9,0,0,1,4.3.1l12.2,5.3a5,5,0,0,0,1.7.1,6.6,6.6,0,0,0-.9-1.3l-10.4-8.6c-1.3-1-1.3-1.8,0-2.7l1.8-1.5c2.6-2.1,2.5-2,5.6-.3,5.1,2.8,10.2,5.4,15.4,8.1h.1c-1.9-1.9-3.7-3.8-5.7-5.7s-1.7-1.6.5-2.4l8.1-2.8a2.4,2.4,0,0,1,1.9.4,54.8,54.8,0,0,1,4.8,3.9c5.5,5.1,11,10.2,16.4,15.4l44.2,43.1a34,34,0,0,0,3.5,2.7l-7.6-10.3c-9.8-11.8-20.7-22.5-31.7-33.1-7.7-7.3-15.7-14.3-23.6-21.4-2.4-2.1-2.4-2-.8-5.3s1.6-3.2,4.2-.7c9,8.3,17.9,16.8,27.1,25s18,18.2,26.4,27.9A351.4,351.4,0,0,1-29-175.1c8.2,12.5,15.6,25.4,20.4,39.6,1.9,5.6,2.8,11.5,4.1,17.3a6,6,0,0,1-.2,1.4l-6.5-8.9-7.2-9.8a8.1,8.1,0,0,0-1.2-1.1l-.5-.8.4.9,4.8,12.3c.8,2.2,1.6,4.4,2.4,6.6l-10.6-10.2a19.1,19.1,0,0,0-2.2-1.6v-.2h-.1l.2.2,4.6,10.2c1.1,2.5,2.1,4.9,3.1,7.4Zm.9,13.4c-.8-.9-1.1-1.5.2-2.4,14.9-9.7,30.9-16.4,48.7-18.2,3.4-.4,6.8-.5,10.2-.7,22.1.2,41.4,7.8,58.6,21.2s28.2,28.2,38.3,45.7c4.3,7.5,8,15.3,12,23,1.3,2.6.8,4-1.8,5A17.4,17.4,0,0,1,139-23.5c-.5-.1-3.9-1.2-4-1.9-1.8-3.3-2-7-3.6-11.4-.6-1.7-3-9.9-5.5-14.4a143.7,143.7,0,0,0-7.6-13.2C101.1-88.6,88-98,78.7-102.7c-12.4-6-25.4-8.9-39.2-7.9A87.4,87.4,0,0,0-8.3-92.2c-2,1.5-1.9,1.5-3.6-.4ZM-5.6,131C.1,116.9,2.7,102.1,4.6,87.1c2.8-22.2,3.1-44.6,2.7-67A3.5,3.5,0,0,1,9,16.8L40.6-5.6c1.6-1.1,1.6-1.7.2-2.9a49.5,49.5,0,0,1-5.2-4.9c-1.3-1.4-2.3-1.5-4-.6Q18.8-7.1,5.8-.7A31.3,31.3,0,0,1-5.9,2.5c-3.3.2-5.5,2.4-7.2,4.9s-4,8.6-4.7,13.3c-1.1,8-.4,16,.2,24,.3,3.6.7,7.1,1.1,10.6.1,1.2-.2,1.7-1.4,2-4.6,1.2-4.6,1.3-5.3-3.3-2.7-19.7-5.5-39.4-7.8-59.1a338.1,338.1,0,0,1-2.5-48.9c.2-5.6.9-11.2,1.4-16.8a13,13,0,0,1,.6-2.3,18,18,0,0,1,1.9,1.3C-14.4-58.6,1.3-46.2,18.9-36.3a170.7,170.7,0,0,0,20,9.3A129.9,129.9,0,0,1,68.6-9.7,223.5,223.5,0,0,1,95.8,14.7l1.8,2.1c-5.3,0-10.6-.1-15.8,0a25.3,25.3,0,0,0-5.8.9c-2.4.6-3,1.6-2.2,4.1,1.4,4.4,2.9,8.7,4.3,13.1,2.3,7,4.4,14,5.2,21.4.6,5.6-.6,10.6-4.4,15A206.5,206.5,0,0,1,54.3,94.4c-15,12.3-30.6,23.6-47.9,32.7-3.6,1.9-7.3,3.4-11,5a4.5,4.5,0,0,1-1.3.2A7.1,7.1,0,0,1-5.6,131ZM-53.1,95.6a267.5,267.5,0,0,1-18.5-50l-1.8-6.9c0-.1.1-.3.2-.8l4.6,8.7A249,249,0,0,0-42.3,86.6c7.5,9.4,15.6,18.3,23.5,27.4,2.3,2.7,4.9,5.2,7.4,7.8s2.4,4.8-.3,7.4c0,.3.2.7,0,.9l-6.4,11.1-2.2-3.1,2.2,3.1-.8,2.3,2.7-.9,12.8-4.4,5.3,4.4-12.5,8.2a23,23,0,0,1-3.5,2.4,2.4,2.4,0,0,1-2.1-.6c-4.4-5.5-8.8-11-12.9-16.7A265.5,265.5,0,0,1-53.1,95.6Zm-108.7-6.5c-7.8-10.4-17.2-18.7-30.3-21.5a100.2,100.2,0,0,0-17.1-2.1,138.7,138.7,0,0,0-21.1.5c-11.7,1.4-23.3,3.3-34.9,5.4-6.4,1.1-12.8,2.9-19.3,4.2l1.1-.8a337.3,337.3,0,0,1,57.2-24.5,223.6,223.6,0,0,1,36.5-8.5,130.3,130.3,0,0,1,25.3-1.5c11.8.6,23.4,2.5,34.2,8A110.4,110.4,0,0,1-109,62.1c8.1,6.8,16.2,13.8,23.6,21.3,8.9,9.1,17.4,18.6,25.7,28.3,11.9,14,23.5,28.2,35.2,42.4,2.9,3.5,2.9,3.5-1.3,5.7l-1.5.8-12.8,5.8-.6.2h-.8l-1.7-.8,1.7.8c-3.6,1.8-6.9,3.4-11.3,2.3-10.5-2.6-21.2-4.5-31.7-6.9-15.3-3.4-30.6-7.1-44.7-14.2-3.5-1.8-6.5-4.4-9.7-6.8a7.9,7.9,0,0,1-2.7-5.1,129.3,129.3,0,0,0-8.1-25.5A99.4,99.4,0,0,0-161.8,89.1ZM-16.7,221.4a171.1,171.1,0,0,1-37.8,2.4A162.3,162.3,0,0,1-94,217.5a111.5,111.5,0,0,1-33.6-15.8c-14-10-23.7-23.1-28.5-39.8a121,121,0,0,0-20.5-41.5c-9.4-12.1-20.8-22-34.9-28.3l-1.9-.9a34.8,34.8,0,0,1,13.2,1.1,70.1,70.1,0,0,1,26.3,14.4c14,11.8,24.6,26.3,33.9,41.9,4.3,7.2,8.4,14.5,13.3,21.4,7.7,10.9,17.9,19.4,29.3,26.3,15.3,9.2,32,14.8,49.6,17.6,6.9,1.1,13.9,1.9,20.9,2.4s14.6.4,21.9.4c2.7,0,5.3-.4,8-.6v.9C-3.4,218.5-10,220.2-16.7,221.4ZM294.8,108.8a242.2,242.2,0,0,1-13.6,68.6c-7.2,20.2-16.9,38.9-30.5,55.6-12.1,14.8-26.4,26.8-43.8,35.1a120.9,120.9,0,0,1-33,10.2,141.8,141.8,0,0,1-30.3,1.2,170.3,170.3,0,0,1-37.9-6.9,275.3,275.3,0,0,1-51-20.8,386.8,386.8,0,0,1-38.3-22.9,5.4,5.4,0,0,1-2.1-2.9c-2.8-11.8-9-21.6-17.4-30-2.5-2.5-2.5-2.5.8-3.5s4-1.1,5.9-1.9a2.8,2.8,0,0,1,3.5.9q4.8,5.1,9.7,10.1c9.1,9.3,19.7,16.6,31,23a153.1,153.1,0,0,0,25.9,11.9,108.4,108.4,0,0,0,26.8,6c4.1.3,8.2.9,12.3.8a109.5,109.5,0,0,0,42.4-9.2c17.9-7.9,32.8-19.8,45.8-34.1a178.4,178.4,0,0,0,25.3-36.4,192.2,192.2,0,0,0,17.5-46.1,160.1,160.1,0,0,0,3.8-24.8A99.1,99.1,0,0,0,245,60.2c-2.5-9.8-6.8-18.6-14.3-25.6a42.4,42.4,0,0,0-21.9-10.7c-7.7-1.4-15.4-1-23.1.1a2.5,2.5,0,0,1-1.9-.3c-3.8-4.2-8.7-5.9-14.1-6.4l-.9-.4,6.3-1.4,41.4-8.1c8.2-1.6,16.4-3.5,24.7-4.7a32.7,32.7,0,0,1,25.9,6.9c7.9,6.3,13,14.6,17,23.7,5,11.4,7.6,23.4,9.4,35.7A202.4,202.4,0,0,1,294.8,108.8Z" transform="translate(301.7 284.9)" style="fill:#110e0f"/><path d="M69.4-78.8C61.7-86.7,52-91,41.3-93.1c-3.4-.7-7-.8-10.9-1.1,2.3-.4,4.5-1.2,6.6-1.2,14.4-.1,26.4,5.3,35.8,16.2,3.6,4.2,5.5,9.2,4.6,15-.1.7-.3,1.3-.5,2A24.6,24.6,0,0,0,69.4-78.8Z" transform="translate(301.7 284.9)" style="fill:#050000"/><path d="M47.9-54.4,75.3-41.6a6.9,6.9,0,0,1,2.5,2.3c1.4,2,2.5,4.2,3.8,6.2l-.3.4L39.9-57.5l.2-.4Z" transform="translate(301.7 284.9)" style="fill:#050000"/><path d="M25.7-20.5c-1.7-1-3.3-2.2-5-3.3-13.2-9.1-26.8-17.5-39-28L-21-54.1c-1-.8-1.4-.5-1.4.6s-.1,1-.1,1.4c-.3,13.1-.7,26.2.9,39.2C-20.9-8-19.8-3.2-19,1.6h.9l.5-1c2.1-5.6,6.4-8.2,12.1-9L4.9-9.9a45.2,45.2,0,0,0,20.8-8.7C26.8-19.3,26.9-19.8,25.7-20.5ZM19.8-18A62.8,62.8,0,0,1,9-13.7C4.3-12.5-.6-12.1-5.4-11.3s-7.9,1.7-10.9,4.9c-.8.9-1.4,1-1.6-.5-.6-5.3-1.4-10.5-1.7-15.8s-.1-9.8-.1-14.7h-.1c0-3.3,0-6.6,0-10a4.5,4.5,0,0,1,.4-1.2l1.2.6c2.8,2.2,5.5,4.6,8.4,6.6l28.9,20,.8.5C22.1-19.4,22.2-19.1,19.8-18Z" transform="translate(301.7 284.9)" style="fill:#050000"/><path d="M61.1,45.3c-2.2-7-6-13.1-9.6-19.3A19.1,19.1,0,0,1,49,18.7c-.5-4.8-.4-9.6-.6-14.5a13.7,13.7,0,0,0-.4-2,9.7,9.7,0,0,0-1.6.8L20.2,22.8a3.1,3.1,0,0,0-1.4,3c.2,3.4.4,6.8.4,10.2a342.7,342.7,0,0,1-1.8,37.7q-1.1,9.4-2.3,18.8c-.6,4.3-1.3,8.6-2,13.3l2.4-1.6C27.9,94.5,40.3,84.8,52.6,75c4.7-3.8,8.7-8.2,9.8-14.5A33.2,33.2,0,0,0,61.1,45.3ZM42.2,13a81.4,81.4,0,0,1-5.7,6.9c-2.7,2.7-5.8,5.2-8.8,7.6a3.3,3.3,0,0,0-1.3,3.3,144.8,144.8,0,0,1,.5,30.4,154.9,154.9,0,0,1-4.4,26,4.1,4.1,0,0,1-.7,1.5c.3-3.8.8-7.7.9-11.5.2-13,.4-26,.5-39,0-3.5-.2-7-.2-10.5a2.6,2.6,0,0,1,.6-1.9L42,12.7h.5Z" transform="translate(301.7 284.9)" style="fill:#050000"/></svg>