<svg id="Layer_1" data-name="Layer 1" xmlns="http://www.w3.org/2000/svg" viewBox="0 0 748.5 482"><title>Tiger599_1c</title><path d="M259-51c30.6-34.5,28.8-80.9,35.8-108s17.7-38.1,39.6-51.6,42.4-13.4,39-23.4-33.9-13.2-67,10.2-35.9,56.5-48.6,88.6-32.6,78-58.4,85.5S153-50.8,153-50.8s-1.2-3.6-46.1-20.9S22-86.3,22-86.3-.7-94.1-23.9-101.9-91-120.7-91-120.7A80.7,80.7,0,0,0-104.7-136a152.2,152.2,0,0,0-19.9-14.2s-.3-.3-11.5,1.2a76.4,76.4,0,0,0-19.2,4.9l-9.7-2.6c-7.1-1.9-19.3-3.5-19.3-3.5l-11.6,4c-3.4,1.1-8.1,3.1-12.6,5l-1.3-2.5C-216.5-156-221-160-221-160s-16.7,5.1-23.4,9.1a55.7,55.7,0,0,0-9.5,6.8s-16-1.2-24.4.5a49.5,49.5,0,0,0-14.9,5.8l-2.2-.7a38,38,0,0,0-6.4-7.2c-4.1-3.5-10.8-4.4-10.8-4.4a34.5,34.5,0,0,0-8.8,13.3,66.6,66.6,0,0,0-3.2,15.1s-8.5,12-16.1,21.7-18.8,22.6-18.8,22.6a65.2,65.2,0,0,1,6.9,12.9,86,86,0,0,1,2.8,8.3s-4.3,6.6-5.9,11.1-2.3,6.5-2.3,6.5a122.9,122.9,0,0,0,6.2,18.8c3.8,8.7,11.7,14,11.7,14l5.1-2.4,6,6.3c3.1,3.2,4.5,3.6,4.5,3.6s4.7,4.7,8.8,6.9a38.8,38.8,0,0,0,8.6,3.2l-1.6-8.5A35.6,35.6,0,0,1-300.6,9a15.7,15.7,0,0,1,3.8,6.4l-2.6,3.4a148.8,148.8,0,0,0-10.7,16.6h-18.3s-7.6-3.7-13.8-1-9.6,10.1-9.6,10.1-6.8,2.3-10,5-3.6,9.6-3.6,9.6a19.1,19.1,0,0,0-4.5,4.6c-2.4,3.2-2.3,9.8-2.3,9.8s-3.9,7.2-1.8,13.9,18.2,20.2,18.2,20.2,10.8-.1,15.6-2.4,5.4-4.8,5.4-4.8a27.4,27.4,0,0,0,4.8-3.1,9.6,9.6,0,0,0,3.5-5.5l3.1-2.1s23-2.2,26.8-3.4,4.5-3.7,11-10.3,22.8-13.3,22.8-13.3-.7,3.7,1.5,9.1,6.2,5,6.2,5,.5,4.6,2.8,7.6a9.9,9.9,0,0,0,5.9,3.5s-2.3,1.5,2.1,7.9,9.5,7.1,9.5,7.1a12.1,12.1,0,0,0,2.3,5.5c2,2.6,6,7.2,13.4,6.6s32.7-12,32.7-12l5.8-10.2c3.4-5.8,6.1-6.5,12-8.2s7.8-2.2,8.8-4a49.5,49.5,0,0,1,3.7-4.8l6.6-.5s10.7,5.6,30.4,5.1S-91.3,75-91.3,75l-.8,1.7c-.8,1.7-4.3,5.8-4.3,5.8s4.3,2.1,15.2-1.3,13.6-10.5,13.6-10.5.1,1.4.3,3.9a30.6,30.6,0,0,1-.3,5.7,9.9,9.9,0,0,0,3.8-1.7,13.5,13.5,0,0,0,2.6-2.3s5.2,2.2,19.3,2.7a85.8,85.8,0,0,0,27.3-4.1l-2.4-.8a58.4,58.4,0,0,1-5.9-2.6s2.8.5,9.8,1,26.7.9,26.7.9,5.2,13,36.6,33,58.6,17.5,58.6,17.5a83,83,0,0,1,14.4,16.7A182.1,182.1,0,0,1,136,164.4a46.8,46.8,0,0,1,.6,6.4c.2,4.8-.2,18.9-.2,18.9s-6.5,9.9-7.6,15.9,5.6,15.8,5.6,15.8.7,2.8,5.1,7.1,7,3.9,7,3.9,1.6,3,6.4,4.7,11,0,11,0a16.3,16.3,0,0,0,9.7,3.4c6.2.2,15.5-4.5,15.5-4.5s-.7-2.2-3.8-13.9,1.3-28.8,1.3-28.8-3.7-6.8-6.7-19.9,1.4-21.2,1.4-21.2-6.6-7.8-13.9-17.9a106,106,0,0,1-11.5-20.8s8.7.4,22.3,1.7a174.9,174.9,0,0,0,27.9,0s13.3,6.6,29.6,21.8,35,39.9,35,39.9,1,13.2.4,19.7-5.3,17.4-1.8,24.9,13.5,11.1,13.5,11.1,1.2,1.1,5.5,2.3a10.8,10.8,0,0,0,7.8-1,18,18,0,0,0,8.6,3.5c5.1.6,9.6-5.6,9.6-5.6s2.3,1,9.1,1.5,14.9-5,14.9-5A161.4,161.4,0,0,1,328,208.6a57.6,57.6,0,0,1-4.9-23.7s-4-6.3-10.8-17.7S305,138,305,138s-21.8-13.2-34.8-30-21.1-37.5-21.1-37.5l-6.1-3.1c-5.2-2.5-22.7-14.6-31.5-33.3S190.8-7,190.8-7,228.4-16.5,259-51ZM-311-145.2s1.1.2,3.5,2.4,3.9,6.6,3.9,6.6-2.4-.1-7.5,2.2-9.3,8.8-9.3,8.8C-316.3-139.9-311-145.2-311-145.2ZM-331-14.7a61.8,61.8,0,0,0-8.6,3.6,63.6,63.6,0,0,1-7.7-9.9c-2.7-4.7-6-17-6-17s4.2-12.3,7.1-14.8,8.7-4.2,8.7-4.2a58.9,58.9,0,0,0-7.6,14.3s-.1.8,2.5,5.3a35.9,35.9,0,0,0,6.2,7.8l-.7-.8a9.6,9.6,0,0,1-1.3-2.6s.3-.9,3.5,2.4,1.5,3.7,1.5,3.7l1,.6,4.1,2.7a18.3,18.3,0,0,0,.9,4.3,21.3,21.3,0,0,0,1.8,3.3S-326.7-16-331-14.7Zm-9-48.6s1.1-2.5,2.6-2.6l5.7,3.5-3.1,2.2a4.8,4.8,0,0,1-3.1-1.3A10.1,10.1,0,0,0-340-63.4Zm38.6,66.5a113.3,113.3,0,0,0-10.5-6.4,40.5,40.5,0,0,0-.6,4.3,33.2,33.2,0,0,0,.3,5,18.2,18.2,0,0,1-3.6-1.7A28.5,28.5,0,0,1-319.8.7a22.3,22.3,0,0,1-1.7-5.2,53.7,53.7,0,0,1-1.1-8.7c10,1,20.8,1.7,20.8,1.7a27.1,27.1,0,0,0,5.1,5.2A27.1,27.1,0,0,0-290-2.1l.6-2.6A81.4,81.4,0,0,1-287,3.7a18.4,18.4,0,0,1-1.3,11.1c-1.3,2.7-1.1,6.8-1.1,6.8l-2.2-1.6a22.6,22.6,0,0,0-.9-6.1C-293.6,10-296.1,6.9-301.4,3.2Zm-57,49.7a14.5,14.5,0,0,1,7.1-3.5s.2,3.2,3.7,9.9,10.5,13.9,10.5,13.9l5.6,2.7s-5.5,3-7.1,7.5-.3,5.8-.3,5.8-.6.3-8.1-6.5S-360.7,64-360.7,64-361.8,56-358.4,52.9Zm-5,12.4s5.6,11.3,10.5,16.7a61.5,61.5,0,0,0,10.2,9,35.2,35.2,0,0,0-4.2,4.1,9,9,0,0,0-1.3,2.2s-7.6-5.2-12.3-12-5.7-9.8-5.7-9.8S-368.8,70.6-363.4,65.3Zm10.2,36.3a10,10,0,0,0-.6,1.7,60.5,60.5,0,0,1-10-9.2c-5.2-5.9-6.3-9.6-6.3-9.6s-1.7-2.8,1.1-7.7a119.1,119.1,0,0,0,8.6,12.9,66.6,66.6,0,0,0,9.5,9.1A8.7,8.7,0,0,0-353.2,101.6Zm10.4,2.6c-2.9,1.3-7.8.6-7.8.6s-.7-.6-.1-2.2,2.8-2.7,2.8-2.7l4,.3a39.4,39.4,0,0,0,5-.4A7.4,7.4,0,0,1-342.8,104.2Zm8.3-7.5c-4.3,2.2-10,.9-10,.9s3.3-4.7,6.8-5.9,8.5-.9,8.5-.9S-330.2,94.6-334.5,96.7Zm9.3-10.6c-3.3,2.1-10.3,1.7-10.3,1.7a8.5,8.5,0,0,1,.7-3.6c.8-2,3.1-3.9,6.7-5.6s9.8-1.3,9.8-1.3S-321.8,84-325.2,86.1Zm15-14.4c-5.1,2.9-14.1,1.5-14.1,1.5l.8-1.5c.8-1.5,6.8-6.8,10.2-7.6s8.9.1,8.9.1A11.7,11.7,0,0,1-310.2,71.7Zm24.5-20-12.8,8.8a38.9,38.9,0,0,1-6.3-1.1,11.9,11.9,0,0,0-6.7.3,49.6,49.6,0,0,0-6,1.9c-4.4,1.6-11.3,10.9-11.3,10.9s-5.3-1.2-8.5-4.4-10-15.4-10.7-19.2.9-5.2,6.4-9.3,9.4-1.8,9.4-1.8a16.5,16.5,0,0,0,4.4,3.9c2.7,1.6,6.9,1.3,6.9,1.3a7.9,7.9,0,0,1-2.5-1.6,4.7,4.7,0,0,1-1.2-1.7l7.2.3c3.9.1,10.6.5,10.6.5l1-1.6c1-1.6,4.1-6,4.1-6l-5.9,4.2s3.2-6.4,5.7-8.9l6.4-6.4a42.3,42.3,0,0,1,.3,6.5c-.2,7.9-.3,10.1-.3,10.1s3,6.3,7.5,10.3a34.4,34.4,0,0,0,3.2,2.5Zm4.2-2.4s-8.3-6.8-9.7-10.3-.8-8.9-.8-8.9l3.1,4.2-.2,2c-.2,2,2.7,4.1,2.7,4.1s0-.7,1.9-2.6,17.4-3.3,26.9-5.4,9.1-7.4,8.3-15.6-5.5-18.3-6.6-33.3,3.1-29.5,3.1-29.5l1.3.2a18,18,0,0,1,3.6,1.7,15,15,0,0,0-13.1-7.1c-9.2.1-16.9,6.7-16.9,6.7s.1-.5-.9-3.4-2-3.6-2-3.6,1.6,6.6-1.5,16.3-13.3,19.9-13.3,19.9l-25.6-1.1a5.3,5.3,0,0,1-2.7-2.9,10.3,10.3,0,0,1-1-4.6l2.6-1.1c2.4-1.1,4.7-4.6,4.7-4.6s-3,1.7-2.5-.5,5.7-6.8,6.4-5.1a4.2,4.2,0,0,1-.7,3.6s2.9-1.2,4.9-6,1.6-11.4,1.6-11.4-1.9,3.1-7.7,7.5-15.7,7.5-15.7,7.5a14.9,14.9,0,0,1-5.4-2.5c-2.5-1.9-5.1-6.2-5.1-6.2s.3-1.6,4.5-8.9a42.4,42.4,0,0,1,10.6-11.9,12.9,12.9,0,0,1-3.4-6.5,11.6,11.6,0,0,1,.6-6.1,5.4,5.4,0,0,0-2.3,2.9c-.9,2.2-.5,6.5-.5,6.5a71.8,71.8,0,0,1-7.3-6.5c-3.1-3.3-6.6-7.8-6.6-7.8a5.9,5.9,0,0,0-2.4,4,20.6,20.6,0,0,0,.6,6.8c-.1-2.4,2.4-4.3,2.4-4.3l1.7,2.6a16.9,16.9,0,0,0,3.6,3.5l-1,1.4a32.5,32.5,0,0,0-2.2,4.8l1.8.2a5.3,5.3,0,0,1,.3.9,10.1,10.1,0,0,0,2.1,2.4l-2.2.4-3.6.9s-.3-1.2-2.1-5.6-6.6-13.5-6.6-13.5a10.2,10.2,0,0,1,1.4-2.7c1.3-2.2,6.7-7.4,12.9-13.9s18.9-25,23.5-32,17.5-7.2,17.5-7.2a12.5,12.5,0,0,0-2.1,1.8,45,45,0,0,0-4.4,5.6s9.6-7.5,17.5-11.5,32.9-3.8,32.9-3.8l1.8,3.2c1.8,3.1,6,5.4,6,5.4s-.9-7,6-12.7,18.4-10.4,18.4-10.4,13.3,18.3,13.5,26.9S-210-117-210-117a8.6,8.6,0,0,0,2.7-1.6,6.2,6.2,0,0,0,2.2-3.4,79.2,79.2,0,0,1,12.8,6.1c7.9,4.5,18.2,14.9,18.2,14.9a9.2,9.2,0,0,0-4.4-.8,17.7,17.7,0,0,0-5.3,1.3s10.9,9.1,13.8,22.8,2.3,28.8,2.3,28.8a56.9,56.9,0,0,0-3.1-5.1c-2-2.9-6.2-5.1-6.2-5.1s.9,3.7,1.1,17.8-4.6,21.9-4.6,21.9-.3-2.2-3-6.6a34.8,34.8,0,0,0-6.1-7.3,74.2,74.2,0,0,1-1.6,8.7c-1.4,6.2-6.5,11.1-6.5,11.1a42.9,42.9,0,0,0-.6-7.9c-.7-3.8-3.6-10-3.6-10A40.6,40.6,0,0,1-213-18.7a47.2,47.2,0,0,1-16,8.1,21.5,21.5,0,0,0-6.2,8.3c-2.3,5.4-4.3,18.5-4.3,18.5a15.2,15.2,0,0,0-1.2-3.5c-1.2-2.8-2.1-10.4-2.1-10.4s-1,12.9,3.4,19.8,8.5.7,8.5.7,2.5,8.8-17.9,19S-281.5,49.4-281.5,49.4Zm3.8-63.2A53,53,0,0,0-272.3-.3s-2.9-14.6-1.9-23,7.6-13.1,16.3-16.1a118.2,118.2,0,0,0-2.5,21.2c-.2,11.1,3.6,29.8,3.6,29.8a22.9,22.9,0,0,1-5.3-.3l-2.6-.7s.4,3.2,1,6.1a19.4,19.4,0,0,0,.8,3.3s-5.9-2.3-9.4-4-4-2.4-4-2.4a34.7,34.7,0,0,0,.2,6.9c.5,3,.7,3.8.7,3.8l-7.2,1.4-1.1-1.6s-1.5-6.7.2-10.1,3.1-5,2.3-10.8-4-12.7-3.2-19,5.4-12.4,5.4-12.4A55.7,55.7,0,0,0-277.7-13.8Zm437,148.2c6.9,8.7,13,18.2,13,18.2s-2.5,11.4,0,21.7,4.7,15.2,5.2,19.7-1.3,7.9-.7,18.3a92.7,92.7,0,0,0,2.3,17.1l-5.3,3.7s-7.2,1.9-10.7-5.1,2.1-19.7,2.1-19.7-5.5,4.6-7,10.9,1.9,13.3,1.9,13.3-10,.1-10.6-10.9,3.3-14.7,3.3-14.7-6.2,5-7.3,10.8.9,8.5.9,8.5-8.2-3-6.6-11.6,3.9-11.5,3.9-11.5-5,3.2-5.9,7.6-.7,5.8-.7,5.8-4.7-6.9-.9-14,5.3-8.9,5.3-8.9,1.3-7,1.9-13a103.2,103.2,0,0,0,.2-12.4l4.3,4.7s-3.1-7.4-10.7-22.8-21.3-30.7-21.3-30.7l6.5-4.1s-37.6,8.5-81.8-27.5c0,0,20.6-4.2,37.2-5.3a98.1,98.1,0,0,1,30.6,2.9s10.4,10.4,22.5,16.3,15,7.4,15,7.4S152.4,125.8,159.3,134.4ZM241-42.3c-35.7,29.1-58,26.9-58,26.9l-7.6-5.8s16.7,29.3,25.8,53.6,25.9,37.8,31.6,40.3S244.1,78,244.1,78s8.4,20.7,21,37.1,31.5,27.5,31.5,27.5,1.2,15.6,8.4,29.8,10,18.6,10,18.6,3.2,19,8.7,26.6l5.5,7.6s-15.5,5.3-21.4-4.8-3.4-16.7-3.4-16.7-3.8,2.7-1.9,12.2,8.8,11.9,8.8,11.9-6.3,7.9-14.3.5-4.4-24.8-4.4-24.8-5,7.6-4.5,15.7a14.8,14.8,0,0,0,6.8,11.8s-12.3,1.8-14.6-9.9,2-16.7,2-16.7a18.5,18.5,0,0,0-4.6,11.5,21.9,21.9,0,0,0,3.9,12s-6-1.2-7.9-11.3,2.8-19.8,2.8-19.8l1.2-12.3,5.7,9.7s-1.1-14-21.8-37.9A528.1,528.1,0,0,0,219,112.9l5.7-5.3s-54.9,5.4-91.5-16.1S83.1,30.8,83.1,30.8a91.1,91.1,0,0,0,6.2,26.7c5.5,13.2,7.6,17.1,7.6,17.1s-48.5-7.6-70.5-8.5-45,.3-52.7-1a88.9,88.9,0,0,1-13-3.1,44.7,44.7,0,0,0,6.4,7.5l4,3.7s-15.2.9-22-.1a66.2,66.2,0,0,1-7.8-1.4s3.2-5.7,3.7-7.9a24,24,0,0,1,.8-3.3A13.4,13.4,0,0,1-50.9,64c1.7,2.4,1.7,3.1,1.7,3.1a74.2,74.2,0,0,0-1.4-40.6c-7-22.2-17-41.3-24.2-49.1S-92.3-35.8-92.3-35.8A95.5,95.5,0,0,1-71.2-8.7C-63.1,7.5-60.7,20-60.7,20l-3.4-1.4a61.4,61.4,0,0,1,9,15.3c4.2,9.8,4.6,23.2,4.6,23.2s-2.8-5.9-3.8-6.9l-1-1a51.5,51.5,0,0,1-3,12.3,46.1,46.1,0,0,1-4.6,8.5s-.8-6.4-2.6-9.5A17.6,17.6,0,0,0-67.7,57s-1,8.7-7,13.8a45.8,45.8,0,0,1-13.7,7.5s5-7.4,6.4-12.5l1.4-5.1s-12.1,14.3-36.6,13.5S-153,69.7-153,69.7l5.3-3.5s-4.5-.6-10.6,3.6-2.9,5.8-7.5,7.7-10.6,0-17.4,8.4-8.8,13-8.8,13-22.6,10-27.2,10.4-9.8-7.1-9.8-7.1,6.6-13.1,12.1-15.5,13.2-1.2,13.2-1.2-.4-1.7-3.5-3.3a34.3,34.3,0,0,0-8.3-2.5,32,32,0,0,0-9.1,7.2A58.2,58.2,0,0,0-232,97.3s-3.9.6-7.2-3.4-2.4-5.6-2.4-5.6,8.9-12.3,13.3-15,4.6-2.8,4.6-2.8a32.5,32.5,0,0,1,8.4,1.5l4.2,1.6a72,72,0,0,0-7.3-5.4,16.3,16.3,0,0,0-6.3-2.1,73.4,73.4,0,0,0-11,8.3,58.5,58.5,0,0,0-7.3,8.7s-3.6.5-5.1-2.6a22.7,22.7,0,0,1-1.4-3.3s3.4-9.6,9.4-14.1a58.4,58.4,0,0,1,10.2-6.4,18.9,18.9,0,0,1,6.8.8,22.4,22.4,0,0,1,5.2,2.4,51.7,51.7,0,0,0-6.7-5.1,24.4,24.4,0,0,0-7.4-2.3s-6.6,2.6-11,6.9-8.7,13.3-8.7,13.3a11.6,11.6,0,0,1-4.2-2.6,6.4,6.4,0,0,1-1.7-3.7s5.8-10,10.5-14.1a27.2,27.2,0,0,1,10.6-5.3,84.1,84.1,0,0,1,10.1.3l7.9,1.1s13.1-7.3,19.2-12,8.7-8.2,14.2-9.3,20.1,3,38.1-1.1,22.9-8.4,38.2-10.3,21.1.5,21.1.5a29.4,29.4,0,0,0-16.3-5.1c-9.7-.1-28.5,6.3-28.5,6.3S-149.5,3-157.5-1.5s-15.7-13.1-16.8-17.6l-1-4.2a36.4,36.4,0,0,0,2.3-6.2c2.1-8,1.2-20,1.2-20a19.1,19.1,0,0,1,3.2,4.6c1.3,2.7,1.9,4.1,1.9,4.1s5.2-10.4,2.5-29.9S-174-97.4-174-97.4a11,11,0,0,1,5.2,1.8l2,1.6s-1.4-9.9-16.9-20.5-20.2-11-20.2-11,.5-2.8-1.5-8.6c3.9-2,8.6-4.3,11.7-5.6a63.4,63.4,0,0,1,8.6-3s7.1.4,12.2,1.2a25.8,25.8,0,0,1,8.1,2.5l-3.8,3.6h-3.7s-5.4,2.2-8.4,5.1a41.7,41.7,0,0,0-4.7,5.4l13.5-6.1s8.6,0,14.9,2.8a89.6,89.6,0,0,1,9.4,4.7,49,49,0,0,0-5.9-7,38.1,38.1,0,0,0-5.6-4s8.2-4.2,15.8-5.7a87.6,87.6,0,0,1,16.8-1.1,232.8,232.8,0,0,1,27.6,20.2C-85.5-109.1-79-97.9-79-97.9s-2.2-6.8-3-9.7a12.6,12.6,0,0,0-1.6-3.9s46.1,12,81.7,25.1a487.4,487.4,0,0,1,60.8,27S48.5-69,41.2-73.7s-8.7-5.2-8.7-5.2,27.5-2,64.7,10.2,67.3,37.9,67.3,37.9l-8-13.1S215.6-21.6,246-92.1s35.8-97,50.1-115.4,29.3-20.6,29.3-20.6.5,3.4.6,7l.2,3.6,2.6-4.6.3,6.2s-31.3,14.8-40,53.9S276.6-71.4,241-42.3Z" transform="translate(374.7 241.5)" style="fill:#040604;fill-rule:evenodd"/><path d="M-272.9-81.8s-4-4.8-9.6-4.6-8.9,4.5-13.3,8.5S-310-67.7-310-67.7s-6.8,1.2-5.5-10.4c0,0-2.3,5.8-.6,9.5s7,5,7,5l2.7-1.7-1,2.7a72.7,72.7,0,0,0-1.5,8.1,28.2,28.2,0,0,1,2.8-4.9,12.6,12.6,0,0,1,4.6-3.8,23.9,23.9,0,0,0,3.8.4h3.7l-1.7.7c-3.1,1.3-9,7-9,7a28.4,28.4,0,0,1,11.2-5.1l3.9,1.4a26,26,0,0,1,7.3,4.5s0-1.8-2.2-4.6-5.7-4-6.7-4.3l2.7-1.6a67.1,67.1,0,0,0,7.4-5.6h4.1a19.2,19.2,0,0,0-5.2-4.4,15.6,15.6,0,0,0-6.8-1.9c4.5-2.9,7.6-4.3,10.7-4.7A18.8,18.8,0,0,1-272.9-81.8ZM-288.1-71c-1.3.5-1.7,3.6-5.5,5a11.1,11.1,0,0,1-7.4-.1l.4-2.3,6.9-4.4a9.7,9.7,0,0,1,3,.3A11,11,0,0,1-288.1-71Z" transform="translate(374.7 241.5)" style="fill:#040604;fill-rule:evenodd"/><path d="M-225.7-132.6a9.7,9.7,0,0,0-3,1.2,10.1,10.1,0,0,0-1.6,1.3,11.8,11.8,0,0,1,1.5-4.4c1.2-1.8,1.8-2.6,1.8-2.6a11,11,0,0,0-4.3.6l-3,1.1s1.9-7.3,11.4-13c0,0-8.8,3-12.4,7.5a17.8,17.8,0,0,0-3.5,10.5,15.1,15.1,0,0,1,4-2.5l2-.7a14.7,14.7,0,0,0-.7,5,14.7,14.7,0,0,0,1.1,4,19,19,0,0,1,3.1-3.1l1.1-.6a9.7,9.7,0,0,0,1.6,4.7c1.5,2.2,5.4,3.5,5.4,3.5a21.6,21.6,0,0,1-3.7-7.2A20.8,20.8,0,0,1-225.7-132.6Z" transform="translate(374.7 241.5)" style="fill:#040604;fill-rule:evenodd"/><path d="M-344.4-16.8l1.9,2.4,1.7-1c3.2-1.9,3.5-4,3.5-4a6.1,6.1,0,0,1-3.1,1.5l-4.1,1m-4-6.5a23.6,23.6,0,0,0,1.1,2.2l.5.8,2.6-.6a13.1,13.1,0,0,0,5.9-3.2s-2.1.3-6.1.5Zm101.2-92s11.8,6.9,15.7,10.9a36.5,36.5,0,0,1,5.8,7.6l-4.8,16.3,16,19.7a54.4,54.4,0,0,1,1.6,14,70.7,70.7,0,0,1-2,15,40.6,40.6,0,0,0,8.3-18.5c2.1-11.6,2.1-14.1,2.1-14.1l-15.3-18,4.2-15.2S-225.3-112.1-247.1-115.3Zm-10.8,16.5,10.4,15.3-6,17,16.1,12.8a89.6,89.6,0,0,1,1.1,14.1c.1,8.9-2.9,18.2-2.9,18.2s6.1-6.8,9.8-18.8,3.2-17.5,3.2-17.5l-14.9-13.1,2.6-13.3S-243.9-92.7-257.9-98.8Zm-5.7,17.5-3.7,13.1s-2,2.8-7.2,4.6-6.5,1.8-6.5,1.8a21.9,21.9,0,0,0,9.4,1.3,18.8,18.8,0,0,0,8.9-3.5S-261-77-263.7-81.3Zm-22.8-28.4a24.6,24.6,0,0,1,10.8,1.3,23.6,23.6,0,0,1,7.9,5.1s9.3-1.2,14.5-.5,11,4.5,11,4.5-2.3-5.1-6-7.8-5.6-3.3-5.6-3.3l-11.7.9-7.8-3.6S-281.6-112-286.4-109.7Zm-16.5,19.8s3-6.2,7.8-9.9,8.3-4.4,8.3-4.4,6.1.3,10.2,2.7a18,18,0,0,1,5.5,4.7s-6.1-2.2-10.2-2.2h-4.5A44.2,44.2,0,0,0-302.9-89.8Zm-31.1-6,9.3,6.1-1,9.2Zm33.3-4s-5.4,4.9-10.4,10.1a54.5,54.5,0,0,0-6.7,8.2s.8-9.9,1.3-10.5S-300.8-99.9-300.8-99.9Zm-13.2-2s6.3-7.3,11.9-11.2a47.8,47.8,0,0,1,9.6-5.4,22.8,22.8,0,0,1,9.3-.1,30.3,30.3,0,0,1,8,2.2S-297.1-112.3-314-101.8Zm3.6-11.3c.3-.5,15.2-9.6,20-11.6l5.9-2.3,13.4-.6-19.3-3S-307.5-122.7-310.4-113.1Zm3,80.5a80,80,0,0,0,13.4-6,27.1,27.1,0,0,0,9-9.4s-.9,7-4.1,10.1a30.2,30.2,0,0,1-4,3.6S-303.8-31.5-307.4-32.6Zm-34.2-58.2-3.2,3.4h2.3a33.4,33.4,0,0,1,7.4,1.3,12.4,12.4,0,0,0-4-3.6A14.8,14.8,0,0,0-341.6-90.8Zm15.6-19.6-3.6,4.9c2.3,1.7,7.7,4.7,7.7,4.7s-.4-4.6-1.9-6.8S-325.4-109.7-326-110.4Zm8.2-11.8-2.8,4.1c2.2,1.7,6.5,5.7,6.5,5.7a13.9,13.9,0,0,0-2-7.5Zm33.4,92.1a31.7,31.7,0,0,0,2.2-5.1v-.2c-2.2,1.5-7.9,5.1-11.5,5.7s-12,1.1-12,1.1c3.8,1.8,13,1.9,13,1.9Zm-6.5,9.5,2.9-3.8a34.6,34.6,0,0,1-4.5.5,116.9,116.9,0,0,1-13.6-.6C-301.5-21-294.7-20.5-290.9-20.6Zm81.3-79.3s5.9,8.7,7.1,14.6a44.8,44.8,0,0,1,.4,12.1l3.1,7.3s3.3-6.1,3.9-11.6a70,70,0,0,0,.6-8.7A98.3,98.3,0,0,0-209.6-99.9ZM-352.6-35.5c.5,1.7,1.2,4,2,6.3l2.2.6a27.9,27.9,0,0,0,6.9.4s-1.9-.3-6.1-2.9A22.8,22.8,0,0,1-352.6-35.5Z" transform="translate(374.7 241.5)" style="fill:#040604;fill-rule:evenodd"/><path d="M-130-137.3s1.7,13.6,1.8,21.7-.4,9.3-.4,9.3L-153.2-74s-4.8,8.3-4.4,21.5,5.3,26.7,5.3,26.7,2.5-33.9,5.2-40.5,2.7-6.9,2.7-6.9l22.7-29.3s-.1-18.3-8.4-34.8m24.8,41.9a207.5,207.5,0,0,1,5.6,24.5c1.5,10.8.9,14.5.9,14.5s-7.6,13.3-12.1,22-5.2,22.6-5.2,22.6,6.6-14,12.4-21,13-20.8,13-20.8A82.4,82.4,0,0,0-105.2-95.3Zm67.6,17.1s1.8,24.7,2.1,35.9-.1,13.8-.1,13.8S-31-5.1-30.3,8.1a129.6,129.6,0,0,1-1.3,24.8s6.4-18.3,6.4-34.4a156.5,156.5,0,0,0-1.9-26.4S-26.9-62.5-37.6-78.3Zm34.2,8.1-.4,36.6,2.3,44.1c.1,2.5-7.9,17-10.3,25a64.9,64.9,0,0,0-2.2,17.3S-4.9,31.5-1,25.4A38.5,38.5,0,0,0,3.9,11.7S6.4-34.1-3.4-70.2ZM18.7-18.4S23.3,0,24.1,9.8s1,14.6,1,14.6S22,29.9,17.9,36.6s-7.6,16.7-7.6,16.7,0-16,4.2-22.7,5.1-9.8,5.1-9.8S22-3.9,18.7-18.4Zm4.9-46.4L37.6-29.5S40.6-7.7,39.9,6.1a120.3,120.3,0,0,1-3.1,22.7S47.5,11.1,48-.7s-1.6-30.3-1.6-30.3S38.5-50.1,23.6-64.8Zm37,45.7A191.4,191.4,0,0,1,59.8,15C57.7,34.2,52.1,46,52.1,46L66.8,24.7S66.7-4.2,60.6-19.1Zm2.4-46a210.7,210.7,0,0,1,7.3,27.2c3,15.3,2.6,22.7,2.6,22.7S74,.2,76.9,7.3s10.1,15,10.1,15S80.7,10.2,81,.4s.8-29,.8-29S68.7-58.4,63-65.1Zm17.6-3.4S91.4-50.3,94.8-33,96,23.5,96,23.5s2.3,12.8,6.8,22.2,8.9,14.2,8.9,14.2-8.6-29.7-8-34.5l.6-4.8S115.6-38,80.6-68.6Zm39.9,26.1s5.4,18,6.2,32.1-.5,17.2-.5,17.2-4.9,25.3-4.6,35.7,5.6,32.1,5.6,32.1.9-32.7,1.8-41.8,6.8-26.2,6.8-26.2S130.3-26.7,120.5-42.5Zm68.2,68.3a116.8,116.8,0,0,1-2.4,24.9c-2.7,12.5-3.9,16.5-3.9,16.5s-.9,10.5,2.7,18.7,5.9,11,5.9,11V75.2S192.8,38.8,188.7,25.8Zm14.5,24.9s.1,13.8-.2,23.1-1.8,13.3-1.8,13.3l6.2-15.5ZM-111.8,18.6A29.2,29.2,0,0,1-98,21.1,115.2,115.2,0,0,1-85,28.9l-2.8,3.5a13.8,13.8,0,0,1,8.7,4.8,59.4,59.4,0,0,1,6,8.1s-9.3-6.1-16.1-8.5l-9.6-3.4s4.6-2.9,3.6-4.4S-102.3,22.3-111.8,18.6Zm-21.4-1.7c-1.6-1.3-6.7-5.7-12.2-9.9-.3-7.4-.3-22.4,3.5-33.3,5.3-15,20.2-28.6,20.2-28.6s4.4-8.1,5.6-15.2a140.2,140.2,0,0,0,1.4-16.1A134.4,134.4,0,0,1-112-66a63.8,63.8,0,0,1-1.8,19s-11.8,14.5-15.6,27.1C-132.6-9.5-133.1,10.4-133.2,16.9Zm20-4.8c-3.2.6-6.6,1.4-9.6,2.3,1-3.1,3.8-10.7,8.2-16.2,5.7-7,14.6-10.7,14.6-10.7s-6.3,7.9-9.5,14.7A59.6,59.6,0,0,0-113.2,12.1Zm-33,13.6a214,214,0,0,0,20.5-6.2A39.7,39.7,0,0,1-114.5,27a55.8,55.8,0,0,1,10,13.7s-15.8-11.9-25.2-12.9Zm67.9-46a87.4,87.4,0,0,1,5.5,8.5l-4.6,5a33.7,33.7,0,0,1-8.3,2.9c-5.6,1.3-13.7,1-13.7,1s6.1-2,10.1-5.6A158.4,158.4,0,0,0-78.3-20.3Zm.4-5.4a66.1,66.1,0,0,0-5.5-4.4,24.1,24.1,0,0,0,1.1-8.4c-.1-6.9-2-17.9-2-17.9C-77.3-44.6-77.5-31-77.9-25.7ZM-62.5-3.3A99.6,99.6,0,0,0-73.4-21.1c.4-1.7,1.2-6.7,1-18.1-.3-14.6-4.2-32.4-4.2-32.4C-59-53.5-61.2-15.9-62.5-3.3ZM160.6,102.5a122.6,122.6,0,0,1-15.8-5.3l-3.3-22,8.3-34.8-.6-11.2c-.6-11.2-2.7-42.1-2.7-42.1,8.4,14.8,15.7,48.5,15.7,48.5L155,75.9ZM178.5-15.6c2.5,4.6,6.2,11.5,10.1,19.5l-1.9,9.9L172.3,44.9l-4.6,25.6V40.7l8.7-28.3ZM195-16.9a47.5,47.5,0,0,1-10.3,1.5,72.2,72.2,0,0,0,.6-10,28.1,28.1,0,0,0-1.3-8.7,20.5,20.5,0,0,1,8.7,10.4C193.9-20.3,194.6-18.2,195-16.9Zm87.9-113.9c-.8,4.2-1.7,8.4-2.7,12.7-1.6-4.9-3.9-11.2-5.8-14-3.3-4.9-4.2-5.7-4.2-5.7s6.2.2,10.1,4.3Zm14.5-53.3q-1.7,3.1-3.2,6.5a13.9,13.9,0,0,0-5.3-2.3l-4-.4s8.2-4.4,11.6-4Zm-8.2-12.7a81.6,81.6,0,0,1,5.8-9.3,23.1,23.1,0,0,1,11,9.3c-1.2,1.5-2.4,3-3.6,4.7a15.8,15.8,0,0,0-4.2-2.9A21.9,21.9,0,0,0,289.2-196.8Zm-17.9,42.6,2.8-7.3c2.8.3,8,1.2,11.5,4.6l2,2c-.8,3.9-1.6,8-2.4,12.1a16.7,16.7,0,0,1-6.1-7.8C277.8-154.8,273.8-154.7,271.3-154.2Zm-13.7,34.7,3-7.5a19.2,19.2,0,0,1,3.4,2.8c3.7,3.7,5.9,12.6,5.9,12.6a12.9,12.9,0,0,0-3.5-5.2C264.3-118.4,259.5-119.2,257.5-119.5ZM246.9-94.1l4.1-9.6c2.5.2,8,1,12.4,4s6.7,6.6,8.9,10.1a128.4,128.4,0,0,1-12.5,25.9c-.3-5.8-1.1-13.7-3.2-19.1A23,23,0,0,0,246.9-94.1ZM233.8-70.2q2.4-3.3,4.7-7.1a34.1,34.1,0,0,1,6.4,5.1c3.9,4,6.7,15.8,6.7,15.8l-8.2-8.3A19.3,19.3,0,0,0,233.8-70.2ZM219.9-55.4l4-3.6a36.4,36.4,0,0,1,9.7,10.5,38.6,38.6,0,0,1,4,8.8l-6.4,4.8a31.2,31.2,0,0,0-2.5-10.4C226.7-49.4,222.2-53.5,219.9-55.4ZM197.8-43.5A63.7,63.7,0,0,0,210.6-49a27.9,27.9,0,0,1,4.7,12.6,82.4,82.4,0,0,1,.9,10.9,109,109,0,0,1-9.9,4.8,114.7,114.7,0,0,0-1.8-11.8C203.6-37.3,200-41.3,197.8-43.5ZM95.7-69.2l1.5.5c4.5,1.5,9,3.2,13.3,5,.1,1.6.3,4,.6,7.4.7,8.7,1.5,29.8,1.5,29.8a85.8,85.8,0,0,0-7.7-24.1C100.8-59.1,97.5-65.6,95.7-69.2ZM1.5-85.1l12.2,4.8a64.1,64.1,0,0,1,2,9.2c.9,7,1.4,28.1,1.4,28.1a106,106,0,0,0-5.2-19.7A224.2,224.2,0,0,0,1.5-85.1ZM-34.3-97.3l15.4,5a99.5,99.5,0,0,1,5.1,27.5c1,19.7-2.8,44.1-2.8,44.1s.5-11.6-2.8-37.6A90.2,90.2,0,0,0-34.3-97.3Zm-38.8-11.4,16.1,4.5,3.5,10.6a59.5,59.5,0,0,1,2,28.6l-.9-6.7c-.9-6.7-2.7-9.4-2.7-9.4l.9,23.3s11.5,14.9,12.4,33.1-2.5,44-2.5,44a222.1,222.1,0,0,0-3.2-34.2c-3.3-19.5-16.1-41.5-16.1-41.5s.6-1.9-1.7-25.7C-66.8-96.3-70.4-104.4-73.1-108.6Zm-91.1-17.7,12.9,20.6a71.8,71.8,0,0,1-2.3,18.4,61.2,61.2,0,0,1-5.5,13.8l.7-27.1S-158.9-111.6-164.2-126.4Z" transform="translate(374.7 241.5)" style="fill:#040604;fill-rule:evenodd"/></svg>