<svg xmlns="http://www.w3.org/2000/svg" viewBox="0 0 389.55 371.49"><defs><style>.a{fill-rule:evenodd;}</style></defs><title>Tiger596_1c</title><path class="a" d="M372.75,148.47c-.37-1.07-.76-2.13-1.17-3.19,6.1,7.26,11.77,15.76,11.77,15.76s1.66-23.21-10.5-51.94c-19.31-45.64-68-68-68-68L276.71,24s5.53-14.92-10.5-16C253,5.77,233.63,9.32,223.3,13.51c-25.42,10.31-30.94,13.63-30.94,13.63l-8.5-12.28-.06,0A102.2,102.2,0,0,0,168.48,3s-.33,0-9,12.31c-1.7,2.42-3.43,5.23-5.11,8.18-.89,1.59-5.9,16.72-14.7,22.58-14.92,9.95-52.31,28.18-52.31,28.18l-3.89,8.25A12.26,12.26,0,0,0,80.24,84C75.6,85,70,86.33,67.85,87.55c-3.87,2.2,4.42,9.39,4.42,9.39l-6.63,4.42s-1.11-1.11-13.81,6.63c-10.2,6.21-3.31,13.49-.2,16.12a7.81,7.81,0,0,0-3.3,1.75c-3.31,3.32-2.58,6.63-2.58,6.63s-4.79.73-6.63,3.31a11.38,11.38,0,0,0-1.84,5.9s-4.79.73-6.63,1.84S8.55,165.64,6.34,171.9s-1.84,9.21-1.84,9.21S-.66,185.53.81,196.95,10,215.74,15.18,216.47s21,11.79,21,11.79-1.1,3.68,6.63,6.63,9.57,1.84,11,3a16.16,16.16,0,0,0,3.75,1.6c0,2,.72,6.33,5.56,7,1.12.14,6.72,1.33,7.74,1.38,1.53,1.09,4.78,1.1,9.66,3,8.84,3.5,15.29,4.15,16,2.49s-1.29-4.6-1.84-6.45a2.78,2.78,0,0,1-.09-.42l.28,0L106,249.17l1.8.92,20.38,12.73L137,268.5c-1.61,2.38-10.65,3.25-10.65,3.25s-8-1.88-9.83.58,1.74,6.36,4.19,8.53c5.69,5-13.12-2.42-13.12-2.42s-3.13,0-3.13,1.84c0,3.82,7.5,11.33,7.5,11.33s-4.83-.42-5.25,5.39c-.48,6.77,6.59,6.68,8.43,6.31s.37,6.63.37,6.63l7.36-1.84s-11.42,8.11-2.21,11.42c6.16,2.22,11.84,3.18,17.69,2.21,2.21-1.38,9.44-3.78,11.32-3l.68.25c-3.8,2.32-6.66,3.73-6.66,3.73s13.81,1.54,25.92-2.27c4.07-1.54,11.18-5.79,13.74-7.35l.78.5a19.7,19.7,0,0,1-1.68,4.64,59.53,59.53,0,0,1-5.71,3c-21,9.75-30.91,8.84-30.91,8.84s20.14,9.44,50.88,7.17c15.13-3.07,38.71-16.28,38.71-16.28s-10.07,15.27-27.46,23.32-28.25,9.79-28.25,9.79,26.88,5.61,62.79-8.48c2.72-1.07,4.9-2.86,7.06-4.3A127.57,127.57,0,0,1,223,359.34c-17.54,9.14-25.36,9.1-25.36,9.1s54,23.62,114.42-22.2c27.64-21,38.16-47.28,41.45-69.65l6.63,23.68s19.34-9.94,28.18-62.44C395.43,195.65,379.34,160.6,372.75,148.47Zm-141,199.29-.33.2.42-.32A.77.77,0,0,1,231.79,347.76ZM225.92,23.94C241,18.77,262.1,15.4,262.1,15.4s-9.44,6.29-8.09,23.14,12.58,26.75,16.63,30.35a22.43,22.43,0,0,0,6.05,3.77c1.51-5,1.22-7.74,1.22-7.74s24.77,13.67,40.79,49.71c13.26,29.83,9.95,50.83,9.95,50.83s-2.21-22.57-17.68-45.86c-7.41-11.16-19.47-17.28-25.38-22.22q2.87,10.32,6.63,23.08c13.5,45.51,12,68.19,12,68.19s-.66-12-11-41.25S259.78,95,259.78,95s.28-.19.75-.54l-.45,0s-.9-26.3-7.42-44.72-11-24-11-24a73.93,73.93,0,0,0-21.35,3.82A162.19,162.19,0,0,0,201.88,37S210.86,29.11,225.92,23.94ZM145.58,49.61l-.37,2.95,35.73-4.42L130.1,61ZM98.25,87.43c5.57-4.62,17.32-6.63,17.32-6.63-5.22,3.38-14.16,5.62-17.53,11.91-6.31,11.78,4,22.16-16.81,32.35C81.24,125.06,87,96.75,98.25,87.43Zm22.94-5.51a30.16,30.16,0,0,1,13.7-7.42,154.48,154.48,0,0,1,17.53-2.92,14.83,14.83,0,0,0,4,7.64c3.73,4,17.08,5.39,17.08,5.39a25.34,25.34,0,0,0-12.36,2.92c-6.52,3.37-8.54,7.64-8.54,7.64l-18,3.37S135,92,132.3,87a75.41,75.41,0,0,0-11.49,4.52c3,5,5.39,12.29-4.23,13.93-12,2-19.29,20.38-19.29,20.38l-9.43.11s12.44-2.27,13.32-17.59a104.59,104.59,0,0,0-6.55,8.84l6.46-13.62s0-.09,0-.13c-.67-7.4,2.42-11,6.28-13.08L108.44,88a103.91,103.91,0,0,1,15.46-2.49c2.53-.25,4.87-.47,7-.66C127.3,80.53,121.2,81.92,121.2,81.92Zm-7.5,36.28,5.4-6s2.27,10.2-2.5,15.39-10.62.95-10.62.95l1.71-2.41s2.29,2.55,5.83.17S113.7,118.2,113.7,118.2Zm4.59,15.11c8-5.49,8.32-17.3,8.32-17.3s8.15,12-1.83,24.95a41.91,41.91,0,0,1-6.19,6.49l-5.07.3c-2.72-1-6.43-2.64-7.54-4.46a7.23,7.23,0,0,1-.67-6S110.31,138.8,118.29,133.31ZM83.22,98.77l-7,25.85L71.08,123Zm-7.63,5.9S69,117.93,68.13,118.76s-5.25-3-5.25-3Zm-47.12,58.5A159.36,159.36,0,0,1,40.9,150.3c1.41.6,4.51.62,10.1.78,9.39.28,14.37-4.14,14.37-4.14s-8.06,2.87-14,1.24c-10.7-3,1.56-7.25,3.32-6.35,5.66,2.9,16,1.52,16,1.52S56.39,141.56,55.7,138a4.89,4.89,0,0,1,0-2c7.14-6,10.33-9.48,17.89-8.12,8.28,1.5,1.74,13.84,1.74,13.84l8.83-.31L99,146.77s-15.62-4-27.49,3.14-16.25,15.43-16.25,15.43a48.63,48.63,0,0,1,10.09-8.57c6.84-4.56,14.88-3.21,14.88-3.21a38.39,38.39,0,0,0-18,12,76.48,76.48,0,0,0-11.63,18.86s-5.28-7-16.7,1-20.17.28-20.17.28S12.62,181,28.47,163.17ZM17,206.53c-10.68-11.79-5.53-16.76-5.53-16.76S21.31,202.5,30,193.63c10.32-10.52,20.55-4.86,20.55-4.86s-.69,11.58-3.57,13.89-4-4.06-4-4.06-6.47-.36-7.41,6.91c-1.61,12.48,11.32,21,11.32,21S21.31,211.25,17,206.53Zm31,18.37c-8.17-7.33-.74-19.1-.74-19.1s2.42,5.08,5.17,1.74c7-8.53,4.9-19,4.9-19,4.08-6.32,8.33-13.87,16.39-17.12s13.44-.8,7.53,4.55S74,185.57,74,185.57s1.15-2.25,6.5-5.86a27.28,27.28,0,0,1,11.06-4.23,24.1,24.1,0,0,1,3.78-6.22c1.45-1.63.87,4.17.21,8.85-2.36,1.44-5,3.16-7.79,5.2a100,100,0,0,0-17.81,16.92,107.72,107.72,0,0,1,12.57-9c7.68-4.3,11.5-4.09,11.5-4.09A12.72,12.72,0,0,1,95.52,184a54.45,54.45,0,0,1,6.9,4.83,121.78,121.78,0,0,0-16.36,11.12C74.09,209.55,68,217.3,68,217.3a118.8,118.8,0,0,1,19.94-13.93c10.53-5.59,15.4-6.83,15.4-6.83l2.06-5c4.28,4.29,7.78,9.93,5.82,15.94-1.52,4.64-13.86,13.57-27.84,18.75a69.31,69.31,0,0,1-14.27.09c-10.82-1.42-14.2-6.62-14.2-6.62a18.87,18.87,0,0,0,10.64,10.46C58.82,230.44,52.63,229,48.05,224.9ZM82.22,241c-2.2-.92-2.95,0-2.95,0s-1.65.55-5.52,0a32.26,32.26,0,0,1-5.9-1.29,41.82,41.82,0,0,0,6.63-1.29c4.23-1.11,5.71-2.95,5.71-2.95s5.71,3.68,8.47,5.34S84.43,241.89,82.22,241ZM108.46,244c-10.81-1.72-22.35-10.32-22.35-10.32a19.77,19.77,0,0,0,9.58-2.21,47.15,47.15,0,0,0,7.12-4.17s15.48,13,19.41,15.47S119.27,245.76,108.46,244Zm18-47.92c-2.21,3.87-8.29,6.35-8.29,6.35a15.39,15.39,0,0,0,.55-9.39c-1.38-5-9.39-9.67-9.39-9.67a74.83,74.83,0,0,1,11.88,4.14C126.42,190,128.63,192.25,126.42,196.12Zm-21-17.68s1.66-15.75-11.33-17.13-20.72,3.6-20.72,3.6S80.56,155.79,88.3,153c10.86-3.88,14.92-3,14.92-3s.28.83,3.59,3.87a26.86,26.86,0,0,0,8,4.69l-1.65,4.14c-1.66,4.15.55,8.84.55,8.84s1.38,1.38,17.69,10.5,24,20.72,24,20.72a103.25,103.25,0,0,0-23.21-15.2A136.7,136.7,0,0,0,105.43,178.44Zm25.42,23.21a12.22,12.22,0,0,0,3-2.77c1.93-2.21-.28-6.08-.28-6.08s2.21-.28,18.23,11.6,29,32.6,29,32.6-2.76-3.87-18-19.07S130.84,201.65,130.84,201.65ZM121,277.42c-1.92-2.86,4.91-1.43,4.91-1.43s3.42,1.84,13.65,2.25,13.44.82,13.44.82-6.19,4.3-9,6.55a7.56,7.56,0,0,0-3,4.71S122.88,280.29,121,277.42Zm-1.34,13.08a25.34,25.34,0,0,0,5.16,1.84,4.58,4.58,0,0,0,3.87-.55s-1.29-3.31.18-2.95,6.63,3.87,6.63,3.87,2.95,1.29,1.66,2-4.79.74-10.87,0S119.61,290.5,119.61,290.5Zm34.17,19.8a33.78,33.78,0,0,1-25.69.28l6.07-2.77-6.62-1.93,5.52-1.93L124.49,302s12.71,1.38,16.85-.28,1.66-3.6,1.66-3.6l6.9-.55a14.87,14.87,0,0,1,3.32-4.69A19.88,19.88,0,0,1,159.3,289l7.18,3.87S167.87,304.5,153.78,310.3Zm59-36c19.14,28.39-11.45,47-11.45,47s8.79-14.37,2.6-37.71c-.13-.49-.27-1-.41-1.45A56.77,56.77,0,0,0,194.81,265c2.4,5.89,5.18,14.19,5.39,21.63.37,13.32.09,18.13-.7,18.62,0,0,.9-2.56-2.38-5.35a5.35,5.35,0,0,0-6.38-.71c-.75,1.95-2.76,4.85-8.15,7.27a25.63,25.63,0,0,1-17.56,1s21.76,1.08,23.32-23.74c.5-7.87-12.5-6.09-14-9.26,12.74,1.56,15.86-8.92,16.63-14.27-2.77-3.17-4.45-5.63-4.26-5.65-3.59-3-4.47-8.89-4.47-8.89s6.59,5.7,13.65-6c7.71-12.81,30.47-15.59,30.47-15.59-4.79,18.57-11,20.85-11,20.85s6.2-1.39,13.38-8,8.71-13.63,8.71-13.63.44,1.84-1.91,15.54-9.16,20-9.16,20,2.26.64,9.3-2.09A33.2,33.2,0,0,0,247,249.47s-8.39,16.54-22.1,16.29-26.09-8.58-26.09-8.58A136,136,0,0,1,212.76,274.32ZM232,284s27-39.09,27-64.7-8-33.6-8-33.6,1.33,4.66,1.67,16.3-5.32,18-5.32,18a151,151,0,0,0-2-21.29c-2-12.64-8-19-8-19L233.67,198a109.15,109.15,0,0,0-7-25.94,65.26,65.26,0,0,0-16.3-23s13,16.64,13.31,46.57a105.83,105.83,0,0,1-.93,15.79s-13.7-.06-24.35-5.81c-9.64-5.21-14-11.92-15-14.25.56,1.46.48,41.32.48,41.32s-.95-19.21-14.92-33.51c-12-12.29-35.75-19.5-35.75-19.5,19.62,1,25.61-12.64,25.61-12.64s-7,6.65-19.62,4.32-16.63-11-16.63-11,10.65-2.33,21.29-13,10.65-17,10.65-17-4.65,2-12.64-1.66-8.31-14-8.31-14l1-8,16-5-5.66,12.64a15.15,15.15,0,0,1,14,7.32c4.1,6.83,4.38,16.14,4.35,19.24.16-3.82,1.18-17.36,8-29.21a32.33,32.33,0,0,1,22.62-15.63s-8.65-2-16.3,1-10,8.31-10,8.31-2-6.32,5.66-13.3,17.63-6,17.63-6-8.65-3.32-20-8-5.66-13.3-5.66-13.3-12,1-22.62,3c-9.68,1.82-35.42,11.42-35.42,11.42q1.67-1.26,3.49-2.44c24.61-16,77.17-24.62,77.17-24.62s-6.35,21.36-6,22.28c1.83,4.66,18.13,9.32,18.13,9.32s-3.66,1.17-2.33,7.82,13.8,23.78,13.8,23.78,6.65.66,9.65,5.49c3.52,5.68,5.66,10.15,5.66,10.15s-14.14-7.82-30.77-7.16l-16.8.67s12.37,8.42,5.49,18a15.7,15.7,0,0,1-13.47,6.32s7.32,9.48-2.66,21.45-21.29,10.15-21.29,10.15,4.32,4.82,18.13,3.33,18.3-10.31,18.3-10.31,0,10.47,12.14,18.79,22.95,9.15,22.95,9.15-16.14-9.66-21.12-27.61c-5.49-19.79-1.83-40.75-1.83-40.75s40.61,7.91,60.37,39.08c27.55,43.45-1.41,101.71-4.81,119,0,0,6-40,2.7-33.71S232,284,232,284Zm88.92,5.82c-16.21,37.2-52.31,53-52.31,53a186.71,186.71,0,0,0,32-42.73c9.69-17.86,10.37-32.53,9.88-39.87-12.58,17.3-64.77,67.12-64.77,67.12s45.47-87.07,28.65-153.17c-7.14-28.07-41.58-52.55-41.58-52.55s-23.95-17.3-28.77-29.77c-2.47-6.4,3.49-8.31,3.49-8.31a65.54,65.54,0,0,1-16.47-10c1.39-5.68,2.12-16.65,11-25.94,13.3-14,33.93-15,33.93-15s2.66,1.66,10.31,21.63a49.73,49.73,0,0,1-1,37.25s-.84-2.35-11.64,0c-11.06,2.41-21.62-6-21.62-6s-2.66,10.65,21,21.29c20.23,9.12,63,38.79,65.8,92.7,2.53,47.69-20.47,83.32-35.91,104.06,13.85-16.34,35.18-40.7,43-67.11,12.86-43.46,1.83-105.13,1.83-105.13s8.24,8.9,13.2,47.19c2.81,21.65,4.9,39.23,1.09,54.53C326.22,241.6,333,262,320.91,289.77ZM364,232.31s-.53-12.67-3.87-19.34c-9.67-19.34-31.49-18.79-31.49-18.79s25.69-27.35,6.9-69.34S289.15,61.3,289.15,61.3,342.37,99.52,359.31,150,364,232.31,364,232.31Z" transform="translate(-0.55 -3.04)"/></svg>