<svg xmlns="http://www.w3.org/2000/svg" viewBox="0 0 389.55 371.49"><defs><style>.a,.b,.c{fill-rule:evenodd;}.b,.g{fill:#fff;}.c,.f{fill:#d58029;}.d,.e{fill:none;}.d{stroke:#fff;stroke-miterlimit:3.86;stroke-width:0.18px;}.e{stroke:#cd7328;stroke-miterlimit:3.86;stroke-width:0.88px;}</style></defs><title>Tiger596_3c</title><path class="a" d="M372.75,148.47c-.37-1.07-.76-2.13-1.17-3.19,6.1,7.26,11.77,15.76,11.77,15.76s1.66-23.21-10.5-51.94c-19.31-45.64-68-68-68-68L276.71,24s5.53-14.92-10.5-16C253,5.77,233.63,9.32,223.3,13.51c-25.42,10.31-30.94,13.63-30.94,13.63l-8.5-12.28-.06,0A102.2,102.2,0,0,0,168.48,3s-.33,0-9,12.31c-1.7,2.42-3.43,5.23-5.11,8.18-.89,1.59-5.9,16.72-14.7,22.58-14.92,9.95-52.31,28.18-52.31,28.18l-3.89,8.25A12.26,12.26,0,0,0,80.24,84C75.6,85,70,86.33,67.85,87.55c-3.87,2.2,4.42,9.39,4.42,9.39l-6.63,4.42s-1.11-1.11-13.81,6.63c-10.2,6.21-3.31,13.49-.2,16.12a7.81,7.81,0,0,0-3.3,1.75c-3.31,3.32-2.58,6.63-2.58,6.63s-4.79.73-6.63,3.31a11.38,11.38,0,0,0-1.84,5.9s-4.79.73-6.63,1.84S8.55,165.64,6.34,171.9s-1.84,9.21-1.84,9.21S-.66,185.53.81,196.95,10,215.74,15.18,216.47s21,11.79,21,11.79-1.1,3.68,6.63,6.63,9.57,1.84,11,3a16.16,16.16,0,0,0,3.75,1.6c0,2,.72,6.33,5.56,7,1.12.14,6.72,1.33,7.74,1.38,1.53,1.09,4.78,1.1,9.66,3,8.84,3.5,15.29,4.15,16,2.49s-1.29-4.6-1.84-6.45a2.78,2.78,0,0,1-.09-.42l.28,0L106,249.17l1.8.92,20.38,12.73L137,268.5c-1.61,2.38-10.65,3.25-10.65,3.25s-8-1.88-9.83.58,1.74,6.36,4.19,8.53c5.69,5-13.12-2.42-13.12-2.42s-3.13,0-3.13,1.84c0,3.82,7.5,11.33,7.5,11.33s-4.83-.42-5.25,5.39c-.48,6.77,6.59,6.68,8.43,6.31s.37,6.63.37,6.63l7.36-1.84s-11.42,8.11-2.21,11.42c6.16,2.22,11.84,3.18,17.69,2.21,2.21-1.38,9.44-3.78,11.32-3l.68.25c-3.8,2.32-6.66,3.73-6.66,3.73s13.81,1.54,25.92-2.27c4.07-1.54,11.18-5.79,13.74-7.35l.78.5a19.7,19.7,0,0,1-1.68,4.64,59.52,59.52,0,0,1-5.71,3c-21,9.75-30.91,8.84-30.91,8.84s20.14,9.44,50.88,7.17c15.13-3.07,38.71-16.28,38.71-16.28s-10.07,15.27-27.46,23.32-28.25,9.79-28.25,9.79,26.88,5.61,62.79-8.48c2.72-1.07,4.9-2.86,7.06-4.3A127.57,127.57,0,0,1,223,359.34c-17.54,9.14-25.36,9.1-25.36,9.1s54,23.62,114.42-22.2c27.64-21,38.16-47.28,41.45-69.65l6.63,23.68s19.34-9.94,28.18-62.44c7.1-42.19-9-77.23-15.58-89.37Z" transform="translate(-0.55 -3.04)"/><line x1="106.02" y1="246.27" x2="108.11" y2="246.78"/><path class="b" d="M322,233.06c3.81-15.3,1.72-32.88-1.09-54.53-5-38.29-13.2-47.19-13.2-47.19s11,61.67-1.83,105.13c-7.82,26.41-29.14,50.77-43,67.11,15.44-20.74,38.44-56.37,35.91-104.06-2.85-53.91-45.57-83.59-65.8-92.7-23.62-10.64-21-21.29-21-21.29s10.56,8.4,21.62,6c10.8-2.35,11.64,0,11.64,0a49.73,49.73,0,0,0,1-37.25C238.66,34.3,236,32.64,236,32.64s-20.63,1-33.93,15c-8.86,9.29-9.59,20.27-11,25.94a65.54,65.54,0,0,0,16.47,10s-6,1.92-3.49,8.31c4.83,12.48,28.77,29.77,28.77,29.77s34.44,24.48,41.58,52.55c16.82,66.1-28.65,153.17-28.65,153.17s52.19-49.82,64.77-67.12c.5,7.34-.19,22-9.88,39.87a186.71,186.71,0,0,1-32,42.73s36.1-15.84,52.31-53C333,262,326.22,241.6,322,233.06Z" transform="translate(-0.55 -3.04)"/><path class="a" d="M94.63,117.13s10.15-15.81,22-23.29,28.77-10,28.77-10-8.37.35-21.46,1.66A103.9,103.9,0,0,0,108.44,88L94.63,117.13Z" transform="translate(-0.55 -3.04)"/><path class="c" d="M11.5,189.76S21.31,202.5,30,193.63c10.32-10.52,20.55-4.86,20.55-4.86s-.69,11.58-3.57,13.89-4-4.06-4-4.06-6.47-.36-7.41,6.91c-1.61,12.48,11.32,21,11.32,21s-25.55-15.25-29.84-20c-10.68-11.79-5.53-16.76-5.53-16.76Z" transform="translate(-0.55 -3.04)"/><path class="c" d="M106,128.49l1.71-2.41s2.29,2.55,5.83.17.18-8.05.18-8.05l5.4-6s2.27,10.2-2.5,15.39-10.62.95-10.62.95Z" transform="translate(-0.55 -3.04)"/><path class="a" d="M203.07,78.05s1-14.48,9.81-19.8,15.3-3.33,19.79-5.32a6.74,6.74,0,0,0,4-6.66s5.49,4.16,1.66,20S216.54,83.7,216.54,83.7s-1.5-8.31,2.83-13.8,7-5.49,7-5.49-1.67-2.82-11.14,2.66-12.14,11-12.14,11Z" transform="translate(-0.55 -3.04)"/><path class="b" d="M117.38,86.64s14.17,16.22-.8,18.77c-12,2-19.29,20.38-19.29,20.38l-9.43.11s15-2.74,13.22-22.51C99.81,89.39,112,89,117.38,86.64Z" transform="translate(-0.55 -3.04)"/><path class="b" d="M118.59,147.45a41.91,41.91,0,0,0,6.19-6.49c10-13,1.83-24.95,1.83-24.95s-.33,11.81-8.32,17.3-13,4-13,4a7.23,7.23,0,0,0,.67,6c1.11,1.83,4.81,3.46,7.54,4.46l5.06-.3Z" transform="translate(-0.55 -3.04)"/><path class="b" d="M134.68,98.55l18-3.37s2-4.27,8.54-7.64a25.34,25.34,0,0,1,12.36-2.92s-13.35-1.43-17.08-5.39a14.83,14.83,0,0,1-4-7.64A154.48,154.48,0,0,0,134.9,74.5a30.16,30.16,0,0,0-13.7,7.42s6.29-1.45,9.89,3.14c4,5.17,3.6,13.48,3.6,13.48Z" transform="translate(-0.55 -3.04)"/><path class="d" d="M134.68,98.55l18-3.37s2-4.27,8.54-7.64a25.34,25.34,0,0,1,12.36-2.92s-13.35-1.43-17.08-5.39a14.83,14.83,0,0,1-4-7.64A154.48,154.48,0,0,0,134.9,74.5a30.16,30.16,0,0,0-13.7,7.42s6.29-1.45,9.89,3.14c4,5.17,3.6,13.48,3.6,13.48Z" transform="translate(-0.55 -3.04)"/><path class="c" d="M198.41,205.61c-9.64-5.21-14-11.92-15-14.25.56,1.46.48,41.32.48,41.32s-.95-19.21-14.92-33.51c-12-12.29-35.75-19.5-35.75-19.5,19.62,1,25.61-12.64,25.61-12.64s-7,6.65-19.62,4.32-16.63-11-16.63-11,10.65-2.33,21.29-13,10.65-17,10.65-17-4.65,2-12.64-1.66-8.31-14-8.31-14l1-8,16-5-5.66,12.64a15.15,15.15,0,0,1,14,7.32c4.1,6.83,4.38,16.14,4.35,19.24.16-3.82,1.18-17.36,8-29.21a32.33,32.33,0,0,1,22.62-15.63s-8.65-2-16.3,1-10,8.31-10,8.31-2-6.32,5.66-13.3,17.63-6,17.63-6-8.65-3.32-20-8-5.66-13.3-5.66-13.3-12,1-22.62,3c-9.68,1.82-35.42,11.42-35.42,11.42q1.67-1.26,3.49-2.44c24.61-16,77.17-24.62,77.17-24.62s-6.35,21.36-6,22.28c1.83,4.66,18.13,9.32,18.13,9.32s-3.66,1.17-2.33,7.82,13.8,23.78,13.8,23.78,6.65.66,9.65,5.49c3.52,5.68,5.66,10.15,5.66,10.15s-14.14-7.82-30.77-7.16l-16.8.67s12.37,8.42,5.49,18a15.7,15.7,0,0,1-13.47,6.32s7.32,9.48-2.66,21.45-21.29,10.15-21.29,10.15,4.32,4.82,18.13,3.33,18.3-10.31,18.3-10.31,0,10.47,12.14,18.79,22.95,9.15,22.95,9.15-16.14-9.66-21.12-27.61c-5.49-19.79-1.83-40.75-1.83-40.75s40.61,7.91,60.37,39.08c27.55,43.45-1.41,101.71-4.81,119,0,0,6-40,2.7-33.71S232,284,232,284s27-39.09,27-64.7-8-33.6-8-33.6,1.33,4.66,1.67,16.3-5.32,18-5.32,18a151,151,0,0,0-2-21.29c-2-12.64-8-19-8-19L233.67,198a109.15,109.15,0,0,0-7-25.94,65.26,65.26,0,0,0-16.3-23s13,16.64,13.31,46.57a105.83,105.83,0,0,1-.93,15.79s-13.7-.06-24.35-5.81Z" transform="translate(-0.55 -3.04)"/><path class="b" d="M98.25,87.43c5.57-4.62,17.32-6.63,17.32-6.63-5.22,3.38-14.16,5.62-17.53,11.91-6.31,11.78,4,22.16-16.81,32.35,0,0,5.8-28.31,17-37.63Z" transform="translate(-0.55 -3.04)"/><polygon class="c" points="75.7 121.58 70.53 120.01 82.67 95.74 75.7 121.58 75.7 121.58"/><polygon class="e" points="75.7 121.58 70.53 120.01 82.67 95.74 75.7 121.58 75.7 121.58"/><path class="f" d="M285.58,97.38q2.87,10.32,6.63,23.08c13.5,45.51,12,68.19,12,68.19s-.66-12-11-41.25S259.78,95,259.78,95s.28-.19.75-.54l-.45,0s-.9-26.3-7.42-44.72-11-24-11-24a73.93,73.93,0,0,0-21.35,3.82A162.19,162.19,0,0,0,201.88,37s9-7.86,24-13S262.1,15.4,262.1,15.4s-9.44,6.29-8.09,23.14,12.58,26.75,16.63,30.35a22.43,22.43,0,0,0,6.05,3.77c1.51-5,1.22-7.74,1.22-7.74s24.77,13.67,40.79,49.71c13.26,29.83,9.94,50.83,9.94,50.83s-2.21-22.57-17.68-45.86c-7.41-11.16-19.47-17.28-25.38-22.22Z" transform="translate(-0.55 -3.04)"/><path d="M231.45,348l.42-.32a.77.77,0,0,1-.08.12l-.33.2Z" transform="translate(-0.55 -3.04)"/><path class="g" d="M235.7,256.69c-7,2.72-9.3,2.09-9.3,2.09s6.81-6.33,9.16-20,1.91-15.54,1.91-15.54-1.53,7-8.71,13.63-13.38,8-13.38,8,6.22-2.28,11-20.85c0,0-22.76,2.78-30.47,15.59-7.07,11.73-13.65,6-13.65,6s.89,5.93,4.47,8.89c-.19,0,1.49,2.48,4.26,5.65-.76,5.35-3.89,15.83-16.63,14.27,1.49,3.17,14.49,1.39,14,9.26C186.78,308.55,165,307.47,165,307.47a25.63,25.63,0,0,0,17.56-1c5.39-2.42,7.41-5.32,8.15-7.27a5.35,5.35,0,0,1,6.38.71c3.28,2.79,2.38,5.35,2.38,5.35.78-.49,1.07-5.3.7-18.62-.21-7.43-3-15.73-5.39-21.63a56.78,56.78,0,0,1,8.69,17.19c.14.48.28,1,.41,1.45,6.19,23.34-2.6,37.71-2.6,37.71s30.59-18.63,11.45-47a136,136,0,0,0-14-17.13s12.38,8.33,26.09,8.58S247,249.47,247,249.47a33.2,33.2,0,0,1-11.27,7.22Z" transform="translate(-0.55 -3.04)"/><path class="c" d="M71.52,149.9C83.39,142.8,99,146.77,99,146.77l-14.86-5.35-8.83.31s6.54-12.34-1.74-13.84C66,126.52,62.83,130,55.69,136a4.89,4.89,0,0,0,0,2c.69,3.59,15.06,5.39,15.06,5.39s-10.36,1.38-16-1.52c-1.76-.9-14,3.38-3.32,6.35,5.9,1.64,14-1.24,14-1.24s-5,4.42-14.37,4.14c-5.59-.16-8.68-.18-10.1-.78a159.35,159.35,0,0,0-12.43,12.86C12.62,181,13.71,185.62,13.71,185.62s8.74,7.72,20.17-.28,16.7-1,16.7-1a76.48,76.48,0,0,1,11.63-18.86,38.39,38.39,0,0,1,18-12s-8-1.35-14.88,3.21a48.63,48.63,0,0,0-10.09,8.57S59.66,157,71.52,149.9Z" transform="translate(-0.55 -3.04)"/><path class="b" d="M105.4,191.54l-2.06,5s-4.87,1.23-15.4,6.83A118.81,118.81,0,0,0,68,217.3s6.09-7.74,18.06-17.35a121.78,121.78,0,0,1,16.36-11.12,54.45,54.45,0,0,0-6.9-4.83A12.72,12.72,0,0,0,94,187.15s-3.82-.2-11.5,4.09a107.72,107.72,0,0,0-12.57,9A100,100,0,0,1,87.74,183.3c2.8-2,5.43-3.76,7.79-5.2.66-4.68,1.24-10.47-.21-8.85a24.1,24.1,0,0,0-3.78,6.22,27.27,27.27,0,0,0-11.06,4.23c-5.35,3.61-6.5,5.86-6.5,5.86s1.41-4.2,7.32-9.56.53-7.81-7.53-4.55-12.32,10.81-16.39,17.12c0,0,2.14,10.44-4.9,19-2.75,3.33-5.17-1.74-5.17-1.74s-7.43,11.77.74,19.1c4.58,4.1,10.77,5.54,17.5,5.26a18.87,18.87,0,0,1-10.64-10.46s3.38,5.2,14.2,6.62a69.31,69.31,0,0,0,14.27-.09c14-5.18,26.32-14.12,27.84-18.75,2-6-1.54-11.65-5.82-15.94Z" transform="translate(-0.55 -3.04)"/><path class="c" d="M73.38,164.9s7.74-5,20.72-3.6,11.33,17.13,11.33,17.13a136.69,136.69,0,0,1,26.8,9.11,103.24,103.24,0,0,1,23.21,15.2s-7.74-11.6-24-20.72-17.69-10.5-17.69-10.5-2.2-4.69-.55-8.84l1.65-4.14a26.86,26.86,0,0,1-8-4.69c-3.31-3-3.59-3.87-3.59-3.87s-4.06-.84-14.92,3c-7.74,2.77-14.92,11.88-14.92,11.88Z" transform="translate(-0.55 -3.04)"/><path class="b" d="M86.11,233.72a19.77,19.77,0,0,0,9.58-2.21,47.15,47.15,0,0,0,7.12-4.17s15.48,13,19.41,15.47-2.95,2.95-13.75,1.23-22.35-10.32-22.35-10.32Z" transform="translate(-0.55 -3.04)"/><path class="b" d="M80.19,235.44s5.71,3.68,8.47,5.34-4.23,1.11-6.45.19-2.95,0-2.95,0-1.65.55-5.52,0a32.26,32.26,0,0,1-5.9-1.29,41.82,41.82,0,0,0,6.63-1.29c4.23-1.11,5.71-2.95,5.71-2.95Z" transform="translate(-0.55 -3.04)"/><path class="b" d="M125.86,276s3.42,1.84,13.65,2.25,13.44.82,13.44.82-6.19,4.3-9,6.55a7.56,7.56,0,0,0-3,4.71s-18.13-10-20.05-12.89,4.91-1.43,4.91-1.43Z" transform="translate(-0.55 -3.04)"/><path class="b" d="M135.46,292.71s-5.16-3.5-6.63-3.87-.18,2.95-.18,2.95a4.58,4.58,0,0,1-3.87.55,25.33,25.33,0,0,1-5.16-1.84s.55,3.5,6.63,4.23,9.58.74,10.87,0-1.66-2-1.66-2Z" transform="translate(-0.55 -3.04)"/><path class="b" d="M62.88,115.72s4.42,3.87,5.25,3,7.46-14.09,7.46-14.09L62.88,115.72Z" transform="translate(-0.55 -3.04)"/><path class="c" d="M109.29,183.41s8,4.7,9.39,9.67a15.39,15.39,0,0,1-.55,9.39s6.08-2.48,8.29-6.35,0-6.08-5.25-8.56a74.83,74.83,0,0,0-11.88-4.14Z" transform="translate(-0.55 -3.04)"/><path class="g" d="M159.3,289l7.18,3.87s1.38,11.6-12.71,17.41a33.78,33.78,0,0,1-25.69.28l6.07-2.77-6.62-1.93,5.52-1.93L124.49,302s12.71,1.38,16.85-.28,1.66-3.6,1.66-3.6l6.9-.55a14.87,14.87,0,0,1,3.32-4.69A19.88,19.88,0,0,1,159.3,289Z" transform="translate(-0.55 -3.04)"/><path class="c" d="M289.14,61.3s27.63,21.54,46.41,63.54-6.9,69.34-6.9,69.34,21.82-.55,31.49,18.79c3.33,6.67,3.87,19.34,3.87,19.34s12.25-31.86-4.7-82.33S289.14,61.3,289.14,61.3Z" transform="translate(-0.55 -3.04)"/><polygon class="c" points="145.03 46.57 144.66 49.52 180.39 45.09 129.56 57.99 145.03 46.57 145.03 46.57"/><path class="c" d="M133.61,192.81s2.21,3.86.28,6.08a12.22,12.22,0,0,1-3,2.77s16.85,1.1,32,16.29,18,19.07,18,19.07-13-20.72-29-32.6-18.23-11.6-18.23-11.6Z" transform="translate(-0.55 -3.04)"/></svg>