<svg id="Layer_1" data-name="Layer 1" xmlns="http://www.w3.org/2000/svg" viewBox="0 0 577.9 623.3"><title>Trojan955_4c</title><path d="M195.2,67.1,180.9,48.2h-.5a40.9,40.9,0,0,1-.7,6.6c-2,10.4-7.6,20.9-17.5,24.8-5.4,14.4-7.6,31.2-4.2,46.2,6.4,28.6,11.7,32.8,37.2,44.7l11.9,5.5-9.6,8.9c-13.7,12.6-41.9,16.1-59.8,15.6-26.6-.8-53.9-9.6-72.2-29.8a96.4,96.4,0,0,1-10.7-14.2l-31,17.7Q13.2,187.7,1.7,200.5a572.4,572.4,0,0,1-40.9,40.7c-5.9,5.4-12,10.7-18.2,15.6l-69.5,54.8,37.1-80.4,1.8-4c-8.6-3-17.6-8.1-22.3-15.6l-5.7-9,8.9-16.6a15.8,15.8,0,0,0,.5-3.5c-.8-2.5-3.6-7.3-4.9-9.6l-3.2-5.8,6.3-8.9c-3.1-3-4.8-5.8-7.2-10.1l-1.7-3,1-3.9-13.7-7.9c-5,10.8-10.3,21.6-15.8,32.3L-161,195.2l-6.9-175.8,58.9-107,5.6,15.3q4.8-5.9,10.1-11.2l-17.6-26.3,7.7-6.1,2-1.6c-3.9-6.2-8.6-12-14.6-16.1-10.9-7.6-25.1-8.8-38-8.2-26,1.2-50.4,5.5-71.6,21.6-8.5,6.5-16.1,14.3-23.2,22.2s-15.7,17.9-23.8,26.7l-16.5,17.9,1.3-24.3c3.1-57.1,30.7-109.4,70-150,56.4-58.3,132.3-83.1,212.2-83.7a297.3,297.3,0,0,1,191.7,68.7c65,54.1,102,132,102.6,216.6.2,27.3-2.7,54.5-7.1,81.4-3.7,22.5-8.5,44.9-11.6,67.5-2.9,21.1-4.9,42.2-3.6,63.4s5.9,42,11.3,62.5l6.8,26-20.8-17c-48.5-39.7-54.8-64-60.9-124.4-1.2-11.8-2.2-23.6-3.6-35.3s-2.5-20.5-4.2-30.7" transform="translate(288.9 311.6)" style="fill:#4d4f53;fill-rule:evenodd"/><path d="M191.1,36.9q-.1,2.2-.2,4.5l-.3,5.2-3.1-4.1L184.7,39l-13.6,1.3a37.4,37.4,0,0,1,0,12.9c-1.6,8.3-6.2,17.9-15.4,19.2-7.3,17-10.3,37.3-6.2,55.4,7.5,33.4,16.3,38.7,42.1,50.7-17.3,16-85.6,23.9-119.6-13.6a85,85,0,0,1-13.8-20.4L18,167.5q-10.9,14-22.7,27.1A563.7,563.7,0,0,1-45,234.7c-5.8,5.2-11.7,10.4-17.8,15.2l-40.8,32.2,21.8-47.2q3.1-6.7,6-13.6l-4.6-1c-7.7-2-18-6.5-22.4-13.4l-3-4.7,7-13.1a23.7,23.7,0,0,0,.9-8c-.3-2.7-4.4-9.9-5.9-12.5l-.6-1.1,7.7-11-3.7-3c-4.1-3.4-5.2-5.5-7.6-9.8l2.6-10.5-2.9,2.4L-128.5,124l9.1-37.3-1.8,4.3a754.7,754.7,0,0,1-32.3,70.5l-5.5-140.2,48.5-88.1,4.7,12.6A143.4,143.4,0,0,1-81.8-82.4l-17.2-25.7,1.4-1.1q4-3.2,8.1-6.1c-5.5-9.7-11.8-19.1-21.1-25.6-12.6-8.8-28.5-10.5-43.4-9.8-27.9,1.3-53.8,6.2-76.5,23.4-9,6.8-16.9,14.9-24.4,23.3-10.6,11.7-13,15-23.7,26.6,2.7-49.7,25.5-101,67.6-144.4,54.8-56.6,128.4-80.4,205.9-81a288.5,288.5,0,0,1,186.1,66.7c63,52.5,98.9,127.9,99.4,209.9.2,26.9-2.6,53.4-7,79.9-3.7,22.6-8.5,45.1-11.6,67.8-7.1,51.9-5.4,78.7,7.8,129.3-46.6-38.1-51.9-60.4-57.8-118.5-1.2-11.8-2.3-23.6-3.6-35.4-1.5-13.5-3.4-26.9-5.8-40.2-.9-4.2-3.4-8.8-5.7-12.4a77.5,77.5,0,0,0-5.4-7.4" transform="translate(288.9 311.6)" style="fill:#050000;fill-rule:evenodd"/><path d="M-92.1,47.3l8.9,5,9.9-17.9A43.6,43.6,0,0,1-54.7,36c10.3,3.1,11.8,8.7,11.8,8.7S-53.3,42.3-59.3,42a51,51,0,0,0-6.4-.1l-3.3,6.3s10.5,0,18.1,2.7,9.1,4,9.1,4l-13.4,9s-12.1,3.5-16.7,6.8l-5.8,4.2a20.9,20.9,0,0,1,3.1-6c2.3-3.2,3-4.2,3-4.2a31.2,31.2,0,0,0-3-3.5,24.9,24.9,0,0,1-2.6-3l-2.6,3.5S-89.1,56-92.1,47.3m-9.5-.3,6,11-10.8,14.9-11.3,46.5,8.5,4.9s11.8-9.8,21.6-10.5,13.6,1.8,13.6,1.8a13.5,13.5,0,0,0-1.5-6.4,29.8,29.8,0,0,0-4.4-6.7l-14.6.8A50.4,50.4,0,0,1-84,98.5,52.4,52.4,0,0,1-76.3,97s9.2,9,13.6,17.5a135.6,135.6,0,0,1,7.2,17l-10.3-10s-9.8,6.4-16.4,10.3a38.2,38.2,0,0,0-11,10.3l15.4-2.6a65.3,65.3,0,0,1,11.4,7.1c6,4.6,8.2,6.7,8.2,6.7s.6-.9.1-3.9a29.9,29.9,0,0,1-.5-3.6,17.2,17.2,0,0,1,6,10c1.2,6.4-6.4,9.6-6.4,9.6l.5-5a72.7,72.7,0,0,0-15.9-3,60.9,60.9,0,0,0-12.7.5l-5.3,8.5s23.4,3.5,22.6,12.3-18.8,11.6-18.8,11.6l-6.3,11.7s3.7,5.9,16.7,9.2a68.1,68.1,0,0,0,7.9,1.5c3.8-9.5,7.4-19.1,10.8-28.4a1326,1326,0,0,0,42.1-139l1.6-6.6A46.2,46.2,0,0,1-26.7,15.9,218.5,218.5,0,0,0-73.1,30.7,165.5,165.5,0,0,0-96.3,43.3Z" transform="translate(288.9 311.6)" style="fill:#fff;fill-rule:evenodd"/><path d="M-5.3-290.2c142.8-1,271.8,110.5,272.8,264.1.7,99.1-37.9,157.3-13.7,249.7-38-50.8-25.3-107-39.2-169.6-3.2-14.6-19-33.3-26.1-36q-.4-8.6-1.6-16.9c26.8,9.9,46.4,32.1,50.6,53.3l1.1-6.4c2.6-15.6,4.6-31.1,5.7-46.7a64,64,0,0,0-8.8-6c-19.9-11.1-28.4-15-28.4-15s11.1-2.1,37.9,5.7q.2-6,.1-11.9t-.4-13.1l-3.3-1.3C220-48.2,211-50.7,211-50.7s9.2-3.3,32.7-1.1a237.6,237.6,0,0,0-18.1-67.9c-23.4,13.7-34.4,14.5-34.4,14.5s7.2-5.9,23.7-21.7a59.1,59.1,0,0,0,4.8-5.3,240.2,240.2,0,0,0-16.4-27.8c-21.2,19.3-32.3,22.3-32.3,22.3s5.9-7.2,19-25.9a62.1,62.1,0,0,0,4.8-8.2,246.4,246.4,0,0,0-35.6-37l-1.8,2.9c-15.1,24.5-25,30.5-25,30.5s3.7-8.6,11.1-30.2a68.5,68.5,0,0,0,3-13.3,251.2,251.2,0,0,0-89.7-42c-.1,3.5-.2,7.3-.6,11.7C54-220.3,48-210.4,48-210.4s-.7-9.3-4-31.9c-1.1-7.4-4-15.2-7.4-22.5a253.5,253.5,0,0,0-41.7-3.2,314.5,314.5,0,0,0-59.2,5.8,163.5,163.5,0,0,1,10.7,21.3c11.3,26.5,10.5,38,10.5,38s-4.9-8-18.2-26.5c-7.5-10.4-20.6-19.7-30.5-25.8-44.8,14.1-82.2,39.7-110.9,77,57.1-16.6,112.3-7,143.6,47.9a172.6,172.6,0,0,0-18.5,10.4c-13.1-23.7-30.2-45.8-77.2-43.6s-86,19.4-105.5,45.8c39.1-99.4,121.4-171.7,255-172.7" transform="translate(288.9 311.6)" style="fill:#b71f36;fill-rule:evenodd"/><path d="M46.8-28.5,51-28c79.1,9.5,105.3,59.6,105.3,59.6s5.4,10,3.6,19.5-5.9,10-5.9,10S122.1,20.7,64.6,6.3a45.9,45.9,0,0,0-.9-7.7c52.5,12,83.1,44,83.1,44S121.8-.1,60.1-12.1A45.9,45.9,0,0,0,46.8-28.5M-112.6-39.3s6.2,16.7,26.5,17.7c14.7.7,38.4-7.9,80.3-9.2A45.9,45.9,0,0,0-23-10.7c-49.4,8.8-81,27.5-89.4,31.5-10.8,5.1-26.5,3.1-26.5,3.1V87.1l19-50.1S-79.7,11.3-26.1-.3a45.8,45.8,0,0,0-.7,6.5c-54.9,10.8-83.3,35.4-83.3,35.4s-14.6,27.2-21.8,45.2-12.3,31.9-12.3,31.9l-3.3-94.5Z" transform="translate(288.9 311.6)" style="fill:#b71f36;fill-rule:evenodd"/><path d="M14.3-106.9A130.5,130.5,0,0,1,142.8.9l-3.5-3q-5.2-4.3-10.7-8.1A119.2,119.2,0,0,0,15.8-95.5C38.2-85,53.3-65.5,53.3-43.1a49.6,49.6,0,0,1-.3,5.8h-.8c-31.2-3.8-61.9-4.1-93,0-9.4,1.3-18.6,2.9-28,4.5-5.2.9-11.6,2-16.8,1.8a20.6,20.6,0,0,1-14.4-6.3l-.6-.7a130.5,130.5,0,0,1,115-68.8" transform="translate(288.9 311.6)" style="fill:#c3c7c7;fill-rule:evenodd"/><path d="M18.9-15.4A23.1,23.1,0,1,1-4.2,7.7,23.1,23.1,0,0,1,18.9-15.4m0-12.3A35.4,35.4,0,1,1-16.6,7.7,35.4,35.4,0,0,1,18.9-27.7Z" transform="translate(288.9 311.6)" style="fill:#c3c7c7;fill-rule:evenodd"/><path d="M18.9-6.7A14.4,14.4,0,1,1,4.5,7.7,14.4,14.4,0,0,1,18.9-6.7" transform="translate(288.9 311.6)" style="fill:#fff;fill-rule:evenodd"/><path d="M145.4,65.6c-4.4,9.7-14.3,36-7.8,64.9,8.2,36.5,31.8,48.3,31.8,48.3s-59.1,10.3-88.4-22.1S66.7,88.4,53.8,70.9s-18-18-18-18l-.3-3.2a45.1,45.1,0,0,0,11.2-6.5A46.7,46.7,0,0,1,62.6,59.6c11.3,19,5.1,61.1,23.6,86.8s49.3,25.2,49.3,25.2-17-22.6-17.5-55.5c-.4-24.3,8-52.3,12.3-65.2q4.1,3.5,7.9,7.2c2.4,2.3,4.9,4.9,7.1,7.5" transform="translate(288.9 311.6)" style="fill:#c3c7c7;fill-rule:evenodd"/><path d="M-7,47.8A47.1,47.1,0,0,0,5.3,53.1,311.2,311.2,0,0,1-6,120.7c-11.8,41.4-32.6,81.9-32.6,81.9s16.2-16.4,31.3-34.2S26.3,123,26.3,123C11.8,107.8,16.7,68.5,19,55.2c6.2.4,8.9-.2,8.9-.2-1.9,12.7-8.6,49.5,7.4,66A473.6,473.6,0,0,1-14,186.2a520.3,520.3,0,0,1-56.5,53.9S-36.1,165.7-7,47.8" transform="translate(288.9 311.6)" style="fill:#c3c7c7;fill-rule:evenodd"/><path d="M15-137.9A164.4,164.4,0,0,1,179.4,26.5h0l-23.1,2.3c0-.8,0-1.6,0-2.4A141.3,141.3,0,0,0,15-114.8,140.6,140.6,0,0,0-69.3-86.9l-12.9-19.2A163.6,163.6,0,0,1,15-137.9" transform="translate(288.9 311.6)" style="fill:#c3c7c7;fill-rule:evenodd"/><path d="M-92.1,47.3l8.9,5,9.9-17.9A43.6,43.6,0,0,1-54.7,36c10.3,3.1,11.8,8.7,11.8,8.7S-53.3,42.3-59.3,42a51,51,0,0,0-6.4-.1l-3.3,6.3s10.5,0,18.1,2.7,9.1,4,9.1,4l-13.4,9s-12.1,3.5-16.7,6.8l-5.8,4.2a20.9,20.9,0,0,1,3.1-6c2.3-3.2,3-4.2,3-4.2a31.2,31.2,0,0,0-3-3.5,24.8,24.8,0,0,1-2.6-3l-2.6,3.5S-89.1,56-92.1,47.3m-4.3,11.8,5.4,5.2-6.7,9.1L-93,102l1.1-.3A42.7,42.7,0,0,1-84,98.5,52.5,52.5,0,0,1-76.3,97a100.4,100.4,0,0,1,8.1,9.1c-1.1-2.5-2.5-5.8-3.9-10-3.6-10.5-3.5-15.2-3.5-15.2l5.9-6.9,18.2-5.9,19-13.1,3.7,11.2s-9.2,46.2-14.1,58.8-6.4,15.2-6.4,15.2l-10.1-18.7c2.4,5.6,3.9,10,3.9,10l-10.3-10-1.8,1.2c2.6,3.5,6.1,8.6,7.5,12.2,2.3,6.2,2.6,6.7,2.6,6.7l-4.1-1.8,1.5,7.2L-75.7,136l-15.1,2.8a34.1,34.1,0,0,0-2.5,3.1l15.4-2.6a65.2,65.2,0,0,1,11.4,7.1c6,4.6,8.2,6.7,8.2,6.7s.6-.9.1-3.9a30,30,0,0,1-.5-3.6,17.2,17.2,0,0,1,6,10c1.2,6.4-6.4,9.6-6.4,9.6l.5-5-1.6-.5a49,49,0,0,1-1,8.3l-1,4.6,5.4-1.5s-8,20.8-22.1,25.9a101,101,0,0,1-15.9,4.6v.2s3.7,5.9,16.7,9.2a68.3,68.3,0,0,0,7.9,1.5c3.8-9.5,7.4-19.1,10.8-28.4a1325.9,1325.9,0,0,0,42.1-139l1.6-6.6A46.2,46.2,0,0,1-26.7,15.9,218.5,218.5,0,0,0-73.1,30.7,165.5,165.5,0,0,0-96.3,43.3c-1.7,1.1-3.5,2.3-5.2,3.6l6,11Z" transform="translate(288.9 311.6)" style="fill:#c3c7c7;fill-rule:evenodd"/><path d="M-89.9-31.6A116.9,116.9,0,0,1,5-95.5,117,117,0,0,0-32.9-38.4l-8,1c-9.4,1.3-18.6,2.9-28,4.5-5.2.9-11.6,2-16.8,1.8a25.4,25.4,0,0,1-4.2-.6" transform="translate(288.9 311.6)" style="fill:#fff;fill-rule:evenodd"/><path d="M-112-24.9s4.9,9.5,21.6,9.9,43.7-6.4,54.8-8.5a134,134,0,0,1,20-2.2,44.6,44.6,0,0,0-5.5,6.5,40.1,40.1,0,0,0-2.7,4.5s-39,5-62.4,14.4-29.4,10.8-35.7,10.9-9.4-1.4-9.4-1.4Z" transform="translate(288.9 311.6)" style="fill:#c3c7c7;fill-rule:evenodd"/><path d="M-6.1,59.6l5.9,2.3s-2.3,23.4-11.6,56.8-39.3,90.2-39.3,90.2S-19.2,123-6.1,59.6" transform="translate(288.9 311.6)" style="fill:#fff;fill-rule:evenodd"/><path d="M-104.4,76.6l4,.4,1.8,25.9-9.5,14.5-4-2.3Zm5.3,34.3,5.5-5.7,11-.8a8.9,8.9,0,0,1,3.2,3.2,10.1,10.1,0,0,1,1.5,3.3A35.5,35.5,0,0,0-99.1,110.9Zm52.7-36.7-20,4.4-2.8,4.1s2.1,12.3,6.7,20.5,9.2,10,9.2,10l2.3-4.4S-52.6,87.3-46.5,74.2Z" transform="translate(288.9 311.6)" style="fill:#fff;fill-rule:evenodd"/></svg>