<svg id="Layer_1" data-name="Layer 1" xmlns="http://www.w3.org/2000/svg" viewBox="0 0 559.1 585"><title>Trojan955_1c</title><path d="M-.2,61.9l-5.9-2.3c-13.1,63.4-45,149.2-45,149.2S-21,152-11.8,118.6-.2,61.9-.2,61.9Z" transform="translate(278.9 302.9)" style="fill:#050000;fill-rule:evenodd"/><path d="M18.9,30.8A23.1,23.1,0,1,0-4.2,7.7,23.1,23.1,0,0,0,18.9,30.8Zm0-37.5A14.4,14.4,0,1,1,4.5,7.7,14.4,14.4,0,0,1,18.9-6.7Z" transform="translate(278.9 302.9)" style="fill:#050000;fill-rule:evenodd"/><path d="M-51,50.9c-7.6-2.7-18.1-2.7-18.1-2.7l3.3-6.3a51.1,51.1,0,0,1,6.4.1c6,.3,16.4,2.7,16.4,2.7s-1.5-5.7-11.8-8.7a43.6,43.6,0,0,0-18.6-1.5l-9.9,17.9-8.9-5c3,8.7,12.3,14.4,12.3,14.4l2.6-3.5a24.9,24.9,0,0,0,2.6,3,31.2,31.2,0,0,1,3,3.5s-.6,1-3,4.2a20.9,20.9,0,0,0-3.1,6l5.8-4.2c4.6-3.3,16.7-6.8,16.7-6.8l13.4-9S-43.4,53.6-51,50.9Z" transform="translate(278.9 302.9)" style="fill:#050000;fill-rule:evenodd"/><path d="M273.2,53.7c4.4-26.5,7.2-53,7-79.9-.5-82.1-36.4-157.5-99.4-209.9A288.5,288.5,0,0,0-5.3-302.9c-77.5.6-151.2,24.4-205.9,81-42.1,43.5-64.8,94.7-67.6,144.4,10.7-11.6,13.1-14.9,23.7-26.6,7.6-8.3,15.5-16.4,24.4-23.3,22.7-17.2,48.6-22.1,76.5-23.4,15-.7,30.8,1,43.4,9.8,9.3,6.5,15.6,15.9,21.1,25.6q-4.1,2.9-8.1,6.1l-1.4,1.1,17.2,25.7a143.4,143.4,0,0,0-24.1,28.3l-4.7-12.6-48.5,88.1,5.5,140.2a754.7,754.7,0,0,0,32.3-70.5l1.8-4.3-9.1,37.3,20.4,11.7,2.9-2.4-2.6,10.5c2.4,4.4,3.6,6.5,7.6,9.8l3.7,3-7.7,11,.6,1.1c1.5,2.6,5.5,9.8,5.9,12.5a23.7,23.7,0,0,1-.9,8l-7,13.1,3,4.7c4.4,6.9,14.7,11.4,22.4,13.4l4.6,1q-2.9,6.8-6,13.6l-21.8,47.2L-62.8,250c6.1-4.8,12-10,17.8-15.2A563.7,563.7,0,0,0-4.8,194.6Q7.1,181.5,18,167.5l40.3-23A85,85,0,0,0,72,164.9c33.9,37.5,102.2,29.6,119.6,13.6-25.8-12-34.6-17.3-42.1-50.7-4.1-18.1-1.1-38.4,6.2-55.4,9.2-1.3,13.9-10.9,15.4-19.2a37.4,37.4,0,0,0,0-12.9L184.7,39l2.8,3.4,3.1,4.1.3-5.2q.1-2.2.2-4.5a77.5,77.5,0,0,1,5.4,7.4c2.3,3.6,4.8,8.2,5.7,12.4,2.4,13.3,4.2,26.7,5.8,40.2,1.3,11.8,2.4,23.6,3.6,35.4,5.9,58.2,11.1,80.4,57.8,118.5-13.2-50.7-14.9-77.4-7.8-129.3C264.6,98.7,269.4,76.3,273.2,53.7ZM14.3-106.9A130.5,130.5,0,0,1,142.8.9l-3.5-3q-5.2-4.3-10.7-8.1A119.2,119.2,0,0,0,15.8-95.5C38.2-85,53.3-65.5,53.3-43.1a49.6,49.6,0,0,1-.3,5.8h-.8c-28.8-3.5-57.1-4-85.8-.8h.8A117,117,0,0,1,5-95.5,116.9,116.9,0,0,0-89.9-31.6h0a19.6,19.6,0,0,1-10.2-5.7l-.6-.7A130.5,130.5,0,0,1,14.3-106.9ZM54.3,7.7A35.4,35.4,0,1,1,18.9-27.7,35.4,35.4,0,0,1,54.3,7.7ZM-131.9,86.8c-7.2,18-12.3,31.9-12.3,31.9l-3.3-94.5,34.9-63.4s6.2,16.7,26.5,17.7c14.7.7,38.4-7.9,80.3-9.2A45.9,45.9,0,0,0-23-10.7c-49.4,8.8-81,27.5-89.4,31.5-10.8,5.1-26.5,3.1-26.5,3.1V87.1l19-50.1S-79.7,11.3-26.1-.3a45.9,45.9,0,0,0-.7,6.5c-54.9,10.8-83.3,35.4-83.3,35.4S-124.7,68.8-131.9,86.8Zm53.8,124.3c-13-3.3-16.7-9.2-16.7-9.2l6.3-11.7s18-2.7,18.8-11.6-22.6-12.3-22.6-12.3l5.3-8.5a60.9,60.9,0,0,1,12.7-.5,72.7,72.7,0,0,1,15.9,3l-.5,5s7.6-3.2,6.4-9.6a17.2,17.2,0,0,0-6-10,29.9,29.9,0,0,0,.5,3.6c.5,3-.1,3.9-.1,3.9s-2.2-2.1-8.2-6.7a65.3,65.3,0,0,0-11.4-7.1l-15.4,2.6a38.2,38.2,0,0,1,11-10.3c6.7-3.9,16.4-10.3,16.4-10.3l10.3,10a135.6,135.6,0,0,0-7.2-17C-67,106-76.3,97-76.3,97A52.4,52.4,0,0,0-84,98.5a50.4,50.4,0,0,0-10.5,4.6l14.6-.8a29.8,29.8,0,0,1,4.4,6.7,13.5,13.5,0,0,1,1.5,6.4s-3.9-2.6-13.6-1.8-21.6,10.5-21.6,10.5l-8.5-4.9,11.3-46.5,10.8-14.9-6-11,5.2-3.6A165.5,165.5,0,0,1-73.1,30.7,218.5,218.5,0,0,1-26.7,15.9,46.2,46.2,0,0,0-15.6,38.6l-1.6,6.6a1326,1326,0,0,1-42.1,139c-3.4,9.4-7,18.9-10.8,28.4A68,68,0,0,1-78.1,211.2ZM-14,186.2a520.3,520.3,0,0,1-56.5,53.9S-36.1,165.7-7,47.8A47.1,47.1,0,0,0,5.3,53.1,311.3,311.3,0,0,1-6,120.7c-11.8,41.4-32.6,81.9-32.6,81.9s16.2-16.4,31.3-34.2S26.3,123,26.3,123C11.8,107.8,16.7,68.5,19,55.2c6.2.4,8.9-.2,8.9-.2-1.9,12.7-8.6,49.5,7.4,66A473.6,473.6,0,0,1-14,186.2Zm183.4-7.5s-59.1,10.3-88.4-22.1S66.7,88.4,53.8,70.9s-18-18-18-18l-.3-3.2a45.1,45.1,0,0,0,11.2-6.5A46.7,46.7,0,0,1,62.6,59.6c11.3,19,5.1,61.1,23.6,86.8s49.3,25.2,49.3,25.2-17-22.6-17.5-55.5c-.4-24.3,8-52.3,12.3-65.2q4.1,3.5,7.9,7.2c2.4,2.3,4.9,4.9,7.1,7.5-4.4,9.7-14.3,36-7.8,64.9C145.8,167,169.4,178.8,169.4,178.8ZM159.9,51.1c-1.8,9.5-5.9,10-5.9,10S122.1,20.7,64.6,6.3a45.9,45.9,0,0,0-.9-7.7c52.5,12,83.1,44,83.1,44S121.8-.1,60.1-12.1A45.9,45.9,0,0,0,46.8-28.5L51-28c79.1,9.5,105.3,59.6,105.3,59.6S161.7,41.6,159.9,51.1Zm19.5-24.5-23.1,2.3c0-.8,0-1.6,0-2.4A141.3,141.3,0,0,0,15-114.8,140.6,140.6,0,0,0-69.3-86.9l-12.9-19.2A163.6,163.6,0,0,1,15-137.9,164.4,164.4,0,0,1,179.4,26.5Zm74.4,196.9c-38-50.8-25.3-107-39.2-169.6-3.2-14.6-19-33.3-26.1-36q-.4-8.6-1.6-16.9c26.8,9.9,46.4,32.1,50.6,53.3l1.1-6.4c2.6-15.6,4.6-31.1,5.7-46.7a64,64,0,0,0-8.8-6c-19.9-11.1-28.4-15-28.4-15s11.1-2.1,37.9,5.7q.2-6,.1-11.9t-.4-13.1l-3.3-1.3C220-48.2,211-50.7,211-50.7s9.2-3.3,32.7-1.1a237.6,237.6,0,0,0-18.1-67.9c-23.4,13.7-34.4,14.5-34.4,14.5s7.2-5.9,23.7-21.7a59.1,59.1,0,0,0,4.8-5.3,240.2,240.2,0,0,0-16.4-27.8c-21.2,19.3-32.3,22.3-32.3,22.3s5.9-7.2,19-25.9a62.1,62.1,0,0,0,4.8-8.2,246.4,246.4,0,0,0-35.6-37l-1.8,2.9c-15.1,24.5-25,30.5-25,30.5s3.7-8.6,11.1-30.2a68.5,68.5,0,0,0,3-13.3,251.2,251.2,0,0,0-89.7-42c-.1,3.5-.2,7.3-.6,11.7C54-220.3,48-210.4,48-210.4s-.7-9.3-4-31.9c-1.1-7.4-4-15.2-7.4-22.5a253.5,253.5,0,0,0-41.7-3.2,314.5,314.5,0,0,0-59.2,5.8,163.5,163.5,0,0,1,10.7,21.3c11.3,26.5,10.5,38,10.5,38s-4.9-8-18.2-26.5c-7.5-10.4-20.6-19.7-30.5-25.8-44.8,14.1-82.2,39.7-110.9,77,57.1-16.6,112.3-7,143.6,47.9a172.6,172.6,0,0,0-18.5,10.4c-13.1-23.7-30.2-45.8-77.2-43.6s-86,19.4-105.5,45.8c39.1-99.4,121.4-171.7,255-172.7,142.8-1,271.8,110.5,272.8,264.1C268.2,72.9,229.7,131.1,253.8,223.5Z" transform="translate(278.9 302.9)" style="fill:#050000;fill-rule:evenodd"/><path d="M-112-24.9s4.9,9.5,21.6,9.9,43.7-6.4,54.8-8.5a134,134,0,0,1,20-2.2,44.6,44.6,0,0,0-5.5,6.5,40.1,40.1,0,0,0-2.7,4.5s-39,5-62.4,14.4-29.4,10.8-35.7,10.9-9.4-1.4-9.4-1.4Z" transform="translate(278.9 302.9)" style="fill:#050000;fill-rule:evenodd"/></svg>