<svg xmlns="http://www.w3.org/2000/svg" viewBox="0 0 389.31 301.52"><defs><style>.a,.b,.c,.d{stroke:#000;}.a,.b,.c{stroke-width:0.2px;}.b,.d,.e{fill:#c3c7c7;}.c{fill:#b71f36;}.d{stroke-width:0.23px;}</style></defs><title>Viking295_3c</title><path class="a" d="M336,201.38l.15-.35-.15.35Zm53.64-53.45s-7.71,3.8-22.26-.38-18.77-16.42-15.74-20.44,10-4,10-4L355.42,104l-19.71,3.08s3.12,6.21.87,10.72-15.08,6.21-25.33-4.95S301,93.13,301,93.13,291.33,95.74,281,112.4,278,155.48,278,155.48a29.11,29.11,0,0,1,22.33-4.94l3.77,6.65-6.38,3.19,5,8.65-1.12,1.48-9.51-8.31,0,0-3.93-5.5s-7.74,2.28-10.93,5.92a19.52,19.52,0,0,0-4.1,7.29L259,130.77l-6,1.55-1.41,4s-8.2-10.18-9.89-10.74S231.2,134,231.2,134v-8.2c6.87-3,22.55-15.67,34.26-30C280.32,77.57,277,45,275.55,40.55c0,0-6.17,12.06-20.19,24.68a65.45,65.45,0,0,1-30.57,15.14,169.4,169.4,0,0,0-17.11-17.11A139.62,139.62,0,0,0,192,51.49a151.43,151.43,0,0,0-15.5,11.78,169.44,169.44,0,0,0-17.11,17.11,65.45,65.45,0,0,1-30.57-15.14c-14-12.62-20.19-24.68-20.19-24.68-1.4,4.49-4.77,37,10.1,55.25,11.71,14.36,27.39,27,34.26,30V134s-8.76-9-10.46-8.48-9.89,10.74-9.89,10.74l-1.41-4-4.52-1.7-9.36,38.86a19.51,19.51,0,0,0-4.1-7.29c-3.19-3.64-10.93-5.92-10.93-5.92L89,170.25l-1.27-1.67,5-8.65-6.38-3.19,3.77-6.65A29.11,29.11,0,0,1,112.44,155s7.23-26.43-3.07-43.09S89.42,92.68,89.42,92.68s0,8.59-10.28,19.75-23.08,9.45-25.33,4.95.87-10.72.87-10.72L35,103.58l-6.15,19.07s7,0,10,4-1.19,16.27-15.74,20.44-22.26.38-22.26.38-2,9.79,8.32,26.45,37.17,22,37.17,22a29.12,29.12,0,0,1,5.56-22.18l9.1-3.19,1.38,5.64,7.78-1.36L75.54,182s-21.07,19-20.73,19.71c-.16-.33,18.17,40.73,37,61,47.83,51.24,102.48,78.57,102.48,78.57l1.72.46s54.66-27.33,102.48-78.57C317.42,242.89,336,200.57,336,200.57l-21-18.32,5.29-7,7.78,1.36,1.38-5.64,9.1,3.19a29.12,29.12,0,0,1,5.56,22.18s26.87-5.35,37.17-22,8.32-26.45,8.32-26.45Zm-335.16,53-.15-.35.15.35Z" transform="translate(-0.54 -40.29)"/><path class="b" d="M222.63,145.2a21.88,21.88,0,0,0-6.55,4.22,59.53,59.53,0,0,1-11.17,7.35,71.41,71.41,0,0,0,11.73-11,58,58,0,0,0,8.9-13.85s-5.09,1.13-12.16,6.36-13.71,10.46-13.71,10.46H196l1.7-2.12-1.84-.85c-1.84-.85-5.51-2.12-5.51-2.12l-.42,19.65a11.9,11.9,0,0,0,4.38-1.84c2.83-1.7,5.94-6.22,5.94-6.22s.14,1.41-2.4,6.36a28.52,28.52,0,0,1-1.53,2.64s5.47-1.11,7.71,0,4.35,4.77,7.85,7.29,5.61,2.52,5.61,2.52a38.72,38.72,0,0,0,3.08-12.34c.28-6.17,0-10.24.56-12.62a14.35,14.35,0,0,1,1.49-3.89Z" transform="translate(-0.54 -40.29)"/><polygon class="c" points="196.46 101.93 212.52 92.04 199.91 102.78 196.46 101.93 196.46 101.93"/><path class="d" d="M178.64,281.23a11,11,0,0,1,1.44,6.67,17.17,17.17,0,0,1-1.15,5.29l-12.51,3.44s-1.16,3,2,5.84a33.55,33.55,0,0,1,4.35,4.51s1.15,3,6.05,4.33,3.25,2.55,3.25,2.55-1,3.67,10.85,3.69,20.59-8.77,20.59-8.77-12.89-2.28-20.72-12-8.87-14.35-8.87-14.35l-5.29-1.15Z" transform="translate(-0.54 -40.29)"/><path class="c" d="M192.81,171s5.61-4.35,7.85-4.63,4.77,7.15,12.76,10.8,12.9.7,12.9.7-1.68,4.21-9.82,5.47S206,181.62,203.33,178s-4.49-7-6.73-7.15a17.3,17.3,0,0,0-3.79.14Z" transform="translate(-0.54 -40.29)"/><path class="b" d="M190.43,175.17a13.51,13.51,0,0,0,4.77-.14,6.75,6.75,0,0,0,2.94-1.26s1.4,2.8,1.26,3.79-7.85,2.8-9.12,2.24.14-4.63.14-4.63Z" transform="translate(-0.54 -40.29)"/><path class="c" d="M228.15,146.85s-1.68.56-2,5.89,1.4,10.38,0,14.58a20.93,20.93,0,0,1-3.65,6.73s3.09,1.4,5.33-.84a8.52,8.52,0,0,0,2.52-4.49,5.87,5.87,0,0,1,2,6.73c-1.4,4.49-5,8.13-3.08,14s6.17,5,6.17,5-5.61-2.24-3.08-8.69,5.89-5.89,6.45-11.22-1.68-7.85-1.68-7.85a4,4,0,0,1,4.21,2c1.4,2.52.84,6.17.84,6.17s3.37-6.17,1.4-9.54-4.77-2.52-5-8.13,3.65-3.08,3.65-3.08,1.4-1.4-1.4-3.09-4.77-.84-4.77-.84,2.24-1.4,1.68-6.17-5.61-7.57-5.61-7.57,4.77,3.37,3.08,7.85-5.61,6.17-4.21,10.38,5.61,6.73,5.61,6.73-2.8,2.8-6.45-2.52-2-12.06-2-12.06Z" transform="translate(-0.54 -40.29)"/><path class="c" d="M147.07,184.19s-1.68-.56-2-5.89,1.4-10.38,0-14.58a20.92,20.92,0,0,0-3.65-6.73s3.09-1.4,5.33.84a8.52,8.52,0,0,1,2.52,4.49,5.87,5.87,0,0,0,2-6.73c-1.4-4.49-5-8.13-3.09-14s6.17-5,6.17-5-5.61,2.24-3.08,8.69,5.89,5.89,6.45,11.22-1.68,7.85-1.68,7.85a4,4,0,0,0,4.21-2c1.4-2.52.84-6.17.84-6.17s3.37,6.17,1.4,9.54-4.77,2.52-5,8.13,3.65,3.09,3.65,3.09,1.4,1.4-1.4,3.08-4.77.84-4.77.84,2.24,1.4,1.68,6.17-5.61,7.57-5.61,7.57,4.77-3.37,3.08-7.85-5.61-6.17-4.21-10.38,5.61-6.73,5.61-6.73-2.81-2.8-6.45,2.52-2,12.06-2,12.06Z" transform="translate(-0.54 -40.29)"/><path class="c" d="M221.7,188.63c-3.93-2-10.1-1.12-14.3-2.24s-7.57-6.31-7.57-6.31a8.55,8.55,0,0,1-3.65,2.94,11.88,11.88,0,0,1-5.19,1.12,24.42,24.42,0,0,1,2.52,8.13,9,9,0,0,1-2.52,7.43l4.49-2.52s-2.66,4.21-2.94,12.2,7.85,16.27,7.85,16.27-3.09-4.49-3.09-9.39a13.46,13.46,0,0,1,2.52-8,8.18,8.18,0,0,0,1.4,5.75c2,2.8,6.17,3.65,6.17,3.65s-2.52-1.26-2.94-5.75,4.07-8.41,3.08-12.62a6,6,0,0,0-4.63-4.77,24.77,24.77,0,0,1,2.8-.42c1.54-.14,7.29,1.54,7.29,1.54s-4.27-3.25-7.6-5.89A15.74,15.74,0,0,1,211.6,192c4.49,2.8,4.49,6.17,4.49,6.17l-7.57-2a5.08,5.08,0,0,1,2.8,3.93c.28,2.8-1.12,3.65-3.37,9.82s1.4,9.25,1.4,9.25-1.4,1.4-5,.28-4.49-2.52-4.49-2.52l1.12,4.21a21.82,21.82,0,0,0,2.24,5.89s-5.61,2.8-5,7.57,3.65,5.33,3.65,5.33-2.24-5.89,2-8.13,12.62-6.45,8.41-10.66-1.12-7.85-1.12-7.85a6.41,6.41,0,0,0,3.08,4.49c2.8,1.68,6.17,0,6.17,0s-5-.84-3.37-7.29,4.49-9.25,4.21-12.34-6.73-6.17-6.73-6.17a30.16,30.16,0,0,1,7,.84c2.81.84,4.21,4.77,4.21,4.77s0-7-3.93-9Z" transform="translate(-0.54 -40.29)"/><path class="b" d="M192.53,112.91V60.74S199,64.67,208,73.36s10.1,9.82,10.1,9.82-7.85,5.89-9,15.71,7.85,14.86,7.85,14.86-2,2.8-11.78,7-12.9,4.21-12.9,4.21v-4.21a63,63,0,0,0,11.5-4.77c5.61-3.09,6.73-5.33,6.73-5.33a59,59,0,0,1-8.69,2.8,17.77,17.77,0,0,1-9.26-.56Z" transform="translate(-0.54 -40.29)"/><path class="b" d="M193.65,128.05v7.57s7,0,21.74-6.87,18.93-12.2,18.93-12.2-2.52.28-6.17.56A13.48,13.48,0,0,1,221.7,116s-2,3.37-11.5,7.57-16.55,4.49-16.55,4.49Z" transform="translate(-0.54 -40.29)"/><path class="b" d="M242.18,83.74C232,90,225,90.57,222.26,91.87c0,0-6,3.93-5.61,10.66a10.85,10.85,0,0,0,1,4.3c2.74,1,8.44,1.72,18-2.75,14.44-6.73,25.1-25.66,25.1-25.66s-7.29,16.41-20.33,24.82c-8.21,5.3-13.41,7.31-16.71,7.8,6.54,1.18,15.19-2.5,15.19-2.5a64.52,64.52,0,0,0,22.21-22c8.74-14.76,11.69-32.15,11.69-32.15s-12.38,18.07-30.69,29.38Z" transform="translate(-0.54 -40.29)"/><path class="b" d="M112,54.36s12.38,18.07,30.69,29.38c10.16,6.28,17.21,6.83,19.91,8.13,0,0,6,3.93,5.61,10.66a10.85,10.85,0,0,1-1,4.3c-2.74,1-9.15,3-18-2.75C123,87.1,112,54.36,112,54.36Z" transform="translate(-0.54 -40.29)"/><path class="e" d="M167.7,138.83a66.83,66.83,0,0,0,7.63,5.09c2.83,1.41,6.08,2.83,6.08,2.83L176,152A32.36,32.36,0,0,1,169,148.3a24.07,24.07,0,0,1-3.67-3,14.16,14.16,0,0,1,.28-3.82,6.65,6.65,0,0,1,2.12-2.68Z" transform="translate(-0.54 -40.29)"/><path class="b" d="M38.33,109l35.26,51.38s1.69-8.08,13.76-13.67,17.2-2.07,17.2-2.07,4.87-12.92.94-23.61A54.72,54.72,0,0,0,94.9,103.48s10.38,10.72,13.26,18.85-.07,24.14-.07,24.14l2.91,1.68s4.32-19-2.33-31.49S90.73,95.88,90.73,95.88,87.26,114.09,72,120.58s-19.05.8-21.25-3.19a9,9,0,0,1-.11-8L38.33,109Z" transform="translate(-0.54 -40.29)"/><path class="b" d="M4.82,153.55s3.29,12.69,11.43,22.39,25.09,12.87,25.09,12.87-17.79-6.68-23.29-15.59-5.77-19.73-5.77-19.73l-7.46.06Z" transform="translate(-0.54 -40.29)"/><path class="b" d="M352.22,109.41l-35.39,53s12.93-.72,23.29,7.63,9.47,14.51,9.47,14.51,13.74-1.36,21.58-9.62a54.72,54.72,0,0,0,11-17.27s-5,14.05-11,20.24-21.67,10.63-21.67,10.63l-.22,3.36s18.95-4.55,27.2-16,10.69-25.28,10.69-25.28-17.86,5-30.45-5.85-9.16-16.73-6.55-20.47a9,9,0,0,1,7.1-3.62l-5.07-11.22Z" transform="translate(-0.54 -40.29)"/><path class="b" d="M297.43,99.1s-9.92,8.57-15,20.16-.42,28.2-.42,28.2-1.89-18.9,3.66-27.79,15.13-13.91,15.13-13.91l-3.36-6.66Z" transform="translate(-0.54 -40.29)"/><path class="b" d="M79.61,169.57l84.57,116.18s5.82,3,6.41-.67a47.8,47.8,0,0,0,.64-5L86,168.44,90,160.39,86.88,158l-7.27,11.58Z" transform="translate(-0.54 -40.29)"/><polygon class="b" points="310.6 127.84 267.02 188.57 245.29 202.14 305.36 129.21 301.71 121 304.9 118.73 310.6 127.84 310.6 127.84"/><path class="c" d="M125.06,208.66c15,23.69,50.56,59.22,50.56,59.22L187,249.2s-21.41-7.74-50.56-41-32.8-46.92-32.8-46.92a187.93,187.93,0,0,0,21.41,47.37Z" transform="translate(-0.54 -40.29)"/><path class="c" d="M312.12,185.43s-37.47,62.81-66.81,80.47C212.52,285.65,190,281.7,190,281.7s3.95,11.54,14,18.52,25.21,10.63,25.21,10.63,50.26-30.67,73-65.29c18.1-27.51,23.84-46.16,23.84-46.16S312.88,228.1,295,246.93c-18.22,19.14-31.07,23.91-52.08,34.77,0,0,24.29-15.18,43.43-48,15-25.78,25.81-48.28,25.81-48.28Z" transform="translate(-0.54 -40.29)"/><path class="c" d="M215.75,252.95c16.12-19.05,35.24-45.13,39.19-65.5,7.07-36.46,2-50.6,2-50.6s-7.07,40.71-22.33,68.12-49.13,68.11-49.13,68.11l6.71,5.58s37-26.72,54.36-49.19c15.86-20.59,24.07-49.83,25.33-54.6-.88,3.18-5.51,17.6-22.3,41.84-9.59,13.85-22.91,26.78-33.81,36.23Zm56.11-78.08c.12-.44.18-.67.18-.67l-.18.67Z" transform="translate(-0.54 -40.29)"/></svg>