<svg id="Layer_1" data-name="Layer 1" xmlns="http://www.w3.org/2000/svg" viewBox="0 0 503.3 810"><title>Viking607_4c</title><path d="M58.5,350.7C44.4,369,26.2,385.1,8.4,398.9L.6,405l-7.8-6.1C-25,385.1-43.2,369-57.3,350.7l-15.8-7.5c-13.5-6.5-32.7-21-42.8-32.1l-3.2-3.8-9.8-4.7c-13.2-6.3-27.4-15.5-39-24.3-17.8-13.6-28.9-53.5-34.3-76.8-9.5-10.6-18.1-22.5-23.9-35.5-6.5-14.5-9.7-30.9-10.6-46.7a146.9,146.9,0,0,1,.2-23l.4-4.3,2.9-3.1c1-1.2,2-2.6,2.9-3.9,3.4-4.7,6.6-9.7,9.7-14.6,5.3-8.5,9.3-19.2,12.5-28.7,4.5-13,8.5-26.2,12.9-39.3a181,181,0,0,1,10.1-24.2l-.2-.6-.5-1.8-.3-1.6-.3-1.6v-12l.2-1.7.2-1.8.2-1.9.2-2,.2-2.1.2-2.2.3-2.2.3-2.3.3-2.3.3-2.3.3-2.4.3-2.3.4-2.3.4-2.3.4-2.3.4-2.2h0a67.2,67.2,0,0,1-3.9-11.3c-38.5-20.8-65.7-56.2-66.3-101.8-.9-62.4,25.8-102.9,87.5-116.3,15.3-3.3,31.9-10.6,41.8-23.3,7-9.1,9.5-19.5,8.6-30.9l-3.8-47.5,27.1,39.2a106.2,106.2,0,0,1,10.6,20.7c5.8,14.8,8.5,31.1,5.2,46.8S-87-270.6-97.8-259.8s-22.1,18.1-31.2,28.8c-7.7,9.1-9.9,16.6-6.6,25a49.9,49.9,0,0,1,24-5l1-1,2.7-2.7,2.7-2.6,2.8-2.5,2.8-2.5,2.9-2.4,3-2.4,3-2.3,3.1-2.3,3.1-2.2,3.2-2.1,3.2-2.1,3.3-2,3.3-2,3.4-1.9,3.4-1.8,3.5-1.8,3.5-1.7,3.6-1.6,3.6-1.6,3.7-1.5,3.7-1.4,3.8-1.3,3.8-1.3,3.8-1.2,3.9-1.1,3.9-1.1,4-1,4-.9,4.1-.8,4.1-.8,7.8-1.3L8-264.8l4.3.8,4.3.9,4.2,1,4.2,1.1,4.1,1.1,4.1,1.2,4,1.3,4,1.4,3.9,1.5,3.9,1.5,3.8,1.6,3.8,1.7,3.7,1.8,3.7,1.8,3.6,1.9,3.6,2,3.5,2.1,3.5,2.1,3.4,2.2,3.3,2.3,3.3,2.3,3.2,2.4,3.2,2.5,3.1,2.5,3,2.6,3,2.7,2.9,2.7,2.9,2.8,1.9,2a49.9,49.9,0,0,1,23.9,5c3.4-8.4,1.2-15.8-6.6-25-9.1-10.7-21.2-18.9-31.2-28.8s-20-23.3-23.1-38.4-.5-32,5.2-46.8a106.2,106.2,0,0,1,10.6-20.7L117.6-405l-3.8,47.5c-.9,11.3,1.6,21.8,8.6,30.9,9.9,12.7,26.4,20,41.8,23.3,61.6,13.4,88.4,53.9,87.5,116.3-.6,45.6-27.9,80.9-66.3,101.8a67.6,67.6,0,0,1-3.8,10.9v.2L182-72l.4,2.3.4,2.4.4,2.3.3,2.4.3,2.4.3,2.3.3,2.3.3,2.2.3,2.2.2,2.1.2,2.1.2,2,.2,1.9.2,1.7.2,1.7v2.9l.2,2.2v6.8l-.2,1.6-.4,1.7-.4,1.4A181.3,181.3,0,0,1,196.4,2.4c4.4,13.1,8.3,26.3,12.9,39.3,3.3,9.4,7.2,20.2,12.5,28.7,3.1,4.9,6.3,9.9,9.7,14.6.9,1.3,1.9,2.7,2.9,3.9l2.9,3.1.4,4.3a146.9,146.9,0,0,1,.2,23c-1,15.9-4.1,32.2-10.6,46.7-5.8,12.9-14.4,24.9-23.9,35.5-5.4,23.3-16.5,63.3-34.3,76.8-11.6,8.8-25.8,18-39,24.3l-9.8,4.7-3.2,3.8c-10.1,11.2-29.3,25.7-42.8,32.1Z" transform="translate(251.7 405)" style="fill:#fff;fill-rule:evenodd"/><path d="M-171-21.2A168.1,168.1,0,0,0-183.1,6.5c-9.1,27.3-16.4,54.3-26.7,70.7s-14.1,20.4-14.1,20.4-3.5,34.5,9.4,63.2c6.2,13.7,15.7,25.8,24,34.6,3.8,16.9,14.9,61,30.4,72.8a232.8,232.8,0,0,0,36.7,23c-2.6-9.5-9.3-21.3-6.8-38.9,6.4,14.1,7.5,32.3,23.7,50.3C-96,314-76.8,327.3-67.6,331.7c-4.7-6.8-10.1-20.2-4-38.3C-65.7,311.7-60,341.7.6,388.8c60.6-47.1,66.3-77.1,72.2-95.5,6.1,18.1.8,31.6-4,38.3,9.2-4.4,28.4-17.6,38.8-29.2,16.3-18,17.3-36.2,23.7-50.3,2.5,17.6-4.1,29.4-6.8,38.9a232.9,232.9,0,0,0,36.7-23c15.5-11.8,26.6-55.9,30.4-72.8,8.3-8.8,17.8-20.8,24-34.6,12.9-28.7,9.4-63.2,9.4-63.2s-3.8-4-14.1-20.4S193.4,33.8,184.3,6.5a168.5,168.5,0,0,0-12.7-28.8l.3-.6.6-1.2.5-1.2.4-1.1.3-1,.2-1v-5.2l-.2-2.2v-2.8l-.2-1.6-.2-1.7-.2-1.9-.2-1.9-.2-2-.2-2.1-.2-2.2-.3-2.2-.3-2.2-.3-2.2-.3-2.3-.3-2.2-.3-2.2-.4-2.2-.4-2.1-.4-2.1-.4-2-.4-2v-.4c3.3-5.5,5.1-12.4,6.1-17.7,20.5-10.1,64-38,64.7-93.3,1-72.5-38.1-95.1-77.4-103.6-33.1-7.2-63.5-28.7-60.4-67.6,0,0-19.9,28.9-13.9,57.7,2.6,12.4,10.6,23,19.6,32s22.4,18.3,31.9,29.6c11.9,14,17.5,30.5.3,51.5-5.9-6.7-18.6-12.8-32.3-9.9l-.9-1-2.5-2.7-2.6-2.6L98-206.7l-2.7-2.5-2.8-2.5-2.8-2.4-2.9-2.4-2.9-2.3-3-2.2-3.1-2.2-3.1-2.1-3.2-2-3.2-2-3.3-1.9L61.7-233l-3.4-1.8-3.4-1.7-3.5-1.6-3.5-1.6-3.6-1.5-3.6-1.4L37-244l-3.7-1.3-3.8-1.2-3.8-1.1-3.9-1.1-3.9-1-4-.9-4-.8-4.1-.8-5.8-1-5.5.9-3.8.7-3.8.8-3.8.9-3.7.9-3.7,1-3.6,1.1-3.6,1.1-3.6,1.2-3.5,1.3-3.5,1.3-3.4,1.4-3.4,1.5-3.3,1.5-3.3,1.6-3.2,1.6-3.2,1.7-3.1,1.7-3.1,1.8-3,1.9-3,1.9-2.9,2-2.9,2-2.8,2.1-2.8,2.2-2.7,2.2-2.7,2.3-2.6,2.3-2.6,2.4-2.5,2.4-2.5,2.5-2.4,2.5-2.4,2.6-.3.4c-13.7-2.9-26.4,3.1-32.4,9.9-17.3-21-11.6-37.6.3-51.5,9.5-11.2,23.1-20.7,31.9-29.6s17.1-19.6,19.6-32c6-28.8-13.9-57.7-13.9-57.7,3.1,38.9-27.3,60.5-60.4,67.6-39.3,8.5-78.4,31.1-77.4,103.6.8,55.3,44.2,83.2,64.7,93.3,1,5.4,2.9,12.5,6.2,18.1v.4l-.4,2-.4,2-.4,2.1-.4,2.1-.4,2.2-.3,2.2-.3,2.2-.3,2.3-.3,2.2-.3,2.2-.3,2.2-.2,2.2-.2,2.1-.2,2-.2,1.9-.2,1.9-.2,1.7-.2,1.6v10.2l.2,1,.3,1.1.4,1.1.5,1.2.6,1.2.7,1.3Z" transform="translate(251.7 405)" style="fill:#050000;fill-rule:evenodd"/><path d="M-115.6,16.3l-2.1,11.2c-14.6,14.7-21.6,34.3-26.1,53.4s-6.7,41.2-4,51.7c0,0,7.2-15.2,14-23.7l6.8-8.6s-2.4,39-1,61.4,3.1,27.2,3.1,27.2c3.5-18.8,5.2-26.2,14.5-43.3-4.4,61.6-2.4,90.7,4.6,146.6-20-30.7-41-89.1-39.7-146-11.8,22.6-9.4,90.6-10.6,108.6-21.2-38.6-26.4-76.8-23-113.9,2.3-24.9,8.4-49.2,16.2-72.9,0,0-15.7,20.9-24.6,45-6.4,17.3-5.7,46.9-4.8,62.3a100.1,100.1,0,0,1-15.2-22.4c-6.3-13.2-9.3-32.4-8.6-47.9,4.5-5.7,8.9-12.5,12.3-17.6,13.8-20.8,22-51.4,30.3-74.9A145.9,145.9,0,0,1-162.7-11c3.6,3.2,18.8,15.9,47.1,27.3" transform="translate(251.7 405)" style="fill:#1e4ca0;fill-rule:evenodd"/><path d="M-96.9,135.1s-8.1,15.4-21.5,22.8-35.9,6-35.9,6,11.2,27.7,36.9,32.3,34.4-3.1,34.4-3.1l16.5-7.8Z" transform="translate(251.7 405)" style="fill:#050000;fill-rule:evenodd"/><path d="M-163.8,69.5c2.8-5.4,5.5-10,7.9-12.8l8.9-10.4s-24.6,45.6-23.6,113.4c.6,42.3,8.8,75.5,14.8,94.5v.8c-21.2-38.6-26.4-76.8-23-113.9,2.3-24.9,8.4-49.2,16.2-72.9l-1,1.4m12.6-71.7a302.6,302.6,0,0,0-16,38.1c-8.5,26-36.6,73.2-36.6,73.2s.7,27.4,6.2,46.9c2.3,8.4,4.1,14.5,5.4,18.8v.6a100.1,100.1,0,0,1-15.2-22.4c-6.3-13.2-9.3-32.4-8.6-47.9,4.5-5.7,8.9-12.5,12.3-17.6,13.8-20.8,22-51.4,30.3-74.9A145.8,145.8,0,0,1-162.7-11,106.8,106.8,0,0,0-151.2-2.3Z" transform="translate(251.7 405)" style="fill:#fff;fill-rule:evenodd"/><path d="M-72.4,200.9s.6,62.1,16.8,103.5,42.7,58.2,42.7,58.2-23.9-36.2-34.9-81.5S-55,211.3-55,211.3Z" transform="translate(251.7 405)" style="fill:#1e4ca0;fill-rule:evenodd"/><path d="M116.3,14l2.5,13.5c14.6,14.7,21.6,34.3,26.1,53.4s6.7,41.2,4,51.7c0,0-7.2-15.2-14-23.7l-6.8-8.6s2.4,39,1,61.4S126,189,126,189c-3.5-18.8-5.2-26.2-14.5-43.3,4.4,61.6,2.4,90.7-4.6,146.6,20-30.7,41-89.1,39.7-146,11.8,22.6,9.4,90.6,10.6,108.6,21.2-38.6,26.4-76.8,23-113.9-2.3-24.9-8.4-49.2-16.2-72.9,0,0,15.7,20.9,24.6,45,6.4,17.3,5.7,46.9,4.8,62.3a100.1,100.1,0,0,0,15.2-22.4c6.3-13.2,9.3-32.4,8.6-47.9-4.5-5.7-8.9-12.5-12.3-17.6-13.8-20.8-22-51.4-30.3-74.9a146.5,146.5,0,0,0-11.4-24.6C158.1-7.9,142.6,3.4,116.3,14" transform="translate(251.7 405)" style="fill:#1e4ca0;fill-rule:evenodd"/><path d="M98.1,135.1s8.1,15.4,21.5,22.8,35.9,6,35.9,6-11.2,27.7-36.9,32.3-34.4-3.1-34.4-3.1l-16.5-7.8Z" transform="translate(251.7 405)" style="fill:#050000;fill-rule:evenodd"/><path d="M165,69.5c-2.8-5.4-5.5-10-7.9-12.8l-8.9-10.4s24.6,45.6,23.6,113.4c-.6,42.3-8.8,75.5-14.8,94.5v.8c21.2-38.6,26.4-76.8,23-113.9-2.3-24.9-8.4-49.2-16.2-72.9l1,1.4M151.6-3.9a306.7,306.7,0,0,1,16.8,39.7c8.5,26,36.6,73.2,36.6,73.2s-.7,27.4-6.2,46.9c-2.3,8.4-4.1,14.5-5.4,18.8v.6a100.1,100.1,0,0,0,15.2-22.4c6.3-13.2,9.3-32.4,8.6-47.9-4.5-5.7-8.9-12.5-12.3-17.6-13.8-20.8-22-51.4-30.3-74.9a146.5,146.5,0,0,0-11.4-24.6A132.4,132.4,0,0,1,151.6-3.9Z" transform="translate(251.7 405)" style="fill:#fff;fill-rule:evenodd"/><path d="M143.1,172s-26.6-2-38.6-17.2S78.8,124.1,70.8,118s-21.6-7.1-27.1-4.5L38.2,116l-1,10.1s-16.6,11.1-20.1,17.7-7.5,13.1-7.5,13.1.5,13.1,17.1,21.7,29.1,5,29.1,5-9-7.6-13.5-15.6-4.5-10.6-4.5-10.6,23.6,23.7,42.6,28.8,55.7,2,62.7-14.1" transform="translate(251.7 405)" style="fill:#1e4ca0;fill-rule:evenodd"/><path d="M-142.4,173.3s26.6-2,38.6-17.2,25.6-30.8,33.6-36.8,21.6-7.1,27.1-4.5l5.5,2.5,1,10.1S-20,138.4-16.5,145s7.5,13.1,7.5,13.1-.5,13.1-17.1,21.7-29.1,5-29.1,5,9-7.6,13.5-15.6,4.5-10.6,4.5-10.6-23.6,23.7-42.6,28.8-55.7,2-62.7-14.1" transform="translate(251.7 405)" style="fill:#1e4ca0;fill-rule:evenodd"/><path d="M117.4-187.8s16.3,23.3,25.3,46.3,15.9,53.3,15.9,53.3,10.7-3,4.3-30.5-22.3-59.4-30.5-64.4-15-4.7-15-4.7" transform="translate(251.7 405)" style="fill:#c3c7c7;fill-rule:evenodd"/><path d="M97.7-331.8s-14.4,29.1,17.9,57.1,44.6,36.4,45.8,60.5-15.5,36.4-15.5,36.4,5.5,10.5,9.1,16.5a38.1,38.1,0,0,1,4.5,11.3s26.4,1.3,37.8-37.8-.6-64.4-.6-64.4,34.3,42.8,16.9,84.7-41,46.3-41,46.3l2.1,12.9s52.9-23.4,53-80.7-32-80.6-55.4-88.8-63.8-9.8-74.4-53.9" transform="translate(251.7 405)" style="fill:#c3c7c7;fill-rule:evenodd"/><path d="M97.3-330.9c-.2,7.6.9,18.5,7.2,28.2,11.1,17,57.4,28.4,71.5,36.1s20.6,14.3,20.6,14.3,34.3,42.8,16.9,84.7-41,46.3-41,46.3l2.1,12.9s52.9-23.4,53-80.7-32-80.6-55.4-88.8-63.8-9.8-74.4-53.9l-.4.9" transform="translate(251.7 405)" style="fill:#fff;fill-rule:evenodd"/><path d="M-143.1-96.2c6.8-38.4,22.7-71.9,46.8-97.3s56.5-42.9,96.1-49.2c42,6.7,75.8,25.5,100.4,53.5,21.7,24.7,36.1,56.4,42.6,93C134-57.3,38.7-41.7-39.6-49.3-45.6-78-59-163.6-20.7-222.9c0,0-47.3,14-74.4,50.4-21.9,29.4-33.4,76.6-37,93.6-5.7-5.1-9.5-10.9-11-17.3m-7.3,37C-118.7-23.9-46.2-13.9-1.9-17.8l3,152.9s-6.9-9.5-12.5-13.4l-6.9-4.8S-7.9,66.2-8.4,45.5s-1.8-29-1.8-29c-54.9,1.5-110.1-17-143.3-44.3C-154.7-34.5-154.1-49.8-150.4-59.3Zm-4.8-21.3s21.7,27.3,47,36.4C-54.7-25,54.9-25.4,108.3-44.6c25.3-9.1,47-36.4,47-36.4,5,7.7,8.1,50,8.1,50s.9,15.9-55.1,38.6S16.6,25.8,16.6,25.8s-.5,15,.9,32.3,10.8,64.5,10.8,64.5-2.3,1.4-11.7,10.5A170.5,170.5,0,0,0,.7,150.9V153L0,151.9l-.5.7v-1.4a170.5,170.5,0,0,0-15.9-17.8c-9.5-9.1-11.7-10.5-11.7-10.5s9.5-47.3,10.8-64.5.9-32.3.9-32.3S-52.1,30.7-108.2,8s-55.1-38.6-55.1-38.6S-160.1-72.9-155.2-80.6Z" transform="translate(251.7 405)" style="fill:#c3c7c7;fill-rule:evenodd"/><path d="M-119.3,73.5s.8-13.2,6.4-18.5,14.7-16.6,14.7-16.6,12.4,17.8,20.3,25,16.2,6.8,16.2,6.8-12,1.5-16.5,6.4l-4.5,4.9s10.2-5.3,17.3-5.3,23.3-2.6,30.8-6.8,8.6-6.4,8.6-6.4-5.3,28.7-7.5,34.4l-2.3,5.7s-15.8-6.8-30.8.8S-93,128.3-93,128.3s-4.1-11.3-7.9-19.7a116.7,116.7,0,0,0-8.6-15.5s9.4,3.4,13.2,9.8l3.8,6.4s7.9-14-26.7-35.9m239.1,0s-.8-13.2-6.4-18.5S98.8,38.3,98.8,38.3s-12.4,17.8-20.3,25-16.2,6.8-16.2,6.8,12,1.5,16.5,6.4l4.5,4.9s-10.2-5.3-17.3-5.3-23.3-2.6-30.8-6.8-8.6-6.4-8.6-6.4,5.3,28.7,7.5,34.4l2.3,5.7s15.8-6.8,30.8.8,26.3,24.6,26.3,24.6,4.1-11.3,7.9-19.7A116.7,116.7,0,0,1,110,93.2s-9.4,3.4-13.2,9.8l-3.8,6.4S85.2,95.4,119.8,73.5Z" transform="translate(251.7 405)" style="fill:#c3c7c7;fill-rule:evenodd"/><path d="M100.4,47.3s7.5,9.1,11,13.8a29.7,29.7,0,0,1,4.7,10.3S99.3,79.3,96.5,84.8l-2.8,5.5,7.9-23.3L91.8,75Zm-60.1,32,3.1,14.2s23.6-.4,32.2,7.1l8.6,7.5s0-10.7-7.1-18.2S40.3,79.3,40.3,79.3Zm-140.2-27s-8.7,13.2-10,15.7l-1.2,2.5S-93.1,82.1-89,92.7s4,12.2,4,12.2,11.8-9.1,24.3-11.6,17.8-6,19.9-9.1a10.9,10.9,0,0,0,2.2-5.6S-54.8,83-62.2,83s-17.1,1.6-20.9,4.1l-3.7,2.5s-.9-6.9,2.5-11S-94,56.7-99.9,52.3Z" transform="translate(251.7 405)" style="fill:#fff;fill-rule:evenodd"/><path d="M129.6,169.5c-7.8,0-17.9-.7-23.9-4.4-10.6-6.5-21.3-21.4-21.3-21.4L92,161.3s-13.3-9.2-18.2-17.2-13.3-17.9-18.6-20.6c-3.7-1.9-12.6-2.3-17.5-2.3l.5-5.2,5.5-2.5c5.5-2.5,19.1-1.5,27.1,4.5s21.6,21.7,33.6,36.8c6.3,8,16.7,12.3,25.1,14.6m-272,3.6c5.8,1.1,18.3,2.9,28.1-.2,13.3-4.3,35.2-23.4,35.2-23.4l-3.8,13.9s15.2-25.4,23.8-33c6.2-5.6,16.4-10.6,21.6-13V117l-5.5-2.5c-5.5-2.5-19.1-1.5-27.1,4.5s-21.6,21.7-33.6,36.8S-142.4,173-142.4,173Zm114.6-49.8-.4-.2s9.5-47.3,10.8-64.5c1.2-15.6,1-29.3.9-31.9l5.7-10.2h.6s1.4,8.3,1.8,29-9.9,71.4-9.9,71.4h.2ZM-143.1-96.2c6.8-38.4,22.7-71.9,46.8-97.3s56.5-42.9,96.1-49.2c42,6.7,75.8,25.5,100.4,53.5,21.7,24.7,36.1,56.4,42.6,93a31.4,31.4,0,0,1-7.7,14.1c-3.2-32.2-20.6-69.5-45.9-97.9,7.1,18.4,4.6,37.1-7.6,46.7-16.3,12.8-43.9,4.7-61.6-18S1.2-203,17.6-215.8a28.2,28.2,0,0,1,11.8-5.4,93.6,93.6,0,0,0-50-1.6s-47.3,14-74.4,50.4c-21.9,29.4-33.4,76.6-37,93.6C-137.8-84-141.6-89.8-143.1-96.2Zm-12.1,15.6s21.7,27.3,47,36.4C-54.7-25,54.9-25.4,108.3-44.6c25.3-9.1,47-36.4,47-36.4,5,7.7,8.1,50,8.1,50s.2,3.1-4.6,8.6l-5.5-42.6C126.6-25,41.1-17-1.9-17.8c-44.3,3.9-116.8-6.1-148.5-41.5-3.8,9.5-4.3,24.7-3.1,31.4l.8.6-9.7-.2a7.6,7.6,0,0,1-.9-3.2S-160.1-72.9-155.2-80.6Z" transform="translate(251.7 405)" style="fill:#fff;fill-rule:evenodd"/><path d="M-85.7,28.6C-65,34.1-54.7,34-33.8,39.8c0,0-35.3,17.2-51.9-11.3" transform="translate(251.7 405)" style="fill:#fff;fill-rule:evenodd"/><path d="M87.8,28.6C67.2,34.1,56.9,34,35.9,39.8c0,0,35.3,17.2,51.9-11.3" transform="translate(251.7 405)" style="fill:#fff;fill-rule:evenodd"/><path d="M-117.4-187.8s-16.3,23.3-25.3,46.3-15.9,53.3-15.9,53.3-10.7-3-4.3-30.5,22.3-59.4,30.5-64.4,15-4.7,15-4.7" transform="translate(251.7 405)" style="fill:#c3c7c7;fill-rule:evenodd"/><path d="M-97.7-331.8s14.4,29.1-17.9,57.1-44.6,36.4-45.8,60.5a44,44,0,0,0,15.5,36.4s-5.5,10.5-9.1,16.5a38.1,38.1,0,0,0-4.5,11.3s-26.4,1.3-37.8-37.8.6-64.4.6-64.4-34.3,42.8-16.9,84.7,41,46.3,41,46.3l-2.1,12.9s-52.9-23.4-53-80.7,32-80.6,55.4-88.8,63.8-9.8,74.4-53.9" transform="translate(251.7 405)" style="fill:#c3c7c7;fill-rule:evenodd"/><path d="M-97.3-330.9c.2,7.6-.9,18.5-7.2,28.2-11.1,17-57.4,28.4-71.5,36.1s-20.6,14.3-20.6,14.3-34.3,42.8-16.9,84.7,41,46.3,41,46.3l-2.1,12.9s-52.9-23.4-53-80.7,32-80.6,55.4-88.8,63.8-9.8,74.4-53.9l.4.9" transform="translate(251.7 405)" style="fill:#fff;fill-rule:evenodd"/><path d="M73.6,200.9S73,263,56.8,304.4s-42.7,58.2-42.7,58.2S38.1,326.4,49,281.1s7.1-69.9,7.1-69.9Z" transform="translate(251.7 405)" style="fill:#1e4ca0;fill-rule:evenodd"/></svg>