<svg xmlns="http://www.w3.org/2000/svg" viewBox="0 0 389.31 301.52"><defs><style>.a{stroke:#000;stroke-width:0.2px;}</style></defs><title>Viking295_1c</title><path class="a" d="M54.44,200.92l-.15-.35Z" transform="translate(-0.54 -40.29)"/><path class="a" d="M336.11,201l-.15.35Z" transform="translate(-0.54 -40.29)"/><path class="a" d="M389.6,147.93s-7.71,3.8-22.26-.38-18.77-16.42-15.74-20.44,10-4,10-4L355.42,104l-19.71,3.08s3.12,6.21.87,10.72-15.08,6.21-25.33-4.95S301,93.13,301,93.13,291.33,95.74,281,112.4,278,155.48,278,155.48a29.11,29.11,0,0,1,22.33-4.94l3.77,6.65-6.38,3.19,5,8.65-1.12,1.48-9.51-8.31,0,0-3.93-5.5s-7.74,2.28-10.93,5.92a19.51,19.51,0,0,0-4.1,7.29L259,130.77l-6,1.55-1.41,4s-8.2-10.18-9.89-10.74S231.2,134,231.2,134v-8.2c6.87-3,22.55-15.67,34.26-30C280.32,77.57,277,45,275.55,40.55c0,0-6.17,12.06-20.19,24.68a65.45,65.45,0,0,1-30.57,15.14,169.4,169.4,0,0,0-17.11-17.11A139.61,139.61,0,0,0,192,51.49a151.42,151.42,0,0,0-15.5,11.78,169.43,169.43,0,0,0-17.11,17.11,65.45,65.45,0,0,1-30.57-15.14c-14-12.62-20.19-24.68-20.19-24.68-1.4,4.49-4.77,37,10.1,55.25,11.71,14.36,27.39,27,34.26,30V134s-8.76-9-10.46-8.48-9.89,10.74-9.89,10.74l-1.41-4-4.52-1.7-9.36,38.86a19.51,19.51,0,0,0-4.1-7.29c-3.19-3.64-10.93-5.92-10.93-5.92L89,170.25l-1.27-1.67,5-8.65-6.38-3.19,3.77-6.65A29.11,29.11,0,0,1,112.44,155s7.23-26.43-3.07-43.09S89.42,92.68,89.42,92.68s0,8.59-10.28,19.75-23.08,9.45-25.33,4.95.87-10.72.87-10.72L35,103.58l-6.15,19.07s7,0,10,4-1.19,16.27-15.74,20.44-22.26.38-22.26.38-2,9.79,8.32,26.45,37.17,22,37.17,22a29.12,29.12,0,0,1,5.56-22.18l9.1-3.19,1.38,5.64,7.78-1.36L75.54,182s-21.07,19-20.73,19.71c-.16-.33,18.17,40.73,37,61,47.83,51.24,102.48,78.57,102.48,78.57l1.72.46s54.66-27.33,102.48-78.57C317.42,242.89,336,200.57,336,200.57l-21-18.32,5.29-7,7.78,1.36,1.38-5.64,9.1,3.19a29.12,29.12,0,0,1,5.56,22.18s26.87-5.35,37.17-22S389.6,147.93,389.6,147.93ZM285.66,119.68c-5.55,8.89-3.66,27.79-3.66,27.79s-4.67-16.61.42-28.2,15-20.16,15-20.16l3.36,6.66S291.21,110.79,285.66,119.68Zm20.24,49.82-3.64-8.2,3.19-2.28,5.69,9.11-43.58,60.74-21.73,13.57Zm-49-32.64s5.09,14.13-2,50.6c-3.95,20.37-23.08,46.45-39.19,65.5,10.91-9.46,24.23-22.39,33.81-36.23,16.78-24.24,21.41-38.66,22.3-41.84l.18-.67s-.05.23-.18.67c-1.27,4.76-9.48,34-25.33,54.6-17.31,22.47-54.36,49.19-54.36,49.19l-6.71-5.58s33.86-40.69,49.13-68.11S256.92,136.85,256.92,136.85Zm-63.41,55.43a24.42,24.42,0,0,0-2.52-8.13,11.88,11.88,0,0,0,5.19-1.12,8.55,8.55,0,0,0,3.65-2.94s3.37,5.19,7.57,6.31,10.38.28,14.3,2.24,3.93,9,3.93,9-1.4-3.93-4.21-4.77a30.17,30.17,0,0,0-7-.84s6.45,3.08,6.73,6.17-2.52,5.89-4.21,12.34,3.37,7.29,3.37,7.29-3.37,1.68-6.17,0a6.41,6.41,0,0,1-3.08-4.49s-3.09,3.65,1.12,7.85-4.21,8.41-8.41,10.66-2,8.13-2,8.13-3.09-.56-3.65-5.33,5-7.57,5-7.57a21.82,21.82,0,0,1-2.24-5.89L199.82,217s.84,1.4,4.49,2.52,5-.28,5-.28-3.65-3.08-1.4-9.25,3.65-7,3.37-9.82a5.08,5.08,0,0,0-2.8-3.93l7.57,2s0-3.37-4.49-6.17a15.73,15.73,0,0,0-6.19-2.25c3.33,2.65,7.6,5.89,7.6,5.89s-5.75-1.68-7.29-1.54a24.76,24.76,0,0,0-2.8.42,6,6,0,0,1,4.63,4.77c1,4.21-3.51,8.13-3.08,12.62s2.94,5.75,2.94,5.75-4.21-.84-6.17-3.65a8.18,8.18,0,0,1-1.4-5.75,13.46,13.46,0,0,0-2.52,8c0,4.91,3.09,9.39,3.09,9.39s-8.13-8.27-7.85-16.27,2.95-12.2,2.95-12.2L191,199.71A9,9,0,0,0,193.51,192.28Zm3.09-21.46a17.3,17.3,0,0,0-3.79.14s5.61-4.35,7.85-4.63,4.77,7.15,12.76,10.8,12.9.7,12.9.7-1.68,4.21-9.82,5.47S206,181.62,203.33,178,198.84,171,196.6,170.82Zm38.56-26.5c1.68-4.49-3.08-7.85-3.08-7.85s5,2.81,5.61,7.57-1.68,6.17-1.68,6.17,2-.84,4.77.84,1.4,3.09,1.4,3.09-3.93-2.52-3.65,3.08,3.09,4.77,5,8.13-1.4,9.54-1.4,9.54.56-3.65-.84-6.17a4,4,0,0,0-4.21-2s2.24,2.52,1.68,7.85-3.93,4.77-6.45,11.22,3.08,8.69,3.08,8.69-4.21.84-6.17-5,1.68-9.54,3.09-14a5.87,5.87,0,0,0-2-6.73,8.52,8.52,0,0,1-2.52,4.49c-2.24,2.24-5.33.84-5.33.84a20.93,20.93,0,0,0,3.65-6.73c1.4-4.21-.28-9.26,0-14.58s2-5.89,2-5.89-1.68,6.73,2,12.06,6.45,2.52,6.45,2.52-4.21-2.52-5.61-6.73S233.48,148.81,235.16,144.32Zm-19.77-15.57c-14.73,6.87-21.74,6.87-21.74,6.87v-7.57s7-.28,16.55-4.49S221.7,116,221.7,116a13.48,13.48,0,0,0,6.45,1.12c3.65-.28,6.17-.56,6.17-.56S230.12,121.88,215.39,128.75Zm-2.33,3.57-12.61,10.74-3.45-.85Zm9.2-40.45C225,90.57,232,90,242.18,83.74c18.31-11.31,30.69-29.38,30.69-29.38s-2.94,17.38-11.69,32.15a64.52,64.52,0,0,1-22.21,22s-8.65,3.68-15.19,2.5c3.29-.49,8.5-2.51,16.71-7.8,13-8.41,20.33-24.82,20.33-24.82s-10.66,18.93-25.1,25.66c-9.59,4.47-15.29,3.74-18,2.75a10.85,10.85,0,0,1-1-4.3C216.28,95.8,222.26,91.87,222.26,91.87Zm-30,28.89a63,63,0,0,0,11.5-4.77c5.61-3.09,6.73-5.33,6.73-5.33a59,59,0,0,1-8.69,2.8,17.77,17.77,0,0,1-9.26-.56V60.74S199,64.67,208,73.36s10.1,9.82,10.1,9.82-7.85,5.89-9,15.71,7.85,14.86,7.85,14.86-2,2.8-11.78,7-12.9,4.21-12.9,4.21Zm-1.9,22.87s3.67,1.27,5.51,2.12l1.84.85-1.7,2.12h3.67s6.64-5.23,13.71-10.46,12.16-6.36,12.16-6.36a58,58,0,0,1-8.9,13.85,71.41,71.41,0,0,1-11.73,11,59.53,59.53,0,0,0,11.17-7.35,21.88,21.88,0,0,1,6.55-4.22,14.35,14.35,0,0,0-1.49,3.89c-.56,2.38-.28,6.45-.56,12.62a38.72,38.72,0,0,1-3.08,12.34s-2.1,0-5.61-2.52-5.61-6.17-7.85-7.29-7.71,0-7.71,0a28.53,28.53,0,0,0,1.53-2.64c2.54-4.95,2.4-6.36,2.4-6.36s-3.11,4.52-5.94,6.22a11.9,11.9,0,0,1-4.38,1.84Zm.08,31.54a13.51,13.51,0,0,0,4.77-.14,6.75,6.75,0,0,0,2.94-1.26s1.4,2.8,1.26,3.79-7.85,2.8-9.12,2.24S190.43,175.17,190.43,175.17Zm-15.09-31.25c2.83,1.41,6.08,2.83,6.08,2.83L176,152A32.36,32.36,0,0,1,169,148.3a24.07,24.07,0,0,1-3.67-3,14.16,14.16,0,0,1,.28-3.82,6.66,6.66,0,0,1,2.12-2.68A66.83,66.83,0,0,0,175.34,143.92Zm-26.17-39.85C123,87.1,112,54.36,112,54.36s12.38,18.07,30.69,29.38c10.16,6.28,17.21,6.83,19.91,8.13,0,0,6,3.93,5.61,10.66a10.85,10.85,0,0,1-1,4.3C164.45,107.82,158,109.83,149.17,104.07Zm-2.37,53.75a8.52,8.52,0,0,1,2.52,4.49,5.87,5.87,0,0,0,2-6.73c-1.4-4.49-5-8.13-3.09-14s6.17-5,6.17-5-5.61,2.24-3.09,8.69,5.89,5.89,6.45,11.22-1.68,7.85-1.68,7.85a4,4,0,0,0,4.21-2c1.4-2.52.84-6.17.84-6.17s3.37,6.17,1.4,9.54-4.77,2.52-5,8.13,3.65,3.09,3.65,3.09,1.4,1.4-1.4,3.08-4.77.84-4.77.84,2.24,1.4,1.68,6.17-5.61,7.57-5.61,7.57,4.77-3.37,3.08-7.85-5.61-6.17-4.21-10.38,5.61-6.73,5.61-6.73-2.81-2.8-6.45,2.52-2,12.06-2,12.06-1.68-.56-2-5.89,1.4-10.38,0-14.58a20.92,20.92,0,0,0-3.65-6.73S144.55,155.58,146.79,157.82Zm-10.34,50.38c29.15,33.25,50.56,41,50.56,41l-11.39,18.68s-35.53-35.53-50.56-59.22a187.93,187.93,0,0,1-21.41-47.37S107.29,175,136.45,208.21ZM16.25,175.94c-8.14-9.7-11.43-22.39-11.43-22.39l7.46-.06s.26,10.82,5.77,19.73,23.29,15.59,23.29,15.59S24.39,185.63,16.25,175.94Zm57.34-15.56L38.33,109l12.31.42a9,9,0,0,0,.11,8c2.2,4,6,9.69,21.25,3.19s18.73-24.7,18.73-24.7,11.28,8.29,17.93,20.78S111,148.15,111,148.15l-2.91-1.68s3-16,.07-24.14S94.9,103.48,94.9,103.48A54.72,54.72,0,0,1,105.48,121c3.93,10.69-.93,23.61-.93,23.61s-5.13-3.53-17.2,2.07S73.59,160.38,73.59,160.38Zm6,9.19L86.88,158l3.1,2.39L86,168.44l85.2,111.65a47.79,47.79,0,0,1-.64,5c-.59,3.63-6.41.67-6.41.67Zm113.31,148c-11.87,0-10.85-3.69-10.85-3.69s1.65-1.19-3.25-2.55-6.05-4.33-6.05-4.33a33.55,33.55,0,0,0-4.35-4.51c-3.16-2.86-2-5.84-2-5.84l12.51-3.44a17.17,17.17,0,0,0,1.15-5.29,11,11,0,0,0-1.44-6.67l5.29,1.15s1,4.58,8.87,14.35,20.72,12,20.72,12S204.8,317.56,192.92,317.55ZM326.09,199.4s-5.74,18.64-23.84,46.16c-22.78,34.62-73,65.29-73,65.29S214,307.21,204,300.22s-14-18.52-14-18.52,22.47,3.95,55.27-15.79c29.34-17.66,66.81-80.47,66.81-80.47s-10.78,22.51-25.81,48.28c-19.13,32.8-43.43,48-43.43,48,21-10.87,33.86-15.63,52.08-34.77C312.88,228.1,326.09,199.4,326.09,199.4Zm50.41-23.54c-8.25,11.5-27.2,16-27.2,16l.22-3.36s15.67-4.45,21.67-10.63,11-20.24,11-20.24a54.72,54.72,0,0,1-11,17.27c-7.84,8.26-21.58,9.62-21.58,9.62s.89-6.16-9.47-14.51-23.29-7.63-23.29-7.63l35.39-53,5.07,11.22a9,9,0,0,0-7.1,3.62c-2.61,3.74-6,9.66,6.55,20.47s30.45,5.85,30.45,5.85S384.76,164.37,376.51,175.86Z" transform="translate(-0.54 -40.29)"/></svg>