<svg id="Layer_1" data-name="Layer 1" xmlns="http://www.w3.org/2000/svg" viewBox="0 0 477.8 747.4"><title>Viking607_1c</title><path d="M125.1,184.3l.9,4.7a34.5,34.5,0,0,0,1.1-5.4l1.4-.5Z" transform="translate(238.9 358.5)" style="fill:#050000;fill-rule:evenodd"/><path d="M-125.6,185.5a25.1,25.1,0,0,0,.8,3.5l.6-3.1-1.3-.4Z" transform="translate(238.9 358.5)" style="fill:#050000;fill-rule:evenodd"/><path d="M-1.9-17.8c-44.3,3.9-116.8-6.1-148.5-41.5-3.8,9.5-4.3,24.8-3.1,31.4C-120.3-.5-65.1,17.9-10.2,16.4c0,0,1.4,8.3,1.8,29s-9.9,71.4-9.9,71.4l6.9,4.8c5.6,3.9,12.5,13.4,12.5,13.4Z" transform="translate(238.9 358.5)" style="fill:#050000"/><path d="M119.6,157.9c-13.4-7.4-21.5-22.8-21.5-22.8L93.9,142c3.5,4.2,7.1,8.5,10.5,12.8,12,15.1,38.6,17.2,38.6,17.2-7,16.1-43.6,19.2-62.7,14.1a51.4,51.4,0,0,1-10.5-4.3l-2.1,3.5,16.5,7.8s8.7,7.8,34.4,3.1,36.9-32.3,36.9-32.3S133.1,165.3,119.6,157.9Z" transform="translate(238.9 358.5)" style="fill:#050000;fill-rule:evenodd"/><path d="M-79.7,187.4c-19.1,5-55.7,2-62.7-14.1,0,0,26.6-2,38.6-17.2,3.7-4.6,7.5-9.3,11.2-13.7l-4.4-7.3s-8.1,15.4-21.5,22.8-35.9,6-35.9,6,11.2,27.7,36.9,32.3,34.4-3.1,34.4-3.1l16.5-7.8-1.7-2.8A53.1,53.1,0,0,1-79.7,187.4Z" transform="translate(238.9 358.5)" style="fill:#050000;fill-rule:evenodd"/><path d="M238.9-187.3c1-72.5-38.1-95.1-77.4-103.6-33.1-7.2-63.5-28.7-60.4-67.6,0,0-19.9,28.9-13.9,57.7,2.6,12.4,10.6,23,19.6,32s22.4,18.3,31.9,29.6c11.9,14,17.5,30.5.3,51.5-5.9-6.7-18.6-12.8-32.3-9.9l-.9-1-2.5-2.7-2.6-2.6L98-206.7l-2.7-2.5-2.8-2.5-2.8-2.4-2.9-2.4-2.9-2.3-3-2.2-3.1-2.2-3.1-2.1-3.2-2-3.2-2-3.3-1.9L61.7-233l-3.4-1.8-3.4-1.7-3.5-1.6-3.5-1.6-3.6-1.5-3.6-1.4L37-244l-3.7-1.3-3.8-1.2-3.8-1.1-3.9-1.1-3.9-1-4-.9-4-.8-4.1-.8-5.8-1-5.5.9-3.8.7-3.8.8-3.8.9-3.7.9-3.7,1-3.6,1.1-3.6,1.1-3.6,1.2-3.5,1.3-3.5,1.3-3.4,1.4-3.4,1.5-3.3,1.5-3.3,1.6-3.2,1.6-3.2,1.7-3.1,1.7-3.1,1.8-3,1.9-3,1.9-2.9,2-2.9,2-2.8,2.1-2.8,2.2-2.7,2.2-2.7,2.3-2.6,2.3-2.6,2.4-2.5,2.4-2.5,2.5-2.4,2.5-2.4,2.6-.3.4c-13.7-2.9-26.4,3.1-32.4,9.9-17.3-21-11.6-37.6.3-51.5,9.5-11.2,23.1-20.7,31.9-29.6s17.1-19.6,19.6-32c6-28.8-13.9-57.7-13.9-57.7,3.1,38.9-27.3,60.5-60.4,67.6-39.3,8.5-78.4,31.1-77.4,103.6.8,55.3,44.2,83.2,64.7,93.3,1,5.4,2.9,12.5,6.2,18.1v.4l-.4,2-.4,2-.4,2.1-.4,2.1-.4,2.2-.3,2.2-.3,2.2-.3,2.3-.3,2.2-.3,2.2-.3,2.2-.2,2.2-.2,2.1-.2,2-.2,1.9-.2,1.9-.2,1.7-.2,1.6v10.2l.2,1,.3,1.1.4,1.1.5,1.2.6,1.2.7,1.3h0A168.1,168.1,0,0,0-183.1,6.5c-9.1,27.3-16.4,54.3-26.7,70.7s-14.1,20.4-14.1,20.4-3.5,34.5,9.4,63.2c6.2,13.7,15.7,25.8,24,34.6,3.8,16.9,14.9,61,30.4,72.8a232.8,232.8,0,0,0,36.7,23c-2.6-9.5-9.3-21.3-6.8-38.9,6.4,14.1,7.5,32.3,23.7,50.3C-96,314-76.8,327.3-67.6,331.7c-4.7-6.8-10.1-20.2-4-38.3C-65.7,311.7-60,341.7.6,388.8c60.6-47.1,66.3-77.1,72.2-95.5,6.1,18.1.8,31.6-4,38.3,9.2-4.4,28.4-17.6,38.8-29.2,16.3-18,17.3-36.2,23.7-50.3,2.5,17.6-4.1,29.4-6.8,38.9a232.9,232.9,0,0,0,36.7-23c15.5-11.8,26.6-55.9,30.4-72.8,8.3-8.8,17.8-20.8,24-34.6,12.9-28.7,9.4-63.2,9.4-63.2s-3.8-4-14.1-20.4S193.4,33.8,184.3,6.5a168.5,168.5,0,0,0-12.7-28.8l.3-.6.6-1.2.5-1.2.4-1.1.3-1,.2-1v-5.2l-.2-2.2v-2.8l-.2-1.6-.2-1.7-.2-1.9-.2-1.9-.2-2-.2-2.1-.2-2.2-.3-2.2-.3-2.2-.3-2.2-.3-2.3-.3-2.2-.3-2.2-.4-2.2-.4-2.1-.4-2.1-.4-2-.4-2v-.4c3.3-5.5,5.1-12.4,6.1-17.7C194.6-104,238.1-132,238.9-187.3Zm-106.5,4.2c8.2,5,24.1,37,30.5,64.4s-4.3,30.5-4.3,30.5-6.9-30.3-15.9-53.3-25.3-46.3-25.3-46.3S124.2-188.1,132.4-183.1ZM-96.2-193.6C-72.1-219-39.7-236.5-.1-242.7c42,6.7,75.8,25.5,100.4,53.5,21.7,24.7,36.1,56.4,42.6,93C134-57.3,38.7-41.7-39.6-49.3-45.6-78-59-163.6-20.7-222.9c0,0-47.3,14-74.4,50.4-21.9,29.4-33.4,76.6-37,93.6-5.7-5.1-9.5-10.9-11-17.3C-136.2-134.7-120.3-168.1-96.2-193.6Zm-36.2,10.5c8.2-5,15-4.7,15-4.7s-16.3,23.3-25.3,46.3-15.9,53.3-15.9,53.3-10.7-3-4.3-30.5S-140.6-178.1-132.4-183.1Zm-81.1,15.5c17.4,41.9,41,46.3,41,46.3l-2.1,12.9s-52.9-23.4-53-80.7,32-80.6,55.4-88.8,63.8-9.8,74.4-53.9c0,0,14.4,29.1-17.9,57.1s-44.6,36.4-45.8,60.5a44,44,0,0,0,15.5,36.4s-5.5,10.5-9.1,16.5a38.1,38.1,0,0,0-4.5,11.3s-26.4,1.3-37.8-37.8.6-64.4.6-64.4S-230.9-209.5-213.5-167.6Zm157.8,472C-71.8,263-72.4,200.9-72.4,200.9L-55,211.3s-3.9,24.6,7.1,69.9,34.9,81.5,34.9,81.5S-39.5,345.8-55.6,304.4Zm29.1-125.1c-16.6,8.6-29.1,5-29.1,5s9-7.6,13.5-15.6,4.5-10.6,4.5-10.6-23.6,23.7-42.6,28.8c-8.6,2.3-20.8,2.9-32.3,1.4h0c-.8,36,1.6,62.6,6.8,103.9-20-30.7-41-89.1-39.7-146-11.8,22.6-9.4,90.6-10.6,108.6-21.2-38.6-26.4-76.8-23-113.9,2.3-24.9,8.4-49.2,16.2-72.9,0,0-15.7,20.9-24.6,45-6.4,17.3-5.7,46.9-4.8,62.3a100.1,100.1,0,0,1-15.2-22.4c-6.3-13.2-9.3-32.4-8.6-47.9,4.5-5.7,8.9-12.5,12.3-17.6,13.8-20.8,22-51.4,30.3-74.9A145.9,145.9,0,0,1-162.7-11c3.6,3.2,18.8,15.9,47.1,27.3l-2.1,11.2c-14.6,14.7-21.6,34.3-26.1,53.4s-6.7,41.2-4,51.7c0,0,7.2-15.2,14-23.7l6.8-8.6s-2.4,39-1,61.4c.2,2.9.4,5.5.5,7.9a68.1,68.1,0,0,0,7.5-2.8c2-6.4,4.8-12.6,9.5-21.2-.4,5.8-.8,11.3-1.1,16.5a33.7,33.7,0,0,0,7.1-6.6c12-15.1,25.6-30.8,33.6-36.8s21.6-7.1,27.1-4.5l5.5,2.5,1,10.1s16.6,11.1,20.1,17.7,7.5,13.1,7.5,13.1S-9.9,170.7-26.5,179.3ZM-78,63.3c7.9,7.2,16.2,6.8,16.2,6.8s-12,1.5-16.5,6.4l-4.5,4.9s10.2-5.3,17.3-5.3,23.3-2.6,30.8-6.8,8.6-6.4,8.6-6.4-5.3,28.7-7.5,34.4l-2.3,5.7s-15.8-6.8-30.8.8S-93,128.3-93,128.3s-4.1-11.3-7.9-19.7a116.7,116.7,0,0,0-8.6-15.5s9.4,3.4,13.2,9.8l3.8,6.4s7.9-14-26.7-35.9c0,0,.8-13.2,6.4-18.5s14.7-16.6,14.7-16.6S-85.8,56.1-78,63.3Zm-7.7-34.7C-65,34.1-54.7,34-33.8,39.8-33.8,39.8-69.1,57-85.7,28.6ZM0,151.9l-.5.7v-1.4a170.5,170.5,0,0,0-15.9-17.8c-9.5-9.1-11.7-10.5-11.7-10.5s9.5-47.3,10.8-64.5.9-32.3.9-32.3S-52.1,30.7-108.2,8s-55.1-38.6-55.1-38.6,3.2-42.3,8.1-50c0,0,21.7,27.3,47,36.4C-54.7-25,54.9-25.4,108.3-44.6c25.3-9.1,47-36.4,47-36.4,5,7.7,8.1,50,8.1,50s.9,15.9-55.1,38.6S16.6,25.8,16.6,25.8s-.5,15,.9,32.3,10.8,64.5,10.8,64.5-2.3,1.4-11.7,10.5A170.5,170.5,0,0,0,.7,150.9V153Zm93.2-42.5,3.8-6.4c3.8-6.4,13.2-9.8,13.2-9.8a116.7,116.7,0,0,0-8.6,15.5c-3.8,8.3-7.9,19.7-7.9,19.7s-11.3-17-26.3-24.6-30.8-.8-30.8-.8l-2.3-5.7c-2.3-5.7-7.5-34.4-7.5-34.4s1.1,2.3,8.6,6.4,23.7,6.8,30.8,6.8,17.3,5.3,17.3,5.3l-4.5-4.9c-4.5-4.9-16.5-6.4-16.5-6.4s8.3.4,16.2-6.8,20.3-25,20.3-25,9,11.3,14.7,16.6,6.4,18.5,6.4,18.5C85.2,95.4,93.1,109.4,93.1,109.4Zm27.6,56.7a52.6,52.6,0,0,1-8.2-4.2c-.3-5.2-.6-10.6-1.1-16.3A120.2,120.2,0,0,1,120.8,166.2ZM35.9,39.8c21-5.8,31.3-5.8,51.9-11.3C71.3,57,35.9,39.8,35.9,39.8ZM56.8,304.4c-16.2,41.4-42.7,58.2-42.7,58.2S38.1,326.4,49,281.1s7.1-69.9,7.1-69.9l17.5-10.3S73,263,56.8,304.4ZM174.7,12.6c8.3,23.5,16.5,54,30.3,74.9,3.4,5.1,7.8,11.9,12.3,17.6.6,15.5-2.4,34.7-8.6,47.9a100.1,100.1,0,0,1-15.2,22.4c.9-15.4,1.5-45-4.8-62.3C179.7,88.9,164,68,164,68c7.8,23.7,13.9,48,16.2,72.9,3.4,37.1-1.9,75.3-23,113.9-1.2-18,1.2-86.1-10.6-108.6,1.4,56.9-19.6,115.2-39.7,146,5.3-41.9,7.7-68.7,6.8-105.4-11.9,1.7-24.8,1.2-33.8-1.2-19.1-5-42.6-28.8-42.6-28.8s0,2.5,4.5,10.6,13.5,15.6,13.5,15.6-12.5,3.5-29.1-5S9.1,156.4,9.1,156.4s4-6.6,7.5-13.1,20.1-17.7,20.1-17.7l1-10.1,5.5-2.5c5.5-2.5,19.1-1.5,27.1,4.5s21.6,21.7,33.6,36.8,38.6,17.2,38.6,17.2a79.7,79.7,0,0,1-14-2.7c.2-2.1.3-4.5.5-7.1,1.4-22.5-1-61.4-1-61.4l6.8,8.6c6.8,8.5,14,23.8,14,23.8,2.7-10.5.7-31.8-4-51.7s-11.6-38.7-26.1-53.4L116.3,14c26.3-10.6,41.7-21.9,46.9-26.1A146.5,146.5,0,0,1,174.7,12.6Zm21.9-264.8s12,25.4.6,64.4S159.4-150,159.4-150a38.1,38.1,0,0,0-4.5-11.3c-3.5-6-9.1-16.5-9.1-16.5s16.7-12.3,15.5-36.4-13.5-32.5-45.8-60.5-17.9-57.1-17.9-57.1c10.7,44.1,51,45.6,74.4,53.9s55.5,31.5,55.4,88.8-53,80.7-53,80.7l-2.1-12.9s23.6-4.4,41-46.3S196.6-252.3,196.6-252.3Z" transform="translate(238.9 358.5)" style="fill:#050000"/></svg>