<svg xmlns="http://www.w3.org/2000/svg" viewBox="0 0 370.39 227.89"><defs><style>.a{fill:#070404;}</style></defs><title>Wildcat1 1-color</title><path class="a" d="M235.37,202.24l5.06,1.24-2.26-3-2.79,1.75Zm-84.14,1.23-1.76,3.13,4.71-1.79-2.95-1.33Zm117.16-3.8,12.72,2.79a20.11,20.11,0,0,1-1.37-2.33c-.59-1.39-1.49-1.71-3-1.47-2.87.47-5.77.71-8.39,1ZM224,187.13l-6.18-4-2.42,7.24,8.6-3.23Zm-48.87,4.41-3.08-7.29-6.9,4.4,10,2.89Zm50.13-18.23-7.53,3.63c1.65,5.13,7.54,8.6,12,7.19-2.1-3.28-6.19-5.67-4.47-10.82Zm-65.22,12c5.43.88,10.33-2.18,11.61-7.27l-7.85-3.5c.89,2.3.87,4.17-.36,5.9s-2.26,3.23-3.4,4.87Zm49.07,8.81.3-.48c-.87-.64-1.66-1.64-2.62-1.84-2.5-.53-5.18-1.32-7.59-.9a43.28,43.28,0,0,1-12,.43,15.94,15.94,0,0,0-3.09,0c-2.3.21-3.92,1.34-4.51,3.17a32.93,32.93,0,0,1,5.94-1c2.26,0,4.51.72,6.79,1a5,5,0,0,0,2.7-.35,14.12,14.12,0,0,1,12.12-.82l2,.77Zm-50.84-22.34-5-2.38a8.87,8.87,0,0,0-1.82,9.5c1.26,3.35,3.82,5.38,7.47,6.3-.14-4.61-3.22-8.8-.69-13.43ZM231,184.07c7.47-2.12,9.67-10.49,4.25-15.85l-4.72,2.42c3,4.4.14,8.89.47,13.43Zm51.57-.17c2.63,4,5.15,7.77,7.7,11.56a1.57,1.57,0,0,0,1,.7c4.16,0,8.31,0,12.47,0l.34-.42c-3.31-4.56-6.6-9.14-10-13.67a1.6,1.6,0,0,0-1.34-.37c-3.41.68-6.8,1.43-10.23,2.17Zm-82.11,93.18-4.15,3.81L190.74,277c-.71,1.26-1.4,2.32-1.93,3.45a1.63,1.63,0,0,1-2.21,1.05c-2.17-.85-4.28-1.84-6.4-2.79-.37-.16-.72-.38-1.08-.57.56,1.56,1.49,2.82,2,4.23,1.2,3.09,3.1,4.58,6.49,3.48a2.51,2.51,0,0,1,.86,0c5.32.24,10.65.54,16,.72s4.41.63,6.8-3.86a34,34,0,0,0,1.65-4,14,14,0,0,0,.41-1.92l-9.21,5.38-3.69-5.15Zm-.73-41.26,7.32-3.89,2.31,13.21c4.46-3.67,5.49-9.26,7.68-14.4-8.18-4.24-17-5.69-26-5.83-6.87-.11-12.93,3.06-19,5.84,1,5.92,4.17,10.32,8.82,14.28V231.7c1.83,1.25,3.39,2.21,4.82,3.33a1.84,1.84,0,0,0,2.8-.15c1.74-1.63,3.58-3.16,5.24-4.61l5.93,5.54Zm90.22-74.52c3.4-1.63,6.76-3.22,10.11-4.84,7.72-3.73,15.32-7.64,21-14.33,2.43-2.85,4.91-5.65,7.36-8.47l-.34-.44-23,8.53,1.3-5.19-.38-.48c-3,1.21-6.35,1.92-8.92,3.73-6.38,4.51-11.47,10.5-17.18,16.39a31.88,31.88,0,0,0,3.42-.43,2.62,2.62,0,0,1,3,1.21c1.08,1.47,2.33,2.83,3.56,4.31Zm-52.38,49.25c-2.81,1.31-5.45,2.55-8.1,3.77-1.8.83-5.58-.74-6.38-2.77l11.7-5-2-2.61c-2.62,1.7-5.1,3.33-7.6,4.93-1.82,1.16-5.68.22-6.91-1.8l16.62-9.82c-5.35-6.49-12.2-5.5-19-4.14-.52,4.64-3,7.68-7.05,10.09.18-.81.31-1.35.41-1.89a2.78,2.78,0,0,0-1.2-3c-2-1.39-7.18-1.68-9.1-.31a8.28,8.28,0,0,0-3.36,7.85,34.31,34.31,0,0,0,2,7.81,10.69,10.69,0,0,0,8.61,7.52c4.73.87,9.48,1.64,14.23,2.41,7,1.14,12-2.44,16.21-7.37a5.33,5.33,0,0,0,.94-5.64ZM288.77,282A45.57,45.57,0,0,1,295.18,268c4.51-6.85,9.28-13.54,13.75-20.42,2.9-4.46,5.6-9.07,8.06-13.78a8.59,8.59,0,0,0,.8-5.47,106.62,106.62,0,0,0-13-30.92c-.22-.37-.75-.83-1.12-.8-4,.23-8,.55-12.06.85l7.9,16.31c-6-1.11-11.45-3.1-17.5-1.49a128.85,128.85,0,0,1,19.77,26.19l-2,.47A41.2,41.2,0,0,0,285.64,245c-7.21,5.14-9.23,11.94-5.67,20,1.68,3.82,3.86,7.41,5.8,11.12,1,1.87,1.91,3.75,3,5.88ZM105.85,296.78c1.94-1.5,3.85-3,5.84-4.49,9.68-7,20-12.56,32.28-13.16,6.66-.33,12.85,1.06,17.83,5.71,2.52,2.36,4.53,5.27,6.77,7.93l.2.55.18,0-.09-.74a351.4,351.4,0,0,1-4.4-38.09,26.94,26.94,0,0,0-2.58-11.29,72.33,72.33,0,0,0-20.32-24.33l2.56-8.25-6.37,1.59,1.35-2.94c-6.31-1.89-12.54-3.22-19-2.8a22.15,22.15,0,0,1-2.4-.12,3.36,3.36,0,0,0-3.73,2c-2.45,4.14-5.18,8.12-7.51,12.33-2.2,4-4,8.18-6.06,12.4,2.51.15,4.62.16,6.7.41,9.94,1.2,16.35,8.7,13.84,19.15a108.6,108.6,0,0,1-9.37,24.11c-5.15,10.05-10.61,19.95-15.94,29.9l10.28-9.78ZM270.63,113.61l-12.7,10.06-1.27.87a78.68,78.68,0,0,0-26.55-15.18c-7-2.39-14-3.22-21-.32-4.89,2-9.53,4.69-14.23,7.14a2.26,2.26,0,0,1-2.27.19c-4.05-1.71-8.11-3.46-12.29-4.82-6.1-2-12.46-3.61-18.75-1.67-8,2.46-15.8,5.68-23.69,8.57-2.75,1.18-5.49,2.41-8.27,3.52a6.27,6.27,0,0,1-2,.1c-8.35-5.09-16.64-10.3-25.09-15.23-3.53-2.06-7.41-3.54-11.13-5.28-1.83-.26-3.71-.92-5.49-.72a104.43,104.43,0,0,0-23.18,5.62,159.43,159.43,0,0,0-29.08,13.72c1.16.61,2.13,1.18,3.15,1.65,2.12,1,4.18,2.4,6.41,2.77a67.71,67.71,0,0,0,10,.38c6.6.09,13.2,0,19.79.26,4.75.22,8.87,2.63,12.94,4.85,12.42,6.78,23.93,14.93,35.33,23.27.81.59,1.59,1.21,2.37,1.8-2.05,1.22-4.23,2.08-5.83,3.55a158.13,158.13,0,0,0-25.58,30.33c-.35.54-.62,1.12-1,1.86,2.86,0,5.38-.07,7.9,0a2.08,2.08,0,0,0,2-1.16c2.9-4,5.76-8.13,8.86-12,2.2-2.77,5.35-3.75,8.88-3.76,5.95,0,11.58,1.54,17.15,3.34,3.8,1.23,7.54,2.66,11.31,4l.18.22,0-.38a32,32,0,0,1-3.09-14.29c0-.58-.29-1.53-.72-1.72-2.28-1-4.58-2-7.25-1.27-4.29,1.16-8.64,2.13-13.22,3.25,4.14-5.77,8.45-10.92,15.57-12.68a12,12,0,0,1,2.9.18,73.33,73.33,0,0,1,10,3.44c7.42,3.56,14.68,7.47,22,11.22.72.37,1.47.69,2.67,1.26-3.41-6-1.47-10.82,1.88-15.29l-22.59-10.91c-1.32-.88-2.68-1.71-4-2.65-2.71-2-2.94-2.64-.74-5.18,4.91-5.66,10-11.15,15-16.7.16-.17.51-.17.77-.25l0,0c-.19.53-.37,1.07-.58,1.59-1.68,4.19-3.53,8.33-5,12.59-1.58,4.57-1.25,5.55,3.12,7.61,4.91,2.31,10,4.2,15.09,6.14,2.91,1.11,5.92,2,8.85,2.9-.82,2.73-1.56,5.31-2.37,7.87-1.06,3.37-.2,6.32,1.89,9,.27.35.55.69,1,1.22-2.49,2.32-4.71,4.88-7.41,6.77-4.06,2.84-6,9.19-4.45,15.32a12.29,12.29,0,0,1,7.53-3c2.85-.11,5.71.14,8.57.24,1,0,2,.1,3,0,1.76-.16,3.52-.58,5.28-.63a22,22,0,0,1,12.82,3.47c.64-6.78-.25-12.64-6.15-16.86a91.41,91.41,0,0,1-7.41-6.56C203,164,203.8,160.7,202.38,157c-1-2.61-2-5.24-3-7.95l2.32-.9c4.31-1.49,8.69-2.81,12.91-4.51a77.41,77.41,0,0,0,9.48-4.74c2.08-1.19,2.53-2.21,1.63-4.3-2.45-5.63-5.17-11.15-7.79-16.71a6,6,0,0,1,1.57.83c4.88,4.93,9.89,9.75,14.52,14.9,3.64,4.05,4.78,4.29-1.23,8.15-4.51,2.89-9.37,5.25-14.14,7.72-3,1.54-6.07,2.85-9.22,4.32,3.85,4.51,6,9.29,3.67,15.11l-.22.18.16,0,0-.24a9.14,9.14,0,0,0,1.68-.53c7.16-3.86,14.26-7.82,21.46-11.6,3.86-2,7.89-3.73,12.4-3.65,7.28,1.79,11.94,6.89,16.56,12.85-4.42-1.11-8.37-2-12.28-3.1a10.68,10.68,0,0,0-7.2.52,2.3,2.3,0,0,0-1.64,2.56,55.89,55.89,0,0,1-.16,7.36,21.82,21.82,0,0,1-4.62,11.43,5.73,5.73,0,0,0,1.45-.5A133.67,133.67,0,0,1,263,175.6c5.5-1.48,10.63-1.35,14.43,3.38,2.65,3.31,5.61,4.08,9.51,3a50.4,50.4,0,0,1,6.15-.94l.28-.53c-5-5.24-10-10.45-14.88-15.73a21.37,21.37,0,0,0-8.57-5.5c-1.83-.66-3.6-1.53-5.67-2.42,5.09-4.12,9.86-8.07,14.73-11.9,8.21-6.45,16.47-12.87,25.65-17.92a33.58,33.58,0,0,1,9.06-3.52,93.49,93.49,0,0,1,11.8-1.2c5-.4,9.94-.74,14.91-1.1a5.14,5.14,0,0,0,1.69-.16c3.29-1.54,6.54-3.15,10.08-4.87a8.84,8.84,0,0,0-.83-.52C336.54,110,321.57,105,305.88,102.48c-4.57-.73-9.2-1.46-13.83-.22-8,2.15-14.8,6.58-21.42,11.35ZM86.9,218.89l0,0a9.43,9.43,0,0,1,.4-1.82c1.43-3.28,2.91-6.54,4.42-9.91h-4a4.94,4.94,0,0,1,2.41-.59c1.65.08,2.35-.8,3-2.18,1.54-3.26,3.27-6.44,4.93-9.64.49-.93,1-1.85,1.63-3-2.93-.21-5.55-.45-8.18-.54a2,2,0,0,0-1.38.93A115.73,115.73,0,0,0,76.25,225a8.79,8.79,0,0,0,.29,5.9,98.52,98.52,0,0,0,4.71,9.72c5.15,8.68,10.58,17.19,15.75,25.86a53.82,53.82,0,0,1,6.43,14.76c.08.33.22.65.33,1l.52.06c2.08-6.36,4.51-12.62,6.13-19.09,1.87-7.45-1.64-13.26-8.84-15.91a18.43,18.43,0,0,0-4-1.07c-3.16-.4-6.34-.63-9.6-.94,3.55-11.47,9.41-21.95,15.27-32.59a37.56,37.56,0,0,0-7.86,1.87c-2.95,1.2-5.7,2.9-8.53,4.38ZM58.45,136l-.41-.08.23.26a2.3,2.3,0,0,0,.24.44c6.89,7.9,14.41,14.91,24.47,18.73,5.88,2.23,11.6,4.87,17.43,7.35,2.33-3.66,6.58-3,9.75-4.78a3.14,3.14,0,0,0-.39-.52c-5.88-5.22-11.72-10.48-17.65-15.64-3.31-2.88-7.5-3.44-11.7-4.19l1.58,5.3c-1-.26-1.63-.42-2.28-.62L58.45,136Zm105.36,75.32,4.05,1.49-.94,1.35c-.38.25-.77.48-1.14.74a5.33,5.33,0,0,1-5.74.73,71,71,0,0,0-7.21-2.33,3.29,3.29,0,0,0,.85,4c3.34,3.37,7.53,5.59,12.14,5.68,4.14.07,8.3-1.26,12.46-2,2.51-.58,5-1.24,7.53-1.7a3.51,3.51,0,0,0,3.12-2.73c1-4,1.86-8,2.74-12a1.66,1.66,0,0,0-.25-1.12,36,36,0,0,0-2.53-3.67c-1.38-1.65-4.5-1.93-6.5-.72-1.4.85-1.51,1.81-.54,4.51a.58.58,0,0,1,0,.15c-5.59,0-8.48-4.06-7.29-10.16-3.89,0-7.78-.05-11.67,0a8.89,8.89,0,0,0-2.55.88c-2.7,1.06-4.52,3.14-6.45,5.35L164.16,204l8,3.71a10.33,10.33,0,0,1-1.5,1.37c-2.18,1.24-4.42,2.06-6.8.45L157,206.1l-1.67,3,8.46,2.19Zm58.45,89c.38-5.89.91-11.78,1.11-17.67.36-10.56.54-21.12.75-31.67.07-3.79,0-7.59,0-11.2-2,6.93-4.12,14.07-4.75,21.5-.58,6.8-.62,13.64-.92,20.46-.15,3.38-.25,6.77-.55,10.13s-1.4,4.53-4.75,4.72a55.41,55.41,0,0,1-8.4-.24c-5.36-.51-10.68-1.66-16.11-1.09-2.69,0-5.39.07-8.08-.1s-4.16-1.33-4.32-4c-.31-5.14-.3-10.3-.34-15.45,0-4.12.63-8.35-.06-12.34-.88-5.09-2.77-10-4.32-15-.64-2-1.52-4-2.3-6a2.94,2.94,0,0,0-.15,1.44c.77,8.57,1.47,17.15,2.34,25.71,1.05,10.32,2.33,20.62,3.36,31,.41,4.12,2.6,6.29,6.46,7.1.45.09.89.24,1.33.33a67.65,67.65,0,0,0,22.43.86,115.46,115.46,0,0,0,12.46-2.38,5.78,5.78,0,0,0,4.8-6.08Zm60.56-17,0,0c-1.36-2.32-2.75-4.62-4.08-7-4.24-7.4-8.42-14.84-11-23.05a16.06,16.06,0,0,1-.69-8.47c1.5-6.54,6.08-9.88,12.2-11.44,2.46-.62,5-.8,7.66-1.19-.42-.79-.81-1.61-1.26-2.39-5.69-10-12.93-18.92-20.56-27.51-1.8-2-1.79-2-4.46-1.06l-9.87,3.32,1.88,3-6.56-.85,3.69,8.24a8.92,8.92,0,0,0-1.2,1.07,118.91,118.91,0,0,0-13.46,21.14c-2,4.1-3.74,8.29-3.82,12.92A357.73,357.73,0,0,1,228.68,287q-.39,3.16-.77,6.31a15.34,15.34,0,0,0,2-2.61c3.76-5.47,8.51-9.67,15.2-11a33.48,33.48,0,0,1,15.51.81c9.67,2.64,17.89,7.89,25.37,14.35,3.89,3.36,7.47,7.09,11.2,10.65l.17.57.22-.06-.16-.69q-6.81-10.3-13.64-20.6a3.43,3.43,0,0,0-.62-.57l-.38-.81ZM149.36,194.1l6.26-5.27-33.95-6c-1.88-.33-3.57-.24-5,1.36-1.92,2.2-4,4.31-6,6.45l.37.65h10.61c.1.06.2.16.29.16,7.55,0,14.64,2.12,21.67,4.52,3.44,1.17,3.44,1.17,5.67-1.88Zm123.43,2.1h4l.32-.5c-2.27-2.83-4.53-5.67-6.84-8.47-.19-.23-.83-.26-1.2-.17-2,.48-4,1-6,1.55a58.73,58.73,0,0,0-18.56,8.12l1.89,2.26c2,2.41,2,2.45,5,1.44,2.6-.89,5.12-2,7.75-2.79a26,26,0,0,1,4.63-.49l9-.95Zm-158.31-2.81c-1.3-.17-2.6-.38-3.91-.47a1.32,1.32,0,0,0-1.08.5c-1.21,2.89-2.34,5.8-3.49,8.71l.43.21a20.52,20.52,0,0,1,14.27-3.42l-3.32,4.48,5.36-.4c5.72.8,11.44,1.63,17.18,2.37a2.13,2.13,0,0,0,1.7-.55c1-1.37,1.86-2.88,2.75-4.3-9.37-5-19.62-6.14-29.9-7.13Zm137.76-4.74,15.32-4.43c-2.06-.44-3.79-1.22-5.44-1.09a93.64,93.64,0,0,0-12,1.69c-4.79,1-9.49,2.44-14.52,3.77l3.7,2.77a19.41,19.41,0,0,0,1.84,1.76,1.53,1.53,0,0,0,1.28.22c3.31-1.52,6.58-3.11,9.86-4.68ZM93.65,308.92a79.56,79.56,0,0,0-3.1-18.9,107.46,107.46,0,0,0-19.28-38.3c-5.2-6.62-6.43-14.2-5.56-22.27,1.26-11.68,5.77-22.28,11.44-32.38,3.93-7,8.43-13.65,12.69-20.46.33-.53.69-1,1.12-1.67-5.71-3.67-11-7.76-16.95-10.74-10.27-5.19-15.5-14.28-20.22-24a29.83,29.83,0,0,1-1.86-4.06,2.91,2.91,0,0,0-3.07-2.3c-6.89-.27-12.71-3.3-18-7.38-7.56-5.8-15-11.75-22.49-17.64l-1.19-1,.3-.67a10.13,10.13,0,0,1,2.31.56c4.49,2.29,9,4.59,13.41,7a2.92,2.92,0,0,0,3,.08c15-7,30.32-13.33,46.3-17.84,7.58-2.14,15.24-4.09,23.19-3.57a28.5,28.5,0,0,1,8.92,2.23c10,4.19,19.3,9.82,28.53,15.51a2.93,2.93,0,0,0,3.25.19c9.86-4.74,20.08-8.37,31.05-9.58,6-.66,11.77.48,17.5,2,2.49.67,5,2,7.43,2s4.78-1.68,7.24-2.37a92.54,92.54,0,0,1,12.65-3.11c6.13-.81,12.08.77,17.91,2.61a110,110,0,0,1,22.19,10,2.88,2.88,0,0,0,3.35-.09c7.83-4.3,15.69-8.55,23.62-12.64,9.27-4.79,19-5.58,29.07-2.92,16.9,4.45,33.86,8.69,50.81,13a3.67,3.67,0,0,0,2.5-.33c4.5-2.64,8.93-5.41,13.41-8.08a10.32,10.32,0,0,1,2.29-.72l.14.47c-1.75,1.79-3.39,3.7-5.26,5.35-5.85,5.17-11.78,10.25-17.68,15.36a33.91,33.91,0,0,1-18.46,8.49,2.83,2.83,0,0,0-2.25,1.55c-5.14,8.23-10.23,16.53-16.9,23.63-2.81,3-6.29,5.34-9.38,8.08s-6,5.53-9.08,8.41c1.09,1.53,2.12,3,3.12,4.4,8.59,12.3,16.48,25,21.9,39.06,2.73,7.11,4.71,14.41,4.65,22.1a26.87,26.87,0,0,1-5.47,16.33c-10.6,14.16-17.92,29.83-21.13,47.32-.47,2.57-.75,5.18-1.11,7.72-3.76-1.84-7.48-3.85-11.36-5.51a110,110,0,0,0-38.75-8.61,21.22,21.22,0,0,0-11.47,3.16A60.1,60.1,0,0,0,220,315a11.77,11.77,0,0,1-7.84,4.56c-4.17.7-8.42,1-12.62,1.52-4.92.64-9.72-.12-14.51-1.08-3.48-.69-5.88-2.78-8.23-5.45-5.53-6.28-11.63-12-19.14-16-3.91-2.08-8-3.52-12.5-3.19-4.8.36-9.63.64-14.39,1.36a105.39,105.39,0,0,0-36.53,12.11,2.58,2.58,0,0,1-.57.15Z" transform="translate(-7.16 -93.38)"/><path class="a" d="M160.9,157.19c-2-.53-4.07-1-6.07-1.6-5.06-1.54-10.1-3.15-15.14-4.73-3.6-1.46-7.22-2.87-10.79-4.39a28.81,28.81,0,0,1-4.09-2.18c-2.28-1.44-2.77-3-1.46-5.39a18.54,18.54,0,0,1,3.32-4.57c3.28-3.1,6.77-6,10.17-9l.3.24c-1.52,2.68-3.19,5.3-4.53,8.07s-1.13,3.63,1.23,5.35c6.3,4.57,12.73,9,19.17,13.32,2.55,1.73,5.26,3.23,7.9,4.84Z" transform="translate(-7.16 -93.38)"/><path class="a" d="M191.36,173.81c6.54-1.52,11.7,1.3,16.59,5l-.14.55c-2.08-.42-4.14-.89-6.23-1.25-3.83-.66-7.68-1.28-11.58-.52l-4.92,1.11c-.44.1-.88.14-1.33.21l0,0c1.93-2.57,4.68-3.93,7.56-5.09Z" transform="translate(-7.16 -93.38)"/><path class="a" d="M166.6,119.6c0-.19,0-.38,0-.09l0,.07,0,0Z" transform="translate(-7.16 -93.38)"/><path class="a" d="M183.76,178.87l0,.24-.22,0,.22-.18,0,0Z" transform="translate(-7.16 -93.38)"/><path class="a" d="M136.84,125.38l.31-.19c0,.14,0,.29,0,.43l-.29-.24Z" transform="translate(-7.16 -93.38)"/><path class="a" d="M248,123.64a60.52,60.52,0,0,1,13.67,12.18,11.49,11.49,0,0,1,.76,1.14c1.78,2.88,1.56,4.75-1.41,6.25A140.13,140.13,0,0,1,247,149.47c-5.89,2.21-11.93,4-17.91,5.95a3.88,3.88,0,0,1-1.83.18c2.87-1.86,5.82-3.61,8.59-5.6,5.3-3.81,10.58-7.66,15.7-11.7,3.09-2.44,3.18-3.31,1.29-6.7-1.49-2.69-3.27-5.22-4.92-7.83l.14-.13Z" transform="translate(-7.16 -93.38)"/><path class="a" d="M247.89,123.77l-.26-.27.4.14-.14.13Z" transform="translate(-7.16 -93.38)"/><polygon class="a" points="219.5 62.57 219.64 62.54 219.62 62.64 219.5 62.57 219.5 62.57"/><path class="a" d="M113.42,282a10.39,10.39,0,0,1,.59-1.92q7.63-14.31,15.31-28.6c.27-.5.49-1,.73-1.55,2.05-3.43,4.06-6.89,6.18-10.28,1.52-2.43,3.13-4.8,4.84-7.1,1.31-1.77,2.34-2,4.07-.57a37,37,0,0,1,5.5,5.41c3,3.7,5.7,7.59,8.53,11.41l-.21.5c-2.19,0-4.38-.07-6.57,0s-4.57.37-6.86.49a6.25,6.25,0,0,0-4.39,2.37q-12.9,14.09-25.86,28.11c-.57.62-1.24,1.14-1.86,1.71Z" transform="translate(-7.16 -93.38)"/><path class="a" d="M113.43,282.34l-.57-.17.58-.2v.37Z" transform="translate(-7.16 -93.38)"/><path class="a" d="M261.25,251.69l12.11,21.06,3.1,6a1.3,1.3,0,0,0-.26.19q-6-6.42-11.94-12.84C259.51,261,254.72,256,250,250.88a3.66,3.66,0,0,0-4-1.3c-3.91,1.1-7.82,2.23-11.72,3.35a1.25,1.25,0,0,0-.21-.27,72.06,72.06,0,0,1,11.33-15.43,9.72,9.72,0,0,1,1.48-1.17c1.74-1.16,2.76-1.21,4,.5,3.23,4.5,6.27,9.14,9.38,13.73l1,1.4Z" transform="translate(-7.16 -93.38)"/><path class="a" d="M276.45,278.74l.08.76-.21,0-.13-.59a1.3,1.3,0,0,1,.26-.19Z" transform="translate(-7.16 -93.38)"/><path class="a" d="M234.32,252.92l-.4,0,.19-.29a1.25,1.25,0,0,1,.21.27Z" transform="translate(-7.16 -93.38)"/><path class="a" d="M86.9,218.89l-.18.2,0-.21.23.06,0,0Z" transform="translate(-7.16 -93.38)"/></svg>