<svg xmlns="http://www.w3.org/2000/svg" viewBox="0 0 386.24 240.04"><defs><style>.a{fill:#c3c7c7;}.b{fill:#070404;}.c{fill:#fff;}</style></defs><title>Wildcat1 3-color</title><path class="a" d="M93.65,308.92a2.58,2.58,0,0,0,.57-.15,105.39,105.39,0,0,1,36.53-12.11c4.76-.72,9.58-1,14.39-1.36,4.5-.34,8.58,1.11,12.5,3.19,7.51,4,13.61,9.73,19.14,16,2.35,2.67,4.75,4.76,8.23,5.45,4.79,1,9.59,1.72,14.51,1.08,4.2-.55,8.44-.82,12.62-1.52A11.77,11.77,0,0,0,220,315a60.1,60.1,0,0,1,18.94-16.51,21.22,21.22,0,0,1,11.47-3.16,110,110,0,0,1,38.75,8.61c3.87,1.66,7.59,3.67,11.36,5.51.36-2.54.64-5.15,1.11-7.72,3.21-17.48,10.53-33.15,21.13-47.32A26.87,26.87,0,0,0,328.22,238c.07-7.69-1.91-15-4.65-22.1-5.41-14.08-13.31-26.77-21.9-39.06-1-1.44-2-2.87-3.12-4.4,3.1-2.87,6-5.7,9.08-8.41S314.2,159,317,156c6.67-7.1,11.76-15.4,16.9-23.63a2.83,2.83,0,0,1,2.25-1.55,33.91,33.91,0,0,0,18.46-8.49c5.9-5.11,11.83-10.19,17.68-15.36,1.87-1.65,3.51-3.56,5.26-5.35l-.14-.47a10.32,10.32,0,0,0-2.29.72c-4.49,2.67-8.91,5.44-13.41,8.08a3.67,3.67,0,0,1-2.5.33c-16.95-4.27-33.91-8.51-50.81-13-10.12-2.66-19.8-1.87-29.07,2.92-7.94,4.1-15.8,8.34-23.62,12.64a2.88,2.88,0,0,1-3.35.09,110,110,0,0,0-22.19-10c-5.83-1.85-11.78-3.42-17.91-2.61a92.54,92.54,0,0,0-12.65,3.11c-2.46.69-4.81,2.3-7.24,2.37s-4.94-1.29-7.43-2c-5.73-1.55-11.49-2.68-17.5-2-11,1.21-21.19,4.84-31.05,9.58a2.93,2.93,0,0,1-3.25-.19c-9.23-5.69-18.5-11.32-28.53-15.51a28.5,28.5,0,0,0-8.92-2.23C87.73,92.94,80.06,94.9,72.48,97c-16,4.51-31.27,10.85-46.3,17.84a2.92,2.92,0,0,1-3-.08c-4.43-2.41-8.91-4.72-13.41-7a10.13,10.13,0,0,0-2.31-.56l-.3.67,1.19,1c7.49,5.89,14.94,11.83,22.49,17.64,5.31,4.08,11.13,7.11,18,7.38a2.91,2.91,0,0,1,3.07,2.3,29.83,29.83,0,0,0,1.86,4.06c4.72,9.69,9.95,18.77,20.22,24,5.9,3,11.24,7.08,16.95,10.74-.43.64-.8,1.14-1.12,1.67-4.25,6.81-8.76,13.47-12.69,20.46-5.67,10.09-10.18,20.7-11.44,32.38-.87,8.07.37,15.65,5.56,22.27A107.46,107.46,0,0,1,90.55,290a79.56,79.56,0,0,1,3.1,18.9Zm294.56-205c-2.78,2.78-5.42,5.5-8.14,8.11-2.19,2.1-4.41,4.18-6.75,6.11-6.18,5.09-12.37,10.18-18.69,15.09a24.88,24.88,0,0,1-11.54,4.59,5,5,0,0,0-3.61,2.44c-3.4,5.17-6.85,10.31-10.45,15.34a56.58,56.58,0,0,1-12.34,12.56c-2.38,1.77-4.5,3.9-6.78,5.8-1,.82-.86,1.48-.19,2.45a212.39,212.39,0,0,1,17.83,30,95.81,95.81,0,0,1,8.21,24.16c1.54,8.64,1.3,17.19-3.14,25-2.05,3.62-4.78,6.86-7.06,10.36A106.67,106.67,0,0,0,310.11,303a80.39,80.39,0,0,0-1.11,8.66c-.33,3.53-4.8,6.42-8.41,5.22a22.45,22.45,0,0,1-3.68-1.83,89.15,89.15,0,0,0-26.55-9.59c-5.09-1-10.3-1.34-15.42-2.15-6.38-1-11.39,2-16,5.6a126.56,126.56,0,0,0-10.21,9.4c-1.88,1.82-3.36,4.1-5.39,5.71-3.26,2.61-7.36,3.49-11.38,4a94.74,94.74,0,0,1-14.69,1c-5-.11-10.1-.08-14.9-1.87a8,8,0,0,1-2.8-1.81c-3.93-3.95-7.66-8.09-11.69-11.93a43.06,43.06,0,0,0-13.26-9.07,19.16,19.16,0,0,0-8.54-1.18,124.9,124.9,0,0,0-20.85,2.87,101.47,101.47,0,0,0-22.47,8,16.76,16.76,0,0,0-3.14,1.78,2.53,2.53,0,0,1-3.25.16c-2.09-1.2-4.28-2.22-6.37-3.41-.43-.24-1-1.08-.86-1.35,1.51-3.3.29-6.54-.24-9.73a89.83,89.83,0,0,0-10.37-29.35,182.39,182.39,0,0,0-10.06-15.35,34.37,34.37,0,0,1-6.34-15.93c-1.35-11.23,1.72-21.67,5.83-31.89a158.53,158.53,0,0,1,15.76-28.77c.91-1.36.85-2.05-.58-2.93q-8.06-4.94-16-10.08a28.49,28.49,0,0,1-8.93-9.41c-3-5-5.64-10.11-8.52-15.13a2.78,2.78,0,0,0-1.76-1.33,30,30,0,0,1-13.71-5.11A222.07,222.07,0,0,1,10,118.07q-3.92-3.35-7.69-6.86a1.78,1.78,0,0,1-.27-1.69,33.53,33.53,0,0,1,3.34-4.13A6.89,6.89,0,0,1,14.2,104c3.83,2,7.63,4,11.42,6a2.79,2.79,0,0,0,2.71.16c8.6-3.64,17.18-7.35,25.88-10.72,11-4.27,22.24-7.81,34-9.53,6.29-.93,12.63-1.51,18.6,1.16,6.38,2.85,12.63,6,18.84,9.24,3.66,1.9,7.15,4.11,10.67,6.27,1.17.71,2.05.2,3-.25a109.84,109.84,0,0,1,23.1-7.67,51.25,51.25,0,0,1,25.78,1.1c1.26.38,2.57.62,3.8,1.06a7.55,7.55,0,0,0,5.15-.22c4.94-1.62,9.91-3.4,15-4.25a38.93,38.93,0,0,1,15.48.91,107.93,107.93,0,0,1,26.92,10.67,2.58,2.58,0,0,0,3,0,161,161,0,0,1,25.28-12.85c4.65-1.8,9.41-3.51,14.41-3.65a50.62,50.62,0,0,1,10.36,1.13c17.86,3.22,35.3,8.2,52.77,13a4.19,4.19,0,0,0,2.88-.41c3.74-2.12,7.46-4.28,11-6.65,3.22-2.14,8.57-1.89,10.84,1.81a32.79,32.79,0,0,0,3.06,3.61Z" transform="translate(-1.97 -89.11)"/><path class="b" d="M235.37,202.24l5.06,1.24-2.26-3-2.79,1.75Zm-84.14,1.23-1.76,3.13,4.71-1.79-2.95-1.33Zm117.16-3.8,12.72,2.79a20.11,20.11,0,0,1-1.37-2.33c-.59-1.39-1.49-1.71-3-1.47-2.87.47-5.77.71-8.39,1ZM224,187.13l-6.18-4-2.42,7.24,8.6-3.23Zm-48.87,4.41-3.08-7.29-6.9,4.4,10,2.89Zm50.13-18.23-7.53,3.63c1.65,5.13,7.54,8.6,12,7.19-2.1-3.28-6.19-5.67-4.47-10.82Zm-65.22,12c5.43.88,10.33-2.18,11.61-7.27l-7.85-3.5c.89,2.3.87,4.17-.36,5.9s-2.26,3.23-3.4,4.87Zm49.07,8.81.3-.48c-.87-.64-1.66-1.64-2.62-1.84-2.5-.53-5.18-1.32-7.59-.9a43.28,43.28,0,0,1-12,.43,15.94,15.94,0,0,0-3.09,0c-2.3.21-3.92,1.34-4.51,3.17a32.93,32.93,0,0,1,5.94-1c2.26,0,4.51.72,6.79,1a5,5,0,0,0,2.7-.35,14.12,14.12,0,0,1,12.12-.82l2,.77Zm-50.84-22.34-5-2.38a8.87,8.87,0,0,0-1.82,9.5c1.26,3.35,3.82,5.38,7.47,6.3-.14-4.61-3.22-8.8-.69-13.43ZM231,184.07c7.47-2.12,9.67-10.49,4.25-15.85l-4.72,2.42c3,4.4.14,8.89.47,13.43Zm51.57-.17c2.63,4,5.15,7.77,7.7,11.56a1.57,1.57,0,0,0,1,.7c4.16,0,8.31,0,12.47,0l.34-.42c-3.31-4.56-6.6-9.14-10-13.67a1.6,1.6,0,0,0-1.34-.37c-3.41.68-6.8,1.43-10.23,2.17Zm-82.11,93.18-4.15,3.81L190.74,277c-.71,1.26-1.4,2.32-1.93,3.45a1.63,1.63,0,0,1-2.21,1.05c-2.17-.85-4.28-1.84-6.4-2.79-.37-.16-.72-.38-1.08-.57.56,1.56,1.49,2.82,2,4.23,1.2,3.09,3.1,4.58,6.49,3.48a2.51,2.51,0,0,1,.86,0c5.32.24,10.65.54,16,.72s4.41.63,6.8-3.86a34,34,0,0,0,1.65-4,14,14,0,0,0,.41-1.92l-9.21,5.38-3.69-5.15Zm-.73-41.26,7.32-3.89,2.31,13.21c4.46-3.67,5.49-9.26,7.68-14.4-8.18-4.24-17-5.69-26-5.83-6.87-.11-12.93,3.06-19,5.84,1,5.92,4.17,10.32,8.82,14.28V231.7c1.83,1.25,3.39,2.21,4.82,3.33a1.84,1.84,0,0,0,2.8-.15c1.74-1.63,3.58-3.16,5.24-4.61l5.93,5.54Zm90.22-74.52c3.4-1.63,6.76-3.22,10.11-4.84,7.72-3.73,15.32-7.64,21-14.33,2.43-2.85,4.91-5.65,7.36-8.47l-.34-.44-23,8.53,1.3-5.19-.38-.48c-3,1.21-6.35,1.92-8.92,3.73-6.38,4.51-11.47,10.5-17.18,16.39a31.88,31.88,0,0,0,3.42-.43,2.62,2.62,0,0,1,3,1.21c1.08,1.47,2.33,2.83,3.56,4.31Zm-52.38,49.25c-2.81,1.31-5.45,2.55-8.1,3.77-1.8.83-5.58-.74-6.38-2.77l11.7-5-2-2.61c-2.62,1.7-5.1,3.33-7.6,4.93-1.82,1.16-5.68.22-6.91-1.8l16.62-9.82c-5.35-6.49-12.2-5.5-19-4.14-.52,4.64-3,7.68-7.05,10.09.18-.81.31-1.35.41-1.89a2.78,2.78,0,0,0-1.2-3c-2-1.39-7.18-1.68-9.1-.31a8.28,8.28,0,0,0-3.36,7.85,34.31,34.31,0,0,0,2,7.81,10.69,10.69,0,0,0,8.61,7.52c4.73.87,9.48,1.64,14.23,2.41,7,1.14,12-2.44,16.21-7.37a5.33,5.33,0,0,0,.94-5.64ZM288.77,282A45.57,45.57,0,0,1,295.18,268c4.51-6.85,9.28-13.54,13.75-20.42,2.9-4.46,5.6-9.07,8.06-13.78a8.59,8.59,0,0,0,.8-5.47,106.62,106.62,0,0,0-13-30.92c-.22-.37-.75-.83-1.12-.8-4,.23-8,.55-12.06.85l7.9,16.31c-6-1.11-11.45-3.1-17.5-1.49a128.85,128.85,0,0,1,19.77,26.19l-2,.47A41.2,41.2,0,0,0,285.64,245c-7.21,5.14-9.23,11.94-5.67,20,1.68,3.82,3.86,7.41,5.8,11.12,1,1.87,1.91,3.75,3,5.88ZM105.85,296.78c1.94-1.5,3.85-3,5.84-4.49,9.68-7,20-12.56,32.28-13.16,6.66-.33,12.85,1.06,17.83,5.71,2.52,2.36,4.53,5.27,6.77,7.93l.2.55.18,0-.09-.74a351.4,351.4,0,0,1-4.4-38.09,26.94,26.94,0,0,0-2.58-11.29,72.33,72.33,0,0,0-20.32-24.33l2.56-8.25-6.37,1.59,1.35-2.94c-6.31-1.89-12.54-3.22-19-2.8a22.15,22.15,0,0,1-2.4-.12,3.36,3.36,0,0,0-3.73,2c-2.45,4.14-5.18,8.12-7.51,12.33-2.2,4-4,8.18-6.06,12.4,2.51.15,4.62.16,6.7.41,9.94,1.2,16.35,8.7,13.84,19.15a108.6,108.6,0,0,1-9.37,24.11c-5.15,10.05-10.61,19.95-15.94,29.9l10.28-9.78ZM270.63,113.61l-12.7,10.06-1.27.87a78.68,78.68,0,0,0-26.55-15.18c-7-2.39-14-3.22-21-.32-4.89,2-9.53,4.69-14.23,7.14a2.26,2.26,0,0,1-2.27.19c-4.05-1.71-8.11-3.46-12.29-4.82-6.1-2-12.46-3.61-18.75-1.67-8,2.46-15.8,5.68-23.69,8.57-2.75,1.18-5.49,2.41-8.27,3.52a6.27,6.27,0,0,1-2,.1c-8.35-5.09-16.64-10.3-25.09-15.23-3.53-2.06-7.41-3.54-11.13-5.28-1.83-.26-3.71-.92-5.49-.72a104.43,104.43,0,0,0-23.18,5.62,159.43,159.43,0,0,0-29.08,13.72c1.16.61,2.13,1.18,3.15,1.65,2.12,1,4.18,2.4,6.41,2.77a67.71,67.71,0,0,0,10,.38c6.6.09,13.2,0,19.79.26,4.75.22,8.87,2.63,12.94,4.85,12.42,6.78,23.93,14.93,35.33,23.27.81.59,1.59,1.21,2.37,1.8-2.05,1.22-4.23,2.08-5.83,3.55a158.13,158.13,0,0,0-25.58,30.33c-.35.54-.62,1.12-1,1.86,2.86,0,5.38-.07,7.9,0a2.08,2.08,0,0,0,2-1.16c2.9-4,5.76-8.13,8.86-12,2.2-2.77,5.35-3.75,8.88-3.76,5.95,0,11.58,1.54,17.15,3.34,3.8,1.23,7.54,2.66,11.31,4l.18.22,0-.38a32,32,0,0,1-3.09-14.29c0-.58-.29-1.53-.72-1.72-2.28-1-4.58-2-7.25-1.27-4.29,1.16-8.64,2.13-13.22,3.25,4.14-5.77,8.45-10.92,15.57-12.68a12,12,0,0,1,2.9.18,73.33,73.33,0,0,1,10,3.44c7.42,3.56,14.68,7.47,22,11.22.72.37,1.47.69,2.67,1.26-3.41-6-1.47-10.82,1.88-15.29l-22.59-10.91c-1.32-.88-2.68-1.71-4-2.65-2.71-2-2.94-2.64-.74-5.18,4.91-5.66,10-11.15,15-16.7.16-.17.51-.17.77-.25l0,0c-.19.53-.37,1.07-.58,1.59-1.68,4.19-3.53,8.33-5,12.59-1.58,4.57-1.25,5.55,3.12,7.61,4.91,2.31,10,4.2,15.09,6.14,2.91,1.11,5.92,2,8.85,2.9-.82,2.73-1.56,5.31-2.37,7.87-1.06,3.37-.2,6.32,1.89,9,.27.35.55.69,1,1.22-2.49,2.32-4.71,4.88-7.41,6.77-4.06,2.84-6,9.19-4.45,15.32a12.29,12.29,0,0,1,7.53-3c2.85-.11,5.71.14,8.57.24,1,0,2,.1,3,0,1.76-.16,3.52-.58,5.28-.63a22,22,0,0,1,12.82,3.47c.64-6.78-.25-12.64-6.15-16.86a91.41,91.41,0,0,1-7.41-6.56C203,164,203.8,160.7,202.38,157c-1-2.61-2-5.24-3-7.95l2.32-.9c4.31-1.49,8.69-2.81,12.91-4.51a77.41,77.41,0,0,0,9.48-4.74c2.08-1.19,2.53-2.21,1.63-4.3-2.45-5.63-5.17-11.15-7.79-16.71a6,6,0,0,1,1.57.83c4.88,4.93,9.89,9.75,14.52,14.9,3.64,4.05,4.78,4.29-1.23,8.15-4.51,2.89-9.37,5.25-14.14,7.72-3,1.54-6.07,2.85-9.22,4.32,3.85,4.51,6,9.29,3.67,15.11l-.22.18.16,0,0-.24a9.14,9.14,0,0,0,1.68-.53c7.16-3.86,14.26-7.82,21.46-11.6,3.86-2,7.89-3.73,12.4-3.65,7.28,1.79,11.94,6.89,16.56,12.85-4.42-1.11-8.37-2-12.28-3.1a10.68,10.68,0,0,0-7.2.52,2.3,2.3,0,0,0-1.64,2.56,55.89,55.89,0,0,1-.16,7.36,21.82,21.82,0,0,1-4.62,11.43,5.73,5.73,0,0,0,1.45-.5A133.67,133.67,0,0,1,263,175.6c5.5-1.48,10.63-1.35,14.43,3.38,2.65,3.31,5.61,4.08,9.51,3a50.4,50.4,0,0,1,6.15-.94l.28-.53c-5-5.24-10-10.45-14.88-15.73a21.37,21.37,0,0,0-8.57-5.5c-1.83-.66-3.6-1.53-5.67-2.42,5.09-4.12,9.86-8.07,14.73-11.9,8.21-6.45,16.47-12.87,25.65-17.92a33.58,33.58,0,0,1,9.06-3.52,93.49,93.49,0,0,1,11.8-1.2c5-.4,9.94-.74,14.91-1.1a5.14,5.14,0,0,0,1.69-.16c3.29-1.54,6.54-3.15,10.08-4.87a8.84,8.84,0,0,0-.83-.52C336.54,110,321.57,105,305.88,102.48c-4.57-.73-9.2-1.46-13.83-.22-8,2.15-14.8,6.58-21.42,11.35ZM86.9,218.89l0,0a9.43,9.43,0,0,1,.4-1.82c1.43-3.28,2.91-6.54,4.42-9.91h-4a4.94,4.94,0,0,1,2.41-.59c1.65.08,2.35-.8,3-2.18,1.54-3.26,3.27-6.44,4.93-9.64.49-.93,1-1.85,1.63-3-2.93-.21-5.55-.45-8.18-.54a2,2,0,0,0-1.38.93A115.73,115.73,0,0,0,76.25,225a8.79,8.79,0,0,0,.29,5.9,98.52,98.52,0,0,0,4.71,9.72c5.15,8.68,10.58,17.19,15.75,25.86a53.82,53.82,0,0,1,6.43,14.76c.08.33.22.65.33,1l.52.06c2.08-6.36,4.51-12.62,6.13-19.09,1.87-7.45-1.64-13.26-8.84-15.91a18.43,18.43,0,0,0-4-1.07c-3.16-.4-6.34-.63-9.6-.94,3.55-11.47,9.41-21.95,15.27-32.59a37.56,37.56,0,0,0-7.86,1.87c-2.95,1.2-5.7,2.9-8.53,4.38ZM58.45,136l-.41-.08.23.26a2.3,2.3,0,0,0,.24.44c6.89,7.9,14.41,14.91,24.47,18.73,5.88,2.23,11.6,4.87,17.43,7.35,2.33-3.66,6.58-3,9.75-4.78a3.14,3.14,0,0,0-.39-.52c-5.88-5.22-11.72-10.48-17.65-15.64-3.31-2.88-7.5-3.44-11.7-4.19l1.58,5.3c-1-.26-1.63-.42-2.28-.62L58.45,136Zm105.36,75.32,4.05,1.49-.94,1.35c-.38.25-.77.48-1.14.74a5.33,5.33,0,0,1-5.74.73,71,71,0,0,0-7.21-2.33,3.29,3.29,0,0,0,.85,4c3.34,3.37,7.53,5.59,12.14,5.68,4.14.07,8.3-1.26,12.46-2,2.51-.58,5-1.24,7.53-1.7a3.51,3.51,0,0,0,3.12-2.73c1-4,1.86-8,2.74-12a1.66,1.66,0,0,0-.25-1.12,36,36,0,0,0-2.53-3.67c-1.38-1.65-4.5-1.93-6.5-.72-1.4.85-1.51,1.81-.54,4.51a.58.58,0,0,1,0,.15c-5.59,0-8.48-4.06-7.29-10.16-3.89,0-7.78-.05-11.67,0a8.89,8.89,0,0,0-2.55.88c-2.7,1.06-4.52,3.14-6.45,5.35L164.16,204l8,3.71a10.33,10.33,0,0,1-1.5,1.37c-2.18,1.24-4.42,2.06-6.8.45L157,206.1l-1.67,3,8.46,2.19Zm58.45,89c.38-5.89.91-11.78,1.11-17.67.36-10.56.54-21.12.75-31.67.07-3.79,0-7.59,0-11.2-2,6.93-4.12,14.07-4.75,21.5-.58,6.8-.62,13.64-.92,20.46-.15,3.38-.25,6.77-.55,10.13s-1.4,4.53-4.75,4.72a55.41,55.41,0,0,1-8.4-.24c-5.36-.51-10.68-1.66-16.11-1.09-2.69,0-5.39.07-8.08-.1s-4.16-1.33-4.32-4c-.31-5.14-.3-10.3-.34-15.45,0-4.12.63-8.35-.06-12.34-.88-5.09-2.77-10-4.32-15-.64-2-1.52-4-2.3-6a2.94,2.94,0,0,0-.15,1.44c.77,8.57,1.47,17.15,2.34,25.71,1.05,10.32,2.33,20.62,3.36,31,.41,4.12,2.6,6.29,6.46,7.1.45.09.89.24,1.33.33a67.65,67.65,0,0,0,22.43.86,115.46,115.46,0,0,0,12.46-2.38,5.78,5.78,0,0,0,4.8-6.08Zm60.56-17,0,0c-1.36-2.32-2.75-4.62-4.08-7-4.24-7.4-8.42-14.84-11-23.05a16.06,16.06,0,0,1-.69-8.47c1.5-6.54,6.08-9.88,12.2-11.44,2.46-.62,5-.8,7.66-1.19-.42-.79-.81-1.61-1.26-2.39-5.69-10-12.93-18.92-20.56-27.51-1.8-2-1.79-2-4.46-1.06l-9.87,3.32,1.88,3-6.56-.85,3.69,8.24a8.92,8.92,0,0,0-1.2,1.07,118.91,118.91,0,0,0-13.46,21.14c-2,4.1-3.74,8.29-3.82,12.92A357.73,357.73,0,0,1,228.68,287q-.39,3.16-.77,6.31a15.34,15.34,0,0,0,2-2.61c3.76-5.47,8.51-9.67,15.2-11a33.48,33.48,0,0,1,15.51.81c9.67,2.64,17.89,7.89,25.37,14.35,3.89,3.36,7.47,7.09,11.2,10.65l.17.57.22-.06-.16-.69q-6.81-10.3-13.64-20.6a3.43,3.43,0,0,0-.62-.57l-.38-.81ZM149.36,194.1l6.26-5.27-33.95-6c-1.88-.33-3.57-.24-5,1.36-1.92,2.2-4,4.31-6,6.45l.37.65h10.61c.1.06.2.16.29.16,7.55,0,14.64,2.12,21.67,4.52,3.44,1.17,3.44,1.17,5.67-1.88Zm123.43,2.1h4l.32-.5c-2.27-2.83-4.53-5.67-6.84-8.47-.19-.23-.83-.26-1.2-.17-2,.48-4,1-6,1.55a58.73,58.73,0,0,0-18.56,8.12l1.89,2.26c2,2.41,2,2.45,5,1.44,2.6-.89,5.12-2,7.75-2.79a26,26,0,0,1,4.63-.49l9-.95Zm-158.31-2.81c-1.3-.17-2.6-.38-3.91-.47a1.32,1.32,0,0,0-1.08.5c-1.21,2.89-2.34,5.8-3.49,8.71l.43.21a20.52,20.52,0,0,1,14.27-3.42l-3.32,4.48,5.36-.4c5.72.8,11.44,1.63,17.18,2.37a2.13,2.13,0,0,0,1.7-.55c1-1.37,1.86-2.88,2.75-4.3-9.37-5-19.62-6.14-29.9-7.13Zm137.76-4.74,15.32-4.43c-2.06-.44-3.79-1.22-5.44-1.09a93.64,93.64,0,0,0-12,1.69c-4.79,1-9.49,2.44-14.52,3.77l3.7,2.77a19.41,19.41,0,0,0,1.84,1.76,1.53,1.53,0,0,0,1.28.22c3.31-1.52,6.58-3.11,9.86-4.68ZM93.65,308.92a79.56,79.56,0,0,0-3.1-18.9,107.46,107.46,0,0,0-19.28-38.3c-5.2-6.62-6.43-14.2-5.56-22.27,1.26-11.68,5.77-22.28,11.44-32.38,3.93-7,8.43-13.65,12.69-20.46.33-.53.69-1,1.12-1.67-5.71-3.67-11-7.76-16.95-10.74-10.27-5.19-15.5-14.28-20.22-24a29.83,29.83,0,0,1-1.86-4.06,2.91,2.91,0,0,0-3.07-2.3c-6.89-.27-12.71-3.3-18-7.38-7.56-5.8-15-11.75-22.49-17.64l-1.19-1,.3-.67a10.13,10.13,0,0,1,2.31.56c4.49,2.29,9,4.59,13.41,7a2.92,2.92,0,0,0,3,.08c15-7,30.32-13.33,46.3-17.84,7.58-2.14,15.24-4.09,23.19-3.57a28.5,28.5,0,0,1,8.92,2.23c10,4.19,19.3,9.82,28.53,15.51a2.93,2.93,0,0,0,3.25.19c9.86-4.74,20.08-8.37,31.05-9.58,6-.66,11.77.48,17.5,2,2.49.67,5,2,7.43,2s4.78-1.68,7.24-2.37a92.54,92.54,0,0,1,12.65-3.11c6.13-.81,12.08.77,17.91,2.61a110,110,0,0,1,22.19,10,2.88,2.88,0,0,0,3.35-.09c7.83-4.3,15.69-8.55,23.62-12.64,9.27-4.79,19-5.58,29.07-2.92,16.9,4.45,33.86,8.69,50.81,13a3.67,3.67,0,0,0,2.5-.33c4.5-2.64,8.93-5.41,13.41-8.08a10.32,10.32,0,0,1,2.29-.72l.14.47c-1.75,1.79-3.39,3.7-5.26,5.35-5.85,5.17-11.78,10.25-17.68,15.36a33.91,33.91,0,0,1-18.46,8.49,2.83,2.83,0,0,0-2.25,1.55c-5.14,8.23-10.23,16.53-16.9,23.63-2.81,3-6.29,5.34-9.38,8.08s-6,5.53-9.08,8.41c1.09,1.53,2.12,3,3.12,4.4,8.59,12.3,16.48,25,21.9,39.06,2.73,7.11,4.71,14.41,4.65,22.1a26.87,26.87,0,0,1-5.47,16.33c-10.6,14.16-17.92,29.83-21.13,47.32-.47,2.57-.75,5.18-1.11,7.72-3.76-1.84-7.48-3.85-11.36-5.51a110,110,0,0,0-38.75-8.61,21.22,21.22,0,0,0-11.47,3.16A60.1,60.1,0,0,0,220,315a11.77,11.77,0,0,1-7.84,4.56c-4.17.7-8.42,1-12.62,1.52-4.92.64-9.72-.12-14.51-1.08-3.48-.69-5.88-2.78-8.23-5.45-5.53-6.28-11.63-12-19.14-16-3.91-2.08-8-3.52-12.5-3.19-4.8.36-9.63.64-14.39,1.36a105.39,105.39,0,0,0-36.53,12.11,2.58,2.58,0,0,1-.57.15Z" transform="translate(-1.97 -89.11)"/><path class="a" d="M138.64,154.46c-7.11,1.76-11.43,6.91-15.57,12.68,4.59-1.12,8.93-2.09,13.22-3.25,2.67-.72,5,.24,7.25,1.27.43.19.74,1.14.72,1.72a32,32,0,0,0,3.09,14.29l-.14.15c-3.77-1.34-7.51-2.77-11.31-4-5.57-1.8-11.2-3.36-17.15-3.34-3.52,0-6.67,1-8.88,3.76-3.1,3.89-6,8-8.86,12a2.08,2.08,0,0,1-2,1.16c-2.52-.11-5,0-7.9,0,.4-.74.67-1.32,1-1.86a158.13,158.13,0,0,1,25.58-30.33c1.6-1.48,3.78-2.33,5.83-3.55-.77-.59-1.56-1.21-2.37-1.8-11.39-8.34-22.91-16.49-35.33-23.27-4.07-2.22-8.19-4.64-12.94-4.85-6.59-.3-13.19-.17-19.79-.26a67.71,67.71,0,0,1-10-.38c-2.23-.36-4.29-1.78-6.41-2.77-1-.48-2-1-3.15-1.65a159.43,159.43,0,0,1,29.08-13.72,104.43,104.43,0,0,1,23.18-5.62c1.78-.2,3.66.46,5.49.72.9,1,1.77,2,2.71,2.94,5.71,5.73,11.42,11.47,17.19,17.14,2.08,2,4.34,3.89,6.48,5.88a1.61,1.61,0,0,0,2.41.14c1.14-.86,2.42-1.53,3.56-2.39,1.34-1,2.59-2.13,3.88-3.2a6.27,6.27,0,0,0,2-.1c2.78-1.11,5.52-2.34,8.27-3.52.34.1.71.33,1,.27,7.9-1.5,15.77-3.12,23.69-4.51,5.06-.89,10.18-1.2,14.88,1.55,2.76,1.61,5.45,3.36,8.13,5.12,1.15.75,2.18,1.67,3.63,2.79l-14.09.77,17.71,18.94c-1.64,2-3.87,1.5-6.05,1.93,1.71,1.9,3.31,3.58,4.78,5.36a2.84,2.84,0,0,1,.48,1.91c-.28,2.78-.66,5.54-1,8.31a3.15,3.15,0,0,0,1.57,3.18c1.38,1,2.69,2.07,4.22,3.27-1,1-1.83,1.8-2.59,2.71-1,1.21-1.92,2.5-2.87,3.76-2.88,1.16-5.63,2.52-7.56,5.09l-.22.18.22,0,0-.24c.44-.07.89-.12,1.33-.21l4.92-1.11,2.76,10.27c-2.86-.1-5.72-.35-8.57-.24a12.29,12.29,0,0,0-7.53,3c-1.55-6.13.39-12.47,4.45-15.32,2.69-1.89,4.91-4.45,7.41-6.77-.43-.53-.71-.87-1-1.22-2.08-2.7-2.94-5.65-1.89-9,.8-2.56,1.55-5.15,2.37-7.87-2.93-1-5.94-1.79-8.85-2.9-5.07-1.94-10.18-3.83-15.09-6.14-4.37-2.05-4.69-3-3.12-7.61,1.47-4.26,3.32-8.4,5-12.59.21-.52.39-1.06.58-1.59l0-.07c0-.29,0-.1,0,.09-.26.08-.61.08-.77.25-5,5.55-10.12,11-15,16.7-2.2,2.54-2,3.19.74,5.18,1.28.94,2.64,1.77,4,2.65a18.25,18.25,0,0,0,.79,1.68c1.87,3.15,3.79,6.27,5.62,9.44a8.66,8.66,0,0,1,.59,2.14l-.46.29-1.16-.76c-2.64-1.61-5.35-3.11-7.9-4.84-6.44-4.37-12.87-8.75-19.17-13.32-2.37-1.72-2.5-2.73-1.23-5.35s3-5.39,4.53-8.07c0-.14,0-.29,0-.43l-.31.19c-3.4,3-6.89,5.86-10.17,9a18.54,18.54,0,0,0-3.32,4.57c-1.31,2.38-.82,3.95,1.46,5.39a28.81,28.81,0,0,0,4.09,2.18c3.57,1.52,7.19,2.93,10.79,4.39-.77,1.08-1.92,2.05-1,3.61Z" transform="translate(-1.97 -89.11)"/><path class="c" d="M226.67,155.95l.12.07,0-.1-.13,0ZM248,123.64l-.4-.14.26.27c1.65,2.6,3.43,5.14,4.92,7.83,1.89,3.4,1.8,4.27-1.29,6.7-5.12,4-10.4,7.89-15.7,11.7-2.77,2-5.72,3.74-8.59,5.6a3.88,3.88,0,0,0,1.83-.18c6-2,12-3.74,17.91-5.95a140.13,140.13,0,0,0,14.08-6.26c3-1.5,3.19-3.38,1.41-6.25a11.49,11.49,0,0,0-.76-1.14A60.47,60.47,0,0,0,248,123.64Zm-55.25,64.18L190,177.55c3.9-.75,7.74-.14,11.58.52,2.09.36,4.15.83,6.23,1.25l.14-.55c-4.89-3.67-10.05-6.48-16.59-5,1-1.26,1.86-2.55,2.87-3.76.76-.91,1.63-1.72,2.59-2.71-1.53-1.19-2.84-2.28-4.22-3.27A3.15,3.15,0,0,1,191,160.9c.37-2.77.75-5.53,1-8.31a2.84,2.84,0,0,0-.48-1.91c-1.47-1.79-3.07-3.47-4.78-5.36,2.18-.43,4.41,0,6.05-1.93l-17.71-18.94,14.09-.77c-1.45-1.12-2.48-2-3.63-2.79-2.68-1.76-5.37-3.51-8.13-5.12-4.7-2.74-9.82-2.43-14.88-1.55-7.92,1.39-15.79,3-23.69,4.51-.31.06-.68-.17-1-.27,7.88-2.89,15.67-6.11,23.69-8.57,6.29-1.93,12.66-.3,18.75,1.67,4.18,1.36,8.24,3.11,12.29,4.82a2.26,2.26,0,0,0,2.27-.19c4.71-2.46,9.34-5.11,14.23-7.14,6.95-2.89,14-2.07,21,.32a78.68,78.68,0,0,1,26.55,15.18l1.27-.87c5.23,4.39,10.38,8.84,14,14.86l-.83.53q-10.55,6.3-21.09,12.62a7.55,7.55,0,0,0-1.36,1.4c-4.51-.08-8.54,1.62-12.4,3.65-7.2,3.78-14.3,7.74-21.46,11.6a9.14,9.14,0,0,1-1.68.53l0,0c2.33-5.82.18-10.59-3.67-15.11,3.15-1.46,6.24-2.77,9.22-4.32,4.77-2.47,9.63-4.83,14.14-7.72,6-3.86,4.87-4.1,1.23-8.15-4.63-5.16-9.64-10-14.52-14.9a6,6,0,0,0-1.57-.83l-1.33-1.43-.56,0c0,8.61-5.74,12.41-13.2,15.34a12,12,0,0,1,2,1.52c1.53,2,3.06,4,4.46,6a2.59,2.59,0,0,1-.64,3.79c-1.77,1.33-3.63,2.54-5.44,3.82-.53.38-1,.81-1.53,1.21l-2.32.9c1,2.71,2,5.33,3,7.95,1.42,3.69.59,7-2.06,10.25a91.41,91.41,0,0,0,7.41,6.56c5.9,4.22,6.79,10.08,6.15,16.86a22,22,0,0,0-12.82-3.47c-1.76,0-3.52.47-5.28.63-1,.09-2,0-3,0Z" transform="translate(-1.97 -89.11)"/><path class="a" d="M168.56,292.76c-2.24-2.66-4.25-5.57-6.77-7.93-5-4.65-11.17-6-17.83-5.71-12.3.6-22.6,6.13-32.28,13.16-2,1.44-3.89,3-5.84,4.49a13.21,13.21,0,0,1,.74-1.87c2.27-3.91,4.58-7.8,6.85-11.71.12-.21,0-.56,0-.85V282l0,0c.62-.57,1.29-1.09,1.86-1.71q12.95-14,25.86-28.11a6.25,6.25,0,0,1,4.39-2.37c2.29-.13,4.57-.4,6.86-.49s4.38,0,6.57,0l.21-.5c-2.83-3.81-5.55-7.71-8.53-11.41a37,37,0,0,0-5.5-5.41c-1.72-1.4-2.75-1.19-4.07.57-1.71,2.3-3.32,4.68-4.84,7.1-2.12,3.39-4.13,6.85-6.18,10.28a5.84,5.84,0,0,1-.4-1.23,48.49,48.49,0,0,0-3.54-14.95,4.74,4.74,0,0,0-3.77-3.12c-4.51-.67-9-1.21-13.56-1.73a37.92,37.92,0,0,0-4,0c1.77-2.58,3.34-4.82,4.88-7.09q5.2-7.68,10.36-15.38c6.5-.42,12.73.9,19,2.8l-1.35,2.94,6.37-1.59-2.56,8.25a72.33,72.33,0,0,1,20.32,24.33,26.94,26.94,0,0,1,2.58,11.29,351.4,351.4,0,0,0,4.4,38.09l-.28.23Z" transform="translate(-1.97 -89.11)"/><path class="a" d="M248.62,153.09a7.55,7.55,0,0,1,1.36-1.4q10.52-6.35,21.09-12.62l.83-.53c-3.58-6-8.73-10.47-14-14.86l12.7-10.06c.29.08.61.29.85.22,1.42-.45,2.78-1.11,4.23-1.44,5.45-1.24,10.88-2.72,16.4-3.45,3.85-.51,8.07-.74,11.73.3,11.95,3.4,23.72,7.44,35.54,11.25.37.12.66.5,1,.76-5,.36-9.94.7-14.91,1.1a93.49,93.49,0,0,0-11.8,1.2,33.58,33.58,0,0,0-9.06,3.52c-9.18,5.05-17.44,11.46-25.65,17.92-4.87,3.83-9.64,7.78-14.73,11.9,2.07.89,3.83,1.75,5.67,2.42a21.37,21.37,0,0,1,8.57,5.5c4.93,5.27,9.92,10.49,14.88,15.73l-.28.53a50.4,50.4,0,0,0-6.15.94c-3.9,1.08-6.86.3-9.51-3-3.8-4.73-8.93-4.87-14.43-3.38a133.67,133.67,0,0,0-22.24,8.6,5.73,5.73,0,0,1-1.45.5,21.82,21.82,0,0,0,4.62-11.43,55.89,55.89,0,0,0,.16-7.36,2.3,2.3,0,0,1,1.64-2.56,10.68,10.68,0,0,1,7.2-.52c3.91,1.06,7.86,2,12.28,3.1-4.62-6-9.28-11.06-16.56-12.85Z" transform="translate(-1.97 -89.11)"/><path class="a" d="M283.2,284.12a3.43,3.43,0,0,1,.62.57q6.83,10.29,13.64,20.6a1.53,1.53,0,0,0-.22.19c-3.72-3.56-7.3-7.28-11.2-10.65-7.48-6.46-15.7-11.72-25.37-14.35a33.48,33.48,0,0,0-15.51-.81c-6.69,1.34-11.44,5.54-15.2,11a15.34,15.34,0,0,1-2,2.61q.39-3.16.77-6.31a357.73,357.73,0,0,0,2.67-36.88c.08-4.63,1.87-8.83,3.82-12.92A118.91,118.91,0,0,1,248.64,216a8.92,8.92,0,0,1,1.2-1.07l-3.69-8.24,6.56.85-1.88-3,9.87-3.32,16.07,27.28c-2.55,0-4.89,0-7.22,0-3.11.07-5.14,1.5-5.86,4.11a24.63,24.63,0,0,0-.88,4.18c-.42,4.49-.71,9-1.08,13.49a5.59,5.59,0,0,1-.47,1.34l-1-1.4c-3.12-4.59-6.15-9.23-9.38-13.73-1.22-1.7-2.24-1.66-4-.5a9.72,9.72,0,0,0-1.48,1.17,72.06,72.06,0,0,0-11.33,15.43l-.19.29.4,0c3.91-1.12,7.81-2.25,11.72-3.35a3.66,3.66,0,0,1,4,1.3c4.7,5.11,9.49,10.14,14.23,15.22q6,6.4,11.94,12.84l.13.59.21,0-.08-.76-3.1-6c.37.19.86.29,1.09.59,2,2.53,3.93,5.12,6,7.64a25.76,25.76,0,0,0,2.45,2.36l0,0,.38.81Z" transform="translate(-1.97 -89.11)"/><path class="a" d="M288.77,282c-1.08-2.13-2-4-3-5.88-1.94-3.71-4.12-7.3-5.8-11.12-3.56-8.1-1.54-14.9,5.67-20a41.2,41.2,0,0,1,14.13-6.08l2-.47A128.85,128.85,0,0,0,282,212.26c6-1.62,11.52.38,17.5,1.49l-7.9-16.31c4.07-.3,8.06-.62,12.06-.85.36,0,.89.43,1.12.8a106.62,106.62,0,0,1,13,30.92,8.59,8.59,0,0,1-.8,5.47c-2.47,4.71-5.17,9.32-8.06,13.78-4.47,6.88-9.24,13.56-13.75,20.42A45.57,45.57,0,0,0,288.77,282Z" transform="translate(-1.97 -89.11)"/><path class="a" d="M86.9,218.89c2.84-1.48,5.58-3.18,8.53-4.38a37.56,37.56,0,0,1,7.86-1.87C97.42,223.28,91.57,233.76,88,245.23c3.25.31,6.44.54,9.6.94a18.43,18.43,0,0,1,4,1.07c7.2,2.65,10.71,8.46,8.84,15.91-1.62,6.47-4.06,12.73-6.13,19.09l-.52-.06c-.11-.33-.25-.65-.33-1A53.82,53.82,0,0,0,97,266.43c-5.17-8.67-10.6-17.18-15.75-25.86a98.52,98.52,0,0,1-4.71-9.72,8.79,8.79,0,0,1-.29-5.9,115.73,115.73,0,0,1,13.93-32.74,2,2,0,0,1,1.38-.93c2.63.09,5.25.33,8.18.54-.62,1.12-1.15,2-1.63,3-1.66,3.2-3.4,6.37-4.93,9.64-.65,1.38-1.35,2.27-3,2.18a4.94,4.94,0,0,0-2.41.59h4c-1.51,3.37-3,6.63-4.42,9.91a9.43,9.43,0,0,0-.4,1.82l-.23-.06,0,.21.18-.2Z" transform="translate(-1.97 -89.11)"/><path class="c" d="M237.55,210.54a5.33,5.33,0,0,1-.94,5.64c-4.23,4.93-9.18,8.51-16.21,7.37-4.75-.77-9.5-1.55-14.23-2.41a10.69,10.69,0,0,1-8.61-7.52,34.31,34.31,0,0,1-2-7.81A8.28,8.28,0,0,1,199,198c1.92-1.37,7.13-1.08,9.1.31a2.78,2.78,0,0,1,1.2,3c-.1.54-.23,1.08-.41,1.89,4-2.41,6.53-5.46,7.05-10.09,6.76-1.37,13.61-2.35,19,4.14L218.24,207c1.23,2,5.1,3,6.91,1.8,2.51-1.6,5-3.23,7.6-4.93l2,2.61-11.7,5c.8,2,4.57,3.6,6.38,2.77,2.65-1.22,5.29-2.46,8.1-3.77Z" transform="translate(-1.97 -89.11)"/><path class="c" d="M120,206.42q-5.18,7.69-10.36,15.38c-1.53,2.27-3.1,4.51-4.88,7.09a37.92,37.92,0,0,1,4,0c4.53.52,9.06,1.06,13.56,1.73a4.74,4.74,0,0,1,3.77,3.12,48.49,48.49,0,0,1,3.54,14.95,5.84,5.84,0,0,0,.4,1.23c-.24.52-.46,1-.73,1.55q-7.66,14.3-15.31,28.6a10.39,10.39,0,0,0-.59,1.92l0,0-.58.2.57.17c0,.29.13.64,0,.85-2.27,3.91-4.58,7.8-6.85,11.71a13.21,13.21,0,0,0-.74,1.87l-10.28,9.78c5.32-10,10.79-19.85,15.94-29.9a108.6,108.6,0,0,0,9.37-24.11c2.51-10.45-3.89-18-13.84-19.15-2.08-.25-4.19-.26-6.7-.41,2-4.22,3.86-8.42,6.06-12.4,2.32-4.21,5.06-8.19,7.51-12.33a3.36,3.36,0,0,1,3.73-2,22.15,22.15,0,0,0,2.4.12Z" transform="translate(-1.97 -89.11)"/><path class="c" d="M58.45,136l21.26,6.25c.65.19,1.31.36,2.28.62l-1.58-5.3c4.2.74,8.4,1.31,11.7,4.19,5.93,5.16,11.78,10.42,17.65,15.64a3.14,3.14,0,0,1,.39.52c-3.17,1.8-7.42,1.11-9.75,4.78-5.83-2.48-11.56-5.12-17.43-7.35-10.06-3.82-17.59-10.82-24.47-18.73a2.3,2.3,0,0,1-.24-.44l.18-.18Z" transform="translate(-1.97 -89.11)"/><path class="c" d="M340.37,121.25c-.33-.26-.62-.64-1-.76-11.83-3.82-23.6-7.85-35.54-11.25-3.66-1-7.88-.81-11.73-.3-5.52.73-11,2.21-16.4,3.45-1.44.33-2.81,1-4.23,1.44-.24.08-.57-.14-.85-.22,6.62-4.77,13.42-9.19,21.42-11.35,4.63-1.25,9.26-.51,13.83.22,15.69,2.5,30.65,7.55,45.43,13.22a8.84,8.84,0,0,1,.83.52c-3.54,1.72-6.79,3.33-10.08,4.87a5.14,5.14,0,0,1-1.69.16Z" transform="translate(-1.97 -89.11)"/><path class="c" d="M163.81,209.54c2.38,1.61,4.62.79,6.8-.45a10.33,10.33,0,0,0,1.5-1.37l-8-3.71a10.68,10.68,0,0,1,.38-2.17c.5-1.27.05-1.73-1.19-2-1.44-.27-2.84-.73-4.33-1.13l1.33-4.36a8.89,8.89,0,0,1,2.55-.88c3.89-.1,7.78,0,11.67,0-1.19,6.1,1.7,10.12,7.29,10.16a.58.58,0,0,0,0-.15c-1-2.7-.85-3.67.54-4.51,2-1.21,5.12-.93,6.5.72a36,36,0,0,1,2.53,3.67,1.66,1.66,0,0,1,.25,1.12c-.88,4-1.77,8-2.74,12a3.51,3.51,0,0,1-3.12,2.73c-2.53.46-5,1.13-7.53,1.7a6.81,6.81,0,0,0-1-.83c-2.35-1.26-4.74-2.45-7.07-3.75-1.15-.65-2.19-1.49-3.27-2.24l.94-1.35-4.05-1.49v-1.75Z" transform="translate(-1.97 -89.11)"/><path class="a" d="M222.26,300.26a5.78,5.78,0,0,1-4.8,6.08A115.46,115.46,0,0,1,205,308.72a67.65,67.65,0,0,1-22.43-.86c-.45-.09-.89-.24-1.33-.33-3.87-.81-6.05-3-6.46-7.1-1-10.33-2.3-20.63-3.36-31-.87-8.56-1.57-17.14-2.34-25.71a2.94,2.94,0,0,1,.15-1.44c.77,2,1.66,3.95,2.3,6,1.55,5,3.44,9.89,4.32,15,.69,4,0,8.22.06,12.34,0,5.15,0,10.32.34,15.45.16,2.67,1.58,3.81,4.32,4s5.38.08,8.08.1a6.25,6.25,0,0,0,1.26,1c1.78.75,3.6,1.41,5.57,2.18l-4.93,2.83c2.91,1.43,5.38,2.68,7.87,3.86a11,11,0,0,0,8.5.6c5.12-1.75,10.23-3.56,15.34-5.35Z" transform="translate(-1.97 -89.11)"/><path class="c" d="M261.25,251.69a5.59,5.59,0,0,0,.47-1.34c.38-4.49.67-9,1.08-13.49a24.63,24.63,0,0,1,.88-4.18c.72-2.61,2.75-4,5.86-4.11,2.33-.05,4.67,0,7.22,0l-16.07-27.28c2.67-1,2.66-1,4.46,1.06,7.63,8.59,14.87,17.47,20.56,27.51.45.78.84,1.59,1.26,2.39-2.63.39-5.2.56-7.66,1.19-6.12,1.55-10.7,4.9-12.2,11.44a16.06,16.06,0,0,0,.69,8.47c2.54,8.21,6.72,15.65,11,23.05,1.34,2.33,2.72,4.64,4.08,7A25.76,25.76,0,0,1,280.4,281c-2-2.51-3.95-5.11-6-7.64-.24-.3-.72-.4-1.09-.59l-12.11-21.06Z" transform="translate(-1.97 -89.11)"/><path class="c" d="M289.93,161.29c-1.24-1.48-2.48-2.84-3.56-4.31a2.62,2.62,0,0,0-3-1.21,31.88,31.88,0,0,1-3.42.43c5.72-5.89,10.8-11.88,17.18-16.39,2.57-1.82,5.92-2.52,8.92-3.73l.38.48-1.3,5.19,23-8.53.34.44c-2.46,2.82-4.94,5.62-7.36,8.47-5.71,6.69-13.3,10.6-21,14.33-3.35,1.62-6.71,3.21-10.11,4.84Z" transform="translate(-1.97 -89.11)"/><path class="c" d="M222.26,300.26c-5.11,1.79-10.21,3.6-15.34,5.35a11,11,0,0,1-8.5-.6c-2.5-1.18-5-2.42-7.87-3.86l4.93-2.83c-2-.76-3.79-1.43-5.57-2.18a6.25,6.25,0,0,1-1.26-1c5.43-.57,10.75.58,16.11,1.09a55.41,55.41,0,0,0,8.4.24c3.35-.19,4.44-1.34,4.75-4.72s.41-6.75.55-10.13c.3-6.82.34-13.66.92-20.46.63-7.42,2.78-14.57,4.75-21.5,0,3.62.06,7.41,0,11.2-.21,10.56-.39,21.12-.75,31.67-.2,5.9-.73,11.78-1.11,17.67Z" transform="translate(-1.97 -89.11)"/><path class="c" d="M199.72,235.81l-5.93-5.54c-1.66,1.45-3.49,3-5.24,4.61a1.84,1.84,0,0,1-2.8.15c-1.43-1.12-3-2.08-4.82-3.33V245c-4.65-4-7.86-8.36-8.82-14.28,6-2.78,12.09-6,19-5.84,9,.15,17.79,1.59,26,5.83-2.19,5.14-3.22,10.73-7.68,14.4L207,231.92l-7.32,3.89Z" transform="translate(-1.97 -89.11)"/><path class="a" d="M201.72,148.15c.51-.41,1-.84,1.53-1.21,1.81-1.28,3.67-2.49,5.44-3.82a2.59,2.59,0,0,0,.64-3.79c-1.4-2.07-2.92-4.06-4.46-6a12,12,0,0,0-2-1.52c7.46-2.93,13.19-6.74,13.2-15.34l.56,0,1.33,1.43c2.62,5.56,5.34,11.08,7.79,16.71.91,2.09.46,3.11-1.63,4.3a77.41,77.41,0,0,1-9.48,4.74c-4.22,1.7-8.6,3-12.91,4.51Z" transform="translate(-1.97 -89.11)"/><path class="c" d="M138.64,154.46c-.88-1.56.27-2.53,1-3.61,5,1.58,10.08,3.19,15.14,4.73,2,.61,4,1.07,6.07,1.6l1.16.76.46-.29a8.66,8.66,0,0,0-.59-2.14c-1.83-3.17-3.75-6.29-5.62-9.44a18.25,18.25,0,0,1-.79-1.68l22.59,10.91c-3.35,4.47-5.29,9.28-1.88,15.29-1.2-.56-1.94-.89-2.67-1.26-7.33-3.76-14.58-7.66-22-11.22a73.33,73.33,0,0,0-10-3.44,12,12,0,0,0-2.9-.18Z" transform="translate(-1.97 -89.11)"/><path class="c" d="M127.58,122.07c-1.29,1.07-2.54,2.19-3.88,3.2-1.14.86-2.42,1.53-3.56,2.39a1.61,1.61,0,0,1-2.41-.14c-2.13-2-4.4-3.83-6.48-5.88-5.77-5.67-11.47-11.41-17.19-17.14-.94-.94-1.81-2-2.71-2.94,3.72,1.74,7.6,3.22,11.13,5.28,8.45,4.93,16.74,10.13,25.09,15.23Z" transform="translate(-1.97 -89.11)"/><path class="c" d="M121.73,191.3H111.13l-.37-.65c2-2.15,4-4.25,6-6.45,1.4-1.6,3.09-1.69,5-1.36l33.95,6-6.26,5.27c-4.43-1.58-8.86-3.14-13.27-4.74-5.13-1.85-9.75,0-14.36,1.93Z" transform="translate(-1.97 -89.11)"/><path class="c" d="M200.45,277.08l3.69,5.15,9.21-5.38a14,14,0,0,1-.41,1.92,34,34,0,0,1-1.65,4c-2.39,4.49-1.4,4-6.8,3.86s-10.65-.48-16-.72a2.51,2.51,0,0,0-.86,0c-3.39,1.11-5.29-.39-6.49-3.48-.55-1.41-1.47-2.67-2-4.23.36.19.71.41,1.08.57,2.13.95,4.24,1.94,6.4,2.79a1.63,1.63,0,0,0,2.21-1.05c.52-1.13,1.21-2.19,1.93-3.45l5.55,3.86,4.15-3.81Z" transform="translate(-1.97 -89.11)"/><path class="a" d="M282.56,183.9c3.42-.73,6.82-1.49,10.23-2.17a1.6,1.6,0,0,1,1.34.37c3.35,4.53,6.65,9.1,10,13.67l-.34.42c-4.16,0-8.31,0-12.47,0a1.57,1.57,0,0,1-1-.7c-2.55-3.79-5.07-7.6-7.7-11.56Z" transform="translate(-1.97 -89.11)"/><path class="a" d="M272.79,196.2l-9,.95a26,26,0,0,0-4.63.49c-2.63.77-5.15,1.9-7.75,2.79-2.95,1-3,1-5-1.44l-1.89-2.26a58.73,58.73,0,0,1,18.56-8.12,3.38,3.38,0,0,0,.65.92c1.68,1.17,3.43,2.25,5.08,3.46,1.36,1,2.62,2.13,3.93,3.21Z" transform="translate(-1.97 -89.11)"/><path class="a" d="M114.49,193.39c10.28,1,20.53,2.13,29.9,7.13-.89,1.42-1.73,2.93-2.75,4.3a2.13,2.13,0,0,1-1.7.55c-5.73-.75-11.45-1.57-17.18-2.37l3.62-6.43c-4.26-1.84-8.73-1.37-13-2.17l1.16-1Z" transform="translate(-1.97 -89.11)"/><path class="a" d="M166.92,214.13c1.09.75,2.12,1.6,3.27,2.24,2.32,1.3,4.72,2.49,7.07,3.75a6.81,6.81,0,0,1,1,.83c-4.15.71-8.32,2-12.46,2-4.61-.08-8.8-2.31-12.14-5.68a3.29,3.29,0,0,1-.85-4A71,71,0,0,1,160,215.6a5.33,5.33,0,0,0,5.74-.73c.37-.26.76-.5,1.14-.74Z" transform="translate(-1.97 -89.11)"/><path class="c" d="M114.49,193.39l-1.16,1c4.31.8,8.79.33,13,2.17L122.76,203l-5.36.4,3.32-4.48a20.52,20.52,0,0,0-14.27,3.42l-.43-.21c1.15-2.91,2.28-5.83,3.49-8.71a1.32,1.32,0,0,1,1.08-.5c1.31.09,2.61.31,3.91.47Z" transform="translate(-1.97 -89.11)"/><path class="c" d="M239.26,191.34l-3.7-2.77c5-1.33,9.73-2.75,14.52-3.77a93.64,93.64,0,0,1,12-1.69c1.66-.13,3.39.65,5.44,1.09l-15.32,4.43a11.42,11.42,0,0,0-1.68.13c-3.77.84-7.54,1.71-11.31,2.57Z" transform="translate(-1.97 -89.11)"/><path class="a" d="M121.73,191.3c4.61-2,9.23-3.79,14.36-1.93,4.42,1.6,8.85,3.16,13.27,4.74-2.23,3-2.23,3-5.67,1.88-7-2.4-14.12-4.56-21.67-4.52-.1,0-.19-.1-.29-.16Z" transform="translate(-1.97 -89.11)"/><path class="c" d="M231,184.07c-.33-4.55,2.48-9-.47-13.43l4.72-2.42c5.42,5.36,3.21,13.74-4.25,15.85Z" transform="translate(-1.97 -89.11)"/><path class="c" d="M158.31,171.78c-2.53,4.62.54,8.82.69,13.43-3.66-.93-6.21-3-7.47-6.3a8.87,8.87,0,0,1,1.82-9.5l5,2.38Z" transform="translate(-1.97 -89.11)"/><path class="c" d="M209.15,194.12l-2-.77a14.12,14.12,0,0,0-12.12.82,5,5,0,0,1-2.7.35c-2.27-.26-4.52-1-6.79-1a32.93,32.93,0,0,0-5.94,1c.59-1.83,2.21-3,4.51-3.17a15.94,15.94,0,0,1,3.09,0,43.28,43.28,0,0,0,12-.43c2.42-.42,5.09.37,7.59.9,1,.2,1.75,1.2,2.62,1.84l-.3.48Z" transform="translate(-1.97 -89.11)"/><path class="c" d="M160.08,185.31c1.14-1.64,2.26-3.26,3.4-4.87s1.25-3.6.36-5.9l7.85,3.5c-1.27,5.09-6.17,8.14-11.61,7.27Z" transform="translate(-1.97 -89.11)"/><path class="c" d="M225.31,173.32c-1.71,5.15,2.38,7.54,4.47,10.82-4.46,1.41-10.35-2.06-12-7.19l7.53-3.63Z" transform="translate(-1.97 -89.11)"/><path class="c" d="M272.79,196.2c-1.31-1.07-2.57-2.21-3.93-3.21-1.65-1.21-3.4-2.28-5.08-3.46a3.38,3.38,0,0,1-.65-.92c2-.52,4-1.07,6-1.55.38-.09,1-.07,1.2.17,2.32,2.79,4.57,5.64,6.84,8.47l-.32.5Z" transform="translate(-1.97 -89.11)"/><path class="a" d="M160.35,194.4,159,198.76c1.49.4,2.9.86,4.33,1.13,1.24.23,1.68.69,1.19,2a10.68,10.68,0,0,0-.38,2.17l-10.26-4.27c1.94-2.21,3.75-4.29,6.45-5.35Z" transform="translate(-1.97 -89.11)"/><path class="a" d="M175.17,191.54l-10-2.89,6.9-4.4,3.08,7.29Z" transform="translate(-1.97 -89.11)"/><path class="a" d="M224,187.13l-8.6,3.23,2.42-7.24,6.18,4Z" transform="translate(-1.97 -89.11)"/><path class="c" d="M268.39,199.67c2.62-.3,5.52-.54,8.39-1,1.48-.24,2.37.08,3,1.47a20.11,20.11,0,0,0,1.37,2.33l-12.72-2.79Z" transform="translate(-1.97 -89.11)"/><path class="a" d="M163.81,209.54v1.75l-8.46-2.19,1.67-3,6.79,3.44Z" transform="translate(-1.97 -89.11)"/><path class="a" d="M239.26,191.34c3.77-.86,7.54-1.73,11.31-2.57a11.42,11.42,0,0,1,1.68-.13c-3.28,1.57-6.56,3.16-9.86,4.68a1.53,1.53,0,0,1-1.28-.22,19.41,19.41,0,0,1-1.84-1.76Z" transform="translate(-1.97 -89.11)"/><path class="a" d="M151.23,203.47l2.95,1.33-4.71,1.79,1.76-3.13Z" transform="translate(-1.97 -89.11)"/><path class="a" d="M235.37,202.24l2.79-1.75,2.26,3-5.06-1.24Z" transform="translate(-1.97 -89.11)"/><path class="a" d="M297.46,305.29l.16.69-.22.06-.17-.57a1.53,1.53,0,0,1,.22-.19Z" transform="translate(-1.97 -89.11)"/><path class="c" d="M283.2,284.12l-.38-.81.38.81Z" transform="translate(-1.97 -89.11)"/><path class="a" d="M168.84,292.53l.09.74-.18,0-.2-.55.28-.23Z" transform="translate(-1.97 -89.11)"/><path class="a" d="M147.36,181.18l0,.38-.18-.22.14-.15Z" transform="translate(-1.97 -89.11)"/><path class="c" d="M213.08,168.87l0,.24-.16,0,.22-.18,0,0Z" transform="translate(-1.97 -89.11)"/><path class="c" d="M58.27,136.15l-.23-.26.41.08-.18.18Z" transform="translate(-1.97 -89.11)"/><path class="b" d="M160.9,157.19c-2-.53-4.07-1-6.07-1.6-5.06-1.54-10.1-3.15-15.14-4.73-3.6-1.46-7.22-2.87-10.79-4.39a28.81,28.81,0,0,1-4.09-2.18c-2.28-1.44-2.77-3-1.46-5.39a18.54,18.54,0,0,1,3.32-4.57c3.28-3.1,6.77-6,10.17-9l.3.24c-1.52,2.68-3.19,5.3-4.53,8.07s-1.13,3.63,1.23,5.35c6.3,4.57,12.73,9,19.17,13.32,2.55,1.73,5.26,3.23,7.9,4.84Z" transform="translate(-1.97 -89.11)"/><path class="b" d="M191.36,173.81c6.54-1.52,11.7,1.3,16.59,5l-.14.55c-2.08-.42-4.14-.89-6.23-1.25-3.83-.66-7.68-1.28-11.58-.52l-4.92,1.11c-.44.1-.88.14-1.33.21l0,0c1.93-2.57,4.68-3.93,7.56-5.09Z" transform="translate(-1.97 -89.11)"/><path class="b" d="M166.6,119.6c0-.19,0-.38,0-.09l0,.07,0,0Z" transform="translate(-1.97 -89.11)"/><path class="b" d="M183.76,178.87l0,.24-.22,0,.22-.18,0,0Z" transform="translate(-1.97 -89.11)"/><path class="b" d="M136.84,125.38l.31-.19c0,.14,0,.29,0,.43l-.29-.24Z" transform="translate(-1.97 -89.11)"/><path class="b" d="M248,123.64a60.52,60.52,0,0,1,13.67,12.18,11.49,11.49,0,0,1,.76,1.14c1.78,2.88,1.56,4.75-1.41,6.25A140.13,140.13,0,0,1,247,149.47c-5.89,2.21-11.93,4-17.91,5.95a3.88,3.88,0,0,1-1.83.18c2.87-1.86,5.82-3.61,8.59-5.6,5.3-3.81,10.58-7.66,15.7-11.7,3.09-2.44,3.18-3.31,1.29-6.7-1.49-2.69-3.27-5.22-4.92-7.83l.14-.13Z" transform="translate(-1.97 -89.11)"/><path class="b" d="M247.89,123.77l-.26-.27.4.14-.14.13Z" transform="translate(-1.97 -89.11)"/><polygon class="b" points="224.7 66.84 224.83 66.81 224.81 66.91 224.7 66.84 224.7 66.84"/><path class="b" d="M113.42,282a10.39,10.39,0,0,1,.59-1.92q7.63-14.31,15.31-28.6c.27-.5.49-1,.73-1.55,2.05-3.43,4.06-6.89,6.18-10.28,1.52-2.43,3.13-4.8,4.84-7.1,1.31-1.77,2.34-2,4.07-.57a37,37,0,0,1,5.5,5.41c3,3.7,5.7,7.59,8.53,11.41l-.21.5c-2.19,0-4.38-.07-6.57,0s-4.57.37-6.86.49a6.25,6.25,0,0,0-4.39,2.37q-12.9,14.09-25.86,28.11c-.57.62-1.24,1.14-1.86,1.71Z" transform="translate(-1.97 -89.11)"/><path class="b" d="M113.43,282.34l-.57-.17.58-.2v.37Z" transform="translate(-1.97 -89.11)"/><path class="b" d="M261.25,251.69l12.11,21.06,3.1,6a1.3,1.3,0,0,0-.26.19q-6-6.42-11.94-12.84C259.51,261,254.72,256,250,250.88a3.66,3.66,0,0,0-4-1.3c-3.91,1.1-7.82,2.23-11.72,3.35a1.25,1.25,0,0,0-.21-.27,72.06,72.06,0,0,1,11.33-15.43,9.72,9.72,0,0,1,1.48-1.17c1.74-1.16,2.76-1.21,4,.5,3.23,4.5,6.27,9.14,9.38,13.73l1,1.4Z" transform="translate(-1.97 -89.11)"/><path class="b" d="M276.45,278.74l.08.76-.21,0-.13-.59a1.3,1.3,0,0,1,.26-.19Z" transform="translate(-1.97 -89.11)"/><path class="b" d="M234.32,252.92l-.4,0,.19-.29a1.25,1.25,0,0,1,.21.27Z" transform="translate(-1.97 -89.11)"/><path class="b" d="M86.9,218.89l-.18.2,0-.21.23.06,0,0Z" transform="translate(-1.97 -89.11)"/></svg>