<svg id="Layer_1" data-name="Layer 1" xmlns="http://www.w3.org/2000/svg" viewBox="0 0 64.8 64.8"><title>Wildcat Territory_2c</title><path d="M0-32.4A32.4,32.4,0,0,0-32.4,0,32.4,32.4,0,0,0,0,32.4,32.4,32.4,0,0,0,32.4,0,32.4,32.4,0,0,0,0-32.4ZM0,31A31,31,0,0,1-31,0,31,31,0,0,1,0-31,31,31,0,0,1,31,0,31,31,0,0,1,0,31Z" transform="translate(32.4 32.4)" style="fill:#050000"/><path d="M23.4,0A23.4,23.4,0,1,0,0,23.4H0A23.4,23.4,0,0,0,23.4,0Z" transform="translate(32.4 32.4)" style="fill:#050000"/><path d="M22.4,0A22.4,22.4,0,1,0,0,22.4H0A22.4,22.4,0,0,0,22.4,0Z" transform="translate(32.4 32.4)" style="fill:#d7a900"/><path d="M-20,15.8l-.9.3-.2-.4-.2-.4h-.1l-1.7.6h-1.2l-.6-1,1.2-.4,1.7-.7-.3-.5-.3-.4.9-.3,1.6,2.8Z" transform="translate(32.4 32.4)"/><path d="M-21.5,20.1l1.4-1,1.8-1.3,2.2,2.2-.7.5-.3-.3-.2-.2-.9-.9-.3.2h-.2l.7.7.3.2.2.2-.7.5h-.1l-.2-.2-.2-.2-.6-.6h-.5l.2.3.3.3.4.4.4.3-.7.5L-21.5,20Z" transform="translate(32.4 32.4)"/><path d="M-12.1,22.6l.5.3.2.2a.6.6,0,0,1,.1.4.8.8,0,0,1-.2.5l-.6.5h-.7l-.4,1.8-1.1-.6.6-2.1h0l.6.2.4-.2a.3.3,0,0,0,0-.3L-13,23h-.3l-1.1,1.4-.3.4-.4.5-1.1-.6,1.1-1.3,1.3-1.7,1.7.9Z" transform="translate(32.4 32.4)"/><path d="M-6.1,24.9l.6.2.3.2.3.4a.8.8,0,0,1,0,.5,1.2,1.2,0,0,1-.4.6l-.6.2.2,1.8-1.3-.3V26.2h.7a.4.4,0,0,0,.3-.3.3.3,0,0,0-.1-.3l-.4-.2H-7l-.6,1.6-.2.5-.2.6-1.3-.3.6-1.5.7-1.9,1.9.5Z" transform="translate(32.4 32.4)"/><path d="M-.6,29.2H-1.9q.1-.7.2-1.6t.2-2H-.2v.3a2.4,2.4,0,0,1-.1.5L-.5,28v1.2Z" transform="translate(32.4 32.4)"/><path d="M6.2,24.9v.8H5.2l.2,1.6v1.2l-1.3.2a6.3,6.3,0,0,0-.1-1.2L3.9,26H2.8v-.8l3.6-.6Z" transform="translate(32.4 32.4)"/><path d="M10.9,25.2a1.1,1.1,0,0,0,1.4.5h.1a.9.9,0,0,0,.6-.6,1.1,1.1,0,0,0-.2-.8,1.1,1.1,0,0,0-.6-.5,1.2,1.2,0,0,0-.9.1.9.9,0,0,0-.6,1.1l.2.3Zm1.9,1.2a2.9,2.9,0,0,1-1.8.3,1.9,1.9,0,0,1-1.3-.9,1.6,1.6,0,0,1-.2-1.5,2.4,2.4,0,0,1,1.3-1.2,3,3,0,0,1,1.8-.3,1.8,1.8,0,0,1,1.3.9,1.6,1.6,0,0,1,.2,1.5,2.5,2.5,0,0,1-1.3,1.2Z" transform="translate(32.4 32.4)"/><path d="M16.9,19.2l.4-.4.3-.2h.5l.5.2a1.2,1.2,0,0,1,.4.6.8.8,0,0,1-.1.6l1.9.7-1,.9-2.2-1h0l.4-.5a.3.3,0,0,0-.1-.4h-.4l-.4.2h-.2l1.3,1.3.4.4.5.5-.9.8L17,21.9l-1.6-1.4,1.4-1.2Z" transform="translate(32.4 32.4)"/><path d="M23.7,16.1h.5l-.6,1-.4-.2H23l-.7-.4H19.4l.7-1.1h.4l1.1.2-.6-.7h-.1l-.2-.3.6-1,1.5,2.2.9.5Z" transform="translate(32.4 32.4)"/><polygon points="60.1 41.2 60.2 43.2 58.3 42.5 56.5 43.2 56.5 41.2 55.3 39.7 57.2 39.1 58.3 37.5 59.5 39.1 61.4 39.7 60.1 41.2 60.1 41.2" style="fill:#d7a900"/><polygon points="61.1 30.7 61.1 32.7 59.3 32 57.4 32.7 57.5 30.7 56.2 29.1 58.1 28.6 59.3 26.9 60.4 28.6 62.3 29.1 61.1 30.7 61.1 30.7" style="fill:#d7a900"/><polygon points="4.7 41.2 4.6 43.2 6.5 42.5 8.4 43.2 8.3 41.2 9.5 39.7 7.6 39.1 6.5 37.5 5.4 39.1 3.5 39.7 4.7 41.2 4.7 41.2" style="fill:#d7a900"/><polygon points="3.8 30.7 3.7 32.7 5.6 32 7.4 32.7 7.4 30.7 8.6 29.1 6.7 28.6 5.6 26.9 4.5 28.6 2.5 29.1 3.8 30.7 3.8 30.7" style="fill:#d7a900"/><path d="M-19.1-16.3l.3.3.3.2-1.2,2-.6-.3h0l-3.6-1.5,2.8,2.7.3.3.3.3-1.2,1.9H-22l-.4-.2-5.1-2,.9-1.4.3.2.4.2,3.4,1.4L-25-14.8l-.3-.3-.4-.4,1.2-1.9.4.2h.3l3.4,1.3-2.5-2.4-.2-.2-.6-.5.9-1.4,3.8,4Z" transform="translate(32.4 32.4)"/><path d="M-13.7-20l-1.5,1.2L-16.8-21l-2-2.7,1.5-1.2.3.4.4.6,1.6,2.3.5.7.6.9Z" transform="translate(32.4 32.4)"/><path d="M-10.8-28.2l.5,1.8.7,1.9.3.6h.9l.7-.3.8-.4.5,1.3-4.2,1.6-.8-2.5-1.2-3.1,1.9-.7Z" transform="translate(32.4 32.4)"/><path d="M-1.6-25.6H-.5a1.4,1.4,0,0,0,1-.8,2.1,2.1,0,0,0,.1-.9,1.7,1.7,0,0,0-.3-1.1,1,1,0,0,0-.9-.3h-1v3.2Zm-2,1.4q.1-1.1.2-2.6t.1-3.3H.9l.7.3a2.3,2.3,0,0,1,.8,1,3.4,3.4,0,0,1,.3,1.4,3.1,3.1,0,0,1-.9,2.4,3.7,3.7,0,0,1-2.6.9H-3.6Z" transform="translate(32.4 32.4)"/><path d="M12.6-25.9l-.6-.4-.6-.3a2.1,2.1,0,0,0-1.6-.1,1.8,1.8,0,0,0-1,1.1,1.5,1.5,0,0,0,0,1.3,2.2,2.2,0,0,0,1.2.9l.7.2h.7l-.7,1.2L9-22.3a3.8,3.8,0,0,1-2.1-1.6,2.7,2.7,0,0,1,0-2.4,3.1,3.1,0,0,1,1.8-1.9,3.9,3.9,0,0,1,2.8.2l1.6.8-.4,1.3Z" transform="translate(32.4 32.4)"/><path d="M19-22.4h.3l.5-.2,1.7,1.6-.2.3-.2.3-2.5,5-1.4-1.4v-.2l.2-.2.7-1.2-1.6-1.4-1.2.5-.3.2-.3.2-1.4-1.4L19-22.4Zm.9,1-1.9.8.9.9Z" transform="translate(32.4 32.4)"/><path d="M27.5-11.6l-1.3.5-.3-.7-.3-.6v-.2l-2.6,1-.5.2-.5.2-.5.2h-.3l-.9-1.7,1.8-.7,2.6-1.1-.5-.9-.4-.6,1.3-.5,2.3,4.7Z" transform="translate(32.4 32.4)"/><path d="M-6.8,18.5c-2.2,0-3-1-3.3-2.9s.5-4,2.5-4.4,3-2,3.4-4A19,19,0,0,1-3.6,5,3.6,3.6,0,0,1-.3,2.3,3.6,3.6,0,0,1,3.4,4.1,19.8,19.8,0,0,1,4.9,8.9a1.7,1.7,0,0,0,1.6,1.6c2.3.5,3.2,1.2,3.3,3a4.7,4.7,0,0,1-2.9,5H4.7l-3.2.2L-2,19l-3.4-.4c0,.1-1.4-.2-1.4-.1Z" transform="translate(32.4 32.4)" style="fill:#231f20"/><path d="M.7-8c.2-2.7.7-5.1,2.4-7.3s.2-2,.1-3.1a11,11,0,0,0-.4-1.8,4.5,4.5,0,0,1,0-.6c.3,0,.6.4.7.6l1.9,3.2,1,1,1.3,1c1.8,2.5,3,7.5.7,10.9S4.6-1.3,2.9-2.5A7.7,7.7,0,0,1,1-5.6,8.3,8.3,0,0,1,.7-8Z" transform="translate(32.4 32.4)" style="fill:#231f20"/><path d="M-3.7-17.5a2.9,2.9,0,0,0,1,2.6,7.2,7.2,0,0,1,1.9,5,19.7,19.7,0,0,1-.5,5.1A3.5,3.5,0,0,1-4.3-2c-1.7.2-2.7-.7-3.6-2-2.2-3.4-1.6-8.2.5-10.5a12,12,0,0,0,2.8-4.3c.1-.3.3-.8.6-.8l.2,1a9.6,9.6,0,0,1,0,1Z" transform="translate(32.4 32.4)" style="fill:#231f20"/><path d="M-15.6,1c.3-2,.7-4,2.8-5.1a1.3,1.3,0,0,0,.6-.9c.1-.6,0-1.3.1-2a9,9,0,0,1,.2-1l.6.9a3.9,3.9,0,0,1,.3,1A11.9,11.9,0,0,0-9.8-3C-9-1.5-8.4-.7-6.6-.8s1.4.9,1.5,1.9A7.5,7.5,0,0,1-9,7.4a3.6,3.6,0,0,1-3.9-.6,7.6,7.6,0,0,1-2.8-5.7Z" transform="translate(32.4 32.4)" style="fill:#231f20"/><path d="M15.7,1.2a7,7,0,0,1-3.4,6.1,3.1,3.1,0,0,1-4.4-.5h0A6.2,6.2,0,0,1,6.1,1.6c.1-1.2.5-2.4,2-2.7A2.7,2.7,0,0,0,9-1.8c.7-1.3,1.5-1.9,1.5-3.5A7.8,7.8,0,0,1,11-7.7c0-.2.3-.3.4-.4v.5l.2,1.9a2.1,2.1,0,0,0,1.2,1.8c2,1.1,2.6,3.1,2.7,5Z" transform="translate(32.4 32.4)" style="fill:#231f20"/></svg>