<svg xmlns="http://www.w3.org/2000/svg" viewBox="0 0 387.21 342.24"><defs><style>.a{fill:#070404;}.b{fill:#c3c7c7;}</style></defs><title>Wildcat2 2-color</title><path class="a" d="M66.83,143.31c-3.42,1.09-6.76,2.53-10.26,3.2-7.81,1.48-15.69,2.57-23.81,3.86,7.32,6,14.42,12.41,25.05,14.76l-14.62,41.4,20.18-2.37c-.92,1.53-1.2,2.12-1.59,2.62-12.32,16-15.06,34-11.49,53.46,3.48,19,12.15,36,19.5,53.9,1.87-7.86,3.35-15.37,5.49-22.69s5-14.47,10.2-19.65c0,10.71-.66,21.68.19,32.54s3.18,21.36,5,32.91c4.34-9.43,8-18,12.18-26.28,5.28-10.36,12.94-19.27,17.8-21.48-4.05,13,1.65,24.91,2.85,37.94C135.06,312,147.78,299.5,165.39,293c11.89,16.93,47.74,16.53,73.68-.49,10.92,9.78,24.29,17.12,31.2,31.91,4-12.35,6.45-23.94,3.74-36.4a13,13,0,0,1,4.31,3.29c6.39,7.93,10.08,17.23,13.19,26.78,1.51,4.62,2.79,9.32,4.39,14.7,11.64-25.7,21.13-51.17,24-79.11l12.44,23c2.9-24.66-1.83-46.24-18.49-64.59l1.11-.83,20.49,12.08c-2.44-11.22-4.3-21.81-7.11-32.14-2.86-10.54-8.79-19.6-16.39-27.71,6.94-2.27,9.18-8.18,12.88-13.16-15.76-.8-27.31-8.53-35.44-18.22,16,2.53,30.68.9,43.21-11.27l-8.8-2.56.47,1.13c-4.61,2.34-9,5.63-13.88,6.78-7.44,1.77-15.23,2.06-22.88,3,1.69-1,3.32-2.08,5.07-2.92a68.54,68.54,0,0,0,20.63-14.59l-11.43-6c5.3-1,10.52,0,15.23-1.15,9.53-2.31,18.78-5.78,28.17-8.68a20.38,20.38,0,0,1,4.15-.41c-6.53,7.29-13.48,14-22.71,17.92-.89.37-1.41,1.62-2.09,2.45,21.35-7.25,35.63-22.23,46.77-40.71a34.21,34.21,0,0,0,2.28-5.13c0-.11-.74-.54-1.14-.82-9.23,4.18-19,5.9-29,6.61-25.3,1.78-50.83.31-76.11,5.5.14-.63.21-1.14.36-1.61,2.16-6.75,1.6-7.94-5.22-10.62a18.43,18.43,0,0,0-4.66-1.35c-5.44-.58-10.9-1-16.35-1.44l-.8-.75,5.12-2.92c-2-1.42-3.22-2-4.49-2.06-12.39-.89-24.3.78-35.54,6.42a5.58,5.58,0,0,1-4.3.2c-16.39-7.83-33.76-9.43-51.57-8.29a31.11,31.11,0,0,0-4.49,1L150.49,64c-19.35,4.4-28.05,8-33.82,13.73l3.75,6.22a27.24,27.24,0,0,1-2.9-.27A131.93,131.93,0,0,0,77.6,80.18c-5.51.39-9.6-1.19-14.27-3.64C51.7,70.46,39.69,65.11,27.74,59.67c-5-2.27-9.73-4.67-13.28-9a28.56,28.56,0,0,0-3.8-3.31l-1,.93c2.71,31.54,21.57,51.23,49.31,65.16H47.8l-.68,1.17c4.46,4.26,8.81,8.62,13.4,12.74,4.84,4.34,10.3,7.26,18.24,4.92L66.83,143.31ZM0,23.7c1,.59,2.19,1,2.84,1.81,3.95,5,8,10,11.56,15.19A31,31,0,0,0,28.06,51.76C42.4,58,56.62,64.57,70.91,70.94a9.39,9.39,0,0,0,3.45.63c9.48.31,19,.81,28.44.7,3,0,6.23-1.4,9.08-2.73,6-2.77,11.75-5.92,17.85-9l-5.52-4.11c16.08-5.63,32.13-8.87,48.8-5.47,9.52,1.94,18.88,4.6,28.34,6.84a6.49,6.49,0,0,0,3.86,0c16.4-7.48,33.55-6,50.71-4.39,3.6.34,7.21.62,11.59,1l-7.62,7.05c1.74.54,3.05,1,4.4,1.35,2.09.54,4.45.57,6.27,1.58,9.23,5.13,19.32,3.43,29.12,4,8.92.54,17.84,1.44,26.77,1.68,22.51.59,42.68-5.84,59.76-21l1,.44c-1.55,5.4-2.59,11-4.72,16.17-9.5,23-22.38,43.67-41.76,60-8.2,6.91-11.74,9.4-24.92,13.9,4.14,1,8.25,2.16,12.44,2.81,4.37.68,8.81.84,14.5,1.34-8.46,6.28-8.68,17.62-18.1,22.57,2.1,3.17,4.06,6.37,6.26,9.39a77.69,77.69,0,0,1,14.27,36.25c1.93,14.9,3.3,29.87,4.9,44.8.06.59,0,1.2,0,2.68l-10.33-13.72c4.59,21.24-.82,41.21-6.18,62.15L323,276.12c-3.87,13.65-7.27,27-11.46,40.05-4.15,12.92-9.11,25.58-13.71,38.36l-1-.09-15.09-34.92-9.52,35.56c-.93-2.25-1.51-3.67-2.1-5.07-3-7.1-5.6-14.36-9-21.24a52.52,52.52,0,0,0-8.4-12.19c-4.21-4.55-9.18-8.4-13.84-12.56-25.11,17.91-61.13,13.92-78.49,2.05-9.81,6.69-20,13.26-26.81,23.22-6.63,9.64-12.2,20-18.57,30.58l-5.37-37.44c-9.66,13.25-14.3,28.32-21.84,43.51l-9.63-47.23-10,19c-5.2-10.14-10.24-19.32-14.69-28.79-8.07-17.18-14.76-34.86-17.08-53.88-1.48-12.14-1.09-24.07,5.72-36l-24.57,7.49c3.5-5.8,6.45-11.14,9.82-16.18C35,198.88,40.37,186.53,42.1,172.66c.36-2.92,0-4.4-3.06-5.84C26.91,161,18,151.1,7.8,142.18c16.93-3.11,34.07.86,51-5.36-1.78-1.42-3-2.22-4-3.21-5-4.9-10.37-9.54-14.94-14.84-7-8.09-13.36-16.68-20.08-25-8.9-11-16-22.91-17.71-37.23C1.19,48.77,1.28,40.87.83,33A21.41,21.41,0,0,0,0,29.4V23.7Z" transform="translate(0 -23.7)"/><path class="b" d="M50.2,94.59c11.26,9.4,23.06,17.17,38.61,16.63l-7.63-5.64L94.33,101c-15.17-.26-30-.53-44.13-6.43Zm299.17.83a20.38,20.38,0,0,0-4.15.41c-9.39,2.9-18.64,6.37-28.17,8.68-4.72,1.14-9.94.2-15.23,1.15l11.43,6a68.54,68.54,0,0,1-20.63,14.59c-1.75.85-3.39,1.94-5.08,2.92l-9.13-.46,4.81-5.71-17.61,5.07c1.15-3.92-2.23-4-4.36-5.15l13.52-11.57c-12.66,4.29-25.45,8-35.41,17.39l0,0c.51-2.47,1-4.95,1.53-7.42,1-4.9-.26-6.66-5.26-7.15a28.59,28.59,0,0,1-3-.66,36.8,36.8,0,0,1,2.22-4.21c2.42-3.4,5.15-6.58,7.39-10.09a90.92,90.92,0,0,0,4.43-8.74l.22-.21-.18.26c-9,6-17,12.87-22.56,22.25-2.93,5-2.52,5.64,2.95,7.66,1.44.53,3.45,1.68,3.71,2.87,1.72,8,3,16.14,4.5,24.22l-.92,7.36a73.18,73.18,0,0,0-8.79-1.14c-5.73-.08-11.47.5-17.18.23-4-.19-7.95-1.8-11.94-1.89-3-.06-6,1.29-9,2l-1-7.4a9.88,9.88,0,0,0,.27-2.59c-1.39-8.49-2.85-17-4.34-25.75a37.89,37.89,0,0,1,4.36-1c3.75-.38,4.44-2.12,3-5.45-2.79-6.3-5.35-12.69-8-19-.74-1.73-1.64-3.38-2.46-5.07l-.72.3,2.7,20.9c-1.37.08-2.57.2-3.76.22-6.34.14-7.65,2-5.72,8.09,1.17,3.73,2.41,7.44,3.62,11.16l-.69.62c-4.09-4.32-8.05-8.75-12.28-12.92-8.24-8.12-18.46-12.84-29.23-16.62a15.77,15.77,0,0,0,2.77,2.93q7.22,6.69,14.42,13.4c-6.26-.19-7.85,1.25-6.91,6.21l-20.92-9,6.53,8.32c-8.2,1.42-16,2.19-20.46,10.42l4.79-.53c2.82,12.16,12.43,14.14,23.55,14.79-9.7,5.72-17.89,11.65-18.83,23.21-.89,11,5,19.26,11.39,27.67-7,4.8-6.54,10.95-3.42,17.65a75.76,75.76,0,0,1,3.55,9.05,4.5,4.5,0,0,1-.51,3.52c-4.08,5.54-8.34,11-12.54,16.4-11.79-19.15-16-40.63-18.6-62.93-9.77,7.73-17.61,41.12-16.46,50.21l7.28-9.34-1.4,34.19L66.88,290c-10.94-31.28-11.68-62.25,6.2-92.47H55.8c3.55-11.87,3.5-24.77,12.64-35.11a32.76,32.76,0,0,1-22-6.42c3-1.15,5.86-1.74,8.12-3.26,4.28-2.87,8.21-6.28,12.28-9.46l11.93-11.08c-7.94,2.34-13.4-.58-18.24-4.92-4.59-4.11-8.94-8.48-13.4-12.74l.68-1.17H58.93C31.19,99.48,12.33,79.79,9.62,48.25l1-.93a28.56,28.56,0,0,1,3.8,3.31c3.54,4.36,8.29,6.76,13.28,9,11.95,5.44,24,10.79,35.58,16.88,4.68,2.45,8.77,4,14.27,3.64a131.93,131.93,0,0,1,39.92,3.49,27.24,27.24,0,0,0,2.9.27l-3.75-6.22C122.44,72,131.14,68.4,150.49,64l-5.13-4.17a31.11,31.11,0,0,1,4.49-1c17.81-1.14,35.17.47,51.57,8.29a5.58,5.58,0,0,0,4.3-.2c11.24-5.63,23.16-7.3,35.54-6.42,1.27.09,2.51.64,4.49,2.06l-5.12,2.92.8.75c5.45.47,10.91.86,16.35,1.44A18.43,18.43,0,0,1,262.44,69c6.82,2.68,7.38,3.87,5.22,10.62-.15.48-.22,1-.36,1.61,25.28-5.19,50.81-3.72,76.11-5.5,10-.71,19.81-2.43,29-6.61a23.37,23.37,0,0,1-2.54,4.3c-6.79,7.39-13.69,14.67-20.56,22Z" transform="translate(0 -23.7)"/><path class="b" d="M116.46,243.66c-3,6.8-6.79,13.37-8.76,20.45-3.38,12.15-5.63,24.62-8.33,37-.6,2.72-1.13,5.46-1.7,8.19l-1.26.16c-2.29-11.27-4.77-22.5-6.79-33.81-1.17-6.54-1.58-13.21-2.33-19.81.47-11.5.94-23,1.4-34.19l-7.28,9.34c-1.15-9.09,6.69-42.48,16.46-50.21,2.61,22.29,6.81,43.78,18.6,62.93Z" transform="translate(0 -23.7)"/><path class="a" d="M186.4,146.67c-8.78-2.3-17.5-5.08-26.79-3.95,3-3.71,4.63-7.69,2.25-12.38.22-.34.69-.92.62-1-4-4.5-8.13-9-12.22-13.43q-7.21-6.7-14.42-13.4a15.77,15.77,0,0,1-2.77-2.93c10.76,3.78,21,8.5,29.23,16.62,4.23,4.17,8.19,8.6,12.28,12.92l1,.8-.35-1.41c-1.21-3.72-2.45-7.43-3.62-11.16-1.92-6.13-.61-7.95,5.72-8.09,1.2,0,2.39-.14,3.76-.22l-2.7-20.9.72-.3c.83,1.69,1.73,3.34,2.46,5.07,2.7,6.34,5.26,12.73,8,19,1.47,3.33.78,5.07-3,5.45a37.89,37.89,0,0,0-4.36,1c1.49,8.77,3,17.25,4.34,25.75a9.88,9.88,0,0,1-.27,2.59Z" transform="translate(0 -23.7)"/><path class="a" d="M234.35,154.85c1.08,3.94,1.24,7.72-2.5,11.78a19.12,19.12,0,0,0-2-3.07,6.84,6.84,0,0,0-10.14,0c-1.94,1.9-2.32,3.87-.15,5.94,2.8,2.67,2.51,5.29.05,8.15-2.88,3.36-5.48,6.95-8.33,10.61l15.06,5.29-.35,1.34c-12.74-1.75-25.46-4.19-38.36-1.3l-.23-1.45,19.14-4.42c-2.12-4.34-4.07-8.45-6.14-12.5-1-2-1.29-3.89.78-5.37s4.31-3.44,3-6.31c-.56-1.25-2.57-2.38-4.06-2.58-3-.42-6,.17-7.77,3.17a20.1,20.1,0,0,0-1,2.25c-3.95-4.18-5-7.59-3.95-12.35,3-.72,6-2.08,9-2,4,.09,7.94,1.7,11.94,1.89,5.71.27,11.45-.32,17.18-.23a73.18,73.18,0,0,1,8.79,1.14Z" transform="translate(0 -23.7)"/><path class="a" d="M252.79,148.72c-1.67-.53-3.33-1.08-5-1.58-4.25-1.25-4.26-1.24-4.44-4.72l-8.07,5.06c-1.45-8.08-2.77-16.19-4.5-24.22-.25-1.19-2.27-2.34-3.71-2.87-5.47-2-5.88-2.7-2.95-7.66,5.56-9.39,13.61-16.29,22.56-22.25l0-.05a90.92,90.92,0,0,1-4.43,8.74c-2.25,3.5-5,6.69-7.39,10.09a36.8,36.8,0,0,0-2.22,4.21,28.59,28.59,0,0,0,3,.66c5,.49,6.31,2.26,5.26,7.15-.53,2.47-1,4.94-1.53,7.42l-.34.69.38-.65c10-9.35,22.75-13.1,35.41-17.39l-13.52,11.57L247.87,133.7l2.64,1.47c-.73,1.08-1.87,2.06-2.13,3.24-1,4.45,1.23,7.51,4.84,9.8q-.22.25-.42.51Z" transform="translate(0 -23.7)"/><path class="a" d="M155.5,144.06a27.27,27.27,0,0,1-3.19.6c-7.7.55-10.45.62-13.27-7.67l1.24-9.27-7.68,2.81-19.31.84-4.79.53c4.42-8.23,12.26-9,20.46-10.42l-6.53-8.32,20.92,9,7.65,4.05-2,1.15c-1.1,2-2.89,3.84-3.17,5.91-.77,5.74,1.9,8.46,9.64,10.82Z" transform="translate(0 -23.7)"/><path class="a" d="M278.4,128.7l-1.69,1.21,9.16,5.2-9.3,6.28-8.77-7.29c-.25,5.52,1,10.72-3.86,14.22-3.52,2.51-7.37,2-11.16.4q.2-.26.42-.51c5.35.08,8.59-1.76,9.61-5.45,1.13-4.09-1-8.41-5.36-10.91l8.14-3.8L283.21,123l-4.81,5.71Z" transform="translate(0 -23.7)"/><path class="a" d="M50.2,94.59c14.12,5.89,29,6.16,44.13,6.43l-13.15,4.56,7.63,5.64c-15.56.54-27.35-7.23-38.61-16.63Z" transform="translate(0 -23.7)"/><path class="a" d="M246.68,90.48l.18-.26-.22.21,0,.05Z" transform="translate(0 -23.7)"/><path class="a" d="M196.46,273.4l-4.26,5.55L179,264.24c-1.2,6.26-1.07,11.84,1.68,17.05.66,1.24,2.44,2.81,3.57,2.71a60.43,60.43,0,0,1,13.62.21,48.19,48.19,0,0,0,9.93,0c4.34-.32,8.64-1.12,13-1.4,3-.19,4.78-1.49,5.6-4.31,1.6-5.54,1.13-11-.23-16.55l-11.7,15.75-3.37-3.82-3.68,6.55-4.13-5.84-3.41,6.56-3.37-7.69Zm3.68-26.52c-1.87-3.88-3.66-7.8-5.64-11.62-.57-1.09-1.62-2.66-2.54-2.72a45.68,45.68,0,0,0-10.84.23c-3,.53-4.8,2.9-4.45,6.31.29,2.82.35,5.69.87,8.47,1.77,9.43,5.91,17.52,14.15,24l2.51-3.89,5.35,4.06,3.25-5.12,4.51,5.32L212,266l2.39,3.22c8.49-8.88,8-22.38,5-31.87a3.28,3.28,0,0,0-1.84-2c-5.2-1.26-10.41-2.49-15.68-3.41-2.61-.46-3.7,1.22-3.28,3.75.6,3.59,1.27,7.18,1.91,10.76l-.4.36Zm-34.2-40L180.13,227l1.3-.59c0-4.1-.29-8.22.08-12.28s1.43-7.9,2.38-12.89l5.31,8.45,6.09-11.12,5.47,7.59,6.78-9.45,5.41,9.27,5.89-7.69,4.5,10.18,6.65-6,2.47,26.49c5.57-5.86,8.44-13.06,10.93-20.46,1.56-4.64,2.75-5.4,7.16-4.07,3.94,1.19,3.76,4.17,2.78,7.22a42.37,42.37,0,0,1-2.7,6.3c-9.24,18-15.8,36.68-17.06,57-.67,10.74-5.81,15.35-16.6,16.66-11.09,1.35-22.08,2-33.17,0-3.4-.62-5.81-1.94-7.34-5-1-1.93-1.82-3.94-3-5.77-3.91-6.27-7.49-12.82-12-18.64-11.73-15.19-22-31.17-29-49.11a34.7,34.7,0,0,1-2.16-8.2c-.54-4.33,1.16-5.2,5.18-3.61,5.25,2.07,10.56,4.33,16.05,5.36,4.78.89,9.87.19,14.36.19Z" transform="translate(0 -23.7)"/><path class="b" d="M320.28,246.65c-.69-.4-1.41-.78-2.08-1.22-4.45-2.88-5.77-2-6.45,3.27-2.26,17.46-4.11,35.06-12.18,51.13-1.39,2.78-3.2,5.35-5.18,8.63-1-10.25-1.7-19.6-3-28.85-1.94-13.69-5.38-26.94-13.77-38.38a35.44,35.44,0,0,0-23.09-14.33c2.36-4.47,4.73-8.63,6.78-12.94,2.52-5.3,2.09-6.76-2.26-10.13,4.77-2.25,9.77-4.15,14.29-6.85,5.69-3.41,10.44-7.64,11.79-14.94,2.14-11.56-5.27-25.08-17.12-28.95,8.9-2.8,17.5-5.22,21.26-14.48,5.34,11.65,15.13,15.56,28.3,16.5l-13.26,8.5c12.52,12.55,20.08,27.61,22.46,46.18-7.62-7.41-16.08-10.78-25.1-11.15,1.79,5.77,3.55,11.55,5.41,17.29.23.7,1,1.24,1.54,1.8,7.8,7.72,11.17,17.4,12.34,28l-.66.88Z" transform="translate(0 -23.7)"/><path class="a" d="M125.33,183l-1.43-7.13c18.08-2,35.28-1.1,52.43,7.13Z" transform="translate(0 -23.7)"/><path class="a" d="M124.87,169.86c1.09-7.51,1.1-7.61,8.92-7,13,.94,25.79,2.63,38,7.47a19.54,19.54,0,0,1,3.31,2.09l-50.21-2.53Z" transform="translate(0 -23.7)"/><path class="a" d="M129.07,158.05c1.8-3.18,3.61-6.27,8-6.13a81.83,81.83,0,0,1,34.27,8.62,10.23,10.23,0,0,1,1.53,1.32l-43.81-3.81Z" transform="translate(0 -23.7)"/><path class="a" d="M279,180.33c.75,6.82.41,7.09-5.76,7-10.8-.09-21.6,0-32.5,0,11.64-7.48,24.6-8.32,38.26-7Z" transform="translate(0 -23.7)"/><path class="a" d="M239.69,177.83c11-6.7,23.33-8.51,35.88-9.44.88-.07,2.31,1.11,2.72,2a20.6,20.6,0,0,1,1,4.71l-39.6,2.7Z" transform="translate(0 -23.7)"/><path class="a" d="M243,167.81a48.51,48.51,0,0,1,25-9.21c4.75-.33,6.52,1,7.58,5.58L243,167.81Z" transform="translate(0 -23.7)"/><path class="b" d="M132.6,130.52l7.68-2.81L139,137l-6.45-6.46Z" transform="translate(0 -23.7)"/><path class="a" d="M156.78,143.47l2.86-.85-2.86.85Z" transform="translate(0 -23.7)"/><path class="b" d="M320.93,245.77l.45,1.6-1.11-.72.66-.88Z" transform="translate(0 -23.7)"/><path class="b" d="M175.26,128.51l.35,1.41-1-.8.68-.61Z" transform="translate(0 -23.7)"/><path class="b" d="M239.35,128.73l-.38.65.34-.69,0,0Z" transform="translate(0 -23.7)"/><path class="a" d="M157.32,128.68c1.62,6,1,8.59-3,11.45-1.44-2.31-4.54-4-2.13-7.47.58-.15,1.64-.27,1.66-.47.14-1.55.08-3.12.08-5.11l3.36,1.61Z" transform="translate(0 -23.7)"/><path class="a" d="M255.53,132.48c3.27,1.82,4.87,9.12,2.36,11.78-.53.56-3,.4-3.29-.12a38.26,38.26,0,0,1-2.19-6.25l3.11,2.3v-7.71Z" transform="translate(0 -23.7)"/><path class="b" d="M200.54,246.51c-.64-3.59-1.31-7.17-1.91-10.76-.42-2.53.67-4.21,3.28-3.75,5.27.92,10.48,2.14,15.68,3.41a3.28,3.28,0,0,1,1.84,2c3.05,9.49,3.49,23-5,31.87L212,266l-4.73,5.84-4.51-5.32-3.25,5.12-5.35-4.06-2.51,3.89c-8.24-6.44-12.38-14.53-14.15-24-.52-2.78-.58-5.65-.87-8.47-.35-3.41,1.4-5.78,4.45-6.31a45.68,45.68,0,0,1,10.84-.23c.92.06,2,1.63,2.54,2.72,2,3.82,3.78,7.74,5.64,11.62l.4,1.25L201,248l-.47-1.47Z" transform="translate(0 -23.7)"/><path class="a" d="M200.54,246.51,201,248l-.47.15-.4-1.25.4-.36Z" transform="translate(0 -23.7)"/></svg>