<svg id="Layer_1" data-name="Layer 1" xmlns="http://www.w3.org/2000/svg" viewBox="0 0 235.3 251.7"><title>Winged Star_1c2</title><path d="M97.7,40.4l-6.6-4a42.9,42.9,0,0,0,19.4-16.8q1.4-2.1,2.5-4.4t2.2-4.7q1-2.4,1.8-5l-.5-.6-9,3.9-.5-.4L108.3,5c1.8-4.3,3.6-8.5,5.3-12.8l1.6-4.3a20.2,20.2,0,0,0,.6-2.2l.3-1.3a93.7,93.7,0,0,0,1.3-11.2c.1-1.7.2-3.3.2-4.7s0-1.9,0-2.6,0-.8-.1-1.1L115-32.4l-2.9,3.1c-.1-2.1-.1-4.1-.1-6.1s0-2.7,0-4,0-2.7-.1-4A88.2,88.2,0,0,0,110.1-61l-.6-.3-1.2,1.6-2.2,3-1,1.3-4.1-17.1-1.4-5.8A20.5,20.5,0,0,0,98.5-81l-1,2.1L94.6-73,93-77.3l-1.6-4.3c-1.1-2.9-2.2-5.7-3.4-8.5s-2-4.1-3.1-6.1a49.6,49.6,0,0,0-6.7-9.2h-.6L77-99.7v2.2h0l-2.1-1.6-.9-.7-.8-.7-3.1-3-3.1-3-6.2-5.9a53.2,53.2,0,0,0-7-5.3l-3-1.8L47.6-121l-1.6-.8a91.4,91.4,0,0,0-9.9-3.8l-1-.4-1-.5H32.5c1.4,1.8,2.7,3.7,4.2,5.5l3.6,4.7A93.6,93.6,0,0,1,56.7-79.2a46.7,46.7,0,0,1,.8,9.9c-.1,3.3-.4,6.7-.7,10-1.1,10.9-6.4,19.7-13.5,27.6-5.2,5.8-10.7,11.4-15.9,17.2l-1.8,2a63.2,63.2,0,0,0-4.8,6.5A17.4,17.4,0,0,0,18.2.5,10.8,10.8,0,0,0,18.1,2q0,.4,0,.8a9.6,9.6,0,0,0,.2,1.5,9.7,9.7,0,0,0,.5,1.5l.4,1,.5,1L21,9.7c.9,1.2,1.9,2.4,2.9,3.5,3.7,4.3,3.6,9,1.3,12.6a19.7,19.7,0,0,1-3.6,4.1l-2.5,2.2a12.3,12.3,0,0,1-2.3,1.5l-.9.6L8.1,14.9.4-4.4H-.3L-15.5,34.5c-5.4-3.4-10.5-6.7-11.2-13.7q0-.4,0-.8a8,8,0,0,1,.1-1.6l.2-.7a7.6,7.6,0,0,1,.6-1.4L-25,15a40.6,40.6,0,0,1,2.8-3.4l.9-1,.8-1a13,13,0,0,0,1.6-3.1A13.5,13.5,0,0,0-20.5-5.4a71,71,0,0,0-5-6.9l-1.8-2.2c-3.1-3.6-6.4-7-9.6-10.5s-6.4-7-9.5-10.6a46.5,46.5,0,0,1-7.1-11.3,46.7,46.7,0,0,1-3.2-10.4,56,56,0,0,1-.9-11.3,71.6,71.6,0,0,1,3.1-19.5q.7-2.3,1.6-4.6l.9-2.3a86.4,86.4,0,0,1,5.6-11l3.1-5,3.1-5,6.5-10.2-5.1,1.8a88.2,88.2,0,0,0-18.3,9.7A93.4,93.4,0,0,0-76-97l-.5-.2-.4-2.9v-1l-.3-2.1-.3-2.3-1,1a12.8,12.8,0,0,0-2.4,2.6c-2.2,3.8-4.3,7.5-6.4,11.4l-1.9,3.9c-1,2.2-1.9,4.4-2.8,6.7l-2.5,6.8-3.7-7.3H-99a79.3,79.3,0,0,0-2.8,9.4,106.1,106.1,0,0,0-2.4,16.5l-5.3-6.3h-.7c-.3,1.5-.5,2.9-.8,4.4s-.6,4.6-.8,6.9-.2,2.9-.3,4.3-.1,5.3-.1,8,.2,5.4.4,8.2l-2.1-2.4-1.9-2c-.4-.4-1.3-.3-2-.5v9.3l1.1,6c.4,2.1.8,4.2,1.4,6.3l.9,3.1a94.8,94.8,0,0,0,6.4,14.8l.7,1.4.8,1.7-10.1-4-.5.6c4.7,13.4,12,24.6,26.1,30.7-5.9,4-11.9,6.9-17.1,12l3.6.9a114.5,114.5,0,0,0,17.9,2.5l7.2.4c-5,5.5-9.9,10.8-13.3,17.1l.2.7,5.7-.6,17.5-2-6.3,15.5,2.8-.3a68.5,68.5,0,0,0,10.8-2.3c2.6-.8,5.3-1.7,8-2.8l-3.4,17.2c7.5-2.1,13.8-5.3,19.9-8.7l.5-.2h0v.5l-6.6,19.3-6.7,19.6a23.9,23.9,0,0,0,2.4-1.3l23.1-15.6L-1.5,92.7h0l.5-.3h.2l.3-.2H1.7l.5.3,22.6,15.8,22.6,15.7.9.6,1.3.4-3.2-9.8L36.5,85.7l3.3,1.5,13.5,6.7a13.9,13.9,0,0,0,3.3.6,39.6,39.6,0,0,0-.7-6.4c-.4-2.1-.8-4.1-1.3-6.1s-.6-2.7-.8-4v-.5l.4.2,7.7,2.2,7.8,2.2,1.1.2,2.4.3,1.3.2a20.7,20.7,0,0,0-.9-4.1l-.7-2-.4-1-.8-1.9A59.9,59.9,0,0,1,69,67.3l8.8,1,5.9.7,3,.3,6.1.7a52.7,52.7,0,0,0-5.9-9.3c-2.2-2.8-4.6-5.5-6.9-8.3l7-.7,5.2-.5,5.2-.7,3.5-.6a63.1,63.1,0,0,0,7-1.7,37.5,37.5,0,0,0-5.9-5.1ZM-61,43.3a30.7,30.7,0,0,1-9.7,3.1c-6.5.7-13.1.8-19.7.9-1.6,0-3.2-.5-5.4-1,4.1-4.8,8.8-7.5,14-9.8l-12.8-7.8a33,33,0,0,1-12.6-12.7c-.4-.7-.6-1.5-1.1-2.6,5.5,1.7,10,5.2,15.8,5.2-5.2-5.6-8.9-11.9-12.3-18.4a60.4,60.4,0,0,1-6.5-20.3L-97-3.2l.4-.3a64.9,64.9,0,0,1-8.8-43.1c1.8,8.4,4.6,16.2,10.8,22.5l.3-.3c-1.8-4.7-3.9-9.3-5.2-14.1-2.6-9.3-1.4-18.5,2.1-27.6,1.1,8.8,2.5,17.5,8.9,24.4C-91.2-52.9-94-64-88.8-75.2c2.1-4.4,4.3-8.7,6.4-13l.5.3c-.4,3.2-.9,6.3-1.3,9.5a64.7,64.7,0,0,0,7,36.4A93.4,93.4,0,0,0-66-26.9,14.3,14.3,0,0,1-62.9-17,80.4,80.4,0,0,1-65-2.7c-2.9,12-1,23.5,3.8,34.6l2.2,5C-57.8,39.8-58.2,41.9-61,43.3ZM17,66.8,27.2,98.4.4,78.9-26.5,98.4l10.3-31.6L-43.1,47.3H-9.9L.4,15.7,10.6,47.3H43.8ZM91.6,47.7c-9.5.7-18.9.3-28.1-2.6a10.8,10.8,0,0,1-2.8-1.4c-2.6-1.8-3.1-3.3-1.7-6.3,3.1-6.8,5.8-13.8,6.9-21.3S66,2.4,64.4-4.4s-2.5-12-.6-18.1a9.4,9.4,0,0,1,1.9-3.4A71.2,71.2,0,0,0,82-58.8a63.9,63.9,0,0,0-.4-28.8C84.3-85.7,91-71,91.5-65.4c.7,8.3-.8,16.4-3.1,24.5,6.5-7,8.2-15.7,9.1-24.8,5.9,14.4,3.9,28.2-3.1,41.7,6.9-5.8,9.2-13.9,11.1-22.2,2.2,15.4-1,29.6-8.4,43.1,5.9-4.5,9.5-10.9,13.8-16.9.9,6.2-5.6,24.4-18.3,39.1,5.8,0,10.3-3.5,15.8-5.3-.5,1.1-.7,1.9-1.1,2.6A32.1,32.1,0,0,1,95,28.9L81.9,37c5.1,2.4,9.9,4.9,13.8,9.7A26.8,26.8,0,0,1,91.6,47.7Z" transform="translate(117.7 126.4)" style="fill:#050000"/></svg>