<svg id="Layer_1" data-name="Layer 1" xmlns="http://www.w3.org/2000/svg" viewBox="0 0 245.4 270.6"><title>Winged Star_2c</title><path d="M-117.7-24.4v-9.3c.7.1,1.6.1,2,.5s2.5,2.7,4,4.4a113.2,113.2,0,0,1,1.5-31.9h.7l5.3,6.3A93.7,93.7,0,0,1-99-80.4h.7l3.7,7.3c1.8-4.6,3.3-9.2,5.3-13.5s5.4-10.3,8.3-15.3c.7-1.3,2-2.2,3.3-3.6l1.1,8.4.5.2a89.6,89.6,0,0,1,42.3-29.2c-4.4,6.9-8.7,13.5-12.7,20.2-6.8,11.5-10.9,23.8-11.2,37.4S-54.4-45-46.4-35.5c6.1,7.2,12.8,14,19.1,21.1a72.2,72.2,0,0,1,6.8,9.1c3.4,5.3,3.5,11.8-1.6,17A40.5,40.5,0,0,0-25,15a7.8,7.8,0,0,0-1.7,5.9c.7,7,5.8,10.3,11.2,13.7L-.3-4.2H.4L15.8,34.3a22.4,22.4,0,0,0,3.3-2.1c2.1-2,4.6-3.9,6.1-6.3s2.4-8.3-1.3-12.6c-2-2.3-4-4.6-5.1-7.4s-.1-8.2,2.2-11.8a68,68,0,0,1,6.6-8.5c5.2-5.8,10.6-11.4,15.9-17.2,7.1-7.9,12.4-16.7,13.5-27.6.7-6.7,1.2-13.3-.1-19.9a94.6,94.6,0,0,0-20-41.8c-1.5-1.8-2.8-3.6-4.2-5.5h1.7l2,.9c9,2.9,17.5,6.9,24.6,13.3,4.2,3.8,8.2,7.9,12.3,11.8,1,.9,2.1,1.7,3.7,3l.8-7.8h.6C86.7-96.3,90.3-84.6,94.6-73l3.9-8a20.5,20.5,0,0,1,1.2,2.7l5.5,22.9,4.3-5.9.6.3c2.3,10.2,1.7,20.6,2,31.6l5.5-5.9c.4,5.5-.6,18.3-2.3,23.2S110.6-.7,108.3,5L107,8.4l.5.4,9-3.9.5.6c-4.5,13.6-12,24.8-26,30.9,5.9,3.7,11.9,6.6,16.8,11.9-9.3,2.9-18.5,3.1-27.9,4.3,4.7,5.5,9.5,10.7,12.8,17.6L69,67.3c1.6,5.2,4.9,9.8,5.5,15.6a43.2,43.2,0,0,1-4.8-.7L54.1,77.7l-.4-.2v.5c1,5.4,2.7,10.7,2.8,16.5a13.9,13.9,0,0,1-3.3-.6L39.8,87.1l-3.3-1.5,13.2,39.5a4.7,4.7,0,0,1-2.2-.9L2.2,92.7c-1.5-1-2.4-.9-3.8,0L-47.7,124a23.9,23.9,0,0,1-2.4,1.3l13.3-38.9v-.5l-.5.2c-6.2,3.3-12.4,6.5-19.9,8.7l3.4-17.2a75.4,75.4,0,0,1-21.5,5.4l6.3-15.5L-92.2,70l-.2-.7c3.4-6.3,8.2-11.7,13.3-17.1-9.8-.4-19.1-1.1-28.7-3.8,5.2-5.1,11.2-8,17.1-12C-105,30.2-112.3,19-117,5.6l.5-.6,10.1,4-1.5-3.2a81.9,81.9,0,0,1-8.7-24.2Z" transform="translate(122.7 135.3)" style="fill:#070606"/><path d="M34.2-126.4l2,.9c9,2.9,17.5,6.9,24.6,13.3,4.2,3.8,8.2,7.9,12.3,11.8,1,.9,2.1,1.7,3.7,3l.8-7.8h.6C86.7-96.3,90.3-84.6,94.6-73l3.9-8a20.5,20.5,0,0,1,1.2,2.7l5.5,22.9,4.3-5.9.6.3c2.3,10.2,1.7,20.6,2,31.6l5.5-5.9c.4,5.5-.6,18.3-2.3,23.2S110.6-.7,108.3,5L107,8.4l.5.4,9-3.9.5.6c-4.5,13.6-12,24.8-26,30.9,5.9,3.7,11.9,6.6,16.8,11.9-9.3,2.9-18.5,3.1-27.9,4.3,4.7,5.5,9.5,10.7,12.8,17.6L69,67.3c1.6,5.2,4.9,9.8,5.5,15.6a43.2,43.2,0,0,1-4.8-.7L54.1,77.7l-.4-.2v.5c1,5.4,2.7,10.7,2.8,16.5a13.9,13.9,0,0,1-3.3-.6L39.8,87.1l-3.3-1.5,13.2,39.5a4.7,4.7,0,0,1-2.2-.9L2.2,92.7A3.3,3.3,0,0,0,.4,92a3.5,3.5,0,0,0-1.9.8L-47.7,124a23.9,23.9,0,0,1-2.4,1.3l13.3-38.9v-.5l-.5.2c-6.2,3.3-12.4,6.5-19.9,8.7l3.4-17.2a75.4,75.4,0,0,1-21.5,5.4l6.3-15.5L-92.2,70l-.2-.7c3.4-6.3,8.2-11.7,13.3-17.1-9.8-.4-19.1-1.1-28.7-3.8,5.2-5.1,11.2-8,17.1-12C-105,30.2-112.3,19-117,5.6l.5-.6,10.1,4-1.5-3.2a81.9,81.9,0,0,1-8.7-24.2l-1.1-6v-9.3c.7.1,1.6.1,2,.5s2.5,2.7,4,4.4a113.2,113.2,0,0,1,1.5-31.9h.7l5.3,6.3A93.7,93.7,0,0,1-99-80.4h.7l3.7,7.3c1.8-4.6,3.3-9.2,5.3-13.5s5.4-10.3,8.3-15.3c.7-1.3,2-2.2,3.3-3.6l1.1,8.4.5.2a89.6,89.6,0,0,1,42.3-29.2c-4.4,6.9-8.7,13.5-12.7,20.2-6.8,11.5-10.9,23.8-11.2,37.4S-54.4-45-46.4-35.5c6.1,7.2,12.8,14,19.1,21.1a72.2,72.2,0,0,1,6.8,9.1c3.4,5.3,3.5,11.8-1.6,17A40.5,40.5,0,0,0-25,15a7.8,7.8,0,0,0-1.7,5.9c.7,7,5.8,10.3,11.2,13.7L-.3-4.2H.4L15.8,34.3a22.4,22.4,0,0,0,3.3-2.1c2.1-2,4.6-3.9,6.1-6.3s2.4-8.3-1.3-12.6c-2-2.3-4-4.6-5.1-7.4s-.1-8.2,2.2-11.8a68,68,0,0,1,6.6-8.5c5.2-5.8,10.6-11.4,15.9-17.2,7.1-7.9,12.4-16.7,13.5-27.6.7-6.7,1.2-13.3-.1-19.9a94.6,94.6,0,0,0-20-41.8c-1.5-1.8-2.8-3.6-4.2-5.5h1.7m-56.3-8.9L-35.3-131a94.2,94.2,0,0,0-37.7,23.1l-1.2-8.8-7.2,7.7-1.1,1.1a15.3,15.3,0,0,0-2.9,3.5l-.6,1.1c-2.7,4.7-5.4,9.5-7.8,14.5l-1.4,3.2v-.2l-3.5.4h-.7l-3.1.3-1.1,2.9a88.4,88.4,0,0,0-4.1,15.9l-2.7.6h-.7l-3.2.7-.6,3.2a110.6,110.6,0,0,0-2.1,23l-5.6-1.1v16.3l.3,1.9.7,4.1A77.1,77.1,0,0,0-116.3-.3L-118-.9l-2.3,2.8h-.1l-.4.5-1.8,2.2.9,2.7c4.7,13.5,11.5,23.1,21,29.4a61.5,61.5,0,0,0-10.7,8.1l-6.2,6.1,8.4,2.3a107,107,0,0,0,19.6,3.3,64.7,64.7,0,0,0-7.1,10.4l-1,1.9.7,2,.2.7,1.3,3.8,4-.4,13.8-1.5h1.2L-79.9,81-83,88.6l8.1-.7a71.1,71.1,0,0,0,14.5-2.8l-1.3,6.5-.4,2.1-1.6,8,7.9-2.2a79,79,0,0,0,10.5-3.8l-9.3,27.2-.3.8-4,11.6,11-5.6.8-.4a15.6,15.6,0,0,0,2.2-1.2l1.5-1L.4,97.5l34.8,24.3,9.5,6.6a9.6,9.6,0,0,0,4.2,1.8l8.1,1.3-2.6-7.8-5.6-16.8L45,95.3l6.2,3a10.9,10.9,0,0,0,3.7.9h.9l6,1.1V94.4a49.9,49.9,0,0,0-1.2-9.7l7.9,2.2a25.4,25.4,0,0,0,3.8.7l1.6.2,6.3.9-.6-6.4a30.7,30.7,0,0,0-2.6-9.1l1.3.2,14,1.6,9,1.1-4-8.2a60.1,60.1,0,0,0-7.4-11.4A95,95,0,0,0,109.3,53l7.6-2.4-5.4-5.8A49.1,49.1,0,0,0,101,36.6c9.5-6.5,16.3-16.2,20.7-29.5l.9-2.7-1.8-2.1-.4-.5h-.1l-2.4-2.8L116-.4c1.4-3.3,2.8-6.6,4-10,2-5.7,3-19.3,2.6-25.2L121.8-47l-4.8,5.2a97.3,97.3,0,0,0-2-20.2l-.6-2.5-2.4-1h-.6l-3.6-1.6-.3.4-3-12.5a12,12,0,0,0-1-2.5l-.5-1-4.4-9.8-3.5,7.1c-3.2-8.2-7-16.2-13.4-23.1l-2-2.2-2.9.7h-.6l-3.4.9-.2,1.5-.8-.8c-2.6-2.5-5.2-5.1-7.9-7.5-6.8-6.1-15.2-10.7-26.4-14.3l-.8-.3-.7-.3-1-.4H22.4l6.1,8,1.3,1.7,3,3.9a90.1,90.1,0,0,1,19,39.6c1.2,5.8.7,11.8,0,18.5-.9,8.6-4.8,16.5-12.2,24.8l-7.3,7.9-8.6,9.4a72.4,72.4,0,0,0-7,9.1C13-2.8,12.1,2.7,14.1,7.7c1.4,3.5,3.8,6.3,6,8.8s1.8,5.2.8,6.7a16,16,0,0,1-2.9,3.1l-8-20L5.1-6.2,3.6-10l-4,.7h-.7l-2.8.5L-5-6.1-9.4,5.3l-8.4,21.5c-2.3-1.9-3.6-3.7-3.8-6.5a2.8,2.8,0,0,1,.7-2.2l.5-.6a28.1,28.1,0,0,1,2-2.4C-12.2,8.7-11.3-.2-16.3-8a77.1,77.1,0,0,0-7.3-9.7l-8.1-8.9c-3.6-3.9-7.4-8-10.9-12.1-7-8.2-10.2-18-10-29.7s3.7-23.5,10.5-35c2.7-4.6,5.5-9,8.5-13.7l4.1-6.5,7.4-11.7Z" transform="translate(122.7 135.3)" style="fill:#fff"/><path d="M-94.7-24.1c-6.2-6.2-9-14.1-10.8-22.5A64.9,64.9,0,0,0-96.7-3.5l-.4.3-14.3-16.7A60.4,60.4,0,0,0-104.8.4c3.4,6.5,7.2,12.8,12.3,18.4-5.9-.1-10.3-3.5-15.8-5.2.5,1.1.7,1.9,1.1,2.6A33,33,0,0,0-94.6,28.8l12.8,7.8c-5.2,2.3-9.9,5-14,9.8,2.2.4,3.8,1,5.4,1,6.6-.2,13.2-.2,19.7-.9A30.7,30.7,0,0,0-61,43.3c2.8-1.4,3.2-3.5,2-6.3l-2.2-5C-66,20.8-67.8,9.4-65-2.7a80.4,80.4,0,0,0,2-14.3A14.3,14.3,0,0,0-66-26.9,93.4,93.4,0,0,1-76.1-42.1a64.7,64.7,0,0,1-7-36.4c.3-3.2.8-6.3,1.3-9.5l-.5-.3c-2.1,4.3-4.3,8.7-6.4,13-5.3,11.2-2.4,22.3.1,33.5-6.4-6.9-7.8-15.5-8.9-24.4-3.5,9-4.6,18.2-2.1,27.6,1.3,4.8,3.5,9.4,5.2,14.1Z" transform="translate(122.7 135.3)" style="fill:#070606"/><path d="M94.3-24c7-13.5,9-27.3,3.1-41.7-.9,9-2.5,17.8-9.1,24.8,2.3-8,3.8-16.1,3.1-24.5C91-71,84.3-85.7,81.6-87.6A63.9,63.9,0,0,1,82-58.8,71.2,71.2,0,0,1,65.7-25.9a9.4,9.4,0,0,0-1.9,3.4c-1.8,6.1-.8,12.1.6,18.1s2.5,13.6,1.5,20.6S62.1,30.6,59,37.5c-1.3,3-.9,4.4,1.7,6.3a10.8,10.8,0,0,0,2.8,1.4c9.2,2.9,18.6,3.3,28.1,2.6a26.8,26.8,0,0,0,4-1c-3.9-4.8-8.7-7.3-13.8-9.7L95,28.9a32.1,32.1,0,0,0,12.2-12.5c.4-.7.6-1.4,1.1-2.6-5.5,1.7-10,5.3-15.8,5.3,12.7-14.6,19.2-32.8,18.3-39.1C106.5-14,103-7.6,97-3.1c7.4-13.5,10.7-27.7,8.4-43.1C103.5-37.9,101.2-29.8,94.3-24Z" transform="translate(122.7 135.3)" style="fill:#fff"/><path d="M-96.7-3.5a64.9,64.9,0,0,1-8.8-43.1c1.8,8.4,4.6,16.2,10.8,22.5l.2.9.6-.6-.5-.7c-1.8-4.7-3.9-9.3-5.2-14.1-2.6-9.3-1.4-18.5,2.1-27.6,1.1,8.8,2.5,17.5,8.9,24.4C-91.2-52.9-94-64-88.8-75.2c2.1-4.4,4.3-8.7,6.4-13l.5.3c-.4,3.2-.9,6.3-1.3,9.5a64.7,64.7,0,0,0,7,36.4A93.4,93.4,0,0,0-66-26.9,14.3,14.3,0,0,1-62.9-17,80.4,80.4,0,0,1-65-2.7c-2.9,12-1,23.5,3.8,34.6l2.2,5c1.2,2.9.9,5-2,6.3a30.7,30.7,0,0,1-9.7,3.1c-6.5.7-13.1.8-19.7.9-1.6,0-3.2-.5-5.4-1,4.1-4.8,8.8-7.5,14-9.8l-12.8-7.8a33,33,0,0,1-12.6-12.7c-.4-.7-.6-1.5-1.1-2.6,5.5,1.7,10,5.2,15.8,5.2-5.2-5.6-8.9-11.9-12.3-18.4a60.4,60.4,0,0,1-6.5-20.3L-97-3.2l.3.3Z" transform="translate(122.7 135.3)" style="fill:#fcfcfb"/><polygon points="123 151 133.3 182.6 166.5 182.6 139.6 202.1 149.9 233.7 123 214.2 96.2 233.7 106.5 202.1 79.6 182.6 112.8 182.6 123 151 123 151" style="fill:#fff"/></svg>