<svg id="Layer_1" data-name="Layer 1" xmlns="http://www.w3.org/2000/svg" viewBox="0 0 503.9 637.3"><title>Wolf912_2c</title><path d="M0,318.7c-20.4-43.3-31-53.2-66.8-87.7-8.6,15.8-11.6,18.4-21.6,28.5-3.2-21.2-8.5-36.3-19.2-55.8-1.8,8.1-4,13.6-7.6,19.3-11-27.4-19.2-41.1-38.7-64.7l.3,1.3,4.3,16.7c-16-9.1-27.2-13.9-40.2-31.1l1.2,8.5c-19.2-13.5-37.3-34.2-43.4-70.9l-4.9,7.6c-6-20.1-9.9-33.5-8.2-57.3l-6,8.3c-2.6-24.5-3.2-46.2,15.3-83.5l-15.4,7.1c7.8-17.4,9.1-22.2,21.4-37.9l-15.3,4.7c17.9-35.4,32.2-52,71.5-80.9-5.9-18.3-9.6-37.5-12.1-56.5v-1.8a197.9,197.9,0,0,1,16.2-58.4c7.4-16.8,16.7-32.6,25.9-48.5l2.5-4.3,5,.6c9.6,1.1,17.8,5.3,23.1,13.5l.2.3.2.3,19.8,36.8c8.7,5.2,17.6,10.6,25.7,16.7A168.2,168.2,0,0,1-45.3-231a58.9,58.9,0,0,1,13.1,3.5l-2.1-5.9,14.5,4.3c8.3,2.5,13.8,5.1,19.8,10,6-4.9,11.5-7.5,19.8-10l14.5-4.3-2.1,5.9A58.9,58.9,0,0,1,45.3-231a168.2,168.2,0,0,1,21.5-19.6c8.1-6.1,17-11.4,25.7-16.7L112.3-304l.2-.3.2-.3c5.3-8.2,13.5-12.4,23.1-13.5l5-.6,2.5,4.3c9.2,15.9,18.5,31.7,25.9,48.5a197.9,197.9,0,0,1,16.2,58.4v1.8c-2.5,19-6.2,38.2-12.1,56.5,39.3,28.9,53.6,45.5,71.5,80.9L229.3-73c12.3,15.7,13.6,20.5,21.4,37.9l-15.4-7.1c18.5,37.3,17.9,59,15.3,83.5l-6-8.3c1.8,23.8-2.1,37.2-8.2,57.3l-4.9-7.6c-6.1,36.7-24.2,57.4-43.4,70.9l1.2-8.5c-13,17.1-24.2,22-40.2,31.1l4.3-16.7.3-1.3c-19.5,23.6-27.7,37.3-38.7,64.7-3.6-5.7-5.7-11.2-7.6-19.3-10.6,19.5-16,34.6-19.2,55.8-9.9-10.1-13-12.7-21.6-28.5C31,265.4,20.4,275.4,0,318.7" transform="translate(252 318.7)" style="fill:#fff;fill-rule:evenodd"/><path d="M0-208.9c-4.9-4.4-8.6-8.9-22-12.9a30.8,30.8,0,0,1,1.5,10,52.3,52.3,0,0,0-28.5-12c-17.2-18.6-27.2-24.8-49.2-38L-119-300.4c-3.8-5.8-9.7-9.2-17.6-10.1-18,31-36.3,61.7-41.1,103.9,3.2,24.4,7.8,44.1,13.5,60.4-26.8,19.6-51.9,40.1-66.8,65.9,6.6-1.8,12.7-2.8,18.1-2.1l-24.2,33.1,22.1-11c-14.2,24-30.4,46.8-29,79.7A83.1,83.1,0,0,1-232.8,6.5c-5,22.9-6.7,43.7-1.1,60.1a105.4,105.4,0,0,1,7.5-17.3c-.2,39.7,9.2,67.7,27.7,84.6a103.5,103.5,0,0,1-.3-28.7c7.5,24,17.6,45.3,38.2,56.2a199.9,199.9,0,0,1-5.5-28c23.6,23.2,40.1,47.5,50.3,72.8a51.1,51.1,0,0,0,.9-27.3c17.1,20.9,26.1,43.8,29.7,68,8-6.3,12.1-17.6,14.4-31.3,8.5,13.6,51,33.9,71,82.9,20-49,62.5-69.3,71-82.9,2.3,13.7,6.4,24.9,14.4,31.3,3.7-24.2,12.6-47.1,29.7-68a51.1,51.1,0,0,0,.9,27.3c10.1-25.3,26.7-49.6,50.3-72.8a199.8,199.8,0,0,1-5.5,28c20.5-10.9,30.7-32.2,38.2-56.2a103.5,103.5,0,0,1-.3,28.7c18.6-16.8,28-44.9,27.7-84.6a105.4,105.4,0,0,1,7.5,17.3c5.6-16.4,4-37.2-1.1-60.1A83.1,83.1,0,0,1,244,19.2c1.4-32.9-14.8-55.7-29-79.7l22.1,11L212.9-82.5c5.3-.7,11.5.4,18.1,2.1-14.9-25.8-40-46.3-66.8-65.9,5.7-16.3,10.3-35.9,13.5-60.4-4.7-42.2-23-72.9-41.1-103.9-7.9.9-13.8,4.3-17.6,10.1L98.1-261.8c-21.9,13.2-32,19.4-49.2,38a52.3,52.3,0,0,0-28.5,12,30.8,30.8,0,0,1,1.5-10c-13.4,4-17.1,8.5-22,12.9" transform="translate(252 318.7)" style="fill:#050000;fill-rule:evenodd"/><path d="M-97.4-70.8c.9-14,5.8-26,17.3-34.6q14.5,2.1,32,12.9c11.3,30.9,12.7,48.3,15.5,67.7,5.7,1.6,9.1.1,12-2-1.8,8-5.8,10.6-10.9,12.9-5.1-1-7.3-3.6-10.4-6.7C-68.6-11-87.4-42.5-98.6-61.8l13,2.1c5-4.7,11.8-7.8,23.7-6a15.1,15.1,0,0,0-.8-6c-6.4-5.2-12.8-9.3-19.6-11.2a32.6,32.6,0,0,0-15.2,12m-48.8-185.1a177.7,177.7,0,0,0-2.9,50.9c3,17.5,8.5,30.7,14.4,43.2-10.5-11.2-18.1-25.8-22.5-44A147.7,147.7,0,0,1-146.1-255.9Zm20.4,191.9c11.1,15.6,21.9,25.1,32.6,31.7a53,53,0,0,1-14.4,3.1A195.5,195.5,0,0,0-86.3-12.9,63.9,63.9,0,0,1-98.6-8,86.4,86.4,0,0,0-76.4-3.2,51.5,51.5,0,0,1-88.2,9.6c8.4-.6,16.5-3.7,24.5-7.5-14,10.1-28.1,19.8-43.8,12.6,5.4-3.4,10.5-7.1,14.2-12.1C-106,.6-117.5-2.9-125-11a110.9,110.9,0,0,0,17.6-4.6c-7.6-5.5-15-11.5-21-22.7a44.2,44.2,0,0,0,16.4-.2C-118.4-42.8-122.9-51.5-125.7-64.1ZM-12.2-84.7S-9-69.9-10-55.2a59.4,59.4,0,0,1-7,24.5,40.9,40.9,0,0,0,.3-10.4c-.6-5.2-1.8-10.6-1.8-10.6S-12.3-61.5-12.2-84.7ZM97.4-70.8c-.9-14-5.8-26-17.3-34.6q-14.5,2.1-32,12.9C36.7-61.7,35.4-44.2,32.6-24.8c-5.7,1.6-9.1.1-12-2,1.8,8,5.8,10.6,10.9,12.9,5.1-1,7.3-3.6,10.4-6.7C68.6-11,87.4-42.5,98.6-61.8l-13,2.1c-5-4.7-11.8-7.8-23.7-6a15.1,15.1,0,0,1,.8-6c6.4-5.2,12.8-9.3,19.6-11.2A32.6,32.6,0,0,1,97.4-70.8Zm48.8-185.1a177.7,177.7,0,0,1,2.9,50.9c-3,17.5-8.5,30.7-14.4,43.2,10.5-11.2,18.1-25.8,22.5-44A147.7,147.7,0,0,0,146.1-255.9ZM125.7-64.1c-11.1,15.6-21.9,25.1-32.6,31.7a53,53,0,0,0,14.4,3.1A195.5,195.5,0,0,1,86.3-12.9,63.9,63.9,0,0,0,98.6-8,86.4,86.4,0,0,1,76.4-3.2,51.5,51.5,0,0,0,88.2,9.6C79.8,9.1,71.7,6,63.7,2.1c14,10.1,28.1,19.8,43.8,12.6C102.1,11.3,97,7.6,93.2,2.6,106,.6,117.5-2.9,125-11a110.9,110.9,0,0,1-17.6-4.6c7.6-5.5,15-11.5,21-22.7a44.2,44.2,0,0,1-16.4-.2C118.4-42.8,122.9-51.5,125.7-64.1ZM12.2-84.7S9-69.9,10-55.2a59.4,59.4,0,0,0,7,24.5,40.9,40.9,0,0,1-.3-10.4c.6-5.2,1.8-10.6,1.8-10.6S12.3-61.5,12.2-84.7ZM0,72.8s-24,5.2-36.5,28A151.6,151.6,0,0,0-33.8,119a46,46,0,0,0,6.4,14.1A47.8,47.8,0,0,0-16,139.7a135.3,135.3,0,0,0,16,5.4,135.3,135.3,0,0,0,16-5.4,47.8,47.8,0,0,0,11.3-6.6A46,46,0,0,0,33.8,119a151.8,151.8,0,0,0,2.8-18.2C24,78,0,72.8,0,72.8Zm-32.7,91.7,20.5-2a37.3,37.3,0,0,0,7,2.8,18.2,18.2,0,0,0,5.1.6,18.2,18.2,0,0,0,5.1-.6,37.3,37.3,0,0,0,7-2.8l20.5,2c-2,7.4-10.4,13.3-10.4,13.3a47.7,47.7,0,0,1-8.6,2.6A62,62,0,0,1,0,181.5a62,62,0,0,1-13.7-1.1,47.7,47.7,0,0,1-8.6-2.6S-30.7,171.8-32.7,164.5ZM0,153.3l-15.1,5.2-30.6-4.9c-9.6-14.7-13.5-29.4-16.5-44.1A243.6,243.6,0,0,0-52.8,2.2C-56.4,42.4-77,53.5-79.4,83.1A89.2,89.2,0,0,1-67.2,66.9c-8.7,22.6-16.5,45.6-15.3,73.5a69,69,0,0,1,8.9-16.2c-1.5,19.9.5,36.9,5.5,51.5-17.7-20.5-41.9-49.1-38-124.1-6.3,2.9-11.3,6.3-14.4,10.4a103.1,103.1,0,0,1-.6-35.5c-9.6,6.4-18.1,14.3-23.3,22.7-3.8-13.6-3.5-31.1,1.2-41.1-11.6,3.6-19.6,9.2-26.7,15.3a85.2,85.2,0,0,1,11.6-38.9,71,71,0,0,0-22.4-.9c5.6-8.5,11.6-16.7,21.8-22.7-9.6-1.6-17-1.3-23.3,0,8.2-6.7,15.7-13.8,28.2-18.4-5.7-2.9-9.5-4.4-16.2-4.9a83.8,83.8,0,0,1,24.2-8.3,48.8,48.8,0,0,0-13.5-9.2c7.4-5.5,17.4-8.9,27.3-12.3-20,2-38.3,6.4-52.1,17.5a16.9,16.9,0,0,1,8.3,3.4c-13.4,5.7-23.9,14.7-32.5,25.7A72.9,72.9,0,0,1-190.3-49a142,142,0,0,0-15.9,30,82.4,82.4,0,0,1,12.6-4c-4,12.3-6.9,24.7-5.8,37.1a106.3,106.3,0,0,1,16.2-9.5c-2.9,18.3-4.3,36.6,4.6,54.9a121.6,121.6,0,0,1,14.1-19.9c.8,17.9,5,35.8,15.6,53.6a79.2,79.2,0,0,1,14.7-28.5c2.4,16.8,5,33.5,12,49A77.6,77.6,0,0,1-117.4,99c0,17.6,2.7,33,7.7,46.6-11.5-11.9-27.1-37.5-27.9-52.7-3.1,10.1-4.4,31.3-2.5,31.3a125.6,125.6,0,0,1-34.3-56.1,246.1,246.1,0,0,0-6.7,33.7c-7.6-12.1-13.8-27.6-16.5-51.2-.9,0-10.3,21.9-11.3,32.2-4.7-8.3-6.7-46.9-2.1-58.2a65.4,65.4,0,0,0-14.7,11c1.1-14.8,3.1-29.6,7.7-44.4a75,75,0,0,0-15.3,4.9c6.4-23.8,15.7-46.5,35.5-65a44.6,44.6,0,0,0-15.9,1.2A211.6,211.6,0,0,1-179.3-98a86.3,86.3,0,0,0-21.1,2.1c14.2-20.2,33.2-39.1,58.8-56.1l-6.7,2.1a234.2,234.2,0,0,1-20.2-57.3c5.2-30.6,10.8-60.8,34-94.4,3.8.4,7.6,2.1,11.3,6.1,7.7,12.9,14.1,26.4,20.2,40.1a361.6,361.6,0,0,1,25.4,33.4,119,119,0,0,0-12-25.4c6.9,4.7,13.9,9.2,20.8,13.5,9.2,7.9,14.4,15.7,19.9,23.6-8.9-3-17.8-4.6-26.7-3.4a55.1,55.1,0,0,1,12,12c-10.4-1.4-19.8-1.2-27,2.1A68.1,68.1,0,0,1-107-213.5a51.5,51.5,0,0,0,19.3,3.7c-10.7-8.7-20.4-18.6-28.2-31a60,60,0,0,0,13.2,5.5,153.1,153.1,0,0,1-17.5-47.2c-2.5-7.6-10.1-16.2-16.3-6.6-3.4,5.2-4.3,11.2-4.2,17.6,1.5-3.9,7.8-20.2,13-12.3,2.1,3.2,2.4,8,3,12.6l3.4,18.1a91.6,91.6,0,0,0-14.4-3.7c6.6,11.9,11.8,21.3,17.2,29.1-3.6-.6-7.4-1.6-12.3-2.1,8.5,10.1,14.8,19.6,21.5,27-4.4.1-9.2-1.4-14.4-4a38.6,38.6,0,0,0,21.5,21.4c-8,4.4-15.7,9.1-21.2,14.5a42.9,42.9,0,0,1,18.4.3,126,126,0,0,0-27,17.8,60.6,60.6,0,0,1,14.1-1.2c-10.2,5.5-18.8,12.4-24.5,21.8a59.6,59.6,0,0,1,16.9-1.5,41,41,0,0,0-3.7,18.1c7.2-9.8,13.7-19.8,26.4-28.2-1.4-.6-6.1-.9-13.2.6,3.8-5.6,21.2-14.5,29.7-17.2A44.7,44.7,0,0,0-99.9-163a91.3,91.3,0,0,1,22.7-12.6,93.9,93.9,0,0,0-15-1.8,91.8,91.8,0,0,1,24.5-6.1,54,54,0,0,0-15-4.9,111,111,0,0,1,32.5-3.4,29.5,29.5,0,0,0-5.8-14.4,84.5,84.5,0,0,1,26.4,12.3,42.8,42.8,0,0,0-4.9-16.5,84.7,84.7,0,0,1,23,12.6,36.4,36.4,0,0,0,.3-8.9A74.5,74.5,0,0,1,0-197.6a74.5,74.5,0,0,1,11.4-9.2,36.4,36.4,0,0,0,.3,8.9,84.7,84.7,0,0,1,23-12.6,42.8,42.8,0,0,0-4.9,16.5,84.5,84.5,0,0,1,26.4-12.3,29.5,29.5,0,0,0-5.8,14.4,111,111,0,0,1,32.5,3.4,54,54,0,0,0-15,4.9,91.8,91.8,0,0,1,24.5,6.1,93.9,93.9,0,0,0-15,1.8A91.3,91.3,0,0,1,99.9-163a44.7,44.7,0,0,0-13.5,2.5c8.5,2.7,25.9,11.6,29.7,17.2-7-1.5-11.8-1.2-13.2-.6,12.7,8.3,19.2,18.4,26.4,28.2a41,41,0,0,0-3.7-18.1,59.6,59.6,0,0,1,16.9,1.5c-5.7-9.4-14.3-16.3-24.5-21.8a60.6,60.6,0,0,1,14.1,1.2,126,126,0,0,0-27-17.8,42.9,42.9,0,0,1,18.4-.3c-5.6-5.4-13.2-10.1-21.2-14.5a38.6,38.6,0,0,0,21.5-21.4c-5.2,2.5-10,4.1-14.4,4,6.6-7.4,12.9-16.8,21.5-27-4.8.6-8.7,1.6-12.3,2.1,5.4-7.8,10.6-17.3,17.2-29.1a91.6,91.6,0,0,0-14.4,3.7l3.4-18.1c.6-4.5.9-9.4,3-12.6,5.2-7.9,11.5,8.4,13,12.3.2-6.4-.8-12.5-4.2-17.6-6.3-9.6-13.9-1-16.3,6.6a153.2,153.2,0,0,1-17.5,47.2,60,60,0,0,0,13.2-5.5c-7.8,12.4-17.5,22.2-28.2,31a51.5,51.5,0,0,0,19.3-3.7,68.1,68.1,0,0,1-16.5,14.1c-7.2-3.3-16.5-3.5-27-2.1a55.1,55.1,0,0,1,12-12c-8.9-1.2-17.8.3-26.7,3.4,5.5-7.9,10.7-15.7,19.9-23.6,6.9-4.3,13.9-8.8,20.8-13.5a119,119,0,0,0-12,25.4A361.6,361.6,0,0,1,103-255.2c6.1-13.7,12.5-27.3,20.2-40.1,3.8-4,7.6-5.8,11.3-6.1,23.2,33.6,28.8,63.8,34,94.4a234.1,234.1,0,0,1-20.2,57.3l-6.7-2.1c25.7,17,44.6,35.9,58.8,56.1A86.3,86.3,0,0,0,179.3-98a211.6,211.6,0,0,1,34.6,30.3A44.6,44.6,0,0,0,198-68.9c19.9,18.5,29.2,41.1,35.5,65a75,75,0,0,0-15.3-4.9c4.5,14.8,6.6,29.6,7.7,44.4a65.4,65.4,0,0,0-14.7-11c4.6,11.3,2.5,49.9-2.1,58.2-1-10.3-10.4-32.2-11.3-32.2-2.7,23.5-8.9,39.1-16.5,51.2a246,246,0,0,0-6.7-33.7,125.6,125.6,0,0,1-34.3,56.1c1.9,0,.6-21.1-2.5-31.3-.7,15.2-16.4,40.8-27.9,52.7,4.9-13.6,7.7-28.9,7.7-46.6a77.7,77.7,0,0,1,4.9,14.7c7-15.5,9.5-32.3,12-49A79.2,79.2,0,0,1,149,93.2c10.6-17.9,14.8-35.8,15.6-53.6a121.4,121.4,0,0,1,14.1,19.9c8.9-18.3,7.5-36.6,4.6-54.9a106.3,106.3,0,0,1,16.2,9.5c1.1-12.4-1.9-24.8-5.8-37.1a82.5,82.5,0,0,1,12.6,4,142,142,0,0,0-15.9-30,72.9,72.9,0,0,1,18.1,3.4c-8.5-11.1-19-20-32.5-25.7a16.9,16.9,0,0,1,8.3-3.4c-13.8-11-32.1-15.4-52.1-17.5,9.9,3.4,19.8,6.8,27.3,12.3a48.8,48.8,0,0,0-13.5,9.2,83.8,83.8,0,0,1,24.2,8.3c-6.8.5-10.5,2.1-16.2,4.9,12.5,4.6,20,11.7,28.2,18.4-6.3-1.3-13.7-1.6-23.3,0,10.1,6,16.1,14.2,21.8,22.7a71,71,0,0,0-22.4.9,85.2,85.2,0,0,1,11.6,38.9c-7.1-6.1-15.1-11.7-26.7-15.3,4.7,10,5,27.4,1.2,41.1-5.2-8.4-13.7-16.3-23.3-22.7a103.1,103.1,0,0,1-.6,35.5c-3.1-4.1-8.1-7.5-14.4-10.4,3.9,75-20.3,103.6-38,124.1,5-14.6,7.1-31.6,5.5-51.5a69,69,0,0,1,8.9,16.2c1.1-27.9-6.6-51-15.3-73.5A89.2,89.2,0,0,1,79.4,83.1C77,53.5,56.4,42.4,52.8,2.2a243.6,243.6,0,0,0,9.5,107.3c-3,14.7-7,29.4-16.5,44.1l-30.6,4.9Z" transform="translate(252 318.7)" style="fill:#fff;fill-rule:evenodd"/><path d="M-63.4-115.5s16.5,11.3,23.6,19.6,8,9.8,8,9.8,2.1,17.5,2.5,31,.3,21.5.3,21.5l10.4,1.2-2.9,6.4,1-.7c-1.8,8-5.8,10.6-10.9,12.9a13.9,13.9,0,0,1-5.4-2.2,34.4,34.4,0,0,1-14,10.3C-61.9-1.5-68-1.5-68-1.5l4.6-7.4A24.4,24.4,0,0,1-71.5-7c-3.9.1-9.4-2.2-9.4-2.2a33.6,33.6,0,0,0,6.9-2.1c2.9-1.4,3.6-2.3,3.6-2.3s-9.4-.7-16.3-5.2-8.2-7-8.2-7a42,42,0,0,0,8.2-.3,16.9,16.9,0,0,0,6.5-2.5s-12.5-9-20.6-17.7-10.4-15.9-10.4-15.9,5.1,4.8,8.4,6.4a16.9,16.9,0,0,0,4.2,1.6,41.4,41.4,0,0,1-5.1-9.9c-1.9-5.6-2-6.7-2-6.7s5-6.7,8.7-9.2l1.3-.9a41.5,41.5,0,0,1,15.8-24.4l4.8.9c1.6-3.2,5-7.6,11.9-11m-82.7-140.4a177.7,177.7,0,0,0-2.9,50.9c3,17.5,8.5,30.7,14.4,43.2-10.5-11.2-18.1-25.8-22.5-44A147.7,147.7,0,0,1-146.1-255.9Zm20.4,191.9c11.1,15.6,21.9,25.1,32.6,31.7a53,53,0,0,1-14.4,3.1A195.5,195.5,0,0,0-86.3-12.9,63.9,63.9,0,0,1-98.6-8,86.4,86.4,0,0,0-76.4-3.2,51.5,51.5,0,0,1-88.2,9.6c8.4-.6,16.5-3.7,24.5-7.5-14,10.1-28.1,19.8-43.8,12.6,5.4-3.4,10.5-7.1,14.2-12.1C-106,.6-117.5-2.9-125-11a110.9,110.9,0,0,0,17.6-4.6c-7.6-5.5-15-11.5-21-22.7a44.2,44.2,0,0,0,16.4-.2C-118.4-42.8-122.9-51.5-125.7-64.1ZM-12.2-84.7S-9-69.9-10-55.2a59.4,59.4,0,0,1-7,24.5,40.9,40.9,0,0,0,.3-10.4c-.6-5.2-1.8-10.6-1.8-10.6S-12.3-61.5-12.2-84.7Zm75.6-30.8S46.9-104.2,39.8-95.9s-8,9.8-8,9.8-2.1,17.5-2.5,31-.3,21.5-.3,21.5L18.7-32.5l2.9,6.4-1-.7c1.8,8,5.8,10.6,10.9,12.9a13.9,13.9,0,0,0,5.4-2.2,34.4,34.4,0,0,0,14,10.3C61.9-1.5,68-1.5,68-1.5L63.4-8.9A24.4,24.4,0,0,0,71.5-7c3.9.1,9.4-2.2,9.4-2.2a33.6,33.6,0,0,1-6.9-2.1c-2.9-1.4-3.6-2.3-3.6-2.3s9.4-.7,16.3-5.2,8.2-7,8.2-7a42,42,0,0,1-8.2-.3,16.9,16.9,0,0,1-6.5-2.5s12.5-9,20.6-17.7,10.4-15.9,10.4-15.9-5.1,4.8-8.4,6.4a17,17,0,0,1-4.2,1.6,41.4,41.4,0,0,0,5.1-9.9c1.9-5.6,2-6.7,2-6.7s-5-6.7-8.7-9.2l-1.3-.9a41.5,41.5,0,0,0-15.8-24.4l-4.8.9C73.7-107.7,70.3-112.1,63.4-115.5Zm82.7-140.4a177.7,177.7,0,0,1,2.9,50.9c-3,17.5-8.5,30.7-14.4,43.2,10.5-11.2,18.1-25.8,22.5-44A147.7,147.7,0,0,0,146.1-255.9ZM125.7-64.1c-11.1,15.6-21.9,25.1-32.6,31.7a53,53,0,0,0,14.4,3.1A195.5,195.5,0,0,1,86.3-12.9,63.9,63.9,0,0,0,98.6-8,86.4,86.4,0,0,1,76.4-3.2,51.5,51.5,0,0,0,88.2,9.6C79.8,9.1,71.7,6,63.7,2.1c14,10.1,28.1,19.8,43.8,12.6C102.1,11.3,97,7.6,93.2,2.6,106,.6,117.5-2.9,125-11a110.9,110.9,0,0,1-17.6-4.6c7.6-5.5,15-11.5,21-22.7a44.2,44.2,0,0,1-16.4-.2C118.4-42.8,122.9-51.5,125.7-64.1ZM12.2-84.7S9-69.9,10-55.2a59.4,59.4,0,0,0,7,24.5,40.9,40.9,0,0,1-.3-10.4c.6-5.2,1.8-10.6,1.8-10.6S12.3-61.5,12.2-84.7Zm-60.3,181s.3,13.5,7.7,23a91.9,91.9,0,0,0,12.8,13.5A45.9,45.9,0,0,1-33.8,119a151.6,151.6,0,0,1-2.8-18.2C-24,78,0,72.8,0,72.8s24,5.2,36.5,28A151.8,151.8,0,0,1,33.8,119a45.9,45.9,0,0,1-6.2,13.7,91.8,91.8,0,0,0,12.8-13.5c7.4-9.5,7.7-23,7.7-23-7-18.8-11.3-29.2-11.3-29.2S34.6,63.4,34.6,45,43.5,8.3,43.5,8.3l7.7,8.9q.5-7.4,1.5-15c3,32.8,17.2,46.2,23.7,66,.1-1.2.4-3.8,1.1-9.4a63.2,63.2,0,0,0-.2-17.5,110.7,110.7,0,0,0,13.3-.3c7.7-.6,14.6-5.7,14.6-5.7a82.1,82.1,0,0,1-11.2-2,36.4,36.4,0,0,1-11-5.1s13.2-.6,25.1-5.8A42.6,42.6,0,0,0,126.3,6.9s-3,.3-6.7.5-6.7,0-6.7,0,12-7.1,17.7-14,7.8-17.7,7.8-17.7a23.6,23.6,0,0,1-5.6,2.2l-7.4,2s5.8-6.5,10.1-18.6S139.7-67,139.7-67s-.2,1.1-2.8,5.2a35.4,35.4,0,0,1-5.6,6.8,98.1,98.1,0,0,0,4.6-18.2,57.1,57.1,0,0,0-.2-17.9l-3.6-1.2c20,2,38.3,6.4,52.1,17.5a16.9,16.9,0,0,0-8.3,3.4c13.4,5.7,23.9,14.7,32.5,25.7A72.9,72.9,0,0,0,190.3-49a142,142,0,0,1,15.9,30,82.5,82.5,0,0,0-12.6-4c4,12.3,6.9,24.7,5.8,37.1a106.3,106.3,0,0,0-16.2-9.5c2.9,18.3,4.3,36.6-4.6,54.9a121.4,121.4,0,0,0-14.1-19.9c-.8,17.9-5,35.8-15.6,53.6a79.2,79.2,0,0,0-14.7-28.5c-2.4,16.8-5,33.5-12,49A77.7,77.7,0,0,0,117.4,99c0,17.6-2.7,33-7.7,46.6,11.5-11.9,27.1-37.5,27.9-52.7,3.1,10.1,4.4,31.3,2.5,31.3a125.6,125.6,0,0,0,34.3-56.1,246,246,0,0,1,6.7,33.7c7.6-12.1,13.8-27.6,16.5-51.2.9,0,10.3,21.9,11.3,32.2,4.7-8.3,6.7-46.9,2.1-58.2a65.4,65.4,0,0,1,14.7,11c-1.1-14.8-3.1-29.6-7.7-44.4a75,75,0,0,1,15.3,4.9c-6.4-23.8-15.7-46.5-35.5-65a44.6,44.6,0,0,1,15.9,1.2A211.6,211.6,0,0,0,179.3-98a86.3,86.3,0,0,1,21.1,2.1c-14.2-20.2-33.2-39.1-58.8-56.1l6.7,2.1a234.1,234.1,0,0,0,20.2-57.3c-5.2-30.6-10.8-60.8-34-94.4-3.8.4-7.6,2.1-11.3,6.1-7.7,12.9-14.1,26.4-20.2,40.1a361.6,361.6,0,0,0-25.4,33.4,119,119,0,0,1,12-25.4c-6.9,4.7-13.9,9.2-20.8,13.5-9.2,7.9-14.5,15.7-19.9,23.6,8.9-3,17.8-4.6,26.7-3.4a55.1,55.1,0,0,0-12,12c10.4-1.4,19.8-1.2,27,2.1A68.1,68.1,0,0,0,107-213.5a51.5,51.5,0,0,1-19.3,3.7c10.7-8.7,20.4-18.6,28.2-31a60,60,0,0,1-13.2,5.5,153.2,153.2,0,0,0,17.5-47.2c2.5-7.6,10.1-16.2,16.3-6.6,3.4,5.2,4.3,11.2,4.2,17.6-1.5-3.9-7.8-20.2-13-12.3-2.1,3.2-2.4,8-3,12.6l-3.4,18.1a91.6,91.6,0,0,1,14.4-3.7c-6.6,11.9-11.8,21.3-17.2,29.1,3.6-.6,7.4-1.6,12.3-2.1-8.5,10.1-14.8,19.6-21.5,27,4.4.1,9.2-1.4,14.4-4a38.6,38.6,0,0,1-21.5,21.4c8,4.4,15.7,9.1,21.2,14.5a42.9,42.9,0,0,0-18.4.3,126,126,0,0,1,27,17.8,60.6,60.6,0,0,0-14.1-1.2c10.2,5.5,18.8,12.4,24.5,21.8a59.6,59.6,0,0,0-16.9-1.5,41,41,0,0,1,3.7,18.1c-7.2-9.8-13.7-19.8-26.4-28.2,1.4-.6,6.1-.9,13.2.6-3.8-5.6-21.2-14.5-29.7-17.2A44.7,44.7,0,0,1,99.9-163a91.3,91.3,0,0,0-22.7-12.6,93.9,93.9,0,0,1,15-1.8,91.8,91.8,0,0,0-24.5-6.1,54,54,0,0,1,15-4.9,111,111,0,0,0-32.5-3.4,29.5,29.5,0,0,1,5.8-14.4,84.5,84.5,0,0,0-26.4,12.3,42.8,42.8,0,0,1,4.9-16.5,84.7,84.7,0,0,0-23,12.6,36.4,36.4,0,0,1-.3-8.9A74.5,74.5,0,0,0,0-197.6a74.5,74.5,0,0,0-11.4-9.2,36.4,36.4,0,0,1-.3,8.9,84.7,84.7,0,0,0-23-12.6,42.8,42.8,0,0,1,4.9,16.5,84.5,84.5,0,0,0-26.4-12.3,29.5,29.5,0,0,1,5.8,14.4,111,111,0,0,0-32.5,3.4,54,54,0,0,1,15,4.9,91.8,91.8,0,0,0-24.5,6.1,93.9,93.9,0,0,1,15,1.8A91.3,91.3,0,0,0-99.9-163a44.7,44.7,0,0,1,13.5,2.5c-8.5,2.7-25.9,11.6-29.7,17.2,7-1.5,11.8-1.2,13.2-.6-12.7,8.3-19.2,18.4-26.4,28.2a41,41,0,0,1,3.7-18.1,59.6,59.6,0,0,0-16.9,1.5c5.7-9.4,14.3-16.3,24.5-21.8a60.6,60.6,0,0,0-14.1,1.2,126,126,0,0,1,27-17.8,42.9,42.9,0,0,0-18.4-.3c5.6-5.4,13.2-10.1,21.2-14.5a38.6,38.6,0,0,1-21.5-21.4c5.2,2.5,10,4.1,14.4,4-6.6-7.4-12.9-16.8-21.5-27,4.8.6,8.7,1.6,12.3,2.1-5.4-7.8-10.6-17.3-17.2-29.1a91.6,91.6,0,0,1,14.4,3.7l-3.4-18.1c-.6-4.5-.9-9.4-3-12.6-5.2-7.9-11.4,8.4-13,12.3-.2-6.4.8-12.5,4.2-17.6,6.3-9.6,13.9-1,16.3,6.6a153.1,153.1,0,0,0,17.5,47.2,60,60,0,0,1-13.2-5.5c7.8,12.4,17.5,22.2,28.2,31a51.5,51.5,0,0,1-19.3-3.7,68.1,68.1,0,0,0,16.5,14.1c7.2-3.3,16.5-3.5,27-2.1a55.1,55.1,0,0,0-12-12c8.9-1.2,17.8.3,26.7,3.4-5.5-7.9-10.7-15.7-19.9-23.6-6.9-4.3-13.9-8.8-20.8-13.5a119,119,0,0,1,12,25.4A361.6,361.6,0,0,0-103-255.2c-6.1-13.7-12.5-27.3-20.2-40.1-3.8-4-7.6-5.8-11.3-6.1-23.2,33.6-28.9,63.8-34,94.4a234.2,234.2,0,0,0,20.2,57.3l6.7-2.1c-25.7,17-44.6,35.9-58.8,56.1A86.3,86.3,0,0,1-179.3-98a211.6,211.6,0,0,0-34.6,30.3A44.6,44.6,0,0,1-198-68.9c-19.9,18.5-29.2,41.1-35.5,65a75,75,0,0,1,15.3-4.9c-4.5,14.8-6.6,29.6-7.7,44.4a65.4,65.4,0,0,1,14.7-11c-4.6,11.3-2.5,49.9,2.1,58.2,1-10.3,10.4-32.2,11.3-32.2,2.7,23.5,8.9,39.1,16.5,51.2a246.1,246.1,0,0,1,6.7-33.7,125.6,125.6,0,0,0,34.3,56.1c-1.9,0-.6-21.1,2.5-31.3.7,15.2,16.4,40.8,27.9,52.7-4.9-13.6-7.7-28.9-7.7-46.6a77.6,77.6,0,0,0-4.9,14.7c-7-15.5-9.5-32.3-12-49A79.2,79.2,0,0,0-149,93.2c-10.6-17.9-14.8-35.8-15.6-53.6a121.6,121.6,0,0,0-14.1,19.9c-8.9-18.3-7.5-36.6-4.6-54.9a106.3,106.3,0,0,0-16.2,9.5c-1.1-12.4,1.9-24.8,5.8-37.1a82.4,82.4,0,0,0-12.6,4,142,142,0,0,1,15.9-30,72.9,72.9,0,0,0-18.1,3.4c8.5-11.1,19-20,32.5-25.7a16.9,16.9,0,0,0-8.3-3.4c13.8-11,32.1-15.4,52.1-17.5l-3.6,1.2a57.2,57.2,0,0,0-.2,17.9,98.2,98.2,0,0,0,4.6,18.2,35.5,35.5,0,0,1-5.6-6.8c-2.6-4.1-2.8-5.2-2.8-5.2s0,16.1,4.3,28.2,10.1,18.6,10.1,18.6l-7.4-2a23.6,23.6,0,0,1-5.6-2.2s2.1,10.8,7.8,17.7,17.7,14,17.7,14-3.1.2-6.7,0-6.7-.5-6.7-.5a42.6,42.6,0,0,0,18.1,15.6c12,5.2,25.1,5.8,25.1,5.8a36.4,36.4,0,0,1-11,5.1,82.2,82.2,0,0,1-11.2,2s6.9,5.1,14.6,5.7a110.7,110.7,0,0,0,13.3.3,63.2,63.2,0,0,0-.2,17.5c.7,5.6,1,8.2,1.1,9.4,6.5-19.8,20.7-33.2,23.7-66q1,7.6,1.5,15l7.7-8.9s8.9,18.4,8.9,36.8-2.1,22.1-2.1,22.1S-41.1,77.5-48.1,96.3Z" transform="translate(252 318.7)" style="fill:#fff;fill-rule:evenodd"/><path d="M-72.6-52.6a18.6,18.6,0,0,1,7.5.2,6.1,6.1,0,0,0-2.4,4.9,6.1,6.1,0,0,0,6.1,6.1,6.1,6.1,0,0,0,6.1-6.1c0-.2,0-.3,0-.5A26.3,26.3,0,0,1-49-42s-3.7,8.6-14.4,6.3-9.2-17.2-9.2-16.9" transform="translate(252 318.7)" style="fill:#fff;fill-rule:evenodd"/><path d="M-20.1,129.2l-2.2-1.1a15.2,15.2,0,0,1-2.2-6,24.3,24.3,0,0,1-.5-6.7,37,37,0,0,1,9.2-1c9.2.1,10.5,3.3,11.4,12,.5,5.4.5,5.9.5,5.9l-1.8,1.9a34.2,34.2,0,0,1-7.5-2.5c-2.9-1.5-3.1-1.9-3.1-1.9a35.4,35.4,0,0,0,5.2,1.1,21.2,21.2,0,0,0,3.8.1l.7-1.4v-1.1s-6.7-.2-10-2.4-4.3-7.4-4.3-7.4l-1.6.2a16.3,16.3,0,0,0,2.3,10.2m40.3,0,2.2-1.1a15.2,15.2,0,0,0,2.2-6,24.3,24.3,0,0,0,.5-6.7,37.1,37.1,0,0,0-9.2-1c-9.2.1-10.5,3.3-11.4,12-.5,5.4-.5,5.9-.5,5.9l1.8,1.9a34.2,34.2,0,0,0,7.5-2.5c2.9-1.5,3.1-1.9,3.1-1.9a35.4,35.4,0,0,1-5.2,1.1,21.2,21.2,0,0,1-3.8.1l-.7-1.4v-1.1s6.7-.2,10-2.4,4.3-7.4,4.3-7.4l1.6.2A16.3,16.3,0,0,1,20.1,129.2Zm-51.6-27.8s1.1,8.3,2.5,14.7a86,86,0,0,0,4.6,13.8,55.8,55.8,0,0,0,10.7,5.8,33.5,33.5,0,0,0,9.2,2A10,10,0,0,0-1,133.1c1-2.9-2.9-17.3-2.9-17.3s-1.1-3.2-6.9-4-15.8.8-15.8.8l-.9-6.7A27.5,27.5,0,0,1-23.2,99c3.2-4,4.9-4.7,4.9-4.7a22.7,22.7,0,0,0,.2,5.2l.5,2.5a74.7,74.7,0,0,1,4.3-7.9l2.1-2.9s-.4,4.4-.4,6.9a22.7,22.7,0,0,0,.2,3.4,59.2,59.2,0,0,1,4.3-8.7,31.9,31.9,0,0,1,2.5-3.3s-.2,4.3.1,7.3a38.5,38.5,0,0,0,.5,4.4L0,88.2l4.1,13a38.4,38.4,0,0,0,.5-4.4c.2-3,.1-7.3.1-7.3a32,32,0,0,1,2.5,3.3,59.2,59.2,0,0,1,4.3,8.7,22.5,22.5,0,0,0,.2-3.4c0-2.5-.4-6.9-.4-6.9l2.1,2.9a74.6,74.6,0,0,1,4.3,7.9l.5-2.5a22.7,22.7,0,0,0,.2-5.2S20,95,23.2,99a27.5,27.5,0,0,1,4.3,6.9l-.9,6.7s-10-1.5-15.8-.8-6.9,4-6.9,4S0,130.2,1,133.1a10,10,0,0,0,3.5,4.6,33.5,33.5,0,0,0,9.2-2,55.8,55.8,0,0,0,10.7-5.8A86,86,0,0,0,29,116.1c1.4-6.4,2.5-14.7,2.5-14.7C26.9,87,0,75.8,0,75.8S-26.9,87-31.5,101.4Z" transform="translate(252 318.7)" style="fill:#fff;fill-rule:evenodd"/><path d="M72.6-52.6a18.6,18.6,0,0,0-7.5.2,6.1,6.1,0,0,1,2.4,4.9,6.1,6.1,0,0,1-6.1,6.1,6.1,6.1,0,0,1-6.1-6.1c0-.2,0-.3,0-.5A26.3,26.3,0,0,0,49-42s3.7,8.6,14.4,6.3,9.2-17.2,9.2-16.9" transform="translate(252 318.7)" style="fill:#fff;fill-rule:evenodd"/><path d="M-12.2-84.7S-9-69.9-10-55.2a59.4,59.4,0,0,1-7,24.5,40.9,40.9,0,0,0,.3-10.4c-.6-5.2-1.8-10.6-1.8-10.6s6.3-9.8,6.4-33.1m24.4,0S9-69.9,10-55.2a59.4,59.4,0,0,0,7,24.5,40.9,40.9,0,0,1-.3-10.4c.6-5.2,1.8-10.6,1.8-10.6S12.3-61.5,12.2-84.7Zm-50-27.8a75.2,75.2,0,0,1,11,14.7l5.4,9.2s0,20.4-.9,29c-.7,6.9-5.1,20.2-6.7,25.1v.9l10.4,1.2-2.9,6.4,1-.7c-1.4,6.2-4.1,9.2-7.7,11.2l-.9,12S-17.9,10.2-17,19.7A79,79,0,0,1-17.9,39s1.5,13.5,6.7,19L0,69.9,11.2,58c5.2-5.5,6.7-19,6.7-19A79.1,79.1,0,0,1,17,19.7c.9-9.5,12.1-23.3,12.1-23.3l-.9-12c-3.5-2.1-6.3-5-7.7-11.2l1,.7-2.9-6.4,10.4-1.2v-.9c-1.6-4.9-6-18.2-6.7-25.1-.9-8.6-.9-29-.9-29l5.4-9.2a75.2,75.2,0,0,1,11-14.7c17.8-13.9,27.6-17,27.6-17s-20.7-4.6-29.6.3-19.6,16.1-19.6,16.1.2-2.8,2.5-8.7,9-14.6,9-14.6A36.8,36.8,0,0,0,15-130.6a44.4,44.4,0,0,0-9.7,10.9L0-96.8l-5.4-23A44.4,44.4,0,0,0-15-130.6a36.8,36.8,0,0,0-12.7-5.8s6.7,8.6,9,14.6,2.5,8.7,2.5,8.7S-27-124.4-35.9-129.3s-29.6-.3-29.6-.3S-55.6-126.5-37.9-112.6Z" transform="translate(252 318.7)" style="fill:#fff;fill-rule:evenodd"/><path d="M-131-293.3a71.1,71.1,0,0,0-3.8-7.9l.2-.3c3.8.4,7.6,2.1,11.3,6.1,7.7,12.9,14.1,26.4,20.2,40.1a361.6,361.6,0,0,1,25.4,33.4,119,119,0,0,0-12-25.4c6.9,4.7,13.9,9.2,20.8,13.5,9.2,7.9,14.4,15.7,19.9,23.6-8.9-3-17.8-4.6-26.7-3.4a55.1,55.1,0,0,1,12,12c-10.4-1.4-19.8-1.2-27,2.1A68.1,68.1,0,0,1-107-213.5a51.5,51.5,0,0,0,19.3,3.7c-10.7-8.7-20.4-18.6-28.2-31a60,60,0,0,0,13.2,5.5,153.1,153.1,0,0,1-17.5-47.2c-1.8-5.4-6.2-11.4-10.8-10.8M114.5-134.6c-10.4-4-32.8-10.9-32.8-10.9l13.8-.2L89-150.1c-6.4-4.4-28.2-9.8-28.2-9.8l16.5-2.5s-3.5-2.8-10.9-5.2-21.8-2-21.8-2l14.9-6s-3.8-2.6-12.3-2.5A93.2,93.2,0,0,0,29-175.2l8.4-10.9L31.9-184c-5.5,2.1-17.5,10.6-17.5,10.6l1.5-5.8a105.7,105.7,0,0,1,4.4-12.6,66.4,66.4,0,0,0-10,12.3C5.5-171.9,0-149.9,0-149.9s-5.5-21.9-10.4-29.6a66.4,66.4,0,0,0-10-12.3A105.7,105.7,0,0,1-16-179.2l1.5,5.8s-12-8.4-17.5-10.6l-5.5-2.1,8.4,10.9A93.2,93.2,0,0,0-47.4-178c-8.4-.2-12.3,2.5-12.3,2.5l14.9,6s-14.4-.5-21.8,2-10.9,5.2-10.9,5.2l16.5,2.5s-21.8,5.4-28.2,9.8l-6.4,4.4,13.8.2s-22.3,6.9-32.8,10.9A69.6,69.6,0,0,1-103-144c-1.4-.6-6.1-.9-13.2.6,3.8-5.6,21.2-14.5,29.7-17.2A44.7,44.7,0,0,0-99.9-163a91.3,91.3,0,0,1,22.7-12.6,93.9,93.9,0,0,0-15-1.8,91.8,91.8,0,0,1,24.5-6.1,54,54,0,0,0-15-4.9,111,111,0,0,1,32.5-3.4,29.5,29.5,0,0,0-5.8-14.4,84.5,84.5,0,0,1,26.4,12.3,42.8,42.8,0,0,0-4.9-16.5,84.7,84.7,0,0,1,23,12.6,36.4,36.4,0,0,0,.3-8.9A74.5,74.5,0,0,1,0-197.6a74.5,74.5,0,0,1,11.4-9.2,36.4,36.4,0,0,0,.3,8.9,84.7,84.7,0,0,1,23-12.6,42.8,42.8,0,0,0-4.9,16.5,84.5,84.5,0,0,1,26.4-12.3,29.5,29.5,0,0,0-5.8,14.4,111,111,0,0,1,32.5,3.4,54,54,0,0,0-15,4.9,91.8,91.8,0,0,1,24.5,6.1,93.9,93.9,0,0,0-15,1.8A91.3,91.3,0,0,1,99.9-163a44.7,44.7,0,0,0-13.5,2.5c8.5,2.7,25.9,11.6,29.7,17.2-7-1.5-11.8-1.2-13.2-.6A69.7,69.7,0,0,1,114.5-134.6Zm20.3-166.6a71.2,71.2,0,0,0-3.8,7.9c-4.6-.5-9,5.4-10.8,10.8a153.2,153.2,0,0,1-17.5,47.2,60,60,0,0,0,13.2-5.5c-7.8,12.4-17.5,22.2-28.2,31a51.5,51.5,0,0,0,19.3-3.7,68.1,68.1,0,0,1-16.5,14.1c-7.2-3.3-16.5-3.5-27-2.1a55.1,55.1,0,0,1,12-12c-8.9-1.2-17.8.3-26.7,3.4,5.5-7.9,10.7-15.7,19.9-23.6,6.9-4.3,13.9-8.8,20.8-13.5a119,119,0,0,0-12,25.4A361.6,361.6,0,0,1,103-255.2c6.1-13.7,12.5-27.3,20.2-40.1,3.8-4,7.6-5.8,11.3-6.1Z" transform="translate(252 318.7)" style="fill:#fff;fill-rule:evenodd"/><path d="M142.3-90.9c16,2.5,30.5,7.1,41.9,16.2a16.9,16.9,0,0,0-8.3,3.4c13.4,5.7,23.9,14.7,32.5,25.7A72.9,72.9,0,0,0,190.3-49a142,142,0,0,1,15.9,30,82.5,82.5,0,0,0-12.6-4c4,12.3,6.9,24.7,5.8,37.1a106.3,106.3,0,0,0-16.2-9.5c2.9,18.3,4.3,36.6-4.6,54.9a121.4,121.4,0,0,0-14.1-19.9c-.8,17.9-5,35.8-15.6,53.6a79.2,79.2,0,0,0-14.7-28.5c-2.4,16.8-5,33.5-12,49A77.7,77.7,0,0,0,117.4,99c0,17.6-2.7,33-7.7,46.6,11.5-11.9,27.1-37.5,27.9-52.7,3.1,10.1,4.4,31.3,2.5,31.3a125.6,125.6,0,0,0,34.3-56.1,246,246,0,0,1,6.7,33.7c7.6-12.1,13.8-27.6,16.5-51.2.9,0,10.3,21.9,11.3,32.2,4.7-8.3,6.7-46.9,2.1-58.2a65.4,65.4,0,0,1,14.7,11c-1.1-14.8-3.1-29.6-7.7-44.4a75,75,0,0,1,15.3,4.9c-6.4-23.8-15.7-46.5-35.5-65a44.6,44.6,0,0,1,15.9,1.2A211.6,211.6,0,0,0,179.3-98a86.3,86.3,0,0,1,21.1,2.1c-14.2-20.2-33.1-39.1-58.7-56l-3.1-1.5s17.1,21.1,24.4,31.5l7.4,10.4s-16.4-6-24.2-6.1l-7.8-.2A104.9,104.9,0,0,1,158-103.4c10.7,9.7,11.3,10.9,11.3,10.9s-17.6-.3-22.5.6a39.4,39.4,0,0,0-4.5,1m-284.1-60.9,3.2-1.5s-17.1,21.1-24.4,31.5l-7.4,10.4s16.4-6,24.2-6.1l7.8-.2A104.9,104.9,0,0,0-158-103.4c-10.7,9.7-11.3,10.9-11.3,10.9s17.6-.3,22.5.6a39.7,39.7,0,0,1,4.5,1c-16,2.5-30.5,7.1-41.9,16.2a16.9,16.9,0,0,1,8.3,3.4c-13.4,5.7-23.9,14.7-32.5,25.7A72.9,72.9,0,0,1-190.3-49a142,142,0,0,0-15.9,30,82.4,82.4,0,0,1,12.6-4c-4,12.3-6.9,24.7-5.8,37.1a106.3,106.3,0,0,1,16.2-9.5c-2.9,18.3-4.3,36.6,4.6,54.9a121.6,121.6,0,0,1,14.1-19.9c.8,17.9,5,35.8,15.6,53.6a79.2,79.2,0,0,1,14.7-28.5c2.4,16.8,5,33.5,12,49A77.6,77.6,0,0,1-117.4,99c0,17.6,2.7,33,7.7,46.6-11.5-11.9-27.1-37.5-27.9-52.7-3.1,10.1-4.4,31.3-2.5,31.3a125.6,125.6,0,0,1-34.3-56.1,246.1,246.1,0,0,0-6.7,33.7c-7.6-12.1-13.8-27.6-16.5-51.2-.9,0-10.3,21.9-11.3,32.2-4.7-8.3-6.7-46.9-2.1-58.2a65.4,65.4,0,0,0-14.7,11c1.1-14.8,3.1-29.6,7.7-44.4a75,75,0,0,0-15.3,4.9c6.4-23.8,15.7-46.5,35.5-65a44.6,44.6,0,0,0-15.9,1.2A211.6,211.6,0,0,1-179.3-98a86.3,86.3,0,0,0-21.1,2.1C-186.3-116.1-167.4-134.9-141.8-151.8Z" transform="translate(252 318.7)" style="fill:#fff;fill-rule:evenodd"/><path d="M140.7-273q0,.7,0,1.5c-1.5-3.9-7.8-20.2-13-12.3-2.1,3.2-2.4,8-3,12.6l-3.4,18.1a91.6,91.6,0,0,1,14.4-3.7c-6.6,11.9-11.8,21.3-17.2,29.1,3.6-.6,7.4-1.6,12.3-2.1-8.5,10.1-14.8,19.6-21.5,27,4.4.1,9.2-1.4,14.4-4a38.6,38.6,0,0,1-21.5,21.4c8,4.4,15.7,9.1,21.2,14.5a46.6,46.6,0,0,0-5.8-.8,148.2,148.2,0,0,1,17.1,9.3l-6.4-10.7,4.3-3.1c4.3-3.1,8-11,8-11l-14.4,5.8,6.7-6.1c6.7-6.1,9.2-15.6,9.2-15.6l-3.7,3.1c-3.7,3.1-12,6.7-12,6.7s.6-.6,6.1-7.7,9.5-24.2,9.5-24.2l-6.7,2.8,8-19.3-5.8,3.7,7.4-18.7s0-4.9-3.7-14.7l-.6-1.4m-281.4,0-.6,1.4c-3.7,9.8-3.7,14.7-3.7,14.7l7.4,18.7-5.8-3.7,8,19.3-6.7-2.8s4,17.2,9.5,24.2,6.1,7.7,6.1,7.7-8.3-3.7-12-6.7l-3.7-3.1s2.5,9.5,9.2,15.6l6.7,6.1-14.4-5.8s3.7,8,8,11l4.3,3.1-6.4,10.7a148.3,148.3,0,0,1,17.1-9.3,46.6,46.6,0,0,0-5.8.8c5.6-5.4,13.2-10.1,21.2-14.5a38.6,38.6,0,0,1-21.5-21.4c5.2,2.5,10,4.1,14.4,4-6.6-7.4-12.9-16.8-21.5-27,4.8.6,8.7,1.6,12.3,2.1-5.4-7.8-10.6-17.3-17.2-29.1a91.6,91.6,0,0,1,14.4,3.7l-3.4-18.1c-.6-4.5-.9-9.4-3-12.6-5.2-7.9-11.4,8.4-13,12.3Q-140.7-272.2-140.7-273Z" transform="translate(252 318.7)" style="fill:#fff;fill-rule:evenodd"/></svg>