<svg id="Layer_1" data-name="Layer 1" xmlns="http://www.w3.org/2000/svg" viewBox="0 0 488.2 609.1"><title>Wolf912_1c</title><path d="M-20.6-26.8c-2.8,2.1-6.2,3.5-12,2C-35.4-44.2-36.7-61.7-48-92.6q-17.5-10.7-32-12.9c-11.5,8.7-16.4,20.7-17.3,34.6a32.6,32.6,0,0,1,15.2-12c6.8,1.9,13.3,6,19.6,11.2a15.1,15.1,0,0,1,.8,6c-12-1.8-18.7,1.2-23.7,6l-13-2.1c11.2,19.3,30,50.8,56.7,41.1,3.1,3.1,5.3,5.8,10.4,6.7C-26.4-16.2-22.4-18.8-20.6-26.8Zm-42.7-8.9c-10.7-2.3-9.2-17.2-9.2-16.9a18.6,18.6,0,0,1,7.5.2,6.1,6.1,0,0,0-2.4,4.9,6.1,6.1,0,0,0,6.1,6.1,6.1,6.1,0,0,0,6.1-6.1c0-.2,0-.3,0-.5A26.3,26.3,0,0,1-49-42S-52.6-33.4-63.4-35.7Z" transform="translate(244.1 310.5)" style="fill:#050000;fill-rule:evenodd"/><path d="M-22.4,128.1l2.2,1.1A16.3,16.3,0,0,1-22.4,119l1.6-.2s1,5.1,4.3,7.4,10,2.4,10,2.4v1.1l-.7,1.4a21.2,21.2,0,0,1-3.8-.1,35.4,35.4,0,0,1-5.2-1.1s.2.4,3.1,1.9a34.2,34.2,0,0,0,7.5,2.5l1.8-1.9s0-.5-.5-5.9c-.9-8.8-2.2-11.9-11.4-12a37,37,0,0,0-9.2,1,24.3,24.3,0,0,0,.5,6.7A15.2,15.2,0,0,0-22.4,128.1Z" transform="translate(244.1 310.5)" style="fill:#050000;fill-rule:evenodd"/><path d="M-76.4-3.2A86.4,86.4,0,0,1-98.6-8a63.9,63.9,0,0,0,12.3-4.9,195.5,195.5,0,0,1-21.1-16.4,53,53,0,0,0,14.4-3.1c-10.7-6.6-21.5-16.1-32.6-31.7,2.8,12.5,7.3,21.2,13.8,25.6a44.2,44.2,0,0,1-16.4.2c6,11.2,13.4,17.2,21,22.7A110.9,110.9,0,0,1-125-11C-117.5-2.9-106,.6-93.2,2.6c-3.7,5-8.9,8.7-14.2,12.1,15.7,7.2,29.8-2.5,43.8-12.6-8,3.8-16.1,6.9-24.5,7.5A51.5,51.5,0,0,0-76.4-3.2Z" transform="translate(244.1 310.5)" style="fill:#050000;fill-rule:evenodd"/><path d="M-149-205.1a177.7,177.7,0,0,1,2.9-50.9,147.7,147.7,0,0,0-11,50.1c4.4,18.2,12,32.7,22.5,44C-140.5-174.4-146-187.6-149-205.1Z" transform="translate(244.1 310.5)" style="fill:#050000;fill-rule:evenodd"/><path d="M15.9,114.4c-9.2.1-10.5,3.3-11.4,12-.5,5.4-.5,5.9-.5,5.9l1.8,1.9a34.2,34.2,0,0,0,7.5-2.5c2.9-1.5,3.1-1.9,3.1-1.9a35.4,35.4,0,0,1-5.2,1.1,21.2,21.2,0,0,1-3.8.1l-.7-1.4v-1.1s6.7-.2,10-2.4,4.3-7.4,4.3-7.4l1.6.2a16.3,16.3,0,0,1-2.3,10.2l2.2-1.1a15.2,15.2,0,0,0,2.2-6,24.3,24.3,0,0,0,.5-6.7A37.1,37.1,0,0,0,15.9,114.4Z" transform="translate(244.1 310.5)" style="fill:#050000;fill-rule:evenodd"/><path d="M-17.1-30.7a59.4,59.4,0,0,0,7-24.5c1.1-14.7-2.1-29.6-2.1-29.6-.2,23.3-6.4,33.1-6.4,33.1s1.2,5.4,1.8,10.6A40.9,40.9,0,0,1-17.1-30.7Z" transform="translate(244.1 310.5)" style="fill:#050000;fill-rule:evenodd"/><path d="M17.1-30.7a40.9,40.9,0,0,1-.3-10.4c.6-5.2,1.8-10.6,1.8-10.6s-6.3-9.8-6.4-33.1c0,0-3.2,14.9-2.1,29.6A59.4,59.4,0,0,0,17.1-30.7Z" transform="translate(244.1 310.5)" style="fill:#050000;fill-rule:evenodd"/><path d="M146.1-255.9a177.7,177.7,0,0,1,2.9,50.9c-3,17.5-8.5,30.7-14.4,43.2,10.5-11.2,18.1-25.8,22.5-44A147.7,147.7,0,0,0,146.1-255.9Z" transform="translate(244.1 310.5)" style="fill:#050000;fill-rule:evenodd"/><path d="M128.3-38.3a44.2,44.2,0,0,1-16.4-.2c6.5-4.3,11-13.1,13.8-25.6-11.1,15.6-21.9,25.1-32.6,31.7a53,53,0,0,0,14.4,3.1A195.5,195.5,0,0,1,86.3-12.9,63.9,63.9,0,0,0,98.6-8,86.4,86.4,0,0,1,76.4-3.2,51.5,51.5,0,0,0,88.2,9.6C79.8,9.1,71.7,6,63.7,2.1c14,10.1,28.1,19.8,43.8,12.6C102.1,11.3,97,7.6,93.2,2.6,106,.6,117.5-2.9,125-11a110.9,110.9,0,0,1-17.6-4.6C114.9-21.1,122.4-27.1,128.3-38.3Z" transform="translate(244.1 310.5)" style="fill:#050000;fill-rule:evenodd"/><path d="M98.6-61.8l-13,2.1c-5-4.7-11.8-7.8-23.7-6a15.1,15.1,0,0,1,.8-6c6.4-5.2,12.8-9.3,19.6-11.2a32.6,32.6,0,0,1,15.2,12c-.9-14-5.8-26-17.3-34.6q-14.5,2.1-32,12.9C36.7-61.7,35.4-44.2,32.6-24.8c-5.7,1.6-9.1.1-12-2,1.8,8,5.8,10.6,10.9,12.9,5.1-1,7.3-3.6,10.4-6.7C68.6-11,87.4-42.5,98.6-61.8Zm-35.2,26C52.6-33.4,49-42,49-42a26.3,26.3,0,0,1,6.3-6c0,.2,0,.3,0,.5a6.1,6.1,0,0,0,6.1,6.1,6.1,6.1,0,0,0,6.1-6.1,6.1,6.1,0,0,0-2.4-4.9,18.6,18.6,0,0,1,7.5-.2C72.6-52.9,74.1-38,63.4-35.7Z" transform="translate(244.1 310.5)" style="fill:#050000;fill-rule:evenodd"/><path d="M244,19.2c1.4-32.9-14.8-55.7-29-79.7l22.1,11L212.9-82.5c5.3-.7,11.5.4,18.1,2.1-14.9-25.8-40-46.3-66.8-65.9,5.7-16.3,10.3-35.9,13.5-60.4-4.7-42.2-23-72.9-41.1-103.9-7.9.9-13.8,4.3-17.6,10.1L98.1-261.8c-21.9,13.2-32,19.4-49.2,38a52.3,52.3,0,0,0-28.5,12,30.8,30.8,0,0,1,1.5-10c-13.4,4-17.1,8.5-22,12.9-4.9-4.4-8.6-8.9-22-12.9a30.8,30.8,0,0,1,1.5,10,52.3,52.3,0,0,0-28.5-12c-17.2-18.6-27.2-24.8-49.2-38L-119-300.4c-3.8-5.8-9.7-9.2-17.6-10.1-18,31-36.3,61.7-41.1,103.9,3.2,24.4,7.8,44.1,13.5,60.4-26.8,19.6-51.9,40.1-66.8,65.9,6.6-1.8,12.7-2.8,18.1-2.1l-24.2,33.1,22.1-11c-14.2,24-30.4,46.8-29,79.7A83.1,83.1,0,0,1-232.8,6.5c-5,22.9-6.7,43.7-1.1,60.1a105.4,105.4,0,0,1,7.5-17.3c-.2,39.7,9.2,67.7,27.7,84.6a103.5,103.5,0,0,1-.3-28.7c7.5,24,17.6,45.3,38.2,56.2a199.9,199.9,0,0,1-5.5-28c23.6,23.2,40.1,47.5,50.3,72.8a51.1,51.1,0,0,0,.9-27.3c17.1,20.9,26.1,43.8,29.7,68,8-6.3,12.1-17.6,14.4-31.3,8.5,13.6,51,33.9,71,82.9,20-49,62.5-69.3,71-82.9,2.3,13.7,6.4,24.9,14.4,31.3,3.7-24.2,12.6-47.1,29.7-68a51.1,51.1,0,0,0,.9,27.3c10.1-25.3,26.7-49.6,50.3-72.8a199.8,199.8,0,0,1-5.5,28c20.5-10.9,30.7-32.2,38.2-56.2a103.5,103.5,0,0,1-.3,28.7c18.6-16.8,28-44.9,27.7-84.6a105.4,105.4,0,0,1,7.5,17.3c5.6-16.4,4-37.2-1.1-60.1A83.1,83.1,0,0,1,244,19.2ZM22.3,177.8a47.7,47.7,0,0,1-8.6,2.6A62,62,0,0,1,0,181.5a62,62,0,0,1-13.7-1.1,47.7,47.7,0,0,1-8.6-2.6s-8.4-6-10.4-13.3l20.5-2a37.3,37.3,0,0,0,7,2.8,18.2,18.2,0,0,0,5.1.6,18.2,18.2,0,0,0,5.1-.6,37.3,37.3,0,0,0,7-2.8l20.5,2C30.7,171.8,22.3,177.8,22.3,177.8ZM218.2-8.8c4.5,14.8,6.6,29.6,7.7,44.4a65.4,65.4,0,0,0-14.7-11c4.6,11.3,2.5,49.9-2.1,58.2-1-10.3-10.4-32.2-11.3-32.2-2.7,23.5-8.9,39.1-16.5,51.2a246,246,0,0,0-6.7-33.7,125.5,125.5,0,0,1-33.9,55.7c-.1.2-.2.4-.4.4l.4-.4c1.3-2.9,0-21.5-2.8-30.9-.7,15.2-16.4,40.8-27.9,52.7,4.9-13.6,7.7-28.9,7.7-46.6a77.7,77.7,0,0,1,4.9,14.7c7-15.5,9.5-32.3,12-49A79.2,79.2,0,0,1,149,93.2c10.6-17.9,14.8-35.8,15.6-53.6a121.4,121.4,0,0,1,14.1,19.9c8.9-18.3,7.5-36.6,4.6-54.9a106.4,106.4,0,0,1,16.2,9.5c1.1-12.4-1.9-24.8-5.8-37.1a82.4,82.4,0,0,1,12.6,4,142,142,0,0,0-15.9-30,72.9,72.9,0,0,1,18.1,3.4c-8.5-11.1-19-20-32.5-25.7a16.9,16.9,0,0,1,8.3-3.4c-13.8-11-32.1-15.4-52.1-17.5,9.9,3.4,19.8,6.8,27.3,12.3a48.8,48.8,0,0,0-13.5,9.2,83.8,83.8,0,0,1,24.2,8.3c-6.8.5-10.5,2.1-16.2,4.9,12.5,4.6,20,11.7,28.2,18.4-6.3-1.3-13.7-1.6-23.3,0,10.1,6,16.1,14.2,21.8,22.7a71,71,0,0,0-22.4.9,85.2,85.2,0,0,1,11.6,38.9c-7.1-6.1-15.1-11.7-26.7-15.3,4.7,10,5,27.4,1.2,41.1-5.2-8.4-13.7-16.3-23.3-22.7a103.1,103.1,0,0,1-.6,35.5c-3.1-4.1-8.1-7.5-14.4-10.4,3.9,75-20.3,103.6-38,124.1,5-14.6,7.1-31.6,5.5-51.5a69,69,0,0,1,8.9,16.2c1.1-27.9-6.6-51-15.3-73.5A89.2,89.2,0,0,1,79.4,83.1C77,53.5,56.4,42.4,52.8,2.2a243.6,243.6,0,0,0,9.5,107.3c-3,14.7-7,29.4-16.5,44.1l-30.6,4.9L0,153.3l-15.1,5.2-30.6-4.9c-9.6-14.7-13.5-29.4-16.5-44.1A243.6,243.6,0,0,0-52.8,2.2C-56.4,42.4-77,53.5-79.4,83.1A89.2,89.2,0,0,1-67.2,66.9c-8.7,22.6-16.5,45.6-15.3,73.5a69,69,0,0,1,8.9-16.2c-1.5,19.9.5,36.9,5.5,51.5-17.7-20.5-41.9-49.1-38-124.1-6.3,2.9-11.3,6.3-14.4,10.4a103.1,103.1,0,0,1-.6-35.5c-9.6,6.4-18.1,14.3-23.3,22.7-3.8-13.6-3.5-31.1,1.2-41.1-11.6,3.6-19.6,9.2-26.7,15.3a85.2,85.2,0,0,1,11.6-38.9,71,71,0,0,0-22.4-.9c5.6-8.5,11.6-16.7,21.8-22.7-9.6-1.6-17-1.3-23.3,0,8.2-6.7,15.7-13.8,28.2-18.4-5.7-2.9-9.5-4.4-16.2-4.9a83.8,83.8,0,0,1,24.2-8.3,48.8,48.8,0,0,0-13.5-9.2c7.4-5.5,17.4-8.9,27.3-12.3-20,2-38.3,6.4-52.1,17.5a16.9,16.9,0,0,1,8.3,3.4c-13.4,5.7-23.9,14.7-32.5,25.7A72.9,72.9,0,0,1-190.3-49a142,142,0,0,0-15.9,30,82.4,82.4,0,0,1,12.6-4c-4,12.3-6.9,24.7-5.8,37.1a106.3,106.3,0,0,1,16.2-9.5c-2.9,18.3-4.3,36.6,4.6,54.9a121.6,121.6,0,0,1,14.1-19.9c.8,17.9,5,35.8,15.6,53.6a79.2,79.2,0,0,1,14.7-28.5c2.4,16.8,5,33.5,12,49A77.6,77.6,0,0,1-117.4,99c0,17.6,2.7,33,7.7,46.6-11.5-11.9-27.1-37.5-27.9-52.7-2.9,9.3-4.2,28-2.8,30.9l.4.4c-.1,0-.3-.1-.4-.4a125.5,125.5,0,0,1-33.9-55.7,246.1,246.1,0,0,0-6.7,33.7c-7.6-12.1-13.8-27.6-16.5-51.2-.9,0-10.3,21.9-11.3,32.2-4.7-8.3-6.7-46.9-2.1-58.2a65.4,65.4,0,0,0-14.7,11c1.1-14.8,3.1-29.6,7.7-44.4a75,75,0,0,0-15.3,4.9c6.4-23.8,15.7-46.5,35.5-65a44.6,44.6,0,0,0-15.9,1.2A211.6,211.6,0,0,1-179.3-98a86.3,86.3,0,0,0-21.1,2.1c14.2-20.2,33.2-39.1,58.8-56.1l-6.7,2.1a234.2,234.2,0,0,1-20.2-57.3c5.2-30.6,10.8-60.8,34-94.4,3.8.4,7.6,2.1,11.3,6.1,7.7,12.9,14.1,26.4,20.2,40.1a361.6,361.6,0,0,1,25.4,33.4,119,119,0,0,0-12-25.4c6.9,4.7,13.9,9.2,20.8,13.5,9.2,7.9,14.4,15.7,19.9,23.6-8.9-3-17.8-4.6-26.7-3.4a55.1,55.1,0,0,1,12,12c-10.4-1.4-19.8-1.2-27,2.1A68.1,68.1,0,0,1-107-213.5a51.5,51.5,0,0,0,19.3,3.7c-10.7-8.7-20.4-18.6-28.2-31a60,60,0,0,0,13.2,5.5,153.1,153.1,0,0,1-17.5-47.2c-2.5-7.6-10.1-16.2-16.3-6.6-3.4,5.2-4.3,11.2-4.2,17.6,1.5-3.9,7.8-20.2,13-12.3,2.1,3.2,2.4,8,3,12.6l3.4,18.1a91.6,91.6,0,0,0-14.4-3.7c6.6,11.9,11.8,21.3,17.2,29.1-3.6-.6-7.4-1.6-12.3-2.1,8.5,10.1,14.8,19.6,21.5,27-4.4.1-9.2-1.4-14.4-4a38.6,38.6,0,0,0,21.5,21.4c-8,4.4-15.7,9.1-21.2,14.5a42.9,42.9,0,0,1,18.4.3,126,126,0,0,0-27,17.8,60.6,60.6,0,0,1,14.1-1.2c-10.2,5.5-18.8,12.4-24.5,21.8a59.6,59.6,0,0,1,16.9-1.5,41,41,0,0,0-3.7,18.1c7.2-9.8,13.7-19.8,26.4-28.2-1.4-.6-6.1-.9-13.2.6,3.8-5.6,21.2-14.5,29.7-17.2A44.7,44.7,0,0,0-99.9-163a91.3,91.3,0,0,1,22.7-12.6,93.9,93.9,0,0,0-15-1.8,91.8,91.8,0,0,1,24.5-6.1,54,54,0,0,0-15-4.9,111,111,0,0,1,32.5-3.4,29.5,29.5,0,0,0-5.8-14.4,84.5,84.5,0,0,1,26.4,12.3,42.8,42.8,0,0,0-4.9-16.5,84.7,84.7,0,0,1,23,12.6,36.4,36.4,0,0,0,.3-8.9A74.5,74.5,0,0,1,0-197.6a74.5,74.5,0,0,1,11.4-9.2,36.4,36.4,0,0,0,.3,8.9,84.7,84.7,0,0,1,23-12.6,42.8,42.8,0,0,0-4.9,16.5,84.5,84.5,0,0,1,26.4-12.3,29.5,29.5,0,0,0-5.8,14.4,111,111,0,0,1,32.5,3.4,54,54,0,0,0-15,4.9,91.8,91.8,0,0,1,24.5,6.1,93.9,93.9,0,0,0-15,1.8A91.3,91.3,0,0,1,99.9-163a44.7,44.7,0,0,0-13.5,2.5c8.5,2.7,25.9,11.6,29.7,17.2-7-1.5-11.8-1.2-13.2-.6,12.7,8.3,19.2,18.4,26.4,28.2a41,41,0,0,0-3.7-18.1,59.6,59.6,0,0,1,16.9,1.5c-5.7-9.4-14.3-16.3-24.5-21.8a60.6,60.6,0,0,1,14.1,1.2,126,126,0,0,0-27-17.8,42.9,42.9,0,0,1,18.4-.3c-5.6-5.4-13.2-10.1-21.2-14.5a38.6,38.6,0,0,0,21.5-21.4c-5.2,2.5-10,4.1-14.4,4,6.6-7.4,12.9-16.8,21.5-27-4.8.6-8.7,1.6-12.3,2.1,5.4-7.8,10.6-17.3,17.2-29.1a91.6,91.6,0,0,0-14.4,3.7l3.4-18.1c.6-4.5.9-9.4,3-12.6,5.2-7.9,11.5,8.4,13,12.3.2-6.4-.8-12.5-4.2-17.6-6.3-9.6-13.9-1-16.3,6.6a153.2,153.2,0,0,1-17.5,47.2,60,60,0,0,0,13.2-5.5c-7.8,12.4-17.5,22.2-28.2,31a51.5,51.5,0,0,0,19.3-3.7,68.1,68.1,0,0,1-16.5,14.1c-7.2-3.3-16.5-3.5-27-2.1a55.1,55.1,0,0,1,12-12c-8.9-1.2-17.8.3-26.7,3.4,5.5-7.9,10.7-15.7,19.9-23.6,6.9-4.3,13.9-8.8,20.8-13.5a119,119,0,0,0-12,25.4A361.6,361.6,0,0,1,103-255.2c6.1-13.7,12.5-27.3,20.2-40.1,3.8-4,7.6-5.8,11.3-6.1,23.2,33.6,28.8,63.8,34,94.4a234.1,234.1,0,0,1-20.2,57.3l-6.7-2.1c25.7,17,44.6,35.9,58.8,56.1A86.3,86.3,0,0,0,179.3-98a211.6,211.6,0,0,1,34.6,30.3A44.6,44.6,0,0,0,198-68.9c19.9,18.5,29.2,41.1,35.5,65A75,75,0,0,0,218.2-8.8Z" transform="translate(244.1 310.5)" style="fill:#050000;fill-rule:evenodd"/><path d="M0,72.8s-24,5.2-36.5,28A151.6,151.6,0,0,0-33.8,119a46,46,0,0,0,6.4,14.1A47.8,47.8,0,0,0-16,139.7a135.3,135.3,0,0,0,16,5.4,135.2,135.2,0,0,0,16-5.4,47.8,47.8,0,0,0,11.3-6.6A46,46,0,0,0,33.8,119a151.8,151.8,0,0,0,2.8-18.2C24,78,0,72.8,0,72.8Zm29,43.4a86,86,0,0,1-4.6,13.8,55.8,55.8,0,0,1-10.7,5.8,33.5,33.5,0,0,1-9.2,2A10,10,0,0,1,1,133.1c-1-2.9,2.9-17.3,2.9-17.3s1.1-3.2,6.9-4,15.8.8,15.8.8l.9-6.7A27.5,27.5,0,0,0,23.2,99c-3.2-4-4.9-4.7-4.9-4.7a22.7,22.7,0,0,1-.2,5.2l-.5,2.5a74.6,74.6,0,0,0-4.3-7.9l-2.1-2.9s.4,4.4.4,6.9a22.5,22.5,0,0,1-.2,3.4,59.2,59.2,0,0,0-4.3-8.7,31.9,31.9,0,0,0-2.5-3.3s.2,4.3-.1,7.3a38.4,38.4,0,0,1-.5,4.4L0,88.2l-4.1,13a38.5,38.5,0,0,1-.5-4.4c-.2-3-.1-7.3-.1-7.3a31.9,31.9,0,0,0-2.5,3.3,59.2,59.2,0,0,0-4.3,8.7,22.6,22.6,0,0,1-.2-3.4c0-2.5.4-6.9.4-6.9l-2.1,2.9a74.7,74.7,0,0,0-4.3,7.9l-.5-2.5a22.7,22.7,0,0,1-.2-5.2S-20,95-23.2,99a27.5,27.5,0,0,0-4.3,6.9l.9,6.7s10-1.5,15.8-.8,6.9,4,6.9,4S0,130.2-1,133.1a10,10,0,0,1-3.5,4.6,33.5,33.5,0,0,1-9.2-2,55.8,55.8,0,0,1-10.7-5.8A86,86,0,0,1-29,116.1c-1.4-6.4-2.5-14.7-2.5-14.7C-26.9,87,0,75.8,0,75.8S26.9,87,31.5,101.4C31.5,101.4,30.4,109.7,29,116.1Z" transform="translate(244.1 310.5)" style="fill:#050000;fill-rule:evenodd"/></svg>