<svg id="Layer_1" data-name="Layer 1" xmlns="http://www.w3.org/2000/svg" viewBox="0 0 495.3 460.9"><title>Wolves927_1c</title><path d="M-191.6-132.8h0l-1.1-10.9a42.1,42.1,0,0,0-6.8-18.8h0a42.1,42.1,0,0,1,6.8,18.8Z" transform="translate(249.2 230.4)" style="fill:#26406a;fill-rule:evenodd"/><path d="M-123.5-46.1c-1.7,8.2-4,12.7-6.5,16h0c2.5-3.3,4.8-7.8,6.5-16Z" transform="translate(249.2 230.4)" style="fill:#26406a;fill-rule:evenodd"/><path d="M-170.8-32.2c21.6-7.2,45.7-24.5,56.7-41.1a40.2,40.2,0,0,1,.5,6.4,40.2,40.2,0,0,0-.5-6.4c-10.9,16.6-35,33.9-56.7,41.1Z" transform="translate(249.2 230.4)" style="fill:#26406a;fill-rule:evenodd"/><path d="M-153.6-23.1a29.6,29.6,0,0,0,1.8-9.1h0a29.6,29.6,0,0,1-1.8,9.1Z" transform="translate(249.2 230.4)" style="fill:#26406a;fill-rule:evenodd"/><path d="M-181.4-166.8l.9-7.7h0l-.9,7.7Z" transform="translate(249.2 230.4)" style="fill:#26406a;fill-rule:evenodd"/><path d="M-109.8-7.2l-.5.3C-110.2-6.8-110-6.9-109.8-7.2Z" transform="translate(249.2 230.4)" style="fill:#26406a;fill-rule:evenodd"/><path d="M-181.7-123.8l-16.8,9.7h0l16.8-9.7Z" transform="translate(249.2 230.4)" style="fill:#26406a;fill-rule:evenodd"/><path d="M-191.6-129.7h0a2.5,2.5,0,0,1,0,.4A2.5,2.5,0,0,0-191.6-129.7Z" transform="translate(249.2 230.4)" style="fill:#26406a;fill-rule:evenodd"/><path d="M-191.3-100.6l28.2-12.5h0l-28.2,12.5Z" transform="translate(249.2 230.4)" style="fill:#26406a;fill-rule:evenodd"/><path d="M-191.9-48.4q0-.8,0-1.7c-10.8,4.8-15.9,11.7-20.2,18.9h0c4.2-7.3,9.4-14.2,20.2-18.9Q-191.9-49.2-191.9-48.4Z" transform="translate(249.2 230.4)" style="fill:#26406a;fill-rule:evenodd"/><path d="M106.5,51.9a18.9,18.9,0,0,1-4.6-11.1C101.2,33.8,88.3,7,88.3,7h0s12.9,26.8,13.5,33.9a18.9,18.9,0,0,0,4.6,11.1l23.4,27h0Z" transform="translate(249.2 230.4)" style="fill:#26406a;fill-rule:evenodd"/><path d="M112.3.1h0S102.5-23.6,72-26.1,22.1-4.2-25.9-5.7C-63.9-7-82.2-25.1-88.3-32.7h0c6,7.6,24.4,25.7,62.3,26.9C22.1-4.2,41.5-28.5,72-26.1S112.3.1,112.3.1Z" transform="translate(249.2 230.4)" style="fill:#26406a;fill-rule:evenodd"/><path d="M230.4,110.5c-8.6-28.3-16.9-67.4-16.9-67.4S191.3,8.9,175.6-11.1,148.2-45,124.2-54.9,61.7-69.3,61.7-69.3s-19.6,4-58,3.2-71-19.6-71-19.6A25.1,25.1,0,0,0-71.7-91c-3.2-3.2-8.1-6.2-15.6-10.3s-13.7-12.5-13.7-12.5a25.6,25.6,0,0,0,5.7-2.9c2.9-2,7.2-7.2,7.2-7.2s-3.5-2.5-14.6-10a95.4,95.4,0,0,1-18.9-17.2l-8.2-2.2A235.1,235.1,0,0,0-147-171.5c-11.6-11.3-22.1-19.9-22.1-19.9a33,33,0,0,0-5.4-1.3l-10.8-2.2L-198.5-208a315.5,315.5,0,0,0-25.2-21.9,15,15,0,0,0-4.4-.5,13.2,13.2,0,0,0-5.2,1.5s-.9.7-3.3,4.7-7,13.4-7,13.4v9.7l3,10.7-6.8.6a36.4,36.4,0,0,0-1.6,6.8,45.9,45.9,0,0,0-.4,7.4l16.5,24.9,4,29.9c-5.3,30.8-5.9,54.5.3,68a67.4,67.4,0,0,1,7.7-15.4c-3.9,26.3-2.6,48.4,8.3,62.8a53.1,53.1,0,0,1,3.1-10.8c7,29.4,18.2,54.6,39.6,70a32.4,32.4,0,0,1-.2-12.6c7.5,14.2,17.7,25,33.4,29.4l14.8,18.3V83.7l7.2,7.5s1.2,10.2,2.3,19.9a217.2,217.2,0,0,0,4.3,22.8l-.8,45.7-4.6,7.9-4.3.5a35.6,35.6,0,0,1-10-.9l-2.6,2.5c-2.6,2.5-11.5,17.4-11.5,17.4l9.2,2.9-3.5,6.6s-.2,5.4,7.1,10,14.5,4.2,22.2,2.3,20.6-3.2,20.6-3.2,2-6.3,4.9-14.2a48.2,48.2,0,0,1,8.6-14s0-1.5,1.5-10.8S-59.7,136-59.7,136s-1.5-4.6-2.5-19.7.9-35.3.9-35.3,6.6,2.3,19.7,4.5,16.3.9,16.3.9l-7.7-6.2s12.6,1.5,28.9,2.8,27.4-4.9,27.4-4.9L11.8,75.4l19.7-2.5S37,83.1,56.1,103.1a99.3,99.3,0,0,0,13.6,11.7l8,15.3-26.2,52-15.1.9s-6.8,8-8.6,13.5a48.3,48.3,0,0,0-2.2,8l33.3,1.2s3.4-8.3,9.2-12.3,15.4-5.9,15.4-5.9,3.4-9.2,9.2-22.8c4.5-10.3,11.8-23.4,15-29l5.3,15.9-20,40.3-18.2,2.8-4.6,5.8c-4.6,5.9-10.8,21.9-10.8,21.9s6.8,5.5,25.9,7.4,24.9-2.2,24.9-2.2a126.2,126.2,0,0,1,8.6-12.3,74.1,74.1,0,0,1,8.3-8.6l33.9-69-.3-14.8-16.9-18.8-7.1-33.6,8.3-23.4,8.9,20,3.4-4-.6,6.5s.9,5.9,6.2,16.3S181.7,117,181.7,117l3.4-9.5,2.2,15.1s4,4.3,21.6,20.3a168.6,168.6,0,0,0,37.3,25.2S239,138.8,230.4,110.5Zm-25.1-.7c-5.9-13.2-14.5-44-14.5-44l-9.5,15.7-1.2-31.4L169.9,31.6l-9.5,9.5s1.5-4.6,0-14.2S153,4.8,153,4.8l-4.9-6.2c-1.2-4.7-2.6-9.7-4.3-14.5-5.8-16.3-15.1-21.9-15.1-21.9s8,7.4,12,26.8l5.5,26.8L127.1,67.5l2.6,10.6,7.6,31.3L153.9,127l-1.2,11.1s-10.8,20.9-20.3,40.6-12,24.3-12,24.3a66.6,66.6,0,0,0-7.4,9.2c-3.7,5.5-7.4,10.2-7.4,10.2s-6.2.4-13.2.2c1.2-4,3.2-10.4,4.6-13.3l9.5-4.7-11.9,4.1a58,58,0,0,0-4.3,8.5c-.9,2.2-1.5,4-2,5.3l-5-.5c1.2-3.8,3.4-11.3,5-14.6l9.5-4.7-11.9,4.1a58.1,58.1,0,0,0-4.3,8.5c-1.1,2.6-1.8,4.6-2.2,6l-2.8-.6c1.1-3.7,3.4-11.5,5.1-14.9l9.5-4.7-11.9,4.1a58.1,58.1,0,0,0-4.3,8.5c-1.1,2.5-1.7,4.5-2.2,5.9a17.2,17.2,0,0,1-3.3-1.4,55.1,55.1,0,0,1,7.7-14.8l18.2-5.5,24-46.5a37.7,37.7,0,0,1-3.7-11.7c-.6-5.9-4.9-12.9-14.2-19.1S68.3,95.3,48.3,66.6,27.3,16.4,27.3,16.4s-.6,7.7,2.2,20.9S35,57.1,35,57.1,11.9,62.8-7.6,59.5s-23.9-6-23.9-6,3.4,5.2,7.1,7.5l3.7,2.3s-8.5.9-19.1-3.7S-52.9,52-52.9,52s3.2-8.8,3.5-16.3a44.8,44.8,0,0,0-1.4-13.2,96.3,96.3,0,0,1-6,22.3,128.5,128.5,0,0,1-8.9,17.9s-2.9,20.6-3.7,38.8a139.8,139.8,0,0,0,2.9,33.9s-2.9,12.8-5.2,22.2-9.1,39.4-9.1,39.4-7,10.5-8.2,14.2-2.2,7.9-2.8,8.4-7.9.9-13.3,2.3-10.7,2.2-15.5,1.5a45.1,45.1,0,0,1,3-7.1c2.2-3.8,2.6-4.3,2.6-4.3s4.1-2.9,12.4-5.9c0,0-6.6,1.3-9.2,2a13.8,13.8,0,0,0-4.4,2.1,34.9,34.9,0,0,0-5.9,8.1c-1,2-1.6,3.3-2,4.2a12.2,12.2,0,0,1-2.6-1.6,52.7,52.7,0,0,1,3.6-9c2.1-3.6,2.5-4.2,2.5-4.2a53.6,53.6,0,0,1,11.9-5.6s-6.3,1.2-8.9,1.9a13.3,13.3,0,0,0-4.2,2,33.5,33.5,0,0,0-5.6,7.8,47,47,0,0,0-2,4.3,20.2,20.2,0,0,1-1.9-2.8s5.6-9.5,9.6-12.1,13.5-3.7,13.5-3.7l10.2-8.2s4.5-28.9,1.7-53.7-5.7-36.8-5.7-36.8a46,46,0,0,1,5.1,10.2c2.3,6.3,2.8,8.3,2.8,8.3s2.2-15.4-4.6-23.9-17.7-18-20.5-22.3l-4.8-7.5a25,25,0,0,0-1.8,10.9c-9-9.3-16-23.5-17.6-50.5-4,14.4-2.6,26.8,3.2,37.6-17-8.3-26.6-22.8-32.5-40.5a46.4,46.4,0,0,0-2.9,18.9c-13.7-16.9-25.8-37.2-31.7-70.4a53.6,53.6,0,0,0-6.6,12.6c-2.8-19-4.6-38.8-.8-63.1a21.9,21.9,0,0,0-12,13.1c-2.2-15.1,0-34,4-54.4l-5.5-33.3L-244-176.9s-.3-5.9,1-9.2l7.4.4,15.2,12.9-.5-15.7s-4.4-8-7.6-11.2l-4.4-4.3-1.1-5.8-2,5-2.7,2.4-.5-6.2a31.9,31.9,0,0,1,2.1-5.1,15,15,0,0,1,2.2-3.1,32.4,32.4,0,0,0,.7,4.2c.4,1.2.6,1.3.6,1.3s4.9-1.1,9.8-1.6,6.5-.5,6.5-.5l.2-4.3s21.9,19.6,29.4,26.5c4.8,4.4,10.4,10.3,13.8,14h0l3.2,3.4v-2l5.6,4.2.6-3.2a32.2,32.2,0,0,0-3.4-7.2,45.6,45.6,0,0,0-3.3-4.9c1.9,1.6,10.7,8.8,20.6,18.6s13.2,14,13.2,14a19.9,19.9,0,0,0-6.2-.1c-2.9.5-3.7,1.2-3.7,1.2a49.6,49.6,0,0,1,12.3,2.6,88,88,0,0,1,9.9,3.8s11.5,11.2,18.2,16.6a76.3,76.3,0,0,0,11,7.5,37.9,37.9,0,0,1-16.4,8.9c-10,2.5-15.5,1.3-15.5,1.3s-4.5-6.7-7.3-9.9a44.5,44.5,0,0,1-3.4-4.2l-.2-4,6.8,6-2.8-9.7,11.7,9.5-.6-4,10.8,4.3-1.2-3.8,12.9,4.9-17.1-10.9.9,5.5-12.5-11.9,1.5,7.4-9.9-9.7.3,9.4-4-3.7a87,87,0,0,1-8.9,40.3,59.4,59.4,0,0,0-1.5-18.1,46.8,46.8,0,0,1-16,20.4h0a41.3,41.3,0,0,1-5.3,3.3,40.8,40.8,0,0,0,4.8-14.2c-8.2,8-19.9,9.1-32,9.4,3.4-2.8,6.7-5.5,8.6-12.5a31.5,31.5,0,0,1-16,2c11.7-9.5,9.6-21,.8-33.4,4.4,17.2,1.9,28.6-6.3,35.1,4.3,2.7,9,3,13.9,1.8a31.1,31.1,0,0,1-8.5,8.7c10.2,3.3,24,2.2,32.3-1.8-1.4,6.2-3.8,9.9-6.9,12.9,8.2-.2,15.1-3.7,21-9.6a56.8,56.8,0,0,0,7.6-9.8,56,56,0,0,1-.8,14.3c7.6-3.9,12.4-13.5,15.9-25.9,3,16.3-1.3,28.5-10.6,37.9.8-3.5,1.4-7.1-.3-11.4-6.7,9.5-15,15-24,18.9A23.5,23.5,0,0,0-169.7-81a114.4,114.4,0,0,1-13.8,8.6h0c-11.7,6.3-21.2,10.6-24.7,23.4l.7-1h0c6.7-10.3,17.4-15.8,29.5-20.5a33.1,33.1,0,0,1-3.2,7.5c11.9-1.7,21.3-7.7,29.3-16.3a30.9,30.9,0,0,1-3.2,11.4c17.1-10.1,23.8-21.5,28.3-33.3l5.1-.3a28.7,28.7,0,0,0,16.9-8.2C-95.4-95.8-71.3-87.8-65.5-73A44.5,44.5,0,0,0-78-80.9c3.5,14.3,1.6,26.3-.6,38.2a29.9,29.9,0,0,0-7.5-13.7c-2.7,12.1-7.5,21.9-12.8,31.1a25.5,25.5,0,0,0-2-11.5c-11.1,14.6-23.3,9.6-32.5,34.5l.7-1.2-4.1,8.2c-3.4-5.2-5-11.4-5.2-18.5.2,7.1,1.9,13.3,5.2,18.5l4.1-8.2a60.5,60.5,0,0,1,5.8-7.9h-.1l.8-.8.2-.2.9-.9.2-.2,2.7-2.4h.1l.6-.5h-.1c6.6-4.8,11.7-4,17.1-10.1.9,2.5-3.4,16.8-5.2,19.1,10.9-4.9,17.5-14.2,21.7-25.9A99,99,0,0,0-84.7-45,38.2,38.2,0,0,1-81-27.3c11.7-15.3,10.4-29.8,9.2-44.3a35.6,35.6,0,0,1,10.9,9.2,23.6,23.6,0,0,0-1.8-13.5S-35.5-59.8,4.9-59.2s57.9-3.4,57.9-3.4,50.8,7.4,68.7,17.6,19.4,13.2,19.4,13.2S163.4-17,179.5,3.3a382.6,382.6,0,0,1,28.9,43.4s13.7,65.9,18.2,82.5,6.2,23.9,6.2,23.9l-15.3-14.6C212.6,126.8,207.7,115.3,205.3,109.8Z" transform="translate(249.2 230.4)" style="fill:#26406a;fill-rule:evenodd"/><path d="M104.6,18.7h0L99.4,5.4,82.6-12h0L99.4,5.4Z" transform="translate(249.2 230.4)" style="fill:#26406a;fill-rule:evenodd"/><path d="M-165-50.5h0c-8.6,9.1-19.7,13.3-30.8,17.4h0C-184.7-37.3-173.6-41.4-165-50.5Z" transform="translate(249.2 230.4)" style="fill:#26406a;fill-rule:evenodd"/><path d="M-163-8.2c-11.2,5.4-15.2,12.6-19.7,19.7h0c4.5-7.1,8.5-14.3,19.7-19.7Z" transform="translate(249.2 230.4)" style="fill:#26406a;fill-rule:evenodd"/><path d="M-142-16.8A131.4,131.4,0,0,0-160.8,9.6a24.6,24.6,0,0,1-2.6-12.2,24.6,24.6,0,0,0,2.6,12.2A131.4,131.4,0,0,1-142-16.8Z" transform="translate(249.2 230.4)" style="fill:#26406a;fill-rule:evenodd"/></svg>