<svg id="Layer_1" data-name="Layer 1" xmlns="http://www.w3.org/2000/svg" viewBox="0 0 512.2 474.5"><title>Wolves927_4c2</title><path d="M-126-159.3c-5-5.9-10.9-11.8-16.3-17-7.2-7-14.8-13.9-22.5-20.3l-.4-.4-.5-.3c-1.8-1-5.4-1.7-7.4-2.1l-8.8-1.8-11.7-11.7a282.7,282.7,0,0,0-25.8-22.5l-1-.8-1.2-.4a21.7,21.7,0,0,0-6.6-.8,19.5,19.5,0,0,0-8.3,2.3l-.4.2-.4.3c-1.9,1.5-3.8,4.6-5,6.6-2.6,4.4-5,9.3-7.3,13.9l-.7,1.5v12.2l.2.9.8,2.8-2.9.3-1.5,4.1a41.3,41.3,0,0,0-2,8.2,49.2,49.2,0,0,0-.4,8.6v1.9l1.1,1.6,15.6,23.6,3.7,27.3c-3.4,20.2-7.6,52.2,1,71l5.2,11.3c.6,13.6,3.6,27,11.6,37.4l9.4,12.3v-.4c7.1,19,17.8,36.5,34.6,48.7l14,10.1-.9-4.6a54.2,54.2,0,0,0,20.1,11.7L-127,93.2l6.9,8.6,1.1,10a183.8,183.8,0,0,0,4.3,22.8l-.7,43-2,3.3h-.9a26.2,26.2,0,0,1-7.7-.8l-3.6-.9-2.7,2.6-2.6,2.5c-2.4,2.3-5.1,6.7-7,9.5s-3.9,6.2-5.8,9.3l-4.4,7.4,8.2,2.6,1.4.4-.4.8v1.6c-.2,6.6,5,12.6,10.2,16,8.8,5.6,17.7,5.5,27.4,3.2a162.8,162.8,0,0,1,19.8-3.1l4.4-.5,1.3-4.3c1.5-4.6,3.1-9.3,4.8-13.8a39.8,39.8,0,0,1,7.2-11.8l1.8-2v-2.5c.2-3.1.9-6.8,1.4-9.8s1.3-6.4,2-9.6c1.1-4.8,2.1-9.6,3.2-14.4q3-13,6.1-26l.5-1.9-.6-1.8a31.1,31.1,0,0,1-.8-3.9c-.7-4.6-1.1-9.4-1.4-14.1a210.7,210.7,0,0,1,.3-26c4.2,1,8.6,1.7,12.4,2.4s15.2,2.3,19.9.6l9.7-3.7,8.7.7c9.6.7,22.6-1,31.2-5.8l2.9-1.6,1.6,2.1a259,259,0,0,0,20,23.2,103.5,103.5,0,0,0,13.2,11.5L70,130.1,47.2,175.5l-14.1.9-1.9,2.2c-3.5,4.2-8.2,10.6-9.9,15.8a53.1,53.1,0,0,0-2.5,9.3l-.9,7.4,38.3,1.4c-1.2,2.7-2.2,5.4-3.1,7.6l-1.8,4.6,3.8,3.1c6.8,5.5,21.3,8.1,29.5,8.9s22.7,1.3,29.5-3.3l1.2-.8.8-1.2a102.4,102.4,0,0,1,8.1-11.5,63.4,63.4,0,0,1,7.4-7.7l1.1-.9.6-1.3,33.9-69,.7-1.5v-1.7l-.3-14.8v-2.5l-1.7-1.9-15.7-17.4-6.3-29.9,2-5.5,2,4.4,4.4,9.9.4-.4c1.3,3.5,2.9,6.9,4.3,9.6,2.3,4.6,5,9.1,7.7,13.5,3.7,6.1,7.6,12.1,11.5,18l7.6,11.4.9-2.6,2.2,2.1c5.7,5.5,11.6,10.9,17.5,16.3a168.4,168.4,0,0,0,26.2,19.4,138.9,138.9,0,0,0,12.8,7l12.9,6-3.3-13.8c-4.7-19.4-10-38.9-15.8-58-1.8-5.9-3.5-11.9-5.1-18-4.3-16.1-8.2-32.6-11.7-48.9l-.3-1.2-.7-1.1c-7.9-12.1-16-24.2-24.4-35.9-4.5-6.3-9.1-12.6-13.9-18.8-16.4-20.9-29-35.5-54.2-45.8a162.7,162.7,0,0,0-20.5-6.6,333.5,333.5,0,0,0-43.8-8.3H61.4l-1.1.2a133.9,133.9,0,0,1-14.1,1.8A380.7,380.7,0,0,1,3.8-72.9c-16.2-.3-32.5-4-47.6-9.6a143.6,143.6,0,0,1-18.7-8.3A39.2,39.2,0,0,0-67-95.9c-4.7-4.6-11.4-8.3-17.1-11.4a31.5,31.5,0,0,1-6.2-4.6,53.2,53.2,0,0,0,7.4-7.7l4.5-5.6-5.9-4.2c-4.8-3.5-9.9-6.8-14.8-10.1a84.8,84.8,0,0,1-17.3-15.8l-1.4-1.7-2.1-.6-6.1-1.7" transform="translate(256.1 237.2)" style="fill:#c3c7c7;fill-rule:evenodd"/><path d="M-249.2-175.7a45.9,45.9,0,0,1,.4-7.4,36.4,36.4,0,0,1,1.6-6.8l6.8-.6-3-10.7v-9.7s4.6-9.4,7-13.4,3.3-4.7,3.3-4.7a13.2,13.2,0,0,1,5.2-1.5,15,15,0,0,1,4.4.5A315.5,315.5,0,0,1-198.5-208l13.2,13.1,10.8,2.2a33,33,0,0,1,5.4,1.3s10.5,8.6,22.1,19.9a235.1,235.1,0,0,1,17.2,18.2l8.2,2.2a95.4,95.4,0,0,0,18.9,17.2c11.1,7.5,14.6,10,14.6,10s-4.2,5.2-7.2,7.2a25.6,25.6,0,0,1-5.7,2.9s6.2,8.4,13.7,12.5S-75-94.1-71.7-91a25.1,25.1,0,0,1,4.4,5.3s32.5,18.8,71,19.6,58-3.2,58-3.2,38.5,4.6,62.5,14.5,35.7,23.7,51.4,43.7,37.9,54.2,37.9,54.2,8.3,39.1,16.9,67.4,15.7,57.6,15.7,57.6a168.6,168.6,0,0,1-37.3-25.2c-17.6-16-21.6-20.3-21.6-20.3l-2.2-15.1-3.4,9.5S168.2,96.6,163,86.2s-6.2-16.3-6.2-16.3l.6-6.5-3.4,4-8.9-20-8.3,23.4,7.1,33.6,16.9,18.8.3,14.8-33.9,69a74.1,74.1,0,0,0-8.3,8.6,126.2,126.2,0,0,0-8.6,12.3s-5.9,4-24.9,2.2-25.9-7.4-25.9-7.4,6.2-16,10.8-21.9l4.6-5.8,18.2-2.8,20-40.3-5.3-15.9c-3.2,5.6-10.6,18.6-15,29-5.9,13.5-9.2,22.8-9.2,22.8s-9.5,1.8-15.4,5.9-9.2,12.3-9.2,12.3l-33.3-1.2a48.3,48.3,0,0,1,2.2-8c1.8-5.5,8.6-13.5,8.6-13.5l15.1-.9,26.2-52-8-15.3a99.3,99.3,0,0,1-13.6-11.7C37,83.1,31.5,72.9,31.5,72.9L11.8,75.4l11.7,2.8S12.4,84.3-3.9,83.1s-28.9-2.8-28.9-2.8l7.7,6.2s-3.2,1.2-16.3-.9-19.7-4.5-19.7-4.5-1.8,20.2-.9,35.3,2.5,19.7,2.5,19.7-9.9,41.3-11.4,50.5-1.5,10.8-1.5,10.8a48.2,48.2,0,0,0-8.6,14c-2.9,7.9-4.9,14.2-4.9,14.2s-12.9,1.4-20.6,3.2-14.9,2.3-22.2-2.3-7.1-10-7.1-10l3.5-6.6-9.2-2.9s8.9-14.9,11.5-17.4l2.6-2.5a35.6,35.6,0,0,0,10,.9l4.3-.5,4.6-7.9.8-45.7a217.2,217.2,0,0,1-4.3-22.8c-1.1-9.7-2.3-19.9-2.3-19.9l-7.2-7.5v5.2l-14.8-18.3c-15.7-4.4-26-15.2-33.4-29.4a32.4,32.4,0,0,0,.2,12.6c-21.4-15.4-32.6-40.7-39.6-70a53.1,53.1,0,0,0-3.1,10.8c-10.9-14.4-12.2-36.5-8.3-62.8a67.4,67.4,0,0,0-7.7,15.4c-6.2-13.5-5.6-37.3-.3-68l-4-29.9-16.5-24.9" transform="translate(256.1 237.2)" style="fill:#050000;fill-rule:evenodd"/><path d="M-243-186.2l7.4.4,15.2,12.9-.5-15.7s-4.4-8-7.6-11.2l-4.4-4.3-1.1-5.8-2,5-2.7,2.4-.5-6.2a31.9,31.9,0,0,1,2.1-5.1,15,15,0,0,1,2.2-3.1,32.4,32.4,0,0,0,.7,4.2c.4,1.2.6,1.3.6,1.3s4.9-1.1,9.8-1.6,6.5-.5,6.5-.5l.2-4.3s21.9,19.6,29.4,26.5,16.9,17.4,16.9,17.4v-4.2l-6-10,5.2.8s9.7,7.8,21,18.9,13.2,14,13.2,14a19.9,19.9,0,0,0-6.2-.1c-2.9.5-3.7,1.2-3.7,1.2a49.6,49.6,0,0,1,12.3,2.6,88,88,0,0,1,9.9,3.8s11.5,11.2,18.2,16.6a76.3,76.3,0,0,0,11,7.5,37.9,37.9,0,0,1-16.4,8.9c-10,2.5-15.5,1.3-15.5,1.3s-4.5-6.7-7.3-9.9a44.5,44.5,0,0,1-3.4-4.2l-.2-4,6.8,6-2.8-9.7,11.7,9.5-.6-4,10.8,4.3-1.2-3.8,12.9,4.9-17.1-10.9.9,5.5-12.5-11.9,1.5,7.4-9.9-9.7.3,9.4-4-3.7a87,87,0,0,1-8.9,40.3,59.4,59.4,0,0,0-1.5-18.1,46.2,46.2,0,0,1-21.3,23.7,40.8,40.8,0,0,0,4.8-14.2c-8.2,8-19.9,9.1-32,9.4,3.4-2.8,6.7-5.5,8.6-12.5a31.5,31.5,0,0,1-16,2c11.7-9.5,9.6-21,.8-33.4,4.4,17.2,1.9,28.6-6.3,35.1,4.3,2.7,9,3,13.9,1.8a31.1,31.1,0,0,1-8.5,8.7c10.2,3.3,24,2.2,32.3-1.8-1.4,6.2-3.8,9.9-6.9,12.9,12-.3,21.2-7.6,28.6-19.4a56,56,0,0,1-.8,14.3c7.6-3.9,12.4-13.5,15.9-25.9,3,16.3-1.3,28.5-10.6,37.9.8-3.5,1.4-7.1-.3-11.4-6.7,9.5-15,15-24,18.9A23.5,23.5,0,0,0-169.7-81c-17.6,13-33.7,14.3-38.5,32,6.7-11,17.7-16.8,30.2-21.6a33.1,33.1,0,0,1-3.2,7.5c11.9-1.7,21.3-7.7,29.3-16.3a30.9,30.9,0,0,1-3.2,11.4c17.1-10.1,23.8-21.5,28.3-33.3l5.1-.3a28.7,28.7,0,0,0,16.9-8.2C-95.4-95.8-71.3-87.8-65.5-73A44.5,44.5,0,0,0-78-80.9c3.5,14.3,1.6,26.3-.6,38.2a29.9,29.9,0,0,0-7.5-13.7c-2.7,12.1-7.5,21.9-12.8,31.1a25.5,25.5,0,0,0-2-11.5c-11.1,14.6-23.3,9.6-32.5,34.5,13-21.5,20.5-14.7,28.8-24,1,2.8-4.7,20.8-5.7,19.4,14.8-6.3,21.7-20.6,25.6-38A38.2,38.2,0,0,1-81-27.3c11.7-15.3,10.4-29.8,9.2-44.3a35.6,35.6,0,0,1,10.9,9.2,23.6,23.6,0,0,0-1.8-13.5S-35.5-59.8,4.9-59.2s57.9-3.4,57.9-3.4,50.8,7.4,68.7,17.6,19.4,13.2,19.4,13.2S163.4-17,179.5,3.3a382.6,382.6,0,0,1,28.9,43.4s13.7,65.9,18.2,82.5,6.2,23.9,6.2,23.9-14.2-13.7-25.1-23.9-14.5-14.9-14.5-14.9-1.5-3.7-3.2-16.6-1.7-16.5-1.7-16.5-2.8,5.5-5.4,11.2a56,56,0,0,0-3.5,9.7A155.1,155.1,0,0,1,170.5,86a103.8,103.8,0,0,1-6.5-16.5s.6-13.4,1.2-20.8l.6-7.4a75,75,0,0,0-7.1,9.4,33.6,33.6,0,0,0-3.7,7.5L150,33.8l2-14.9S149.6.4,143.7-15.9s-15.1-21.9-15.1-21.9,8,7.4,12,26.8l5.5,26.8L127.1,67.5l10.2,41.9L153.9,127l-1.2,11.1s-10.8,20.9-20.3,40.6-12,24.3-12,24.3a66.6,66.6,0,0,0-7.4,9.2c-3.7,5.5-7.4,10.2-7.4,10.2s-6.2.4-13.2.2c1.2-4,3.2-10.4,4.6-13.3l9.5-4.7-11.9,4.1a58,58,0,0,0-4.3,8.5c-.9,2.2-1.5,4-2,5.3l-5-.5c1.2-3.8,3.4-11.3,5-14.6l9.5-4.7-11.9,4.1a58.1,58.1,0,0,0-4.3,8.5c-1.1,2.6-1.8,4.6-2.2,6l-2.8-.6c1.1-3.7,3.4-11.5,5.1-14.9l9.5-4.7-11.9,4.1a58,58,0,0,0-4.3,8.5c-1.1,2.5-1.7,4.5-2.2,5.9a17.2,17.2,0,0,1-3.3-1.4,55.1,55.1,0,0,1,7.7-14.8l18.2-5.5,24-46.5a37.7,37.7,0,0,1-3.7-11.7c-.6-5.9-4.9-12.9-14.2-19.1S68.3,95.3,48.3,66.6,27.3,16.4,27.3,16.4s-.6,7.7,2.2,20.9S35,57.1,35,57.1,11.9,62.8-7.6,59.5s-23.9-6-23.9-6,3.4,5.2,7.1,7.5l3.7,2.3s-8.5.9-19.1-3.7S-52.9,52-52.9,52s3.2-8.8,3.5-16.3a44.8,44.8,0,0,0-1.4-13.2,96.3,96.3,0,0,1-6,22.3,128.5,128.5,0,0,1-8.9,17.9s-2.9,20.6-3.7,38.8a139.8,139.8,0,0,0,2.9,33.9s-2.9,12.8-5.2,22.2-9.1,39.4-9.1,39.4-7,10.5-8.2,14.2-2.2,7.9-2.8,8.4-7.9.9-13.3,2.3-10.7,2.2-15.5,1.5a45.1,45.1,0,0,1,3-7.1c2.2-3.8,2.6-4.3,2.6-4.3s4.1-2.9,12.4-5.9c0,0-6.6,1.3-9.2,2a13.8,13.8,0,0,0-4.4,2.1,34.9,34.9,0,0,0-5.9,8.1c-1,2-1.6,3.3-2,4.2a12.2,12.2,0,0,1-2.6-1.6,52.7,52.7,0,0,1,3.6-9c2.1-3.6,2.5-4.2,2.5-4.2a53.6,53.6,0,0,1,11.9-5.6s-6.3,1.2-8.9,1.9a13.3,13.3,0,0,0-4.2,2,33.5,33.5,0,0,0-5.6,7.8,47,47,0,0,0-2,4.3,20.2,20.2,0,0,1-1.9-2.8s5.6-9.5,9.6-12.1,13.5-3.7,13.5-3.7l10.2-8.2s4.5-28.9,1.7-53.7-5.7-36.8-5.7-36.8a46,46,0,0,1,5.1,10.2c2.3,6.3,2.8,8.3,2.8,8.3s2.2-15.4-4.6-23.9-17.7-18-20.5-22.3l-4.8-7.5a25,25,0,0,0-1.8,10.9c-9-9.3-16-23.5-17.6-50.5-4,14.4-2.6,26.8,3.2,37.6-17-8.3-26.6-22.8-32.5-40.5a46.4,46.4,0,0,0-2.9,18.9c-13.7-16.9-25.8-37.2-31.7-70.4a53.6,53.6,0,0,0-6.6,12.6c-2.8-19-4.6-38.8-.8-63.1a21.9,21.9,0,0,0-12,13.1c-2.2-15.1,0-34,4-54.4l-5.5-33.3L-244-176.9s-.3-5.9,1-9.2" transform="translate(256.1 237.2)" style="fill:#fff;fill-rule:evenodd"/><path d="M-88.3-32.6c6,7.6,24.4,25.7,62.3,26.9C22.1-4.2,41.5-28.5,72-26.1S112.3.1,112.3.1a55.9,55.9,0,0,0-17-9.4c-9.5-3-12.7-2.7-12.7-2.7L99.4,5.4l5.2,13.2L88.3,7s12.9,26.8,13.5,33.9a18.9,18.9,0,0,0,4.6,11.1l23.4,27-2.8-11.3,19.1-51.7L140.7-11c-4-19.4-12-26.8-12-26.8s9.2,5.5,15.1,21.9c1.7,4.8,3.2,9.9,4.3,14.5L153,4.8s5.9,12.6,7.4,22.2,0,14.2,0,14.2l9.5-9.5,10.2,18.5,1.2,31.4,9.5-15.7s8.6,30.8,14.5,44c2.4,5.5,7.3,17,12.1,28.7l15.3,14.6s-1.7-7.2-6.2-23.9-18.2-82.5-18.2-82.5A382.6,382.6,0,0,0,179.5,3.3c-16-20.3-28.6-35.1-28.6-35.1s-1.5-3.1-19.4-13.2S62.8-62.5,62.8-62.5s-17.6,4-57.9,3.4S-62.7-75.9-62.7-75.9a23.6,23.6,0,0,1,1.8,13.5,35.6,35.6,0,0,0-10.9-9.2c1.2,14.5,2.4,29-9.2,44.3A38.2,38.2,0,0,0-84.7-45a98,98,0,0,1-3.5,12.3M-127-11.3l5.4-5.1A32.5,32.5,0,0,0-127-11.3Zm-80.5-38.8-4.6,18.9c4.2-7.3,9.4-14.2,20.2-18.9.3,9.3-1.7,13.4-3.8,16.9,11.1-4.1,22.2-8.3,30.8-17.4-.6,8.3-2.8,14.1-5.8,18.3,21.6-7.2,45.7-24.5,56.7-41.1,2.8,16.5-5.6,38.9-15.9,43.3,2.5-3.3,4.8-7.8,6.5-16-7.9,9.7-18.8,16.5-30,22.9a29.6,29.6,0,0,0,1.8-9.1c-23.8,10.8-27.9,27.1-30.9,43.7,4.5-7.1,8.5-14.3,19.7-19.7-1.1,8.2,0,13.7,2.2,17.9A131.4,131.4,0,0,1-142-16.8c-.2,8.4,1.4,15.6,5.2,21.6l4.1-8.2-.7,1.2c9.2-24.9,21.4-19.9,32.5-34.5a25.5,25.5,0,0,1,2,11.5c5.3-9.2,10.1-19,12.8-31.1a29.9,29.9,0,0,1,7.5,13.7c2.2-11.9,4.1-23.9.6-38.2A44.5,44.5,0,0,1-65.5-73c-5.8-14.8-29.9-22.8-39.4-36.6a28.7,28.7,0,0,1-16.9,8.2l-5.1.3c-4.5,11.7-11.2,23.2-28.3,33.3A30.9,30.9,0,0,0-152-79.3c-8,8.7-17.4,14.6-29.3,16.3a33.1,33.1,0,0,0,3.2-7.5C-190.1-65.9-200.8-60.3-207.5-50.1Zm45.7-43.2a28.1,28.1,0,0,1-2.1,5.3c-2.6,5.1-4.2,6.6-4.2,6.6l-.3-4.8s-4.6,4.5-10.9,9.9l-4.3,3.8A114.4,114.4,0,0,0-169.7-81,23.5,23.5,0,0,1-174-69.2c9-3.9,17.3-9.4,24-18.9,1.7,4.3,1.1,7.9.3,11.4,9.3-9.3,13.6-21.6,10.6-37.9-3.5,12.4-8.3,21.9-15.9,25.9a56,56,0,0,0,.8-14.3A56.7,56.7,0,0,1-161.8-93.2Zm-9.3-93.8a45.6,45.6,0,0,1,3.3,4.9,32.2,32.2,0,0,1,3.4,7.2l-.6,3.2-5.6-4.2v2l-3.2-3.4-.5,3.8a6.8,6.8,0,0,1-2.2,4.2,13.3,13.3,0,0,1-4.9,2.6l.9-7.7-1.4-5.2s-2.6,6.2-6.3,9.7-11.2,7.5-11.2,7.5a42.1,42.1,0,0,1,6.8,18.8l1.1,10.9v3.1s.5,2.3-2.5,8a46.9,46.9,0,0,1-4.5,7.5l16.8-9.7-9.5,23.2,28.2-12.5-5,18.2a46.8,46.8,0,0,0,16-20.4,59.4,59.4,0,0,1,1.5,18.1,87,87,0,0,0,8.9-40.3l4,3.7-.3-9.4,9.9,9.7-1.5-7.4,12.5,11.9-.9-5.5,17.1,10.9-12.9-4.9,1.2,3.8-10.8-4.3.6,4-11.7-9.5,2.8,9.7-6.8-6,.2,4a44.5,44.5,0,0,0,3.4,4.2c2.8,3.2,7.3,9.9,7.3,9.9s5.5,1.2,15.5-1.3A37.9,37.9,0,0,0-95.9-123a76.3,76.3,0,0,1-11-7.5c-6.8-5.3-18.2-16.6-18.2-16.6a88,88,0,0,0-9.9-3.8,49.6,49.6,0,0,0-12.3-2.6s.8-.6,3.7-1.2a19.9,19.9,0,0,1,6.2.1s-1.8-2.8-13.2-14S-169.2-185.5-171.2-187.1Z" transform="translate(256.1 237.2)" style="fill:#4d4f53;fill-rule:evenodd"/></svg>