<svg id="Layer_1" data-name="Layer 1" xmlns="http://www.w3.org/2000/svg" viewBox="0 0 495.3 460.9"><title>Wolves927_2c2</title><path d="M-249.2-175.7a45.9,45.9,0,0,1,.4-7.4,36.4,36.4,0,0,1,1.6-6.8l6.8-.6-3-10.7v-9.7s4.6-9.4,7-13.4,3.3-4.7,3.3-4.7a13.2,13.2,0,0,1,5.2-1.5,15,15,0,0,1,4.4.5A315.5,315.5,0,0,1-198.5-208l13.2,13.1,10.8,2.2a33,33,0,0,1,5.4,1.3s10.5,8.6,22.1,19.9a235.1,235.1,0,0,1,17.2,18.2l8.2,2.2a95.4,95.4,0,0,0,18.9,17.2c11.1,7.5,14.6,10,14.6,10s-4.2,5.2-7.2,7.2a25.6,25.6,0,0,1-5.7,2.9s6.2,8.4,13.7,12.5S-75-94.1-71.7-91a25.1,25.1,0,0,1,4.4,5.3s32.5,18.8,71,19.6,58-3.2,58-3.2,38.5,4.6,62.5,14.5,35.7,23.7,51.4,43.7,37.9,54.2,37.9,54.2,8.3,39.1,16.9,67.4,15.7,57.6,15.7,57.6a168.6,168.6,0,0,1-37.3-25.2c-17.6-16-21.6-20.3-21.6-20.3l-2.2-15.1-3.4,9.5S168.2,96.6,163,86.2s-6.2-16.3-6.2-16.3l.6-6.5-3.4,4-8.9-20-8.3,23.4,7.1,33.6,16.9,18.8.3,14.8-33.9,69a74.1,74.1,0,0,0-8.3,8.6,126.2,126.2,0,0,0-8.6,12.3s-5.9,4-24.9,2.2-25.9-7.4-25.9-7.4,6.2-16,10.8-21.9l4.6-5.8,18.2-2.8,20-40.3-5.3-15.9c-3.2,5.6-10.6,18.6-15,29-5.9,13.5-9.2,22.8-9.2,22.8s-9.5,1.8-15.4,5.9-9.2,12.3-9.2,12.3l-33.3-1.2a48.3,48.3,0,0,1,2.2-8c1.8-5.5,8.6-13.5,8.6-13.5l15.1-.9,26.2-52-8-15.3a99.3,99.3,0,0,1-13.6-11.7C37,83.1,31.5,72.9,31.5,72.9L11.8,75.4l11.7,2.8S12.4,84.3-3.9,83.1s-28.9-2.8-28.9-2.8l7.7,6.2s-3.2,1.2-16.3-.9-19.7-4.5-19.7-4.5-1.8,20.2-.9,35.3,2.5,19.7,2.5,19.7-9.9,41.3-11.4,50.5-1.5,10.8-1.5,10.8a48.2,48.2,0,0,0-8.6,14c-2.9,7.9-4.9,14.2-4.9,14.2s-12.9,1.4-20.6,3.2-14.9,2.3-22.2-2.3-7.1-10-7.1-10l3.5-6.6-9.2-2.9s8.9-14.9,11.5-17.4l2.6-2.5a35.6,35.6,0,0,0,10,.9l4.3-.5,4.6-7.9.8-45.7a217.2,217.2,0,0,1-4.3-22.8c-1.1-9.7-2.3-19.9-2.3-19.9l-7.2-7.5v5.2l-14.8-18.3c-15.7-4.4-26-15.2-33.4-29.4a32.4,32.4,0,0,0,.2,12.6c-21.4-15.4-32.6-40.7-39.6-70a53.1,53.1,0,0,0-3.1,10.8c-10.9-14.4-12.2-36.5-8.3-62.8a67.4,67.4,0,0,0-7.7,15.4c-6.2-13.5-5.6-37.3-.3-68l-4-29.9-16.5-24.9" transform="translate(249.2 230.4)" style="fill:#26406a;fill-rule:evenodd"/><path d="M-88.3-32.7c6,7.6,24.4,25.7,62.3,26.9C22.1-4.2,41.5-28.5,72-26.1S112.3.1,112.3.1a55.9,55.9,0,0,0-17-9.4c-9.5-3-12.7-2.7-12.7-2.7L99.4,5.4l5.2,13.2L88.3,7s12.9,26.8,13.5,33.9a18.9,18.9,0,0,0,4.6,11.1l23.4,27-2.8-11.3,19.1-51.7L140.7-11c-4-19.4-12-26.8-12-26.8s9.2,5.5,15.1,21.9c1.7,4.8,3.2,9.9,4.3,14.5L153,4.8s5.9,12.6,7.4,22.2,0,14.2,0,14.2l9.5-9.5,10.2,18.5,1.2,31.4,9.5-15.7s8.6,30.8,14.5,44c2.4,5.5,7.3,17,12.1,28.7l15.3,14.6s-1.7-7.2-6.2-23.9-18.2-82.5-18.2-82.5A382.6,382.6,0,0,0,179.5,3.3c-16-20.3-28.6-35.1-28.6-35.1s-1.5-3.1-19.4-13.2S62.8-62.5,62.8-62.5s-17.6,4-57.9,3.4S-62.7-75.9-62.7-75.9a23.6,23.6,0,0,1,1.8,13.5,35.6,35.6,0,0,0-10.9-9.2c1.2,14.5,2.4,29-9.2,44.3A38.2,38.2,0,0,0-84.7-45a98,98,0,0,1-3.5,12.3" transform="translate(249.2 230.4)" style="fill:#26406a;fill-rule:evenodd"/><path d="M-127-11.3l5.4-5.1A32.5,32.5,0,0,0-127-11.3Z" transform="translate(249.2 230.4)" style="fill:#26406a;fill-rule:evenodd"/><path d="M-207.5-50.1l-4.6,18.9c4.2-7.3,9.4-14.2,20.2-18.9.3,9.3-1.7,13.4-3.8,16.9,11.1-4.1,22.2-8.3,30.8-17.4-.6,8.3-2.8,14.1-5.8,18.3,21.6-7.2,45.7-24.5,56.7-41.1,2.8,16.5-5.6,38.9-15.9,43.3,2.5-3.3,4.8-7.8,6.5-16-7.9,9.7-18.8,16.5-30,22.9a29.6,29.6,0,0,0,1.8-9.1c-23.8,10.8-27.9,27.1-30.9,43.7,4.5-7.1,8.5-14.3,19.7-19.7-1.1,8.2,0,13.7,2.2,17.9A131.4,131.4,0,0,1-142-16.8c-.2,8.4,1.4,15.6,5.2,21.6l4.1-8.2-.7,1.2c9.2-24.9,21.4-19.9,32.5-34.5a25.5,25.5,0,0,1,2,11.5c5.3-9.2,10.1-19,12.8-31.1a29.9,29.9,0,0,1,7.5,13.7c2.2-11.9,4.1-23.9.6-38.2A44.5,44.5,0,0,1-65.5-73c-5.8-14.8-29.9-22.8-39.4-36.6a28.7,28.7,0,0,1-16.9,8.2l-5.1.3c-4.5,11.7-11.2,23.2-28.3,33.3A30.9,30.9,0,0,0-152-79.3c-8,8.7-17.4,14.6-29.3,16.3a33.1,33.1,0,0,0,3.2-7.5C-190.1-65.9-200.8-60.3-207.5-50.1Z" transform="translate(249.2 230.4)" style="fill:#26406a;fill-rule:evenodd"/><path d="M-161.8-93.2a28.1,28.1,0,0,1-2.1,5.3c-2.6,5.1-4.2,6.6-4.2,6.6l-.3-4.8s-4.6,4.5-10.9,9.9l-4.3,3.8A114.4,114.4,0,0,0-169.7-81,23.5,23.5,0,0,1-174-69.2c9-3.9,17.3-9.4,24-18.9,1.7,4.3,1.1,7.9.3,11.4,9.3-9.3,13.6-21.6,10.6-37.9-3.5,12.4-8.3,21.9-15.9,25.9a56,56,0,0,0,.8-14.3A56.7,56.7,0,0,1-161.8-93.2Z" transform="translate(249.2 230.4)" style="fill:#26406a;fill-rule:evenodd"/><path d="M-171.2-187.1a45.6,45.6,0,0,1,3.3,4.9,32.2,32.2,0,0,1,3.4,7.2l-.6,3.2-5.6-4.2v2l-3.2-3.4-.5,3.8a6.8,6.8,0,0,1-2.2,4.2,13.3,13.3,0,0,1-4.9,2.6l.9-7.7-1.4-5.2s-2.6,6.2-6.3,9.7-11.2,7.5-11.2,7.5a42.1,42.1,0,0,1,6.8,18.8l1.1,10.9v3.1s.5,2.3-2.5,8a46.9,46.9,0,0,1-4.5,7.5l16.8-9.7-9.5,23.2,28.2-12.5-5,18.2a46.8,46.8,0,0,0,16-20.4,59.4,59.4,0,0,1,1.5,18.1,87,87,0,0,0,8.9-40.3l4,3.7-.3-9.4,9.9,9.7-1.5-7.4,12.5,11.9-.9-5.5,17.1,10.9-12.9-4.9,1.2,3.8-10.8-4.3.6,4-11.7-9.5,2.8,9.7-6.8-6,.2,4a44.5,44.5,0,0,0,3.4,4.2c2.8,3.2,7.3,9.9,7.3,9.9s5.5,1.2,15.5-1.3A37.9,37.9,0,0,0-95.9-123a76.3,76.3,0,0,1-11-7.5c-6.8-5.3-18.2-16.6-18.2-16.6a88,88,0,0,0-9.9-3.8,49.6,49.6,0,0,0-12.3-2.6s.8-.6,3.7-1.2a19.9,19.9,0,0,1,6.2.1s-1.8-2.8-13.2-14S-169.2-185.5-171.2-187.1Z" transform="translate(249.2 230.4)" style="fill:#26406a;fill-rule:evenodd"/><path d="M205.3,109.8c-5.9-13.2-14.5-44-14.5-44l-9.5,15.7-1.2-31.4L169.9,31.6l-9.5,9.5s1.5-4.6,0-14.2S153,4.8,153,4.8l-4.9-6.2v-.2a207.8,207.8,0,0,1,4,20.5l-2,14.9,5.1,24.5a33.6,33.6,0,0,1,3.7-7.5,75,75,0,0,1,7.1-9.4l-.6,7.4c-.6,7.4-1.2,20.8-1.2,20.8A103.8,103.8,0,0,0,170.5,86a155.1,155.1,0,0,0,8.8,16.2,56,56,0,0,1,3.5-9.7c2.6-5.7,5.4-11.2,5.4-11.2s0,3.5,1.7,16.5,3.2,16.6,3.2,16.6,3.5,4.8,14.5,14.9l9.8,9.2C212.6,126.8,207.7,115.3,205.3,109.8Z" transform="translate(249.2 230.4)" style="fill:#fff;fill-rule:evenodd"/><path d="M146.1-8.5v0Z" transform="translate(249.2 230.4)" style="fill:#fff;fill-rule:evenodd"/><path d="M137.3,109.4,127.1,67.5l2.8,11.3-23.4-27a18.9,18.9,0,0,1-4.6-11.1C101.2,33.7,88.3,7,88.3,7l16.3,11.7L99.4,5.4,82.6-12s3.2-.3,12.7,2.7a55.9,55.9,0,0,1,17,9.4S102.5-23.6,72-26.1,22.1-4.2-25.9-5.7C-63.9-7-82.2-25.1-88.3-32.6l.2-.5c-4.2,11.7-10.8,21-21.7,25.9-.2.3-.4.4-.5.3l.5-.3c1.7-2.3,6-16.6,5.2-19.1-8.1,9.2-15.6,2.8-28.1,22.9l-4.1,8.2c-3.9-5.9-5.5-13.2-5.2-21.6A131.4,131.4,0,0,0-160.8,9.7C-163,5.5-164.1,0-163-8.2c-11.2,5.4-15.2,12.6-19.7,19.7,3.1-16.6,7.2-32.9,30.9-43.7a29.6,29.6,0,0,1-1.8,9.1c11.2-6.4,22.1-13.2,30-22.9-1.7,8.2-4,12.7-6.5,16,10.2-4.3,18.7-26.8,15.9-43.3-10.9,16.6-35,33.9-56.7,41.1,3.1-4.2,5.2-10,5.8-18.3-8.6,9.1-19.7,13.3-30.8,17.4,2.2-3.5,4.1-7.6,3.8-16.9-10.8,4.8-15.9,11.7-20.2,18.9l4.5-18.9-.7,1c3.5-12.9,13-17.1,24.7-23.4l4.3-3.8c6.3-5.4,10.9-9.9,10.9-9.9l.3,4.8s1.5-1.5,4.2-6.6a28.1,28.1,0,0,0,2.1-5.3h0c-5.9,6-12.8,9.5-21,9.7,3-2.9,5.5-6.6,6.9-12.9-8.3,4-22.1,5.2-32.3,1.8a31.1,31.1,0,0,0,8.5-8.7c-4.9,1.2-9.6.9-13.9-1.8,8.2-6.5,10.7-17.9,6.3-35.1,8.8,12.4,10.9,23.9-.8,33.4a31.5,31.5,0,0,0,16-2c-1.9,6.9-5.3,9.7-8.6,12.5,12.1-.3,23.8-1.4,32-9.4a40.8,40.8,0,0,1-4.8,14.2,41.3,41.3,0,0,0,5.3-3.3l5-18.2-28.2,12.5,9.5-23.2-16.8,9.7a46.9,46.9,0,0,0,4.5-7.5c2.9-5.7,2.5-8,2.5-8v-3.1l-1.1-10.9a42.1,42.1,0,0,0-6.8-18.8s7.5-4,11.2-7.5,6.3-9.7,6.3-9.7l1.4,5.2-.9,7.7a13.3,13.3,0,0,0,4.9-2.6,6.8,6.8,0,0,0,2.2-4.2l.5-3.8,3.2,3.4s-9.5-10.5-16.9-17.4-29.4-26.5-29.4-26.5l-.2,4.3s-1.7,0-6.5.5-9.8,1.6-9.8,1.6-.2-.1-.6-1.3a32.4,32.4,0,0,1-.7-4.2,15,15,0,0,0-2.2,3.1,31.9,31.9,0,0,0-2.1,5.1l.5,6.2,2.7-2.4,2-5,1.1,5.8,4.4,4.3c3.2,3.2,7.6,11.2,7.6,11.2l.5,15.7-15.2-12.9-7.4-.4c-1.3,3.3-1,9.2-1,9.2l15.9,23.2,5.5,33.3c-4,20.4-6.2,39.3-4,54.4a21.9,21.9,0,0,1,12-13.1c-3.8,24.3-2,44.1.8,63.1a53.6,53.6,0,0,1,6.6-12.6c5.9,33.1,18,53.5,31.7,70.4a46.4,46.4,0,0,1,2.9-18.9c5.9,17.7,15.5,32.2,32.5,40.5-5.8-10.7-7.3-23.1-3.2-37.6,1.6,27,8.6,41.2,17.6,50.5A25,25,0,0,1-124,65.5l4.8,7.5c2.8,4.3,13.7,13.9,20.5,22.3s4.6,23.9,4.6,23.9-.5-2-2.8-8.3a46,46,0,0,0-5.1-10.2s2.9,12,5.7,36.8S-98,191.2-98,191.2l-10.2,8.2s-9.5,1.1-13.5,3.7-9.6,12.1-9.6,12.1a20.2,20.2,0,0,0,1.9,2.8,47,47,0,0,1,2-4.3,33.5,33.5,0,0,1,5.6-7.8,13.3,13.3,0,0,1,4.2-2c2.5-.7,8.9-1.9,8.9-1.9a53.6,53.6,0,0,0-11.9,5.6s-.4.5-2.5,4.2a52.7,52.7,0,0,0-3.6,9,12.2,12.2,0,0,0,2.6,1.6c.4-.9,1-2.2,2-4.2a34.9,34.9,0,0,1,5.9-8.1,13.8,13.8,0,0,1,4.4-2.1c2.6-.7,9.2-2,9.2-2-8.3,3-12.4,5.9-12.4,5.9s-.4.6-2.6,4.3a45.1,45.1,0,0,0-3,7.1c4.8.7,11-.4,15.5-1.5s12.8-1.8,13.3-2.3,1.6-4.7,2.8-8.4,8.2-14.2,8.2-14.2,6.8-30,9.1-39.4,5.2-22.2,5.2-22.2a139.8,139.8,0,0,1-2.9-33.9c.8-18.2,3.7-38.8,3.7-38.8a128.5,128.5,0,0,0,8.9-17.9,96.3,96.3,0,0,0,6-22.3,44.8,44.8,0,0,1,1.4,13.2c-.3,7.5-3.5,16.3-3.5,16.3s2.5,3.1,13.1,7.7,19.1,3.7,19.1,3.7l-3.7-2.3c-3.7-2.3-7.1-7.5-7.1-7.5s4.3,2.8,23.9,6S35,57.1,35,57.1s-2.8-6.5-5.5-19.7-2.2-20.9-2.2-20.9S28.3,38,48.3,66.6s44,47.7,53.3,53.9,13.5,13.2,14.2,19.1a37.7,37.7,0,0,0,3.7,11.7l-24,46.5-18.2,5.5a55.1,55.1,0,0,0-7.7,14.8,17.2,17.2,0,0,0,3.3,1.4c.4-1.4,1.1-3.4,2.2-5.9a58.1,58.1,0,0,1,4.3-8.5l11.9-4.1-9.5,4.7c-1.7,3.3-4,11.1-5.1,14.9l2.8.6c.4-1.4,1.1-3.4,2.2-6a58.1,58.1,0,0,1,4.3-8.5l11.9-4.1-9.5,4.7c-1.6,3.2-3.8,10.7-5,14.6l5,.5c.4-1.3,1.1-3.1,2-5.3a58,58,0,0,1,4.3-8.5l11.9-4.1L97,209.3c-1.5,2.9-3.4,9.3-4.6,13.3,7,.2,13.2-.2,13.2-.2s3.7-4.6,7.4-10.2a66.6,66.6,0,0,1,7.4-9.2s2.5-4.6,12-24.3,20.3-40.6,20.3-40.6l1.2-11.1Z" transform="translate(249.2 230.4)" style="fill:#fff"/></svg>