<svg id="Bee_Mascot" xmlns="http://www.w3.org/2000/svg" viewBox="0 0 669.2 605.7"><title>YellowJacket514_3c</title><path d="M-32.7-172.8l.4,1q-2.8,1.3-5.8,3-11.3,6.3-17.3,14.4a17.3,17.3,0,0,0-2.1,2.3l-5.2-10.2-.2-.7q-5.2-19.3-11.7-38.4-2.9-8.8-5.5-17.5a3.9,3.9,0,0,0-.6-1q-.2,3.8,2,12t3.4,12.9q1.8,9.2,3.9,18.5A251.6,251.6,0,0,1-85-200q-8.6-13.7-16.4-27.8-3.3-7.1-7.1-14.1-5.9-10.8-12.2-21.5a33.2,33.2,0,0,1-4.3-5.2l2.8,5.9,3.7,7q4.9,10.3,10.5,20.3,4,8.6,8.5,17.4,6.5,11.3,12.6,23t13.2,23.4q6.7,12,13.1,24a41.3,41.3,0,0,0-4,27.3,80.4,80.4,0,0,0,10,27.3l-7.5-1.4a70.7,70.7,0,0,0-7.6-11.2l-7.4-9Q-94-137-112.7-158.1q-4.2-7.7-6.2-11.5-5.1-10.5-9.8-21.9a293.2,293.2,0,0,1-11.4-50.1q-1.2-6.4-1.8-13.5a148.4,148.4,0,0,1,2.5-44.4,3.7,3.7,0,0,0,.1-.8l7.5,5.5a210.6,210.6,0,0,1,22.7,17.6,204.7,204.7,0,0,1,24.4,26.6l16.2,19.4a64.6,64.6,0,0,0,6.1,8.3,195.5,195.5,0,0,1,14.2,21.3A205.8,205.8,0,0,1-32.7-172.8Zm283-67.9a3.3,3.3,0,0,0-.7-1.1q-6.1-4.1-17.7-5.5l-5.9-.5-3.8-.4-12.2-.3-2.3-.2.3-.2.5-.3,5.3-.3,2.6-.2a35.5,35.5,0,0,1,4.7-.4,66.2,66.2,0,0,1,21,1.4,106.1,106.1,0,0,1,12,3.5q6.7,3,5,6.2l-1,1.1-.6.8A18.5,18.5,0,0,1,251-233a27.7,27.7,0,0,1-7,1.8Q252-234.4,250.3-240.6Zm50.7,88.9h0Zm10,3.8,7.1,3.6,5.7,3.9,3.6,3.6.6.5a6,6,0,0,1,.7,3l-.3,1.7-1,.4q-4.1,1.5-9.4-.4l-3.2-.8q7.7-1.4,4.1-7l-.9-.9a66.5,66.5,0,0,0-11-6.2,163.6,163.6,0,0,0-17.5-6.1l-8.2-2.6q.3-.5,1.5-.5a35.2,35.2,0,0,1,6,.9l9.5,2.2,3.5.9a50,50,0,0,1,7.1,2.6h.4ZM60.2-91.1q-3.4-1.1-6.4-5.6t-.7-6.2q3.5,0,6.1,4.5T60.2-91.1ZM50.1-137a56,56,0,0,1,7.5,11.3,77.8,77.8,0,0,1,3.9,10.1q2.2,6.9-1.8,8.3-9.7.1-16-10.2t-6.9-19q-1.2-5.1,2.8-7.6Q44.6-143.8,50.1-137ZM36.3-169.5a17.3,17.3,0,0,0-10-.2,5.1,5.1,0,0,0-3.5,2.2q-3.5,3.6-5.3,12.4t-1.7,13.3a85.2,85.2,0,0,0,11,34.4l-4.2-4.7L16.2-124A42.1,42.1,0,0,1,12-152.6a43.8,43.8,0,0,1,5.8-14.7q4.2-6.8,13.5-6.2a49.9,49.9,0,0,1,21.6,12.5,8.8,8.8,0,0,0,3.9,2.8,131,131,0,0,1,9.2,15.6l7.6,14.9a142,142,0,0,1,8.7,20.1q3.1,8.5,5.7,17.4.4,1.5,1.2,4.4-3.4,2.1-7.2,4.1,4.4-6.6,1.2-16.7t-6.1-17.1a151.7,151.7,0,0,0-17.7-33.3,85.7,85.7,0,0,0-10.5-11.6Q41.8-167.1,36.3-169.5ZM-7.7-88A125.5,125.5,0,0,0,.5-77.9,174.6,174.6,0,0,0,56.9-39.2l4,1.9-12.5.9A111.2,111.2,0,0,1,27.7-37a107.9,107.9,0,0,1-20.6-4L2.7-47.3a49.8,49.8,0,0,1-4-7.7h.1a21.9,21.9,0,0,1,5-2l.6-.4-.2-.7L3-59.3l-2-1.5a26.5,26.5,0,0,1-6.5-6.4A80.5,80.5,0,0,1-7.7-88ZM34.5,14.2q-2.3,3.3-4.7,6.2A27,27,0,0,1,26.7,24q-8.5,8.4-16.7,17l-3.4,3A84.4,84.4,0,0,1-9,54q-3.6,2-8.5,4.3l-4.5,2a96.8,96.8,0,0,1-29.6,5.5q9.3-1.7,17.1-3.8A109.3,109.3,0,0,0-5.9,48.1,135.6,135.6,0,0,0,20,25.1Q30.4,12.7,40.3-.2L43.8-6l.5-.5,4.8-.7a8.7,8.7,0,0,1-1.1,3.2L46.8-2.4l-1,1.2-2,2.8a73.6,73.6,0,0,1-4.7,6.8l-1.6,1.8ZM77.1,4.6A132.1,132.1,0,0,0,129.3,24,139.1,139.1,0,0,0,171,25.8h.6l-.6,2-1.3.2a179.9,179.9,0,0,1-55.5-3.2,161.9,161.9,0,0,1-40-13.3A100.9,100.9,0,0,1,54.5-2h.1a22.5,22.5,0,0,0,3.9-7.1,71.1,71.1,0,0,0,9.8,8ZM148-133.8a53.5,53.5,0,0,1,4.9,6.4q7.1,11.4,5.8,26.2-2.4,1.1-5.1,2.6t-2.9-3a27.6,27.6,0,0,1,3.4-11.5,12.8,12.8,0,0,0-1.7-7.4,39.2,39.2,0,0,0-3.8-10Q148.4-132.1,148-133.8Zm46.9,143a43.6,43.6,0,0,1,4.2-9.3,41.6,41.6,0,0,1,11.1-12.4q7-5.4,14.9,0,4.8,4.5,3.7,14.3A55.1,55.1,0,0,1,224.3,19a10.1,10.1,0,0,1-10.5,4.3,9.6,9.6,0,0,1-7-8.7,2.4,2.4,0,0,1-.1-.7,61.5,61.5,0,0,1,.7-10.6,3.2,3.2,0,0,0,.2-1.9,2,2,0,0,0-.9.6.2.2,0,0,0-.2-.2A19.1,19.1,0,0,0,204.5,21l.9,1.3q2.9,7.4,7.9,9a88.8,88.8,0,0,0-1.8,8.9q-1.1,8.8-8.2,12.4a9.8,9.8,0,0,1-5.3,1.5,68,68,0,0,1-3.6-43.5A2.5,2.5,0,0,0,194.9,9.1Zm-8.5,16.4A69.3,69.3,0,0,0,191.2,54a67.8,67.8,0,0,0,5.7,11.3h-.2q-9.9,1.7-15.2-5.6a34.3,34.3,0,0,1-6.2-17,30.9,30.9,0,0,1,.2-6.2,34.9,34.9,0,0,1,11.9-21.7A61.1,61.1,0,0,0,186.4,25.6ZM-178-169.8A115.6,115.6,0,0,0-191.5-186q-15.3-18.4-29.2-38a153.1,153.1,0,0,0-21.1-26l-.8-.5-.4-.2q1.3,3.8,6.6,10.1a105.7,105.7,0,0,1,8.1,10.6,270.8,270.8,0,0,0,22.4,33.3q7.7,10.2,15.9,19.7a48.1,48.1,0,0,1,9.1,12,69.9,69.9,0,0,0,6.7,9.7l-34.8-31a149.1,149.1,0,0,1-12.6-11.4q-4.7-4.5-10.3-9-11.5-10.3-23.8-19.4a125.3,125.3,0,0,1-15.1-13.8q-8.9-8.8-18.5-17a17.2,17.2,0,0,0-5.1-3.2h-.4l4.6,4.8,5.5,5.2q9.7,10.1,19.6,19.8,12.8,10.8,25.8,22.3,8.9,8,17.2,16.5a203,203,0,0,0,15.2,14.5q11.8,10.8,23.4,21.8l23,21.3q9.7,8.3,19.3,17.2,13.1,12.4,25.5,25.4a236.4,236.4,0,0,0-23.9,6.8q-9.3,3.1-18.2,6.6a100.3,100.3,0,0,0-10-2.8l-8.1-2q-6.2-2.1-12.4-4.8a286.2,286.2,0,0,1-44.6-23.7,165.8,165.8,0,0,1-14.7-11.3l-8.6-7.6a164,164,0,0,1-25.3-27.5,252.7,252.7,0,0,1-15.9-25.4,165.7,165.7,0,0,1-7.5-16.5,207.6,207.6,0,0,1-8.1-24.5q-2.8-13.3-5.4-27a222.1,222.1,0,0,1-6.7-37.6l-.3-2.5q0-1.3.1-2.6t-.1-1.3a126.9,126.9,0,0,1,52.3,17.1,326.1,326.1,0,0,1,43.5,24.7q9.7,7.4,19.4,14.4,11.2,10,23.4,19.7t22.2,20.6a455.4,455.4,0,0,1,66.1,68.4q14,16.8,27.4,33.8l.9,1.3a132.8,132.8,0,0,0-23.9.5q-7.7.8-14.7,2.1-5.1-5.9-7.7-8.7l-20.5-19.8a163.3,163.3,0,0,0-14.5-13.1,85.4,85.4,0,0,1-6-7.4Q-167.9-155.6-178-169.8ZM233-11.2q7.5,1.4,10.8,2.2a17.9,17.9,0,0,1,10.5,5.7q20.1,21.1,9.4,48.2a42.5,42.5,0,0,1-18.9,20.8q-19.6,9.1-37.4-3.7l-5.5-4.3a19.7,19.7,0,0,0,8.1-3.8q2.2,9.5,16.9,8.6l6.3-1.5q4.8-1.5,2.3-3.8l-7.3.2a23.4,23.4,0,0,1-8.8-.2q-6-3.3-3.8-9.1a16.6,16.6,0,0,1,7.2-8.8q9.4-4.9,16-3.2l15.7,4.2a2.2,2.2,0,0,0,1.3.3l-2.6-2.4-5.7-2.6q-7.4-2.5-10.5-3.2a21.8,21.8,0,0,0-6.2-.6,37.2,37.2,0,0,0-12.2,3.7l-.9.6a6.7,6.7,0,0,0-.5-4.2q5.9-.5,10.8-7.4a41.2,41.2,0,0,0,5.1-11.5,15.5,15.5,0,0,1,4.4-.8,36.2,36.2,0,0,1,17,3.8,3.1,3.1,0,0,0,2,.9q.7-3.5-5.7-6.1a59.3,59.3,0,0,0-9.3-3,20.9,20.9,0,0,0-7.2.1A34.3,34.3,0,0,0,233-11.2ZM-306.4-228.7l2.1,6.6q3,8.1,4.5,11.4a135.3,135.3,0,0,0,21.1,38.6q5.4,7.9,11.7,16.1a340.3,340.3,0,0,0,32.4,31.1q8.4,7.1,17.5,13.3l22.6,14.8a114.6,114.6,0,0,0,13,7q9.1,4.4,13,4.1a104.9,104.9,0,0,0-10.9-6.2q-21.2-13.2-41.4-27.9-10-7.2-19.3-15.3-13.2-12.2-25.2-25.7l-11.5-15.4a142,142,0,0,1-15.9-24.5q-4.1-7.5-7.6-15.4l-4.3-9.2-2.1-7.3Zm181,197.5q-1,5.3-1.7,12.5a59.3,59.3,0,0,0-1.3,12.1,134.9,134.9,0,0,0,1.3,21.9A82.7,82.7,0,0,1-130.9-.4a104,104,0,0,1,1.3-34.9l5.4-1.5Q-125-33.6-125.4-31.1Zm-95.9-6q-6.9,4-13.8,8.6t-14.1,9.3l-1.1.9a38.3,38.3,0,0,0-4.6-1.7q8.4-5.6,12.9-8.3,10.6-5.6,20.6-11.9,16-8.6,32.6-16.5,8.8-4.7,18-9.1t20.2-8.3l5.3-2q9.2-3.4,18.5-6.1a179.5,179.5,0,0,1,45.5-6.8l5.2-.4q5.5.2,11.1.7l1.1.2q3.4,1.3,3.4,5.7-8.3-3.9-15.5-2.8a126.9,126.9,0,0,1-13.1,2.4l-17.5,3.2a126.1,126.1,0,0,0-13.9,2.3l-10.5,3-18,6.3q-11.5,4.1-23,9.4-6.3,2.3-12.9,5.1t-14.3,5.6A157.7,157.7,0,0,0-221.3-37.2ZM-282.2-6.6l-.2-.3a23.1,23.1,0,0,1,5.1-6.7q6.7-3.9,11.6-2.9t11.8,3.3A30.2,30.2,0,0,1-236.4,3.5a12.1,12.1,0,0,1-2.1,12.3l-.5.9a36,36,0,0,0-7-7.1,3.5,3.5,0,0,0-2.7-.8q-1.8,1.9,1,5.3t4.2,5.1q11.2,17.4,4.1,36.8a40.5,40.5,0,0,1-2,4.5q-5,7.6-17.8,9.1H-266q9.4-10,10.5-21.8,1.3,1.5,2.4,1.4-.6-7.3-8.5-8a5.3,5.3,0,0,0-5.2,2.8q2.5-1.1,8.5.6a54.2,54.2,0,0,0-4.4,9.7,53.3,53.3,0,0,1-8.8,12.3q-5.4,5.6-13.6,2.1t-7.6-15.4a48.9,48.9,0,0,1,3.5-18.1,53.8,53.8,0,0,1,7.4-14.3q1.7-1.3.7-1.8a25.9,25.9,0,0,0-7.7,6.6,49.2,49.2,0,0,0-8.2,37.1l-4.5-1.4-6.5-2.9a13.8,13.8,0,0,1-2-5.4,55.7,55.7,0,0,1,2.1-29.8l.4-1.5v-.9q-5.2,4.6-7.1,15.3a60.2,60.2,0,0,0-.3,19.8l-2.1-1.2a29,29,0,0,1-4.5-2.9,25.5,25.5,0,0,1-4.9-17.3q4.3-22.4,24.9-32,4.1-1.9,8.4-3.3A50,50,0,0,1-288-2.2a45.5,45.5,0,0,1,28.2,5.8A6.6,6.6,0,0,0-253.9,5l-2.6-2.5L-262-.8a58,58,0,0,0-10.1-4.5A63.7,63.7,0,0,0-282.2-6.6ZM134.2,153.9q3.8,4.2,7.4,8.9a51.4,51.4,0,0,0-6.7-1.7l-2.2-.3a17.3,17.3,0,0,0-1.7-2.2q-2.4-3.1-5.3-6.4l-14.2-13.5-6.1-5.2a48.3,48.3,0,0,0-10.5-8.2h.2a58.3,58.3,0,0,1,10.5,3,125.7,125.7,0,0,1,18,15.7Zm-263.3-30a6.1,6.1,0,0,1-.3,2.1,100.8,100.8,0,0,0-2.3,32.2q.4,3.3.8,6.9a100.4,100.4,0,0,0,12.7,35,106.4,106.4,0,0,0,15.6,19.5l2.9,3.2a60,60,0,0,1,5.1,6.1l1.5,1.9.3.3a99.9,99.9,0,0,1,9.2,9.2l4,4.1,3.2,3.5a90.7,90.7,0,0,0,6.8,7.6l2.3,2.1a107.6,107.6,0,0,1-16.5-11.3A223.4,223.4,0,0,1-101,230.3,128.3,128.3,0,0,1-114,213.9a92.6,92.6,0,0,1-13.4-22q-1.8-4.3-3.5-9l-.5-1.7a77.2,77.2,0,0,1-2.8-13.4,6.1,6.1,0,0,0-.1-.7q-.6-6-1.1-12.6a65.1,65.1,0,0,1,.8-11,6.3,6.3,0,0,0,.1-.8,78.3,78.3,0,0,1,2-10.1l1.8-5.6ZM116.9,273.2l2.5.5a62.5,62.5,0,0,1-14.6,8.2q-22.9,8-51.1,9.8-4.5.3-9.2.3l-4-2a78.7,78.7,0,0,0,8.3-1.3q7.4-1.7,15.9-2.9A139.8,139.8,0,0,0,109,273l1.5-1ZM164.6,201h1.9a104.8,104.8,0,0,0,28.9-4.7l2.8-.7a68.7,68.7,0,0,0,20.3-9.8A78.7,78.7,0,0,0,235,170.6l15-17.7,3.4-5.3,1-1.6,1.5-2.1-.2.6-.4,1.3-.9,2.6-.4,1-1,2.2-.2.3a56.7,56.7,0,0,1-3.8,6.7q-4,6.3-9.1,12.9a125.4,125.4,0,0,1-14.1,15.3q-3.1,2.9-6.4,5.3l-2.7,1.9a59.9,59.9,0,0,1-6.9,3.9,103.5,103.5,0,0,1-13.2,4.9,99.5,99.5,0,0,1-21.6,4.3h-1.2a113.5,113.5,0,0,1-11.9,1.3,93.6,93.6,0,0,1-14.7-.4q-3-.4-8.5-.5a28.9,28.9,0,0,1,4.8-4.2,2.3,2.3,0,0,1,1-1.5,4.4,4.4,0,0,1,1.5-.7l1.5-.2a19.5,19.5,0,0,1,4.2-.1l6.5.3h6.5Z" transform="translate(334.6 302.9)" style="fill:#fff;fill-rule:evenodd"/><path d="M333.9-130.2q-.4,2.1-3.5,4.5a9.8,9.8,0,0,1-7.5,1.8,71,71,0,0,1-14.8-3.5,56.2,56.2,0,0,1-5.7-2.5l-23.5-9.6-4.2-1.4a253.1,253.1,0,0,0-24.7-6.4l-22-3.2-3.2-.4q-16.4-1.8-33.1-2.9h-9.7q-7.1.2-14,0-17,0-33.5,1a61.7,61.7,0,0,0,4.3,4.6,21.5,21.5,0,0,1,4.2,2.4,38.1,38.1,0,0,1,6.2,5.7q3.8,4.2,5.7,6.7a44.1,44.1,0,0,1,9.4,29.6q-1,12.7-10.4,17.6a1.1,1.1,0,0,0,.1.4,104.6,104.6,0,0,1,2.6,35.1V-43q.4,18.1-7.2,31.1-1.6,3-6.2,2.2a122.8,122.8,0,0,1-25.2-5.9q-7.1-1.7-14-3.9l-2,.9a275.5,275.5,0,0,1-29.5,5.9l-7.8,1.5,3.3,2.5a142.3,142.3,0,0,0,52.7,25q11.3,2.3,22.7,3.6l6,.6,5.9.2h4.2l4.5-.2,10.3-.4,1-1.7a22.3,22.3,0,0,1,8.8-8.5l4.4-1.2.9-.4,1.5-4.4q6.8-18.9,25.5-25.1a14.3,14.3,0,0,1,8.7,1.8,14,14,0,0,1,6,4.4,17.2,17.2,0,0,1,5.1-.9,35.8,35.8,0,0,1,10.4,1.5q18,6.3,24.4,25.1Q275,22,272.9,35.8T262.7,58.9q-17.9,21.4-45.1,15.3-3.8-.8-10.1-4.7-9,3.9-17.1,2.2h-.1a23.7,23.7,0,0,1-7-2.6,27.1,27.1,0,0,1-6.6-5.5q-3.6-2.2-13.9-2-15.9.1-24.8-.1l-16.1-.5a183.7,183.7,0,0,1-19.5-1.4A176.6,176.6,0,0,1,82.5,57,178.9,178.9,0,0,1,46.3,46.7,176.2,176.2,0,0,1,25,35.7q-4.4,4.1-9,8.1A154.4,154.4,0,0,1,1.1,55.1a29,29,0,0,1-3.4,2.1h.1l-.9,8.4Q-4.4,72-5.5,76.7a158.7,158.7,0,0,1,16.4,3.2,149.6,149.6,0,0,1,22.4,5.8h.2q10.9,3.2,21.3,7a220.9,220.9,0,0,1,43.1,20.9,204.8,204.8,0,0,1,19.9,12.3A136.2,136.2,0,0,1,131.6,137a189.5,189.5,0,0,1,27.7,36.3,76.7,76.7,0,0,1,7.4,20.8l9.3-.9a80.6,80.6,0,0,0,28.7-8.2q6.8-3.2,15.3-7.9a50.3,50.3,0,0,0,13.3-10.5l6.5-8.2,3.1-3.2a97.8,97.8,0,0,0,7.3-9.4q2.6-3.6,4.5-6.7l.5-.7h0l1-1.7a1.9,1.9,0,0,1,1.9-.3,3,3,0,0,1,1.1,2.2,52.7,52.7,0,0,1-4,31.6,113.4,113.4,0,0,1-9.1,15.5,79.2,79.2,0,0,1-8.4,10.3,105.1,105.1,0,0,1-9.3,10.9l-6,6.4a224.2,224.2,0,0,1-20.2,19.1q-6.2,4.8-12.6,9a198.7,198.7,0,0,1-27.9,16,32.2,32.2,0,0,1-3.4,4.4,145.4,145.4,0,0,1-42,27.5Q95.5,299.2,68,301.7a224.9,224.9,0,0,1-35.4.8A177,177,0,0,1-.5,297.7a278.2,278.2,0,0,1-27.3-7.4q-12.2-4.5-24.5-10.2Q-76.9,269.9-100,248a164.5,164.5,0,0,1-14.4-14.6q-23.2-31.4-28.1-58t1-47.1a42,42,0,0,1,2.6-7.3,65,65,0,0,1,3.2-6.2q1.5-2.6,2.7-5.5h.1l.2-.5.2-.5a3.9,3.9,0,0,1-.6-1.4,25.2,25.2,0,0,1-.7-2.7,24.3,24.3,0,0,1-2.6-5.9,152.6,152.6,0,0,1-5.1-76.3,91.5,91.5,0,0,1,5.1-18.9,37.8,37.8,0,0,1-.6-6q-.3-5.2-.2-14.3a72.4,72.4,0,0,1,2-16.5q-12.9,3.2-25.6,6.5l-36.2,12.5a152.5,152.5,0,0,0-23.3,9.2A115.6,115.6,0,0,1-231.1-.1a18,18,0,0,1-.2,16.4,10.7,10.7,0,0,1-2,2.3l-.5.4a9.8,9.8,0,0,1-2.3,1.8A41.1,41.1,0,0,1-231,50.7q-3.6,18.1-19.8,26-4.1,1.5-12,1.3T-275,75.3a18.7,18.7,0,0,1-16-2.6q-10.7,1.4-20-7.6-7.5-.4-13.7-7.6a28.9,28.9,0,0,1-7.1-8.1q-5.1-11-.6-23.8a19.1,19.1,0,0,1,.6-2.3A43.3,43.3,0,0,1-309.5-1.3,57.8,57.8,0,0,1-289.2-8q1.3-6.7,9.1-11.4t13.9-3.7a22.6,22.6,0,0,1,3.6,1.1,45.3,45.3,0,0,1,5-3.6l3.3-2.1a58.3,58.3,0,0,1,5.9-3.8q4.7-3.2,9.2-6,20.9-12.2,42.6-22.8a224.3,224.3,0,0,1,24.8-12.1l-8.8-3q-45.4-15.6-84.3-50.9a206.5,206.5,0,0,1-23.8-27.2,144.6,144.6,0,0,1-16.6-28.3,216.9,216.9,0,0,1-8.6-20.9q-4.6-12.2-8.4-24.8a201,201,0,0,1-7.6-48.8l-.7-9.1a50.3,50.3,0,0,1,.2-11.6,1.2,1.2,0,0,1,.3-1.3q.6-1.9,1.9-1.6h.6l1.2-.2h1.1q4.6.5,9.3.5a102.2,102.2,0,0,1,35,9.5q18.4,9.2,36.5,18.9a363.3,363.3,0,0,1,34.2,23.6q11.4,9,21.7,18.2a161.3,161.3,0,0,1,16.2,13.9l39.9,36.9-3-8.9a272,272,0,0,1-7.7-26.6,182.2,182.2,0,0,1-6.2-51.3q-.7-12.6,3.8-29,1.2-6.2,4.1-7.5h.6l-.9-.7-.3-.4h.4a43.4,43.4,0,0,1,14.1,5.5q7.8,4.6,14.6,9.4a211.3,211.3,0,0,1,30.7,30.9q8.8,9.9,16.7,19.8,4.4,6.7,9.2,12.9a270.8,270.8,0,0,1,22.9,35.8q2.7,4.7,7.2,14.4,6.1-2,13.1-3.9,11.8-2.8,22.9-6.6a136.6,136.6,0,0,1,13.7-9.9,55.4,55.4,0,0,1,17.9-7.4l6.5-3.5Q66-215,84.5-223.9a288.8,288.8,0,0,1,64-21.4q19.1-4.1,37.6-6.6,5.5-.9,10.6-1.1l12.4-.7,4-.5q9.5-.8,19.4-.7l2.9.3a76.7,76.7,0,0,1,14.2,2.6,38.4,38.4,0,0,1,4.7,1.8q7.4,2.3,10.5,7.6a2.5,2.5,0,0,1,.3,1.5,9,9,0,0,1-.8,4.3q-.7,3.6-7.7,7.7a31.3,31.3,0,0,1-8.5,3.2l-.8.2a24,24,0,0,1-7.3.6q-17.9-.9-29.6-5.5a142,142,0,0,0-42.2-2.7A246.7,246.7,0,0,0,142-230h-.5L129-227q-7.6,2.1-14.7,4.3t-15.4,4.5q-17.1,6.3-33.7,14l-4.3,2a40.6,40.6,0,0,1,5.1.6,17.7,17.7,0,0,1,3.3,1.1,76,76,0,0,1,20,9.6h0l1.6,1.1a44.1,44.1,0,0,1,9.8,9.1l1.8,3q7.5,4.7,11.9,7.8A73.9,73.9,0,0,1,127-160l3-.7,23.2-2.2,42.9-3.2q9.1-.5,18.3-.5a214,214,0,0,1,48.4,1.9l1.8.4,23.3,3.6a121.4,121.4,0,0,1,15.8,4,70.1,70.1,0,0,1,10.1,4.6,48.3,48.3,0,0,1,9.8,5.1l1.8,1.5a70.2,70.2,0,0,1,6.4,5.6,9.7,9.7,0,0,1,2.6,6.6Zm-23-17.7-1.7-1h-.4a50.1,50.1,0,0,0-7.1-2.6l-3.5-1-9.5-2.1a35.2,35.2,0,0,0-6-.9q-1.2,0-1.5.5l8.2,2.5a163.8,163.8,0,0,1,17.5,6.2,66.4,66.4,0,0,1,11,6.2l.9.9q3.6,5.7-4.1,7.1l3.2.8q5.3,1.8,9.4.4l1-.5.3-1.6a6,6,0,0,0-.7-3l-.6-.5-3.6-3.6-5.7-3.9Zm-10-3.8h0Zm-50.7-88.9q1.7,6.3-6.2,9.4a27.7,27.7,0,0,0,7-1.8,18.5,18.5,0,0,0,6.4-4.1l.6-.8,1-1.1q1.7-3.3-5-6.2a106.1,106.1,0,0,0-12-3.5,66.2,66.2,0,0,0-21-1.4,35.5,35.5,0,0,0-4.7.4l-2.6.2-5.3.3-.5.3-.2.3,2.3.3,12.2.3,3.8.4,5.9.5q11.6,1.3,17.7,5.5A3.3,3.3,0,0,1,250.3-240.6ZM-32.7-172.8a206,206,0,0,0-15.5-28.8,195.6,195.6,0,0,0-14.2-21.3,64.7,64.7,0,0,1-6.1-8.3l-16.2-19.4a204.8,204.8,0,0,0-24.4-26.6,210.6,210.6,0,0,0-22.7-17.6l-7.5-5.5a3.7,3.7,0,0,1-.1.8,148.4,148.4,0,0,0-2.5,44.4q.6,7.1,1.8,13.5a293.3,293.3,0,0,0,11.4,50.1q4.7,11.3,9.9,21.8,1.9,3.8,6.1,11.5Q-94-137-77.2-114.8l7.5,9a70.8,70.8,0,0,1,7.6,11.1l7.5,1.4a80.4,80.4,0,0,1-10-27.3,41.3,41.3,0,0,1,4-27.3q-6.4-12-13.1-24t-13.1-23.4q-6.2-11.6-12.6-23-4.5-8.7-8.5-17.4-5.6-10-10.5-20.3l-3.7-7-2.8-5.9a33.2,33.2,0,0,0,4.3,5.3q6.3,10.7,12.2,21.5,3.7,7,7.1,14.1Q-93.6-213.7-85-200a251.6,251.6,0,0,0,13.7,23.4q-2.2-9.3-4-18.4-1.1-4.7-3.4-12.9t-2-12a3.9,3.9,0,0,1,.6,1q2.6,8.7,5.5,17.5,6.5,19,11.7,38.4l.2.8,5.1,10.2a17.3,17.3,0,0,1,2.1-2.3q6-8.1,17.3-14.4,3-1.7,5.8-3.1Zm13.7,5.6a137.1,137.1,0,0,0-15.2,6.7q-8.8,4.4-13.4,9.4-16.3,19.9-5.9,43A105.5,105.5,0,0,0-35.6-78.6l9.7,10.5a55.8,55.8,0,0,0,.2-18.8q2.5,1.4,3,8.3a90.2,90.2,0,0,1,.4,10.1,127.9,127.9,0,0,0-.2,16Q-19.1-29.8.7-22.2a104.9,104.9,0,0,0,40,7.2,189.5,189.5,0,0,0,37.1-4.6l16.2-3.2q-11.8-4.5-23.2-9.9l-1.7.4a135.4,135.4,0,0,1-49.8-1.2,32.5,32.5,0,0,1-4.9-1.3A70,70,0,0,1-2.7-41.6a29.7,29.7,0,0,1-6.2-5.2q-3.6-3.7-3-6.6a19.5,19.5,0,0,1,3,3.2,22.7,22.7,0,0,0,7,5.5A83,83,0,0,1-10.4-63q-3.5-10.7-3.5-18.6a79.8,79.8,0,0,1,.7-12.8q-3.3,2.8-6.1,5.6a5.6,5.6,0,0,1,1.7-5.3q5.8-8.2,14.2-4.8,2.2,3-4.3,3.4a10.5,10.5,0,0,1,.1,1.8,48.3,48.3,0,0,1,3.5,4.4A130.5,130.5,0,0,0,20.3-66.2,157.6,157.6,0,0,0,44.6-50.7Q63.6-41.3,83-33a322.3,322.3,0,0,0,61,19,59.2,59.2,0,0,0,6.6-18.8,65.2,65.2,0,0,0,.3-12.8,109.6,109.6,0,0,0-2.8-12.1,142.3,142.3,0,0,0-23.1-35.9l-5.7-5.7a8,8,0,0,1,5.1,2.3l1.1,1a12.7,12.7,0,0,0,3,1.5,22.9,22.9,0,0,1,4.8,4.1,3.6,3.6,0,0,1,.3-.9,148.1,148.1,0,0,0,9-25.5q3.8-14.4-4.7-24.9a150.7,150.7,0,0,0-12.4-12.4q-4-3.7-8.6-7.5l-8.8-6-1.9-1.4q.7,1.7,1.3,3.4a207.2,207.2,0,0,1,9.7,24.1,50.4,50.4,0,0,1,2.5,19.6,1.3,1.3,0,0,1-1-1.5l-2.1-7.6a192.1,192.1,0,0,0-16.7-37.8q-8-18.3-27.4-23.6A43.4,43.4,0,0,0,44-194.1a65.5,65.5,0,0,0-21.5,9.5q-7.1,4.9-14.2,9l-4.5,1.8a51,51,0,0,1-12.5,3.6Q-14-168.9-18.9-167.2Zm42.8-9.7a25.9,25.9,0,0,1,21.2,4.8h.1a74.9,74.9,0,0,0-17.1-11.3q3-.3,8.3,2a37.8,37.8,0,0,1,7.8,4.3q4.5,2.7,10.2,9.4A117.7,117.7,0,0,1,63-156.6a172.8,172.8,0,0,1,10.9,18,274.3,274.3,0,0,1,12.1,25.3,126.6,126.6,0,0,1,4.7,13.7A108.6,108.6,0,0,1,93-87a39,39,0,0,0,16.5-15,44.5,44.5,0,0,0,2.4-6l1.8-4.7a3.7,3.7,0,0,1,.8,2.9q-1.9,18-17.5,27.3-5.8,2.6-7.7-.1A33.2,33.2,0,0,1,84-79a37.6,37.6,0,0,1-13.8,2.4q-8.4.1-13.7-2.3T44-85.7a30.6,30.6,0,0,1,4.2,8.2,12.1,12.1,0,0,1-6-4.8q-4.5-5.8-9.6-11.3-6.7-7.6-13-15.4a56.6,56.6,0,0,0-31.7-20.4q-10.5-.1-15.4,9.5a11.6,11.6,0,0,1,2.6-5.6q5.2-8.1,12.6-7.5a36.4,36.4,0,0,1,15,4.7q4,2.6,8.3,5.8a43.5,43.5,0,0,1-5.1-20.9,57.1,57.1,0,0,1,4.2-19.9A23.9,23.9,0,0,1,23.9-176.9Zm12.3,7.4q5.5,2.4,12.5,9.1a85.7,85.7,0,0,1,10.5,11.5,151.7,151.7,0,0,1,17.7,33.4q2.8,6.9,6.1,17.1T81.8-81.7q3.8-2,7.2-4.2-.8-2.9-1.2-4.4-2.6-8.9-5.7-17.4a142,142,0,0,0-8.7-20.1l-7.6-14.9a131,131,0,0,0-9.2-15.6,8.8,8.8,0,0,1-3.9-2.8,49.9,49.9,0,0,0-21.6-12.5q-9.2-.5-13.5,6.3A43.8,43.8,0,0,0,12-152.6,42.1,42.1,0,0,0,16.2-124l6.3,11.9,4.2,4.7a85.2,85.2,0,0,1-11-34.4q-.2-4.5,1.7-13.2t5.3-12.5a5.1,5.1,0,0,1,3.5-2.2A17.3,17.3,0,0,1,36.3-169.5ZM50.1-137q-5.4-6.7-10.5-7.1-4,2.5-2.8,7.6.5,8.7,6.9,19t16,10.2q4-1.3,1.8-8.3a77.8,77.8,0,0,0-3.9-10.1A56,56,0,0,0,50.1-137ZM60.2-91.1q1.7-3-.9-7.3t-6.1-4.5q-2.2,1.7.7,6.2T60.2-91.1ZM-7.7-88A80.5,80.5,0,0,0-5.4-67.1a26.6,26.6,0,0,0,6.5,6.4l2,1.5,1.1,1,.2.8-.6.4a21.9,21.9,0,0,0-5,2h-.1a49.7,49.7,0,0,0,4,7.7l4.3,6.3A107.8,107.8,0,0,0,27.7-37a111.2,111.2,0,0,0,20.7.6l12.5-1-4-1.9A174.6,174.6,0,0,1,.5-77.9,125.6,125.6,0,0,1-7.7-88ZM-34.1-46.9a53.3,53.3,0,0,0,8.6,5.6,37.9,37.9,0,0,1-2-15.4l-3.2-3A105.5,105.5,0,0,1-43.9-76Q-43.5-58.8-34.1-46.9ZM34.5,14.2l3-4,1.6-1.8a73.6,73.6,0,0,0,4.7-6.7l2-2.8,1-1.2,1.1-1.7a8.6,8.6,0,0,0,1.1-3.1l-4.8.7-.5.5L40.3-.2Q30.4,12.7,20,25.1a135.5,135.5,0,0,1-25.9,23A109.3,109.3,0,0,1-34.6,61.9q-7.9,2.1-17.1,3.8A96.8,96.8,0,0,0-22,60.2l4.5-2Q-12.6,56-9,54A84.4,84.4,0,0,0,6.6,43.9l3.4-3q8.2-8.6,16.7-17a27,27,0,0,0,3.1-3.5Q32.2,17.5,34.5,14.2ZM148-133.8q.4,1.7.7,3.4a39.3,39.3,0,0,1,3.8,10,12.8,12.8,0,0,1,1.7,7.4,27.6,27.6,0,0,0-3.4,11.4q.1,4.7,2.9,3.1t5.1-2.6q1.3-14.9-5.8-26.2A53.5,53.5,0,0,0,148-133.8ZM77.1,4.6,68.4-1.3a71.1,71.1,0,0,1-9.8-8,22.5,22.5,0,0,1-3.9,7.1h-.1A100.9,100.9,0,0,0,74.2,11.4a161.9,161.9,0,0,0,40,13.3,179.9,179.9,0,0,0,55.5,3.2l1.3-.2.6-2H171A139.1,139.1,0,0,1,129.3,24,132.1,132.1,0,0,1,77.1,4.6Zm73.7-89.6a33.7,33.7,0,0,1-9.6,2.1,53.1,53.1,0,0,1,6.9,8.5,45.6,45.6,0,0,1,4.3,8.9q0-5.5-.2-11.1Q151.6-79.6,150.9-85.1Zm44,94.2a2.5,2.5,0,0,1-.6,1.5,68,68,0,0,0,3.6,43.5,9.8,9.8,0,0,0,5.3-1.5q7.1-3.6,8.3-12.4a88.8,88.8,0,0,1,1.8-8.9q-5-1.6-7.9-9l-.9-1.3a19.1,19.1,0,0,1,1.8-19.3.2.2,0,0,1,.3.2,2,2,0,0,1,.9-.6,3.2,3.2,0,0,1-.2,1.9,61.6,61.6,0,0,0-.7,10.6,2.4,2.4,0,0,0,.1.8,9.6,9.6,0,0,0,7,8.7A10.1,10.1,0,0,0,224.3,19a55.1,55.1,0,0,0,4.5-17.2q1-9.8-3.7-14.4-7.9-5.4-14.9.1A41.6,41.6,0,0,0,199.1-.1,43.6,43.6,0,0,0,194.9,9.1Zm-8.5,16.4a61.1,61.1,0,0,1,1-10.8,34.9,34.9,0,0,0-11.9,21.7,30.9,30.9,0,0,0-.2,6.2,34.3,34.3,0,0,0,6.2,17q5.3,7.3,15.2,5.6h.2A67.8,67.8,0,0,1,191.2,54,69.3,69.3,0,0,1,186.4,25.6ZM233-11.2a34.3,34.3,0,0,1,1.3,19,20.9,20.9,0,0,1,7.2-.1,59.3,59.3,0,0,1,9.3,3q6.4,2.6,5.7,6.1a3.1,3.1,0,0,1-2-.9,36.2,36.2,0,0,0-17-3.7,15.5,15.5,0,0,0-4.4.8A41.1,41.1,0,0,1,228,24.4q-4.9,6.8-10.8,7.4a6.7,6.7,0,0,1,.5,4.3l.9-.6a37.2,37.2,0,0,1,12.2-3.7,21.8,21.8,0,0,1,6.2.6q3.1.7,10.5,3.3l5.7,2.6,2.6,2.4a2.2,2.2,0,0,1-1.3-.3l-15.7-4.2q-6.6-1.6-16,3.2a16.6,16.6,0,0,0-7.2,8.8q-2.2,5.9,3.8,9.1a23.4,23.4,0,0,0,8.8.2l7.3-.2q2.5,2.3-2.3,3.8l-6.3,1.5q-14.7.9-16.9-8.6a19.7,19.7,0,0,1-8.1,3.8l5.5,4.3q17.8,12.8,37.4,3.7a42.5,42.5,0,0,0,18.9-20.8q10.6-27.1-9.4-48.2A17.9,17.9,0,0,0,243.8-9Q240.5-9.8,233-11.2ZM-178-169.8q10.1,14.2,20.4,27.7a85.4,85.4,0,0,0,6,7.4,163.6,163.6,0,0,1,14.5,13.1l20.5,19.8q2.6,2.7,7.7,8.6,7-1.3,14.7-2.1a132.8,132.8,0,0,1,23.9-.5l-.9-1.2q-13.4-17-27.4-33.8A455.4,455.4,0,0,0-164.6-199q-10.8-11.1-22.2-20.6t-23.4-19.7q-9.7-7.1-19.4-14.4a326.2,326.2,0,0,0-43.5-24.7,126.9,126.9,0,0,0-52.3-17.1q.1.7.1,1.3t-.1,2.6l.3,2.5a222.1,222.1,0,0,0,6.7,37.6q2.6,13.7,5.4,27a207.6,207.6,0,0,0,8.1,24.5,165.7,165.7,0,0,0,7.5,16.5,252.7,252.7,0,0,0,15.9,25.4,164,164,0,0,0,25.3,27.6l8.6,7.6a165.7,165.7,0,0,0,14.7,11.3,286.1,286.1,0,0,0,44.6,23.7q6.3,2.7,12.5,4.8l8.1,2a100.7,100.7,0,0,1,9.9,2.9q8.9-3.6,18.2-6.6a236.2,236.2,0,0,1,23.9-6.8q-12.4-12.9-25.5-25.4-9.6-8.9-19.4-17.2l-22.9-21.2q-11.6-11.1-23.4-21.8a203,203,0,0,1-15.2-14.5q-8.3-8.4-17.2-16.5-12.9-11.4-25.7-22.2-9.9-9.7-19.6-19.8l-5.5-5.2-4.6-4.8h.4a17.2,17.2,0,0,1,5.1,3.3q9.6,8.2,18.5,17a125.3,125.3,0,0,0,15.1,13.8q12.3,9.1,23.8,19.4,5.6,4.4,10.4,9a149,149,0,0,0,12.6,11.3l34.8,31a69.9,69.9,0,0,1-6.7-9.7,48.1,48.1,0,0,0-9.1-12.1q-8.2-9.5-15.9-19.6A270.9,270.9,0,0,1-228.3-230a105.8,105.8,0,0,0-8.1-10.6q-5.3-6.3-6.6-10.1l.4.2.8.5a153.1,153.1,0,0,1,21.1,26q13.9,19.5,29.2,38A115.5,115.5,0,0,1-178-169.8Zm-128.4-58.9v-4l2.1,7.3,4.3,9.3q3.5,7.9,7.6,15.4a142,142,0,0,0,15.9,24.5l11.5,15.4q12,13.6,25.2,25.8,9.3,8.1,19.3,15.3,20.2,14.6,41.4,27.8a105.1,105.1,0,0,1,10.9,6.2q-4,.3-13-4.1a114.4,114.4,0,0,1-13-7l-22.6-14.9q-9-6.3-17.5-13.3A340.3,340.3,0,0,1-266.9-156q-6.4-8.2-11.7-16.1a135.3,135.3,0,0,1-21.1-38.6q-1.6-3.4-4.5-11.4Zm24.3,222a63.8,63.8,0,0,1,10,1.3A58.1,58.1,0,0,1-262-.8l5.5,3.4,2.6,2.5a6.6,6.6,0,0,1-5.9-1.4A45.5,45.5,0,0,0-288-2.2a50,50,0,0,0-5.5,1.4q-4.3,1.5-8.4,3.3-20.6,9.6-24.9,32a25.5,25.5,0,0,0,4.9,17.3,29,29,0,0,0,4.5,2.9l2.1,1.3a60.2,60.2,0,0,1,.3-19.8q1.9-10.7,7.1-15.3v.9l-.4,1.5A55.7,55.7,0,0,0-310.3,53a13.8,13.8,0,0,0,2,5.4l6.5,2.9,4.5,1.4A49.2,49.2,0,0,1-289,25.6a25.9,25.9,0,0,1,7.8-6.6q1,.5-.7,1.8a53.8,53.8,0,0,0-7.4,14.3,48.9,48.9,0,0,0-3.5,18.1q-.2,10.5,7.6,15.4t13.6-2.1a53.3,53.3,0,0,0,8.8-12.3,54.2,54.2,0,0,1,4.4-9.7q-6-1.7-8.5-.6a5.3,5.3,0,0,1,5.3-2.8q8,.8,8.5,8-1,.1-2.4-1.4-1.1,11.9-10.5,21.8h6.7q12.9-1.5,17.8-9.1a40.5,40.5,0,0,0,2-4.5q7.1-19.4-4.1-36.8-1.3-1.8-4.2-5.1t-1-5.3a3.5,3.5,0,0,1,2.8.8,36,36,0,0,1,7,7.1l.5-.9a12.1,12.1,0,0,0,2.1-12.3,30.2,30.2,0,0,0-17.5-16.8q-6.8-2.1-11.8-3.3t-11.6,2.9a23.1,23.1,0,0,0-5.1,6.7Zm60.9-30.5a157.8,157.8,0,0,1,22-11.2q7.3-3.1,14.3-5.7t13-5.1q11.5-5.2,23-9.4l18-6.3,10.5-3a125.9,125.9,0,0,1,13.9-2.3l17.5-3.2a126.9,126.9,0,0,0,13.1-2.4q7.2-1,15.5,2.8.1-4.4-3.4-5.7l-1.1-.2q-5.6-.5-11.1-.7l-5.2.4a179.5,179.5,0,0,0-45.5,6.8q-9.3,2.7-18.5,6.1l-5.4,2q-10.1,3.9-20.2,8.3t-18,9.1q-16.6,8-32.6,16.5-10,6.4-20.6,12-4.5,2.7-12.9,8.3a38.3,38.3,0,0,1,4.6,1.8l1.1-.9q7.3-4.6,14.1-9.3T-221.3-37.2Zm95.9,6q.4-2.4,1.2-5.6l-5.4,1.5A104,104,0,0,0-130.9-.4a82.5,82.5,0,0,0,3.7,15.8,134.9,134.9,0,0,1-1.3-21.9,59.3,59.3,0,0,1,1.3-12.1Q-126.4-25.9-125.4-31.1Zm-8.1,64.9a142.7,142.7,0,0,0-.7,18.9,310,310,0,0,0,6.5,49.7A61.7,61.7,0,0,1-113,92.1,205.9,205.9,0,0,1-81,80.3a176.6,176.6,0,0,1,33.3-4.7,217.7,217.7,0,0,1,31.2.3l5,.3a99.6,99.6,0,0,1,3.7-16q-2.8,1.4-5.5,3.1a76.9,76.9,0,0,1-44,9.2,102.9,102.9,0,0,1-43.2-11.8,51.2,51.2,0,0,1-21.1-20.3,90.3,90.3,0,0,1-9.6-19.4A54.5,54.5,0,0,0-133.6,33.8Zm61.9,93.7a48.3,48.3,0,0,0-9,8.3q-17,17.3-19.5,39.7a60.8,60.8,0,0,0,5.6,30.4,226.8,226.8,0,0,0,14.4,26.6q5.5,7.1,11.3,13.5a121.5,121.5,0,0,0,16.3,16.3,90.5,90.5,0,0,0,16,10.7q8.8,4.5,18,8.2A92.7,92.7,0,0,0-8.7,284l10.4,2.3a206.9,206.9,0,0,0,28,4.8l-5.1-3.7a95.3,95.3,0,0,1-9-8.4,69.6,69.6,0,0,1-8-9.5Q.4,258.5-6.2,247.2A96.6,96.6,0,0,1-15.1,220q-2.8-15.6,0-28.7a165.6,165.6,0,0,1,5.6-16.8A80,80,0,0,1,7.3,149.2a73.7,73.7,0,0,1,11.6-11l8.8-6.1a97.3,97.3,0,0,1,11-5.8l8.1-3.1a106.8,106.8,0,0,1,15.5-4.4,85.6,85.6,0,0,1,30.7,1.2q-11.8-7-23.7-13.2a118.4,118.4,0,0,0-17.2-7q-8.9-3.4-17.7-6.4-10.8-.6-22.6-.6a187.5,187.5,0,0,0-20.3,3,86.3,86.3,0,0,0-17.4,4.9,118.7,118.7,0,0,0-34.7,17.9Zm-57.4-3.5-1.7,2.9-1.8,5.6a78.3,78.3,0,0,0-2,10.1,6.6,6.6,0,0,1-.1.8,65.1,65.1,0,0,0-.8,11q.5,6.6,1.1,12.6a5.9,5.9,0,0,1,.1.8,77.2,77.2,0,0,0,2.8,13.4,15.9,15.9,0,0,1,.6,1.7q1.7,4.6,3.5,9a92.6,92.6,0,0,0,13.4,22,128.3,128.3,0,0,0,13,16.4,223.5,223.5,0,0,0,17.2,16.1,107.7,107.7,0,0,0,16.5,11.3l-2.3-2.1a90.6,90.6,0,0,1-6.8-7.6l-3.2-3.5-4-4.1a99.6,99.6,0,0,0-9.2-9.2l-.3-.2-1.5-1.9a60,60,0,0,0-5.1-6.1l-2.9-3.2a106.4,106.4,0,0,1-15.6-19.5,100.3,100.3,0,0,1-12.7-35q-.5-3.6-.9-6.9a100.8,100.8,0,0,1,2.4-32.2A6.1,6.1,0,0,0-129.1,124Zm263.3,30-10.5-10a125.7,125.7,0,0,0-18-15.7,58.3,58.3,0,0,0-10.5-3h-.2a48.2,48.2,0,0,1,10.5,8.3l6.1,5.3,14.2,13.5q2.9,3.3,5.3,6.4a17.3,17.3,0,0,1,1.8,2.2l2.2.3a51.4,51.4,0,0,1,6.7,1.7Q138,158.1,134.2,153.9Zm12.6,15.9a37.2,37.2,0,0,0-16.1-3.8,92.6,92.6,0,0,0-17.5,2.1q-7.2,1.8-15.2,9.1a51.2,51.2,0,0,0-17,27.9,42.4,42.4,0,0,0,.4,26,61.5,61.5,0,0,0,10.5,22,21.4,21.4,0,0,0,4.2,4.5q13.6,10.5,31.3,8.7a27.3,27.3,0,0,0,5.5-1.5l8.2-6q1.8-1.4,6.2-5.5-12-4.2-17.3-13.2-9.4-17.5,1.2-34,3.4-4.9,11.4-10.9l1.9-.9.8-.3h3a35.3,35.3,0,0,0,8.3.1l-1.2-7.2A62.8,62.8,0,0,0,146.8,169.8ZM164.6,201h-6.5l-6.5-.2a19.4,19.4,0,0,0-4.2.1l-1.5.3a4.3,4.3,0,0,0-1.5.7,2.3,2.3,0,0,0-1,1.5,28.9,28.9,0,0,0-4.8,4.2q5.6.2,8.5.5a93.6,93.6,0,0,0,14.7.4,113.6,113.6,0,0,0,11.9-1.3h1.2a99.5,99.5,0,0,0,21.6-4.2,103.5,103.5,0,0,0,13.2-4.9,59.9,59.9,0,0,0,6.9-3.9l2.7-1.9q3.2-2.4,6.4-5.2a125.4,125.4,0,0,0,14.1-15.3q5.1-6.6,9.1-12.9a56.7,56.7,0,0,0,3.8-6.7l.2-.3,1-2.2.4-1,.9-2.6.4-1.3.2-.6-1.5,2.1-1,1.6-3.4,5.3-15,17.8a78.7,78.7,0,0,1-16.4,15.3,68.7,68.7,0,0,1-20.3,9.8l-2.8.7a104.8,104.8,0,0,1-28.9,4.7h-1.9Zm-47.7,72.2-6.3-1.2-1.5,1a139.8,139.8,0,0,1-44.3,12.8q-8.6,1.2-15.9,2.9a78.7,78.7,0,0,1-8.3,1.3l4,2q4.7,0,9.2-.2,28.2-1.8,51.1-9.8a62.6,62.6,0,0,0,14.6-8.2Z" transform="translate(334.6 302.9)" style="fill:#050000;fill-rule:evenodd"/><path d="M23.9-176.9a23.9,23.9,0,0,0-13.8,13.7,57.1,57.1,0,0,0-4.2,19.9A43.5,43.5,0,0,0,11-122.5q-4.3-3.2-8.3-5.8a36.3,36.3,0,0,0-15-4.7q-7.4-.6-12.6,7.5a11.7,11.7,0,0,0-2.6,5.6q4.9-9.6,15.4-9.5A56.6,56.6,0,0,1,19.5-109q6.4,7.8,13,15.3,5.1,5.5,9.6,11.3a12.1,12.1,0,0,0,6,4.8A30.6,30.6,0,0,0,44-85.7q6.1,3.6,12.5,6.8t13.7,2.3A37.6,37.6,0,0,0,84-79a33.2,33.2,0,0,0,5.3-3.5q1.9,2.6,7.7,0,15.6-9.3,17.5-27.3a3.7,3.7,0,0,0-.7-2.9l-1.8,4.8a44.5,44.5,0,0,1-2.4,6A39,39,0,0,1,93-87a108.6,108.6,0,0,0-2.3-12.7,126.6,126.6,0,0,0-4.7-13.6,274.2,274.2,0,0,0-12.1-25.3A172.8,172.8,0,0,0,63-156.6a117.5,117.5,0,0,0-8.6-11.2q-5.6-6.6-10.2-9.3a37.8,37.8,0,0,0-7.7-4.2q-5.3-2.4-8.3-2.1a74.9,74.9,0,0,1,17.1,11.3h-.1A25.9,25.9,0,0,0,23.9-176.9Zm-42.9,9.8q4.9-1.7,10.2-3.1a51,51,0,0,0,12.5-3.6l4.5-1.8q7.1-4.1,14.2-9A65.4,65.4,0,0,1,44-194.1a43.4,43.4,0,0,1,28.8,1.6q19.4,5.3,27.4,23.6A192.1,192.1,0,0,1,116.9-131l2.1,7.6a1.3,1.3,0,0,0,1,1.5,50.4,50.4,0,0,0-2.5-19.6,207.2,207.2,0,0,0-9.7-24.1q-.6-1.7-1.3-3.4l1.9,1.4,8.8,5.9q4.6,3.8,8.6,7.5A150.7,150.7,0,0,1,138-141.7q8.4,10.5,4.7,24.9a148.1,148.1,0,0,1-9,25.4,3.7,3.7,0,0,0-.3.9,22.8,22.8,0,0,0-4.8-4.1,12.7,12.7,0,0,1-3-1.5l-1.1-.9a8,8,0,0,0-5.1-2.3l5.7,5.7a142.3,142.3,0,0,1,23.1,35.9A109.5,109.5,0,0,1,151-45.7a65.2,65.2,0,0,1-.3,12.9A59.3,59.3,0,0,1,144.1-14,322.2,322.2,0,0,1,83-33Q63.6-41.3,44.6-50.7A157.6,157.6,0,0,1,20.3-66.2,130.4,130.4,0,0,1-3.9-89.4a48.7,48.7,0,0,0-3.5-4.4,10.4,10.4,0,0,0-.1-1.8q6.4-.4,4.3-3.4-8.4-3.4-14.3,4.9a5.6,5.6,0,0,0-1.7,5.3q2.7-2.8,6.1-5.6a79.8,79.8,0,0,0-.7,12.9q0,7.8,3.5,18.5A83,83,0,0,0-1.9-44.7a22.7,22.7,0,0,1-7-5.5,19.5,19.5,0,0,0-3-3.1q-.6,2.8,3,6.5a29.7,29.7,0,0,0,6.2,5.2,70.1,70.1,0,0,0,16.9,6.6,32.5,32.5,0,0,0,4.9,1.4A135.4,135.4,0,0,0,69-32.3l1.7-.4q11.3,5.3,23.2,9.9L77.8-19.6A189.5,189.5,0,0,1,40.7-15a104.9,104.9,0,0,1-40-7.2q-19.8-7.7-23.2-30.3a127.5,127.5,0,0,1,.2-16,90.3,90.3,0,0,0-.4-10.1q-.5-6.9-3-8.3a55.8,55.8,0,0,1-.2,18.9l-9.7-10.5a105.5,105.5,0,0,1-17.7-29.6q-10.5-23.1,5.9-43,4.6-4.9,13.4-9.4A137.1,137.1,0,0,1-18.9-167.2ZM-34.1-46.9Q-43.5-58.8-43.9-76A105.5,105.5,0,0,0-30.7-59.6l3.2,3a37.9,37.9,0,0,0,2,15.4A53.3,53.3,0,0,1-34.1-46.9Zm185-38.1q.8,5.5,1.4,8.3.2,5.7.2,11.2a45.5,45.5,0,0,0-4.3-9,53.1,53.1,0,0,0-6.9-8.5A33.7,33.7,0,0,0,150.9-85.1ZM-71.7,127.5l11.2-8.9a118.6,118.6,0,0,1,34.7-17.9A86.3,86.3,0,0,1-8.4,95.8a187.5,187.5,0,0,1,20.3-3q11.8,0,22.6.6,8.8,2.9,17.7,6.4a118.4,118.4,0,0,1,17.2,7q12,6.2,23.7,13.3a85.5,85.5,0,0,0-30.7-1.2,106.8,106.8,0,0,0-15.5,4.4l-8.1,3.1a97.5,97.5,0,0,0-11,5.8l-8.8,6.1a73.6,73.6,0,0,0-11.6,11A80,80,0,0,0-9.5,174.5a165.7,165.7,0,0,0-5.6,16.8,73.1,73.1,0,0,0,0,28.8,96.6,96.6,0,0,0,8.9,27.2Q.4,258.5,7.5,269.4a69.7,69.7,0,0,0,8,9.5,95.5,95.5,0,0,0,9,8.4l5.1,3.8a206.9,206.9,0,0,1-28-4.8L-8.7,284a92.1,92.1,0,0,1-9.8-2.9q-9.2-3.7-18-8.2a90.6,90.6,0,0,1-16-10.7,121.5,121.5,0,0,1-16.3-16.3q-5.8-6.4-11.3-13.5a226.9,226.9,0,0,1-14.4-26.6,60.8,60.8,0,0,1-5.6-30.4q2.5-22.4,19.5-39.7A48.2,48.2,0,0,1-71.7,127.5Zm-61.9-93.7a54.5,54.5,0,0,1,2.3-12.9,90.3,90.3,0,0,0,9.6,19.4,51.2,51.2,0,0,0,21.1,20.3A102.9,102.9,0,0,0-57.3,72.4a76.9,76.9,0,0,0,44-9.2q2.7-1.7,5.5-3.1a99.3,99.3,0,0,0-3.7,16l-5-.3a217.9,217.9,0,0,0-31.2-.2A176.6,176.6,0,0,0-81,80.3a206.2,206.2,0,0,0-32,11.8,61.7,61.7,0,0,0-14.7,10.3,310.1,310.1,0,0,1-6.5-49.7A142.8,142.8,0,0,1-133.6,33.8Zm280.4,136a62.8,62.8,0,0,1,8.5,17.4l1.2,7.3a35.3,35.3,0,0,1-8.3-.1h-3l-.8.3-1.9.9q-8,6-11.4,10.9-10.6,16.5-1.2,34,5.3,9,17.3,13.2-4.4,4.1-6.2,5.5l-8.2,6a27.4,27.4,0,0,1-5.5,1.5q-17.7,1.9-31.3-8.7a21.4,21.4,0,0,1-4.2-4.5,61.5,61.5,0,0,1-10.5-22,42.4,42.4,0,0,1-.4-26,51.2,51.2,0,0,1,17-27.9q8-7.3,15.2-9.1a92.6,92.6,0,0,1,17.5-2.1A37.2,37.2,0,0,1,146.8,169.8Z" transform="translate(334.6 302.9)" style="fill:#fddf00;fill-rule:evenodd"/></svg>