<svg id="Bee_Mascot" xmlns="http://www.w3.org/2000/svg" viewBox="0 0 669.2 605.7"><title>YellowJacket514_1c</title><path d="M113.9-112.4l-.2-.4-1.8,4.8a44.5,44.5,0,0,1-2.4,6A39,39,0,0,1,93-87a108.6,108.6,0,0,0-2.3-12.6q-1.4-5.1-3.3-10.2l-1.3-3.4a274.3,274.3,0,0,0-12.1-25.3,172.8,172.8,0,0,0-10.9-18,117.7,117.7,0,0,0-8.6-11.1q-5.6-6.6-10.2-9.4L42-178.6h-.1l-1.9-1h0l-1.4-.7-2.1-1-3.7-1.4a12.2,12.2,0,0,0-4.6-.7,74.5,74.5,0,0,1,15,9.5l2.1,1.8h-.1a25.9,25.9,0,0,0-21.2-4.7,23.9,23.9,0,0,0-13.8,13.7,57.1,57.1,0,0,0-4.2,19.8A43.5,43.5,0,0,0,11-122.5h0q-4.3-3.2-8.3-5.8a36.4,36.4,0,0,0-15-4.7q-7.4-.6-12.6,7.5a11.6,11.6,0,0,0-2.6,5.6q4.9-9.6,15.4-9.5A56.6,56.6,0,0,1,19.5-109q6.4,7.8,13,15.3,4.1,4.4,7.8,9.1l1.7,2.2.7.9a12,12,0,0,0,5.3,3.9A30.6,30.6,0,0,0,44-85.7h.1q6,3.6,12.4,6.7h.1q5.3,2.4,13.7,2.3A37.6,37.6,0,0,0,84-79l1.6-.9,3.7-2.7a2.9,2.9,0,0,0,.9.8c1.4.9,3.6.6,6.7-.8q14.6-8.7,17.2-25.1.2-1.1.3-2.2A3.8,3.8,0,0,0,113.9-112.4ZM60.2-91.1q-3.4-1-6.4-5.6t-.7-6.2q3.5,0,6.1,4.5T60.2-91.1Zm-.5-16.3q-9.7.1-16-10.2t-6.9-19q-1.2-5.1,2.8-7.6,5.1.4,10.5,7.1a56,56,0,0,1,7.5,11.3,77.8,77.8,0,0,1,3.9,10.1Q63.7-108.7,59.7-107.4ZM81.8-81.7q4.4-6.6,1.2-16.7t-6.1-17.1a151.7,151.7,0,0,0-17.7-33.4,85.7,85.7,0,0,0-10.5-11.5q-7-6.7-12.5-9.1a17.3,17.3,0,0,0-10-.2,5.1,5.1,0,0,0-3.5,2.2q-3.5,3.6-5.3,12.5t-1.7,13.3a85.1,85.1,0,0,0,11,34.4l-4.2-4.7L16.2-124A42.1,42.1,0,0,1,12-152.6a43.8,43.8,0,0,1,5.8-14.7q4.3-6.8,13.5-6.2a49.9,49.9,0,0,1,21.6,12.5,8.8,8.8,0,0,0,3.9,2.8,131.1,131.1,0,0,1,9.2,15.6l7.6,14.9a142,142,0,0,1,8.7,20.1q3.1,8.5,5.7,17.4.4,1.5,1.2,4.4Q85.7-83.7,81.8-81.7Z" transform="translate(334.6 302.9)" style="fill:#050000"/><path d="M300.9-151.7h0Z" transform="translate(334.6 302.9)" style="fill:#050000"/><path d="M-220.6-119.7q-10-7.2-19.3-15.3-13.2-12.2-25.2-25.7l-11.5-15.4a142,142,0,0,1-15.9-24.5q-4.1-7.5-7.6-15.4l-4.3-9.2-2.1-7.3v4l2.1,6.6q3,8.1,4.5,11.4a135.3,135.3,0,0,0,21.1,38.6q5.4,7.9,11.7,16.1a340.3,340.3,0,0,0,32.4,31.1q8.5,7.1,17.5,13.3l22.6,14.9a114.4,114.4,0,0,0,13,7q9,4.3,13,4.1a105.1,105.1,0,0,0-10.9-6.2Q-200.4-105-220.6-119.7Z" transform="translate(334.6 302.9)" style="fill:#050000"/><path d="M332-139.9a70.2,70.2,0,0,0-6.4-5.6l-1.8-1.5a48.3,48.3,0,0,0-9.8-5.1,70.1,70.1,0,0,0-10.1-4.6,121.4,121.4,0,0,0-15.8-4l-23.3-3.6-1.7-.4a214,214,0,0,0-48.4-1.9q-9.1,0-18.2.5L153.3-163l-23.2,2.3-3,.7a73.9,73.9,0,0,0-12.7-9.8q-4.4-3.1-11.9-7.8l-1.7-3a44.1,44.1,0,0,0-9.8-9.1l-1.6-1.1h0a76,76,0,0,0-20-9.6,17.7,17.7,0,0,0-3.3-1.1,40.6,40.6,0,0,0-5.1-.6l4.3-2q16.7-7.7,33.8-14,7.6-2.6,15.4-4.5T129-227l12.6-2.9h.5a246.7,246.7,0,0,1,26.1-3.5,142,142,0,0,1,42.2,2.7q11.7,4.5,29.6,5.5a24,24,0,0,0,7.3-.6l.8-.2a31.3,31.3,0,0,0,8.5-3.2q7.1-4.1,7.8-7.7a9,9,0,0,0,.8-4.3,2.5,2.5,0,0,0-.3-1.5q-3.1-5.3-10.5-7.6a38.4,38.4,0,0,0-4.7-1.7,76.7,76.7,0,0,0-14.2-2.6l-2.9-.2q-9.8,0-19.4.8l-4,.5-12.4.8q-5.1.3-10.6,1.1-18.5,2.5-37.6,6.6a288.8,288.8,0,0,0-64,21.4Q66-215,47.6-205.4l-6.5,3.5a55.4,55.4,0,0,0-17.9,7.4,136.7,136.7,0,0,0-13.7,9.9q-11.1,3.8-22.9,6.6-7.1,1.9-13.1,3.9-4.6-9.7-7.2-14.4a270.8,270.8,0,0,0-22.9-35.8q-4.9-6.2-9.2-12.9-7.9-9.8-16.7-19.7a211.3,211.3,0,0,0-30.7-30.9q-6.8-4.8-14.6-9.4a43.4,43.4,0,0,0-14.1-5.5h-.4l.3.4.9.7h-.6q-2.9,1.3-4.1,7.5-4.5,16.3-3.8,29a182.2,182.2,0,0,0,6.3,51.3,272,272,0,0,0,7.7,26.6l3,8.9-39.9-36.9a161.3,161.3,0,0,0-16.2-13.9q-10.2-9.3-21.7-18.2a363.3,363.3,0,0,0-34.2-23.6q-18.1-9.7-36.5-18.9a102.2,102.2,0,0,0-35-9.5q-4.7,0-9.2-.5h-1.1l-1.2.3h-.6q-1.3-.2-1.9,1.6a1.2,1.2,0,0,0-.2,1.3,50.3,50.3,0,0,0-.2,11.6l.8,9.1a201,201,0,0,0,7.6,48.8q3.8,12.6,8.4,24.8a216.9,216.9,0,0,0,8.6,20.9,144.6,144.6,0,0,0,16.6,28.3,206.5,206.5,0,0,0,23.8,27.3q38.9,35.3,84.3,50.9l8.8,3a224.3,224.3,0,0,0-24.8,12.1q-21.7,10.7-42.6,22.8-4.6,2.8-9.2,6a58.3,58.3,0,0,0-5.9,3.8l-3.3,2.1a45.3,45.3,0,0,0-5,3.6,22.6,22.6,0,0,0-3.6-1.1q-6.2-.8-13.9,3.8T-289.2-8a57.8,57.8,0,0,0-20.3,6.7,43.3,43.3,0,0,0-22.4,24.4,19.1,19.1,0,0,0-.6,2.3q-4.5,12.8.6,23.8a28.9,28.9,0,0,0,7.1,8.1q6.2,7.2,13.8,7.6,9.2,9,20,7.6a18.7,18.7,0,0,0,16,2.6q4.3,2.6,12.3,2.8t12-1.3q16.2-7.9,19.8-26a41.1,41.1,0,0,0-5.1-29.8,9.8,9.8,0,0,0,2.3-1.8l.5-.4a10.7,10.7,0,0,0,2-2.3,18,18,0,0,0,.3-16.4,115.6,115.6,0,0,0,10.7-5.5,152.5,152.5,0,0,1,23.3-9.2l36.2-12.5q12.7-3.4,25.6-6.5a72.4,72.4,0,0,0-2,16.5q0,9.1.3,14.3a37.8,37.8,0,0,0,.6,6,91.5,91.5,0,0,0-5.1,18.9,152.6,152.6,0,0,0,5.1,76.3,24.3,24.3,0,0,0,2.6,5.9,25.2,25.2,0,0,0,.8,2.8,3.9,3.9,0,0,0,.6,1.4l-.2.5-.2.5h-.1q-1.3,2.9-2.7,5.5a65,65,0,0,0-3.2,6.3,42,42,0,0,0-2.6,7.3q-5.8,20.5-1,47.1t28.1,58A164.5,164.5,0,0,0-100,248q23.1,21.8,47.7,32.1,12.3,5.7,24.5,10.2A278.2,278.2,0,0,0-.5,297.7a177,177,0,0,0,33.1,4.8,224.9,224.9,0,0,0,35.4-.8q27.5-2.5,48.4-12.6a145.5,145.5,0,0,0,42-27.5,32.2,32.2,0,0,0,3.4-4.4,198.8,198.8,0,0,0,27.9-16q6.4-4.1,12.6-9a224.2,224.2,0,0,0,20.3-19.1l6-6.4a105.1,105.1,0,0,0,9.3-10.9,79.2,79.2,0,0,0,8.4-10.3,113.4,113.4,0,0,0,9.1-15.5,52.7,52.7,0,0,0,4-31.6,3,3,0,0,0-1.1-2.2,1.9,1.9,0,0,0-1.9.3l-1,1.7h0l-.5.7q-1.9,3.1-4.5,6.7a97.8,97.8,0,0,1-7.3,9.4l-3.1,3.2-6.5,8.2A50.3,50.3,0,0,1,220,177q-8.5,4.8-15.2,7.9a80.6,80.6,0,0,1-28.7,8.3l-9.3.9a76.7,76.7,0,0,0-7.4-20.8A189.5,189.5,0,0,0,131.6,137a136.2,136.2,0,0,0-13.8-11.1,204.8,204.8,0,0,0-19.9-12.2A220.9,220.9,0,0,0,54.7,92.7q-10.5-3.7-21.3-7h-.2a149.6,149.6,0,0,0-22.4-5.7A158.7,158.7,0,0,0-5.5,76.7Q-4.4,72-3.1,65.6l.9-8.4h-.1a29,29,0,0,0,3.4-2.1A154.4,154.4,0,0,0,16,43.8q4.6-3.9,9-8.1a176.2,176.2,0,0,0,21.3,11A178.9,178.9,0,0,0,82.5,57a176.6,176.6,0,0,0,19.8,2.5,183.7,183.7,0,0,0,19.5,1.4l16.1.5q8.9.2,24.8.1,10.3-.1,13.9,2a27.1,27.1,0,0,0,6.6,5.5,23.7,23.7,0,0,0,7,2.6h.1q8.1,1.7,17.1-2.2,6.3,3.8,10.1,4.7,27.2,6.1,45.1-15.3,8.1-9.3,10.2-23.1t-2.3-25.2q-6.4-18.9-24.4-25.1a35.8,35.8,0,0,0-10.4-1.5,17.2,17.2,0,0,0-5.1.9,14,14,0,0,0-6-4.4,14.3,14.3,0,0,0-8.7-1.7q-18.6,6.1-25.5,25.1L189.1,8l-.9.4-4.4,1.3a22.3,22.3,0,0,0-8.8,8.5l-1,1.7-10.3.4-4.5.3H155l-5.9-.2-6-.6q-11.4-1.3-22.7-3.6a142.3,142.3,0,0,1-52.7-25l-3.3-2.5,7.8-1.5a275.5,275.5,0,0,0,29.5-5.9l2-.9q7,2.3,14,3.9a122.8,122.8,0,0,0,25.3,5.9q4.6.8,6.3-2.2,7.6-13.1,7.2-31.1v-8.1a104.6,104.6,0,0,0-2.6-35.1,1.1,1.1,0,0,1-.1-.4q9.4-4.8,10.4-17.6a44.1,44.1,0,0,0-9.4-29.6q-1.9-2.4-5.7-6.7a38.1,38.1,0,0,0-6.2-5.7,21.5,21.5,0,0,0-4.2-2.4,61.7,61.7,0,0,1-4.3-4.6q16.5-1,33.5-1,6.9.2,14,0h9.7q16.7,1.1,33.1,2.9l3.3.4,22,3.2a253.1,253.1,0,0,1,24.7,6.4l4.2,1.4,23.5,9.6a56.1,56.1,0,0,0,5.7,2.5,71,71,0,0,0,14.8,3.5,9.8,9.8,0,0,0,7.5-1.8q3-2.4,3.5-4.5l.6-3.1A9.7,9.7,0,0,0,332-139.9Zm-124-109,.5-.3,5.3-.3,2.6-.2a35.5,35.5,0,0,1,4.8-.4,66.2,66.2,0,0,1,21,1.4,106.1,106.1,0,0,1,12,3.5q6.7,3,5,6.2l-1,1.1-.6.8A18.5,18.5,0,0,1,251-233a27.7,27.7,0,0,1-7,1.8q7.9-3.1,6.3-9.4a3.3,3.3,0,0,0-.7-1.1l-1.6-1q-5.9-3.3-16.1-4.5l-5.9-.5-3.8-.4-12.2-.3-2.3-.2ZM233.1,12.9a15.5,15.5,0,0,1,4.4-.8,36.4,36.4,0,0,1,15,2.8l2,.9a3.1,3.1,0,0,0,2,.9,3.5,3.5,0,0,0,.1-.9q-.2-3-5.8-5.2a59.3,59.3,0,0,0-9.3-3,15,15,0,0,0-3.2-.2l-4,.4a34.3,34.3,0,0,0-1.3-19q7.5,1.4,10.8,2.2l1.7.4a18.1,18.1,0,0,1,8.7,5.3q18.2,19.1,11.1,43.1-.7,2.5-1.7,5t-1.6,3.3a42.5,42.5,0,0,1-17.3,17.5q-19.6,9.1-37.4-3.7l-5.5-4.3a19.7,19.7,0,0,0,8.1-3.8q2.2,9.5,16.9,8.6l6.3-1.5q4.8-1.5,2.3-3.8l-7.3.2a23.4,23.4,0,0,1-8.8-.2q-6-3.3-3.8-9.1a16.6,16.6,0,0,1,7.2-8.8q9.4-4.9,16-3.2l15.8,4.2a2.2,2.2,0,0,0,1.3.3l-2.6-2.4-5.7-2.6q-7.4-2.5-10.5-3.2a21.8,21.8,0,0,0-6.2-.6,37.2,37.2,0,0,0-12.2,3.7l-.9.6a6.7,6.7,0,0,0-.5-4.2q5.9-.5,10.8-7.4A41.2,41.2,0,0,0,233.1,12.9Zm-38.8-2.3a2.5,2.5,0,0,0,.6-1.5,43.6,43.6,0,0,1,4.2-9.3l1-1.7a42.4,42.4,0,0,1,10-10.7,13.1,13.1,0,0,1,4.5-2.3q5-1.4,10.4,2.3,3.6,3.4,3.9,9.8a30,30,0,0,1-.1,4.6A55.1,55.1,0,0,1,224.3,19a10,10,0,0,1-9,4.4l-1.6-.2a9.6,9.6,0,0,1-7-8.7,2.4,2.4,0,0,1-.1-.7,61.5,61.5,0,0,1,.7-10.6,3.2,3.2,0,0,0,.2-1.9,2,2,0,0,0-.9.6.2.2,0,0,0-.2-.2L205,4a18.8,18.8,0,0,0-2.2,8.3,20.6,20.6,0,0,0,1.8,8.7l.9,1.3q2.9,7.4,7.9,9a88.9,88.9,0,0,0-1.8,8.9q-1.1,8.8-8.2,12.4a9.8,9.8,0,0,1-5.3,1.5l-1.1-2.7a68.1,68.1,0,0,1-4.6-24.3A70,70,0,0,1,194.3,10.6ZM175.5,36.5l.3-1.6a34.7,34.7,0,0,1,11.6-20,61.1,61.1,0,0,0-1,10.8A69.3,69.3,0,0,0,191.2,54a41.2,41.2,0,0,0,2.2,4.9q1.4,2.8,3.6,6.4h-.2a21.4,21.4,0,0,1-3.6.3,14.8,14.8,0,0,1-5.7-1.1,14,14,0,0,1-6-4.9,34.3,34.3,0,0,1-6.2-17A30.9,30.9,0,0,1,175.5,36.5ZM-138.1-228.8q-1.2-6.3-2-12.7t-1.8-13.5a150.2,150.2,0,0,1,.7-33.5q.7-5.5,1.9-10.9a3.7,3.7,0,0,0,.1-.8l7.5,5.5a210.5,210.5,0,0,1,22.8,17.6q7.3,6.6,13.8,13.9t10.6,12.7l11.6,13.8,4.6,5.6,1.6,2.5a66,66,0,0,0,4.5,5.8l3.8,5.1q5.6,7.7,10.5,16.2a206,206,0,0,1,15.5,28.8v.4h0l.2.5h0l-2,1-3.7,2q-11.3,6.3-17.3,14.4a17.3,17.3,0,0,0-2.1,2.3h0l-1.8-3.6-3.3-6.6-.2-.7q-5.2-19.3-11.7-38.4-2.9-8.8-5.5-17.5a3.9,3.9,0,0,0-.6-1q-.2,3.8,2,12c1,3.6,1.8,6.6,2.5,9.2l.9,3.6c.9,4.9,2,9.7,3.1,14.6l.9,3.8h0A251.6,251.6,0,0,1-85-200q-4.8-7.7-9.4-15.5-3.6-6.1-7-12.3t-7.1-14.1q-5.9-10.8-12.2-21.5a35.7,35.7,0,0,1-3.4-3.9l-.9-1.3,2.8,5.9,3.7,7q4.9,10.3,10.5,20.3,4,8.6,8.5,17.4,6.5,11.3,12.6,23,4.3,8.4,9.1,16.6l4,6.8q6.7,12,13.1,24A39.9,39.9,0,0,0-65.2-133a45.1,45.1,0,0,0,.5,12.5,80.4,80.4,0,0,0,10,27.3h0l-7.5-1.4a61.9,61.9,0,0,0-5.2-8.1l-2.4-3-7.5-9-3.6-4.8q-15-19.5-31.5-38.1l-.3-.4-4.7-8.7-1.5-2.8q-4.2-8.6-8.1-17.8l-1.7-4.1A293.3,293.3,0,0,1-138.1-228.8ZM-175.8-83.1l-5.8-2.1-6.7-2.7-5.2-2.3a286.7,286.7,0,0,1-39.4-21.4q-5.7-3.9-11.1-8.3l-3.6-3-8.6-7.6-3.5-3.1a164.1,164.1,0,0,1-21.8-24.4,252.7,252.7,0,0,1-15.9-25.4,165.8,165.8,0,0,1-7.5-16.5,207.6,207.6,0,0,1-8.1-24.5q-2.8-13.3-5.4-27a222.1,222.1,0,0,1-6.7-37.6l-.3-2.5q0-1.3.1-2.6t-.1-1.3a126.9,126.9,0,0,1,52.3,17.1l11.3,5.6a322.8,322.8,0,0,1,32.2,19.1q9.6,7.4,19.4,14.4,11.2,10,23.4,19.7t22.3,20.6a455.4,455.4,0,0,1,66.1,68.4l7,8.4q10.4,12.6,20.4,25.4l.9,1.3a132.8,132.8,0,0,0-23.9.5q-6.4.7-12.4,1.7l-2.3.4-4.7-5.4-3-3.3-20.5-19.8a163.3,163.3,0,0,0-14.5-13.1,85.4,85.4,0,0,1-6-7.4q-6.5-8.6-12.9-17.4l-7.4-10.3a114.5,114.5,0,0,0-9.9-12.4l-3.7-3.9q-15.3-18.5-29.2-38a153.1,153.1,0,0,0-21.1-26l-.8-.5-.4-.2q1.3,3.8,6.6,10.1l3.6,4.4q2.7,3.5,4.5,6.2a270.9,270.9,0,0,0,22.4,33.3q7.7,10.2,15.9,19.6a48.1,48.1,0,0,1,9.1,12.1l1.5,2.4a72.5,72.5,0,0,0,5.3,7.3h0l-34.8-31a149.1,149.1,0,0,1-12.6-11.4l-2.4-2.3q-3.7-3.4-7.9-6.7-8.6-7.8-17.7-14.8l-6.1-4.6a125.3,125.3,0,0,1-15.1-13.8q-8.9-8.8-18.5-17a17.2,17.2,0,0,0-5.1-3.2h-.4l4.6,4.8,5.5,5.2q9.7,10.1,19.6,19.8,12.8,10.8,25.8,22.3,8.9,8,17.2,16.5,3.3,3.5,6.9,6.9t8.4,7.6q11.8,10.8,23.4,21.8l12.1,11.2,10.8,10q9.7,8.3,19.3,17.2,13.1,12.4,25.5,25.4l-3.7.9c-6.6,1.6-13.3,3.6-20.2,5.9l-4.6,1.6q-6.9,2.4-13.5,5.1h0l-6.1-1.9-3.8-1Zm-62.7,98.8-.5.9a36,36,0,0,0-7-7.1,3.5,3.5,0,0,0-2.7-.8q-1.8,1.9,1,5.3t4.2,5.1q11.2,17.4,4.1,36.8a40.5,40.5,0,0,1-2,4.5q-5,7.6-17.8,9.1H-266q9.4-10,10.5-21.8,1.3,1.5,2.4,1.4-.6-7.3-8.5-8a5.3,5.3,0,0,0-5.2,2.8q2.5-1.1,8.5.6a54.2,54.2,0,0,0-4.4,9.7,53.3,53.3,0,0,1-8.8,12.3q-5.4,5.6-13.6,2.1t-7.6-15.4a48.9,48.9,0,0,1,3.5-18.1,53.8,53.8,0,0,1,7.4-14.3q1.7-1.3.7-1.8a25.9,25.9,0,0,0-7.7,6.6,49.2,49.2,0,0,0-8.2,37.1l-4.5-1.4-6.5-2.9a13.8,13.8,0,0,1-2-5.4,55.7,55.7,0,0,1,2.1-29.8l.4-1.5v-.9q-5.2,4.6-7.1,15.3a60.2,60.2,0,0,0-.3,19.8l-2.1-1.2a29,29,0,0,1-4.5-2.9l-1.3-2a25.1,25.1,0,0,1-3.7-13q0-1.1.1-2.3a52.7,52.7,0,0,1,1.3-5.4q5.6-18.2,23.6-26.6,4.1-1.9,8.4-3.3A50,50,0,0,1-288-2.2a45.5,45.5,0,0,1,28.3,5.8A6.6,6.6,0,0,0-253.9,5l-2.6-2.5L-262-.8a58,58,0,0,0-10.1-4.5,49.3,49.3,0,0,0-5.7-.9l-4.3-.4-.2-.3a23.1,23.1,0,0,1,5.1-6.7q6.7-3.9,11.6-2.9t11.8,3.3A30.2,30.2,0,0,1-236.4,3.5a14.1,14.1,0,0,1,.8,5A11.9,11.9,0,0,1-238.5,15.8ZM-149-68.6q-11.5,4.1-23,9.4-6.3,2.3-12.9,5.1t-14.3,5.6a157.8,157.8,0,0,0-22,11.3l-6.9,4.2-6.9,4.5q-6.8,4.7-14.1,9.3l-.6.5-.6.5a38.3,38.3,0,0,0-4.6-1.7h0q8.4-5.6,12.9-8.3,10.6-5.6,20.6-12,16-8.5,32.6-16.5l3.7-1.9,14.3-7.2,8.1-3.4,12.1-4.9,5.4-2q6.2-2.3,12.3-4.3l1.5-.5h.1l4.6-1.4c4.8-1.4,9.8-2.5,14.8-3.5s10-1.7,15.2-2.3,10.3-.9,15.6-1h.5l4.2-.3h1.3l6.8.4,3.6.3,1.1.2q3.4,1.3,3.4,5.7a28.6,28.6,0,0,0-13.7-3l-1.8.2a126.9,126.9,0,0,1-13.1,2.4l-17.5,3.2a126,126,0,0,0-13.9,2.3l-10.5,3Zm21.9,84h0A82.7,82.7,0,0,1-130.9-.4a102.9,102.9,0,0,1-.3-24.6q.2-1.7.4-3.3c.3-2.3.7-4.6,1.2-6.9l5.4-1.5h0l-.8,3.4-.4,2.2q-1,5.3-1.7,12.5a68.8,68.8,0,0,0-1,6.9,49.5,49.5,0,0,0-.3,5.2c0,2.2,0,4.3,0,6.5A128.1,128.1,0,0,0-127.2,15.4Zm-6.4,48.3c-.3-3.7-.6-7.4-.8-11.1a142.8,142.8,0,0,1,.8-18.9,54.5,54.5,0,0,1,2.3-12.9h0a97.7,97.7,0,0,0,8.2,17.2l1.5,2.2a51.2,51.2,0,0,0,21.1,20.3q4.5,2.4,9.1,4.2a102.4,102.4,0,0,0,34.1,7.6l5.9.3A79.4,79.4,0,0,0-40,72a75.2,75.2,0,0,0,13.7-3.1,78,78,0,0,0,13-5.7q2.7-1.7,5.5-3.1h0l-1.1,3.6q-1.4,5.1-2.2,9.5c-.2,1-.3,2-.5,2.9h0l-5-.3-4.8-.3a214.9,214.9,0,0,0-26.4.1h-.5A176.5,176.5,0,0,0-81,80.3l-7.4,2.2Q-96.2,85-103.6,88q-4.8,1.9-9.4,4.1a57.1,57.1,0,0,0-9.5,5.9q-2.7,2-5.3,4.4h0A307.5,307.5,0,0,1-133.5,63.7Zm66.3,194.1a107.7,107.7,0,0,1-16.5-11.3A223.5,223.5,0,0,1-101,230.3a120.5,120.5,0,0,1-9.8-11.9l-3.2-4.6a92.6,92.6,0,0,1-13.4-22q-1.8-4.3-3.5-9l-.4-1.2-.2-.4a80.5,80.5,0,0,1-2.4-10.1q-.3-1.6-.5-3.3a5.9,5.9,0,0,0-.1-.7c-.2-1.4-.3-2.8-.4-4.3s-.3-3.8-.5-5.8l-.2-2.5c0-1.7,0-3.4.1-5s.3-4.1.7-6.1a6.3,6.3,0,0,0,.1-.8,78.3,78.3,0,0,1,2-10.1l1.8-5.6,1.7-2.9a6.1,6.1,0,0,1-.3,2.1q-.5,2-.9,4.1a99.8,99.8,0,0,0-1.5,28.1q.4,3.3.8,6.9a100.4,100.4,0,0,0,12.7,35,106.4,106.4,0,0,0,15.6,19.5l2.9,3.2q2.3,2.4,4,4.7l1.1,1.5,1.5,1.9.3.3,1.4,1.2q3.4,3.1,6.5,6.4l1.3,1.5,4,4.1,1.2,1.4,1.9,2.1a90.7,90.7,0,0,0,6.8,7.6l1.6,1.5.7.7h0Zm172.1,24.2q-22.9,8-51.1,9.8-4.6.3-9.2.3l-4-2a78.8,78.8,0,0,0,8.3-1.3q7.4-1.7,15.9-2.9A139.8,139.8,0,0,0,109,273l1.5-1,6.3,1.2,2.5.5A62.5,62.5,0,0,1,104.8,281.9ZM160.9,201h5.6a104.8,104.8,0,0,0,28.9-4.7l2.8-.7a68.7,68.7,0,0,0,20.3-9.8A78.7,78.7,0,0,0,235,170.6l15-17.7,3.4-5.3,1-1.6,1.5-2.1-.2.6-.4,1.3-.9,2.6-.4,1-1,2.2-.2.3a56.7,56.7,0,0,1-3.8,6.7q-4,6.3-9.1,12.9a125.3,125.3,0,0,1-14.1,15.3q-3.1,2.9-6.4,5.3l-2.7,1.9a59.9,59.9,0,0,1-6.9,3.9,103.5,103.5,0,0,1-13.2,4.9,99.5,99.5,0,0,1-21.6,4.3h-1.2a113.6,113.6,0,0,1-11.9,1.3,93.6,93.6,0,0,1-14.7-.4q-3-.4-8.5-.5a28.9,28.9,0,0,1,4.8-4.2,2.4,2.4,0,0,1,.3-.8l.7-.7a4.3,4.3,0,0,1,1.5-.7l1.5-.2a19.4,19.4,0,0,1,4.2-.1l6.5.3ZM95.1,125.2a58.3,58.3,0,0,1,10.5,3,125.7,125.7,0,0,1,18,15.7l10.5,10q3.8,4.2,7.4,8.9a51.4,51.4,0,0,0-6.7-1.7l-2.2-.3a17.3,17.3,0,0,0-1.7-2.2q-2.5-3.1-5.3-6.4l-14.2-13.5-6.1-5.2a48.3,48.3,0,0,0-10.5-8.3Zm2.8,52q8-7.3,15.2-9.1a92.6,92.6,0,0,1,17.5-2.1,37.2,37.2,0,0,1,16.1,3.8,66.3,66.3,0,0,1,7,13q.9,2.2,1.5,4.3l1.2,7.3a35.3,35.3,0,0,1-8.3-.1h-3l-.8.3-.5.3-1.4.6a67,67,0,0,0-8.5,7.4,30.6,30.6,0,0,0-2.9,3.5,32.8,32.8,0,0,0-5.6,16.7,33.6,33.6,0,0,0,4.4,17.2q5.3,9,17.3,13.2-4.4,4.1-6.2,5.5l-8.2,6a27.2,27.2,0,0,1-5.5,1.5A42.2,42.2,0,0,1,96,257.8a21.4,21.4,0,0,1-4.2-4.5,61.4,61.4,0,0,1-8.7-16.1q-1-2.9-1.8-5.9a42.4,42.4,0,0,1-.4-26A51.2,51.2,0,0,1,97.9,177.3Zm-86-84.5q11.8,0,22.6.6,8.8,2.9,17.7,6.4a118.4,118.4,0,0,1,17.2,7l11.9,6.4,11.8,6.8a85.6,85.6,0,0,0-30.7-1.2,106.8,106.8,0,0,0-15.5,4.4l-8.1,3.1a97.3,97.3,0,0,0-11,5.8L24,134.6l-5.1,3.6a73.7,73.7,0,0,0-11.6,11A81.1,81.1,0,0,0-3.3,162.7a79.9,79.9,0,0,0-6.2,11.8,165.7,165.7,0,0,0-5.6,16.8,73.1,73.1,0,0,0,0,28.8,96.6,96.6,0,0,0,8.9,27.2Q.4,258.5,7.5,269.4a69.7,69.7,0,0,0,8,9.5,95.5,95.5,0,0,0,9,8.4l5.1,3.8a206.9,206.9,0,0,1-28-4.8L-8.7,284l-1.2-.3-6.3-1.8-2.4-.8q-7.2-2.9-14.1-6.3l-3.9-1.9-1.7-1a90.5,90.5,0,0,1-14.2-9.7q-4.5-3.7-8.6-7.8t-7.7-8.5l-3-3.4q-4.2-4.9-8.3-10.1a223.5,223.5,0,0,1-13.3-24.2l-1.1-2.3a60.8,60.8,0,0,1-5.6-30.4A65,65,0,0,1-98,164.8v-.2l.3-.8a68.6,68.6,0,0,1,17.1-28l1-1.1a48.7,48.7,0,0,1,8-7.1l4.9-3.9,1.1-.9,5.1-4.1a118.6,118.6,0,0,1,34.7-17.9A86.3,86.3,0,0,1-8.4,95.8,187.5,187.5,0,0,1,11.9,92.7Zm36-96.8L46.8-2.4l-1,1.2-2,2.8a73.6,73.6,0,0,1-4.7,6.8l-1.6,1.8-3,4q-2.3,3.3-4.7,6.3A27,27,0,0,1,26.7,24q-8.5,8.4-16.8,17l-3.4,3A84.4,84.4,0,0,1-9,54q-3.6,2-8.5,4.3l-4.5,2a96.8,96.8,0,0,1-29.6,5.5h0l8.3-1.7,8.8-2.1A109.3,109.3,0,0,0-5.9,48.1l3.5-2.5A135.7,135.7,0,0,0,20,25.1Q30.4,12.7,40.3-.2L43.8-6l.5-.5,4.8-.7a8.3,8.3,0,0,1-.9,2.7ZM-25.5-41.3h0a53.3,53.3,0,0,1-8.6-5.6Q-43.5-58.8-43.9-76h0A105.5,105.5,0,0,0-30.7-59.6l1.2,1.1.4.3,1.7,1.5A37.9,37.9,0,0,0-25.5-41.3Zm93.9,40,8.8,5.8A132.1,132.1,0,0,0,129.3,24a139.9,139.9,0,0,0,26,2.6,139.2,139.2,0,0,0,15.7-.8h.6l-.6,2-1.3.2-3.5.3a180,180,0,0,1-52-3.5,161.9,161.9,0,0,1-40-13.3A100.9,100.9,0,0,1,54.5-2h.1a22.5,22.5,0,0,0,3.9-7.1A71.1,71.1,0,0,0,68.4-1.3ZM148-133.8a51.3,51.3,0,0,1,3.7,4.7l1.2,1.8,1.6,2.9a41,41,0,0,1,4.4,19.6q0,1.8-.2,3.7-2.5,1.1-5.1,2.6a2.6,2.6,0,0,1-1.2.4q-1.6,0-1.6-3.5h0a27.7,27.7,0,0,1,1.5-7.3,28.1,28.1,0,0,1,1.9-4.1,12.8,12.8,0,0,0-1.7-7.4,37.1,37.1,0,0,0-3.2-8.6l-.7-1.4c-.1-.8-.3-1.5-.4-2.3l-.2-1.1h0Zm1,49.4,1.8-.6.3,1.8c.4,2.8.8,4.9,1.1,6.5s.1,4.9.2,7.3,0,2.6,0,3.8h0l-.6-1.4a44.7,44.7,0,0,0-3.8-7.5l-2-2.9a46.8,46.8,0,0,0-4.8-5.6h0A34.6,34.6,0,0,0,149-84.4Zm-11-57.3a25.5,25.5,0,0,1,5.8,16.3,33.7,33.7,0,0,1-1.2,8.6,148.1,148.1,0,0,1-9,25.5,3.6,3.6,0,0,0-.3.9,22.9,22.9,0,0,0-4.8-4.1,12.7,12.7,0,0,1-3-1.5l-1.1-1-.6-.5a7.5,7.5,0,0,0-4.5-1.8l5.7,5.7a142.3,142.3,0,0,1,23.1,35.9A109.6,109.6,0,0,1,151-45.7q.1,1.7.1,3.4a64.1,64.1,0,0,1-.3,7.4c-.1.7-.1,1.4-.2,2.1l-.4,2.2A59.1,59.1,0,0,1,144.1-14a322.9,322.9,0,0,1-34.8-9.2Q96-27.5,83-33,63.6-41.3,44.6-50.7l-7.4-4.1a158.6,158.6,0,0,1-17-11.5A130.5,130.5,0,0,1-3.9-89.4a48.3,48.3,0,0,0-3.5-4.4h0a10.4,10.4,0,0,0-.1-1.8c3.1-.2,4.7-.8,4.8-2a2.3,2.3,0,0,0-.5-1.4,11,11,0,0,0-7.8-.5,13.5,13.5,0,0,0-6.5,5.3,5.6,5.6,0,0,0-1.7,5.3L-18-90q2.2-2.2,4.8-4.4h0a79.8,79.8,0,0,0-.7,12.8,50.9,50.9,0,0,0,1.7,12c.5,2.1,1.1,4.3,1.9,6.5A83,83,0,0,0-1.9-44.7h0a22.7,22.7,0,0,1-7-5.5L-10-51.5l-1.9-1.8q-.5,2.8,3,6.5a29.7,29.7,0,0,0,6.3,5.2l3.9,2a67,67,0,0,0,13,4.7l1.3.4,3.6.9A135.4,135.4,0,0,0,69-32.3h.6l1.1-.3q11.3,5.3,23.2,9.9h0L77.8-19.6A189.5,189.5,0,0,1,40.7-15a104.9,104.9,0,0,1-40-7.2A41.6,41.6,0,0,1-4-24.3h0l-2.5-1.5q-13.2-8.5-16-26.7c-.1-1.3-.1-2.6-.1-3.8q-.1-4.5.1-8.9c.1-1.1.1-2.1.2-3.2s0-3.4-.1-5.9-.2-2.7-.3-4.2-.1-1.3-.2-1.9a12,12,0,0,0-1.7-5.4,3.5,3.5,0,0,0-1.1-1,56.5,56.5,0,0,1,.4,14.9c-.1,1.3-.3,2.7-.6,4l-.2-.3-9.4-10.1h-.1a105.5,105.5,0,0,1-17.7-29.6,44.5,44.5,0,0,1-3.8-13.5q-1.7-15,9-28.5l.7-.9h0l1.1-1.1h.1a50.3,50.3,0,0,1,12.1-8.1,137.1,137.1,0,0,1,15.3-6.7q4.9-1.7,10.2-3.1a51,51,0,0,0,12.5-3.6l4.5-1.8q7.1-4.1,14.3-9A65.4,65.4,0,0,1,44-194.1a43.4,43.4,0,0,1,28.8,1.6q19.4,5.3,27.4,23.6A192.1,192.1,0,0,1,116.9-131l2.1,7.6h0a1.4,1.4,0,0,0,.5,1.2l.4.2q.1-1.2.1-2.4a50.8,50.8,0,0,0-2.7-17.1,207.2,207.2,0,0,0-9.7-24.1l-.3-.9-.5-1.4-.4-1h0l1.9,1.4,8.8,5.9q4.6,3.8,8.6,7.5A150.7,150.7,0,0,1,138-141.7ZM60.9-37.3l-11.4.8H48.4a109.6,109.6,0,0,1-14.2,0L27.7-37l-2.3-.2A113.5,113.5,0,0,1,7.1-41.1L2.7-47.3a49.8,49.8,0,0,1-4-7.7h.1a21.9,21.9,0,0,1,5-2l.6-.4-.2-.7L3-59.3l-2-1.5a26.5,26.5,0,0,1-6.5-6.4q-.6-2.6-1.1-5.2A80,80,0,0,1-7.7-88h0q3.4,4.5,5.8,7.4L.5-77.9l6.3,6.1,3.7,3.4A173.8,173.8,0,0,0,37.7-48.9h.1q4.6,2.7,9.3,5l4.2,2,5.5,2.5,4,1.9h0Zm267.3-94.2-1,.4-1,.3a14.4,14.4,0,0,1-8.4-.7l-3.2-.8q7.7-1.4,4.1-7l-.9-.9a66.5,66.5,0,0,0-11-6.2l-4.3-1.7q-6.5-2.5-13.2-4.4l-8.2-2.6q.3-.5,1.5-.5a35.2,35.2,0,0,1,6,.9l2.1.4,7.4,1.7,3.8,1h-.3a50,50,0,0,1,7.1,2.6h.4l1.8,1,7.1,3.6,5.7,3.9,3.6,3.6.6.5a6,6,0,0,1,.7,3Z" transform="translate(334.6 302.9)" style="fill:#050000"/></svg>